%
M48
M72
T01C0.01000
T02C0.01181
T03C0.02953
T04C0.03150
T05C0.03200
T06C0.03346
T07C0.03543
T08C0.04000
T09C0.04134
T10C0.04331
T11C0.05200
T12C0.05906
T13C0.11800
T14C0.12598
%
T01
X24605Y10714
X35455Y9314
X55055Y17014
X56455Y22614
X70105Y36964
X51905Y49214
X48405Y45714
X45605Y51664
X55755Y59364
X65205Y67764
X61355Y72314
X61355Y79314
X69405Y84914
X71855Y81064
X75355Y75464
X76055Y69164
X86205Y63214
X92855Y62514
X104755Y61464
X109655Y68464
X124355Y68814
X130305Y50964
X138005Y50964
X162855Y42564
X175455Y50964
X179655Y47114
X182805Y42914
X173005Y56214
X164255Y63214
X179655Y71614
X185255Y75114
X182455Y78964
X192255Y82114
X195055Y95764
X199605Y100664
X199955Y105564
X195755Y117814
X199955Y119214
X213955Y109764
X229355Y109764
X235305Y100664
X247905Y120614
X249305Y132864
X250005Y136714
X250705Y140564
X250355Y144764
X254905Y153864
X255255Y159114
X247905Y163314
X247905Y171014
X232155Y169614
X231805Y173814
X227955Y176964
X222355Y184664
X207655Y168214
X210105Y158764
X207305Y153864
X206605Y148264
X206605Y139864
X198555Y137414
X182805Y123764
X169505Y134964
X169505Y139864
X160405Y125864
X155505Y114664
X148505Y119564
X145005Y116414
X135205Y119214
X128205Y127964
X124355Y133914
X120855Y122364
X106505Y119214
X96005Y107664
X98455Y103114
X90755Y114314
X82005Y126214
X70455Y124814
X65205Y124814
X69755Y139514
X57505Y150014
X51555Y165064
X33005Y142314
X27405Y122714
X12005Y123414
X12005Y148614
X52255Y102414
X64155Y103814
X70105Y103814
X72555Y107314
X75705Y106614
X79205Y103814
X92855Y88137
X77805Y85264
X108955Y91914
X109655Y87714
X134855Y99264
X164255Y85964
X148505Y133214
X146055Y140214
X148855Y145114
X153405Y153864
X157605Y154914
X167405Y160864
X172655Y157714
X178605Y153864
X189805Y165064
X192955Y171714
X192605Y179064
X193655Y188864
X190155Y194464
X181405Y197264
X180355Y201464
X184555Y209164
X189455Y204264
X176155Y185714
X159005Y191314
X147805Y195864
X139055Y193064
X135905Y187814
X142555Y178714
X147805Y178364
X157255Y178364
X146055Y162614
X139755Y152114
X138005Y147214
X120155Y153164
X112455Y152114
X110355Y134964
X102655Y136014
X95655Y143714
X137305Y177664
X118405Y186414
X115605Y200764
X112805Y203914
X123305Y202514
X123655Y210914
X135905Y211264
X139055Y207064
X145355Y203214
X149905Y209864
X148505Y224564
X135905Y232614
X143955Y239614
X122255Y232964
X105805Y227714
X100555Y239964
X78855Y239614
X66255Y221764
X65905Y207764
X54005Y199364
X51555Y203564
X78505Y193764
X85855Y202164
X85505Y206364
X95655Y210914
X99855Y190614
X168805Y241364
X180005Y241364
X182805Y224214
X209055Y217914
X221305Y212664
X224105Y205314
X238105Y223164
X244405Y233664
X262605Y223164
X274855Y219314
X288505Y215814
X290255Y206364
X306005Y207064
X281155Y180464
X267855Y170664
X267855Y162964
X281855Y158764
X275205Y139514
X263655Y123764
X286055Y112214
X302505Y124814
X305655Y120614
X264005Y84914
X262605Y80014
X285355Y68464
X292705Y62514
X302855Y78264
X267855Y56914
X262955Y50964
X251755Y46764
X247205Y38014
X240205Y50964
X231455Y47464
X236005Y64614
X231455Y71964
X206605Y22964
X241605Y18064
X287455Y38364
X304605Y40464
X234255Y124814
X234605Y141614
X234955Y149664
X242655Y154214
X274155Y202164
X246155Y211964
X222705Y235414
X208705Y237514
X232155Y259564
X226905Y271464
X271005Y262364
X278355Y275314
X293405Y284064
X294455Y267614
X301455Y262014
X105805Y275664
X15855Y96114
X37555Y89814
X28805Y75814
X15855Y71264
X40355Y61814
X32305Y39064
X35805Y34164
X18305Y29964
X90055Y29614
X90755Y18064
X111405Y14914
X112805Y20864
X112105Y30664
X112455Y40814
X104755Y51664
X91805Y45714
T02
X49730Y28314
X34730Y52064
X209055Y122014
X211155Y126914
X211155Y130764
X231455Y120964
T03
X29896Y32519
T04
X219855Y246414
X219855Y283914
X281355Y283914
X281355Y246414
T05
X302505Y106664
X302505Y94664
X197805Y30764
X187805Y30764
X177805Y30764
X172805Y20764
X162805Y20764
X152805Y20764
X142805Y20764
X132805Y20764
X137805Y30764
X147805Y30764
X157805Y30764
X167805Y30764
X182805Y20764
X192805Y20764
X79605Y39764
X60605Y39764
X83755Y141164
X83755Y151164
X89705Y167764
X89705Y177764
T06
X293144Y225833
X293144Y240794
T07
X112455Y255864
X112455Y265864
X112455Y275864
X18967Y210452
X18967Y178956
T08
X72905Y180864
X72905Y170864
X72905Y160864
X85505Y250964
X85505Y270964
X277805Y168914
X297805Y168914
X231650Y38652
X231650Y16989
X260455Y20664
X260455Y30664
X270455Y30664
X280455Y30664
X280455Y20664
X270455Y20664
T09
X41014Y22508
T10
X51205Y131414
X51205Y151414
X37705Y151414
X24205Y151414
X24205Y131414
T11
X212555Y63214
X289905Y139164
X300055Y187814
T12
X48843Y141571
X21284Y141571
T13
X47131Y248604
X30820Y263314
T14
X11955Y12464
X59642Y263414
X11905Y284264
X305105Y284364
X305105Y12414
M30
