G75*
%MOIN*%
%OFA0B0*%
%FSLAX25Y25*%
%IPPOS*%
%LPD*%
%AMOC8*
5,1,8,0,0,1.08239X$1,22.5*
%
%ADD10C,0.00000*%
%ADD11C,0.00600*%
%ADD12C,0.02200*%
%ADD13C,0.00500*%
%ADD14R,0.09000X0.02500*%
%ADD15C,0.00800*%
%ADD16R,0.02500X0.09000*%
%ADD17C,0.00400*%
%ADD18C,0.03000*%
%ADD19C,0.01000*%
%ADD20C,0.00010*%
%ADD21C,0.01600*%
%ADD22C,0.01200*%
%ADD23R,0.05000X0.10000*%
%ADD24C,0.00700*%
%ADD25C,0.02000*%
D10*
X0005355Y0005814D02*
X0005355Y0290774D01*
X0311556Y0290774D01*
X0311556Y0005814D01*
X0005355Y0005814D01*
X0005656Y0012464D02*
X0005658Y0012622D01*
X0005664Y0012780D01*
X0005674Y0012938D01*
X0005688Y0013096D01*
X0005706Y0013253D01*
X0005727Y0013410D01*
X0005753Y0013566D01*
X0005783Y0013722D01*
X0005816Y0013877D01*
X0005854Y0014030D01*
X0005895Y0014183D01*
X0005940Y0014335D01*
X0005989Y0014486D01*
X0006042Y0014635D01*
X0006098Y0014783D01*
X0006158Y0014929D01*
X0006222Y0015074D01*
X0006290Y0015217D01*
X0006361Y0015359D01*
X0006435Y0015499D01*
X0006513Y0015636D01*
X0006595Y0015772D01*
X0006679Y0015906D01*
X0006768Y0016037D01*
X0006859Y0016166D01*
X0006954Y0016293D01*
X0007051Y0016418D01*
X0007152Y0016540D01*
X0007256Y0016659D01*
X0007363Y0016776D01*
X0007473Y0016890D01*
X0007586Y0017001D01*
X0007701Y0017110D01*
X0007819Y0017215D01*
X0007940Y0017317D01*
X0008063Y0017417D01*
X0008189Y0017513D01*
X0008317Y0017606D01*
X0008447Y0017696D01*
X0008580Y0017782D01*
X0008715Y0017866D01*
X0008851Y0017945D01*
X0008990Y0018022D01*
X0009131Y0018094D01*
X0009273Y0018164D01*
X0009417Y0018229D01*
X0009563Y0018291D01*
X0009710Y0018349D01*
X0009859Y0018404D01*
X0010009Y0018455D01*
X0010160Y0018502D01*
X0010312Y0018545D01*
X0010465Y0018584D01*
X0010620Y0018620D01*
X0010775Y0018651D01*
X0010931Y0018679D01*
X0011087Y0018703D01*
X0011244Y0018723D01*
X0011402Y0018739D01*
X0011559Y0018751D01*
X0011718Y0018759D01*
X0011876Y0018763D01*
X0012034Y0018763D01*
X0012192Y0018759D01*
X0012351Y0018751D01*
X0012508Y0018739D01*
X0012666Y0018723D01*
X0012823Y0018703D01*
X0012979Y0018679D01*
X0013135Y0018651D01*
X0013290Y0018620D01*
X0013445Y0018584D01*
X0013598Y0018545D01*
X0013750Y0018502D01*
X0013901Y0018455D01*
X0014051Y0018404D01*
X0014200Y0018349D01*
X0014347Y0018291D01*
X0014493Y0018229D01*
X0014637Y0018164D01*
X0014779Y0018094D01*
X0014920Y0018022D01*
X0015059Y0017945D01*
X0015195Y0017866D01*
X0015330Y0017782D01*
X0015463Y0017696D01*
X0015593Y0017606D01*
X0015721Y0017513D01*
X0015847Y0017417D01*
X0015970Y0017317D01*
X0016091Y0017215D01*
X0016209Y0017110D01*
X0016324Y0017001D01*
X0016437Y0016890D01*
X0016547Y0016776D01*
X0016654Y0016659D01*
X0016758Y0016540D01*
X0016859Y0016418D01*
X0016956Y0016293D01*
X0017051Y0016166D01*
X0017142Y0016037D01*
X0017231Y0015906D01*
X0017315Y0015772D01*
X0017397Y0015636D01*
X0017475Y0015499D01*
X0017549Y0015359D01*
X0017620Y0015217D01*
X0017688Y0015074D01*
X0017752Y0014929D01*
X0017812Y0014783D01*
X0017868Y0014635D01*
X0017921Y0014486D01*
X0017970Y0014335D01*
X0018015Y0014183D01*
X0018056Y0014030D01*
X0018094Y0013877D01*
X0018127Y0013722D01*
X0018157Y0013566D01*
X0018183Y0013410D01*
X0018204Y0013253D01*
X0018222Y0013096D01*
X0018236Y0012938D01*
X0018246Y0012780D01*
X0018252Y0012622D01*
X0018254Y0012464D01*
X0018252Y0012306D01*
X0018246Y0012148D01*
X0018236Y0011990D01*
X0018222Y0011832D01*
X0018204Y0011675D01*
X0018183Y0011518D01*
X0018157Y0011362D01*
X0018127Y0011206D01*
X0018094Y0011051D01*
X0018056Y0010898D01*
X0018015Y0010745D01*
X0017970Y0010593D01*
X0017921Y0010442D01*
X0017868Y0010293D01*
X0017812Y0010145D01*
X0017752Y0009999D01*
X0017688Y0009854D01*
X0017620Y0009711D01*
X0017549Y0009569D01*
X0017475Y0009429D01*
X0017397Y0009292D01*
X0017315Y0009156D01*
X0017231Y0009022D01*
X0017142Y0008891D01*
X0017051Y0008762D01*
X0016956Y0008635D01*
X0016859Y0008510D01*
X0016758Y0008388D01*
X0016654Y0008269D01*
X0016547Y0008152D01*
X0016437Y0008038D01*
X0016324Y0007927D01*
X0016209Y0007818D01*
X0016091Y0007713D01*
X0015970Y0007611D01*
X0015847Y0007511D01*
X0015721Y0007415D01*
X0015593Y0007322D01*
X0015463Y0007232D01*
X0015330Y0007146D01*
X0015195Y0007062D01*
X0015059Y0006983D01*
X0014920Y0006906D01*
X0014779Y0006834D01*
X0014637Y0006764D01*
X0014493Y0006699D01*
X0014347Y0006637D01*
X0014200Y0006579D01*
X0014051Y0006524D01*
X0013901Y0006473D01*
X0013750Y0006426D01*
X0013598Y0006383D01*
X0013445Y0006344D01*
X0013290Y0006308D01*
X0013135Y0006277D01*
X0012979Y0006249D01*
X0012823Y0006225D01*
X0012666Y0006205D01*
X0012508Y0006189D01*
X0012351Y0006177D01*
X0012192Y0006169D01*
X0012034Y0006165D01*
X0011876Y0006165D01*
X0011718Y0006169D01*
X0011559Y0006177D01*
X0011402Y0006189D01*
X0011244Y0006205D01*
X0011087Y0006225D01*
X0010931Y0006249D01*
X0010775Y0006277D01*
X0010620Y0006308D01*
X0010465Y0006344D01*
X0010312Y0006383D01*
X0010160Y0006426D01*
X0010009Y0006473D01*
X0009859Y0006524D01*
X0009710Y0006579D01*
X0009563Y0006637D01*
X0009417Y0006699D01*
X0009273Y0006764D01*
X0009131Y0006834D01*
X0008990Y0006906D01*
X0008851Y0006983D01*
X0008715Y0007062D01*
X0008580Y0007146D01*
X0008447Y0007232D01*
X0008317Y0007322D01*
X0008189Y0007415D01*
X0008063Y0007511D01*
X0007940Y0007611D01*
X0007819Y0007713D01*
X0007701Y0007818D01*
X0007586Y0007927D01*
X0007473Y0008038D01*
X0007363Y0008152D01*
X0007256Y0008269D01*
X0007152Y0008388D01*
X0007051Y0008510D01*
X0006954Y0008635D01*
X0006859Y0008762D01*
X0006768Y0008891D01*
X0006679Y0009022D01*
X0006595Y0009156D01*
X0006513Y0009292D01*
X0006435Y0009429D01*
X0006361Y0009569D01*
X0006290Y0009711D01*
X0006222Y0009854D01*
X0006158Y0009999D01*
X0006098Y0010145D01*
X0006042Y0010293D01*
X0005989Y0010442D01*
X0005940Y0010593D01*
X0005895Y0010745D01*
X0005854Y0010898D01*
X0005816Y0011051D01*
X0005783Y0011206D01*
X0005753Y0011362D01*
X0005727Y0011518D01*
X0005706Y0011675D01*
X0005688Y0011832D01*
X0005674Y0011990D01*
X0005664Y0012148D01*
X0005658Y0012306D01*
X0005656Y0012464D01*
X0028420Y0032519D02*
X0028422Y0032596D01*
X0028428Y0032672D01*
X0028438Y0032748D01*
X0028452Y0032823D01*
X0028469Y0032898D01*
X0028491Y0032971D01*
X0028516Y0033044D01*
X0028546Y0033115D01*
X0028578Y0033184D01*
X0028615Y0033251D01*
X0028654Y0033317D01*
X0028697Y0033380D01*
X0028744Y0033441D01*
X0028793Y0033500D01*
X0028846Y0033556D01*
X0028901Y0033609D01*
X0028959Y0033659D01*
X0029019Y0033706D01*
X0029082Y0033750D01*
X0029147Y0033791D01*
X0029214Y0033828D01*
X0029283Y0033862D01*
X0029353Y0033892D01*
X0029425Y0033918D01*
X0029499Y0033940D01*
X0029573Y0033959D01*
X0029648Y0033974D01*
X0029724Y0033985D01*
X0029800Y0033992D01*
X0029877Y0033995D01*
X0029953Y0033994D01*
X0030030Y0033989D01*
X0030106Y0033980D01*
X0030182Y0033967D01*
X0030256Y0033950D01*
X0030330Y0033930D01*
X0030403Y0033905D01*
X0030474Y0033877D01*
X0030544Y0033845D01*
X0030612Y0033810D01*
X0030678Y0033771D01*
X0030742Y0033729D01*
X0030803Y0033683D01*
X0030863Y0033634D01*
X0030919Y0033583D01*
X0030973Y0033528D01*
X0031024Y0033471D01*
X0031072Y0033411D01*
X0031117Y0033349D01*
X0031158Y0033284D01*
X0031196Y0033218D01*
X0031231Y0033150D01*
X0031261Y0033079D01*
X0031289Y0033008D01*
X0031312Y0032935D01*
X0031332Y0032861D01*
X0031348Y0032786D01*
X0031360Y0032710D01*
X0031368Y0032634D01*
X0031372Y0032557D01*
X0031372Y0032481D01*
X0031368Y0032404D01*
X0031360Y0032328D01*
X0031348Y0032252D01*
X0031332Y0032177D01*
X0031312Y0032103D01*
X0031289Y0032030D01*
X0031261Y0031959D01*
X0031231Y0031888D01*
X0031196Y0031820D01*
X0031158Y0031754D01*
X0031117Y0031689D01*
X0031072Y0031627D01*
X0031024Y0031567D01*
X0030973Y0031510D01*
X0030919Y0031455D01*
X0030863Y0031404D01*
X0030803Y0031355D01*
X0030742Y0031309D01*
X0030678Y0031267D01*
X0030612Y0031228D01*
X0030544Y0031193D01*
X0030474Y0031161D01*
X0030403Y0031133D01*
X0030330Y0031108D01*
X0030256Y0031088D01*
X0030182Y0031071D01*
X0030106Y0031058D01*
X0030030Y0031049D01*
X0029953Y0031044D01*
X0029877Y0031043D01*
X0029800Y0031046D01*
X0029724Y0031053D01*
X0029648Y0031064D01*
X0029573Y0031079D01*
X0029499Y0031098D01*
X0029425Y0031120D01*
X0029353Y0031146D01*
X0029283Y0031176D01*
X0029214Y0031210D01*
X0029147Y0031247D01*
X0029082Y0031288D01*
X0029019Y0031332D01*
X0028959Y0031379D01*
X0028901Y0031429D01*
X0028846Y0031482D01*
X0028793Y0031538D01*
X0028744Y0031597D01*
X0028697Y0031658D01*
X0028654Y0031721D01*
X0028615Y0031787D01*
X0028578Y0031854D01*
X0028546Y0031923D01*
X0028516Y0031994D01*
X0028491Y0032067D01*
X0028469Y0032140D01*
X0028452Y0032215D01*
X0028438Y0032290D01*
X0028428Y0032366D01*
X0028422Y0032442D01*
X0028420Y0032519D01*
X0038947Y0022508D02*
X0038949Y0022599D01*
X0038955Y0022689D01*
X0038965Y0022780D01*
X0038979Y0022869D01*
X0038997Y0022958D01*
X0039018Y0023047D01*
X0039044Y0023134D01*
X0039073Y0023220D01*
X0039107Y0023304D01*
X0039143Y0023387D01*
X0039184Y0023469D01*
X0039228Y0023548D01*
X0039275Y0023626D01*
X0039326Y0023701D01*
X0039380Y0023774D01*
X0039437Y0023844D01*
X0039497Y0023912D01*
X0039560Y0023978D01*
X0039626Y0024040D01*
X0039695Y0024099D01*
X0039766Y0024156D01*
X0039840Y0024209D01*
X0039916Y0024259D01*
X0039994Y0024306D01*
X0040074Y0024349D01*
X0040155Y0024388D01*
X0040239Y0024424D01*
X0040324Y0024456D01*
X0040410Y0024485D01*
X0040497Y0024509D01*
X0040586Y0024530D01*
X0040675Y0024547D01*
X0040765Y0024560D01*
X0040855Y0024569D01*
X0040946Y0024574D01*
X0041037Y0024575D01*
X0041127Y0024572D01*
X0041218Y0024565D01*
X0041308Y0024554D01*
X0041398Y0024539D01*
X0041487Y0024520D01*
X0041575Y0024498D01*
X0041661Y0024471D01*
X0041747Y0024441D01*
X0041831Y0024407D01*
X0041914Y0024369D01*
X0041995Y0024328D01*
X0042074Y0024283D01*
X0042151Y0024234D01*
X0042225Y0024183D01*
X0042298Y0024128D01*
X0042368Y0024070D01*
X0042435Y0024009D01*
X0042499Y0023945D01*
X0042561Y0023879D01*
X0042620Y0023809D01*
X0042675Y0023738D01*
X0042728Y0023663D01*
X0042777Y0023587D01*
X0042823Y0023509D01*
X0042865Y0023428D01*
X0042904Y0023346D01*
X0042939Y0023262D01*
X0042970Y0023177D01*
X0042997Y0023090D01*
X0043021Y0023003D01*
X0043041Y0022914D01*
X0043057Y0022825D01*
X0043069Y0022735D01*
X0043077Y0022644D01*
X0043081Y0022553D01*
X0043081Y0022463D01*
X0043077Y0022372D01*
X0043069Y0022281D01*
X0043057Y0022191D01*
X0043041Y0022102D01*
X0043021Y0022013D01*
X0042997Y0021926D01*
X0042970Y0021839D01*
X0042939Y0021754D01*
X0042904Y0021670D01*
X0042865Y0021588D01*
X0042823Y0021507D01*
X0042777Y0021429D01*
X0042728Y0021353D01*
X0042675Y0021278D01*
X0042620Y0021207D01*
X0042561Y0021137D01*
X0042499Y0021071D01*
X0042435Y0021007D01*
X0042368Y0020946D01*
X0042298Y0020888D01*
X0042225Y0020833D01*
X0042151Y0020782D01*
X0042074Y0020733D01*
X0041995Y0020688D01*
X0041914Y0020647D01*
X0041831Y0020609D01*
X0041747Y0020575D01*
X0041661Y0020545D01*
X0041575Y0020518D01*
X0041487Y0020496D01*
X0041398Y0020477D01*
X0041308Y0020462D01*
X0041218Y0020451D01*
X0041127Y0020444D01*
X0041037Y0020441D01*
X0040946Y0020442D01*
X0040855Y0020447D01*
X0040765Y0020456D01*
X0040675Y0020469D01*
X0040586Y0020486D01*
X0040497Y0020507D01*
X0040410Y0020531D01*
X0040324Y0020560D01*
X0040239Y0020592D01*
X0040155Y0020628D01*
X0040074Y0020667D01*
X0039994Y0020710D01*
X0039916Y0020757D01*
X0039840Y0020807D01*
X0039766Y0020860D01*
X0039695Y0020917D01*
X0039626Y0020976D01*
X0039560Y0021038D01*
X0039497Y0021104D01*
X0039437Y0021172D01*
X0039380Y0021242D01*
X0039326Y0021315D01*
X0039275Y0021390D01*
X0039228Y0021468D01*
X0039184Y0021547D01*
X0039143Y0021629D01*
X0039107Y0021712D01*
X0039073Y0021796D01*
X0039044Y0021882D01*
X0039018Y0021969D01*
X0038997Y0022058D01*
X0038979Y0022147D01*
X0038965Y0022236D01*
X0038955Y0022327D01*
X0038949Y0022417D01*
X0038947Y0022508D01*
X0022660Y0052635D02*
X0022660Y0052714D01*
X0022607Y0052714D02*
X0022607Y0052635D01*
X0022587Y0052648D02*
X0022587Y0052701D01*
X0022574Y0052714D01*
X0022548Y0052714D01*
X0022535Y0052701D01*
X0022535Y0052648D01*
X0022548Y0052635D01*
X0022574Y0052635D01*
X0022587Y0052648D01*
X0022607Y0052714D02*
X0022660Y0052635D01*
X0022515Y0052622D02*
X0022462Y0052622D01*
X0022416Y0052635D02*
X0022416Y0052714D01*
X0022390Y0052714D02*
X0022442Y0052714D01*
X0022370Y0052701D02*
X0022357Y0052714D01*
X0022331Y0052714D01*
X0022317Y0052701D01*
X0022317Y0052688D01*
X0022331Y0052674D01*
X0022357Y0052674D01*
X0022370Y0052661D01*
X0022370Y0052648D01*
X0022357Y0052635D01*
X0022331Y0052635D01*
X0022317Y0052648D01*
X0022297Y0052635D02*
X0022271Y0052661D01*
X0022284Y0052661D02*
X0022245Y0052661D01*
X0022245Y0052635D02*
X0022245Y0052714D01*
X0022284Y0052714D01*
X0022297Y0052701D01*
X0022297Y0052674D01*
X0022284Y0052661D01*
X0022225Y0052635D02*
X0022172Y0052714D01*
X0022225Y0052714D02*
X0022172Y0052635D01*
X0018331Y0141571D02*
X0018333Y0141679D01*
X0018339Y0141788D01*
X0018349Y0141896D01*
X0018363Y0142003D01*
X0018381Y0142110D01*
X0018402Y0142217D01*
X0018428Y0142322D01*
X0018458Y0142427D01*
X0018491Y0142530D01*
X0018528Y0142632D01*
X0018569Y0142732D01*
X0018613Y0142831D01*
X0018662Y0142929D01*
X0018713Y0143024D01*
X0018768Y0143117D01*
X0018827Y0143209D01*
X0018889Y0143298D01*
X0018954Y0143385D01*
X0019022Y0143469D01*
X0019093Y0143551D01*
X0019167Y0143630D01*
X0019244Y0143706D01*
X0019324Y0143780D01*
X0019407Y0143850D01*
X0019492Y0143918D01*
X0019579Y0143982D01*
X0019669Y0144043D01*
X0019761Y0144101D01*
X0019855Y0144155D01*
X0019951Y0144206D01*
X0020048Y0144253D01*
X0020148Y0144297D01*
X0020249Y0144337D01*
X0020351Y0144373D01*
X0020454Y0144405D01*
X0020559Y0144434D01*
X0020665Y0144458D01*
X0020771Y0144479D01*
X0020878Y0144496D01*
X0020986Y0144509D01*
X0021094Y0144518D01*
X0021203Y0144523D01*
X0021311Y0144524D01*
X0021420Y0144521D01*
X0021528Y0144514D01*
X0021636Y0144503D01*
X0021743Y0144488D01*
X0021850Y0144469D01*
X0021956Y0144446D01*
X0022061Y0144420D01*
X0022166Y0144389D01*
X0022268Y0144355D01*
X0022370Y0144317D01*
X0022470Y0144275D01*
X0022569Y0144230D01*
X0022666Y0144181D01*
X0022760Y0144128D01*
X0022853Y0144072D01*
X0022944Y0144013D01*
X0023033Y0143950D01*
X0023119Y0143885D01*
X0023203Y0143816D01*
X0023284Y0143744D01*
X0023362Y0143669D01*
X0023438Y0143591D01*
X0023511Y0143510D01*
X0023581Y0143427D01*
X0023647Y0143342D01*
X0023711Y0143254D01*
X0023771Y0143163D01*
X0023828Y0143071D01*
X0023881Y0142976D01*
X0023931Y0142880D01*
X0023977Y0142782D01*
X0024020Y0142682D01*
X0024059Y0142581D01*
X0024094Y0142478D01*
X0024126Y0142375D01*
X0024153Y0142270D01*
X0024177Y0142164D01*
X0024197Y0142057D01*
X0024213Y0141950D01*
X0024225Y0141842D01*
X0024233Y0141734D01*
X0024237Y0141625D01*
X0024237Y0141517D01*
X0024233Y0141408D01*
X0024225Y0141300D01*
X0024213Y0141192D01*
X0024197Y0141085D01*
X0024177Y0140978D01*
X0024153Y0140872D01*
X0024126Y0140767D01*
X0024094Y0140664D01*
X0024059Y0140561D01*
X0024020Y0140460D01*
X0023977Y0140360D01*
X0023931Y0140262D01*
X0023881Y0140166D01*
X0023828Y0140071D01*
X0023771Y0139979D01*
X0023711Y0139888D01*
X0023647Y0139800D01*
X0023581Y0139715D01*
X0023511Y0139632D01*
X0023438Y0139551D01*
X0023362Y0139473D01*
X0023284Y0139398D01*
X0023203Y0139326D01*
X0023119Y0139257D01*
X0023033Y0139192D01*
X0022944Y0139129D01*
X0022853Y0139070D01*
X0022761Y0139014D01*
X0022666Y0138961D01*
X0022569Y0138912D01*
X0022470Y0138867D01*
X0022370Y0138825D01*
X0022268Y0138787D01*
X0022166Y0138753D01*
X0022061Y0138722D01*
X0021956Y0138696D01*
X0021850Y0138673D01*
X0021743Y0138654D01*
X0021636Y0138639D01*
X0021528Y0138628D01*
X0021420Y0138621D01*
X0021311Y0138618D01*
X0021203Y0138619D01*
X0021094Y0138624D01*
X0020986Y0138633D01*
X0020878Y0138646D01*
X0020771Y0138663D01*
X0020665Y0138684D01*
X0020559Y0138708D01*
X0020454Y0138737D01*
X0020351Y0138769D01*
X0020249Y0138805D01*
X0020148Y0138845D01*
X0020048Y0138889D01*
X0019951Y0138936D01*
X0019855Y0138987D01*
X0019761Y0139041D01*
X0019669Y0139099D01*
X0019579Y0139160D01*
X0019492Y0139224D01*
X0019407Y0139292D01*
X0019324Y0139362D01*
X0019244Y0139436D01*
X0019167Y0139512D01*
X0019093Y0139591D01*
X0019022Y0139673D01*
X0018954Y0139757D01*
X0018889Y0139844D01*
X0018827Y0139933D01*
X0018768Y0140025D01*
X0018713Y0140118D01*
X0018662Y0140213D01*
X0018613Y0140311D01*
X0018569Y0140410D01*
X0018528Y0140510D01*
X0018491Y0140612D01*
X0018458Y0140715D01*
X0018428Y0140820D01*
X0018402Y0140925D01*
X0018381Y0141032D01*
X0018363Y0141139D01*
X0018349Y0141246D01*
X0018339Y0141354D01*
X0018333Y0141463D01*
X0018331Y0141571D01*
X0045890Y0141571D02*
X0045892Y0141679D01*
X0045898Y0141788D01*
X0045908Y0141896D01*
X0045922Y0142003D01*
X0045940Y0142110D01*
X0045961Y0142217D01*
X0045987Y0142322D01*
X0046017Y0142427D01*
X0046050Y0142530D01*
X0046087Y0142632D01*
X0046128Y0142732D01*
X0046172Y0142831D01*
X0046221Y0142929D01*
X0046272Y0143024D01*
X0046327Y0143117D01*
X0046386Y0143209D01*
X0046448Y0143298D01*
X0046513Y0143385D01*
X0046581Y0143469D01*
X0046652Y0143551D01*
X0046726Y0143630D01*
X0046803Y0143706D01*
X0046883Y0143780D01*
X0046966Y0143850D01*
X0047051Y0143918D01*
X0047138Y0143982D01*
X0047228Y0144043D01*
X0047320Y0144101D01*
X0047414Y0144155D01*
X0047510Y0144206D01*
X0047607Y0144253D01*
X0047707Y0144297D01*
X0047808Y0144337D01*
X0047910Y0144373D01*
X0048013Y0144405D01*
X0048118Y0144434D01*
X0048224Y0144458D01*
X0048330Y0144479D01*
X0048437Y0144496D01*
X0048545Y0144509D01*
X0048653Y0144518D01*
X0048762Y0144523D01*
X0048870Y0144524D01*
X0048979Y0144521D01*
X0049087Y0144514D01*
X0049195Y0144503D01*
X0049302Y0144488D01*
X0049409Y0144469D01*
X0049515Y0144446D01*
X0049620Y0144420D01*
X0049725Y0144389D01*
X0049827Y0144355D01*
X0049929Y0144317D01*
X0050029Y0144275D01*
X0050128Y0144230D01*
X0050225Y0144181D01*
X0050319Y0144128D01*
X0050412Y0144072D01*
X0050503Y0144013D01*
X0050592Y0143950D01*
X0050678Y0143885D01*
X0050762Y0143816D01*
X0050843Y0143744D01*
X0050921Y0143669D01*
X0050997Y0143591D01*
X0051070Y0143510D01*
X0051140Y0143427D01*
X0051206Y0143342D01*
X0051270Y0143254D01*
X0051330Y0143163D01*
X0051387Y0143071D01*
X0051440Y0142976D01*
X0051490Y0142880D01*
X0051536Y0142782D01*
X0051579Y0142682D01*
X0051618Y0142581D01*
X0051653Y0142478D01*
X0051685Y0142375D01*
X0051712Y0142270D01*
X0051736Y0142164D01*
X0051756Y0142057D01*
X0051772Y0141950D01*
X0051784Y0141842D01*
X0051792Y0141734D01*
X0051796Y0141625D01*
X0051796Y0141517D01*
X0051792Y0141408D01*
X0051784Y0141300D01*
X0051772Y0141192D01*
X0051756Y0141085D01*
X0051736Y0140978D01*
X0051712Y0140872D01*
X0051685Y0140767D01*
X0051653Y0140664D01*
X0051618Y0140561D01*
X0051579Y0140460D01*
X0051536Y0140360D01*
X0051490Y0140262D01*
X0051440Y0140166D01*
X0051387Y0140071D01*
X0051330Y0139979D01*
X0051270Y0139888D01*
X0051206Y0139800D01*
X0051140Y0139715D01*
X0051070Y0139632D01*
X0050997Y0139551D01*
X0050921Y0139473D01*
X0050843Y0139398D01*
X0050762Y0139326D01*
X0050678Y0139257D01*
X0050592Y0139192D01*
X0050503Y0139129D01*
X0050412Y0139070D01*
X0050320Y0139014D01*
X0050225Y0138961D01*
X0050128Y0138912D01*
X0050029Y0138867D01*
X0049929Y0138825D01*
X0049827Y0138787D01*
X0049725Y0138753D01*
X0049620Y0138722D01*
X0049515Y0138696D01*
X0049409Y0138673D01*
X0049302Y0138654D01*
X0049195Y0138639D01*
X0049087Y0138628D01*
X0048979Y0138621D01*
X0048870Y0138618D01*
X0048762Y0138619D01*
X0048653Y0138624D01*
X0048545Y0138633D01*
X0048437Y0138646D01*
X0048330Y0138663D01*
X0048224Y0138684D01*
X0048118Y0138708D01*
X0048013Y0138737D01*
X0047910Y0138769D01*
X0047808Y0138805D01*
X0047707Y0138845D01*
X0047607Y0138889D01*
X0047510Y0138936D01*
X0047414Y0138987D01*
X0047320Y0139041D01*
X0047228Y0139099D01*
X0047138Y0139160D01*
X0047051Y0139224D01*
X0046966Y0139292D01*
X0046883Y0139362D01*
X0046803Y0139436D01*
X0046726Y0139512D01*
X0046652Y0139591D01*
X0046581Y0139673D01*
X0046513Y0139757D01*
X0046448Y0139844D01*
X0046386Y0139933D01*
X0046327Y0140025D01*
X0046272Y0140118D01*
X0046221Y0140213D01*
X0046172Y0140311D01*
X0046128Y0140410D01*
X0046087Y0140510D01*
X0046050Y0140612D01*
X0046017Y0140715D01*
X0045987Y0140820D01*
X0045961Y0140925D01*
X0045940Y0141032D01*
X0045922Y0141139D01*
X0045908Y0141246D01*
X0045898Y0141354D01*
X0045892Y0141463D01*
X0045890Y0141571D01*
X0017195Y0178956D02*
X0017197Y0179040D01*
X0017203Y0179123D01*
X0017213Y0179206D01*
X0017227Y0179289D01*
X0017244Y0179371D01*
X0017266Y0179452D01*
X0017291Y0179531D01*
X0017320Y0179610D01*
X0017353Y0179687D01*
X0017389Y0179762D01*
X0017429Y0179836D01*
X0017472Y0179908D01*
X0017519Y0179977D01*
X0017569Y0180044D01*
X0017622Y0180109D01*
X0017678Y0180171D01*
X0017736Y0180231D01*
X0017798Y0180288D01*
X0017862Y0180341D01*
X0017929Y0180392D01*
X0017998Y0180439D01*
X0018069Y0180484D01*
X0018142Y0180524D01*
X0018217Y0180561D01*
X0018294Y0180595D01*
X0018372Y0180625D01*
X0018451Y0180651D01*
X0018532Y0180674D01*
X0018614Y0180692D01*
X0018696Y0180707D01*
X0018779Y0180718D01*
X0018862Y0180725D01*
X0018946Y0180728D01*
X0019030Y0180727D01*
X0019113Y0180722D01*
X0019197Y0180713D01*
X0019279Y0180700D01*
X0019361Y0180684D01*
X0019442Y0180663D01*
X0019523Y0180639D01*
X0019601Y0180611D01*
X0019679Y0180579D01*
X0019755Y0180543D01*
X0019829Y0180504D01*
X0019901Y0180462D01*
X0019971Y0180416D01*
X0020039Y0180367D01*
X0020104Y0180315D01*
X0020167Y0180260D01*
X0020227Y0180202D01*
X0020285Y0180141D01*
X0020339Y0180077D01*
X0020391Y0180011D01*
X0020439Y0179943D01*
X0020484Y0179872D01*
X0020525Y0179799D01*
X0020564Y0179725D01*
X0020598Y0179649D01*
X0020629Y0179571D01*
X0020656Y0179492D01*
X0020680Y0179411D01*
X0020699Y0179330D01*
X0020715Y0179248D01*
X0020727Y0179165D01*
X0020735Y0179081D01*
X0020739Y0178998D01*
X0020739Y0178914D01*
X0020735Y0178831D01*
X0020727Y0178747D01*
X0020715Y0178664D01*
X0020699Y0178582D01*
X0020680Y0178501D01*
X0020656Y0178420D01*
X0020629Y0178341D01*
X0020598Y0178263D01*
X0020564Y0178187D01*
X0020525Y0178113D01*
X0020484Y0178040D01*
X0020439Y0177969D01*
X0020391Y0177901D01*
X0020339Y0177835D01*
X0020285Y0177771D01*
X0020227Y0177710D01*
X0020167Y0177652D01*
X0020104Y0177597D01*
X0020039Y0177545D01*
X0019971Y0177496D01*
X0019901Y0177450D01*
X0019829Y0177408D01*
X0019755Y0177369D01*
X0019679Y0177333D01*
X0019601Y0177301D01*
X0019523Y0177273D01*
X0019442Y0177249D01*
X0019361Y0177228D01*
X0019279Y0177212D01*
X0019197Y0177199D01*
X0019113Y0177190D01*
X0019030Y0177185D01*
X0018946Y0177184D01*
X0018862Y0177187D01*
X0018779Y0177194D01*
X0018696Y0177205D01*
X0018614Y0177220D01*
X0018532Y0177238D01*
X0018451Y0177261D01*
X0018372Y0177287D01*
X0018294Y0177317D01*
X0018217Y0177351D01*
X0018142Y0177388D01*
X0018069Y0177428D01*
X0017998Y0177473D01*
X0017929Y0177520D01*
X0017862Y0177571D01*
X0017798Y0177624D01*
X0017736Y0177681D01*
X0017678Y0177741D01*
X0017622Y0177803D01*
X0017569Y0177868D01*
X0017519Y0177935D01*
X0017472Y0178004D01*
X0017429Y0178076D01*
X0017389Y0178150D01*
X0017353Y0178225D01*
X0017320Y0178302D01*
X0017291Y0178381D01*
X0017266Y0178460D01*
X0017244Y0178541D01*
X0017227Y0178623D01*
X0017213Y0178706D01*
X0017203Y0178789D01*
X0017197Y0178872D01*
X0017195Y0178956D01*
X0017195Y0210452D02*
X0017197Y0210536D01*
X0017203Y0210619D01*
X0017213Y0210702D01*
X0017227Y0210785D01*
X0017244Y0210867D01*
X0017266Y0210948D01*
X0017291Y0211027D01*
X0017320Y0211106D01*
X0017353Y0211183D01*
X0017389Y0211258D01*
X0017429Y0211332D01*
X0017472Y0211404D01*
X0017519Y0211473D01*
X0017569Y0211540D01*
X0017622Y0211605D01*
X0017678Y0211667D01*
X0017736Y0211727D01*
X0017798Y0211784D01*
X0017862Y0211837D01*
X0017929Y0211888D01*
X0017998Y0211935D01*
X0018069Y0211980D01*
X0018142Y0212020D01*
X0018217Y0212057D01*
X0018294Y0212091D01*
X0018372Y0212121D01*
X0018451Y0212147D01*
X0018532Y0212170D01*
X0018614Y0212188D01*
X0018696Y0212203D01*
X0018779Y0212214D01*
X0018862Y0212221D01*
X0018946Y0212224D01*
X0019030Y0212223D01*
X0019113Y0212218D01*
X0019197Y0212209D01*
X0019279Y0212196D01*
X0019361Y0212180D01*
X0019442Y0212159D01*
X0019523Y0212135D01*
X0019601Y0212107D01*
X0019679Y0212075D01*
X0019755Y0212039D01*
X0019829Y0212000D01*
X0019901Y0211958D01*
X0019971Y0211912D01*
X0020039Y0211863D01*
X0020104Y0211811D01*
X0020167Y0211756D01*
X0020227Y0211698D01*
X0020285Y0211637D01*
X0020339Y0211573D01*
X0020391Y0211507D01*
X0020439Y0211439D01*
X0020484Y0211368D01*
X0020525Y0211295D01*
X0020564Y0211221D01*
X0020598Y0211145D01*
X0020629Y0211067D01*
X0020656Y0210988D01*
X0020680Y0210907D01*
X0020699Y0210826D01*
X0020715Y0210744D01*
X0020727Y0210661D01*
X0020735Y0210577D01*
X0020739Y0210494D01*
X0020739Y0210410D01*
X0020735Y0210327D01*
X0020727Y0210243D01*
X0020715Y0210160D01*
X0020699Y0210078D01*
X0020680Y0209997D01*
X0020656Y0209916D01*
X0020629Y0209837D01*
X0020598Y0209759D01*
X0020564Y0209683D01*
X0020525Y0209609D01*
X0020484Y0209536D01*
X0020439Y0209465D01*
X0020391Y0209397D01*
X0020339Y0209331D01*
X0020285Y0209267D01*
X0020227Y0209206D01*
X0020167Y0209148D01*
X0020104Y0209093D01*
X0020039Y0209041D01*
X0019971Y0208992D01*
X0019901Y0208946D01*
X0019829Y0208904D01*
X0019755Y0208865D01*
X0019679Y0208829D01*
X0019601Y0208797D01*
X0019523Y0208769D01*
X0019442Y0208745D01*
X0019361Y0208724D01*
X0019279Y0208708D01*
X0019197Y0208695D01*
X0019113Y0208686D01*
X0019030Y0208681D01*
X0018946Y0208680D01*
X0018862Y0208683D01*
X0018779Y0208690D01*
X0018696Y0208701D01*
X0018614Y0208716D01*
X0018532Y0208734D01*
X0018451Y0208757D01*
X0018372Y0208783D01*
X0018294Y0208813D01*
X0018217Y0208847D01*
X0018142Y0208884D01*
X0018069Y0208924D01*
X0017998Y0208969D01*
X0017929Y0209016D01*
X0017862Y0209067D01*
X0017798Y0209120D01*
X0017736Y0209177D01*
X0017678Y0209237D01*
X0017622Y0209299D01*
X0017569Y0209364D01*
X0017519Y0209431D01*
X0017472Y0209500D01*
X0017429Y0209572D01*
X0017389Y0209646D01*
X0017353Y0209721D01*
X0017320Y0209798D01*
X0017291Y0209877D01*
X0017266Y0209956D01*
X0017244Y0210037D01*
X0017227Y0210119D01*
X0017213Y0210202D01*
X0017203Y0210285D01*
X0017197Y0210368D01*
X0017195Y0210452D01*
X0005606Y0284264D02*
X0005608Y0284422D01*
X0005614Y0284580D01*
X0005624Y0284738D01*
X0005638Y0284896D01*
X0005656Y0285053D01*
X0005677Y0285210D01*
X0005703Y0285366D01*
X0005733Y0285522D01*
X0005766Y0285677D01*
X0005804Y0285830D01*
X0005845Y0285983D01*
X0005890Y0286135D01*
X0005939Y0286286D01*
X0005992Y0286435D01*
X0006048Y0286583D01*
X0006108Y0286729D01*
X0006172Y0286874D01*
X0006240Y0287017D01*
X0006311Y0287159D01*
X0006385Y0287299D01*
X0006463Y0287436D01*
X0006545Y0287572D01*
X0006629Y0287706D01*
X0006718Y0287837D01*
X0006809Y0287966D01*
X0006904Y0288093D01*
X0007001Y0288218D01*
X0007102Y0288340D01*
X0007206Y0288459D01*
X0007313Y0288576D01*
X0007423Y0288690D01*
X0007536Y0288801D01*
X0007651Y0288910D01*
X0007769Y0289015D01*
X0007890Y0289117D01*
X0008013Y0289217D01*
X0008139Y0289313D01*
X0008267Y0289406D01*
X0008397Y0289496D01*
X0008530Y0289582D01*
X0008665Y0289666D01*
X0008801Y0289745D01*
X0008940Y0289822D01*
X0009081Y0289894D01*
X0009223Y0289964D01*
X0009367Y0290029D01*
X0009513Y0290091D01*
X0009660Y0290149D01*
X0009809Y0290204D01*
X0009959Y0290255D01*
X0010110Y0290302D01*
X0010262Y0290345D01*
X0010415Y0290384D01*
X0010570Y0290420D01*
X0010725Y0290451D01*
X0010881Y0290479D01*
X0011037Y0290503D01*
X0011194Y0290523D01*
X0011352Y0290539D01*
X0011509Y0290551D01*
X0011668Y0290559D01*
X0011826Y0290563D01*
X0011984Y0290563D01*
X0012142Y0290559D01*
X0012301Y0290551D01*
X0012458Y0290539D01*
X0012616Y0290523D01*
X0012773Y0290503D01*
X0012929Y0290479D01*
X0013085Y0290451D01*
X0013240Y0290420D01*
X0013395Y0290384D01*
X0013548Y0290345D01*
X0013700Y0290302D01*
X0013851Y0290255D01*
X0014001Y0290204D01*
X0014150Y0290149D01*
X0014297Y0290091D01*
X0014443Y0290029D01*
X0014587Y0289964D01*
X0014729Y0289894D01*
X0014870Y0289822D01*
X0015009Y0289745D01*
X0015145Y0289666D01*
X0015280Y0289582D01*
X0015413Y0289496D01*
X0015543Y0289406D01*
X0015671Y0289313D01*
X0015797Y0289217D01*
X0015920Y0289117D01*
X0016041Y0289015D01*
X0016159Y0288910D01*
X0016274Y0288801D01*
X0016387Y0288690D01*
X0016497Y0288576D01*
X0016604Y0288459D01*
X0016708Y0288340D01*
X0016809Y0288218D01*
X0016906Y0288093D01*
X0017001Y0287966D01*
X0017092Y0287837D01*
X0017181Y0287706D01*
X0017265Y0287572D01*
X0017347Y0287436D01*
X0017425Y0287299D01*
X0017499Y0287159D01*
X0017570Y0287017D01*
X0017638Y0286874D01*
X0017702Y0286729D01*
X0017762Y0286583D01*
X0017818Y0286435D01*
X0017871Y0286286D01*
X0017920Y0286135D01*
X0017965Y0285983D01*
X0018006Y0285830D01*
X0018044Y0285677D01*
X0018077Y0285522D01*
X0018107Y0285366D01*
X0018133Y0285210D01*
X0018154Y0285053D01*
X0018172Y0284896D01*
X0018186Y0284738D01*
X0018196Y0284580D01*
X0018202Y0284422D01*
X0018204Y0284264D01*
X0018202Y0284106D01*
X0018196Y0283948D01*
X0018186Y0283790D01*
X0018172Y0283632D01*
X0018154Y0283475D01*
X0018133Y0283318D01*
X0018107Y0283162D01*
X0018077Y0283006D01*
X0018044Y0282851D01*
X0018006Y0282698D01*
X0017965Y0282545D01*
X0017920Y0282393D01*
X0017871Y0282242D01*
X0017818Y0282093D01*
X0017762Y0281945D01*
X0017702Y0281799D01*
X0017638Y0281654D01*
X0017570Y0281511D01*
X0017499Y0281369D01*
X0017425Y0281229D01*
X0017347Y0281092D01*
X0017265Y0280956D01*
X0017181Y0280822D01*
X0017092Y0280691D01*
X0017001Y0280562D01*
X0016906Y0280435D01*
X0016809Y0280310D01*
X0016708Y0280188D01*
X0016604Y0280069D01*
X0016497Y0279952D01*
X0016387Y0279838D01*
X0016274Y0279727D01*
X0016159Y0279618D01*
X0016041Y0279513D01*
X0015920Y0279411D01*
X0015797Y0279311D01*
X0015671Y0279215D01*
X0015543Y0279122D01*
X0015413Y0279032D01*
X0015280Y0278946D01*
X0015145Y0278862D01*
X0015009Y0278783D01*
X0014870Y0278706D01*
X0014729Y0278634D01*
X0014587Y0278564D01*
X0014443Y0278499D01*
X0014297Y0278437D01*
X0014150Y0278379D01*
X0014001Y0278324D01*
X0013851Y0278273D01*
X0013700Y0278226D01*
X0013548Y0278183D01*
X0013395Y0278144D01*
X0013240Y0278108D01*
X0013085Y0278077D01*
X0012929Y0278049D01*
X0012773Y0278025D01*
X0012616Y0278005D01*
X0012458Y0277989D01*
X0012301Y0277977D01*
X0012142Y0277969D01*
X0011984Y0277965D01*
X0011826Y0277965D01*
X0011668Y0277969D01*
X0011509Y0277977D01*
X0011352Y0277989D01*
X0011194Y0278005D01*
X0011037Y0278025D01*
X0010881Y0278049D01*
X0010725Y0278077D01*
X0010570Y0278108D01*
X0010415Y0278144D01*
X0010262Y0278183D01*
X0010110Y0278226D01*
X0009959Y0278273D01*
X0009809Y0278324D01*
X0009660Y0278379D01*
X0009513Y0278437D01*
X0009367Y0278499D01*
X0009223Y0278564D01*
X0009081Y0278634D01*
X0008940Y0278706D01*
X0008801Y0278783D01*
X0008665Y0278862D01*
X0008530Y0278946D01*
X0008397Y0279032D01*
X0008267Y0279122D01*
X0008139Y0279215D01*
X0008013Y0279311D01*
X0007890Y0279411D01*
X0007769Y0279513D01*
X0007651Y0279618D01*
X0007536Y0279727D01*
X0007423Y0279838D01*
X0007313Y0279952D01*
X0007206Y0280069D01*
X0007102Y0280188D01*
X0007001Y0280310D01*
X0006904Y0280435D01*
X0006809Y0280562D01*
X0006718Y0280691D01*
X0006629Y0280822D01*
X0006545Y0280956D01*
X0006463Y0281092D01*
X0006385Y0281229D01*
X0006311Y0281369D01*
X0006240Y0281511D01*
X0006172Y0281654D01*
X0006108Y0281799D01*
X0006048Y0281945D01*
X0005992Y0282093D01*
X0005939Y0282242D01*
X0005890Y0282393D01*
X0005845Y0282545D01*
X0005804Y0282698D01*
X0005766Y0282851D01*
X0005733Y0283006D01*
X0005703Y0283162D01*
X0005677Y0283318D01*
X0005656Y0283475D01*
X0005638Y0283632D01*
X0005624Y0283790D01*
X0005614Y0283948D01*
X0005608Y0284106D01*
X0005606Y0284264D01*
X0291471Y0240794D02*
X0291473Y0240875D01*
X0291479Y0240957D01*
X0291489Y0241038D01*
X0291503Y0241118D01*
X0291520Y0241197D01*
X0291542Y0241276D01*
X0291567Y0241353D01*
X0291596Y0241430D01*
X0291629Y0241504D01*
X0291666Y0241577D01*
X0291705Y0241648D01*
X0291749Y0241717D01*
X0291795Y0241784D01*
X0291845Y0241848D01*
X0291898Y0241910D01*
X0291954Y0241970D01*
X0292012Y0242026D01*
X0292074Y0242080D01*
X0292138Y0242131D01*
X0292204Y0242178D01*
X0292272Y0242222D01*
X0292343Y0242263D01*
X0292415Y0242300D01*
X0292490Y0242334D01*
X0292565Y0242364D01*
X0292643Y0242390D01*
X0292721Y0242413D01*
X0292800Y0242431D01*
X0292880Y0242446D01*
X0292961Y0242457D01*
X0293042Y0242464D01*
X0293124Y0242467D01*
X0293205Y0242466D01*
X0293286Y0242461D01*
X0293367Y0242452D01*
X0293448Y0242439D01*
X0293528Y0242422D01*
X0293606Y0242402D01*
X0293684Y0242377D01*
X0293761Y0242349D01*
X0293836Y0242317D01*
X0293909Y0242282D01*
X0293980Y0242243D01*
X0294050Y0242200D01*
X0294117Y0242155D01*
X0294183Y0242106D01*
X0294245Y0242054D01*
X0294305Y0241998D01*
X0294362Y0241940D01*
X0294417Y0241880D01*
X0294468Y0241816D01*
X0294516Y0241751D01*
X0294561Y0241683D01*
X0294603Y0241613D01*
X0294641Y0241541D01*
X0294676Y0241467D01*
X0294707Y0241392D01*
X0294734Y0241315D01*
X0294757Y0241237D01*
X0294777Y0241158D01*
X0294793Y0241078D01*
X0294805Y0240997D01*
X0294813Y0240916D01*
X0294817Y0240835D01*
X0294817Y0240753D01*
X0294813Y0240672D01*
X0294805Y0240591D01*
X0294793Y0240510D01*
X0294777Y0240430D01*
X0294757Y0240351D01*
X0294734Y0240273D01*
X0294707Y0240196D01*
X0294676Y0240121D01*
X0294641Y0240047D01*
X0294603Y0239975D01*
X0294561Y0239905D01*
X0294516Y0239837D01*
X0294468Y0239772D01*
X0294417Y0239708D01*
X0294362Y0239648D01*
X0294305Y0239590D01*
X0294245Y0239534D01*
X0294183Y0239482D01*
X0294117Y0239433D01*
X0294050Y0239388D01*
X0293981Y0239345D01*
X0293909Y0239306D01*
X0293836Y0239271D01*
X0293761Y0239239D01*
X0293684Y0239211D01*
X0293606Y0239186D01*
X0293528Y0239166D01*
X0293448Y0239149D01*
X0293367Y0239136D01*
X0293286Y0239127D01*
X0293205Y0239122D01*
X0293124Y0239121D01*
X0293042Y0239124D01*
X0292961Y0239131D01*
X0292880Y0239142D01*
X0292800Y0239157D01*
X0292721Y0239175D01*
X0292643Y0239198D01*
X0292565Y0239224D01*
X0292490Y0239254D01*
X0292415Y0239288D01*
X0292343Y0239325D01*
X0292272Y0239366D01*
X0292204Y0239410D01*
X0292138Y0239457D01*
X0292074Y0239508D01*
X0292012Y0239562D01*
X0291954Y0239618D01*
X0291898Y0239678D01*
X0291845Y0239740D01*
X0291795Y0239804D01*
X0291749Y0239871D01*
X0291705Y0239940D01*
X0291666Y0240011D01*
X0291629Y0240084D01*
X0291596Y0240158D01*
X0291567Y0240235D01*
X0291542Y0240312D01*
X0291520Y0240391D01*
X0291503Y0240470D01*
X0291489Y0240550D01*
X0291479Y0240631D01*
X0291473Y0240713D01*
X0291471Y0240794D01*
X0291471Y0225833D02*
X0291473Y0225914D01*
X0291479Y0225996D01*
X0291489Y0226077D01*
X0291503Y0226157D01*
X0291520Y0226236D01*
X0291542Y0226315D01*
X0291567Y0226392D01*
X0291596Y0226469D01*
X0291629Y0226543D01*
X0291666Y0226616D01*
X0291705Y0226687D01*
X0291749Y0226756D01*
X0291795Y0226823D01*
X0291845Y0226887D01*
X0291898Y0226949D01*
X0291954Y0227009D01*
X0292012Y0227065D01*
X0292074Y0227119D01*
X0292138Y0227170D01*
X0292204Y0227217D01*
X0292272Y0227261D01*
X0292343Y0227302D01*
X0292415Y0227339D01*
X0292490Y0227373D01*
X0292565Y0227403D01*
X0292643Y0227429D01*
X0292721Y0227452D01*
X0292800Y0227470D01*
X0292880Y0227485D01*
X0292961Y0227496D01*
X0293042Y0227503D01*
X0293124Y0227506D01*
X0293205Y0227505D01*
X0293286Y0227500D01*
X0293367Y0227491D01*
X0293448Y0227478D01*
X0293528Y0227461D01*
X0293606Y0227441D01*
X0293684Y0227416D01*
X0293761Y0227388D01*
X0293836Y0227356D01*
X0293909Y0227321D01*
X0293980Y0227282D01*
X0294050Y0227239D01*
X0294117Y0227194D01*
X0294183Y0227145D01*
X0294245Y0227093D01*
X0294305Y0227037D01*
X0294362Y0226979D01*
X0294417Y0226919D01*
X0294468Y0226855D01*
X0294516Y0226790D01*
X0294561Y0226722D01*
X0294603Y0226652D01*
X0294641Y0226580D01*
X0294676Y0226506D01*
X0294707Y0226431D01*
X0294734Y0226354D01*
X0294757Y0226276D01*
X0294777Y0226197D01*
X0294793Y0226117D01*
X0294805Y0226036D01*
X0294813Y0225955D01*
X0294817Y0225874D01*
X0294817Y0225792D01*
X0294813Y0225711D01*
X0294805Y0225630D01*
X0294793Y0225549D01*
X0294777Y0225469D01*
X0294757Y0225390D01*
X0294734Y0225312D01*
X0294707Y0225235D01*
X0294676Y0225160D01*
X0294641Y0225086D01*
X0294603Y0225014D01*
X0294561Y0224944D01*
X0294516Y0224876D01*
X0294468Y0224811D01*
X0294417Y0224747D01*
X0294362Y0224687D01*
X0294305Y0224629D01*
X0294245Y0224573D01*
X0294183Y0224521D01*
X0294117Y0224472D01*
X0294050Y0224427D01*
X0293981Y0224384D01*
X0293909Y0224345D01*
X0293836Y0224310D01*
X0293761Y0224278D01*
X0293684Y0224250D01*
X0293606Y0224225D01*
X0293528Y0224205D01*
X0293448Y0224188D01*
X0293367Y0224175D01*
X0293286Y0224166D01*
X0293205Y0224161D01*
X0293124Y0224160D01*
X0293042Y0224163D01*
X0292961Y0224170D01*
X0292880Y0224181D01*
X0292800Y0224196D01*
X0292721Y0224214D01*
X0292643Y0224237D01*
X0292565Y0224263D01*
X0292490Y0224293D01*
X0292415Y0224327D01*
X0292343Y0224364D01*
X0292272Y0224405D01*
X0292204Y0224449D01*
X0292138Y0224496D01*
X0292074Y0224547D01*
X0292012Y0224601D01*
X0291954Y0224657D01*
X0291898Y0224717D01*
X0291845Y0224779D01*
X0291795Y0224843D01*
X0291749Y0224910D01*
X0291705Y0224979D01*
X0291666Y0225050D01*
X0291629Y0225123D01*
X0291596Y0225197D01*
X0291567Y0225274D01*
X0291542Y0225351D01*
X0291520Y0225430D01*
X0291503Y0225509D01*
X0291489Y0225589D01*
X0291479Y0225670D01*
X0291473Y0225752D01*
X0291471Y0225833D01*
X0298806Y0284364D02*
X0298808Y0284522D01*
X0298814Y0284680D01*
X0298824Y0284838D01*
X0298838Y0284996D01*
X0298856Y0285153D01*
X0298877Y0285310D01*
X0298903Y0285466D01*
X0298933Y0285622D01*
X0298966Y0285777D01*
X0299004Y0285930D01*
X0299045Y0286083D01*
X0299090Y0286235D01*
X0299139Y0286386D01*
X0299192Y0286535D01*
X0299248Y0286683D01*
X0299308Y0286829D01*
X0299372Y0286974D01*
X0299440Y0287117D01*
X0299511Y0287259D01*
X0299585Y0287399D01*
X0299663Y0287536D01*
X0299745Y0287672D01*
X0299829Y0287806D01*
X0299918Y0287937D01*
X0300009Y0288066D01*
X0300104Y0288193D01*
X0300201Y0288318D01*
X0300302Y0288440D01*
X0300406Y0288559D01*
X0300513Y0288676D01*
X0300623Y0288790D01*
X0300736Y0288901D01*
X0300851Y0289010D01*
X0300969Y0289115D01*
X0301090Y0289217D01*
X0301213Y0289317D01*
X0301339Y0289413D01*
X0301467Y0289506D01*
X0301597Y0289596D01*
X0301730Y0289682D01*
X0301865Y0289766D01*
X0302001Y0289845D01*
X0302140Y0289922D01*
X0302281Y0289994D01*
X0302423Y0290064D01*
X0302567Y0290129D01*
X0302713Y0290191D01*
X0302860Y0290249D01*
X0303009Y0290304D01*
X0303159Y0290355D01*
X0303310Y0290402D01*
X0303462Y0290445D01*
X0303615Y0290484D01*
X0303770Y0290520D01*
X0303925Y0290551D01*
X0304081Y0290579D01*
X0304237Y0290603D01*
X0304394Y0290623D01*
X0304552Y0290639D01*
X0304709Y0290651D01*
X0304868Y0290659D01*
X0305026Y0290663D01*
X0305184Y0290663D01*
X0305342Y0290659D01*
X0305501Y0290651D01*
X0305658Y0290639D01*
X0305816Y0290623D01*
X0305973Y0290603D01*
X0306129Y0290579D01*
X0306285Y0290551D01*
X0306440Y0290520D01*
X0306595Y0290484D01*
X0306748Y0290445D01*
X0306900Y0290402D01*
X0307051Y0290355D01*
X0307201Y0290304D01*
X0307350Y0290249D01*
X0307497Y0290191D01*
X0307643Y0290129D01*
X0307787Y0290064D01*
X0307929Y0289994D01*
X0308070Y0289922D01*
X0308209Y0289845D01*
X0308345Y0289766D01*
X0308480Y0289682D01*
X0308613Y0289596D01*
X0308743Y0289506D01*
X0308871Y0289413D01*
X0308997Y0289317D01*
X0309120Y0289217D01*
X0309241Y0289115D01*
X0309359Y0289010D01*
X0309474Y0288901D01*
X0309587Y0288790D01*
X0309697Y0288676D01*
X0309804Y0288559D01*
X0309908Y0288440D01*
X0310009Y0288318D01*
X0310106Y0288193D01*
X0310201Y0288066D01*
X0310292Y0287937D01*
X0310381Y0287806D01*
X0310465Y0287672D01*
X0310547Y0287536D01*
X0310625Y0287399D01*
X0310699Y0287259D01*
X0310770Y0287117D01*
X0310838Y0286974D01*
X0310902Y0286829D01*
X0310962Y0286683D01*
X0311018Y0286535D01*
X0311071Y0286386D01*
X0311120Y0286235D01*
X0311165Y0286083D01*
X0311206Y0285930D01*
X0311244Y0285777D01*
X0311277Y0285622D01*
X0311307Y0285466D01*
X0311333Y0285310D01*
X0311354Y0285153D01*
X0311372Y0284996D01*
X0311386Y0284838D01*
X0311396Y0284680D01*
X0311402Y0284522D01*
X0311404Y0284364D01*
X0311402Y0284206D01*
X0311396Y0284048D01*
X0311386Y0283890D01*
X0311372Y0283732D01*
X0311354Y0283575D01*
X0311333Y0283418D01*
X0311307Y0283262D01*
X0311277Y0283106D01*
X0311244Y0282951D01*
X0311206Y0282798D01*
X0311165Y0282645D01*
X0311120Y0282493D01*
X0311071Y0282342D01*
X0311018Y0282193D01*
X0310962Y0282045D01*
X0310902Y0281899D01*
X0310838Y0281754D01*
X0310770Y0281611D01*
X0310699Y0281469D01*
X0310625Y0281329D01*
X0310547Y0281192D01*
X0310465Y0281056D01*
X0310381Y0280922D01*
X0310292Y0280791D01*
X0310201Y0280662D01*
X0310106Y0280535D01*
X0310009Y0280410D01*
X0309908Y0280288D01*
X0309804Y0280169D01*
X0309697Y0280052D01*
X0309587Y0279938D01*
X0309474Y0279827D01*
X0309359Y0279718D01*
X0309241Y0279613D01*
X0309120Y0279511D01*
X0308997Y0279411D01*
X0308871Y0279315D01*
X0308743Y0279222D01*
X0308613Y0279132D01*
X0308480Y0279046D01*
X0308345Y0278962D01*
X0308209Y0278883D01*
X0308070Y0278806D01*
X0307929Y0278734D01*
X0307787Y0278664D01*
X0307643Y0278599D01*
X0307497Y0278537D01*
X0307350Y0278479D01*
X0307201Y0278424D01*
X0307051Y0278373D01*
X0306900Y0278326D01*
X0306748Y0278283D01*
X0306595Y0278244D01*
X0306440Y0278208D01*
X0306285Y0278177D01*
X0306129Y0278149D01*
X0305973Y0278125D01*
X0305816Y0278105D01*
X0305658Y0278089D01*
X0305501Y0278077D01*
X0305342Y0278069D01*
X0305184Y0278065D01*
X0305026Y0278065D01*
X0304868Y0278069D01*
X0304709Y0278077D01*
X0304552Y0278089D01*
X0304394Y0278105D01*
X0304237Y0278125D01*
X0304081Y0278149D01*
X0303925Y0278177D01*
X0303770Y0278208D01*
X0303615Y0278244D01*
X0303462Y0278283D01*
X0303310Y0278326D01*
X0303159Y0278373D01*
X0303009Y0278424D01*
X0302860Y0278479D01*
X0302713Y0278537D01*
X0302567Y0278599D01*
X0302423Y0278664D01*
X0302281Y0278734D01*
X0302140Y0278806D01*
X0302001Y0278883D01*
X0301865Y0278962D01*
X0301730Y0279046D01*
X0301597Y0279132D01*
X0301467Y0279222D01*
X0301339Y0279315D01*
X0301213Y0279411D01*
X0301090Y0279511D01*
X0300969Y0279613D01*
X0300851Y0279718D01*
X0300736Y0279827D01*
X0300623Y0279938D01*
X0300513Y0280052D01*
X0300406Y0280169D01*
X0300302Y0280288D01*
X0300201Y0280410D01*
X0300104Y0280535D01*
X0300009Y0280662D01*
X0299918Y0280791D01*
X0299829Y0280922D01*
X0299745Y0281056D01*
X0299663Y0281192D01*
X0299585Y0281329D01*
X0299511Y0281469D01*
X0299440Y0281611D01*
X0299372Y0281754D01*
X0299308Y0281899D01*
X0299248Y0282045D01*
X0299192Y0282193D01*
X0299139Y0282342D01*
X0299090Y0282493D01*
X0299045Y0282645D01*
X0299004Y0282798D01*
X0298966Y0282951D01*
X0298933Y0283106D01*
X0298903Y0283262D01*
X0298877Y0283418D01*
X0298856Y0283575D01*
X0298838Y0283732D01*
X0298824Y0283890D01*
X0298814Y0284048D01*
X0298808Y0284206D01*
X0298806Y0284364D01*
X0300905Y0106664D02*
X0300907Y0106744D01*
X0300913Y0106823D01*
X0300923Y0106902D01*
X0300937Y0106981D01*
X0300954Y0107059D01*
X0300976Y0107136D01*
X0301001Y0107211D01*
X0301031Y0107285D01*
X0301063Y0107358D01*
X0301100Y0107429D01*
X0301140Y0107498D01*
X0301183Y0107565D01*
X0301230Y0107630D01*
X0301279Y0107692D01*
X0301332Y0107752D01*
X0301388Y0107809D01*
X0301446Y0107864D01*
X0301507Y0107915D01*
X0301571Y0107963D01*
X0301637Y0108008D01*
X0301705Y0108050D01*
X0301775Y0108088D01*
X0301847Y0108122D01*
X0301920Y0108153D01*
X0301995Y0108181D01*
X0302072Y0108204D01*
X0302149Y0108224D01*
X0302227Y0108240D01*
X0302306Y0108252D01*
X0302385Y0108260D01*
X0302465Y0108264D01*
X0302545Y0108264D01*
X0302625Y0108260D01*
X0302704Y0108252D01*
X0302783Y0108240D01*
X0302861Y0108224D01*
X0302938Y0108204D01*
X0303015Y0108181D01*
X0303090Y0108153D01*
X0303163Y0108122D01*
X0303235Y0108088D01*
X0303305Y0108050D01*
X0303373Y0108008D01*
X0303439Y0107963D01*
X0303503Y0107915D01*
X0303564Y0107864D01*
X0303622Y0107809D01*
X0303678Y0107752D01*
X0303731Y0107692D01*
X0303780Y0107630D01*
X0303827Y0107565D01*
X0303870Y0107498D01*
X0303910Y0107429D01*
X0303947Y0107358D01*
X0303979Y0107285D01*
X0304009Y0107211D01*
X0304034Y0107136D01*
X0304056Y0107059D01*
X0304073Y0106981D01*
X0304087Y0106902D01*
X0304097Y0106823D01*
X0304103Y0106744D01*
X0304105Y0106664D01*
X0304103Y0106584D01*
X0304097Y0106505D01*
X0304087Y0106426D01*
X0304073Y0106347D01*
X0304056Y0106269D01*
X0304034Y0106192D01*
X0304009Y0106117D01*
X0303979Y0106043D01*
X0303947Y0105970D01*
X0303910Y0105899D01*
X0303870Y0105830D01*
X0303827Y0105763D01*
X0303780Y0105698D01*
X0303731Y0105636D01*
X0303678Y0105576D01*
X0303622Y0105519D01*
X0303564Y0105464D01*
X0303503Y0105413D01*
X0303439Y0105365D01*
X0303373Y0105320D01*
X0303305Y0105278D01*
X0303235Y0105240D01*
X0303163Y0105206D01*
X0303090Y0105175D01*
X0303015Y0105147D01*
X0302938Y0105124D01*
X0302861Y0105104D01*
X0302783Y0105088D01*
X0302704Y0105076D01*
X0302625Y0105068D01*
X0302545Y0105064D01*
X0302465Y0105064D01*
X0302385Y0105068D01*
X0302306Y0105076D01*
X0302227Y0105088D01*
X0302149Y0105104D01*
X0302072Y0105124D01*
X0301995Y0105147D01*
X0301920Y0105175D01*
X0301847Y0105206D01*
X0301775Y0105240D01*
X0301705Y0105278D01*
X0301637Y0105320D01*
X0301571Y0105365D01*
X0301507Y0105413D01*
X0301446Y0105464D01*
X0301388Y0105519D01*
X0301332Y0105576D01*
X0301279Y0105636D01*
X0301230Y0105698D01*
X0301183Y0105763D01*
X0301140Y0105830D01*
X0301100Y0105899D01*
X0301063Y0105970D01*
X0301031Y0106043D01*
X0301001Y0106117D01*
X0300976Y0106192D01*
X0300954Y0106269D01*
X0300937Y0106347D01*
X0300923Y0106426D01*
X0300913Y0106505D01*
X0300907Y0106584D01*
X0300905Y0106664D01*
X0300905Y0094664D02*
X0300907Y0094744D01*
X0300913Y0094823D01*
X0300923Y0094902D01*
X0300937Y0094981D01*
X0300954Y0095059D01*
X0300976Y0095136D01*
X0301001Y0095211D01*
X0301031Y0095285D01*
X0301063Y0095358D01*
X0301100Y0095429D01*
X0301140Y0095498D01*
X0301183Y0095565D01*
X0301230Y0095630D01*
X0301279Y0095692D01*
X0301332Y0095752D01*
X0301388Y0095809D01*
X0301446Y0095864D01*
X0301507Y0095915D01*
X0301571Y0095963D01*
X0301637Y0096008D01*
X0301705Y0096050D01*
X0301775Y0096088D01*
X0301847Y0096122D01*
X0301920Y0096153D01*
X0301995Y0096181D01*
X0302072Y0096204D01*
X0302149Y0096224D01*
X0302227Y0096240D01*
X0302306Y0096252D01*
X0302385Y0096260D01*
X0302465Y0096264D01*
X0302545Y0096264D01*
X0302625Y0096260D01*
X0302704Y0096252D01*
X0302783Y0096240D01*
X0302861Y0096224D01*
X0302938Y0096204D01*
X0303015Y0096181D01*
X0303090Y0096153D01*
X0303163Y0096122D01*
X0303235Y0096088D01*
X0303305Y0096050D01*
X0303373Y0096008D01*
X0303439Y0095963D01*
X0303503Y0095915D01*
X0303564Y0095864D01*
X0303622Y0095809D01*
X0303678Y0095752D01*
X0303731Y0095692D01*
X0303780Y0095630D01*
X0303827Y0095565D01*
X0303870Y0095498D01*
X0303910Y0095429D01*
X0303947Y0095358D01*
X0303979Y0095285D01*
X0304009Y0095211D01*
X0304034Y0095136D01*
X0304056Y0095059D01*
X0304073Y0094981D01*
X0304087Y0094902D01*
X0304097Y0094823D01*
X0304103Y0094744D01*
X0304105Y0094664D01*
X0304103Y0094584D01*
X0304097Y0094505D01*
X0304087Y0094426D01*
X0304073Y0094347D01*
X0304056Y0094269D01*
X0304034Y0094192D01*
X0304009Y0094117D01*
X0303979Y0094043D01*
X0303947Y0093970D01*
X0303910Y0093899D01*
X0303870Y0093830D01*
X0303827Y0093763D01*
X0303780Y0093698D01*
X0303731Y0093636D01*
X0303678Y0093576D01*
X0303622Y0093519D01*
X0303564Y0093464D01*
X0303503Y0093413D01*
X0303439Y0093365D01*
X0303373Y0093320D01*
X0303305Y0093278D01*
X0303235Y0093240D01*
X0303163Y0093206D01*
X0303090Y0093175D01*
X0303015Y0093147D01*
X0302938Y0093124D01*
X0302861Y0093104D01*
X0302783Y0093088D01*
X0302704Y0093076D01*
X0302625Y0093068D01*
X0302545Y0093064D01*
X0302465Y0093064D01*
X0302385Y0093068D01*
X0302306Y0093076D01*
X0302227Y0093088D01*
X0302149Y0093104D01*
X0302072Y0093124D01*
X0301995Y0093147D01*
X0301920Y0093175D01*
X0301847Y0093206D01*
X0301775Y0093240D01*
X0301705Y0093278D01*
X0301637Y0093320D01*
X0301571Y0093365D01*
X0301507Y0093413D01*
X0301446Y0093464D01*
X0301388Y0093519D01*
X0301332Y0093576D01*
X0301279Y0093636D01*
X0301230Y0093698D01*
X0301183Y0093763D01*
X0301140Y0093830D01*
X0301100Y0093899D01*
X0301063Y0093970D01*
X0301031Y0094043D01*
X0301001Y0094117D01*
X0300976Y0094192D01*
X0300954Y0094269D01*
X0300937Y0094347D01*
X0300923Y0094426D01*
X0300913Y0094505D01*
X0300907Y0094584D01*
X0300905Y0094664D01*
X0298806Y0012414D02*
X0298808Y0012572D01*
X0298814Y0012730D01*
X0298824Y0012888D01*
X0298838Y0013046D01*
X0298856Y0013203D01*
X0298877Y0013360D01*
X0298903Y0013516D01*
X0298933Y0013672D01*
X0298966Y0013827D01*
X0299004Y0013980D01*
X0299045Y0014133D01*
X0299090Y0014285D01*
X0299139Y0014436D01*
X0299192Y0014585D01*
X0299248Y0014733D01*
X0299308Y0014879D01*
X0299372Y0015024D01*
X0299440Y0015167D01*
X0299511Y0015309D01*
X0299585Y0015449D01*
X0299663Y0015586D01*
X0299745Y0015722D01*
X0299829Y0015856D01*
X0299918Y0015987D01*
X0300009Y0016116D01*
X0300104Y0016243D01*
X0300201Y0016368D01*
X0300302Y0016490D01*
X0300406Y0016609D01*
X0300513Y0016726D01*
X0300623Y0016840D01*
X0300736Y0016951D01*
X0300851Y0017060D01*
X0300969Y0017165D01*
X0301090Y0017267D01*
X0301213Y0017367D01*
X0301339Y0017463D01*
X0301467Y0017556D01*
X0301597Y0017646D01*
X0301730Y0017732D01*
X0301865Y0017816D01*
X0302001Y0017895D01*
X0302140Y0017972D01*
X0302281Y0018044D01*
X0302423Y0018114D01*
X0302567Y0018179D01*
X0302713Y0018241D01*
X0302860Y0018299D01*
X0303009Y0018354D01*
X0303159Y0018405D01*
X0303310Y0018452D01*
X0303462Y0018495D01*
X0303615Y0018534D01*
X0303770Y0018570D01*
X0303925Y0018601D01*
X0304081Y0018629D01*
X0304237Y0018653D01*
X0304394Y0018673D01*
X0304552Y0018689D01*
X0304709Y0018701D01*
X0304868Y0018709D01*
X0305026Y0018713D01*
X0305184Y0018713D01*
X0305342Y0018709D01*
X0305501Y0018701D01*
X0305658Y0018689D01*
X0305816Y0018673D01*
X0305973Y0018653D01*
X0306129Y0018629D01*
X0306285Y0018601D01*
X0306440Y0018570D01*
X0306595Y0018534D01*
X0306748Y0018495D01*
X0306900Y0018452D01*
X0307051Y0018405D01*
X0307201Y0018354D01*
X0307350Y0018299D01*
X0307497Y0018241D01*
X0307643Y0018179D01*
X0307787Y0018114D01*
X0307929Y0018044D01*
X0308070Y0017972D01*
X0308209Y0017895D01*
X0308345Y0017816D01*
X0308480Y0017732D01*
X0308613Y0017646D01*
X0308743Y0017556D01*
X0308871Y0017463D01*
X0308997Y0017367D01*
X0309120Y0017267D01*
X0309241Y0017165D01*
X0309359Y0017060D01*
X0309474Y0016951D01*
X0309587Y0016840D01*
X0309697Y0016726D01*
X0309804Y0016609D01*
X0309908Y0016490D01*
X0310009Y0016368D01*
X0310106Y0016243D01*
X0310201Y0016116D01*
X0310292Y0015987D01*
X0310381Y0015856D01*
X0310465Y0015722D01*
X0310547Y0015586D01*
X0310625Y0015449D01*
X0310699Y0015309D01*
X0310770Y0015167D01*
X0310838Y0015024D01*
X0310902Y0014879D01*
X0310962Y0014733D01*
X0311018Y0014585D01*
X0311071Y0014436D01*
X0311120Y0014285D01*
X0311165Y0014133D01*
X0311206Y0013980D01*
X0311244Y0013827D01*
X0311277Y0013672D01*
X0311307Y0013516D01*
X0311333Y0013360D01*
X0311354Y0013203D01*
X0311372Y0013046D01*
X0311386Y0012888D01*
X0311396Y0012730D01*
X0311402Y0012572D01*
X0311404Y0012414D01*
X0311402Y0012256D01*
X0311396Y0012098D01*
X0311386Y0011940D01*
X0311372Y0011782D01*
X0311354Y0011625D01*
X0311333Y0011468D01*
X0311307Y0011312D01*
X0311277Y0011156D01*
X0311244Y0011001D01*
X0311206Y0010848D01*
X0311165Y0010695D01*
X0311120Y0010543D01*
X0311071Y0010392D01*
X0311018Y0010243D01*
X0310962Y0010095D01*
X0310902Y0009949D01*
X0310838Y0009804D01*
X0310770Y0009661D01*
X0310699Y0009519D01*
X0310625Y0009379D01*
X0310547Y0009242D01*
X0310465Y0009106D01*
X0310381Y0008972D01*
X0310292Y0008841D01*
X0310201Y0008712D01*
X0310106Y0008585D01*
X0310009Y0008460D01*
X0309908Y0008338D01*
X0309804Y0008219D01*
X0309697Y0008102D01*
X0309587Y0007988D01*
X0309474Y0007877D01*
X0309359Y0007768D01*
X0309241Y0007663D01*
X0309120Y0007561D01*
X0308997Y0007461D01*
X0308871Y0007365D01*
X0308743Y0007272D01*
X0308613Y0007182D01*
X0308480Y0007096D01*
X0308345Y0007012D01*
X0308209Y0006933D01*
X0308070Y0006856D01*
X0307929Y0006784D01*
X0307787Y0006714D01*
X0307643Y0006649D01*
X0307497Y0006587D01*
X0307350Y0006529D01*
X0307201Y0006474D01*
X0307051Y0006423D01*
X0306900Y0006376D01*
X0306748Y0006333D01*
X0306595Y0006294D01*
X0306440Y0006258D01*
X0306285Y0006227D01*
X0306129Y0006199D01*
X0305973Y0006175D01*
X0305816Y0006155D01*
X0305658Y0006139D01*
X0305501Y0006127D01*
X0305342Y0006119D01*
X0305184Y0006115D01*
X0305026Y0006115D01*
X0304868Y0006119D01*
X0304709Y0006127D01*
X0304552Y0006139D01*
X0304394Y0006155D01*
X0304237Y0006175D01*
X0304081Y0006199D01*
X0303925Y0006227D01*
X0303770Y0006258D01*
X0303615Y0006294D01*
X0303462Y0006333D01*
X0303310Y0006376D01*
X0303159Y0006423D01*
X0303009Y0006474D01*
X0302860Y0006529D01*
X0302713Y0006587D01*
X0302567Y0006649D01*
X0302423Y0006714D01*
X0302281Y0006784D01*
X0302140Y0006856D01*
X0302001Y0006933D01*
X0301865Y0007012D01*
X0301730Y0007096D01*
X0301597Y0007182D01*
X0301467Y0007272D01*
X0301339Y0007365D01*
X0301213Y0007461D01*
X0301090Y0007561D01*
X0300969Y0007663D01*
X0300851Y0007768D01*
X0300736Y0007877D01*
X0300623Y0007988D01*
X0300513Y0008102D01*
X0300406Y0008219D01*
X0300302Y0008338D01*
X0300201Y0008460D01*
X0300104Y0008585D01*
X0300009Y0008712D01*
X0299918Y0008841D01*
X0299829Y0008972D01*
X0299745Y0009106D01*
X0299663Y0009242D01*
X0299585Y0009379D01*
X0299511Y0009519D01*
X0299440Y0009661D01*
X0299372Y0009804D01*
X0299308Y0009949D01*
X0299248Y0010095D01*
X0299192Y0010243D01*
X0299139Y0010392D01*
X0299090Y0010543D01*
X0299045Y0010695D01*
X0299004Y0010848D01*
X0298966Y0011001D01*
X0298933Y0011156D01*
X0298903Y0011312D01*
X0298877Y0011468D01*
X0298856Y0011625D01*
X0298838Y0011782D01*
X0298824Y0011940D01*
X0298814Y0012098D01*
X0298808Y0012256D01*
X0298806Y0012414D01*
D11*
X0262460Y0055414D02*
X0261592Y0055414D01*
X0261159Y0055847D01*
X0261159Y0057582D01*
X0261592Y0058016D01*
X0262460Y0058016D01*
X0262893Y0057582D01*
X0262893Y0055847D02*
X0262460Y0055414D01*
X0259947Y0055847D02*
X0259947Y0056281D01*
X0259513Y0056715D01*
X0258212Y0056715D01*
X0258212Y0055847D01*
X0258646Y0055414D01*
X0259513Y0055414D01*
X0259947Y0055847D01*
X0259079Y0057582D02*
X0258212Y0056715D01*
X0259079Y0057582D02*
X0259947Y0058016D01*
X0257000Y0057582D02*
X0255266Y0055847D01*
X0255699Y0055414D01*
X0256567Y0055414D01*
X0257000Y0055847D01*
X0257000Y0057582D01*
X0256567Y0058016D01*
X0255699Y0058016D01*
X0255266Y0057582D01*
X0255266Y0055847D01*
X0254054Y0055414D02*
X0252319Y0055414D01*
X0253186Y0055414D02*
X0253186Y0058016D01*
X0252319Y0057149D01*
X0240529Y0054932D02*
X0240096Y0055366D01*
X0239228Y0055366D01*
X0238795Y0054932D01*
X0238795Y0053197D01*
X0239228Y0052764D01*
X0240096Y0052764D01*
X0240529Y0053197D01*
X0237583Y0054065D02*
X0235848Y0054065D01*
X0237149Y0055366D01*
X0237149Y0052764D01*
X0234636Y0053197D02*
X0234203Y0052764D01*
X0233335Y0052764D01*
X0232902Y0053197D01*
X0234636Y0054932D01*
X0234636Y0053197D01*
X0232902Y0053197D02*
X0232902Y0054932D01*
X0233335Y0055366D01*
X0234203Y0055366D01*
X0234636Y0054932D01*
X0231690Y0052764D02*
X0229955Y0052764D01*
X0230823Y0052764D02*
X0230823Y0055366D01*
X0229955Y0054499D01*
X0213179Y0043782D02*
X0213179Y0042915D01*
X0212746Y0042481D01*
X0211445Y0042481D01*
X0212312Y0042481D02*
X0213179Y0041614D01*
X0211445Y0041614D02*
X0211445Y0044216D01*
X0212746Y0044216D01*
X0213179Y0043782D01*
X0210233Y0042915D02*
X0208498Y0042915D01*
X0209799Y0044216D01*
X0209799Y0041614D01*
X0207286Y0042047D02*
X0206853Y0041614D01*
X0205985Y0041614D01*
X0205552Y0042047D01*
X0207286Y0043782D01*
X0207286Y0042047D01*
X0205552Y0042047D02*
X0205552Y0043782D01*
X0205985Y0044216D01*
X0206853Y0044216D01*
X0207286Y0043782D01*
X0204340Y0041614D02*
X0202605Y0041614D01*
X0203473Y0041614D02*
X0203473Y0044216D01*
X0202605Y0043349D01*
X0197512Y0014516D02*
X0196644Y0014516D01*
X0197078Y0014516D02*
X0197078Y0011914D01*
X0196644Y0011914D02*
X0197512Y0011914D01*
X0197397Y0010676D02*
X0196529Y0009809D01*
X0195662Y0010676D01*
X0195662Y0008074D01*
X0197397Y0008074D02*
X0197397Y0010676D01*
X0198609Y0010242D02*
X0198609Y0008507D01*
X0199042Y0008074D01*
X0199910Y0008074D01*
X0200343Y0008507D01*
X0200343Y0010242D01*
X0199910Y0010676D01*
X0199042Y0010676D01*
X0198609Y0010242D01*
X0195433Y0011914D02*
X0195433Y0014516D01*
X0194565Y0013649D01*
X0193698Y0014516D01*
X0193698Y0011914D01*
X0194450Y0010676D02*
X0192716Y0008074D01*
X0191504Y0008074D02*
X0190203Y0009375D01*
X0189769Y0008941D02*
X0191504Y0010676D01*
X0190751Y0011914D02*
X0192486Y0014516D01*
X0189540Y0014082D02*
X0189106Y0014516D01*
X0188238Y0014516D01*
X0187805Y0014082D01*
X0187805Y0013649D01*
X0188238Y0013215D01*
X0189106Y0013215D01*
X0189540Y0012781D01*
X0189540Y0012347D01*
X0189106Y0011914D01*
X0188238Y0011914D01*
X0187805Y0012347D01*
X0186593Y0012347D02*
X0186159Y0011914D01*
X0185292Y0011914D01*
X0184858Y0012347D01*
X0184858Y0014082D01*
X0185292Y0014516D01*
X0186159Y0014516D01*
X0186593Y0014082D01*
X0183646Y0014082D02*
X0183213Y0014516D01*
X0182345Y0014516D01*
X0181912Y0014082D01*
X0181912Y0013649D01*
X0182345Y0013215D01*
X0183213Y0013215D01*
X0183646Y0012781D01*
X0183646Y0012347D01*
X0183213Y0011914D01*
X0182345Y0011914D01*
X0181912Y0012347D01*
X0182664Y0010676D02*
X0180929Y0008074D01*
X0179718Y0008507D02*
X0179284Y0008074D01*
X0178417Y0008074D01*
X0177983Y0008507D01*
X0178417Y0009375D02*
X0179284Y0009375D01*
X0179718Y0008941D01*
X0179718Y0008507D01*
X0178417Y0009375D02*
X0177983Y0009809D01*
X0177983Y0010242D01*
X0178417Y0010676D01*
X0179284Y0010676D01*
X0179718Y0010242D01*
X0178965Y0011914D02*
X0180700Y0014516D01*
X0177753Y0014082D02*
X0177320Y0014516D01*
X0176452Y0014516D01*
X0176019Y0014082D01*
X0176019Y0013649D01*
X0176452Y0013215D01*
X0177320Y0013215D01*
X0177753Y0012781D01*
X0177753Y0012347D01*
X0177320Y0011914D01*
X0176452Y0011914D01*
X0176019Y0012347D01*
X0174807Y0012347D02*
X0174373Y0011914D01*
X0173506Y0011914D01*
X0173072Y0012347D01*
X0173072Y0014082D01*
X0173506Y0014516D01*
X0174373Y0014516D01*
X0174807Y0014082D01*
X0171860Y0014082D02*
X0171427Y0014516D01*
X0170126Y0014516D01*
X0170126Y0011914D01*
X0171427Y0011914D01*
X0171860Y0012347D01*
X0171860Y0014082D01*
X0168914Y0014516D02*
X0167179Y0011914D01*
X0165967Y0012347D02*
X0165967Y0014082D01*
X0165534Y0014516D01*
X0164233Y0014516D01*
X0164233Y0011914D01*
X0165534Y0011914D01*
X0165967Y0012347D01*
X0166197Y0010676D02*
X0166197Y0008941D01*
X0167064Y0008074D01*
X0167932Y0008941D01*
X0167932Y0010676D01*
X0169143Y0008074D02*
X0170878Y0010676D01*
X0172090Y0010676D02*
X0172090Y0008074D01*
X0173391Y0008074D01*
X0173825Y0008507D01*
X0173825Y0010242D01*
X0173391Y0010676D01*
X0172090Y0010676D01*
X0175036Y0010676D02*
X0175036Y0008074D01*
X0175036Y0008941D02*
X0176338Y0008941D01*
X0176771Y0009375D01*
X0176771Y0010242D01*
X0176338Y0010676D01*
X0175036Y0010676D01*
X0175904Y0008941D02*
X0176771Y0008074D01*
X0183876Y0008507D02*
X0184310Y0008074D01*
X0185177Y0008074D01*
X0185611Y0008507D01*
X0185611Y0008941D01*
X0185177Y0009375D01*
X0184310Y0009375D01*
X0183876Y0009809D01*
X0183876Y0010242D01*
X0184310Y0010676D01*
X0185177Y0010676D01*
X0185611Y0010242D01*
X0186823Y0010242D02*
X0186823Y0008507D01*
X0187256Y0008074D01*
X0188124Y0008074D01*
X0188557Y0008507D01*
X0189769Y0008074D02*
X0189769Y0010676D01*
X0188557Y0010242D02*
X0188124Y0010676D01*
X0187256Y0010676D01*
X0186823Y0010242D01*
X0164985Y0010676D02*
X0163250Y0010676D01*
X0163250Y0009375D01*
X0164118Y0009809D01*
X0164551Y0009809D01*
X0164985Y0009375D01*
X0164985Y0008507D01*
X0164551Y0008074D01*
X0163684Y0008074D01*
X0163250Y0008507D01*
X0162039Y0009375D02*
X0160304Y0009375D01*
X0161171Y0010242D02*
X0161171Y0008507D01*
X0159092Y0010676D02*
X0157357Y0008074D01*
X0156146Y0008507D02*
X0156146Y0010242D01*
X0155712Y0010676D01*
X0154411Y0010676D01*
X0154411Y0008074D01*
X0155712Y0008074D01*
X0156146Y0008507D01*
X0153199Y0008074D02*
X0153199Y0010676D01*
X0152765Y0011914D02*
X0153199Y0012347D01*
X0152765Y0011914D02*
X0151898Y0011914D01*
X0151464Y0012347D01*
X0151464Y0014082D01*
X0151898Y0014516D01*
X0152765Y0014516D01*
X0153199Y0014082D01*
X0154411Y0014082D02*
X0154411Y0013649D01*
X0154845Y0013215D01*
X0155712Y0013215D01*
X0156146Y0012781D01*
X0156146Y0012347D01*
X0155712Y0011914D01*
X0154845Y0011914D01*
X0154411Y0012347D01*
X0154411Y0014082D02*
X0154845Y0014516D01*
X0155712Y0014516D01*
X0156146Y0014082D01*
X0157357Y0011914D02*
X0159092Y0014516D01*
X0160304Y0013649D02*
X0161171Y0014516D01*
X0162039Y0013649D01*
X0162039Y0011914D01*
X0163250Y0011914D02*
X0163250Y0014516D01*
X0162039Y0013215D02*
X0160304Y0013215D01*
X0160304Y0013649D02*
X0160304Y0011914D01*
X0153199Y0008074D02*
X0151464Y0010676D01*
X0151464Y0008074D01*
X0150253Y0008507D02*
X0150253Y0009375D01*
X0149385Y0009375D01*
X0148518Y0010242D02*
X0148951Y0010676D01*
X0149819Y0010676D01*
X0150253Y0010242D01*
X0150253Y0008507D02*
X0149819Y0008074D01*
X0148951Y0008074D01*
X0148518Y0008507D01*
X0148518Y0010242D01*
X0147306Y0010676D02*
X0145571Y0008074D01*
X0143492Y0008074D02*
X0143492Y0010676D01*
X0142625Y0010676D02*
X0144360Y0010676D01*
X0144360Y0011914D02*
X0143492Y0012781D01*
X0143058Y0011914D02*
X0142625Y0012347D01*
X0142625Y0014082D01*
X0143058Y0014516D01*
X0143926Y0014516D01*
X0144360Y0014082D01*
X0144360Y0012347D01*
X0143926Y0011914D01*
X0143058Y0011914D01*
X0141413Y0011914D02*
X0139678Y0011914D01*
X0139678Y0014516D01*
X0141413Y0014516D01*
X0140546Y0013215D02*
X0139678Y0013215D01*
X0138467Y0013215D02*
X0138033Y0012781D01*
X0136732Y0012781D01*
X0137599Y0012781D02*
X0138467Y0011914D01*
X0138467Y0013215D02*
X0138467Y0014082D01*
X0138033Y0014516D01*
X0136732Y0014516D01*
X0136732Y0011914D01*
X0136732Y0010676D02*
X0138033Y0010676D01*
X0138467Y0010242D01*
X0138467Y0009375D01*
X0138033Y0008941D01*
X0136732Y0008941D01*
X0137599Y0008941D02*
X0138467Y0008074D01*
X0139678Y0008507D02*
X0140112Y0008074D01*
X0140979Y0008074D01*
X0141413Y0008507D01*
X0141413Y0008941D01*
X0140979Y0009375D01*
X0140112Y0009375D01*
X0139678Y0009809D01*
X0139678Y0010242D01*
X0140112Y0010676D01*
X0140979Y0010676D01*
X0141413Y0010242D01*
X0136732Y0010676D02*
X0136732Y0008074D01*
X0135520Y0008074D02*
X0133785Y0010676D01*
X0132573Y0010676D02*
X0130839Y0008074D01*
X0129627Y0008507D02*
X0129193Y0008074D01*
X0128326Y0008074D01*
X0127892Y0008507D01*
X0128326Y0009375D02*
X0129193Y0009375D01*
X0129627Y0008941D01*
X0129627Y0008507D01*
X0128326Y0009375D02*
X0127892Y0009809D01*
X0127892Y0010242D01*
X0128326Y0010676D01*
X0129193Y0010676D01*
X0129627Y0010242D01*
X0129193Y0011914D02*
X0128326Y0011914D01*
X0127892Y0012347D01*
X0128326Y0013215D02*
X0129193Y0013215D01*
X0129627Y0012781D01*
X0129627Y0012347D01*
X0129193Y0011914D01*
X0128326Y0013215D02*
X0127892Y0013649D01*
X0127892Y0014082D01*
X0128326Y0014516D01*
X0129193Y0014516D01*
X0129627Y0014082D01*
X0130839Y0011914D02*
X0132573Y0014516D01*
X0133785Y0014516D02*
X0135086Y0014516D01*
X0135520Y0014082D01*
X0135520Y0012347D01*
X0135086Y0011914D01*
X0133785Y0011914D01*
X0133785Y0014516D01*
X0135520Y0010676D02*
X0133785Y0008074D01*
X0126680Y0008507D02*
X0126247Y0008074D01*
X0125379Y0008074D01*
X0124946Y0008507D01*
X0124946Y0010242D01*
X0125379Y0010676D01*
X0126247Y0010676D01*
X0126680Y0010242D01*
X0126247Y0011914D02*
X0125379Y0011914D01*
X0124946Y0012347D01*
X0124946Y0014082D01*
X0125379Y0014516D01*
X0126247Y0014516D01*
X0126680Y0014082D01*
X0126680Y0012347D02*
X0126247Y0011914D01*
X0123734Y0012347D02*
X0123734Y0014082D01*
X0123300Y0014516D01*
X0121999Y0014516D01*
X0121999Y0011914D01*
X0123300Y0011914D01*
X0123734Y0012347D01*
X0123734Y0010676D02*
X0121999Y0008074D01*
X0123734Y0008074D02*
X0121999Y0010676D01*
X0120787Y0011914D02*
X0119053Y0014516D01*
X0120787Y0014516D02*
X0119053Y0011914D01*
X0119390Y0024564D02*
X0117655Y0024564D01*
X0118523Y0024564D02*
X0118523Y0027166D01*
X0117655Y0026299D01*
X0120602Y0026732D02*
X0121035Y0027166D01*
X0121903Y0027166D01*
X0122336Y0026732D01*
X0120602Y0024997D01*
X0121035Y0024564D01*
X0121903Y0024564D01*
X0122336Y0024997D01*
X0122336Y0026732D01*
X0123548Y0026732D02*
X0123982Y0027166D01*
X0124849Y0027166D01*
X0125283Y0026732D01*
X0125283Y0026299D01*
X0124849Y0025865D01*
X0125283Y0025431D01*
X0125283Y0024997D01*
X0124849Y0024564D01*
X0123982Y0024564D01*
X0123548Y0024997D01*
X0124416Y0025865D02*
X0124849Y0025865D01*
X0126495Y0025431D02*
X0127796Y0025431D01*
X0128229Y0025865D01*
X0128229Y0026732D01*
X0127796Y0027166D01*
X0126495Y0027166D01*
X0126495Y0024564D01*
X0127362Y0025431D02*
X0128229Y0024564D01*
X0120602Y0024997D02*
X0120602Y0026732D01*
X0120549Y0034164D02*
X0120116Y0034597D01*
X0121850Y0036332D01*
X0121850Y0034597D01*
X0121417Y0034164D01*
X0120549Y0034164D01*
X0120116Y0034597D02*
X0120116Y0036332D01*
X0120549Y0036766D01*
X0121417Y0036766D01*
X0121850Y0036332D01*
X0123062Y0036332D02*
X0123496Y0036766D01*
X0124363Y0036766D01*
X0124797Y0036332D01*
X0124797Y0035899D01*
X0124363Y0035465D01*
X0124797Y0035031D01*
X0124797Y0034597D01*
X0124363Y0034164D01*
X0123496Y0034164D01*
X0123062Y0034597D01*
X0123929Y0035465D02*
X0124363Y0035465D01*
X0126009Y0035031D02*
X0127310Y0035031D01*
X0127743Y0035465D01*
X0127743Y0036332D01*
X0127310Y0036766D01*
X0126009Y0036766D01*
X0126009Y0034164D01*
X0126876Y0035031D02*
X0127743Y0034164D01*
X0118904Y0034164D02*
X0117169Y0034164D01*
X0118036Y0034164D02*
X0118036Y0036766D01*
X0117169Y0035899D01*
X0117755Y0045014D02*
X0119490Y0045014D01*
X0118623Y0045014D02*
X0118623Y0047616D01*
X0117755Y0046749D01*
X0120702Y0047182D02*
X0121135Y0047616D01*
X0122003Y0047616D01*
X0122436Y0047182D01*
X0120702Y0045447D01*
X0121135Y0045014D01*
X0122003Y0045014D01*
X0122436Y0045447D01*
X0122436Y0047182D01*
X0123648Y0047182D02*
X0124082Y0047616D01*
X0124949Y0047616D01*
X0125383Y0047182D01*
X0125383Y0046749D01*
X0124949Y0046315D01*
X0125383Y0045881D01*
X0125383Y0045447D01*
X0124949Y0045014D01*
X0124082Y0045014D01*
X0123648Y0045447D01*
X0124516Y0046315D02*
X0124949Y0046315D01*
X0126595Y0045881D02*
X0127896Y0045881D01*
X0128329Y0046315D01*
X0128329Y0047182D01*
X0127896Y0047616D01*
X0126595Y0047616D01*
X0126595Y0045014D01*
X0127462Y0045881D02*
X0128329Y0045014D01*
X0120702Y0045447D02*
X0120702Y0047182D01*
X0112879Y0055147D02*
X0112446Y0054714D01*
X0111578Y0054714D01*
X0111145Y0055147D01*
X0111145Y0056882D01*
X0111578Y0057316D01*
X0112446Y0057316D01*
X0112879Y0056882D01*
X0109933Y0056015D02*
X0108198Y0056015D01*
X0109499Y0057316D01*
X0109499Y0054714D01*
X0106986Y0055147D02*
X0106553Y0054714D01*
X0105685Y0054714D01*
X0105252Y0055147D01*
X0106986Y0056882D01*
X0106986Y0055147D01*
X0105252Y0055147D02*
X0105252Y0056882D01*
X0105685Y0057316D01*
X0106553Y0057316D01*
X0106986Y0056882D01*
X0104040Y0054714D02*
X0102305Y0054714D01*
X0103173Y0054714D02*
X0103173Y0057316D01*
X0102305Y0056449D01*
X0101903Y0061264D02*
X0101035Y0061264D01*
X0100602Y0061697D01*
X0102336Y0063432D01*
X0102336Y0061697D01*
X0101903Y0061264D01*
X0100602Y0061697D02*
X0100602Y0063432D01*
X0101035Y0063866D01*
X0101903Y0063866D01*
X0102336Y0063432D01*
X0103548Y0062565D02*
X0105283Y0062565D01*
X0106495Y0062131D02*
X0107796Y0062131D01*
X0108229Y0062565D01*
X0108229Y0063432D01*
X0107796Y0063866D01*
X0106495Y0063866D01*
X0106495Y0061264D01*
X0107362Y0062131D02*
X0108229Y0061264D01*
X0104849Y0061264D02*
X0104849Y0063866D01*
X0103548Y0062565D01*
X0099390Y0061264D02*
X0097655Y0061264D01*
X0098523Y0061264D02*
X0098523Y0063866D01*
X0097655Y0062999D01*
X0086729Y0055182D02*
X0086729Y0054315D01*
X0086296Y0053881D01*
X0084995Y0053881D01*
X0085862Y0053881D02*
X0086729Y0053014D01*
X0084995Y0053014D02*
X0084995Y0055616D01*
X0086296Y0055616D01*
X0086729Y0055182D01*
X0083783Y0055616D02*
X0082048Y0055616D01*
X0082048Y0054315D01*
X0082916Y0054749D01*
X0083349Y0054749D01*
X0083783Y0054315D01*
X0083783Y0053447D01*
X0083349Y0053014D01*
X0082482Y0053014D01*
X0082048Y0053447D01*
X0080836Y0053447D02*
X0080403Y0053014D01*
X0079535Y0053014D01*
X0079102Y0053447D01*
X0080836Y0055182D01*
X0080836Y0053447D01*
X0079102Y0053447D02*
X0079102Y0055182D01*
X0079535Y0055616D01*
X0080403Y0055616D01*
X0080836Y0055182D01*
X0077890Y0053014D02*
X0076155Y0053014D01*
X0077023Y0053014D02*
X0077023Y0055616D01*
X0076155Y0054749D01*
X0081605Y0046764D02*
X0058605Y0046764D01*
X0058435Y0046762D01*
X0058264Y0046756D01*
X0058094Y0046745D01*
X0057924Y0046731D01*
X0057755Y0046712D01*
X0057586Y0046689D01*
X0057417Y0046663D01*
X0057250Y0046632D01*
X0057083Y0046597D01*
X0056917Y0046557D01*
X0056752Y0046514D01*
X0056588Y0046467D01*
X0056426Y0046416D01*
X0056264Y0046361D01*
X0056104Y0046302D01*
X0055946Y0046239D01*
X0055789Y0046173D01*
X0055634Y0046102D01*
X0055480Y0046028D01*
X0055329Y0045950D01*
X0055179Y0045868D01*
X0055031Y0045783D01*
X0054886Y0045694D01*
X0054743Y0045602D01*
X0054602Y0045506D01*
X0054463Y0045407D01*
X0054327Y0045304D01*
X0054193Y0045199D01*
X0054062Y0045090D01*
X0053934Y0044977D01*
X0053808Y0044862D01*
X0053685Y0044744D01*
X0053566Y0044623D01*
X0053449Y0044498D01*
X0053335Y0044371D01*
X0053224Y0044242D01*
X0053117Y0044109D01*
X0053013Y0043974D01*
X0052912Y0043837D01*
X0052814Y0043697D01*
X0052720Y0043555D01*
X0052630Y0043411D01*
X0052543Y0043264D01*
X0052459Y0043115D01*
X0052380Y0042965D01*
X0052304Y0042812D01*
X0052231Y0042658D01*
X0052163Y0042502D01*
X0052098Y0042344D01*
X0052037Y0042185D01*
X0051980Y0042024D01*
X0051927Y0041862D01*
X0051878Y0041699D01*
X0051833Y0041535D01*
X0051792Y0041369D01*
X0051754Y0041203D01*
X0051721Y0041035D01*
X0051693Y0040867D01*
X0051668Y0040699D01*
X0051647Y0040530D01*
X0051630Y0040360D01*
X0051618Y0040190D01*
X0051610Y0040020D01*
X0051606Y0039849D01*
X0051606Y0039679D01*
X0051610Y0039508D01*
X0051618Y0039338D01*
X0051630Y0039168D01*
X0051647Y0038998D01*
X0051668Y0038829D01*
X0051693Y0038661D01*
X0051721Y0038493D01*
X0051754Y0038325D01*
X0051792Y0038159D01*
X0051833Y0037993D01*
X0051878Y0037829D01*
X0051927Y0037666D01*
X0051980Y0037504D01*
X0052037Y0037343D01*
X0052098Y0037184D01*
X0052163Y0037026D01*
X0052231Y0036870D01*
X0052304Y0036716D01*
X0052380Y0036563D01*
X0052459Y0036413D01*
X0052543Y0036264D01*
X0052630Y0036117D01*
X0052720Y0035973D01*
X0052814Y0035831D01*
X0052912Y0035691D01*
X0053013Y0035554D01*
X0053117Y0035419D01*
X0053224Y0035286D01*
X0053335Y0035157D01*
X0053449Y0035030D01*
X0053566Y0034905D01*
X0053685Y0034784D01*
X0053808Y0034666D01*
X0053934Y0034551D01*
X0054062Y0034438D01*
X0054193Y0034329D01*
X0054327Y0034224D01*
X0054463Y0034121D01*
X0054602Y0034022D01*
X0054743Y0033926D01*
X0054886Y0033834D01*
X0055031Y0033745D01*
X0055179Y0033660D01*
X0055329Y0033578D01*
X0055480Y0033500D01*
X0055634Y0033426D01*
X0055789Y0033355D01*
X0055946Y0033289D01*
X0056104Y0033226D01*
X0056264Y0033167D01*
X0056426Y0033112D01*
X0056588Y0033061D01*
X0056752Y0033014D01*
X0056917Y0032971D01*
X0057083Y0032931D01*
X0057250Y0032896D01*
X0057417Y0032865D01*
X0057586Y0032839D01*
X0057755Y0032816D01*
X0057924Y0032797D01*
X0058094Y0032783D01*
X0058264Y0032772D01*
X0058435Y0032766D01*
X0058605Y0032764D01*
X0081605Y0032764D01*
X0081775Y0032766D01*
X0081946Y0032772D01*
X0082116Y0032783D01*
X0082286Y0032797D01*
X0082455Y0032816D01*
X0082624Y0032839D01*
X0082793Y0032865D01*
X0082960Y0032896D01*
X0083127Y0032931D01*
X0083293Y0032971D01*
X0083458Y0033014D01*
X0083622Y0033061D01*
X0083784Y0033112D01*
X0083946Y0033167D01*
X0084106Y0033226D01*
X0084264Y0033289D01*
X0084421Y0033355D01*
X0084576Y0033426D01*
X0084730Y0033500D01*
X0084881Y0033578D01*
X0085031Y0033660D01*
X0085179Y0033745D01*
X0085324Y0033834D01*
X0085467Y0033926D01*
X0085608Y0034022D01*
X0085747Y0034121D01*
X0085883Y0034224D01*
X0086017Y0034329D01*
X0086148Y0034438D01*
X0086276Y0034551D01*
X0086402Y0034666D01*
X0086525Y0034784D01*
X0086644Y0034905D01*
X0086761Y0035030D01*
X0086875Y0035157D01*
X0086986Y0035286D01*
X0087093Y0035419D01*
X0087197Y0035554D01*
X0087298Y0035691D01*
X0087396Y0035831D01*
X0087490Y0035973D01*
X0087580Y0036117D01*
X0087667Y0036264D01*
X0087751Y0036413D01*
X0087830Y0036563D01*
X0087906Y0036716D01*
X0087979Y0036870D01*
X0088047Y0037026D01*
X0088112Y0037184D01*
X0088173Y0037343D01*
X0088230Y0037504D01*
X0088283Y0037666D01*
X0088332Y0037829D01*
X0088377Y0037993D01*
X0088418Y0038159D01*
X0088456Y0038325D01*
X0088489Y0038493D01*
X0088517Y0038661D01*
X0088542Y0038829D01*
X0088563Y0038998D01*
X0088580Y0039168D01*
X0088592Y0039338D01*
X0088600Y0039508D01*
X0088604Y0039679D01*
X0088604Y0039849D01*
X0088600Y0040020D01*
X0088592Y0040190D01*
X0088580Y0040360D01*
X0088563Y0040530D01*
X0088542Y0040699D01*
X0088517Y0040867D01*
X0088489Y0041035D01*
X0088456Y0041203D01*
X0088418Y0041369D01*
X0088377Y0041535D01*
X0088332Y0041699D01*
X0088283Y0041862D01*
X0088230Y0042024D01*
X0088173Y0042185D01*
X0088112Y0042344D01*
X0088047Y0042502D01*
X0087979Y0042658D01*
X0087906Y0042812D01*
X0087830Y0042965D01*
X0087751Y0043115D01*
X0087667Y0043264D01*
X0087580Y0043411D01*
X0087490Y0043555D01*
X0087396Y0043697D01*
X0087298Y0043837D01*
X0087197Y0043974D01*
X0087093Y0044109D01*
X0086986Y0044242D01*
X0086875Y0044371D01*
X0086761Y0044498D01*
X0086644Y0044623D01*
X0086525Y0044744D01*
X0086402Y0044862D01*
X0086276Y0044977D01*
X0086148Y0045090D01*
X0086017Y0045199D01*
X0085883Y0045304D01*
X0085747Y0045407D01*
X0085608Y0045506D01*
X0085467Y0045602D01*
X0085324Y0045694D01*
X0085179Y0045783D01*
X0085031Y0045868D01*
X0084881Y0045950D01*
X0084730Y0046028D01*
X0084576Y0046102D01*
X0084421Y0046173D01*
X0084264Y0046239D01*
X0084106Y0046302D01*
X0083946Y0046361D01*
X0083784Y0046416D01*
X0083622Y0046467D01*
X0083458Y0046514D01*
X0083293Y0046557D01*
X0083127Y0046597D01*
X0082960Y0046632D01*
X0082793Y0046663D01*
X0082624Y0046689D01*
X0082455Y0046712D01*
X0082286Y0046731D01*
X0082116Y0046745D01*
X0081946Y0046756D01*
X0081775Y0046762D01*
X0081605Y0046764D01*
X0075105Y0039764D02*
X0072605Y0039764D01*
X0072605Y0036264D01*
X0071105Y0036264D02*
X0069105Y0036264D01*
X0069105Y0043264D01*
X0071105Y0043264D01*
X0071105Y0036264D01*
X0072605Y0039764D02*
X0072605Y0043264D01*
X0067605Y0043264D02*
X0067605Y0039764D01*
X0065105Y0039764D01*
X0067605Y0039764D02*
X0067605Y0036264D01*
X0067295Y0021966D02*
X0069029Y0021966D01*
X0068162Y0020665D02*
X0067295Y0020665D01*
X0066083Y0020665D02*
X0066083Y0019797D01*
X0065649Y0019364D01*
X0064348Y0019364D01*
X0064348Y0018496D02*
X0064348Y0021099D01*
X0065649Y0021099D01*
X0066083Y0020665D01*
X0067295Y0019364D02*
X0067295Y0021966D01*
X0063136Y0021532D02*
X0063136Y0021099D01*
X0062703Y0020665D01*
X0061835Y0020665D01*
X0061402Y0021099D01*
X0061402Y0021532D01*
X0061835Y0021966D01*
X0062703Y0021966D01*
X0063136Y0021532D01*
X0062703Y0020665D02*
X0063136Y0020231D01*
X0063136Y0019797D01*
X0062703Y0019364D01*
X0061835Y0019364D01*
X0061402Y0019797D01*
X0061402Y0020231D01*
X0061835Y0020665D01*
X0060190Y0019364D02*
X0058455Y0019364D01*
X0059323Y0019364D02*
X0059323Y0021966D01*
X0058455Y0021099D01*
X0058750Y0011466D02*
X0057882Y0010599D01*
X0058750Y0011466D02*
X0058750Y0008864D01*
X0059617Y0008864D02*
X0057882Y0008864D01*
X0060829Y0008864D02*
X0062564Y0010599D01*
X0062564Y0011032D01*
X0062130Y0011466D01*
X0061263Y0011466D01*
X0060829Y0011032D01*
X0060829Y0008864D02*
X0062564Y0008864D01*
X0063775Y0008864D02*
X0064209Y0008864D01*
X0064209Y0009297D01*
X0063775Y0009297D01*
X0063775Y0008864D01*
X0065249Y0008864D02*
X0066984Y0010599D01*
X0066984Y0011032D01*
X0066550Y0011466D01*
X0065682Y0011466D01*
X0065249Y0011032D01*
X0065249Y0008864D02*
X0066984Y0008864D01*
X0068195Y0009297D02*
X0068195Y0009731D01*
X0068629Y0010165D01*
X0069496Y0010165D01*
X0069930Y0009731D01*
X0069930Y0009297D01*
X0069496Y0008864D01*
X0068629Y0008864D01*
X0068195Y0009297D01*
X0068629Y0010165D02*
X0068195Y0010599D01*
X0068195Y0011032D01*
X0068629Y0011466D01*
X0069496Y0011466D01*
X0069930Y0011032D01*
X0069930Y0010599D01*
X0069496Y0010165D01*
X0071142Y0010599D02*
X0071142Y0011032D01*
X0071575Y0011466D01*
X0072443Y0011466D01*
X0072877Y0011032D01*
X0072877Y0010599D01*
X0072443Y0010165D01*
X0071575Y0010165D01*
X0071142Y0010599D01*
X0071575Y0010165D02*
X0071142Y0009731D01*
X0071142Y0009297D01*
X0071575Y0008864D01*
X0072443Y0008864D01*
X0072877Y0009297D01*
X0072877Y0009731D01*
X0072443Y0010165D01*
X0074088Y0011466D02*
X0074956Y0010599D01*
X0075823Y0011466D01*
X0075823Y0008864D01*
X0077035Y0008864D02*
X0077035Y0011466D01*
X0077035Y0010165D02*
X0078770Y0010165D01*
X0079981Y0010599D02*
X0081716Y0010599D01*
X0079981Y0008864D01*
X0081716Y0008864D01*
X0078770Y0008864D02*
X0078770Y0011466D01*
X0074088Y0011466D02*
X0074088Y0008864D01*
X0073986Y0019064D02*
X0073986Y0021666D01*
X0073119Y0020799D01*
X0073119Y0019064D02*
X0074854Y0019064D01*
X0076066Y0019497D02*
X0076066Y0019931D01*
X0076499Y0020365D01*
X0077367Y0020365D01*
X0077800Y0019931D01*
X0077800Y0019497D01*
X0077367Y0019064D01*
X0076499Y0019064D01*
X0076066Y0019497D01*
X0076499Y0020365D02*
X0076066Y0020799D01*
X0076066Y0021232D01*
X0076499Y0021666D01*
X0077367Y0021666D01*
X0077800Y0021232D01*
X0077800Y0020799D01*
X0077367Y0020365D01*
X0079012Y0020799D02*
X0080313Y0020799D01*
X0080747Y0020365D01*
X0080747Y0019497D01*
X0080313Y0019064D01*
X0079012Y0019064D01*
X0079012Y0018196D02*
X0079012Y0020799D01*
X0081959Y0020365D02*
X0082826Y0020365D01*
X0081959Y0019064D02*
X0081959Y0021666D01*
X0083693Y0021666D01*
X0095455Y0024364D02*
X0097190Y0024364D01*
X0096323Y0024364D02*
X0096323Y0026966D01*
X0095455Y0026099D01*
X0098402Y0026532D02*
X0098835Y0026966D01*
X0099703Y0026966D01*
X0100136Y0026532D01*
X0098402Y0024797D01*
X0098835Y0024364D01*
X0099703Y0024364D01*
X0100136Y0024797D01*
X0100136Y0026532D01*
X0101348Y0026532D02*
X0101782Y0026966D01*
X0102649Y0026966D01*
X0103083Y0026532D01*
X0103083Y0026099D01*
X0102649Y0025665D01*
X0103083Y0025231D01*
X0103083Y0024797D01*
X0102649Y0024364D01*
X0101782Y0024364D01*
X0101348Y0024797D01*
X0102216Y0025665D02*
X0102649Y0025665D01*
X0104295Y0025231D02*
X0105596Y0025231D01*
X0106029Y0025665D01*
X0106029Y0026532D01*
X0105596Y0026966D01*
X0104295Y0026966D01*
X0104295Y0024364D01*
X0105162Y0025231D02*
X0106029Y0024364D01*
X0098402Y0024797D02*
X0098402Y0026532D01*
X0098535Y0034464D02*
X0098102Y0034897D01*
X0099836Y0036632D01*
X0099836Y0034897D01*
X0099403Y0034464D01*
X0098535Y0034464D01*
X0098102Y0034897D02*
X0098102Y0036632D01*
X0098535Y0037066D01*
X0099403Y0037066D01*
X0099836Y0036632D01*
X0101048Y0036632D02*
X0101482Y0037066D01*
X0102349Y0037066D01*
X0102783Y0036632D01*
X0102783Y0036199D01*
X0102349Y0035765D01*
X0102783Y0035331D01*
X0102783Y0034897D01*
X0102349Y0034464D01*
X0101482Y0034464D01*
X0101048Y0034897D01*
X0101916Y0035765D02*
X0102349Y0035765D01*
X0103995Y0035331D02*
X0105296Y0035331D01*
X0105729Y0035765D01*
X0105729Y0036632D01*
X0105296Y0037066D01*
X0103995Y0037066D01*
X0103995Y0034464D01*
X0104862Y0035331D02*
X0105729Y0034464D01*
X0096890Y0034464D02*
X0095155Y0034464D01*
X0096023Y0034464D02*
X0096023Y0037066D01*
X0095155Y0036199D01*
X0055793Y0059147D02*
X0055360Y0058714D01*
X0054492Y0058714D01*
X0054059Y0059147D01*
X0054059Y0060882D01*
X0054492Y0061316D01*
X0055360Y0061316D01*
X0055793Y0060882D01*
X0052847Y0060015D02*
X0051112Y0060015D01*
X0052413Y0061316D01*
X0052413Y0058714D01*
X0049900Y0059147D02*
X0049467Y0058714D01*
X0048599Y0058714D01*
X0048166Y0059147D01*
X0049900Y0060882D01*
X0049900Y0059147D01*
X0048166Y0059147D02*
X0048166Y0060882D01*
X0048599Y0061316D01*
X0049467Y0061316D01*
X0049900Y0060882D01*
X0046954Y0058714D02*
X0045219Y0058714D01*
X0046086Y0058714D02*
X0046086Y0061316D01*
X0045219Y0060449D01*
X0042610Y0061132D02*
X0040875Y0059397D01*
X0041309Y0058964D01*
X0042176Y0058964D01*
X0042610Y0059397D01*
X0042610Y0061132D01*
X0042176Y0061566D01*
X0041309Y0061566D01*
X0040875Y0061132D01*
X0040875Y0059397D01*
X0039663Y0059397D02*
X0039663Y0059831D01*
X0039229Y0060265D01*
X0037928Y0060265D01*
X0037928Y0059397D01*
X0038362Y0058964D01*
X0039229Y0058964D01*
X0039663Y0059397D01*
X0038796Y0061132D02*
X0037928Y0060265D01*
X0038796Y0061132D02*
X0039663Y0061566D01*
X0036717Y0061566D02*
X0036717Y0059831D01*
X0035849Y0058964D01*
X0034982Y0059831D01*
X0034982Y0061566D01*
X0033770Y0060699D02*
X0032903Y0061566D01*
X0032035Y0060699D01*
X0032035Y0058964D01*
X0030824Y0059397D02*
X0030390Y0058964D01*
X0029089Y0058964D01*
X0029089Y0061566D01*
X0030390Y0061566D01*
X0030824Y0061132D01*
X0030824Y0060699D01*
X0030390Y0060265D01*
X0029089Y0060265D01*
X0030390Y0060265D02*
X0030824Y0059831D01*
X0030824Y0059397D01*
X0032035Y0060265D02*
X0033770Y0060265D01*
X0033770Y0060699D02*
X0033770Y0058964D01*
X0030755Y0055714D02*
X0030755Y0049714D01*
X0030753Y0049654D01*
X0030748Y0049593D01*
X0030739Y0049534D01*
X0030726Y0049475D01*
X0030710Y0049416D01*
X0030690Y0049359D01*
X0030667Y0049304D01*
X0030640Y0049249D01*
X0030611Y0049197D01*
X0030578Y0049146D01*
X0030542Y0049097D01*
X0030504Y0049051D01*
X0030462Y0049007D01*
X0030418Y0048965D01*
X0030372Y0048927D01*
X0030323Y0048891D01*
X0030272Y0048858D01*
X0030220Y0048829D01*
X0030165Y0048802D01*
X0030110Y0048779D01*
X0030053Y0048759D01*
X0029994Y0048743D01*
X0029935Y0048730D01*
X0029876Y0048721D01*
X0029815Y0048716D01*
X0029755Y0048714D01*
X0018755Y0048714D01*
X0018695Y0048716D01*
X0018634Y0048721D01*
X0018575Y0048730D01*
X0018516Y0048743D01*
X0018457Y0048759D01*
X0018400Y0048779D01*
X0018345Y0048802D01*
X0018290Y0048829D01*
X0018238Y0048858D01*
X0018187Y0048891D01*
X0018138Y0048927D01*
X0018092Y0048965D01*
X0018048Y0049007D01*
X0018006Y0049051D01*
X0017968Y0049097D01*
X0017932Y0049146D01*
X0017899Y0049197D01*
X0017870Y0049249D01*
X0017843Y0049304D01*
X0017820Y0049359D01*
X0017800Y0049416D01*
X0017784Y0049475D01*
X0017771Y0049534D01*
X0017762Y0049593D01*
X0017757Y0049654D01*
X0017755Y0049714D01*
X0017755Y0055714D01*
X0017757Y0055774D01*
X0017762Y0055835D01*
X0017771Y0055894D01*
X0017784Y0055953D01*
X0017800Y0056012D01*
X0017820Y0056069D01*
X0017843Y0056124D01*
X0017870Y0056179D01*
X0017899Y0056231D01*
X0017932Y0056282D01*
X0017968Y0056331D01*
X0018006Y0056377D01*
X0018048Y0056421D01*
X0018092Y0056463D01*
X0018138Y0056501D01*
X0018187Y0056537D01*
X0018238Y0056570D01*
X0018290Y0056599D01*
X0018345Y0056626D01*
X0018400Y0056649D01*
X0018457Y0056669D01*
X0018516Y0056685D01*
X0018575Y0056698D01*
X0018634Y0056707D01*
X0018695Y0056712D01*
X0018755Y0056714D01*
X0029755Y0056714D01*
X0029815Y0056712D01*
X0029876Y0056707D01*
X0029935Y0056698D01*
X0029994Y0056685D01*
X0030053Y0056669D01*
X0030110Y0056649D01*
X0030165Y0056626D01*
X0030220Y0056599D01*
X0030272Y0056570D01*
X0030323Y0056537D01*
X0030372Y0056501D01*
X0030418Y0056463D01*
X0030462Y0056421D01*
X0030504Y0056377D01*
X0030542Y0056331D01*
X0030578Y0056282D01*
X0030611Y0056231D01*
X0030640Y0056179D01*
X0030667Y0056124D01*
X0030690Y0056069D01*
X0030710Y0056012D01*
X0030726Y0055953D01*
X0030739Y0055894D01*
X0030748Y0055835D01*
X0030753Y0055774D01*
X0030755Y0055714D01*
X0029959Y0065764D02*
X0029959Y0068366D01*
X0031260Y0068366D01*
X0031693Y0067932D01*
X0031693Y0067065D01*
X0031260Y0066631D01*
X0029959Y0066631D01*
X0030826Y0066631D02*
X0031693Y0065764D01*
X0028747Y0067065D02*
X0027012Y0067065D01*
X0028313Y0068366D01*
X0028313Y0065764D01*
X0025800Y0066197D02*
X0025800Y0067932D01*
X0024066Y0066197D01*
X0024499Y0065764D01*
X0025367Y0065764D01*
X0025800Y0066197D01*
X0024066Y0066197D02*
X0024066Y0067932D01*
X0024499Y0068366D01*
X0025367Y0068366D01*
X0025800Y0067932D01*
X0022854Y0065764D02*
X0021119Y0065764D01*
X0021986Y0065764D02*
X0021986Y0068366D01*
X0021119Y0067499D01*
X0020919Y0071714D02*
X0022654Y0071714D01*
X0021786Y0071714D02*
X0021786Y0074316D01*
X0020919Y0073449D01*
X0023866Y0073882D02*
X0023866Y0072147D01*
X0025600Y0073882D01*
X0025600Y0072147D01*
X0025167Y0071714D01*
X0024299Y0071714D01*
X0023866Y0072147D01*
X0023866Y0073882D02*
X0024299Y0074316D01*
X0025167Y0074316D01*
X0025600Y0073882D01*
X0026812Y0073015D02*
X0028547Y0073015D01*
X0028113Y0074316D02*
X0026812Y0073015D01*
X0028113Y0071714D02*
X0028113Y0074316D01*
X0029759Y0073882D02*
X0029759Y0072147D01*
X0030192Y0071714D01*
X0031060Y0071714D01*
X0031493Y0072147D01*
X0031493Y0073882D02*
X0031060Y0074316D01*
X0030192Y0074316D01*
X0029759Y0073882D01*
X0030392Y0077214D02*
X0031260Y0077214D01*
X0031693Y0077647D01*
X0030392Y0077214D02*
X0029959Y0077647D01*
X0029959Y0079382D01*
X0030392Y0079816D01*
X0031260Y0079816D01*
X0031693Y0079382D01*
X0028747Y0078515D02*
X0027012Y0078515D01*
X0028313Y0079816D01*
X0028313Y0077214D01*
X0025800Y0077647D02*
X0025800Y0079382D01*
X0024066Y0077647D01*
X0024499Y0077214D01*
X0025367Y0077214D01*
X0025800Y0077647D01*
X0024066Y0077647D02*
X0024066Y0079382D01*
X0024499Y0079816D01*
X0025367Y0079816D01*
X0025800Y0079382D01*
X0025167Y0082614D02*
X0024299Y0082614D01*
X0023866Y0083047D01*
X0025600Y0084782D01*
X0025600Y0083047D01*
X0025167Y0082614D01*
X0023866Y0083047D02*
X0023866Y0084782D01*
X0024299Y0085216D01*
X0025167Y0085216D01*
X0025600Y0084782D01*
X0026812Y0083915D02*
X0028113Y0085216D01*
X0028113Y0082614D01*
X0028547Y0083915D02*
X0026812Y0083915D01*
X0029759Y0084782D02*
X0030192Y0085216D01*
X0031060Y0085216D01*
X0031493Y0084782D01*
X0029759Y0084782D02*
X0029759Y0083047D01*
X0030192Y0082614D01*
X0031060Y0082614D01*
X0031493Y0083047D01*
X0022654Y0082614D02*
X0020919Y0082614D01*
X0021786Y0082614D02*
X0021786Y0085216D01*
X0020919Y0084349D01*
X0021986Y0079816D02*
X0021986Y0077214D01*
X0021119Y0077214D02*
X0022854Y0077214D01*
X0021119Y0078949D02*
X0021986Y0079816D01*
X0040916Y0091114D02*
X0040916Y0092849D01*
X0041783Y0093716D01*
X0042651Y0092849D01*
X0042651Y0091114D01*
X0042651Y0092415D02*
X0040916Y0092415D01*
X0040902Y0095283D02*
X0046808Y0095283D01*
X0046871Y0095291D01*
X0046933Y0095302D01*
X0046995Y0095317D01*
X0047055Y0095335D01*
X0047115Y0095357D01*
X0047173Y0095382D01*
X0047229Y0095411D01*
X0047284Y0095442D01*
X0047337Y0095477D01*
X0047387Y0095515D01*
X0047436Y0095556D01*
X0047481Y0095600D01*
X0047525Y0095646D01*
X0047565Y0095694D01*
X0047603Y0095745D01*
X0047637Y0095798D01*
X0047669Y0095853D01*
X0047697Y0095910D01*
X0047722Y0095968D01*
X0047743Y0096027D01*
X0047761Y0096088D01*
X0047775Y0096150D01*
X0047786Y0096212D01*
X0047793Y0096275D01*
X0047797Y0096338D01*
X0047796Y0096401D01*
X0047792Y0096464D01*
X0047792Y0102763D01*
X0047792Y0102764D02*
X0047795Y0102827D01*
X0047796Y0102890D01*
X0047792Y0102953D01*
X0047785Y0103016D01*
X0047774Y0103078D01*
X0047760Y0103140D01*
X0047742Y0103200D01*
X0047721Y0103260D01*
X0047696Y0103318D01*
X0047668Y0103375D01*
X0047636Y0103430D01*
X0047602Y0103482D01*
X0047564Y0103533D01*
X0047523Y0103582D01*
X0047480Y0103628D01*
X0047434Y0103672D01*
X0047386Y0103712D01*
X0047335Y0103750D01*
X0047283Y0103785D01*
X0047228Y0103817D01*
X0047172Y0103846D01*
X0047114Y0103871D01*
X0047054Y0103893D01*
X0046994Y0103911D01*
X0046932Y0103926D01*
X0046870Y0103937D01*
X0046807Y0103945D01*
X0046808Y0103944D02*
X0040902Y0103944D01*
X0040903Y0103945D02*
X0040837Y0103937D01*
X0040773Y0103925D01*
X0040709Y0103909D01*
X0040646Y0103890D01*
X0040585Y0103866D01*
X0040525Y0103839D01*
X0040467Y0103809D01*
X0040411Y0103775D01*
X0040357Y0103738D01*
X0040305Y0103697D01*
X0040256Y0103653D01*
X0040209Y0103607D01*
X0040166Y0103558D01*
X0040125Y0103506D01*
X0040088Y0103452D01*
X0040054Y0103396D01*
X0040024Y0103338D01*
X0039997Y0103278D01*
X0039973Y0103217D01*
X0039954Y0103154D01*
X0039938Y0103090D01*
X0039926Y0103026D01*
X0039918Y0102960D01*
X0039914Y0102895D01*
X0039914Y0102829D01*
X0039918Y0102764D01*
X0039918Y0102763D02*
X0039918Y0096464D01*
X0039914Y0096399D01*
X0039914Y0096333D01*
X0039918Y0096268D01*
X0039926Y0096202D01*
X0039938Y0096138D01*
X0039954Y0096074D01*
X0039973Y0096011D01*
X0039997Y0095950D01*
X0040024Y0095890D01*
X0040054Y0095832D01*
X0040088Y0095776D01*
X0040125Y0095722D01*
X0040166Y0095670D01*
X0040209Y0095621D01*
X0040256Y0095575D01*
X0040305Y0095531D01*
X0040357Y0095490D01*
X0040411Y0095453D01*
X0040467Y0095419D01*
X0040525Y0095389D01*
X0040585Y0095362D01*
X0040646Y0095338D01*
X0040709Y0095319D01*
X0040773Y0095303D01*
X0040837Y0095291D01*
X0040903Y0095283D01*
X0043862Y0092415D02*
X0045597Y0092415D01*
X0046809Y0093282D02*
X0046809Y0091547D01*
X0047242Y0091114D01*
X0048110Y0091114D01*
X0048544Y0091547D01*
X0048544Y0092415D01*
X0047676Y0092415D01*
X0046809Y0093282D02*
X0047242Y0093716D01*
X0048110Y0093716D01*
X0048544Y0093282D01*
X0062592Y0081166D02*
X0062592Y0079431D01*
X0063460Y0078564D01*
X0064327Y0079431D01*
X0064327Y0081166D01*
X0065539Y0080732D02*
X0065539Y0080299D01*
X0065973Y0079865D01*
X0066840Y0079865D01*
X0067274Y0079431D01*
X0067274Y0078997D01*
X0066840Y0078564D01*
X0065973Y0078564D01*
X0065539Y0078997D01*
X0065539Y0080732D02*
X0065973Y0081166D01*
X0066840Y0081166D01*
X0067274Y0080732D01*
X0068485Y0080299D02*
X0069353Y0081166D01*
X0069353Y0078564D01*
X0070220Y0078564D02*
X0068485Y0078564D01*
X0071432Y0078997D02*
X0073167Y0080732D01*
X0073167Y0078997D01*
X0072733Y0078564D01*
X0071866Y0078564D01*
X0071432Y0078997D01*
X0071432Y0080732D01*
X0071866Y0081166D01*
X0072733Y0081166D01*
X0073167Y0080732D01*
X0074378Y0081166D02*
X0074378Y0079865D01*
X0075246Y0080299D01*
X0075679Y0080299D01*
X0076113Y0079865D01*
X0076113Y0078997D01*
X0075679Y0078564D01*
X0074812Y0078564D01*
X0074378Y0078997D01*
X0074378Y0081166D02*
X0076113Y0081166D01*
X0077325Y0080732D02*
X0077759Y0081166D01*
X0078626Y0081166D01*
X0079060Y0080732D01*
X0079060Y0080299D01*
X0078626Y0079865D01*
X0079060Y0079431D01*
X0079060Y0078997D01*
X0078626Y0078564D01*
X0077759Y0078564D01*
X0077325Y0078997D01*
X0078192Y0079865D02*
X0078626Y0079865D01*
X0080271Y0079865D02*
X0081573Y0079865D01*
X0082006Y0079431D01*
X0082006Y0078997D01*
X0081573Y0078564D01*
X0080271Y0078564D01*
X0080271Y0081166D01*
X0081573Y0081166D01*
X0082006Y0080732D01*
X0082006Y0080299D01*
X0081573Y0079865D01*
X0083319Y0091814D02*
X0085054Y0091814D01*
X0084186Y0091814D02*
X0084186Y0094416D01*
X0083319Y0093549D01*
X0083219Y0096314D02*
X0084954Y0096314D01*
X0084086Y0096314D02*
X0084086Y0098916D01*
X0083219Y0098049D01*
X0086166Y0098482D02*
X0086599Y0098916D01*
X0087467Y0098916D01*
X0087900Y0098482D01*
X0086166Y0096747D01*
X0086599Y0096314D01*
X0087467Y0096314D01*
X0087900Y0096747D01*
X0087900Y0098482D01*
X0089112Y0097615D02*
X0090847Y0097615D01*
X0090413Y0096314D02*
X0090413Y0098916D01*
X0089112Y0097615D01*
X0086166Y0098482D02*
X0086166Y0096747D01*
X0086699Y0094416D02*
X0087567Y0094416D01*
X0088000Y0093982D01*
X0086266Y0092247D01*
X0086699Y0091814D01*
X0087567Y0091814D01*
X0088000Y0092247D01*
X0088000Y0093982D01*
X0086699Y0094416D02*
X0086266Y0093982D01*
X0086266Y0092247D01*
X0089212Y0093115D02*
X0090947Y0093115D01*
X0092159Y0092681D02*
X0093460Y0092681D01*
X0093893Y0093115D01*
X0093893Y0093982D01*
X0093460Y0094416D01*
X0092159Y0094416D01*
X0092159Y0091814D01*
X0093026Y0092681D02*
X0093893Y0091814D01*
X0090513Y0091814D02*
X0090513Y0094416D01*
X0089212Y0093115D01*
X0092492Y0096314D02*
X0093360Y0096314D01*
X0093793Y0096747D01*
X0092492Y0096314D02*
X0092059Y0096747D01*
X0092059Y0098482D01*
X0092492Y0098916D01*
X0093360Y0098916D01*
X0093793Y0098482D01*
X0092476Y0105564D02*
X0093343Y0106431D01*
X0093343Y0108166D01*
X0091609Y0108166D02*
X0091609Y0106431D01*
X0092476Y0105564D01*
X0090397Y0105997D02*
X0089963Y0105564D01*
X0089096Y0105564D01*
X0088662Y0105997D01*
X0088662Y0106431D01*
X0089096Y0106865D01*
X0089963Y0106865D01*
X0090397Y0106431D01*
X0090397Y0105997D01*
X0089963Y0106865D02*
X0090397Y0107299D01*
X0090397Y0107732D01*
X0089963Y0108166D01*
X0089096Y0108166D01*
X0088662Y0107732D01*
X0088662Y0107299D01*
X0089096Y0106865D01*
X0087623Y0105997D02*
X0087623Y0105564D01*
X0087189Y0105564D01*
X0087189Y0105997D01*
X0087623Y0105997D01*
X0085977Y0105564D02*
X0084242Y0105564D01*
X0085977Y0107299D01*
X0085977Y0107732D01*
X0085543Y0108166D01*
X0084676Y0108166D01*
X0084242Y0107732D01*
X0092905Y0112964D02*
X0094640Y0112964D01*
X0093773Y0112964D02*
X0093773Y0115566D01*
X0092905Y0114699D01*
X0095852Y0115132D02*
X0095852Y0113397D01*
X0097586Y0115132D01*
X0097586Y0113397D01*
X0097153Y0112964D01*
X0096285Y0112964D01*
X0095852Y0113397D01*
X0095852Y0115132D02*
X0096285Y0115566D01*
X0097153Y0115566D01*
X0097586Y0115132D01*
X0098798Y0115132D02*
X0099232Y0115566D01*
X0100099Y0115566D01*
X0100533Y0115132D01*
X0100533Y0114699D01*
X0100099Y0114265D01*
X0100533Y0113831D01*
X0100533Y0113397D01*
X0100099Y0112964D01*
X0099232Y0112964D01*
X0098798Y0113397D01*
X0099666Y0114265D02*
X0100099Y0114265D01*
X0101745Y0115132D02*
X0101745Y0113397D01*
X0102178Y0112964D01*
X0103046Y0112964D01*
X0103479Y0113397D01*
X0103479Y0115132D02*
X0103046Y0115566D01*
X0102178Y0115566D01*
X0101745Y0115132D01*
X0105505Y0121214D02*
X0107240Y0122949D01*
X0107240Y0123382D01*
X0106806Y0123816D01*
X0105939Y0123816D01*
X0105505Y0123382D01*
X0105505Y0121214D02*
X0107240Y0121214D01*
X0108452Y0121647D02*
X0110186Y0123382D01*
X0110186Y0121647D01*
X0109753Y0121214D01*
X0108885Y0121214D01*
X0108452Y0121647D01*
X0108452Y0123382D01*
X0108885Y0123816D01*
X0109753Y0123816D01*
X0110186Y0123382D01*
X0111398Y0123382D02*
X0111832Y0123816D01*
X0112699Y0123816D01*
X0113133Y0123382D01*
X0111398Y0121647D01*
X0111832Y0121214D01*
X0112699Y0121214D01*
X0113133Y0121647D01*
X0113133Y0123382D01*
X0114345Y0123816D02*
X0115646Y0123816D01*
X0116079Y0123382D01*
X0116079Y0122515D01*
X0115646Y0122081D01*
X0114345Y0122081D01*
X0115212Y0122081D02*
X0116079Y0121214D01*
X0114345Y0121214D02*
X0114345Y0123816D01*
X0113795Y0125914D02*
X0113795Y0128516D01*
X0115096Y0128516D01*
X0115529Y0128082D01*
X0115529Y0127215D01*
X0115096Y0126781D01*
X0113795Y0126781D01*
X0114662Y0126781D02*
X0115529Y0125914D01*
X0112583Y0125914D02*
X0110848Y0125914D01*
X0111716Y0125914D02*
X0111716Y0128516D01*
X0110848Y0127649D01*
X0109636Y0128082D02*
X0107902Y0126347D01*
X0107902Y0125914D01*
X0106256Y0125914D02*
X0106256Y0128516D01*
X0104955Y0127215D01*
X0106690Y0127215D01*
X0107902Y0128516D02*
X0109636Y0128516D01*
X0109636Y0128082D01*
X0111398Y0123382D02*
X0111398Y0121647D01*
X0114211Y0118393D02*
X0115079Y0119260D01*
X0115079Y0116658D01*
X0115946Y0116658D02*
X0114211Y0116658D01*
X0117158Y0117092D02*
X0118893Y0118826D01*
X0118893Y0117092D01*
X0118459Y0116658D01*
X0117592Y0116658D01*
X0117158Y0117092D01*
X0117158Y0118826D01*
X0117592Y0119260D01*
X0118459Y0119260D01*
X0118893Y0118826D01*
X0120104Y0117959D02*
X0121406Y0117959D01*
X0121839Y0117525D01*
X0121839Y0117092D01*
X0121406Y0116658D01*
X0120538Y0116658D01*
X0120104Y0117092D01*
X0120104Y0117959D01*
X0120972Y0118826D01*
X0121839Y0119260D01*
X0123051Y0118826D02*
X0123051Y0117092D01*
X0123485Y0116658D01*
X0124352Y0116658D01*
X0124786Y0117092D01*
X0124786Y0118826D02*
X0124352Y0119260D01*
X0123485Y0119260D01*
X0123051Y0118826D01*
X0129005Y0121014D02*
X0130740Y0121014D01*
X0129873Y0121014D02*
X0129873Y0123616D01*
X0129005Y0122749D01*
X0131952Y0123182D02*
X0132385Y0123616D01*
X0133253Y0123616D01*
X0133686Y0123182D01*
X0131952Y0121447D01*
X0132385Y0121014D01*
X0133253Y0121014D01*
X0133686Y0121447D01*
X0133686Y0123182D01*
X0134898Y0122315D02*
X0136633Y0122315D01*
X0136199Y0121014D02*
X0136199Y0123616D01*
X0134898Y0122315D01*
X0131952Y0123182D02*
X0131952Y0121447D01*
X0134455Y0126414D02*
X0136190Y0126414D01*
X0135323Y0126414D02*
X0135323Y0129016D01*
X0134455Y0128149D01*
X0137402Y0128582D02*
X0137835Y0129016D01*
X0138703Y0129016D01*
X0139136Y0128582D01*
X0137402Y0126847D01*
X0137835Y0126414D01*
X0138703Y0126414D01*
X0139136Y0126847D01*
X0139136Y0128582D01*
X0140348Y0127715D02*
X0141649Y0127715D01*
X0142083Y0127281D01*
X0142083Y0126847D01*
X0141649Y0126414D01*
X0140782Y0126414D01*
X0140348Y0126847D01*
X0140348Y0127715D01*
X0141216Y0128582D01*
X0142083Y0129016D01*
X0143295Y0128582D02*
X0143295Y0126847D01*
X0143728Y0126414D01*
X0144596Y0126414D01*
X0145029Y0126847D01*
X0145029Y0128582D02*
X0144596Y0129016D01*
X0143728Y0129016D01*
X0143295Y0128582D01*
X0139146Y0123616D02*
X0138278Y0123616D01*
X0137845Y0123182D01*
X0137845Y0121447D01*
X0138278Y0121014D01*
X0139146Y0121014D01*
X0139579Y0121447D01*
X0139579Y0123182D02*
X0139146Y0123616D01*
X0137402Y0126847D02*
X0137402Y0128582D01*
X0137399Y0111665D02*
X0131611Y0111665D01*
X0131611Y0111492D01*
X0131611Y0108319D02*
X0131611Y0104209D01*
X0131611Y0101035D02*
X0131611Y0100862D01*
X0137399Y0100862D01*
X0137399Y0101035D01*
X0137399Y0104209D02*
X0137399Y0104579D01*
X0137399Y0107949D02*
X0137399Y0108319D01*
X0137399Y0111492D02*
X0137399Y0111665D01*
X0150555Y0100449D02*
X0151423Y0101316D01*
X0151423Y0098714D01*
X0152290Y0098714D02*
X0150555Y0098714D01*
X0151573Y0096216D02*
X0151573Y0093614D01*
X0152440Y0093614D02*
X0150705Y0093614D01*
X0150705Y0095349D02*
X0151573Y0096216D01*
X0153652Y0095782D02*
X0154085Y0096216D01*
X0154953Y0096216D01*
X0155386Y0095782D01*
X0153652Y0094047D01*
X0154085Y0093614D01*
X0154953Y0093614D01*
X0155386Y0094047D01*
X0155386Y0095782D01*
X0156598Y0094915D02*
X0158333Y0094915D01*
X0157899Y0096216D02*
X0156598Y0094915D01*
X0157899Y0093614D02*
X0157899Y0096216D01*
X0159545Y0095782D02*
X0159545Y0094047D01*
X0159978Y0093614D01*
X0160846Y0093614D01*
X0161279Y0094047D01*
X0161279Y0095782D02*
X0160846Y0096216D01*
X0159978Y0096216D01*
X0159545Y0095782D01*
X0159828Y0098714D02*
X0160696Y0098714D01*
X0161129Y0099147D01*
X0159828Y0098714D02*
X0159395Y0099147D01*
X0159395Y0100882D01*
X0159828Y0101316D01*
X0160696Y0101316D01*
X0161129Y0100882D01*
X0158183Y0100015D02*
X0156448Y0100015D01*
X0157749Y0101316D01*
X0157749Y0098714D01*
X0155236Y0099147D02*
X0154803Y0098714D01*
X0153935Y0098714D01*
X0153502Y0099147D01*
X0155236Y0100882D01*
X0155236Y0099147D01*
X0153502Y0099147D02*
X0153502Y0100882D01*
X0153935Y0101316D01*
X0154803Y0101316D01*
X0155236Y0100882D01*
X0153652Y0095782D02*
X0153652Y0094047D01*
X0153499Y0091015D02*
X0153499Y0090842D01*
X0153499Y0091015D02*
X0147711Y0091015D01*
X0147711Y0090842D01*
X0147711Y0087669D02*
X0147711Y0083559D01*
X0147711Y0080385D02*
X0147711Y0080212D01*
X0153499Y0080212D01*
X0153499Y0080385D01*
X0153499Y0083559D02*
X0153499Y0083929D01*
X0153499Y0087299D02*
X0153499Y0087669D01*
X0132987Y0077188D02*
X0132553Y0077622D01*
X0131686Y0077622D01*
X0131252Y0077188D01*
X0131252Y0075453D01*
X0131686Y0075020D01*
X0132553Y0075020D01*
X0132987Y0075453D01*
X0130041Y0075453D02*
X0130041Y0075887D01*
X0129607Y0076321D01*
X0128306Y0076321D01*
X0128306Y0075453D01*
X0128739Y0075020D01*
X0129607Y0075020D01*
X0130041Y0075453D01*
X0129173Y0077188D02*
X0128306Y0076321D01*
X0129173Y0077188D02*
X0130041Y0077622D01*
X0127094Y0077188D02*
X0127094Y0075453D01*
X0126660Y0075020D01*
X0125793Y0075020D01*
X0125359Y0075453D01*
X0127094Y0077188D01*
X0126660Y0077622D01*
X0125793Y0077622D01*
X0125359Y0077188D01*
X0125359Y0075453D01*
X0124148Y0075020D02*
X0122413Y0075020D01*
X0123280Y0075020D02*
X0123280Y0077622D01*
X0122413Y0076754D01*
X0106729Y0078147D02*
X0106296Y0077714D01*
X0105428Y0077714D01*
X0104995Y0078147D01*
X0104995Y0079882D01*
X0105428Y0080316D01*
X0106296Y0080316D01*
X0106729Y0079882D01*
X0103783Y0079882D02*
X0103783Y0079449D01*
X0103349Y0079015D01*
X0103783Y0078581D01*
X0103783Y0078147D01*
X0103349Y0077714D01*
X0102482Y0077714D01*
X0102048Y0078147D01*
X0100836Y0078147D02*
X0100403Y0077714D01*
X0099535Y0077714D01*
X0099102Y0078147D01*
X0100836Y0079882D01*
X0100836Y0078147D01*
X0099102Y0078147D02*
X0099102Y0079882D01*
X0099535Y0080316D01*
X0100403Y0080316D01*
X0100836Y0079882D01*
X0102048Y0079882D02*
X0102482Y0080316D01*
X0103349Y0080316D01*
X0103783Y0079882D01*
X0103349Y0079015D02*
X0102916Y0079015D01*
X0097890Y0077714D02*
X0096155Y0077714D01*
X0097023Y0077714D02*
X0097023Y0080316D01*
X0096155Y0079449D01*
X0053129Y0105864D02*
X0052262Y0106731D01*
X0052696Y0106731D02*
X0051395Y0106731D01*
X0051395Y0105864D02*
X0051395Y0108466D01*
X0052696Y0108466D01*
X0053129Y0108032D01*
X0053129Y0107165D01*
X0052696Y0106731D01*
X0050183Y0106297D02*
X0049749Y0105864D01*
X0048882Y0105864D01*
X0048448Y0106297D01*
X0050183Y0108032D01*
X0050183Y0106297D01*
X0048448Y0106297D02*
X0048448Y0108032D01*
X0048882Y0108466D01*
X0049749Y0108466D01*
X0050183Y0108032D01*
X0047236Y0108032D02*
X0046803Y0108466D01*
X0045935Y0108466D01*
X0045502Y0108032D01*
X0045502Y0106297D01*
X0047236Y0108032D01*
X0047236Y0106297D01*
X0046803Y0105864D01*
X0045935Y0105864D01*
X0045502Y0106297D01*
X0044290Y0105864D02*
X0042555Y0105864D01*
X0044290Y0107599D01*
X0044290Y0108032D01*
X0043856Y0108466D01*
X0042989Y0108466D01*
X0042555Y0108032D01*
X0039693Y0116564D02*
X0038826Y0117431D01*
X0039260Y0117431D02*
X0037959Y0117431D01*
X0037959Y0116564D02*
X0037959Y0119166D01*
X0039260Y0119166D01*
X0039693Y0118732D01*
X0039693Y0117865D01*
X0039260Y0117431D01*
X0036747Y0116564D02*
X0035012Y0116564D01*
X0035879Y0116564D02*
X0035879Y0119166D01*
X0035012Y0118299D01*
X0033800Y0118732D02*
X0032066Y0116997D01*
X0032066Y0116564D01*
X0030420Y0116564D02*
X0030420Y0119166D01*
X0029119Y0117865D01*
X0030854Y0117865D01*
X0032066Y0119166D02*
X0033800Y0119166D01*
X0033800Y0118732D01*
X0033667Y0122014D02*
X0032799Y0122014D01*
X0032366Y0122447D01*
X0031154Y0122447D02*
X0031154Y0124182D01*
X0029419Y0122447D01*
X0029853Y0122014D01*
X0030720Y0122014D01*
X0031154Y0122447D01*
X0029419Y0122447D02*
X0029419Y0124182D01*
X0029853Y0124616D01*
X0030720Y0124616D01*
X0031154Y0124182D01*
X0032366Y0124182D02*
X0032799Y0124616D01*
X0033667Y0124616D01*
X0034100Y0124182D01*
X0034100Y0123749D01*
X0033667Y0123315D01*
X0034100Y0122881D01*
X0034100Y0122447D01*
X0033667Y0122014D01*
X0033667Y0123315D02*
X0033233Y0123315D01*
X0035312Y0124182D02*
X0035746Y0124616D01*
X0036613Y0124616D01*
X0037047Y0124182D01*
X0037047Y0123749D01*
X0036613Y0123315D01*
X0037047Y0122881D01*
X0037047Y0122447D01*
X0036613Y0122014D01*
X0035746Y0122014D01*
X0035312Y0122447D01*
X0036179Y0123315D02*
X0036613Y0123315D01*
X0038259Y0124182D02*
X0038259Y0122447D01*
X0038692Y0122014D01*
X0039560Y0122014D01*
X0039993Y0122447D01*
X0039993Y0124182D02*
X0039560Y0124616D01*
X0038692Y0124616D01*
X0038259Y0124182D01*
X0027510Y0113066D02*
X0026642Y0113066D01*
X0026209Y0112632D01*
X0026209Y0110897D01*
X0026642Y0110464D01*
X0027510Y0110464D01*
X0027943Y0110897D01*
X0027943Y0112632D02*
X0027510Y0113066D01*
X0024997Y0112632D02*
X0024997Y0112199D01*
X0024563Y0111765D01*
X0024997Y0111331D01*
X0024997Y0110897D01*
X0024563Y0110464D01*
X0023696Y0110464D01*
X0023262Y0110897D01*
X0022050Y0110897D02*
X0022050Y0112632D01*
X0020316Y0110897D01*
X0020749Y0110464D01*
X0021617Y0110464D01*
X0022050Y0110897D01*
X0020316Y0110897D02*
X0020316Y0112632D01*
X0020749Y0113066D01*
X0021617Y0113066D01*
X0022050Y0112632D01*
X0023262Y0112632D02*
X0023696Y0113066D01*
X0024563Y0113066D01*
X0024997Y0112632D01*
X0024563Y0111765D02*
X0024129Y0111765D01*
X0019104Y0110464D02*
X0017369Y0110464D01*
X0018236Y0110464D02*
X0018236Y0113066D01*
X0017369Y0112199D01*
X0055503Y0123381D02*
X0056370Y0122514D01*
X0055503Y0123381D02*
X0058105Y0123381D01*
X0058105Y0122514D02*
X0058105Y0124249D01*
X0057671Y0125460D02*
X0055937Y0127195D01*
X0057671Y0127195D01*
X0058105Y0126761D01*
X0058105Y0125894D01*
X0057671Y0125460D01*
X0055937Y0125460D01*
X0055503Y0125894D01*
X0055503Y0126761D01*
X0055937Y0127195D01*
X0056804Y0128407D02*
X0056804Y0130142D01*
X0055503Y0129708D02*
X0056804Y0128407D01*
X0058105Y0129708D02*
X0055503Y0129708D01*
X0055937Y0131353D02*
X0057671Y0131353D01*
X0058105Y0131787D01*
X0058105Y0132654D01*
X0057671Y0133088D01*
X0055937Y0133088D02*
X0055503Y0132654D01*
X0055503Y0131787D01*
X0055937Y0131353D01*
X0059603Y0131901D02*
X0060037Y0131467D01*
X0061771Y0131467D01*
X0062205Y0131901D01*
X0062205Y0132768D01*
X0061771Y0133202D01*
X0060037Y0133202D02*
X0059603Y0132768D01*
X0059603Y0131901D01*
X0059603Y0130256D02*
X0059603Y0128521D01*
X0060904Y0128521D01*
X0060470Y0129388D01*
X0060470Y0129822D01*
X0060904Y0130256D01*
X0061771Y0130256D01*
X0062205Y0129822D01*
X0062205Y0128954D01*
X0061771Y0128521D01*
X0061771Y0127309D02*
X0062205Y0126875D01*
X0062205Y0126008D01*
X0061771Y0125574D01*
X0060037Y0127309D01*
X0061771Y0127309D01*
X0060037Y0127309D02*
X0059603Y0126875D01*
X0059603Y0126008D01*
X0060037Y0125574D01*
X0061771Y0125574D01*
X0062205Y0124362D02*
X0062205Y0122628D01*
X0062205Y0123495D02*
X0059603Y0123495D01*
X0060470Y0122628D01*
X0068403Y0127731D02*
X0071005Y0127731D01*
X0071005Y0126864D02*
X0071005Y0128599D01*
X0070571Y0129810D02*
X0068837Y0131545D01*
X0070571Y0131545D01*
X0071005Y0131111D01*
X0071005Y0130244D01*
X0070571Y0129810D01*
X0068837Y0129810D01*
X0068403Y0130244D01*
X0068403Y0131111D01*
X0068837Y0131545D01*
X0069704Y0132757D02*
X0069704Y0134492D01*
X0068403Y0134058D02*
X0069704Y0132757D01*
X0071005Y0134058D02*
X0068403Y0134058D01*
X0068837Y0135703D02*
X0070571Y0135703D01*
X0071005Y0136137D01*
X0071005Y0137004D01*
X0070571Y0137438D01*
X0068837Y0137438D02*
X0068403Y0137004D01*
X0068403Y0136137D01*
X0068837Y0135703D01*
X0073303Y0133054D02*
X0073737Y0133488D01*
X0074604Y0133488D01*
X0075038Y0133054D01*
X0075038Y0131753D01*
X0075905Y0131753D02*
X0073303Y0131753D01*
X0073303Y0133054D01*
X0075038Y0132621D02*
X0075905Y0133488D01*
X0078453Y0132804D02*
X0078453Y0131937D01*
X0078887Y0131503D01*
X0080621Y0131503D01*
X0081055Y0131937D01*
X0081055Y0132804D01*
X0080621Y0133238D01*
X0078887Y0133238D02*
X0078453Y0132804D01*
X0078887Y0130292D02*
X0079320Y0130292D01*
X0079754Y0129858D01*
X0080188Y0130292D01*
X0080621Y0130292D01*
X0081055Y0129858D01*
X0081055Y0128990D01*
X0080621Y0128557D01*
X0079754Y0129424D02*
X0079754Y0129858D01*
X0078887Y0130292D02*
X0078453Y0129858D01*
X0078453Y0128990D01*
X0078887Y0128557D01*
X0078887Y0127345D02*
X0080621Y0125610D01*
X0081055Y0125610D01*
X0081055Y0123965D02*
X0078453Y0123965D01*
X0079754Y0122664D01*
X0079754Y0124399D01*
X0078453Y0125610D02*
X0078453Y0127345D01*
X0078887Y0127345D01*
X0075905Y0127161D02*
X0075905Y0126294D01*
X0075471Y0125860D01*
X0073737Y0127595D01*
X0075471Y0127595D01*
X0075905Y0127161D01*
X0075471Y0125860D02*
X0073737Y0125860D01*
X0073303Y0126294D01*
X0073303Y0127161D01*
X0073737Y0127595D01*
X0073737Y0128807D02*
X0073303Y0129240D01*
X0073303Y0130108D01*
X0073737Y0130542D01*
X0075471Y0128807D01*
X0075905Y0129240D01*
X0075905Y0130108D01*
X0075471Y0130542D01*
X0073737Y0130542D01*
X0073737Y0128807D02*
X0075471Y0128807D01*
X0075905Y0124649D02*
X0075905Y0122914D01*
X0075905Y0123781D02*
X0073303Y0123781D01*
X0074170Y0122914D01*
X0069270Y0126864D02*
X0068403Y0127731D01*
X0075387Y0141464D02*
X0074953Y0141897D01*
X0074953Y0142765D01*
X0075387Y0143199D01*
X0075820Y0143199D01*
X0077555Y0141464D01*
X0077555Y0143199D01*
X0077555Y0144410D02*
X0075820Y0146145D01*
X0075387Y0146145D01*
X0074953Y0145711D01*
X0074953Y0144844D01*
X0075387Y0144410D01*
X0077555Y0144410D02*
X0077555Y0146145D01*
X0077555Y0147357D02*
X0077121Y0147357D01*
X0075387Y0149092D01*
X0074953Y0149092D01*
X0074953Y0147357D01*
X0075387Y0150303D02*
X0077121Y0150303D01*
X0077555Y0150737D01*
X0077555Y0151604D01*
X0077121Y0152038D01*
X0075387Y0152038D02*
X0074953Y0151604D01*
X0074953Y0150737D01*
X0075387Y0150303D01*
X0072755Y0146164D02*
X0072758Y0146434D01*
X0072768Y0146704D01*
X0072785Y0146973D01*
X0072808Y0147242D01*
X0072838Y0147511D01*
X0072874Y0147778D01*
X0072917Y0148045D01*
X0072966Y0148310D01*
X0073022Y0148574D01*
X0073085Y0148837D01*
X0073153Y0149098D01*
X0073229Y0149357D01*
X0073310Y0149614D01*
X0073398Y0149870D01*
X0073492Y0150123D01*
X0073592Y0150374D01*
X0073699Y0150622D01*
X0073811Y0150867D01*
X0073930Y0151110D01*
X0074054Y0151349D01*
X0074184Y0151586D01*
X0074320Y0151819D01*
X0074462Y0152049D01*
X0074609Y0152275D01*
X0074762Y0152498D01*
X0074920Y0152717D01*
X0075083Y0152932D01*
X0075252Y0153142D01*
X0075426Y0153349D01*
X0075605Y0153551D01*
X0075788Y0153749D01*
X0075977Y0153942D01*
X0076170Y0154131D01*
X0076368Y0154314D01*
X0076570Y0154493D01*
X0076777Y0154667D01*
X0076987Y0154836D01*
X0077202Y0154999D01*
X0077421Y0155157D01*
X0077644Y0155310D01*
X0077870Y0155457D01*
X0078100Y0155599D01*
X0078333Y0155735D01*
X0078570Y0155865D01*
X0078809Y0155989D01*
X0079052Y0156108D01*
X0079297Y0156220D01*
X0079545Y0156327D01*
X0079796Y0156427D01*
X0080049Y0156521D01*
X0080305Y0156609D01*
X0080562Y0156690D01*
X0080821Y0156766D01*
X0081082Y0156834D01*
X0081345Y0156897D01*
X0081609Y0156953D01*
X0081874Y0157002D01*
X0082141Y0157045D01*
X0082408Y0157081D01*
X0082677Y0157111D01*
X0082946Y0157134D01*
X0083215Y0157151D01*
X0083485Y0157161D01*
X0083755Y0157164D01*
X0084025Y0157161D01*
X0084295Y0157151D01*
X0084564Y0157134D01*
X0084833Y0157111D01*
X0085102Y0157081D01*
X0085369Y0157045D01*
X0085636Y0157002D01*
X0085901Y0156953D01*
X0086165Y0156897D01*
X0086428Y0156834D01*
X0086689Y0156766D01*
X0086948Y0156690D01*
X0087205Y0156609D01*
X0087461Y0156521D01*
X0087714Y0156427D01*
X0087965Y0156327D01*
X0088213Y0156220D01*
X0088458Y0156108D01*
X0088701Y0155989D01*
X0088940Y0155865D01*
X0089177Y0155735D01*
X0089410Y0155599D01*
X0089640Y0155457D01*
X0089866Y0155310D01*
X0090089Y0155157D01*
X0090308Y0154999D01*
X0090523Y0154836D01*
X0090733Y0154667D01*
X0090940Y0154493D01*
X0091142Y0154314D01*
X0091340Y0154131D01*
X0091533Y0153942D01*
X0091722Y0153749D01*
X0091905Y0153551D01*
X0092084Y0153349D01*
X0092258Y0153142D01*
X0092427Y0152932D01*
X0092590Y0152717D01*
X0092748Y0152498D01*
X0092901Y0152275D01*
X0093048Y0152049D01*
X0093190Y0151819D01*
X0093326Y0151586D01*
X0093456Y0151349D01*
X0093580Y0151110D01*
X0093699Y0150867D01*
X0093811Y0150622D01*
X0093918Y0150374D01*
X0094018Y0150123D01*
X0094112Y0149870D01*
X0094200Y0149614D01*
X0094281Y0149357D01*
X0094357Y0149098D01*
X0094425Y0148837D01*
X0094488Y0148574D01*
X0094544Y0148310D01*
X0094593Y0148045D01*
X0094636Y0147778D01*
X0094672Y0147511D01*
X0094702Y0147242D01*
X0094725Y0146973D01*
X0094742Y0146704D01*
X0094752Y0146434D01*
X0094755Y0146164D01*
X0094752Y0145894D01*
X0094742Y0145624D01*
X0094725Y0145355D01*
X0094702Y0145086D01*
X0094672Y0144817D01*
X0094636Y0144550D01*
X0094593Y0144283D01*
X0094544Y0144018D01*
X0094488Y0143754D01*
X0094425Y0143491D01*
X0094357Y0143230D01*
X0094281Y0142971D01*
X0094200Y0142714D01*
X0094112Y0142458D01*
X0094018Y0142205D01*
X0093918Y0141954D01*
X0093811Y0141706D01*
X0093699Y0141461D01*
X0093580Y0141218D01*
X0093456Y0140979D01*
X0093326Y0140742D01*
X0093190Y0140509D01*
X0093048Y0140279D01*
X0092901Y0140053D01*
X0092748Y0139830D01*
X0092590Y0139611D01*
X0092427Y0139396D01*
X0092258Y0139186D01*
X0092084Y0138979D01*
X0091905Y0138777D01*
X0091722Y0138579D01*
X0091533Y0138386D01*
X0091340Y0138197D01*
X0091142Y0138014D01*
X0090940Y0137835D01*
X0090733Y0137661D01*
X0090523Y0137492D01*
X0090308Y0137329D01*
X0090089Y0137171D01*
X0089866Y0137018D01*
X0089640Y0136871D01*
X0089410Y0136729D01*
X0089177Y0136593D01*
X0088940Y0136463D01*
X0088701Y0136339D01*
X0088458Y0136220D01*
X0088213Y0136108D01*
X0087965Y0136001D01*
X0087714Y0135901D01*
X0087461Y0135807D01*
X0087205Y0135719D01*
X0086948Y0135638D01*
X0086689Y0135562D01*
X0086428Y0135494D01*
X0086165Y0135431D01*
X0085901Y0135375D01*
X0085636Y0135326D01*
X0085369Y0135283D01*
X0085102Y0135247D01*
X0084833Y0135217D01*
X0084564Y0135194D01*
X0084295Y0135177D01*
X0084025Y0135167D01*
X0083755Y0135164D01*
X0083485Y0135167D01*
X0083215Y0135177D01*
X0082946Y0135194D01*
X0082677Y0135217D01*
X0082408Y0135247D01*
X0082141Y0135283D01*
X0081874Y0135326D01*
X0081609Y0135375D01*
X0081345Y0135431D01*
X0081082Y0135494D01*
X0080821Y0135562D01*
X0080562Y0135638D01*
X0080305Y0135719D01*
X0080049Y0135807D01*
X0079796Y0135901D01*
X0079545Y0136001D01*
X0079297Y0136108D01*
X0079052Y0136220D01*
X0078809Y0136339D01*
X0078570Y0136463D01*
X0078333Y0136593D01*
X0078100Y0136729D01*
X0077870Y0136871D01*
X0077644Y0137018D01*
X0077421Y0137171D01*
X0077202Y0137329D01*
X0076987Y0137492D01*
X0076777Y0137661D01*
X0076570Y0137835D01*
X0076368Y0138014D01*
X0076170Y0138197D01*
X0075977Y0138386D01*
X0075788Y0138579D01*
X0075605Y0138777D01*
X0075426Y0138979D01*
X0075252Y0139186D01*
X0075083Y0139396D01*
X0074920Y0139611D01*
X0074762Y0139830D01*
X0074609Y0140053D01*
X0074462Y0140279D01*
X0074320Y0140509D01*
X0074184Y0140742D01*
X0074054Y0140979D01*
X0073930Y0141218D01*
X0073811Y0141461D01*
X0073699Y0141706D01*
X0073592Y0141954D01*
X0073492Y0142205D01*
X0073398Y0142458D01*
X0073310Y0142714D01*
X0073229Y0142971D01*
X0073153Y0143230D01*
X0073085Y0143491D01*
X0073022Y0143754D01*
X0072966Y0144018D01*
X0072917Y0144283D01*
X0072874Y0144550D01*
X0072838Y0144817D01*
X0072808Y0145086D01*
X0072785Y0145355D01*
X0072768Y0145624D01*
X0072758Y0145894D01*
X0072755Y0146164D01*
X0087255Y0152664D02*
X0088755Y0152664D01*
X0090255Y0152664D01*
X0088755Y0152664D02*
X0088755Y0151164D01*
X0088755Y0152664D02*
X0088755Y0154164D01*
X0100055Y0144815D02*
X0101790Y0144815D01*
X0101356Y0146116D02*
X0100055Y0144815D01*
X0101356Y0143514D02*
X0101356Y0146116D01*
X0103002Y0146116D02*
X0104736Y0146116D01*
X0104736Y0145682D01*
X0103002Y0143947D01*
X0103002Y0143514D01*
X0105948Y0143947D02*
X0106382Y0143514D01*
X0107249Y0143514D01*
X0107683Y0143947D01*
X0107683Y0144381D01*
X0107249Y0144815D01*
X0106816Y0144815D01*
X0107249Y0144815D02*
X0107683Y0145249D01*
X0107683Y0145682D01*
X0107249Y0146116D01*
X0106382Y0146116D01*
X0105948Y0145682D01*
X0108895Y0146116D02*
X0110196Y0146116D01*
X0110629Y0145682D01*
X0110629Y0144815D01*
X0110196Y0144381D01*
X0108895Y0144381D01*
X0109762Y0144381D02*
X0110629Y0143514D01*
X0108895Y0143514D02*
X0108895Y0146116D01*
X0108646Y0134316D02*
X0107778Y0134316D01*
X0107345Y0133882D01*
X0107345Y0132147D01*
X0107778Y0131714D01*
X0108646Y0131714D01*
X0109079Y0132147D01*
X0109079Y0133882D02*
X0108646Y0134316D01*
X0106133Y0133882D02*
X0106133Y0133449D01*
X0105699Y0133015D01*
X0106133Y0132581D01*
X0106133Y0132147D01*
X0105699Y0131714D01*
X0104832Y0131714D01*
X0104398Y0132147D01*
X0103186Y0132147D02*
X0102753Y0131714D01*
X0101885Y0131714D01*
X0101452Y0132147D01*
X0100240Y0132147D02*
X0099806Y0131714D01*
X0098939Y0131714D01*
X0098505Y0132147D01*
X0100240Y0133882D01*
X0100240Y0132147D01*
X0098505Y0132147D02*
X0098505Y0133882D01*
X0098939Y0134316D01*
X0099806Y0134316D01*
X0100240Y0133882D01*
X0101452Y0133882D02*
X0101885Y0134316D01*
X0102753Y0134316D01*
X0103186Y0133882D01*
X0103186Y0133449D01*
X0102753Y0133015D01*
X0103186Y0132581D01*
X0103186Y0132147D01*
X0102753Y0133015D02*
X0102319Y0133015D01*
X0104398Y0133882D02*
X0104832Y0134316D01*
X0105699Y0134316D01*
X0106133Y0133882D01*
X0105699Y0133015D02*
X0105266Y0133015D01*
X0084605Y0169064D02*
X0082870Y0170799D01*
X0082437Y0170799D01*
X0082003Y0170365D01*
X0082003Y0169497D01*
X0082437Y0169064D01*
X0084605Y0169064D02*
X0084605Y0170799D01*
X0084605Y0172010D02*
X0082870Y0173745D01*
X0082437Y0173745D01*
X0082003Y0173311D01*
X0082003Y0172444D01*
X0082437Y0172010D01*
X0084605Y0172010D02*
X0084605Y0173745D01*
X0084605Y0174957D02*
X0084171Y0174957D01*
X0082437Y0176692D01*
X0082003Y0176692D01*
X0082003Y0174957D01*
X0082437Y0177903D02*
X0084171Y0177903D01*
X0084605Y0178337D01*
X0084605Y0179204D01*
X0084171Y0179638D01*
X0082437Y0179638D02*
X0082003Y0179204D01*
X0082003Y0178337D01*
X0082437Y0177903D01*
X0078705Y0172764D02*
X0078708Y0173034D01*
X0078718Y0173304D01*
X0078735Y0173573D01*
X0078758Y0173842D01*
X0078788Y0174111D01*
X0078824Y0174378D01*
X0078867Y0174645D01*
X0078916Y0174910D01*
X0078972Y0175174D01*
X0079035Y0175437D01*
X0079103Y0175698D01*
X0079179Y0175957D01*
X0079260Y0176214D01*
X0079348Y0176470D01*
X0079442Y0176723D01*
X0079542Y0176974D01*
X0079649Y0177222D01*
X0079761Y0177467D01*
X0079880Y0177710D01*
X0080004Y0177949D01*
X0080134Y0178186D01*
X0080270Y0178419D01*
X0080412Y0178649D01*
X0080559Y0178875D01*
X0080712Y0179098D01*
X0080870Y0179317D01*
X0081033Y0179532D01*
X0081202Y0179742D01*
X0081376Y0179949D01*
X0081555Y0180151D01*
X0081738Y0180349D01*
X0081927Y0180542D01*
X0082120Y0180731D01*
X0082318Y0180914D01*
X0082520Y0181093D01*
X0082727Y0181267D01*
X0082937Y0181436D01*
X0083152Y0181599D01*
X0083371Y0181757D01*
X0083594Y0181910D01*
X0083820Y0182057D01*
X0084050Y0182199D01*
X0084283Y0182335D01*
X0084520Y0182465D01*
X0084759Y0182589D01*
X0085002Y0182708D01*
X0085247Y0182820D01*
X0085495Y0182927D01*
X0085746Y0183027D01*
X0085999Y0183121D01*
X0086255Y0183209D01*
X0086512Y0183290D01*
X0086771Y0183366D01*
X0087032Y0183434D01*
X0087295Y0183497D01*
X0087559Y0183553D01*
X0087824Y0183602D01*
X0088091Y0183645D01*
X0088358Y0183681D01*
X0088627Y0183711D01*
X0088896Y0183734D01*
X0089165Y0183751D01*
X0089435Y0183761D01*
X0089705Y0183764D01*
X0089975Y0183761D01*
X0090245Y0183751D01*
X0090514Y0183734D01*
X0090783Y0183711D01*
X0091052Y0183681D01*
X0091319Y0183645D01*
X0091586Y0183602D01*
X0091851Y0183553D01*
X0092115Y0183497D01*
X0092378Y0183434D01*
X0092639Y0183366D01*
X0092898Y0183290D01*
X0093155Y0183209D01*
X0093411Y0183121D01*
X0093664Y0183027D01*
X0093915Y0182927D01*
X0094163Y0182820D01*
X0094408Y0182708D01*
X0094651Y0182589D01*
X0094890Y0182465D01*
X0095127Y0182335D01*
X0095360Y0182199D01*
X0095590Y0182057D01*
X0095816Y0181910D01*
X0096039Y0181757D01*
X0096258Y0181599D01*
X0096473Y0181436D01*
X0096683Y0181267D01*
X0096890Y0181093D01*
X0097092Y0180914D01*
X0097290Y0180731D01*
X0097483Y0180542D01*
X0097672Y0180349D01*
X0097855Y0180151D01*
X0098034Y0179949D01*
X0098208Y0179742D01*
X0098377Y0179532D01*
X0098540Y0179317D01*
X0098698Y0179098D01*
X0098851Y0178875D01*
X0098998Y0178649D01*
X0099140Y0178419D01*
X0099276Y0178186D01*
X0099406Y0177949D01*
X0099530Y0177710D01*
X0099649Y0177467D01*
X0099761Y0177222D01*
X0099868Y0176974D01*
X0099968Y0176723D01*
X0100062Y0176470D01*
X0100150Y0176214D01*
X0100231Y0175957D01*
X0100307Y0175698D01*
X0100375Y0175437D01*
X0100438Y0175174D01*
X0100494Y0174910D01*
X0100543Y0174645D01*
X0100586Y0174378D01*
X0100622Y0174111D01*
X0100652Y0173842D01*
X0100675Y0173573D01*
X0100692Y0173304D01*
X0100702Y0173034D01*
X0100705Y0172764D01*
X0100702Y0172494D01*
X0100692Y0172224D01*
X0100675Y0171955D01*
X0100652Y0171686D01*
X0100622Y0171417D01*
X0100586Y0171150D01*
X0100543Y0170883D01*
X0100494Y0170618D01*
X0100438Y0170354D01*
X0100375Y0170091D01*
X0100307Y0169830D01*
X0100231Y0169571D01*
X0100150Y0169314D01*
X0100062Y0169058D01*
X0099968Y0168805D01*
X0099868Y0168554D01*
X0099761Y0168306D01*
X0099649Y0168061D01*
X0099530Y0167818D01*
X0099406Y0167579D01*
X0099276Y0167342D01*
X0099140Y0167109D01*
X0098998Y0166879D01*
X0098851Y0166653D01*
X0098698Y0166430D01*
X0098540Y0166211D01*
X0098377Y0165996D01*
X0098208Y0165786D01*
X0098034Y0165579D01*
X0097855Y0165377D01*
X0097672Y0165179D01*
X0097483Y0164986D01*
X0097290Y0164797D01*
X0097092Y0164614D01*
X0096890Y0164435D01*
X0096683Y0164261D01*
X0096473Y0164092D01*
X0096258Y0163929D01*
X0096039Y0163771D01*
X0095816Y0163618D01*
X0095590Y0163471D01*
X0095360Y0163329D01*
X0095127Y0163193D01*
X0094890Y0163063D01*
X0094651Y0162939D01*
X0094408Y0162820D01*
X0094163Y0162708D01*
X0093915Y0162601D01*
X0093664Y0162501D01*
X0093411Y0162407D01*
X0093155Y0162319D01*
X0092898Y0162238D01*
X0092639Y0162162D01*
X0092378Y0162094D01*
X0092115Y0162031D01*
X0091851Y0161975D01*
X0091586Y0161926D01*
X0091319Y0161883D01*
X0091052Y0161847D01*
X0090783Y0161817D01*
X0090514Y0161794D01*
X0090245Y0161777D01*
X0089975Y0161767D01*
X0089705Y0161764D01*
X0089435Y0161767D01*
X0089165Y0161777D01*
X0088896Y0161794D01*
X0088627Y0161817D01*
X0088358Y0161847D01*
X0088091Y0161883D01*
X0087824Y0161926D01*
X0087559Y0161975D01*
X0087295Y0162031D01*
X0087032Y0162094D01*
X0086771Y0162162D01*
X0086512Y0162238D01*
X0086255Y0162319D01*
X0085999Y0162407D01*
X0085746Y0162501D01*
X0085495Y0162601D01*
X0085247Y0162708D01*
X0085002Y0162820D01*
X0084759Y0162939D01*
X0084520Y0163063D01*
X0084283Y0163193D01*
X0084050Y0163329D01*
X0083820Y0163471D01*
X0083594Y0163618D01*
X0083371Y0163771D01*
X0083152Y0163929D01*
X0082937Y0164092D01*
X0082727Y0164261D01*
X0082520Y0164435D01*
X0082318Y0164614D01*
X0082120Y0164797D01*
X0081927Y0164986D01*
X0081738Y0165179D01*
X0081555Y0165377D01*
X0081376Y0165579D01*
X0081202Y0165786D01*
X0081033Y0165996D01*
X0080870Y0166211D01*
X0080712Y0166430D01*
X0080559Y0166653D01*
X0080412Y0166879D01*
X0080270Y0167109D01*
X0080134Y0167342D01*
X0080004Y0167579D01*
X0079880Y0167818D01*
X0079761Y0168061D01*
X0079649Y0168306D01*
X0079542Y0168554D01*
X0079442Y0168805D01*
X0079348Y0169058D01*
X0079260Y0169314D01*
X0079179Y0169571D01*
X0079103Y0169830D01*
X0079035Y0170091D01*
X0078972Y0170354D01*
X0078916Y0170618D01*
X0078867Y0170883D01*
X0078824Y0171150D01*
X0078788Y0171417D01*
X0078758Y0171686D01*
X0078735Y0171955D01*
X0078718Y0172224D01*
X0078708Y0172494D01*
X0078705Y0172764D01*
X0093205Y0179264D02*
X0094705Y0179264D01*
X0096205Y0179264D01*
X0094705Y0179264D02*
X0094705Y0177764D01*
X0094705Y0179264D02*
X0094705Y0180764D01*
X0101769Y0186015D02*
X0103504Y0186015D01*
X0103070Y0187316D02*
X0101769Y0186015D01*
X0103070Y0184714D02*
X0103070Y0187316D01*
X0104716Y0187316D02*
X0106450Y0187316D01*
X0106450Y0186882D01*
X0104716Y0185147D01*
X0104716Y0184714D01*
X0107662Y0185147D02*
X0108096Y0184714D01*
X0108963Y0184714D01*
X0109397Y0185147D01*
X0109397Y0185581D01*
X0108963Y0186015D01*
X0108529Y0186015D01*
X0108963Y0186015D02*
X0109397Y0186449D01*
X0109397Y0186882D01*
X0108963Y0187316D01*
X0108096Y0187316D01*
X0107662Y0186882D01*
X0110609Y0187316D02*
X0111910Y0187316D01*
X0112343Y0186882D01*
X0112343Y0186015D01*
X0111910Y0185581D01*
X0110609Y0185581D01*
X0111476Y0185581D02*
X0112343Y0184714D01*
X0110609Y0184714D02*
X0110609Y0187316D01*
X0098336Y0193097D02*
X0097903Y0192664D01*
X0097035Y0192664D01*
X0096602Y0193097D01*
X0096602Y0193965D01*
X0097903Y0193965D01*
X0098336Y0193531D01*
X0098336Y0193097D01*
X0097469Y0194832D02*
X0096602Y0193965D01*
X0097469Y0194832D02*
X0098336Y0195266D01*
X0095390Y0194832D02*
X0094956Y0195266D01*
X0094089Y0195266D01*
X0093655Y0194832D01*
X0095390Y0194832D02*
X0095390Y0194399D01*
X0093655Y0192664D01*
X0095390Y0192664D01*
X0091553Y0198514D02*
X0090685Y0198514D01*
X0090252Y0198947D01*
X0090252Y0199815D02*
X0091119Y0200249D01*
X0091553Y0200249D01*
X0091986Y0199815D01*
X0091986Y0198947D01*
X0091553Y0198514D01*
X0090252Y0199815D02*
X0090252Y0201116D01*
X0091986Y0201116D01*
X0089040Y0200682D02*
X0088606Y0201116D01*
X0087739Y0201116D01*
X0087305Y0200682D01*
X0089040Y0200682D02*
X0089040Y0200249D01*
X0087305Y0198514D01*
X0089040Y0198514D01*
X0075905Y0198461D02*
X0075905Y0197594D01*
X0075471Y0197160D01*
X0073737Y0198895D01*
X0075471Y0198895D01*
X0075905Y0198461D01*
X0075471Y0197160D02*
X0073737Y0197160D01*
X0073303Y0197594D01*
X0073303Y0198461D01*
X0073737Y0198895D01*
X0074604Y0200107D02*
X0073737Y0200974D01*
X0073303Y0201842D01*
X0073737Y0203053D02*
X0075471Y0203053D01*
X0075905Y0203487D01*
X0075905Y0204354D01*
X0075471Y0204788D01*
X0073737Y0204788D02*
X0073303Y0204354D01*
X0073303Y0203487D01*
X0073737Y0203053D01*
X0075038Y0201842D02*
X0074604Y0201408D01*
X0074604Y0200107D01*
X0075471Y0200107D01*
X0075905Y0200540D01*
X0075905Y0201408D01*
X0075471Y0201842D01*
X0075038Y0201842D01*
X0075905Y0195949D02*
X0075905Y0194214D01*
X0075905Y0195081D02*
X0073303Y0195081D01*
X0074170Y0194214D01*
X0110653Y0231031D02*
X0113255Y0231031D01*
X0113255Y0230164D02*
X0113255Y0231899D01*
X0112821Y0233110D02*
X0113255Y0233544D01*
X0113255Y0234411D01*
X0112821Y0234845D01*
X0111087Y0234845D01*
X0112821Y0233110D01*
X0111087Y0233110D01*
X0110653Y0233544D01*
X0110653Y0234411D01*
X0111087Y0234845D01*
X0111954Y0236057D02*
X0111954Y0237358D01*
X0112388Y0237792D01*
X0112821Y0237792D01*
X0113255Y0237358D01*
X0113255Y0236490D01*
X0112821Y0236057D01*
X0111954Y0236057D01*
X0111087Y0236924D01*
X0110653Y0237792D01*
X0111087Y0239003D02*
X0112821Y0239003D01*
X0113255Y0239437D01*
X0113255Y0240304D01*
X0112821Y0240738D01*
X0111087Y0240738D02*
X0110653Y0240304D01*
X0110653Y0239437D01*
X0111087Y0239003D01*
X0110653Y0231031D02*
X0111520Y0230164D01*
X0097105Y0256364D02*
X0097105Y0258099D01*
X0097105Y0257231D02*
X0094503Y0257231D01*
X0095370Y0256364D01*
X0094937Y0259310D02*
X0094503Y0259744D01*
X0094503Y0260611D01*
X0094937Y0261045D01*
X0096671Y0259310D01*
X0097105Y0259744D01*
X0097105Y0260611D01*
X0096671Y0261045D01*
X0094937Y0261045D01*
X0094937Y0262257D02*
X0095370Y0262257D01*
X0095804Y0262690D01*
X0095804Y0263558D01*
X0096238Y0263992D01*
X0096671Y0263992D01*
X0097105Y0263558D01*
X0097105Y0262690D01*
X0096671Y0262257D01*
X0096238Y0262257D01*
X0095804Y0262690D01*
X0095804Y0263558D02*
X0095370Y0263992D01*
X0094937Y0263992D01*
X0094503Y0263558D01*
X0094503Y0262690D01*
X0094937Y0262257D01*
X0094937Y0265203D02*
X0096671Y0265203D01*
X0097105Y0265637D01*
X0097105Y0266504D01*
X0096671Y0266938D01*
X0094937Y0266938D02*
X0094503Y0266504D01*
X0094503Y0265637D01*
X0094937Y0265203D01*
X0094937Y0259310D02*
X0096671Y0259310D01*
X0090005Y0259964D02*
X0081005Y0259964D01*
X0081005Y0257464D01*
X0085505Y0257464D01*
X0090005Y0257464D01*
X0090005Y0259964D01*
X0068005Y0260964D02*
X0068010Y0261393D01*
X0068026Y0261823D01*
X0068052Y0262251D01*
X0068089Y0262679D01*
X0068137Y0263106D01*
X0068194Y0263532D01*
X0068263Y0263956D01*
X0068341Y0264378D01*
X0068430Y0264798D01*
X0068529Y0265216D01*
X0068639Y0265631D01*
X0068759Y0266044D01*
X0068888Y0266453D01*
X0069028Y0266860D01*
X0069178Y0267262D01*
X0069337Y0267661D01*
X0069506Y0268056D01*
X0069685Y0268446D01*
X0069874Y0268832D01*
X0070071Y0269213D01*
X0070278Y0269590D01*
X0070495Y0269961D01*
X0070720Y0270326D01*
X0070954Y0270686D01*
X0071197Y0271041D01*
X0071449Y0271389D01*
X0071709Y0271731D01*
X0071977Y0272066D01*
X0072254Y0272395D01*
X0072538Y0272716D01*
X0072831Y0273031D01*
X0073131Y0273338D01*
X0073438Y0273638D01*
X0073753Y0273931D01*
X0074074Y0274215D01*
X0074403Y0274492D01*
X0074738Y0274760D01*
X0075080Y0275020D01*
X0075428Y0275272D01*
X0075783Y0275515D01*
X0076143Y0275749D01*
X0076508Y0275974D01*
X0076879Y0276191D01*
X0077256Y0276398D01*
X0077637Y0276595D01*
X0078023Y0276784D01*
X0078413Y0276963D01*
X0078808Y0277132D01*
X0079207Y0277291D01*
X0079609Y0277441D01*
X0080016Y0277581D01*
X0080425Y0277710D01*
X0080838Y0277830D01*
X0081253Y0277940D01*
X0081671Y0278039D01*
X0082091Y0278128D01*
X0082513Y0278206D01*
X0082937Y0278275D01*
X0083363Y0278332D01*
X0083790Y0278380D01*
X0084218Y0278417D01*
X0084646Y0278443D01*
X0085076Y0278459D01*
X0085505Y0278464D01*
X0085934Y0278459D01*
X0086364Y0278443D01*
X0086792Y0278417D01*
X0087220Y0278380D01*
X0087647Y0278332D01*
X0088073Y0278275D01*
X0088497Y0278206D01*
X0088919Y0278128D01*
X0089339Y0278039D01*
X0089757Y0277940D01*
X0090172Y0277830D01*
X0090585Y0277710D01*
X0090994Y0277581D01*
X0091401Y0277441D01*
X0091803Y0277291D01*
X0092202Y0277132D01*
X0092597Y0276963D01*
X0092987Y0276784D01*
X0093373Y0276595D01*
X0093754Y0276398D01*
X0094131Y0276191D01*
X0094502Y0275974D01*
X0094867Y0275749D01*
X0095227Y0275515D01*
X0095582Y0275272D01*
X0095930Y0275020D01*
X0096272Y0274760D01*
X0096607Y0274492D01*
X0096936Y0274215D01*
X0097257Y0273931D01*
X0097572Y0273638D01*
X0097879Y0273338D01*
X0098179Y0273031D01*
X0098472Y0272716D01*
X0098756Y0272395D01*
X0099033Y0272066D01*
X0099301Y0271731D01*
X0099561Y0271389D01*
X0099813Y0271041D01*
X0100056Y0270686D01*
X0100290Y0270326D01*
X0100515Y0269961D01*
X0100732Y0269590D01*
X0100939Y0269213D01*
X0101136Y0268832D01*
X0101325Y0268446D01*
X0101504Y0268056D01*
X0101673Y0267661D01*
X0101832Y0267262D01*
X0101982Y0266860D01*
X0102122Y0266453D01*
X0102251Y0266044D01*
X0102371Y0265631D01*
X0102481Y0265216D01*
X0102580Y0264798D01*
X0102669Y0264378D01*
X0102747Y0263956D01*
X0102816Y0263532D01*
X0102873Y0263106D01*
X0102921Y0262679D01*
X0102958Y0262251D01*
X0102984Y0261823D01*
X0103000Y0261393D01*
X0103005Y0260964D01*
X0103000Y0260535D01*
X0102984Y0260105D01*
X0102958Y0259677D01*
X0102921Y0259249D01*
X0102873Y0258822D01*
X0102816Y0258396D01*
X0102747Y0257972D01*
X0102669Y0257550D01*
X0102580Y0257130D01*
X0102481Y0256712D01*
X0102371Y0256297D01*
X0102251Y0255884D01*
X0102122Y0255475D01*
X0101982Y0255068D01*
X0101832Y0254666D01*
X0101673Y0254267D01*
X0101504Y0253872D01*
X0101325Y0253482D01*
X0101136Y0253096D01*
X0100939Y0252715D01*
X0100732Y0252338D01*
X0100515Y0251967D01*
X0100290Y0251602D01*
X0100056Y0251242D01*
X0099813Y0250887D01*
X0099561Y0250539D01*
X0099301Y0250197D01*
X0099033Y0249862D01*
X0098756Y0249533D01*
X0098472Y0249212D01*
X0098179Y0248897D01*
X0097879Y0248590D01*
X0097572Y0248290D01*
X0097257Y0247997D01*
X0096936Y0247713D01*
X0096607Y0247436D01*
X0096272Y0247168D01*
X0095930Y0246908D01*
X0095582Y0246656D01*
X0095227Y0246413D01*
X0094867Y0246179D01*
X0094502Y0245954D01*
X0094131Y0245737D01*
X0093754Y0245530D01*
X0093373Y0245333D01*
X0092987Y0245144D01*
X0092597Y0244965D01*
X0092202Y0244796D01*
X0091803Y0244637D01*
X0091401Y0244487D01*
X0090994Y0244347D01*
X0090585Y0244218D01*
X0090172Y0244098D01*
X0089757Y0243988D01*
X0089339Y0243889D01*
X0088919Y0243800D01*
X0088497Y0243722D01*
X0088073Y0243653D01*
X0087647Y0243596D01*
X0087220Y0243548D01*
X0086792Y0243511D01*
X0086364Y0243485D01*
X0085934Y0243469D01*
X0085505Y0243464D01*
X0085076Y0243469D01*
X0084646Y0243485D01*
X0084218Y0243511D01*
X0083790Y0243548D01*
X0083363Y0243596D01*
X0082937Y0243653D01*
X0082513Y0243722D01*
X0082091Y0243800D01*
X0081671Y0243889D01*
X0081253Y0243988D01*
X0080838Y0244098D01*
X0080425Y0244218D01*
X0080016Y0244347D01*
X0079609Y0244487D01*
X0079207Y0244637D01*
X0078808Y0244796D01*
X0078413Y0244965D01*
X0078023Y0245144D01*
X0077637Y0245333D01*
X0077256Y0245530D01*
X0076879Y0245737D01*
X0076508Y0245954D01*
X0076143Y0246179D01*
X0075783Y0246413D01*
X0075428Y0246656D01*
X0075080Y0246908D01*
X0074738Y0247168D01*
X0074403Y0247436D01*
X0074074Y0247713D01*
X0073753Y0247997D01*
X0073438Y0248290D01*
X0073131Y0248590D01*
X0072831Y0248897D01*
X0072538Y0249212D01*
X0072254Y0249533D01*
X0071977Y0249862D01*
X0071709Y0250197D01*
X0071449Y0250539D01*
X0071197Y0250887D01*
X0070954Y0251242D01*
X0070720Y0251602D01*
X0070495Y0251967D01*
X0070278Y0252338D01*
X0070071Y0252715D01*
X0069874Y0253096D01*
X0069685Y0253482D01*
X0069506Y0253872D01*
X0069337Y0254267D01*
X0069178Y0254666D01*
X0069028Y0255068D01*
X0068888Y0255475D01*
X0068759Y0255884D01*
X0068639Y0256297D01*
X0068529Y0256712D01*
X0068430Y0257130D01*
X0068341Y0257550D01*
X0068263Y0257972D01*
X0068194Y0258396D01*
X0068137Y0258822D01*
X0068089Y0259249D01*
X0068052Y0259677D01*
X0068026Y0260105D01*
X0068010Y0260535D01*
X0068005Y0260964D01*
X0079005Y0249464D02*
X0079005Y0246464D01*
X0077505Y0247964D02*
X0080505Y0247964D01*
X0085505Y0256464D02*
X0085505Y0257464D01*
X0085505Y0263464D02*
X0085505Y0265464D01*
X0161185Y0188667D02*
X0161185Y0186065D01*
X0162920Y0186065D01*
X0164132Y0186499D02*
X0164566Y0186065D01*
X0165433Y0186065D01*
X0165867Y0186499D01*
X0165867Y0186932D01*
X0165433Y0187366D01*
X0164566Y0187366D01*
X0164132Y0187800D01*
X0164132Y0188233D01*
X0164566Y0188667D01*
X0165433Y0188667D01*
X0165867Y0188233D01*
X0167078Y0188667D02*
X0168379Y0188667D01*
X0168813Y0188233D01*
X0168813Y0187366D01*
X0168379Y0186932D01*
X0167078Y0186932D01*
X0167078Y0186065D02*
X0167078Y0188667D01*
X0162920Y0188667D02*
X0161185Y0188667D01*
X0161185Y0187366D02*
X0162053Y0187366D01*
X0184237Y0160288D02*
X0183803Y0159854D01*
X0183803Y0158553D01*
X0186405Y0158553D01*
X0185538Y0158553D02*
X0185538Y0159854D01*
X0185104Y0160288D01*
X0184237Y0160288D01*
X0185538Y0159421D02*
X0186405Y0160288D01*
X0185971Y0157342D02*
X0186405Y0156908D01*
X0186405Y0156040D01*
X0185971Y0155607D01*
X0185971Y0154395D02*
X0186405Y0153961D01*
X0186405Y0153094D01*
X0185971Y0152660D01*
X0184237Y0154395D01*
X0185971Y0154395D01*
X0184237Y0154395D02*
X0183803Y0153961D01*
X0183803Y0153094D01*
X0184237Y0152660D01*
X0185971Y0152660D01*
X0186405Y0151449D02*
X0186405Y0149714D01*
X0186405Y0150581D02*
X0183803Y0150581D01*
X0184670Y0149714D01*
X0184237Y0155607D02*
X0183803Y0156040D01*
X0183803Y0156908D01*
X0184237Y0157342D01*
X0184670Y0157342D01*
X0185104Y0156908D01*
X0185538Y0157342D01*
X0185971Y0157342D01*
X0185104Y0156908D02*
X0185104Y0156474D01*
X0201053Y0140935D02*
X0203655Y0140935D01*
X0202354Y0140935D02*
X0202354Y0139200D01*
X0203655Y0139200D02*
X0201053Y0139200D01*
X0201487Y0137988D02*
X0201053Y0137554D01*
X0201053Y0136687D01*
X0201487Y0136253D01*
X0203221Y0136253D01*
X0203655Y0136687D01*
X0203655Y0137554D01*
X0203221Y0137988D01*
X0203221Y0135042D02*
X0201053Y0135042D01*
X0201053Y0133307D02*
X0203221Y0133307D01*
X0203655Y0133740D01*
X0203655Y0134608D01*
X0203221Y0135042D01*
X0203221Y0132095D02*
X0201487Y0132095D01*
X0201053Y0131661D01*
X0201053Y0130794D01*
X0201487Y0130360D01*
X0203221Y0130360D01*
X0203655Y0130794D01*
X0203655Y0131661D01*
X0203221Y0132095D01*
X0201053Y0129149D02*
X0201053Y0127414D01*
X0201053Y0128281D02*
X0203655Y0128281D01*
X0205192Y0126516D02*
X0206060Y0126516D01*
X0206493Y0126082D01*
X0206493Y0124347D01*
X0206060Y0123914D01*
X0205192Y0123914D01*
X0204759Y0124347D01*
X0204759Y0126082D01*
X0205192Y0126516D01*
X0205626Y0124781D02*
X0206493Y0123914D01*
X0207705Y0124347D02*
X0208139Y0123914D01*
X0209006Y0123914D01*
X0209440Y0124347D01*
X0209440Y0124781D01*
X0209006Y0125215D01*
X0208573Y0125215D01*
X0209006Y0125215D02*
X0209440Y0125649D01*
X0209440Y0126082D01*
X0209006Y0126516D01*
X0208139Y0126516D01*
X0207705Y0126082D01*
X0197355Y0120888D02*
X0196488Y0120021D01*
X0196488Y0120454D02*
X0196488Y0119153D01*
X0197355Y0119153D02*
X0194753Y0119153D01*
X0194753Y0120454D01*
X0195187Y0120888D01*
X0196054Y0120888D01*
X0196488Y0120454D01*
X0196921Y0117942D02*
X0197355Y0117508D01*
X0197355Y0116640D01*
X0196921Y0116207D01*
X0195187Y0117942D01*
X0196921Y0117942D01*
X0195187Y0117942D02*
X0194753Y0117508D01*
X0194753Y0116640D01*
X0195187Y0116207D01*
X0196921Y0116207D01*
X0196921Y0114995D02*
X0197355Y0114561D01*
X0197355Y0113694D01*
X0196921Y0113260D01*
X0195187Y0114995D01*
X0196921Y0114995D01*
X0195187Y0114995D02*
X0194753Y0114561D01*
X0194753Y0113694D01*
X0195187Y0113260D01*
X0196921Y0113260D01*
X0197355Y0112049D02*
X0197355Y0110314D01*
X0197355Y0111181D02*
X0194753Y0111181D01*
X0195620Y0110314D01*
X0184155Y0106452D02*
X0183288Y0105585D01*
X0183288Y0106018D02*
X0183288Y0104717D01*
X0184155Y0104717D02*
X0181553Y0104717D01*
X0181553Y0106018D01*
X0181987Y0106452D01*
X0182854Y0106452D01*
X0183288Y0106018D01*
X0184155Y0103506D02*
X0184155Y0101771D01*
X0182420Y0103506D01*
X0181987Y0103506D01*
X0181553Y0103072D01*
X0181553Y0102204D01*
X0181987Y0101771D01*
X0181987Y0100559D02*
X0183721Y0098824D01*
X0184155Y0099258D01*
X0184155Y0100125D01*
X0183721Y0100559D01*
X0181987Y0100559D01*
X0181553Y0100125D01*
X0181553Y0099258D01*
X0181987Y0098824D01*
X0183721Y0098824D01*
X0184155Y0097612D02*
X0184155Y0095878D01*
X0184155Y0096745D02*
X0181553Y0096745D01*
X0182420Y0095878D01*
X0180099Y0109564D02*
X0179232Y0109564D01*
X0178798Y0109997D01*
X0180533Y0111732D01*
X0180533Y0109997D01*
X0180099Y0109564D01*
X0178798Y0109997D02*
X0178798Y0111732D01*
X0179232Y0112166D01*
X0180099Y0112166D01*
X0180533Y0111732D01*
X0177586Y0111732D02*
X0175852Y0109997D01*
X0176285Y0109564D01*
X0177153Y0109564D01*
X0177586Y0109997D01*
X0177586Y0111732D01*
X0177153Y0112166D01*
X0176285Y0112166D01*
X0175852Y0111732D01*
X0175852Y0109997D01*
X0174640Y0109997D02*
X0174206Y0109564D01*
X0173339Y0109564D01*
X0172905Y0109997D01*
X0174640Y0111732D01*
X0174640Y0109997D01*
X0172905Y0109997D02*
X0172905Y0111732D01*
X0173339Y0112166D01*
X0174206Y0112166D01*
X0174640Y0111732D01*
X0174653Y0128364D02*
X0173785Y0128364D01*
X0173352Y0128797D01*
X0175086Y0130532D01*
X0175086Y0128797D01*
X0174653Y0128364D01*
X0173352Y0128797D02*
X0173352Y0130532D01*
X0173785Y0130966D01*
X0174653Y0130966D01*
X0175086Y0130532D01*
X0176298Y0130532D02*
X0176732Y0130966D01*
X0177599Y0130966D01*
X0178033Y0130532D01*
X0178033Y0130099D01*
X0177599Y0129665D01*
X0178033Y0129231D01*
X0178033Y0128797D01*
X0177599Y0128364D01*
X0176732Y0128364D01*
X0176298Y0128797D01*
X0177166Y0129665D02*
X0177599Y0129665D01*
X0179245Y0129231D02*
X0180546Y0129231D01*
X0180979Y0129665D01*
X0180979Y0130532D01*
X0180546Y0130966D01*
X0179245Y0130966D01*
X0179245Y0128364D01*
X0180112Y0129231D02*
X0180979Y0128364D01*
X0172140Y0128364D02*
X0170405Y0128364D01*
X0171273Y0128364D02*
X0171273Y0130966D01*
X0170405Y0130099D01*
X0212269Y0100549D02*
X0213136Y0101416D01*
X0213136Y0098814D01*
X0212269Y0098814D02*
X0214004Y0098814D01*
X0215216Y0099247D02*
X0216950Y0100982D01*
X0216950Y0099247D01*
X0216517Y0098814D01*
X0215649Y0098814D01*
X0215216Y0099247D01*
X0215216Y0100982D01*
X0215649Y0101416D01*
X0216517Y0101416D01*
X0216950Y0100982D01*
X0218162Y0100982D02*
X0218596Y0101416D01*
X0219463Y0101416D01*
X0219897Y0100982D01*
X0219897Y0100549D01*
X0219463Y0100115D01*
X0219897Y0099681D01*
X0219897Y0099247D01*
X0219463Y0098814D01*
X0218596Y0098814D01*
X0218162Y0099247D01*
X0219029Y0100115D02*
X0219463Y0100115D01*
X0221109Y0099681D02*
X0222410Y0099681D01*
X0222843Y0100115D01*
X0222843Y0100982D01*
X0222410Y0101416D01*
X0221109Y0101416D01*
X0221109Y0098814D01*
X0221976Y0099681D02*
X0222843Y0098814D01*
X0219140Y0094982D02*
X0218706Y0095416D01*
X0217839Y0095416D01*
X0217405Y0094982D01*
X0216193Y0094982D02*
X0216193Y0093247D01*
X0215760Y0092814D01*
X0214892Y0092814D01*
X0214459Y0093247D01*
X0214459Y0094982D01*
X0214892Y0095416D01*
X0215760Y0095416D01*
X0216193Y0094982D01*
X0215326Y0093681D02*
X0216193Y0092814D01*
X0217405Y0092814D02*
X0219140Y0094549D01*
X0219140Y0094982D01*
X0219140Y0092814D02*
X0217405Y0092814D01*
X0251353Y0093145D02*
X0253955Y0093145D01*
X0253955Y0094357D02*
X0253955Y0096092D01*
X0253955Y0095224D02*
X0251353Y0095224D01*
X0252220Y0094357D01*
X0251353Y0093145D02*
X0252220Y0092278D01*
X0251353Y0091410D01*
X0253955Y0091410D01*
X0253955Y0090199D02*
X0253955Y0088464D01*
X0251353Y0088464D01*
X0252220Y0097303D02*
X0251353Y0098171D01*
X0253955Y0098171D01*
X0253955Y0099038D02*
X0253955Y0097303D01*
X0253955Y0100250D02*
X0253955Y0101985D01*
X0253955Y0101117D02*
X0251353Y0101117D01*
X0252220Y0100250D01*
X0251353Y0103196D02*
X0251353Y0104931D01*
X0251787Y0104931D01*
X0253521Y0103196D01*
X0253955Y0103196D01*
X0252654Y0106143D02*
X0252654Y0107878D01*
X0251787Y0109089D02*
X0251353Y0109523D01*
X0251353Y0110390D01*
X0251787Y0110824D01*
X0252220Y0110824D01*
X0252654Y0110390D01*
X0253088Y0110824D01*
X0253521Y0110824D01*
X0253955Y0110390D01*
X0253955Y0109523D01*
X0253521Y0109089D01*
X0252654Y0109957D02*
X0252654Y0110390D01*
X0253521Y0112036D02*
X0253521Y0112470D01*
X0253955Y0112470D01*
X0253955Y0112036D01*
X0253521Y0112036D01*
X0253521Y0113509D02*
X0253955Y0113943D01*
X0253955Y0114810D01*
X0253521Y0115244D01*
X0253088Y0115244D01*
X0252654Y0114810D01*
X0252654Y0114377D01*
X0252654Y0114810D02*
X0252220Y0115244D01*
X0251787Y0115244D01*
X0251353Y0114810D01*
X0251353Y0113943D01*
X0251787Y0113509D01*
X0253370Y0122614D02*
X0252503Y0123481D01*
X0255105Y0123481D01*
X0255105Y0122614D02*
X0255105Y0124349D01*
X0254671Y0125560D02*
X0252937Y0127295D01*
X0254671Y0127295D01*
X0255105Y0126861D01*
X0255105Y0125994D01*
X0254671Y0125560D01*
X0252937Y0125560D01*
X0252503Y0125994D01*
X0252503Y0126861D01*
X0252937Y0127295D01*
X0253804Y0128507D02*
X0253804Y0129808D01*
X0254238Y0130242D01*
X0254671Y0130242D01*
X0255105Y0129808D01*
X0255105Y0128940D01*
X0254671Y0128507D01*
X0253804Y0128507D01*
X0252937Y0129374D01*
X0252503Y0130242D01*
X0252937Y0131453D02*
X0254671Y0131453D01*
X0255105Y0131887D01*
X0255105Y0132754D01*
X0254671Y0133188D01*
X0252937Y0133188D02*
X0252503Y0132754D01*
X0252503Y0131887D01*
X0252937Y0131453D01*
X0255703Y0139378D02*
X0255703Y0140679D01*
X0256137Y0141112D01*
X0257871Y0141112D01*
X0258305Y0140679D01*
X0258305Y0139378D01*
X0255703Y0139378D01*
X0255703Y0142324D02*
X0258305Y0142324D01*
X0257438Y0143192D01*
X0258305Y0144059D01*
X0255703Y0144059D01*
X0256137Y0145271D02*
X0255703Y0145704D01*
X0255703Y0146572D01*
X0256137Y0147006D01*
X0257871Y0145271D01*
X0258305Y0145704D01*
X0258305Y0146572D01*
X0257871Y0147006D01*
X0256137Y0147006D01*
X0256570Y0148217D02*
X0255703Y0149085D01*
X0258305Y0149085D01*
X0258305Y0149952D02*
X0258305Y0148217D01*
X0257871Y0145271D02*
X0256137Y0145271D01*
X0253871Y0159764D02*
X0253438Y0159764D01*
X0253004Y0160197D01*
X0253004Y0161065D01*
X0253438Y0161499D01*
X0253871Y0161499D01*
X0254305Y0161065D01*
X0254305Y0160197D01*
X0253871Y0159764D01*
X0253004Y0160197D02*
X0252570Y0159764D01*
X0252137Y0159764D01*
X0251703Y0160197D01*
X0251703Y0161065D01*
X0252137Y0161499D01*
X0252570Y0161499D01*
X0253004Y0161065D01*
X0252137Y0162710D02*
X0251703Y0163144D01*
X0251703Y0164011D01*
X0252137Y0164445D01*
X0252570Y0164445D01*
X0254305Y0162710D01*
X0254305Y0164445D01*
X0253871Y0165657D02*
X0252137Y0167392D01*
X0253871Y0167392D01*
X0254305Y0166958D01*
X0254305Y0166090D01*
X0253871Y0165657D01*
X0252137Y0165657D01*
X0251703Y0166090D01*
X0251703Y0166958D01*
X0252137Y0167392D01*
X0251703Y0168603D02*
X0253004Y0168603D01*
X0252570Y0169471D01*
X0252570Y0169904D01*
X0253004Y0170338D01*
X0253871Y0170338D01*
X0254305Y0169904D01*
X0254305Y0169037D01*
X0253871Y0168603D01*
X0251703Y0168603D02*
X0251703Y0170338D01*
X0252570Y0171550D02*
X0251703Y0172417D01*
X0252570Y0173285D01*
X0254305Y0173285D01*
X0253004Y0173285D02*
X0253004Y0171550D01*
X0252570Y0171550D02*
X0254305Y0171550D01*
X0274053Y0190801D02*
X0274487Y0190367D01*
X0274920Y0190367D01*
X0275354Y0190801D01*
X0275354Y0191668D01*
X0275788Y0192102D01*
X0276221Y0192102D01*
X0276655Y0191668D01*
X0276655Y0190801D01*
X0276221Y0190367D01*
X0274053Y0190801D02*
X0274053Y0191668D01*
X0274487Y0192102D01*
X0275354Y0193314D02*
X0274053Y0194615D01*
X0276655Y0194615D01*
X0275354Y0195049D02*
X0275354Y0193314D01*
X0263399Y0205764D02*
X0262532Y0205764D01*
X0262098Y0206197D01*
X0263833Y0207932D01*
X0263833Y0206197D01*
X0263399Y0205764D01*
X0262098Y0206197D02*
X0262098Y0207932D01*
X0262532Y0208366D01*
X0263399Y0208366D01*
X0263833Y0207932D01*
X0260886Y0207932D02*
X0259152Y0206197D01*
X0259585Y0205764D01*
X0260453Y0205764D01*
X0260886Y0206197D01*
X0260886Y0207932D01*
X0260453Y0208366D01*
X0259585Y0208366D01*
X0259152Y0207932D01*
X0259152Y0206197D01*
X0257940Y0206197D02*
X0257940Y0207932D01*
X0256205Y0206197D01*
X0256639Y0205764D01*
X0257506Y0205764D01*
X0257940Y0206197D01*
X0256205Y0206197D02*
X0256205Y0207932D01*
X0256639Y0208366D01*
X0257506Y0208366D01*
X0257940Y0207932D01*
X0252255Y0208158D02*
X0251821Y0207724D01*
X0250087Y0209459D01*
X0251821Y0209459D01*
X0252255Y0209025D01*
X0252255Y0208158D01*
X0251821Y0207724D02*
X0250087Y0207724D01*
X0249653Y0208158D01*
X0249653Y0209025D01*
X0250087Y0209459D01*
X0250954Y0210671D02*
X0250954Y0212406D01*
X0251388Y0213617D02*
X0251388Y0214918D01*
X0250954Y0215352D01*
X0250087Y0215352D01*
X0249653Y0214918D01*
X0249653Y0213617D01*
X0252255Y0213617D01*
X0251388Y0214485D02*
X0252255Y0215352D01*
X0252255Y0211972D02*
X0249653Y0211972D01*
X0250954Y0210671D01*
X0252255Y0206512D02*
X0252255Y0204778D01*
X0252255Y0205645D02*
X0249653Y0205645D01*
X0250520Y0204778D01*
X0244855Y0204914D02*
X0244855Y0206649D01*
X0244855Y0205781D02*
X0242253Y0205781D01*
X0243120Y0204914D01*
X0242687Y0207860D02*
X0242253Y0208294D01*
X0242253Y0209161D01*
X0242687Y0209595D01*
X0244421Y0207860D01*
X0244855Y0208294D01*
X0244855Y0209161D01*
X0244421Y0209595D01*
X0242687Y0209595D01*
X0243554Y0210807D02*
X0242253Y0212108D01*
X0244855Y0212108D01*
X0243554Y0212542D02*
X0243554Y0210807D01*
X0243988Y0213753D02*
X0243988Y0215054D01*
X0243554Y0215488D01*
X0242687Y0215488D01*
X0242253Y0215054D01*
X0242253Y0213753D01*
X0244855Y0213753D01*
X0243988Y0214621D02*
X0244855Y0215488D01*
X0244421Y0207860D02*
X0242687Y0207860D01*
X0236157Y0220270D02*
X0235983Y0220270D01*
X0236157Y0220270D02*
X0236157Y0226057D01*
X0235983Y0226057D01*
X0232810Y0226057D02*
X0228700Y0226057D01*
X0225527Y0226057D02*
X0225354Y0226057D01*
X0225354Y0220270D01*
X0225527Y0220270D01*
X0228700Y0220270D02*
X0229070Y0220270D01*
X0232440Y0220270D02*
X0232810Y0220270D01*
X0221793Y0210532D02*
X0221360Y0210966D01*
X0220492Y0210966D01*
X0220059Y0210532D01*
X0220059Y0208797D01*
X0220492Y0208364D01*
X0221360Y0208364D01*
X0221793Y0208797D01*
X0218847Y0208797D02*
X0218847Y0209231D01*
X0218413Y0209665D01*
X0217112Y0209665D01*
X0217112Y0208797D01*
X0217546Y0208364D01*
X0218413Y0208364D01*
X0218847Y0208797D01*
X0217979Y0210532D02*
X0217112Y0209665D01*
X0217979Y0210532D02*
X0218847Y0210966D01*
X0215900Y0210532D02*
X0214166Y0208797D01*
X0214599Y0208364D01*
X0215467Y0208364D01*
X0215900Y0208797D01*
X0215900Y0210532D01*
X0215467Y0210966D01*
X0214599Y0210966D01*
X0214166Y0210532D01*
X0214166Y0208797D01*
X0212954Y0208364D02*
X0211219Y0208364D01*
X0212086Y0208364D02*
X0212086Y0210966D01*
X0211219Y0210099D01*
X0212870Y0217414D02*
X0212003Y0218281D01*
X0214605Y0218281D01*
X0214605Y0217414D02*
X0214605Y0219149D01*
X0214605Y0220360D02*
X0214605Y0222095D01*
X0214605Y0221228D02*
X0212003Y0221228D01*
X0212870Y0220360D01*
X0212437Y0223307D02*
X0212003Y0223740D01*
X0212003Y0224608D01*
X0212437Y0225042D01*
X0212870Y0225042D01*
X0214605Y0223307D01*
X0214605Y0225042D01*
X0214605Y0226253D02*
X0212003Y0226253D01*
X0212003Y0227554D01*
X0212437Y0227988D01*
X0213304Y0227988D01*
X0213738Y0227554D01*
X0213738Y0226253D01*
X0213738Y0227121D02*
X0214605Y0227988D01*
X0208555Y0226008D02*
X0205953Y0226008D01*
X0207254Y0224707D01*
X0207254Y0226442D01*
X0205953Y0223495D02*
X0205953Y0221760D01*
X0205953Y0222628D02*
X0208555Y0222628D01*
X0208555Y0220549D02*
X0208555Y0218814D01*
X0205953Y0218814D01*
X0211619Y0235214D02*
X0213354Y0235214D01*
X0212486Y0235214D02*
X0212486Y0237816D01*
X0211619Y0236949D01*
X0214566Y0237382D02*
X0214999Y0237816D01*
X0215867Y0237816D01*
X0216300Y0237382D01*
X0214566Y0235647D01*
X0214999Y0235214D01*
X0215867Y0235214D01*
X0216300Y0235647D01*
X0216300Y0237382D01*
X0217512Y0236515D02*
X0218813Y0236515D01*
X0219247Y0236081D01*
X0219247Y0235647D01*
X0218813Y0235214D01*
X0217946Y0235214D01*
X0217512Y0235647D01*
X0217512Y0236515D01*
X0218379Y0237382D01*
X0219247Y0237816D01*
X0220459Y0237382D02*
X0220459Y0235647D01*
X0220892Y0235214D01*
X0221760Y0235214D01*
X0222193Y0235647D01*
X0222193Y0237382D02*
X0221760Y0237816D01*
X0220892Y0237816D01*
X0220459Y0237382D01*
X0214566Y0237382D02*
X0214566Y0235647D01*
X0247605Y0237897D02*
X0248039Y0237464D01*
X0248906Y0237464D01*
X0249340Y0237897D01*
X0249340Y0238331D01*
X0248906Y0238765D01*
X0247605Y0238765D01*
X0247605Y0237897D01*
X0247605Y0238765D02*
X0248473Y0239632D01*
X0249340Y0240066D01*
X0250552Y0239632D02*
X0250985Y0240066D01*
X0251853Y0240066D01*
X0252286Y0239632D01*
X0252286Y0239199D01*
X0251853Y0238765D01*
X0250985Y0238765D01*
X0250552Y0239199D01*
X0250552Y0239632D01*
X0250985Y0238765D02*
X0250552Y0238331D01*
X0250552Y0237897D01*
X0250985Y0237464D01*
X0251853Y0237464D01*
X0252286Y0237897D01*
X0252286Y0238331D01*
X0251853Y0238765D01*
X0253498Y0239632D02*
X0253932Y0240066D01*
X0254799Y0240066D01*
X0255233Y0239632D01*
X0255233Y0239199D01*
X0253498Y0237464D01*
X0255233Y0237464D01*
X0256445Y0237464D02*
X0256445Y0240066D01*
X0257746Y0240066D01*
X0258179Y0239632D01*
X0258179Y0238765D01*
X0257746Y0238331D01*
X0256445Y0238331D01*
X0257312Y0238331D02*
X0258179Y0237464D01*
X0261005Y0237997D02*
X0261439Y0237564D01*
X0262306Y0237564D01*
X0262740Y0237997D01*
X0262740Y0238431D01*
X0262306Y0238865D01*
X0261005Y0238865D01*
X0261005Y0237997D01*
X0261005Y0238865D02*
X0261873Y0239732D01*
X0262740Y0240166D01*
X0263952Y0239732D02*
X0264385Y0240166D01*
X0265253Y0240166D01*
X0265686Y0239732D01*
X0265686Y0239299D01*
X0265253Y0238865D01*
X0264385Y0238865D01*
X0263952Y0239299D01*
X0263952Y0239732D01*
X0264385Y0238865D02*
X0263952Y0238431D01*
X0263952Y0237997D01*
X0264385Y0237564D01*
X0265253Y0237564D01*
X0265686Y0237997D01*
X0265686Y0238431D01*
X0265253Y0238865D01*
X0266898Y0239732D02*
X0267332Y0240166D01*
X0268199Y0240166D01*
X0268633Y0239732D01*
X0268633Y0239299D01*
X0266898Y0237564D01*
X0268633Y0237564D01*
X0269845Y0237564D02*
X0269845Y0240166D01*
X0271146Y0240166D01*
X0271579Y0239732D01*
X0271579Y0238865D01*
X0271146Y0238431D01*
X0269845Y0238431D01*
X0270712Y0238431D02*
X0271579Y0237564D01*
X0277853Y0232897D02*
X0278287Y0233331D01*
X0280021Y0231596D01*
X0280455Y0232030D01*
X0280455Y0232897D01*
X0280021Y0233331D01*
X0278287Y0233331D01*
X0277853Y0232897D02*
X0277853Y0232030D01*
X0278287Y0231596D01*
X0280021Y0231596D01*
X0280021Y0230385D02*
X0280455Y0229951D01*
X0280455Y0229084D01*
X0280021Y0228650D01*
X0279588Y0228650D01*
X0279154Y0229084D01*
X0279154Y0229951D01*
X0279588Y0230385D01*
X0280021Y0230385D01*
X0279154Y0229951D02*
X0278720Y0230385D01*
X0278287Y0230385D01*
X0277853Y0229951D01*
X0277853Y0229084D01*
X0278287Y0228650D01*
X0278720Y0228650D01*
X0279154Y0229084D01*
X0278720Y0227438D02*
X0278287Y0227438D01*
X0277853Y0227004D01*
X0277853Y0226137D01*
X0278287Y0225703D01*
X0277853Y0224492D02*
X0278287Y0223624D01*
X0279154Y0222757D01*
X0279154Y0224058D01*
X0279588Y0224492D01*
X0280021Y0224492D01*
X0280455Y0224058D01*
X0280455Y0223190D01*
X0280021Y0222757D01*
X0279154Y0222757D01*
X0278287Y0221545D02*
X0277853Y0221545D01*
X0278287Y0221545D02*
X0279154Y0220678D01*
X0280455Y0220678D01*
X0279154Y0220678D02*
X0278287Y0219810D01*
X0277853Y0219810D01*
X0278287Y0218599D02*
X0277853Y0218165D01*
X0277853Y0217297D01*
X0278287Y0216864D01*
X0278720Y0216864D01*
X0279154Y0217297D01*
X0279154Y0218165D01*
X0279588Y0218599D01*
X0280021Y0218599D01*
X0280455Y0218165D01*
X0280455Y0217297D01*
X0280021Y0216864D01*
X0279549Y0214566D02*
X0278248Y0213265D01*
X0279983Y0213265D01*
X0281195Y0212831D02*
X0282496Y0212831D01*
X0282929Y0213265D01*
X0282929Y0214132D01*
X0282496Y0214566D01*
X0281195Y0214566D01*
X0281195Y0211964D01*
X0282062Y0212831D02*
X0282929Y0211964D01*
X0279549Y0211964D02*
X0279549Y0214566D01*
X0277036Y0214132D02*
X0275302Y0212397D01*
X0275735Y0211964D01*
X0276603Y0211964D01*
X0277036Y0212397D01*
X0277036Y0214132D01*
X0276603Y0214566D01*
X0275735Y0214566D01*
X0275302Y0214132D01*
X0275302Y0212397D01*
X0274090Y0211964D02*
X0272355Y0211964D01*
X0273223Y0211964D02*
X0273223Y0214566D01*
X0272355Y0213699D01*
X0265499Y0217762D02*
X0265499Y0217935D01*
X0265499Y0217762D02*
X0259711Y0217762D01*
X0259711Y0217935D01*
X0259711Y0221109D02*
X0259711Y0225219D01*
X0259711Y0228392D02*
X0259711Y0228565D01*
X0265499Y0228565D01*
X0265499Y0228392D01*
X0265499Y0225219D02*
X0265499Y0224849D01*
X0265499Y0221479D02*
X0265499Y0221109D01*
X0278720Y0227438D02*
X0280455Y0225703D01*
X0280455Y0227438D01*
X0298196Y0203866D02*
X0297762Y0203432D01*
X0297762Y0202999D01*
X0298196Y0202565D01*
X0299063Y0202565D01*
X0299497Y0202131D01*
X0299497Y0201697D01*
X0299063Y0201264D01*
X0298196Y0201264D01*
X0297762Y0201697D01*
X0298196Y0203866D02*
X0299063Y0203866D01*
X0299497Y0203432D01*
X0300709Y0202565D02*
X0302443Y0202565D01*
X0302010Y0203866D02*
X0300709Y0202565D01*
X0302010Y0201264D02*
X0302010Y0203866D01*
X0296423Y0195666D02*
X0296423Y0193064D01*
X0297290Y0193064D02*
X0295555Y0193064D01*
X0294343Y0193497D02*
X0293910Y0193064D01*
X0293042Y0193064D01*
X0292609Y0193497D01*
X0293042Y0194365D02*
X0293910Y0194365D01*
X0294343Y0193931D01*
X0294343Y0193497D01*
X0293042Y0194365D02*
X0292609Y0194799D01*
X0292609Y0195232D01*
X0293042Y0195666D01*
X0293910Y0195666D01*
X0294343Y0195232D01*
X0295555Y0194799D02*
X0296423Y0195666D01*
X0291960Y0179616D02*
X0291092Y0179616D01*
X0290659Y0179182D01*
X0290659Y0177447D01*
X0291092Y0177014D01*
X0291960Y0177014D01*
X0292393Y0177447D01*
X0292393Y0179182D02*
X0291960Y0179616D01*
X0289447Y0179616D02*
X0289447Y0179182D01*
X0287712Y0177447D01*
X0287712Y0177014D01*
X0286500Y0177447D02*
X0286067Y0177014D01*
X0285199Y0177014D01*
X0284766Y0177447D01*
X0284766Y0177881D01*
X0285199Y0178315D01*
X0286067Y0178315D01*
X0286500Y0177881D01*
X0286500Y0177447D01*
X0286067Y0178315D02*
X0286500Y0178749D01*
X0286500Y0179182D01*
X0286067Y0179616D01*
X0285199Y0179616D01*
X0284766Y0179182D01*
X0284766Y0178749D01*
X0285199Y0178315D01*
X0283554Y0177881D02*
X0283120Y0178315D01*
X0281819Y0178315D01*
X0281819Y0177447D01*
X0282253Y0177014D01*
X0283120Y0177014D01*
X0283554Y0177447D01*
X0283554Y0177881D01*
X0282686Y0179182D02*
X0281819Y0178315D01*
X0282686Y0179182D02*
X0283554Y0179616D01*
X0287712Y0179616D02*
X0289447Y0179616D01*
X0288805Y0173414D02*
X0288805Y0164414D01*
X0291305Y0164414D01*
X0291305Y0168914D01*
X0291305Y0173414D01*
X0288805Y0173414D01*
X0270305Y0168914D02*
X0270310Y0169343D01*
X0270326Y0169773D01*
X0270352Y0170201D01*
X0270389Y0170629D01*
X0270437Y0171056D01*
X0270494Y0171482D01*
X0270563Y0171906D01*
X0270641Y0172328D01*
X0270730Y0172748D01*
X0270829Y0173166D01*
X0270939Y0173581D01*
X0271059Y0173994D01*
X0271188Y0174403D01*
X0271328Y0174810D01*
X0271478Y0175212D01*
X0271637Y0175611D01*
X0271806Y0176006D01*
X0271985Y0176396D01*
X0272174Y0176782D01*
X0272371Y0177163D01*
X0272578Y0177540D01*
X0272795Y0177911D01*
X0273020Y0178276D01*
X0273254Y0178636D01*
X0273497Y0178991D01*
X0273749Y0179339D01*
X0274009Y0179681D01*
X0274277Y0180016D01*
X0274554Y0180345D01*
X0274838Y0180666D01*
X0275131Y0180981D01*
X0275431Y0181288D01*
X0275738Y0181588D01*
X0276053Y0181881D01*
X0276374Y0182165D01*
X0276703Y0182442D01*
X0277038Y0182710D01*
X0277380Y0182970D01*
X0277728Y0183222D01*
X0278083Y0183465D01*
X0278443Y0183699D01*
X0278808Y0183924D01*
X0279179Y0184141D01*
X0279556Y0184348D01*
X0279937Y0184545D01*
X0280323Y0184734D01*
X0280713Y0184913D01*
X0281108Y0185082D01*
X0281507Y0185241D01*
X0281909Y0185391D01*
X0282316Y0185531D01*
X0282725Y0185660D01*
X0283138Y0185780D01*
X0283553Y0185890D01*
X0283971Y0185989D01*
X0284391Y0186078D01*
X0284813Y0186156D01*
X0285237Y0186225D01*
X0285663Y0186282D01*
X0286090Y0186330D01*
X0286518Y0186367D01*
X0286946Y0186393D01*
X0287376Y0186409D01*
X0287805Y0186414D01*
X0288234Y0186409D01*
X0288664Y0186393D01*
X0289092Y0186367D01*
X0289520Y0186330D01*
X0289947Y0186282D01*
X0290373Y0186225D01*
X0290797Y0186156D01*
X0291219Y0186078D01*
X0291639Y0185989D01*
X0292057Y0185890D01*
X0292472Y0185780D01*
X0292885Y0185660D01*
X0293294Y0185531D01*
X0293701Y0185391D01*
X0294103Y0185241D01*
X0294502Y0185082D01*
X0294897Y0184913D01*
X0295287Y0184734D01*
X0295673Y0184545D01*
X0296054Y0184348D01*
X0296431Y0184141D01*
X0296802Y0183924D01*
X0297167Y0183699D01*
X0297527Y0183465D01*
X0297882Y0183222D01*
X0298230Y0182970D01*
X0298572Y0182710D01*
X0298907Y0182442D01*
X0299236Y0182165D01*
X0299557Y0181881D01*
X0299872Y0181588D01*
X0300179Y0181288D01*
X0300479Y0180981D01*
X0300772Y0180666D01*
X0301056Y0180345D01*
X0301333Y0180016D01*
X0301601Y0179681D01*
X0301861Y0179339D01*
X0302113Y0178991D01*
X0302356Y0178636D01*
X0302590Y0178276D01*
X0302815Y0177911D01*
X0303032Y0177540D01*
X0303239Y0177163D01*
X0303436Y0176782D01*
X0303625Y0176396D01*
X0303804Y0176006D01*
X0303973Y0175611D01*
X0304132Y0175212D01*
X0304282Y0174810D01*
X0304422Y0174403D01*
X0304551Y0173994D01*
X0304671Y0173581D01*
X0304781Y0173166D01*
X0304880Y0172748D01*
X0304969Y0172328D01*
X0305047Y0171906D01*
X0305116Y0171482D01*
X0305173Y0171056D01*
X0305221Y0170629D01*
X0305258Y0170201D01*
X0305284Y0169773D01*
X0305300Y0169343D01*
X0305305Y0168914D01*
X0305300Y0168485D01*
X0305284Y0168055D01*
X0305258Y0167627D01*
X0305221Y0167199D01*
X0305173Y0166772D01*
X0305116Y0166346D01*
X0305047Y0165922D01*
X0304969Y0165500D01*
X0304880Y0165080D01*
X0304781Y0164662D01*
X0304671Y0164247D01*
X0304551Y0163834D01*
X0304422Y0163425D01*
X0304282Y0163018D01*
X0304132Y0162616D01*
X0303973Y0162217D01*
X0303804Y0161822D01*
X0303625Y0161432D01*
X0303436Y0161046D01*
X0303239Y0160665D01*
X0303032Y0160288D01*
X0302815Y0159917D01*
X0302590Y0159552D01*
X0302356Y0159192D01*
X0302113Y0158837D01*
X0301861Y0158489D01*
X0301601Y0158147D01*
X0301333Y0157812D01*
X0301056Y0157483D01*
X0300772Y0157162D01*
X0300479Y0156847D01*
X0300179Y0156540D01*
X0299872Y0156240D01*
X0299557Y0155947D01*
X0299236Y0155663D01*
X0298907Y0155386D01*
X0298572Y0155118D01*
X0298230Y0154858D01*
X0297882Y0154606D01*
X0297527Y0154363D01*
X0297167Y0154129D01*
X0296802Y0153904D01*
X0296431Y0153687D01*
X0296054Y0153480D01*
X0295673Y0153283D01*
X0295287Y0153094D01*
X0294897Y0152915D01*
X0294502Y0152746D01*
X0294103Y0152587D01*
X0293701Y0152437D01*
X0293294Y0152297D01*
X0292885Y0152168D01*
X0292472Y0152048D01*
X0292057Y0151938D01*
X0291639Y0151839D01*
X0291219Y0151750D01*
X0290797Y0151672D01*
X0290373Y0151603D01*
X0289947Y0151546D01*
X0289520Y0151498D01*
X0289092Y0151461D01*
X0288664Y0151435D01*
X0288234Y0151419D01*
X0287805Y0151414D01*
X0287376Y0151419D01*
X0286946Y0151435D01*
X0286518Y0151461D01*
X0286090Y0151498D01*
X0285663Y0151546D01*
X0285237Y0151603D01*
X0284813Y0151672D01*
X0284391Y0151750D01*
X0283971Y0151839D01*
X0283553Y0151938D01*
X0283138Y0152048D01*
X0282725Y0152168D01*
X0282316Y0152297D01*
X0281909Y0152437D01*
X0281507Y0152587D01*
X0281108Y0152746D01*
X0280713Y0152915D01*
X0280323Y0153094D01*
X0279937Y0153283D01*
X0279556Y0153480D01*
X0279179Y0153687D01*
X0278808Y0153904D01*
X0278443Y0154129D01*
X0278083Y0154363D01*
X0277728Y0154606D01*
X0277380Y0154858D01*
X0277038Y0155118D01*
X0276703Y0155386D01*
X0276374Y0155663D01*
X0276053Y0155947D01*
X0275738Y0156240D01*
X0275431Y0156540D01*
X0275131Y0156847D01*
X0274838Y0157162D01*
X0274554Y0157483D01*
X0274277Y0157812D01*
X0274009Y0158147D01*
X0273749Y0158489D01*
X0273497Y0158837D01*
X0273254Y0159192D01*
X0273020Y0159552D01*
X0272795Y0159917D01*
X0272578Y0160288D01*
X0272371Y0160665D01*
X0272174Y0161046D01*
X0271985Y0161432D01*
X0271806Y0161822D01*
X0271637Y0162217D01*
X0271478Y0162616D01*
X0271328Y0163018D01*
X0271188Y0163425D01*
X0271059Y0163834D01*
X0270939Y0164247D01*
X0270829Y0164662D01*
X0270730Y0165080D01*
X0270641Y0165500D01*
X0270563Y0165922D01*
X0270494Y0166346D01*
X0270437Y0166772D01*
X0270389Y0167199D01*
X0270352Y0167627D01*
X0270326Y0168055D01*
X0270310Y0168485D01*
X0270305Y0168914D01*
X0283305Y0168914D02*
X0285305Y0168914D01*
X0291305Y0168914D02*
X0292305Y0168914D01*
X0299305Y0162414D02*
X0302305Y0162414D01*
X0300805Y0160914D02*
X0300805Y0163914D01*
X0302005Y0153688D02*
X0302873Y0153688D01*
X0303307Y0153255D01*
X0303307Y0151954D01*
X0304174Y0151954D02*
X0301572Y0151954D01*
X0301572Y0153255D01*
X0302005Y0153688D01*
X0303307Y0152821D02*
X0304174Y0153688D01*
X0304174Y0150742D02*
X0304174Y0149007D01*
X0304174Y0149875D02*
X0301572Y0149875D01*
X0302439Y0149007D01*
X0302005Y0147795D02*
X0303740Y0146061D01*
X0304174Y0146494D01*
X0304174Y0147362D01*
X0303740Y0147795D01*
X0302005Y0147795D01*
X0301572Y0147362D01*
X0301572Y0146494D01*
X0302005Y0146061D01*
X0303740Y0146061D01*
X0304174Y0144849D02*
X0304174Y0143114D01*
X0304174Y0143982D02*
X0301572Y0143982D01*
X0302439Y0143114D01*
X0305392Y0136716D02*
X0304959Y0136282D01*
X0304959Y0135849D01*
X0305392Y0135415D01*
X0306260Y0135415D01*
X0306693Y0134981D01*
X0306693Y0134547D01*
X0306260Y0134114D01*
X0305392Y0134114D01*
X0304959Y0134547D01*
X0305392Y0136716D02*
X0306260Y0136716D01*
X0306693Y0136282D01*
X0307905Y0135849D02*
X0308773Y0136716D01*
X0308773Y0134114D01*
X0309640Y0134114D02*
X0307905Y0134114D01*
X0290805Y0129165D02*
X0288203Y0129165D01*
X0289504Y0127864D01*
X0289504Y0129599D01*
X0289938Y0126652D02*
X0290371Y0126652D01*
X0290805Y0126218D01*
X0290805Y0125351D01*
X0290371Y0124917D01*
X0289504Y0125351D02*
X0289504Y0126218D01*
X0289938Y0126652D01*
X0288637Y0126652D02*
X0288203Y0126218D01*
X0288203Y0125351D01*
X0288637Y0124917D01*
X0289070Y0124917D01*
X0289504Y0125351D01*
X0280543Y0119432D02*
X0280543Y0118565D01*
X0280110Y0118131D01*
X0278809Y0118131D01*
X0279676Y0118131D02*
X0280543Y0117264D01*
X0280946Y0115766D02*
X0280078Y0115766D01*
X0279645Y0115332D01*
X0279645Y0113597D01*
X0280078Y0113164D01*
X0280946Y0113164D01*
X0281379Y0113597D01*
X0281379Y0115332D02*
X0280946Y0115766D01*
X0278433Y0115766D02*
X0277566Y0115332D01*
X0276698Y0114465D01*
X0277999Y0114465D01*
X0278433Y0114031D01*
X0278433Y0113597D01*
X0277999Y0113164D01*
X0277132Y0113164D01*
X0276698Y0113597D01*
X0276698Y0114465D01*
X0275486Y0115332D02*
X0273752Y0113597D01*
X0274185Y0113164D01*
X0275053Y0113164D01*
X0275486Y0113597D01*
X0275486Y0115332D01*
X0275053Y0115766D01*
X0274185Y0115766D01*
X0273752Y0115332D01*
X0273752Y0113597D01*
X0272540Y0113164D02*
X0270805Y0113164D01*
X0271673Y0113164D02*
X0271673Y0115766D01*
X0270805Y0114899D01*
X0270836Y0117264D02*
X0270836Y0119866D01*
X0269969Y0118999D01*
X0269969Y0117264D02*
X0271704Y0117264D01*
X0272916Y0117697D02*
X0274650Y0119432D01*
X0274650Y0117697D01*
X0274217Y0117264D01*
X0273349Y0117264D01*
X0272916Y0117697D01*
X0272916Y0119432D01*
X0273349Y0119866D01*
X0274217Y0119866D01*
X0274650Y0119432D01*
X0275862Y0119432D02*
X0276296Y0119866D01*
X0277163Y0119866D01*
X0277597Y0119432D01*
X0277597Y0118999D01*
X0277163Y0118565D01*
X0277597Y0118131D01*
X0277597Y0117697D01*
X0277163Y0117264D01*
X0276296Y0117264D01*
X0275862Y0117697D01*
X0276729Y0118565D02*
X0277163Y0118565D01*
X0278809Y0119866D02*
X0280110Y0119866D01*
X0280543Y0119432D01*
X0278809Y0119866D02*
X0278809Y0117264D01*
X0280589Y0139714D02*
X0279722Y0140582D01*
X0282324Y0140582D01*
X0282324Y0141449D02*
X0282324Y0139714D01*
X0281890Y0142661D02*
X0280155Y0142661D01*
X0279722Y0143094D01*
X0279722Y0143962D01*
X0280155Y0144395D01*
X0281890Y0142661D01*
X0282324Y0143094D01*
X0282324Y0143962D01*
X0281890Y0144395D01*
X0280155Y0144395D01*
X0280155Y0145607D02*
X0279722Y0146041D01*
X0279722Y0146908D01*
X0280155Y0147342D01*
X0280589Y0147342D01*
X0282324Y0145607D01*
X0282324Y0147342D01*
X0282324Y0148554D02*
X0279722Y0148554D01*
X0279722Y0149855D01*
X0280155Y0150288D01*
X0281023Y0150288D01*
X0281457Y0149855D01*
X0281457Y0148554D01*
X0281457Y0149421D02*
X0282324Y0150288D01*
X0241805Y0139004D02*
X0241371Y0139438D01*
X0241805Y0139004D02*
X0241805Y0138137D01*
X0241371Y0137703D01*
X0239637Y0137703D01*
X0239203Y0138137D01*
X0239203Y0139004D01*
X0239637Y0139438D01*
X0239203Y0136492D02*
X0239637Y0135624D01*
X0240504Y0134757D01*
X0240504Y0136058D01*
X0240938Y0136492D01*
X0241371Y0136492D01*
X0241805Y0136058D01*
X0241805Y0135190D01*
X0241371Y0134757D01*
X0240504Y0134757D01*
X0239637Y0133545D02*
X0241371Y0131810D01*
X0241805Y0132244D01*
X0241805Y0133111D01*
X0241371Y0133545D01*
X0239637Y0133545D01*
X0239203Y0133111D01*
X0239203Y0132244D01*
X0239637Y0131810D01*
X0241371Y0131810D01*
X0241805Y0130599D02*
X0241805Y0128864D01*
X0241805Y0129731D02*
X0239203Y0129731D01*
X0240070Y0128864D01*
X0150253Y0014516D02*
X0148518Y0014516D01*
X0149385Y0014516D02*
X0149385Y0011914D01*
X0147306Y0014516D02*
X0145571Y0011914D01*
X0024643Y0035864D02*
X0023776Y0036731D01*
X0024210Y0036731D02*
X0022909Y0036731D01*
X0022909Y0035864D02*
X0022909Y0038466D01*
X0024210Y0038466D01*
X0024643Y0038032D01*
X0024643Y0037165D01*
X0024210Y0036731D01*
X0021697Y0036731D02*
X0021697Y0036297D01*
X0021263Y0035864D01*
X0020396Y0035864D01*
X0019962Y0036297D01*
X0018750Y0036297D02*
X0018317Y0035864D01*
X0017449Y0035864D01*
X0017016Y0036297D01*
X0018750Y0038032D01*
X0018750Y0036297D01*
X0017016Y0036297D02*
X0017016Y0038032D01*
X0017449Y0038466D01*
X0018317Y0038466D01*
X0018750Y0038032D01*
X0019962Y0038032D02*
X0020396Y0038466D01*
X0021263Y0038466D01*
X0021697Y0038032D01*
X0021697Y0037599D01*
X0021263Y0037165D01*
X0021697Y0036731D01*
X0021263Y0037165D02*
X0020829Y0037165D01*
X0015804Y0035864D02*
X0014069Y0035864D01*
X0014936Y0035864D02*
X0014936Y0038466D01*
X0014069Y0037599D01*
X0300003Y0256431D02*
X0302605Y0256431D01*
X0302605Y0255564D02*
X0302605Y0257299D01*
X0302171Y0258510D02*
X0300437Y0260245D01*
X0302171Y0260245D01*
X0302605Y0259811D01*
X0302605Y0258944D01*
X0302171Y0258510D01*
X0300437Y0258510D01*
X0300003Y0258944D01*
X0300003Y0259811D01*
X0300437Y0260245D01*
X0300437Y0261457D02*
X0300003Y0261890D01*
X0300003Y0262758D01*
X0300437Y0263192D01*
X0300870Y0263192D01*
X0302605Y0261457D01*
X0302605Y0263192D01*
X0302605Y0264403D02*
X0300003Y0264403D01*
X0300003Y0265704D01*
X0300437Y0266138D01*
X0301304Y0266138D01*
X0301738Y0265704D01*
X0301738Y0264403D01*
X0301738Y0265271D02*
X0302605Y0266138D01*
X0300003Y0256431D02*
X0300870Y0255564D01*
D12*
X0230755Y0235534D02*
X0230755Y0235294D01*
X0230055Y0210334D02*
X0230055Y0210094D01*
X0234835Y0133914D02*
X0235075Y0133914D01*
X0259685Y0127614D02*
X0259925Y0127614D01*
X0273105Y0124584D02*
X0273105Y0124344D01*
X0260505Y0062634D02*
X0260505Y0062394D01*
X0221305Y0053184D02*
X0221305Y0052944D01*
X0142205Y0094594D02*
X0142205Y0094834D01*
X0129605Y0094834D02*
X0129605Y0094594D01*
X0133105Y0114894D02*
X0133105Y0115134D01*
X0139055Y0133094D02*
X0139055Y0133334D01*
X0100675Y0124464D02*
X0100435Y0124464D01*
X0090755Y0131694D02*
X0090755Y0131934D01*
X0080725Y0115714D02*
X0080485Y0115714D01*
X0069525Y0115714D02*
X0069285Y0115714D01*
X0063575Y0115714D02*
X0063335Y0115714D01*
X0056925Y0115714D02*
X0056685Y0115714D01*
X0047005Y0123644D02*
X0047005Y0123884D01*
X0035105Y0112684D02*
X0035105Y0112444D01*
X0039655Y0085034D02*
X0039655Y0084794D01*
X0039655Y0079434D02*
X0039655Y0079194D01*
X0039655Y0073834D02*
X0039655Y0073594D01*
X0053655Y0055284D02*
X0053655Y0055044D01*
X0064505Y0026584D02*
X0064505Y0026344D01*
X0076755Y0026344D02*
X0076755Y0026584D01*
X0094135Y0054114D02*
X0094375Y0054114D01*
X0100905Y0084094D02*
X0100905Y0084334D01*
X0101255Y0097394D02*
X0101255Y0097634D01*
X0069525Y0199014D02*
X0069285Y0199014D01*
X0117235Y0234364D02*
X0117475Y0234364D01*
D13*
X0119755Y0240264D02*
X0114955Y0240264D01*
X0114955Y0228464D01*
X0119755Y0228464D01*
X0119755Y0240264D01*
X0071805Y0204914D02*
X0067005Y0204914D01*
X0067005Y0193114D01*
X0071805Y0193114D01*
X0071805Y0204914D01*
X0060305Y0205531D02*
X0060305Y0206318D01*
X0060305Y0209861D02*
X0060305Y0210649D01*
X0060305Y0214192D02*
X0060305Y0214979D01*
X0054006Y0220728D02*
X0025659Y0220728D01*
X0015423Y0220728D02*
X0005305Y0220728D01*
X0005305Y0220716D02*
X0005305Y0193417D01*
X0005290Y0192204D01*
X0005246Y0190991D01*
X0005173Y0189780D01*
X0005070Y0188572D01*
X0004937Y0187366D01*
X0004776Y0186163D01*
X0004585Y0184965D01*
X0004366Y0183772D01*
X0004117Y0182584D01*
X0003840Y0181403D01*
X0003534Y0180229D01*
X0003200Y0179063D01*
X0002838Y0177905D01*
X0002448Y0176756D01*
X0002029Y0175617D01*
X0001305Y0171681D02*
X0001305Y0161716D01*
X0001250Y0161712D02*
X0015423Y0161712D01*
X0025659Y0161712D02*
X0054793Y0161712D01*
X0060305Y0167735D02*
X0060305Y0179940D01*
X0060305Y0183877D02*
X0060305Y0184665D01*
X0060305Y0188208D02*
X0060305Y0188995D01*
X0060305Y0192539D02*
X0060305Y0193326D01*
X0060305Y0196869D02*
X0060305Y0197657D01*
X0060305Y0201200D02*
X0060305Y0201987D01*
X0102743Y0182476D02*
X0102743Y0177752D01*
X0113373Y0177752D01*
X0113373Y0182476D01*
X0102743Y0182476D01*
X0107467Y0153426D02*
X0096837Y0153426D01*
X0096837Y0148702D01*
X0107467Y0148702D01*
X0107467Y0153426D01*
X0096655Y0134214D02*
X0084855Y0134214D01*
X0084855Y0129414D01*
X0096655Y0129414D01*
X0096655Y0134214D01*
X0098155Y0130364D02*
X0098155Y0118564D01*
X0102955Y0118564D01*
X0102955Y0130364D01*
X0098155Y0130364D01*
X0096223Y0128576D02*
X0085593Y0128576D01*
X0085593Y0123852D01*
X0096223Y0123852D01*
X0096223Y0128576D01*
X0096223Y0122976D02*
X0085593Y0122976D01*
X0085593Y0118252D01*
X0096223Y0118252D01*
X0096223Y0122976D01*
X0083005Y0121614D02*
X0078205Y0121614D01*
X0078205Y0109814D01*
X0083005Y0109814D01*
X0083005Y0121614D01*
X0077367Y0120482D02*
X0077367Y0109852D01*
X0072643Y0109852D01*
X0072643Y0120482D01*
X0077367Y0120482D01*
X0071805Y0121614D02*
X0067005Y0121614D01*
X0067005Y0109814D01*
X0071805Y0109814D01*
X0071805Y0121614D01*
X0065855Y0121614D02*
X0061055Y0121614D01*
X0061055Y0109814D01*
X0065855Y0109814D01*
X0065855Y0121614D01*
X0059205Y0121614D02*
X0054405Y0121614D01*
X0054405Y0109814D01*
X0059205Y0109814D01*
X0059205Y0121614D01*
X0052905Y0121364D02*
X0052905Y0126164D01*
X0041105Y0126164D01*
X0041105Y0121364D01*
X0052905Y0121364D01*
X0052867Y0120526D02*
X0042237Y0120526D01*
X0042237Y0115802D01*
X0052867Y0115802D01*
X0052867Y0120526D01*
X0052867Y0114926D02*
X0042237Y0114926D01*
X0042237Y0110202D01*
X0052867Y0110202D01*
X0052867Y0114926D01*
X0041005Y0114964D02*
X0041005Y0110164D01*
X0029205Y0110164D01*
X0029205Y0114964D01*
X0041005Y0114964D01*
X0063005Y0131314D02*
X0005505Y0131314D01*
X0005505Y0151414D01*
X0017705Y0151414D01*
X0017705Y0131414D01*
X0017705Y0151414D02*
X0063005Y0151414D01*
X0063005Y0131314D01*
X0095355Y0099914D02*
X0095355Y0095114D01*
X0107155Y0095114D01*
X0107155Y0099914D01*
X0095355Y0099914D01*
X0095393Y0094276D02*
X0095393Y0089552D01*
X0106023Y0089552D01*
X0106023Y0094276D01*
X0095393Y0094276D01*
X0095005Y0086614D02*
X0095005Y0081814D01*
X0106805Y0081814D01*
X0106805Y0086614D01*
X0095005Y0086614D01*
X0094737Y0070826D02*
X0105367Y0070826D01*
X0105367Y0066102D01*
X0094737Y0066102D01*
X0094737Y0070826D01*
X0096655Y0060014D02*
X0091855Y0060014D01*
X0091855Y0048214D01*
X0096655Y0048214D01*
X0096655Y0060014D01*
X0073867Y0055076D02*
X0073867Y0050352D01*
X0063237Y0050352D01*
X0063237Y0055076D01*
X0073867Y0055076D01*
X0059555Y0052764D02*
X0059555Y0057564D01*
X0047755Y0057564D01*
X0047755Y0052764D01*
X0059555Y0052764D01*
X0044817Y0065402D02*
X0044817Y0070126D01*
X0034187Y0070126D01*
X0034187Y0065402D01*
X0044817Y0065402D01*
X0045555Y0071314D02*
X0045555Y0076114D01*
X0033755Y0076114D01*
X0033755Y0071314D01*
X0045555Y0071314D01*
X0045555Y0076914D02*
X0045555Y0081714D01*
X0033755Y0081714D01*
X0033755Y0076914D01*
X0045555Y0076914D01*
X0045555Y0082514D02*
X0045555Y0087314D01*
X0033755Y0087314D01*
X0033755Y0082514D01*
X0045555Y0082514D01*
X0029373Y0045626D02*
X0018743Y0045626D01*
X0018743Y0040902D01*
X0029373Y0040902D01*
X0029373Y0045626D01*
X0058605Y0028864D02*
X0058605Y0024064D01*
X0070405Y0024064D01*
X0070405Y0028864D01*
X0058605Y0028864D01*
X0070855Y0028864D02*
X0070855Y0024064D01*
X0082655Y0024064D01*
X0082655Y0028864D01*
X0070855Y0028864D01*
X0096837Y0028302D02*
X0107467Y0028302D01*
X0107467Y0033026D01*
X0096837Y0033026D01*
X0096837Y0028302D01*
X0096837Y0023226D02*
X0107467Y0023226D01*
X0107467Y0018502D01*
X0096837Y0018502D01*
X0096837Y0023226D01*
X0117837Y0023226D02*
X0117837Y0018502D01*
X0128467Y0018502D01*
X0128467Y0023226D01*
X0117837Y0023226D01*
X0117443Y0028302D02*
X0128073Y0028302D01*
X0128073Y0033026D01*
X0117443Y0033026D01*
X0117443Y0028302D01*
X0117837Y0038452D02*
X0128467Y0038452D01*
X0128467Y0043176D01*
X0117837Y0043176D01*
X0117837Y0038452D01*
X0126705Y0081964D02*
X0126705Y0089964D01*
X0123705Y0092314D02*
X0123705Y0097114D01*
X0135505Y0097114D01*
X0135505Y0092314D01*
X0123705Y0092314D01*
X0136305Y0092314D02*
X0148105Y0092314D01*
X0148105Y0097114D01*
X0136305Y0097114D01*
X0136305Y0092314D01*
X0139005Y0112614D02*
X0127205Y0112614D01*
X0127205Y0117414D01*
X0139005Y0117414D01*
X0139005Y0112614D01*
X0133155Y0130814D02*
X0144955Y0130814D01*
X0144955Y0135614D01*
X0133155Y0135614D01*
X0133155Y0130814D01*
X0114105Y0114814D02*
X0114105Y0106814D01*
X0165055Y0134264D02*
X0165057Y0134336D01*
X0165063Y0134407D01*
X0165073Y0134478D01*
X0165086Y0134548D01*
X0165104Y0134618D01*
X0165125Y0134686D01*
X0165151Y0134753D01*
X0165179Y0134819D01*
X0165212Y0134883D01*
X0165248Y0134945D01*
X0165287Y0135005D01*
X0165329Y0135062D01*
X0165375Y0135118D01*
X0165423Y0135170D01*
X0165475Y0135220D01*
X0165529Y0135267D01*
X0165585Y0135311D01*
X0165644Y0135352D01*
X0165705Y0135390D01*
X0165768Y0135424D01*
X0165833Y0135455D01*
X0165899Y0135481D01*
X0165967Y0135505D01*
X0166036Y0135524D01*
X0166106Y0135540D01*
X0166176Y0135552D01*
X0166248Y0135560D01*
X0166319Y0135564D01*
X0166391Y0135564D01*
X0166462Y0135560D01*
X0166534Y0135552D01*
X0166604Y0135540D01*
X0166674Y0135524D01*
X0166743Y0135505D01*
X0166811Y0135481D01*
X0166877Y0135455D01*
X0166942Y0135424D01*
X0167005Y0135390D01*
X0167066Y0135352D01*
X0167125Y0135311D01*
X0167181Y0135267D01*
X0167235Y0135220D01*
X0167287Y0135170D01*
X0167335Y0135118D01*
X0167381Y0135062D01*
X0167423Y0135005D01*
X0167462Y0134945D01*
X0167498Y0134883D01*
X0167531Y0134819D01*
X0167559Y0134753D01*
X0167585Y0134686D01*
X0167606Y0134618D01*
X0167624Y0134548D01*
X0167637Y0134478D01*
X0167647Y0134407D01*
X0167653Y0134336D01*
X0167655Y0134264D01*
X0167653Y0134192D01*
X0167647Y0134121D01*
X0167637Y0134050D01*
X0167624Y0133980D01*
X0167606Y0133910D01*
X0167585Y0133842D01*
X0167559Y0133775D01*
X0167531Y0133709D01*
X0167498Y0133645D01*
X0167462Y0133583D01*
X0167423Y0133523D01*
X0167381Y0133466D01*
X0167335Y0133410D01*
X0167287Y0133358D01*
X0167235Y0133308D01*
X0167181Y0133261D01*
X0167125Y0133217D01*
X0167066Y0133176D01*
X0167005Y0133138D01*
X0166942Y0133104D01*
X0166877Y0133073D01*
X0166811Y0133047D01*
X0166743Y0133023D01*
X0166674Y0133004D01*
X0166604Y0132988D01*
X0166534Y0132976D01*
X0166462Y0132968D01*
X0166391Y0132964D01*
X0166319Y0132964D01*
X0166248Y0132968D01*
X0166176Y0132976D01*
X0166106Y0132988D01*
X0166036Y0133004D01*
X0165967Y0133023D01*
X0165899Y0133047D01*
X0165833Y0133073D01*
X0165768Y0133104D01*
X0165705Y0133138D01*
X0165644Y0133176D01*
X0165585Y0133217D01*
X0165529Y0133261D01*
X0165475Y0133308D01*
X0165423Y0133358D01*
X0165375Y0133410D01*
X0165329Y0133466D01*
X0165287Y0133523D01*
X0165248Y0133583D01*
X0165212Y0133645D01*
X0165179Y0133709D01*
X0165151Y0133775D01*
X0165125Y0133842D01*
X0165104Y0133910D01*
X0165086Y0133980D01*
X0165073Y0134050D01*
X0165063Y0134121D01*
X0165057Y0134192D01*
X0165055Y0134264D01*
X0169987Y0126476D02*
X0180617Y0126476D01*
X0180617Y0121752D01*
X0169987Y0121752D01*
X0169987Y0126476D01*
X0169987Y0119126D02*
X0180617Y0119126D01*
X0180617Y0114402D01*
X0169987Y0114402D01*
X0169987Y0119126D01*
X0182937Y0119126D02*
X0182937Y0114402D01*
X0193567Y0114402D01*
X0193567Y0119126D01*
X0182937Y0119126D01*
X0185693Y0110682D02*
X0185693Y0100052D01*
X0190417Y0100052D01*
X0190417Y0110682D01*
X0185693Y0110682D01*
X0195494Y0123371D02*
X0211317Y0123371D01*
X0212817Y0124871D01*
X0212817Y0143056D01*
X0195494Y0143056D01*
X0195494Y0123371D01*
X0187967Y0134702D02*
X0183243Y0134702D01*
X0183243Y0145332D01*
X0187967Y0145332D01*
X0187967Y0134702D01*
X0211243Y0107576D02*
X0211243Y0102852D01*
X0221873Y0102852D01*
X0221873Y0107576D01*
X0211243Y0107576D01*
X0232555Y0128014D02*
X0237355Y0128014D01*
X0237355Y0139814D01*
X0232555Y0139814D01*
X0232555Y0128014D01*
X0257405Y0133514D02*
X0257405Y0121714D01*
X0262205Y0121714D01*
X0262205Y0133514D01*
X0257405Y0133514D01*
X0259539Y0140096D02*
X0259539Y0146631D01*
X0270365Y0146631D02*
X0271271Y0145725D01*
X0271271Y0140096D01*
X0267593Y0135226D02*
X0267593Y0130502D01*
X0278223Y0130502D01*
X0278223Y0135226D01*
X0267593Y0135226D01*
X0267205Y0126864D02*
X0267205Y0122064D01*
X0279005Y0122064D01*
X0279005Y0126864D01*
X0267205Y0126864D01*
X0281844Y0124967D02*
X0281844Y0131660D01*
X0281943Y0131660D02*
X0282337Y0131660D01*
X0282805Y0128865D02*
X0285805Y0128865D01*
X0285805Y0128814D02*
X0284305Y0127314D01*
X0282805Y0128814D01*
X0285805Y0128814D01*
X0284305Y0127314D01*
X0282805Y0128814D01*
X0283171Y0128448D02*
X0285439Y0128448D01*
X0284940Y0127949D02*
X0283670Y0127949D01*
X0284168Y0127451D02*
X0284442Y0127451D01*
X0286274Y0124967D02*
X0286667Y0124967D01*
X0286766Y0124967D02*
X0286766Y0131660D01*
X0286667Y0131660D02*
X0286274Y0131660D01*
X0282337Y0124967D02*
X0281943Y0124967D01*
X0296993Y0112868D02*
X0296993Y0111294D01*
X0300143Y0113656D02*
X0305261Y0113656D01*
X0308005Y0112868D02*
X0308005Y0088459D01*
X0305261Y0087672D02*
X0299749Y0087672D01*
X0296993Y0088459D02*
X0296993Y0090034D01*
X0296993Y0093577D02*
X0296993Y0101451D01*
X0296993Y0105388D02*
X0296993Y0107750D01*
X0294893Y0141352D02*
X0299617Y0141352D01*
X0299617Y0151982D01*
X0294893Y0151982D01*
X0294893Y0141352D01*
X0278267Y0144152D02*
X0278267Y0154782D01*
X0273543Y0154782D01*
X0273543Y0144152D01*
X0278267Y0144152D01*
X0258625Y0162308D02*
X0258627Y0162370D01*
X0258633Y0162433D01*
X0258643Y0162494D01*
X0258657Y0162555D01*
X0258674Y0162615D01*
X0258695Y0162674D01*
X0258721Y0162731D01*
X0258749Y0162786D01*
X0258781Y0162840D01*
X0258817Y0162891D01*
X0258855Y0162941D01*
X0258897Y0162987D01*
X0258941Y0163031D01*
X0258989Y0163072D01*
X0259038Y0163110D01*
X0259090Y0163144D01*
X0259144Y0163175D01*
X0259200Y0163203D01*
X0259258Y0163227D01*
X0259317Y0163248D01*
X0259377Y0163264D01*
X0259438Y0163277D01*
X0259500Y0163286D01*
X0259562Y0163291D01*
X0259625Y0163292D01*
X0259687Y0163289D01*
X0259749Y0163282D01*
X0259811Y0163271D01*
X0259871Y0163256D01*
X0259931Y0163238D01*
X0259989Y0163216D01*
X0260046Y0163190D01*
X0260101Y0163160D01*
X0260154Y0163127D01*
X0260205Y0163091D01*
X0260253Y0163052D01*
X0260299Y0163009D01*
X0260342Y0162964D01*
X0260382Y0162916D01*
X0260419Y0162866D01*
X0260453Y0162813D01*
X0260484Y0162759D01*
X0260510Y0162703D01*
X0260534Y0162645D01*
X0260553Y0162585D01*
X0260569Y0162525D01*
X0260581Y0162463D01*
X0260589Y0162402D01*
X0260593Y0162339D01*
X0260593Y0162277D01*
X0260589Y0162214D01*
X0260581Y0162153D01*
X0260569Y0162091D01*
X0260553Y0162031D01*
X0260534Y0161971D01*
X0260510Y0161913D01*
X0260484Y0161857D01*
X0260453Y0161803D01*
X0260419Y0161750D01*
X0260382Y0161700D01*
X0260342Y0161652D01*
X0260299Y0161607D01*
X0260253Y0161564D01*
X0260205Y0161525D01*
X0260154Y0161489D01*
X0260101Y0161456D01*
X0260046Y0161426D01*
X0259989Y0161400D01*
X0259931Y0161378D01*
X0259871Y0161360D01*
X0259811Y0161345D01*
X0259749Y0161334D01*
X0259687Y0161327D01*
X0259625Y0161324D01*
X0259562Y0161325D01*
X0259500Y0161330D01*
X0259438Y0161339D01*
X0259377Y0161352D01*
X0259317Y0161368D01*
X0259258Y0161389D01*
X0259200Y0161413D01*
X0259144Y0161441D01*
X0259090Y0161472D01*
X0259038Y0161506D01*
X0258989Y0161544D01*
X0258941Y0161585D01*
X0258897Y0161629D01*
X0258855Y0161675D01*
X0258817Y0161725D01*
X0258781Y0161776D01*
X0258749Y0161830D01*
X0258721Y0161885D01*
X0258695Y0161942D01*
X0258674Y0162001D01*
X0258657Y0162061D01*
X0258643Y0162122D01*
X0258633Y0162183D01*
X0258627Y0162246D01*
X0258625Y0162308D01*
X0259103Y0187071D02*
X0250245Y0187071D01*
X0259103Y0187071D02*
X0259103Y0194945D01*
X0268194Y0195710D02*
X0268194Y0189017D01*
X0268293Y0189017D02*
X0268687Y0189017D01*
X0270655Y0191364D02*
X0269155Y0192864D01*
X0272155Y0192864D01*
X0270655Y0191364D01*
X0269155Y0192864D01*
X0269155Y0192915D02*
X0272155Y0192915D01*
X0272155Y0192864D02*
X0270655Y0191364D01*
X0270260Y0191758D02*
X0271050Y0191758D01*
X0271548Y0192257D02*
X0269762Y0192257D01*
X0269263Y0192755D02*
X0272047Y0192755D01*
X0272624Y0195710D02*
X0273017Y0195710D01*
X0273116Y0195710D02*
X0273116Y0189017D01*
X0273017Y0189017D02*
X0272624Y0189017D01*
X0268687Y0195710D02*
X0268293Y0195710D01*
X0272143Y0205402D02*
X0282773Y0205402D01*
X0282773Y0210126D01*
X0272143Y0210126D01*
X0272143Y0205402D01*
X0265317Y0209602D02*
X0265317Y0214326D01*
X0254687Y0214326D01*
X0254687Y0209602D01*
X0265317Y0209602D01*
X0252213Y0206756D02*
X0234497Y0206756D01*
X0235955Y0207814D02*
X0235955Y0212614D01*
X0224155Y0212614D01*
X0224155Y0207814D01*
X0235955Y0207814D01*
X0241693Y0217302D02*
X0246417Y0217302D01*
X0246417Y0227932D01*
X0241693Y0227932D01*
X0241693Y0217302D01*
X0247993Y0217696D02*
X0247993Y0228326D01*
X0252717Y0228326D01*
X0252717Y0217696D01*
X0247993Y0217696D01*
X0246987Y0231302D02*
X0257617Y0231302D01*
X0257617Y0236026D01*
X0246987Y0236026D01*
X0246987Y0231302D01*
X0236655Y0233014D02*
X0236655Y0237814D01*
X0224855Y0237814D01*
X0224855Y0233014D01*
X0236655Y0233014D01*
X0222267Y0227626D02*
X0222267Y0216996D01*
X0217543Y0216996D01*
X0217543Y0227626D01*
X0222267Y0227626D01*
X0215355Y0240914D02*
X0215355Y0288414D01*
X0286355Y0288414D01*
X0286355Y0240914D01*
X0215355Y0240914D01*
X0259193Y0236026D02*
X0259193Y0231302D01*
X0269823Y0231302D01*
X0269823Y0236026D01*
X0259193Y0236026D01*
X0291743Y0253702D02*
X0291743Y0264332D01*
X0296467Y0264332D01*
X0296467Y0253702D01*
X0291743Y0253702D01*
X0292552Y0204624D02*
X0285859Y0204624D01*
X0285859Y0204526D02*
X0285859Y0204132D01*
X0288205Y0202164D02*
X0289705Y0200664D01*
X0289705Y0203664D01*
X0288205Y0202164D01*
X0289705Y0203664D01*
X0289756Y0203664D02*
X0289756Y0200664D01*
X0289705Y0200664D02*
X0288205Y0202164D01*
X0288269Y0202227D02*
X0289705Y0202227D01*
X0289705Y0201729D02*
X0288640Y0201729D01*
X0289139Y0201230D02*
X0289705Y0201230D01*
X0289705Y0200732D02*
X0289637Y0200732D01*
X0289705Y0202726D02*
X0288767Y0202726D01*
X0289266Y0203224D02*
X0289705Y0203224D01*
X0292552Y0204132D02*
X0292552Y0204526D01*
X0292552Y0200195D02*
X0292552Y0199802D01*
X0292552Y0199703D02*
X0285859Y0199703D01*
X0285859Y0199802D02*
X0285859Y0200195D01*
X0236465Y0187071D02*
X0227607Y0187071D01*
X0227607Y0194945D01*
X0254605Y0064914D02*
X0254605Y0060114D01*
X0266405Y0060114D01*
X0266405Y0064914D01*
X0254605Y0064914D01*
X0227205Y0055464D02*
X0227205Y0050664D01*
X0215405Y0050664D01*
X0215405Y0055464D01*
X0227205Y0055464D01*
X0226817Y0048076D02*
X0216187Y0048076D01*
X0216187Y0043352D01*
X0226817Y0043352D01*
X0226817Y0048076D01*
X0001306Y0171681D02*
X0001309Y0171949D01*
X0001319Y0172217D01*
X0001335Y0172485D01*
X0001358Y0172752D01*
X0001387Y0173019D01*
X0001423Y0173285D01*
X0001465Y0173550D01*
X0001514Y0173814D01*
X0001569Y0174077D01*
X0001630Y0174338D01*
X0001698Y0174597D01*
X0001771Y0174855D01*
X0001852Y0175111D01*
X0001938Y0175365D01*
X0002030Y0175617D01*
D14*
X0085505Y0263214D03*
D15*
X0061142Y0253965D02*
X0061142Y0246297D01*
X0056186Y0246297D01*
X0037682Y0246297D02*
X0017816Y0246297D01*
X0017816Y0280530D01*
X0061142Y0280530D01*
X0061142Y0272863D01*
X0129372Y0272656D02*
X0129372Y0245034D01*
X0129372Y0272656D02*
X0201238Y0272656D01*
X0201238Y0245034D01*
X0196238Y0171263D02*
X0190305Y0171263D01*
X0173835Y0152113D02*
X0173835Y0133215D01*
X0158875Y0133215D01*
X0158875Y0152113D01*
X0173835Y0152113D01*
X0140305Y0171263D02*
X0134372Y0171263D01*
X0077905Y0173364D02*
X0077905Y0168364D01*
X0075405Y0165864D01*
X0077905Y0163364D01*
X0077905Y0158364D01*
X0075405Y0155864D01*
X0070405Y0155864D01*
X0067905Y0158364D01*
X0067905Y0163364D01*
X0070405Y0165864D01*
X0067905Y0168364D01*
X0067905Y0173364D01*
X0070405Y0175864D01*
X0067905Y0178364D01*
X0067905Y0183364D01*
X0070405Y0185864D01*
X0075405Y0185864D01*
X0077905Y0183364D01*
X0077905Y0178364D01*
X0075405Y0175864D01*
X0077905Y0173364D01*
X0107337Y0115538D02*
X0105763Y0113963D01*
X0105763Y0107664D01*
X0107337Y0106089D01*
X0111668Y0106089D01*
X0119542Y0106089D02*
X0125448Y0106089D01*
X0125448Y0115538D01*
X0119542Y0115538D01*
X0111668Y0115538D02*
X0107337Y0115538D01*
X0119937Y0090688D02*
X0118363Y0089113D01*
X0118363Y0082814D01*
X0119937Y0081239D01*
X0124268Y0081239D01*
X0132142Y0081239D02*
X0138048Y0081239D01*
X0138048Y0090688D01*
X0132142Y0090688D01*
X0124268Y0090688D02*
X0119937Y0090688D01*
X0127124Y0035803D02*
X0203486Y0035803D01*
X0203848Y0035413D02*
X0203848Y0021039D01*
X0201486Y0021039D01*
X0201486Y0015724D01*
X0129124Y0015724D01*
X0129124Y0021039D01*
X0126762Y0021039D01*
X0126762Y0035413D01*
X0200393Y0094320D02*
X0200393Y0097470D01*
X0202756Y0097470D01*
X0209055Y0097470D02*
X0211417Y0097470D01*
X0211417Y0094320D01*
X0210717Y0113920D02*
X0210717Y0117070D01*
X0208355Y0117070D01*
X0202056Y0117070D02*
X0199693Y0117070D01*
X0199693Y0113920D01*
X0254605Y0090714D02*
X0254605Y0077714D01*
X0280405Y0077714D01*
X0280405Y0090714D01*
X0254605Y0090714D01*
X0300011Y0123502D02*
X0303161Y0123502D01*
X0303161Y0125864D01*
X0303161Y0132163D02*
X0303161Y0134526D01*
X0300011Y0134526D01*
X0287061Y0187552D02*
X0283911Y0187552D01*
X0287061Y0187552D02*
X0287061Y0189914D01*
X0287061Y0196213D02*
X0287061Y0198576D01*
X0283911Y0198576D01*
X0282955Y0036983D02*
X0277955Y0036983D01*
X0277955Y0035664D02*
X0282955Y0035664D01*
X0285455Y0033164D01*
X0285455Y0018164D01*
X0282955Y0015664D01*
X0277955Y0015664D01*
X0275455Y0018164D01*
X0275455Y0033164D01*
X0272955Y0035664D01*
X0267955Y0035664D01*
X0265455Y0033164D01*
X0265455Y0018164D01*
X0262955Y0015664D01*
X0257955Y0015664D01*
X0255455Y0018164D01*
X0255455Y0033164D01*
X0257955Y0035664D01*
X0262955Y0035664D01*
X0265455Y0033164D01*
X0275455Y0033164D02*
X0277955Y0035664D01*
X0275455Y0018164D02*
X0272955Y0015664D01*
X0267955Y0015664D01*
X0265455Y0018164D01*
X0045867Y0050220D02*
X0045867Y0053370D01*
X0043505Y0053370D01*
X0037206Y0053370D02*
X0034843Y0053370D01*
X0034843Y0050220D01*
D16*
X0285555Y0168914D03*
D17*
X0028149Y0140315D02*
X0026815Y0140315D01*
X0026815Y0139315D01*
X0027482Y0139648D01*
X0027816Y0139648D01*
X0028149Y0139315D01*
X0028149Y0138647D01*
X0027816Y0138314D01*
X0027149Y0138314D01*
X0026815Y0138647D01*
X0025606Y0138647D02*
X0025606Y0140315D01*
X0025272Y0140315D02*
X0025940Y0140315D01*
X0025606Y0138647D02*
X0025272Y0138314D01*
X0024939Y0138314D01*
X0024605Y0138647D01*
D18*
X0211655Y0120714D03*
D19*
X0257542Y0160241D02*
X0257542Y0176186D01*
X0268369Y0176186D02*
X0268369Y0160241D01*
X0083393Y0090468D02*
X0083393Y0066059D01*
X0082310Y0064976D01*
X0057900Y0064976D01*
X0056818Y0066059D01*
X0056818Y0090468D01*
X0057900Y0091551D01*
X0082310Y0091551D01*
X0083393Y0090468D01*
D20*
X0056355Y0093264D02*
X0056324Y0093542D01*
X0056231Y0093806D01*
X0056082Y0094043D01*
X0055884Y0094241D01*
X0055647Y0094390D01*
X0055383Y0094482D01*
X0055105Y0094514D01*
X0054827Y0094482D01*
X0054563Y0094390D01*
X0054326Y0094241D01*
X0054128Y0094043D01*
X0053979Y0093806D01*
X0053886Y0093542D01*
X0053855Y0093264D01*
X0053886Y0092986D01*
X0056324Y0092986D01*
X0056355Y0093264D01*
X0056355Y0093267D02*
X0053856Y0093267D01*
X0053856Y0093259D02*
X0056355Y0093259D01*
X0056354Y0093250D02*
X0053857Y0093250D01*
X0053858Y0093242D02*
X0056353Y0093242D01*
X0056352Y0093233D02*
X0053859Y0093233D01*
X0053860Y0093225D02*
X0056351Y0093225D01*
X0056350Y0093216D02*
X0053860Y0093216D01*
X0053861Y0093208D02*
X0056349Y0093208D01*
X0056348Y0093199D02*
X0053862Y0093199D01*
X0053863Y0093191D02*
X0056347Y0093191D01*
X0056346Y0093182D02*
X0053864Y0093182D01*
X0053865Y0093174D02*
X0056345Y0093174D01*
X0056344Y0093165D02*
X0053866Y0093165D01*
X0053867Y0093157D02*
X0056343Y0093157D01*
X0056342Y0093148D02*
X0053868Y0093148D01*
X0053869Y0093140D02*
X0056341Y0093140D01*
X0056340Y0093131D02*
X0053870Y0093131D01*
X0053871Y0093123D02*
X0056339Y0093123D01*
X0056338Y0093114D02*
X0053872Y0093114D01*
X0053873Y0093106D02*
X0056337Y0093106D01*
X0056336Y0093097D02*
X0053874Y0093097D01*
X0053875Y0093088D02*
X0056335Y0093088D01*
X0056334Y0093080D02*
X0053876Y0093080D01*
X0053877Y0093071D02*
X0056333Y0093071D01*
X0056332Y0093063D02*
X0053878Y0093063D01*
X0053879Y0093054D02*
X0056332Y0093054D01*
X0056331Y0093046D02*
X0053880Y0093046D01*
X0053881Y0093037D02*
X0056330Y0093037D01*
X0056329Y0093029D02*
X0053882Y0093029D01*
X0053883Y0093020D02*
X0056328Y0093020D01*
X0056327Y0093012D02*
X0053883Y0093012D01*
X0053884Y0093003D02*
X0056326Y0093003D01*
X0056325Y0092995D02*
X0053885Y0092995D01*
X0053886Y0092986D02*
X0053979Y0092721D01*
X0054128Y0092484D01*
X0056082Y0092484D01*
X0056231Y0092721D01*
X0056324Y0092986D01*
X0056321Y0092978D02*
X0053889Y0092978D01*
X0053892Y0092969D02*
X0056318Y0092969D01*
X0056315Y0092961D02*
X0053895Y0092961D01*
X0053898Y0092952D02*
X0056312Y0092952D01*
X0056309Y0092944D02*
X0053901Y0092944D01*
X0053904Y0092935D02*
X0056306Y0092935D01*
X0056303Y0092927D02*
X0053907Y0092927D01*
X0053910Y0092918D02*
X0056300Y0092918D01*
X0056297Y0092910D02*
X0053913Y0092910D01*
X0053916Y0092901D02*
X0056294Y0092901D01*
X0056291Y0092893D02*
X0053919Y0092893D01*
X0053922Y0092884D02*
X0056288Y0092884D01*
X0056285Y0092876D02*
X0053925Y0092876D01*
X0053928Y0092867D02*
X0056282Y0092867D01*
X0056279Y0092859D02*
X0053931Y0092859D01*
X0053934Y0092850D02*
X0056276Y0092850D01*
X0056273Y0092842D02*
X0053937Y0092842D01*
X0053940Y0092833D02*
X0056270Y0092833D01*
X0056267Y0092825D02*
X0053943Y0092825D01*
X0053946Y0092816D02*
X0056264Y0092816D01*
X0056261Y0092808D02*
X0053949Y0092808D01*
X0053952Y0092799D02*
X0056258Y0092799D01*
X0056256Y0092791D02*
X0053955Y0092791D01*
X0053958Y0092782D02*
X0056253Y0092782D01*
X0056250Y0092773D02*
X0053961Y0092773D01*
X0053964Y0092765D02*
X0056247Y0092765D01*
X0056244Y0092756D02*
X0053967Y0092756D01*
X0053970Y0092748D02*
X0056241Y0092748D01*
X0056238Y0092739D02*
X0053973Y0092739D01*
X0053976Y0092731D02*
X0056235Y0092731D01*
X0056232Y0092722D02*
X0053979Y0092722D01*
X0053984Y0092714D02*
X0056227Y0092714D01*
X0056221Y0092705D02*
X0053989Y0092705D01*
X0053994Y0092697D02*
X0056216Y0092697D01*
X0056211Y0092688D02*
X0054000Y0092688D01*
X0054005Y0092680D02*
X0056205Y0092680D01*
X0056200Y0092671D02*
X0054010Y0092671D01*
X0054016Y0092663D02*
X0056195Y0092663D01*
X0056189Y0092654D02*
X0054021Y0092654D01*
X0054026Y0092646D02*
X0056184Y0092646D01*
X0056178Y0092637D02*
X0054032Y0092637D01*
X0054037Y0092629D02*
X0056173Y0092629D01*
X0056168Y0092620D02*
X0054042Y0092620D01*
X0054048Y0092612D02*
X0056162Y0092612D01*
X0056157Y0092603D02*
X0054053Y0092603D01*
X0054059Y0092595D02*
X0056152Y0092595D01*
X0056146Y0092586D02*
X0054064Y0092586D01*
X0054069Y0092578D02*
X0056141Y0092578D01*
X0056136Y0092569D02*
X0054075Y0092569D01*
X0054080Y0092561D02*
X0056130Y0092561D01*
X0056125Y0092552D02*
X0054085Y0092552D01*
X0054091Y0092544D02*
X0056120Y0092544D01*
X0056114Y0092535D02*
X0054096Y0092535D01*
X0054101Y0092527D02*
X0056109Y0092527D01*
X0056104Y0092518D02*
X0054107Y0092518D01*
X0054112Y0092510D02*
X0056098Y0092510D01*
X0056093Y0092501D02*
X0054117Y0092501D01*
X0054123Y0092493D02*
X0056088Y0092493D01*
X0056082Y0092484D02*
X0055884Y0092286D01*
X0055647Y0092138D01*
X0055383Y0092045D01*
X0055105Y0092014D01*
X0054827Y0092045D01*
X0054563Y0092138D01*
X0054326Y0092286D01*
X0054128Y0092484D01*
X0054137Y0092476D02*
X0056074Y0092476D01*
X0056065Y0092467D02*
X0054145Y0092467D01*
X0054154Y0092458D02*
X0056057Y0092458D01*
X0056048Y0092450D02*
X0054162Y0092450D01*
X0054171Y0092441D02*
X0056039Y0092441D01*
X0056031Y0092433D02*
X0054179Y0092433D01*
X0054188Y0092424D02*
X0056022Y0092424D01*
X0056014Y0092416D02*
X0054196Y0092416D01*
X0054205Y0092407D02*
X0056005Y0092407D01*
X0055997Y0092399D02*
X0054213Y0092399D01*
X0054222Y0092390D02*
X0055988Y0092390D01*
X0055980Y0092382D02*
X0054230Y0092382D01*
X0054239Y0092373D02*
X0055971Y0092373D01*
X0055963Y0092365D02*
X0054247Y0092365D01*
X0054256Y0092356D02*
X0055954Y0092356D01*
X0055946Y0092348D02*
X0054264Y0092348D01*
X0054273Y0092339D02*
X0055937Y0092339D01*
X0055929Y0092331D02*
X0054281Y0092331D01*
X0054290Y0092322D02*
X0055920Y0092322D01*
X0055912Y0092314D02*
X0054298Y0092314D01*
X0054307Y0092305D02*
X0055903Y0092305D01*
X0055895Y0092297D02*
X0054315Y0092297D01*
X0054324Y0092288D02*
X0055886Y0092288D01*
X0055874Y0092280D02*
X0054337Y0092280D01*
X0054350Y0092271D02*
X0055860Y0092271D01*
X0055847Y0092263D02*
X0054364Y0092263D01*
X0054377Y0092254D02*
X0055833Y0092254D01*
X0055820Y0092246D02*
X0054391Y0092246D01*
X0054404Y0092237D02*
X0055806Y0092237D01*
X0055792Y0092229D02*
X0054418Y0092229D01*
X0054431Y0092220D02*
X0055779Y0092220D01*
X0055765Y0092212D02*
X0054445Y0092212D01*
X0054458Y0092203D02*
X0055752Y0092203D01*
X0055738Y0092195D02*
X0054472Y0092195D01*
X0054486Y0092186D02*
X0055725Y0092186D01*
X0055711Y0092178D02*
X0054499Y0092178D01*
X0054513Y0092169D02*
X0055698Y0092169D01*
X0055684Y0092160D02*
X0054526Y0092160D01*
X0054540Y0092152D02*
X0055670Y0092152D01*
X0055657Y0092143D02*
X0054553Y0092143D01*
X0054570Y0092135D02*
X0055640Y0092135D01*
X0055616Y0092126D02*
X0054594Y0092126D01*
X0054619Y0092118D02*
X0055591Y0092118D01*
X0055567Y0092109D02*
X0054643Y0092109D01*
X0054667Y0092101D02*
X0055543Y0092101D01*
X0055518Y0092092D02*
X0054692Y0092092D01*
X0054716Y0092084D02*
X0055494Y0092084D01*
X0055470Y0092075D02*
X0054740Y0092075D01*
X0054765Y0092067D02*
X0055445Y0092067D01*
X0055421Y0092058D02*
X0054789Y0092058D01*
X0054813Y0092050D02*
X0055397Y0092050D01*
X0055350Y0092041D02*
X0054860Y0092041D01*
X0054936Y0092033D02*
X0055274Y0092033D01*
X0055199Y0092024D02*
X0055012Y0092024D01*
X0055087Y0092016D02*
X0055123Y0092016D01*
X0056354Y0093276D02*
X0053856Y0093276D01*
X0053857Y0093284D02*
X0056353Y0093284D01*
X0056352Y0093293D02*
X0053858Y0093293D01*
X0053859Y0093301D02*
X0056351Y0093301D01*
X0056350Y0093310D02*
X0053860Y0093310D01*
X0053861Y0093318D02*
X0056349Y0093318D01*
X0056348Y0093327D02*
X0053862Y0093327D01*
X0053863Y0093335D02*
X0056347Y0093335D01*
X0056346Y0093344D02*
X0053864Y0093344D01*
X0053865Y0093352D02*
X0056345Y0093352D01*
X0056344Y0093361D02*
X0053866Y0093361D01*
X0053867Y0093369D02*
X0056343Y0093369D01*
X0056342Y0093378D02*
X0053868Y0093378D01*
X0053869Y0093386D02*
X0056341Y0093386D01*
X0056340Y0093395D02*
X0053870Y0093395D01*
X0053871Y0093404D02*
X0056339Y0093404D01*
X0056338Y0093412D02*
X0053872Y0093412D01*
X0053873Y0093421D02*
X0056337Y0093421D01*
X0056337Y0093429D02*
X0053874Y0093429D01*
X0053875Y0093438D02*
X0056336Y0093438D01*
X0056335Y0093446D02*
X0053876Y0093446D01*
X0053877Y0093455D02*
X0056334Y0093455D01*
X0056333Y0093463D02*
X0053878Y0093463D01*
X0053879Y0093472D02*
X0056332Y0093472D01*
X0056331Y0093480D02*
X0053880Y0093480D01*
X0053880Y0093489D02*
X0056330Y0093489D01*
X0056329Y0093497D02*
X0053881Y0093497D01*
X0053882Y0093506D02*
X0056328Y0093506D01*
X0056327Y0093514D02*
X0053883Y0093514D01*
X0053884Y0093523D02*
X0056326Y0093523D01*
X0056325Y0093531D02*
X0053885Y0093531D01*
X0053886Y0093540D02*
X0056324Y0093540D01*
X0056322Y0093548D02*
X0053889Y0093548D01*
X0053892Y0093557D02*
X0056319Y0093557D01*
X0056316Y0093565D02*
X0053895Y0093565D01*
X0053898Y0093574D02*
X0056313Y0093574D01*
X0056310Y0093582D02*
X0053901Y0093582D01*
X0053904Y0093591D02*
X0056307Y0093591D01*
X0056304Y0093599D02*
X0053907Y0093599D01*
X0053910Y0093608D02*
X0056301Y0093608D01*
X0056298Y0093616D02*
X0053913Y0093616D01*
X0053916Y0093625D02*
X0056295Y0093625D01*
X0056292Y0093633D02*
X0053918Y0093633D01*
X0053921Y0093642D02*
X0056289Y0093642D01*
X0056286Y0093650D02*
X0053924Y0093650D01*
X0053927Y0093659D02*
X0056283Y0093659D01*
X0056280Y0093667D02*
X0053930Y0093667D01*
X0053933Y0093676D02*
X0056277Y0093676D01*
X0056274Y0093684D02*
X0053936Y0093684D01*
X0053939Y0093693D02*
X0056271Y0093693D01*
X0056268Y0093701D02*
X0053942Y0093701D01*
X0053945Y0093710D02*
X0056265Y0093710D01*
X0056262Y0093719D02*
X0053948Y0093719D01*
X0053951Y0093727D02*
X0056259Y0093727D01*
X0056256Y0093736D02*
X0053954Y0093736D01*
X0053957Y0093744D02*
X0056253Y0093744D01*
X0056250Y0093753D02*
X0053960Y0093753D01*
X0053963Y0093761D02*
X0056247Y0093761D01*
X0056244Y0093770D02*
X0053966Y0093770D01*
X0053969Y0093778D02*
X0056241Y0093778D01*
X0056238Y0093787D02*
X0053972Y0093787D01*
X0053975Y0093795D02*
X0056235Y0093795D01*
X0056232Y0093804D02*
X0053978Y0093804D01*
X0053983Y0093812D02*
X0056228Y0093812D01*
X0056222Y0093821D02*
X0053988Y0093821D01*
X0053993Y0093829D02*
X0056217Y0093829D01*
X0056211Y0093838D02*
X0053999Y0093838D01*
X0054004Y0093846D02*
X0056206Y0093846D01*
X0056201Y0093855D02*
X0054009Y0093855D01*
X0054015Y0093863D02*
X0056195Y0093863D01*
X0056190Y0093872D02*
X0054020Y0093872D01*
X0054026Y0093880D02*
X0056185Y0093880D01*
X0056179Y0093889D02*
X0054031Y0093889D01*
X0054036Y0093897D02*
X0056174Y0093897D01*
X0056169Y0093906D02*
X0054042Y0093906D01*
X0054047Y0093914D02*
X0056163Y0093914D01*
X0056158Y0093923D02*
X0054052Y0093923D01*
X0054058Y0093931D02*
X0056153Y0093931D01*
X0056147Y0093940D02*
X0054063Y0093940D01*
X0054068Y0093948D02*
X0056142Y0093948D01*
X0056137Y0093957D02*
X0054074Y0093957D01*
X0054079Y0093965D02*
X0056131Y0093965D01*
X0056126Y0093974D02*
X0054084Y0093974D01*
X0054090Y0093982D02*
X0056121Y0093982D01*
X0056115Y0093991D02*
X0054095Y0093991D01*
X0054100Y0093999D02*
X0056110Y0093999D01*
X0056104Y0094008D02*
X0054106Y0094008D01*
X0054111Y0094016D02*
X0056099Y0094016D01*
X0056094Y0094025D02*
X0054116Y0094025D01*
X0054122Y0094034D02*
X0056088Y0094034D01*
X0056083Y0094042D02*
X0054127Y0094042D01*
X0054135Y0094051D02*
X0056075Y0094051D01*
X0056066Y0094059D02*
X0054144Y0094059D01*
X0054152Y0094068D02*
X0056058Y0094068D01*
X0056049Y0094076D02*
X0054161Y0094076D01*
X0054169Y0094085D02*
X0056041Y0094085D01*
X0056032Y0094093D02*
X0054178Y0094093D01*
X0054186Y0094102D02*
X0056024Y0094102D01*
X0056015Y0094110D02*
X0054195Y0094110D01*
X0054203Y0094119D02*
X0056007Y0094119D01*
X0055998Y0094127D02*
X0054212Y0094127D01*
X0054220Y0094136D02*
X0055990Y0094136D01*
X0055981Y0094144D02*
X0054229Y0094144D01*
X0054237Y0094153D02*
X0055973Y0094153D01*
X0055964Y0094161D02*
X0054246Y0094161D01*
X0054254Y0094170D02*
X0055956Y0094170D01*
X0055947Y0094178D02*
X0054263Y0094178D01*
X0054271Y0094187D02*
X0055939Y0094187D01*
X0055930Y0094195D02*
X0054280Y0094195D01*
X0054289Y0094204D02*
X0055922Y0094204D01*
X0055913Y0094212D02*
X0054297Y0094212D01*
X0054306Y0094221D02*
X0055905Y0094221D01*
X0055896Y0094229D02*
X0054314Y0094229D01*
X0054323Y0094238D02*
X0055888Y0094238D01*
X0055876Y0094246D02*
X0054334Y0094246D01*
X0054348Y0094255D02*
X0055862Y0094255D01*
X0055849Y0094263D02*
X0054361Y0094263D01*
X0054375Y0094272D02*
X0055835Y0094272D01*
X0055822Y0094280D02*
X0054388Y0094280D01*
X0054402Y0094289D02*
X0055808Y0094289D01*
X0055795Y0094297D02*
X0054416Y0094297D01*
X0054429Y0094306D02*
X0055781Y0094306D01*
X0055768Y0094314D02*
X0054443Y0094314D01*
X0054456Y0094323D02*
X0055754Y0094323D01*
X0055740Y0094332D02*
X0054470Y0094332D01*
X0054483Y0094340D02*
X0055727Y0094340D01*
X0055713Y0094349D02*
X0054497Y0094349D01*
X0054510Y0094357D02*
X0055700Y0094357D01*
X0055686Y0094366D02*
X0054524Y0094366D01*
X0054537Y0094374D02*
X0055673Y0094374D01*
X0055659Y0094383D02*
X0054551Y0094383D01*
X0054566Y0094391D02*
X0055644Y0094391D01*
X0055620Y0094400D02*
X0054590Y0094400D01*
X0054615Y0094408D02*
X0055596Y0094408D01*
X0055571Y0094417D02*
X0054639Y0094417D01*
X0054663Y0094425D02*
X0055547Y0094425D01*
X0055523Y0094434D02*
X0054688Y0094434D01*
X0054712Y0094442D02*
X0055498Y0094442D01*
X0055474Y0094451D02*
X0054736Y0094451D01*
X0054761Y0094459D02*
X0055450Y0094459D01*
X0055425Y0094468D02*
X0054785Y0094468D01*
X0054809Y0094476D02*
X0055401Y0094476D01*
X0055362Y0094485D02*
X0054848Y0094485D01*
X0054923Y0094493D02*
X0055287Y0094493D01*
X0055211Y0094502D02*
X0054999Y0094502D01*
X0055075Y0094510D02*
X0055136Y0094510D01*
D21*
X0058605Y0048764D02*
X0081605Y0048764D01*
X0081824Y0048761D01*
X0082043Y0048753D01*
X0082262Y0048740D01*
X0082480Y0048721D01*
X0082698Y0048697D01*
X0082915Y0048668D01*
X0083132Y0048634D01*
X0083347Y0048594D01*
X0083562Y0048549D01*
X0083775Y0048498D01*
X0083987Y0048443D01*
X0084198Y0048382D01*
X0084407Y0048317D01*
X0084614Y0048246D01*
X0084820Y0048170D01*
X0085024Y0048089D01*
X0085226Y0048004D01*
X0085425Y0047913D01*
X0085622Y0047818D01*
X0085817Y0047717D01*
X0086010Y0047612D01*
X0086200Y0047503D01*
X0086387Y0047389D01*
X0086571Y0047270D01*
X0086752Y0047147D01*
X0086930Y0047019D01*
X0087106Y0046887D01*
X0087277Y0046751D01*
X0087446Y0046611D01*
X0087611Y0046467D01*
X0087772Y0046319D01*
X0087930Y0046167D01*
X0088084Y0046011D01*
X0088234Y0045851D01*
X0088381Y0045688D01*
X0088523Y0045521D01*
X0088661Y0045351D01*
X0088795Y0045177D01*
X0088925Y0045001D01*
X0089050Y0044821D01*
X0089171Y0044638D01*
X0089287Y0044452D01*
X0089399Y0044264D01*
X0089506Y0044073D01*
X0089609Y0043879D01*
X0089707Y0043683D01*
X0089800Y0043485D01*
X0089888Y0043284D01*
X0089971Y0043081D01*
X0090050Y0042876D01*
X0090123Y0042670D01*
X0090191Y0042462D01*
X0090254Y0042252D01*
X0090312Y0042040D01*
X0090365Y0041828D01*
X0090413Y0041614D01*
X0090455Y0041399D01*
X0090492Y0041183D01*
X0090524Y0040966D01*
X0090551Y0040748D01*
X0090572Y0040530D01*
X0090588Y0040312D01*
X0090599Y0040093D01*
X0090604Y0039874D01*
X0090604Y0039654D01*
X0090599Y0039435D01*
X0090588Y0039216D01*
X0090572Y0038998D01*
X0090551Y0038780D01*
X0090524Y0038562D01*
X0090492Y0038345D01*
X0090455Y0038129D01*
X0090413Y0037914D01*
X0090365Y0037700D01*
X0090312Y0037488D01*
X0090254Y0037276D01*
X0090191Y0037066D01*
X0090123Y0036858D01*
X0090050Y0036652D01*
X0089971Y0036447D01*
X0089888Y0036244D01*
X0089800Y0036043D01*
X0089707Y0035845D01*
X0089609Y0035649D01*
X0089506Y0035455D01*
X0089399Y0035264D01*
X0089287Y0035076D01*
X0089171Y0034890D01*
X0089050Y0034707D01*
X0088925Y0034527D01*
X0088795Y0034351D01*
X0088661Y0034177D01*
X0088523Y0034007D01*
X0088381Y0033840D01*
X0088234Y0033677D01*
X0088084Y0033517D01*
X0087930Y0033361D01*
X0087772Y0033209D01*
X0087611Y0033061D01*
X0087446Y0032917D01*
X0087277Y0032777D01*
X0087106Y0032641D01*
X0086930Y0032509D01*
X0086752Y0032381D01*
X0086571Y0032258D01*
X0086387Y0032139D01*
X0086200Y0032025D01*
X0086010Y0031916D01*
X0085817Y0031811D01*
X0085622Y0031710D01*
X0085425Y0031615D01*
X0085226Y0031524D01*
X0085024Y0031439D01*
X0084820Y0031358D01*
X0084614Y0031282D01*
X0084407Y0031211D01*
X0084198Y0031146D01*
X0083987Y0031085D01*
X0083775Y0031030D01*
X0083562Y0030979D01*
X0083347Y0030934D01*
X0083132Y0030894D01*
X0082915Y0030860D01*
X0082698Y0030831D01*
X0082480Y0030807D01*
X0082262Y0030788D01*
X0082043Y0030775D01*
X0081824Y0030767D01*
X0081605Y0030764D01*
X0058605Y0030764D01*
X0058386Y0030767D01*
X0058167Y0030775D01*
X0057948Y0030788D01*
X0057730Y0030807D01*
X0057512Y0030831D01*
X0057295Y0030860D01*
X0057078Y0030894D01*
X0056863Y0030934D01*
X0056648Y0030979D01*
X0056435Y0031030D01*
X0056223Y0031085D01*
X0056012Y0031146D01*
X0055803Y0031211D01*
X0055596Y0031282D01*
X0055390Y0031358D01*
X0055186Y0031439D01*
X0054984Y0031524D01*
X0054785Y0031615D01*
X0054588Y0031710D01*
X0054393Y0031811D01*
X0054200Y0031916D01*
X0054010Y0032025D01*
X0053823Y0032139D01*
X0053639Y0032258D01*
X0053458Y0032381D01*
X0053280Y0032509D01*
X0053104Y0032641D01*
X0052933Y0032777D01*
X0052764Y0032917D01*
X0052599Y0033061D01*
X0052438Y0033209D01*
X0052280Y0033361D01*
X0052126Y0033517D01*
X0051976Y0033677D01*
X0051829Y0033840D01*
X0051687Y0034007D01*
X0051549Y0034177D01*
X0051415Y0034351D01*
X0051285Y0034527D01*
X0051160Y0034707D01*
X0051039Y0034890D01*
X0050923Y0035076D01*
X0050811Y0035264D01*
X0050704Y0035455D01*
X0050601Y0035649D01*
X0050503Y0035845D01*
X0050410Y0036043D01*
X0050322Y0036244D01*
X0050239Y0036447D01*
X0050160Y0036652D01*
X0050087Y0036858D01*
X0050019Y0037066D01*
X0049956Y0037276D01*
X0049898Y0037488D01*
X0049845Y0037700D01*
X0049797Y0037914D01*
X0049755Y0038129D01*
X0049718Y0038345D01*
X0049686Y0038562D01*
X0049659Y0038780D01*
X0049638Y0038998D01*
X0049622Y0039216D01*
X0049611Y0039435D01*
X0049606Y0039654D01*
X0049606Y0039874D01*
X0049611Y0040093D01*
X0049622Y0040312D01*
X0049638Y0040530D01*
X0049659Y0040748D01*
X0049686Y0040966D01*
X0049718Y0041183D01*
X0049755Y0041399D01*
X0049797Y0041614D01*
X0049845Y0041828D01*
X0049898Y0042040D01*
X0049956Y0042252D01*
X0050019Y0042462D01*
X0050087Y0042670D01*
X0050160Y0042876D01*
X0050239Y0043081D01*
X0050322Y0043284D01*
X0050410Y0043485D01*
X0050503Y0043683D01*
X0050601Y0043879D01*
X0050704Y0044073D01*
X0050811Y0044264D01*
X0050923Y0044452D01*
X0051039Y0044638D01*
X0051160Y0044821D01*
X0051285Y0045001D01*
X0051415Y0045177D01*
X0051549Y0045351D01*
X0051687Y0045521D01*
X0051829Y0045688D01*
X0051976Y0045851D01*
X0052126Y0046011D01*
X0052280Y0046167D01*
X0052438Y0046319D01*
X0052599Y0046467D01*
X0052764Y0046611D01*
X0052933Y0046751D01*
X0053104Y0046887D01*
X0053280Y0047019D01*
X0053458Y0047147D01*
X0053639Y0047270D01*
X0053823Y0047389D01*
X0054010Y0047503D01*
X0054200Y0047612D01*
X0054393Y0047717D01*
X0054588Y0047818D01*
X0054785Y0047913D01*
X0054984Y0048004D01*
X0055186Y0048089D01*
X0055390Y0048170D01*
X0055596Y0048246D01*
X0055803Y0048317D01*
X0056012Y0048382D01*
X0056223Y0048443D01*
X0056435Y0048498D01*
X0056648Y0048549D01*
X0056863Y0048594D01*
X0057078Y0048634D01*
X0057295Y0048668D01*
X0057512Y0048697D01*
X0057730Y0048721D01*
X0057948Y0048740D01*
X0058167Y0048753D01*
X0058386Y0048761D01*
X0058605Y0048764D01*
D22*
X0289994Y0217566D02*
X0289994Y0221503D01*
X0290065Y0217594D02*
X0293931Y0217594D01*
X0293931Y0217566D01*
X0305742Y0217566D02*
X0309679Y0217566D01*
X0289994Y0245125D02*
X0289994Y0249062D01*
X0293931Y0249062D01*
X0305742Y0249062D02*
X0309679Y0249062D01*
D23*
X0302505Y0100664D03*
D24*
X0233867Y0174081D02*
X0233867Y0177351D01*
X0232233Y0175716D02*
X0235502Y0175716D01*
X0252646Y0175716D02*
X0255916Y0175716D01*
D25*
X0272905Y0145864D03*
M02*
