G75*
%MOIN*%
%OFA0B0*%
%FSLAX25Y25*%
%IPPOS*%
%LPD*%
%AMOC8*
5,1,8,0,0,1.08239X$1,22.5*
%
%ADD10C,0.13398*%
%ADD11C,0.10800*%
%ADD12OC8,0.10800*%
%ADD13OC8,0.07100*%
%ADD14C,0.07100*%
%ADD15C,0.17000*%
%ADD16C,0.17398*%
%ADD17C,0.08200*%
%ADD18R,0.03950X0.03950*%
%ADD19OC8,0.09300*%
%ADD20C,0.07296*%
%ADD21C,0.06706*%
%ADD22R,0.07400X0.07400*%
%ADD23C,0.07400*%
%ADD24R,0.16548X0.02375*%
%ADD25R,0.08083X0.05131*%
%ADD26R,0.08280X0.08674*%
%ADD27C,0.03753*%
%ADD28C,0.04934*%
%ADD29C,0.06000*%
%ADD30C,0.04146*%
%ADD31C,0.04343*%
%ADD32R,0.05131X0.04737*%
%ADD33C,0.00987*%
%ADD34C,0.04000*%
%ADD35R,0.08674X0.02769*%
%ADD36R,0.08400X0.08400*%
D10*
X0011955Y0012464D03*
X0305105Y0012414D03*
X0305105Y0284364D03*
X0011905Y0284264D03*
D11*
X0085505Y0250964D03*
X0297805Y0168914D03*
D12*
X0277805Y0168914D03*
X0085505Y0270964D03*
D13*
X0089705Y0167764D03*
X0083755Y0141164D03*
D14*
X0083755Y0151164D03*
X0089705Y0177764D03*
D15*
X0047131Y0248604D03*
X0030820Y0263314D03*
D16*
X0059642Y0263414D03*
D17*
X0072905Y0180864D03*
X0072905Y0170864D03*
X0072905Y0160864D03*
X0231650Y0038652D03*
X0231650Y0016989D03*
X0260455Y0020664D03*
X0260455Y0030664D03*
X0270455Y0030664D03*
X0280455Y0030664D03*
X0280455Y0020664D03*
X0270455Y0020664D03*
D18*
X0288155Y0272711D03*
X0292705Y0272711D03*
X0297255Y0272711D03*
X0297255Y0278616D03*
X0292705Y0278616D03*
X0288155Y0278616D03*
D19*
X0300055Y0187814D03*
X0289905Y0139164D03*
X0212555Y0063214D03*
D20*
X0051205Y0131414D03*
X0051205Y0151414D03*
X0037705Y0151414D03*
X0024205Y0151414D03*
X0024205Y0131414D03*
D21*
X0021284Y0141571D03*
X0048843Y0141571D03*
D22*
X0112455Y0275864D03*
D23*
X0112455Y0265864D03*
X0112455Y0255864D03*
D24*
X0221121Y0172585D03*
X0221121Y0169436D03*
X0221121Y0166286D03*
X0221121Y0163137D03*
X0221121Y0159987D03*
X0221121Y0156837D03*
X0221121Y0153688D03*
X0221121Y0150538D03*
X0221121Y0147389D03*
X0221121Y0144239D03*
X0221121Y0141089D03*
X0221121Y0137940D03*
X0221121Y0134790D03*
X0221121Y0131641D03*
X0221121Y0128491D03*
X0221121Y0125341D03*
X0221121Y0122192D03*
X0221121Y0119042D03*
D25*
G36*
X0043700Y0032268D02*
X0049107Y0038273D01*
X0052920Y0034840D01*
X0047513Y0028835D01*
X0043700Y0032268D01*
G37*
G36*
X0039604Y0035956D02*
X0045011Y0041961D01*
X0048824Y0038528D01*
X0043417Y0032523D01*
X0039604Y0035956D01*
G37*
G36*
X0035508Y0039644D02*
X0040915Y0045649D01*
X0044728Y0042216D01*
X0039321Y0036211D01*
X0035508Y0039644D01*
G37*
G36*
X0017990Y0020188D02*
X0023397Y0026193D01*
X0027210Y0022760D01*
X0021803Y0016755D01*
X0017990Y0020188D01*
G37*
G36*
X0022086Y0016500D02*
X0027493Y0022505D01*
X0031306Y0019072D01*
X0025899Y0013067D01*
X0022086Y0016500D01*
G37*
G36*
X0026182Y0012811D02*
X0031589Y0018816D01*
X0035402Y0015383D01*
X0029995Y0009378D01*
X0026182Y0012811D01*
G37*
D26*
G36*
X0041546Y0016460D02*
X0047087Y0022612D01*
X0053532Y0016808D01*
X0047991Y0010656D01*
X0041546Y0016460D01*
G37*
G36*
X0017379Y0038220D02*
X0022920Y0044372D01*
X0029365Y0038568D01*
X0023824Y0032416D01*
X0017379Y0038220D01*
G37*
D27*
X0029896Y0032519D03*
D28*
X0041014Y0022508D03*
D29*
X0060605Y0039764D03*
X0079605Y0039764D03*
X0132805Y0020764D03*
X0142805Y0020764D03*
X0152805Y0020764D03*
X0162805Y0020764D03*
X0172805Y0020764D03*
X0182805Y0020764D03*
X0192805Y0020764D03*
X0187805Y0030764D03*
X0177805Y0030764D03*
X0167805Y0030764D03*
X0157805Y0030764D03*
X0147805Y0030764D03*
X0137805Y0030764D03*
X0197805Y0030764D03*
D30*
X0293144Y0225833D03*
X0293144Y0240794D03*
D31*
X0018967Y0210452D03*
X0018967Y0178956D03*
D32*
X0288155Y0260767D03*
X0288155Y0267460D03*
D33*
X0080905Y0285732D02*
X0077155Y0285732D01*
X0077155Y0288696D01*
X0080905Y0288696D01*
X0080905Y0285732D01*
X0080905Y0286718D02*
X0077155Y0286718D01*
X0077155Y0287704D02*
X0080905Y0287704D01*
X0080905Y0288690D02*
X0077155Y0288690D01*
X0071456Y0285732D02*
X0067706Y0285732D01*
X0067706Y0288696D01*
X0071456Y0288696D01*
X0071456Y0285732D01*
X0071456Y0286718D02*
X0067706Y0286718D01*
X0067706Y0287704D02*
X0071456Y0287704D01*
X0071456Y0288690D02*
X0067706Y0288690D01*
X0295237Y0036913D02*
X0295237Y0033163D01*
X0292273Y0033163D01*
X0292273Y0036913D01*
X0295237Y0036913D01*
X0295237Y0034149D02*
X0292273Y0034149D01*
X0292273Y0035135D02*
X0295237Y0035135D01*
X0295237Y0036121D02*
X0292273Y0036121D01*
X0295237Y0027464D02*
X0295237Y0023714D01*
X0292273Y0023714D01*
X0292273Y0027464D01*
X0295237Y0027464D01*
X0295237Y0024700D02*
X0292273Y0024700D01*
X0292273Y0025686D02*
X0295237Y0025686D01*
X0295237Y0026672D02*
X0292273Y0026672D01*
D34*
X0302505Y0094664D03*
X0302505Y0106664D03*
D35*
X0270080Y0105390D03*
X0270080Y0108539D03*
X0270080Y0111689D03*
X0270080Y0114839D03*
X0270080Y0117988D03*
X0270080Y0121138D03*
X0270080Y0124287D03*
X0270080Y0127437D03*
X0270080Y0130587D03*
X0270080Y0133736D03*
X0270080Y0102240D03*
X0270080Y0099091D03*
X0270080Y0095941D03*
X0270080Y0092791D03*
D36*
X0281355Y0246414D03*
X0281355Y0283914D03*
X0219855Y0283914D03*
X0219855Y0246414D03*
M02*
