G75*
%MOIN*%
%OFA0B0*%
%FSLAX25Y25*%
%IPPOS*%
%LPD*%
%AMOC8*
5,1,8,0,0,1.08239X$1,22.5*
%
%ADD10C,0.00000*%
%ADD11C,0.00800*%
%ADD12C,0.00500*%
%ADD13C,0.00400*%
%ADD14C,0.00600*%
D10*
X0005355Y0005814D02*
X0005355Y0290774D01*
X0311556Y0290774D01*
X0311556Y0005814D01*
X0005355Y0005814D01*
X0005656Y0012464D02*
X0005658Y0012622D01*
X0005664Y0012780D01*
X0005674Y0012938D01*
X0005688Y0013096D01*
X0005706Y0013253D01*
X0005727Y0013410D01*
X0005753Y0013566D01*
X0005783Y0013722D01*
X0005816Y0013877D01*
X0005854Y0014030D01*
X0005895Y0014183D01*
X0005940Y0014335D01*
X0005989Y0014486D01*
X0006042Y0014635D01*
X0006098Y0014783D01*
X0006158Y0014929D01*
X0006222Y0015074D01*
X0006290Y0015217D01*
X0006361Y0015359D01*
X0006435Y0015499D01*
X0006513Y0015636D01*
X0006595Y0015772D01*
X0006679Y0015906D01*
X0006768Y0016037D01*
X0006859Y0016166D01*
X0006954Y0016293D01*
X0007051Y0016418D01*
X0007152Y0016540D01*
X0007256Y0016659D01*
X0007363Y0016776D01*
X0007473Y0016890D01*
X0007586Y0017001D01*
X0007701Y0017110D01*
X0007819Y0017215D01*
X0007940Y0017317D01*
X0008063Y0017417D01*
X0008189Y0017513D01*
X0008317Y0017606D01*
X0008447Y0017696D01*
X0008580Y0017782D01*
X0008715Y0017866D01*
X0008851Y0017945D01*
X0008990Y0018022D01*
X0009131Y0018094D01*
X0009273Y0018164D01*
X0009417Y0018229D01*
X0009563Y0018291D01*
X0009710Y0018349D01*
X0009859Y0018404D01*
X0010009Y0018455D01*
X0010160Y0018502D01*
X0010312Y0018545D01*
X0010465Y0018584D01*
X0010620Y0018620D01*
X0010775Y0018651D01*
X0010931Y0018679D01*
X0011087Y0018703D01*
X0011244Y0018723D01*
X0011402Y0018739D01*
X0011559Y0018751D01*
X0011718Y0018759D01*
X0011876Y0018763D01*
X0012034Y0018763D01*
X0012192Y0018759D01*
X0012351Y0018751D01*
X0012508Y0018739D01*
X0012666Y0018723D01*
X0012823Y0018703D01*
X0012979Y0018679D01*
X0013135Y0018651D01*
X0013290Y0018620D01*
X0013445Y0018584D01*
X0013598Y0018545D01*
X0013750Y0018502D01*
X0013901Y0018455D01*
X0014051Y0018404D01*
X0014200Y0018349D01*
X0014347Y0018291D01*
X0014493Y0018229D01*
X0014637Y0018164D01*
X0014779Y0018094D01*
X0014920Y0018022D01*
X0015059Y0017945D01*
X0015195Y0017866D01*
X0015330Y0017782D01*
X0015463Y0017696D01*
X0015593Y0017606D01*
X0015721Y0017513D01*
X0015847Y0017417D01*
X0015970Y0017317D01*
X0016091Y0017215D01*
X0016209Y0017110D01*
X0016324Y0017001D01*
X0016437Y0016890D01*
X0016547Y0016776D01*
X0016654Y0016659D01*
X0016758Y0016540D01*
X0016859Y0016418D01*
X0016956Y0016293D01*
X0017051Y0016166D01*
X0017142Y0016037D01*
X0017231Y0015906D01*
X0017315Y0015772D01*
X0017397Y0015636D01*
X0017475Y0015499D01*
X0017549Y0015359D01*
X0017620Y0015217D01*
X0017688Y0015074D01*
X0017752Y0014929D01*
X0017812Y0014783D01*
X0017868Y0014635D01*
X0017921Y0014486D01*
X0017970Y0014335D01*
X0018015Y0014183D01*
X0018056Y0014030D01*
X0018094Y0013877D01*
X0018127Y0013722D01*
X0018157Y0013566D01*
X0018183Y0013410D01*
X0018204Y0013253D01*
X0018222Y0013096D01*
X0018236Y0012938D01*
X0018246Y0012780D01*
X0018252Y0012622D01*
X0018254Y0012464D01*
X0018252Y0012306D01*
X0018246Y0012148D01*
X0018236Y0011990D01*
X0018222Y0011832D01*
X0018204Y0011675D01*
X0018183Y0011518D01*
X0018157Y0011362D01*
X0018127Y0011206D01*
X0018094Y0011051D01*
X0018056Y0010898D01*
X0018015Y0010745D01*
X0017970Y0010593D01*
X0017921Y0010442D01*
X0017868Y0010293D01*
X0017812Y0010145D01*
X0017752Y0009999D01*
X0017688Y0009854D01*
X0017620Y0009711D01*
X0017549Y0009569D01*
X0017475Y0009429D01*
X0017397Y0009292D01*
X0017315Y0009156D01*
X0017231Y0009022D01*
X0017142Y0008891D01*
X0017051Y0008762D01*
X0016956Y0008635D01*
X0016859Y0008510D01*
X0016758Y0008388D01*
X0016654Y0008269D01*
X0016547Y0008152D01*
X0016437Y0008038D01*
X0016324Y0007927D01*
X0016209Y0007818D01*
X0016091Y0007713D01*
X0015970Y0007611D01*
X0015847Y0007511D01*
X0015721Y0007415D01*
X0015593Y0007322D01*
X0015463Y0007232D01*
X0015330Y0007146D01*
X0015195Y0007062D01*
X0015059Y0006983D01*
X0014920Y0006906D01*
X0014779Y0006834D01*
X0014637Y0006764D01*
X0014493Y0006699D01*
X0014347Y0006637D01*
X0014200Y0006579D01*
X0014051Y0006524D01*
X0013901Y0006473D01*
X0013750Y0006426D01*
X0013598Y0006383D01*
X0013445Y0006344D01*
X0013290Y0006308D01*
X0013135Y0006277D01*
X0012979Y0006249D01*
X0012823Y0006225D01*
X0012666Y0006205D01*
X0012508Y0006189D01*
X0012351Y0006177D01*
X0012192Y0006169D01*
X0012034Y0006165D01*
X0011876Y0006165D01*
X0011718Y0006169D01*
X0011559Y0006177D01*
X0011402Y0006189D01*
X0011244Y0006205D01*
X0011087Y0006225D01*
X0010931Y0006249D01*
X0010775Y0006277D01*
X0010620Y0006308D01*
X0010465Y0006344D01*
X0010312Y0006383D01*
X0010160Y0006426D01*
X0010009Y0006473D01*
X0009859Y0006524D01*
X0009710Y0006579D01*
X0009563Y0006637D01*
X0009417Y0006699D01*
X0009273Y0006764D01*
X0009131Y0006834D01*
X0008990Y0006906D01*
X0008851Y0006983D01*
X0008715Y0007062D01*
X0008580Y0007146D01*
X0008447Y0007232D01*
X0008317Y0007322D01*
X0008189Y0007415D01*
X0008063Y0007511D01*
X0007940Y0007611D01*
X0007819Y0007713D01*
X0007701Y0007818D01*
X0007586Y0007927D01*
X0007473Y0008038D01*
X0007363Y0008152D01*
X0007256Y0008269D01*
X0007152Y0008388D01*
X0007051Y0008510D01*
X0006954Y0008635D01*
X0006859Y0008762D01*
X0006768Y0008891D01*
X0006679Y0009022D01*
X0006595Y0009156D01*
X0006513Y0009292D01*
X0006435Y0009429D01*
X0006361Y0009569D01*
X0006290Y0009711D01*
X0006222Y0009854D01*
X0006158Y0009999D01*
X0006098Y0010145D01*
X0006042Y0010293D01*
X0005989Y0010442D01*
X0005940Y0010593D01*
X0005895Y0010745D01*
X0005854Y0010898D01*
X0005816Y0011051D01*
X0005783Y0011206D01*
X0005753Y0011362D01*
X0005727Y0011518D01*
X0005706Y0011675D01*
X0005688Y0011832D01*
X0005674Y0011990D01*
X0005664Y0012148D01*
X0005658Y0012306D01*
X0005656Y0012464D01*
X0028420Y0032519D02*
X0028422Y0032596D01*
X0028428Y0032672D01*
X0028438Y0032748D01*
X0028452Y0032823D01*
X0028469Y0032898D01*
X0028491Y0032971D01*
X0028516Y0033044D01*
X0028546Y0033115D01*
X0028578Y0033184D01*
X0028615Y0033251D01*
X0028654Y0033317D01*
X0028697Y0033380D01*
X0028744Y0033441D01*
X0028793Y0033500D01*
X0028846Y0033556D01*
X0028901Y0033609D01*
X0028959Y0033659D01*
X0029019Y0033706D01*
X0029082Y0033750D01*
X0029147Y0033791D01*
X0029214Y0033828D01*
X0029283Y0033862D01*
X0029353Y0033892D01*
X0029425Y0033918D01*
X0029499Y0033940D01*
X0029573Y0033959D01*
X0029648Y0033974D01*
X0029724Y0033985D01*
X0029800Y0033992D01*
X0029877Y0033995D01*
X0029953Y0033994D01*
X0030030Y0033989D01*
X0030106Y0033980D01*
X0030182Y0033967D01*
X0030256Y0033950D01*
X0030330Y0033930D01*
X0030403Y0033905D01*
X0030474Y0033877D01*
X0030544Y0033845D01*
X0030612Y0033810D01*
X0030678Y0033771D01*
X0030742Y0033729D01*
X0030803Y0033683D01*
X0030863Y0033634D01*
X0030919Y0033583D01*
X0030973Y0033528D01*
X0031024Y0033471D01*
X0031072Y0033411D01*
X0031117Y0033349D01*
X0031158Y0033284D01*
X0031196Y0033218D01*
X0031231Y0033150D01*
X0031261Y0033079D01*
X0031289Y0033008D01*
X0031312Y0032935D01*
X0031332Y0032861D01*
X0031348Y0032786D01*
X0031360Y0032710D01*
X0031368Y0032634D01*
X0031372Y0032557D01*
X0031372Y0032481D01*
X0031368Y0032404D01*
X0031360Y0032328D01*
X0031348Y0032252D01*
X0031332Y0032177D01*
X0031312Y0032103D01*
X0031289Y0032030D01*
X0031261Y0031959D01*
X0031231Y0031888D01*
X0031196Y0031820D01*
X0031158Y0031754D01*
X0031117Y0031689D01*
X0031072Y0031627D01*
X0031024Y0031567D01*
X0030973Y0031510D01*
X0030919Y0031455D01*
X0030863Y0031404D01*
X0030803Y0031355D01*
X0030742Y0031309D01*
X0030678Y0031267D01*
X0030612Y0031228D01*
X0030544Y0031193D01*
X0030474Y0031161D01*
X0030403Y0031133D01*
X0030330Y0031108D01*
X0030256Y0031088D01*
X0030182Y0031071D01*
X0030106Y0031058D01*
X0030030Y0031049D01*
X0029953Y0031044D01*
X0029877Y0031043D01*
X0029800Y0031046D01*
X0029724Y0031053D01*
X0029648Y0031064D01*
X0029573Y0031079D01*
X0029499Y0031098D01*
X0029425Y0031120D01*
X0029353Y0031146D01*
X0029283Y0031176D01*
X0029214Y0031210D01*
X0029147Y0031247D01*
X0029082Y0031288D01*
X0029019Y0031332D01*
X0028959Y0031379D01*
X0028901Y0031429D01*
X0028846Y0031482D01*
X0028793Y0031538D01*
X0028744Y0031597D01*
X0028697Y0031658D01*
X0028654Y0031721D01*
X0028615Y0031787D01*
X0028578Y0031854D01*
X0028546Y0031923D01*
X0028516Y0031994D01*
X0028491Y0032067D01*
X0028469Y0032140D01*
X0028452Y0032215D01*
X0028438Y0032290D01*
X0028428Y0032366D01*
X0028422Y0032442D01*
X0028420Y0032519D01*
X0038947Y0022508D02*
X0038949Y0022599D01*
X0038955Y0022689D01*
X0038965Y0022780D01*
X0038979Y0022869D01*
X0038997Y0022958D01*
X0039018Y0023047D01*
X0039044Y0023134D01*
X0039073Y0023220D01*
X0039107Y0023304D01*
X0039143Y0023387D01*
X0039184Y0023469D01*
X0039228Y0023548D01*
X0039275Y0023626D01*
X0039326Y0023701D01*
X0039380Y0023774D01*
X0039437Y0023844D01*
X0039497Y0023912D01*
X0039560Y0023978D01*
X0039626Y0024040D01*
X0039695Y0024099D01*
X0039766Y0024156D01*
X0039840Y0024209D01*
X0039916Y0024259D01*
X0039994Y0024306D01*
X0040074Y0024349D01*
X0040155Y0024388D01*
X0040239Y0024424D01*
X0040324Y0024456D01*
X0040410Y0024485D01*
X0040497Y0024509D01*
X0040586Y0024530D01*
X0040675Y0024547D01*
X0040765Y0024560D01*
X0040855Y0024569D01*
X0040946Y0024574D01*
X0041037Y0024575D01*
X0041127Y0024572D01*
X0041218Y0024565D01*
X0041308Y0024554D01*
X0041398Y0024539D01*
X0041487Y0024520D01*
X0041575Y0024498D01*
X0041661Y0024471D01*
X0041747Y0024441D01*
X0041831Y0024407D01*
X0041914Y0024369D01*
X0041995Y0024328D01*
X0042074Y0024283D01*
X0042151Y0024234D01*
X0042225Y0024183D01*
X0042298Y0024128D01*
X0042368Y0024070D01*
X0042435Y0024009D01*
X0042499Y0023945D01*
X0042561Y0023879D01*
X0042620Y0023809D01*
X0042675Y0023738D01*
X0042728Y0023663D01*
X0042777Y0023587D01*
X0042823Y0023509D01*
X0042865Y0023428D01*
X0042904Y0023346D01*
X0042939Y0023262D01*
X0042970Y0023177D01*
X0042997Y0023090D01*
X0043021Y0023003D01*
X0043041Y0022914D01*
X0043057Y0022825D01*
X0043069Y0022735D01*
X0043077Y0022644D01*
X0043081Y0022553D01*
X0043081Y0022463D01*
X0043077Y0022372D01*
X0043069Y0022281D01*
X0043057Y0022191D01*
X0043041Y0022102D01*
X0043021Y0022013D01*
X0042997Y0021926D01*
X0042970Y0021839D01*
X0042939Y0021754D01*
X0042904Y0021670D01*
X0042865Y0021588D01*
X0042823Y0021507D01*
X0042777Y0021429D01*
X0042728Y0021353D01*
X0042675Y0021278D01*
X0042620Y0021207D01*
X0042561Y0021137D01*
X0042499Y0021071D01*
X0042435Y0021007D01*
X0042368Y0020946D01*
X0042298Y0020888D01*
X0042225Y0020833D01*
X0042151Y0020782D01*
X0042074Y0020733D01*
X0041995Y0020688D01*
X0041914Y0020647D01*
X0041831Y0020609D01*
X0041747Y0020575D01*
X0041661Y0020545D01*
X0041575Y0020518D01*
X0041487Y0020496D01*
X0041398Y0020477D01*
X0041308Y0020462D01*
X0041218Y0020451D01*
X0041127Y0020444D01*
X0041037Y0020441D01*
X0040946Y0020442D01*
X0040855Y0020447D01*
X0040765Y0020456D01*
X0040675Y0020469D01*
X0040586Y0020486D01*
X0040497Y0020507D01*
X0040410Y0020531D01*
X0040324Y0020560D01*
X0040239Y0020592D01*
X0040155Y0020628D01*
X0040074Y0020667D01*
X0039994Y0020710D01*
X0039916Y0020757D01*
X0039840Y0020807D01*
X0039766Y0020860D01*
X0039695Y0020917D01*
X0039626Y0020976D01*
X0039560Y0021038D01*
X0039497Y0021104D01*
X0039437Y0021172D01*
X0039380Y0021242D01*
X0039326Y0021315D01*
X0039275Y0021390D01*
X0039228Y0021468D01*
X0039184Y0021547D01*
X0039143Y0021629D01*
X0039107Y0021712D01*
X0039073Y0021796D01*
X0039044Y0021882D01*
X0039018Y0021969D01*
X0038997Y0022058D01*
X0038979Y0022147D01*
X0038965Y0022236D01*
X0038955Y0022327D01*
X0038949Y0022417D01*
X0038947Y0022508D01*
X0045890Y0141571D02*
X0045892Y0141679D01*
X0045898Y0141788D01*
X0045908Y0141896D01*
X0045922Y0142003D01*
X0045940Y0142110D01*
X0045961Y0142217D01*
X0045987Y0142322D01*
X0046017Y0142427D01*
X0046050Y0142530D01*
X0046087Y0142632D01*
X0046128Y0142732D01*
X0046172Y0142831D01*
X0046221Y0142929D01*
X0046272Y0143024D01*
X0046327Y0143117D01*
X0046386Y0143209D01*
X0046448Y0143298D01*
X0046513Y0143385D01*
X0046581Y0143469D01*
X0046652Y0143551D01*
X0046726Y0143630D01*
X0046803Y0143706D01*
X0046883Y0143780D01*
X0046966Y0143850D01*
X0047051Y0143918D01*
X0047138Y0143982D01*
X0047228Y0144043D01*
X0047320Y0144101D01*
X0047414Y0144155D01*
X0047510Y0144206D01*
X0047607Y0144253D01*
X0047707Y0144297D01*
X0047808Y0144337D01*
X0047910Y0144373D01*
X0048013Y0144405D01*
X0048118Y0144434D01*
X0048224Y0144458D01*
X0048330Y0144479D01*
X0048437Y0144496D01*
X0048545Y0144509D01*
X0048653Y0144518D01*
X0048762Y0144523D01*
X0048870Y0144524D01*
X0048979Y0144521D01*
X0049087Y0144514D01*
X0049195Y0144503D01*
X0049302Y0144488D01*
X0049409Y0144469D01*
X0049515Y0144446D01*
X0049620Y0144420D01*
X0049725Y0144389D01*
X0049827Y0144355D01*
X0049929Y0144317D01*
X0050029Y0144275D01*
X0050128Y0144230D01*
X0050225Y0144181D01*
X0050319Y0144128D01*
X0050412Y0144072D01*
X0050503Y0144013D01*
X0050592Y0143950D01*
X0050678Y0143885D01*
X0050762Y0143816D01*
X0050843Y0143744D01*
X0050921Y0143669D01*
X0050997Y0143591D01*
X0051070Y0143510D01*
X0051140Y0143427D01*
X0051206Y0143342D01*
X0051270Y0143254D01*
X0051330Y0143163D01*
X0051387Y0143071D01*
X0051440Y0142976D01*
X0051490Y0142880D01*
X0051536Y0142782D01*
X0051579Y0142682D01*
X0051618Y0142581D01*
X0051653Y0142478D01*
X0051685Y0142375D01*
X0051712Y0142270D01*
X0051736Y0142164D01*
X0051756Y0142057D01*
X0051772Y0141950D01*
X0051784Y0141842D01*
X0051792Y0141734D01*
X0051796Y0141625D01*
X0051796Y0141517D01*
X0051792Y0141408D01*
X0051784Y0141300D01*
X0051772Y0141192D01*
X0051756Y0141085D01*
X0051736Y0140978D01*
X0051712Y0140872D01*
X0051685Y0140767D01*
X0051653Y0140664D01*
X0051618Y0140561D01*
X0051579Y0140460D01*
X0051536Y0140360D01*
X0051490Y0140262D01*
X0051440Y0140166D01*
X0051387Y0140071D01*
X0051330Y0139979D01*
X0051270Y0139888D01*
X0051206Y0139800D01*
X0051140Y0139715D01*
X0051070Y0139632D01*
X0050997Y0139551D01*
X0050921Y0139473D01*
X0050843Y0139398D01*
X0050762Y0139326D01*
X0050678Y0139257D01*
X0050592Y0139192D01*
X0050503Y0139129D01*
X0050412Y0139070D01*
X0050320Y0139014D01*
X0050225Y0138961D01*
X0050128Y0138912D01*
X0050029Y0138867D01*
X0049929Y0138825D01*
X0049827Y0138787D01*
X0049725Y0138753D01*
X0049620Y0138722D01*
X0049515Y0138696D01*
X0049409Y0138673D01*
X0049302Y0138654D01*
X0049195Y0138639D01*
X0049087Y0138628D01*
X0048979Y0138621D01*
X0048870Y0138618D01*
X0048762Y0138619D01*
X0048653Y0138624D01*
X0048545Y0138633D01*
X0048437Y0138646D01*
X0048330Y0138663D01*
X0048224Y0138684D01*
X0048118Y0138708D01*
X0048013Y0138737D01*
X0047910Y0138769D01*
X0047808Y0138805D01*
X0047707Y0138845D01*
X0047607Y0138889D01*
X0047510Y0138936D01*
X0047414Y0138987D01*
X0047320Y0139041D01*
X0047228Y0139099D01*
X0047138Y0139160D01*
X0047051Y0139224D01*
X0046966Y0139292D01*
X0046883Y0139362D01*
X0046803Y0139436D01*
X0046726Y0139512D01*
X0046652Y0139591D01*
X0046581Y0139673D01*
X0046513Y0139757D01*
X0046448Y0139844D01*
X0046386Y0139933D01*
X0046327Y0140025D01*
X0046272Y0140118D01*
X0046221Y0140213D01*
X0046172Y0140311D01*
X0046128Y0140410D01*
X0046087Y0140510D01*
X0046050Y0140612D01*
X0046017Y0140715D01*
X0045987Y0140820D01*
X0045961Y0140925D01*
X0045940Y0141032D01*
X0045922Y0141139D01*
X0045908Y0141246D01*
X0045898Y0141354D01*
X0045892Y0141463D01*
X0045890Y0141571D01*
X0018331Y0141571D02*
X0018333Y0141679D01*
X0018339Y0141788D01*
X0018349Y0141896D01*
X0018363Y0142003D01*
X0018381Y0142110D01*
X0018402Y0142217D01*
X0018428Y0142322D01*
X0018458Y0142427D01*
X0018491Y0142530D01*
X0018528Y0142632D01*
X0018569Y0142732D01*
X0018613Y0142831D01*
X0018662Y0142929D01*
X0018713Y0143024D01*
X0018768Y0143117D01*
X0018827Y0143209D01*
X0018889Y0143298D01*
X0018954Y0143385D01*
X0019022Y0143469D01*
X0019093Y0143551D01*
X0019167Y0143630D01*
X0019244Y0143706D01*
X0019324Y0143780D01*
X0019407Y0143850D01*
X0019492Y0143918D01*
X0019579Y0143982D01*
X0019669Y0144043D01*
X0019761Y0144101D01*
X0019855Y0144155D01*
X0019951Y0144206D01*
X0020048Y0144253D01*
X0020148Y0144297D01*
X0020249Y0144337D01*
X0020351Y0144373D01*
X0020454Y0144405D01*
X0020559Y0144434D01*
X0020665Y0144458D01*
X0020771Y0144479D01*
X0020878Y0144496D01*
X0020986Y0144509D01*
X0021094Y0144518D01*
X0021203Y0144523D01*
X0021311Y0144524D01*
X0021420Y0144521D01*
X0021528Y0144514D01*
X0021636Y0144503D01*
X0021743Y0144488D01*
X0021850Y0144469D01*
X0021956Y0144446D01*
X0022061Y0144420D01*
X0022166Y0144389D01*
X0022268Y0144355D01*
X0022370Y0144317D01*
X0022470Y0144275D01*
X0022569Y0144230D01*
X0022666Y0144181D01*
X0022760Y0144128D01*
X0022853Y0144072D01*
X0022944Y0144013D01*
X0023033Y0143950D01*
X0023119Y0143885D01*
X0023203Y0143816D01*
X0023284Y0143744D01*
X0023362Y0143669D01*
X0023438Y0143591D01*
X0023511Y0143510D01*
X0023581Y0143427D01*
X0023647Y0143342D01*
X0023711Y0143254D01*
X0023771Y0143163D01*
X0023828Y0143071D01*
X0023881Y0142976D01*
X0023931Y0142880D01*
X0023977Y0142782D01*
X0024020Y0142682D01*
X0024059Y0142581D01*
X0024094Y0142478D01*
X0024126Y0142375D01*
X0024153Y0142270D01*
X0024177Y0142164D01*
X0024197Y0142057D01*
X0024213Y0141950D01*
X0024225Y0141842D01*
X0024233Y0141734D01*
X0024237Y0141625D01*
X0024237Y0141517D01*
X0024233Y0141408D01*
X0024225Y0141300D01*
X0024213Y0141192D01*
X0024197Y0141085D01*
X0024177Y0140978D01*
X0024153Y0140872D01*
X0024126Y0140767D01*
X0024094Y0140664D01*
X0024059Y0140561D01*
X0024020Y0140460D01*
X0023977Y0140360D01*
X0023931Y0140262D01*
X0023881Y0140166D01*
X0023828Y0140071D01*
X0023771Y0139979D01*
X0023711Y0139888D01*
X0023647Y0139800D01*
X0023581Y0139715D01*
X0023511Y0139632D01*
X0023438Y0139551D01*
X0023362Y0139473D01*
X0023284Y0139398D01*
X0023203Y0139326D01*
X0023119Y0139257D01*
X0023033Y0139192D01*
X0022944Y0139129D01*
X0022853Y0139070D01*
X0022761Y0139014D01*
X0022666Y0138961D01*
X0022569Y0138912D01*
X0022470Y0138867D01*
X0022370Y0138825D01*
X0022268Y0138787D01*
X0022166Y0138753D01*
X0022061Y0138722D01*
X0021956Y0138696D01*
X0021850Y0138673D01*
X0021743Y0138654D01*
X0021636Y0138639D01*
X0021528Y0138628D01*
X0021420Y0138621D01*
X0021311Y0138618D01*
X0021203Y0138619D01*
X0021094Y0138624D01*
X0020986Y0138633D01*
X0020878Y0138646D01*
X0020771Y0138663D01*
X0020665Y0138684D01*
X0020559Y0138708D01*
X0020454Y0138737D01*
X0020351Y0138769D01*
X0020249Y0138805D01*
X0020148Y0138845D01*
X0020048Y0138889D01*
X0019951Y0138936D01*
X0019855Y0138987D01*
X0019761Y0139041D01*
X0019669Y0139099D01*
X0019579Y0139160D01*
X0019492Y0139224D01*
X0019407Y0139292D01*
X0019324Y0139362D01*
X0019244Y0139436D01*
X0019167Y0139512D01*
X0019093Y0139591D01*
X0019022Y0139673D01*
X0018954Y0139757D01*
X0018889Y0139844D01*
X0018827Y0139933D01*
X0018768Y0140025D01*
X0018713Y0140118D01*
X0018662Y0140213D01*
X0018613Y0140311D01*
X0018569Y0140410D01*
X0018528Y0140510D01*
X0018491Y0140612D01*
X0018458Y0140715D01*
X0018428Y0140820D01*
X0018402Y0140925D01*
X0018381Y0141032D01*
X0018363Y0141139D01*
X0018349Y0141246D01*
X0018339Y0141354D01*
X0018333Y0141463D01*
X0018331Y0141571D01*
X0017195Y0178956D02*
X0017197Y0179040D01*
X0017203Y0179123D01*
X0017213Y0179206D01*
X0017227Y0179289D01*
X0017244Y0179371D01*
X0017266Y0179452D01*
X0017291Y0179531D01*
X0017320Y0179610D01*
X0017353Y0179687D01*
X0017389Y0179762D01*
X0017429Y0179836D01*
X0017472Y0179908D01*
X0017519Y0179977D01*
X0017569Y0180044D01*
X0017622Y0180109D01*
X0017678Y0180171D01*
X0017736Y0180231D01*
X0017798Y0180288D01*
X0017862Y0180341D01*
X0017929Y0180392D01*
X0017998Y0180439D01*
X0018069Y0180484D01*
X0018142Y0180524D01*
X0018217Y0180561D01*
X0018294Y0180595D01*
X0018372Y0180625D01*
X0018451Y0180651D01*
X0018532Y0180674D01*
X0018614Y0180692D01*
X0018696Y0180707D01*
X0018779Y0180718D01*
X0018862Y0180725D01*
X0018946Y0180728D01*
X0019030Y0180727D01*
X0019113Y0180722D01*
X0019197Y0180713D01*
X0019279Y0180700D01*
X0019361Y0180684D01*
X0019442Y0180663D01*
X0019523Y0180639D01*
X0019601Y0180611D01*
X0019679Y0180579D01*
X0019755Y0180543D01*
X0019829Y0180504D01*
X0019901Y0180462D01*
X0019971Y0180416D01*
X0020039Y0180367D01*
X0020104Y0180315D01*
X0020167Y0180260D01*
X0020227Y0180202D01*
X0020285Y0180141D01*
X0020339Y0180077D01*
X0020391Y0180011D01*
X0020439Y0179943D01*
X0020484Y0179872D01*
X0020525Y0179799D01*
X0020564Y0179725D01*
X0020598Y0179649D01*
X0020629Y0179571D01*
X0020656Y0179492D01*
X0020680Y0179411D01*
X0020699Y0179330D01*
X0020715Y0179248D01*
X0020727Y0179165D01*
X0020735Y0179081D01*
X0020739Y0178998D01*
X0020739Y0178914D01*
X0020735Y0178831D01*
X0020727Y0178747D01*
X0020715Y0178664D01*
X0020699Y0178582D01*
X0020680Y0178501D01*
X0020656Y0178420D01*
X0020629Y0178341D01*
X0020598Y0178263D01*
X0020564Y0178187D01*
X0020525Y0178113D01*
X0020484Y0178040D01*
X0020439Y0177969D01*
X0020391Y0177901D01*
X0020339Y0177835D01*
X0020285Y0177771D01*
X0020227Y0177710D01*
X0020167Y0177652D01*
X0020104Y0177597D01*
X0020039Y0177545D01*
X0019971Y0177496D01*
X0019901Y0177450D01*
X0019829Y0177408D01*
X0019755Y0177369D01*
X0019679Y0177333D01*
X0019601Y0177301D01*
X0019523Y0177273D01*
X0019442Y0177249D01*
X0019361Y0177228D01*
X0019279Y0177212D01*
X0019197Y0177199D01*
X0019113Y0177190D01*
X0019030Y0177185D01*
X0018946Y0177184D01*
X0018862Y0177187D01*
X0018779Y0177194D01*
X0018696Y0177205D01*
X0018614Y0177220D01*
X0018532Y0177238D01*
X0018451Y0177261D01*
X0018372Y0177287D01*
X0018294Y0177317D01*
X0018217Y0177351D01*
X0018142Y0177388D01*
X0018069Y0177428D01*
X0017998Y0177473D01*
X0017929Y0177520D01*
X0017862Y0177571D01*
X0017798Y0177624D01*
X0017736Y0177681D01*
X0017678Y0177741D01*
X0017622Y0177803D01*
X0017569Y0177868D01*
X0017519Y0177935D01*
X0017472Y0178004D01*
X0017429Y0178076D01*
X0017389Y0178150D01*
X0017353Y0178225D01*
X0017320Y0178302D01*
X0017291Y0178381D01*
X0017266Y0178460D01*
X0017244Y0178541D01*
X0017227Y0178623D01*
X0017213Y0178706D01*
X0017203Y0178789D01*
X0017197Y0178872D01*
X0017195Y0178956D01*
X0017195Y0210452D02*
X0017197Y0210536D01*
X0017203Y0210619D01*
X0017213Y0210702D01*
X0017227Y0210785D01*
X0017244Y0210867D01*
X0017266Y0210948D01*
X0017291Y0211027D01*
X0017320Y0211106D01*
X0017353Y0211183D01*
X0017389Y0211258D01*
X0017429Y0211332D01*
X0017472Y0211404D01*
X0017519Y0211473D01*
X0017569Y0211540D01*
X0017622Y0211605D01*
X0017678Y0211667D01*
X0017736Y0211727D01*
X0017798Y0211784D01*
X0017862Y0211837D01*
X0017929Y0211888D01*
X0017998Y0211935D01*
X0018069Y0211980D01*
X0018142Y0212020D01*
X0018217Y0212057D01*
X0018294Y0212091D01*
X0018372Y0212121D01*
X0018451Y0212147D01*
X0018532Y0212170D01*
X0018614Y0212188D01*
X0018696Y0212203D01*
X0018779Y0212214D01*
X0018862Y0212221D01*
X0018946Y0212224D01*
X0019030Y0212223D01*
X0019113Y0212218D01*
X0019197Y0212209D01*
X0019279Y0212196D01*
X0019361Y0212180D01*
X0019442Y0212159D01*
X0019523Y0212135D01*
X0019601Y0212107D01*
X0019679Y0212075D01*
X0019755Y0212039D01*
X0019829Y0212000D01*
X0019901Y0211958D01*
X0019971Y0211912D01*
X0020039Y0211863D01*
X0020104Y0211811D01*
X0020167Y0211756D01*
X0020227Y0211698D01*
X0020285Y0211637D01*
X0020339Y0211573D01*
X0020391Y0211507D01*
X0020439Y0211439D01*
X0020484Y0211368D01*
X0020525Y0211295D01*
X0020564Y0211221D01*
X0020598Y0211145D01*
X0020629Y0211067D01*
X0020656Y0210988D01*
X0020680Y0210907D01*
X0020699Y0210826D01*
X0020715Y0210744D01*
X0020727Y0210661D01*
X0020735Y0210577D01*
X0020739Y0210494D01*
X0020739Y0210410D01*
X0020735Y0210327D01*
X0020727Y0210243D01*
X0020715Y0210160D01*
X0020699Y0210078D01*
X0020680Y0209997D01*
X0020656Y0209916D01*
X0020629Y0209837D01*
X0020598Y0209759D01*
X0020564Y0209683D01*
X0020525Y0209609D01*
X0020484Y0209536D01*
X0020439Y0209465D01*
X0020391Y0209397D01*
X0020339Y0209331D01*
X0020285Y0209267D01*
X0020227Y0209206D01*
X0020167Y0209148D01*
X0020104Y0209093D01*
X0020039Y0209041D01*
X0019971Y0208992D01*
X0019901Y0208946D01*
X0019829Y0208904D01*
X0019755Y0208865D01*
X0019679Y0208829D01*
X0019601Y0208797D01*
X0019523Y0208769D01*
X0019442Y0208745D01*
X0019361Y0208724D01*
X0019279Y0208708D01*
X0019197Y0208695D01*
X0019113Y0208686D01*
X0019030Y0208681D01*
X0018946Y0208680D01*
X0018862Y0208683D01*
X0018779Y0208690D01*
X0018696Y0208701D01*
X0018614Y0208716D01*
X0018532Y0208734D01*
X0018451Y0208757D01*
X0018372Y0208783D01*
X0018294Y0208813D01*
X0018217Y0208847D01*
X0018142Y0208884D01*
X0018069Y0208924D01*
X0017998Y0208969D01*
X0017929Y0209016D01*
X0017862Y0209067D01*
X0017798Y0209120D01*
X0017736Y0209177D01*
X0017678Y0209237D01*
X0017622Y0209299D01*
X0017569Y0209364D01*
X0017519Y0209431D01*
X0017472Y0209500D01*
X0017429Y0209572D01*
X0017389Y0209646D01*
X0017353Y0209721D01*
X0017320Y0209798D01*
X0017291Y0209877D01*
X0017266Y0209956D01*
X0017244Y0210037D01*
X0017227Y0210119D01*
X0017213Y0210202D01*
X0017203Y0210285D01*
X0017197Y0210368D01*
X0017195Y0210452D01*
X0005606Y0284264D02*
X0005608Y0284422D01*
X0005614Y0284580D01*
X0005624Y0284738D01*
X0005638Y0284896D01*
X0005656Y0285053D01*
X0005677Y0285210D01*
X0005703Y0285366D01*
X0005733Y0285522D01*
X0005766Y0285677D01*
X0005804Y0285830D01*
X0005845Y0285983D01*
X0005890Y0286135D01*
X0005939Y0286286D01*
X0005992Y0286435D01*
X0006048Y0286583D01*
X0006108Y0286729D01*
X0006172Y0286874D01*
X0006240Y0287017D01*
X0006311Y0287159D01*
X0006385Y0287299D01*
X0006463Y0287436D01*
X0006545Y0287572D01*
X0006629Y0287706D01*
X0006718Y0287837D01*
X0006809Y0287966D01*
X0006904Y0288093D01*
X0007001Y0288218D01*
X0007102Y0288340D01*
X0007206Y0288459D01*
X0007313Y0288576D01*
X0007423Y0288690D01*
X0007536Y0288801D01*
X0007651Y0288910D01*
X0007769Y0289015D01*
X0007890Y0289117D01*
X0008013Y0289217D01*
X0008139Y0289313D01*
X0008267Y0289406D01*
X0008397Y0289496D01*
X0008530Y0289582D01*
X0008665Y0289666D01*
X0008801Y0289745D01*
X0008940Y0289822D01*
X0009081Y0289894D01*
X0009223Y0289964D01*
X0009367Y0290029D01*
X0009513Y0290091D01*
X0009660Y0290149D01*
X0009809Y0290204D01*
X0009959Y0290255D01*
X0010110Y0290302D01*
X0010262Y0290345D01*
X0010415Y0290384D01*
X0010570Y0290420D01*
X0010725Y0290451D01*
X0010881Y0290479D01*
X0011037Y0290503D01*
X0011194Y0290523D01*
X0011352Y0290539D01*
X0011509Y0290551D01*
X0011668Y0290559D01*
X0011826Y0290563D01*
X0011984Y0290563D01*
X0012142Y0290559D01*
X0012301Y0290551D01*
X0012458Y0290539D01*
X0012616Y0290523D01*
X0012773Y0290503D01*
X0012929Y0290479D01*
X0013085Y0290451D01*
X0013240Y0290420D01*
X0013395Y0290384D01*
X0013548Y0290345D01*
X0013700Y0290302D01*
X0013851Y0290255D01*
X0014001Y0290204D01*
X0014150Y0290149D01*
X0014297Y0290091D01*
X0014443Y0290029D01*
X0014587Y0289964D01*
X0014729Y0289894D01*
X0014870Y0289822D01*
X0015009Y0289745D01*
X0015145Y0289666D01*
X0015280Y0289582D01*
X0015413Y0289496D01*
X0015543Y0289406D01*
X0015671Y0289313D01*
X0015797Y0289217D01*
X0015920Y0289117D01*
X0016041Y0289015D01*
X0016159Y0288910D01*
X0016274Y0288801D01*
X0016387Y0288690D01*
X0016497Y0288576D01*
X0016604Y0288459D01*
X0016708Y0288340D01*
X0016809Y0288218D01*
X0016906Y0288093D01*
X0017001Y0287966D01*
X0017092Y0287837D01*
X0017181Y0287706D01*
X0017265Y0287572D01*
X0017347Y0287436D01*
X0017425Y0287299D01*
X0017499Y0287159D01*
X0017570Y0287017D01*
X0017638Y0286874D01*
X0017702Y0286729D01*
X0017762Y0286583D01*
X0017818Y0286435D01*
X0017871Y0286286D01*
X0017920Y0286135D01*
X0017965Y0285983D01*
X0018006Y0285830D01*
X0018044Y0285677D01*
X0018077Y0285522D01*
X0018107Y0285366D01*
X0018133Y0285210D01*
X0018154Y0285053D01*
X0018172Y0284896D01*
X0018186Y0284738D01*
X0018196Y0284580D01*
X0018202Y0284422D01*
X0018204Y0284264D01*
X0018202Y0284106D01*
X0018196Y0283948D01*
X0018186Y0283790D01*
X0018172Y0283632D01*
X0018154Y0283475D01*
X0018133Y0283318D01*
X0018107Y0283162D01*
X0018077Y0283006D01*
X0018044Y0282851D01*
X0018006Y0282698D01*
X0017965Y0282545D01*
X0017920Y0282393D01*
X0017871Y0282242D01*
X0017818Y0282093D01*
X0017762Y0281945D01*
X0017702Y0281799D01*
X0017638Y0281654D01*
X0017570Y0281511D01*
X0017499Y0281369D01*
X0017425Y0281229D01*
X0017347Y0281092D01*
X0017265Y0280956D01*
X0017181Y0280822D01*
X0017092Y0280691D01*
X0017001Y0280562D01*
X0016906Y0280435D01*
X0016809Y0280310D01*
X0016708Y0280188D01*
X0016604Y0280069D01*
X0016497Y0279952D01*
X0016387Y0279838D01*
X0016274Y0279727D01*
X0016159Y0279618D01*
X0016041Y0279513D01*
X0015920Y0279411D01*
X0015797Y0279311D01*
X0015671Y0279215D01*
X0015543Y0279122D01*
X0015413Y0279032D01*
X0015280Y0278946D01*
X0015145Y0278862D01*
X0015009Y0278783D01*
X0014870Y0278706D01*
X0014729Y0278634D01*
X0014587Y0278564D01*
X0014443Y0278499D01*
X0014297Y0278437D01*
X0014150Y0278379D01*
X0014001Y0278324D01*
X0013851Y0278273D01*
X0013700Y0278226D01*
X0013548Y0278183D01*
X0013395Y0278144D01*
X0013240Y0278108D01*
X0013085Y0278077D01*
X0012929Y0278049D01*
X0012773Y0278025D01*
X0012616Y0278005D01*
X0012458Y0277989D01*
X0012301Y0277977D01*
X0012142Y0277969D01*
X0011984Y0277965D01*
X0011826Y0277965D01*
X0011668Y0277969D01*
X0011509Y0277977D01*
X0011352Y0277989D01*
X0011194Y0278005D01*
X0011037Y0278025D01*
X0010881Y0278049D01*
X0010725Y0278077D01*
X0010570Y0278108D01*
X0010415Y0278144D01*
X0010262Y0278183D01*
X0010110Y0278226D01*
X0009959Y0278273D01*
X0009809Y0278324D01*
X0009660Y0278379D01*
X0009513Y0278437D01*
X0009367Y0278499D01*
X0009223Y0278564D01*
X0009081Y0278634D01*
X0008940Y0278706D01*
X0008801Y0278783D01*
X0008665Y0278862D01*
X0008530Y0278946D01*
X0008397Y0279032D01*
X0008267Y0279122D01*
X0008139Y0279215D01*
X0008013Y0279311D01*
X0007890Y0279411D01*
X0007769Y0279513D01*
X0007651Y0279618D01*
X0007536Y0279727D01*
X0007423Y0279838D01*
X0007313Y0279952D01*
X0007206Y0280069D01*
X0007102Y0280188D01*
X0007001Y0280310D01*
X0006904Y0280435D01*
X0006809Y0280562D01*
X0006718Y0280691D01*
X0006629Y0280822D01*
X0006545Y0280956D01*
X0006463Y0281092D01*
X0006385Y0281229D01*
X0006311Y0281369D01*
X0006240Y0281511D01*
X0006172Y0281654D01*
X0006108Y0281799D01*
X0006048Y0281945D01*
X0005992Y0282093D01*
X0005939Y0282242D01*
X0005890Y0282393D01*
X0005845Y0282545D01*
X0005804Y0282698D01*
X0005766Y0282851D01*
X0005733Y0283006D01*
X0005703Y0283162D01*
X0005677Y0283318D01*
X0005656Y0283475D01*
X0005638Y0283632D01*
X0005624Y0283790D01*
X0005614Y0283948D01*
X0005608Y0284106D01*
X0005606Y0284264D01*
X0291471Y0240794D02*
X0291473Y0240875D01*
X0291479Y0240957D01*
X0291489Y0241038D01*
X0291503Y0241118D01*
X0291520Y0241197D01*
X0291542Y0241276D01*
X0291567Y0241353D01*
X0291596Y0241430D01*
X0291629Y0241504D01*
X0291666Y0241577D01*
X0291705Y0241648D01*
X0291749Y0241717D01*
X0291795Y0241784D01*
X0291845Y0241848D01*
X0291898Y0241910D01*
X0291954Y0241970D01*
X0292012Y0242026D01*
X0292074Y0242080D01*
X0292138Y0242131D01*
X0292204Y0242178D01*
X0292272Y0242222D01*
X0292343Y0242263D01*
X0292415Y0242300D01*
X0292490Y0242334D01*
X0292565Y0242364D01*
X0292643Y0242390D01*
X0292721Y0242413D01*
X0292800Y0242431D01*
X0292880Y0242446D01*
X0292961Y0242457D01*
X0293042Y0242464D01*
X0293124Y0242467D01*
X0293205Y0242466D01*
X0293286Y0242461D01*
X0293367Y0242452D01*
X0293448Y0242439D01*
X0293528Y0242422D01*
X0293606Y0242402D01*
X0293684Y0242377D01*
X0293761Y0242349D01*
X0293836Y0242317D01*
X0293909Y0242282D01*
X0293980Y0242243D01*
X0294050Y0242200D01*
X0294117Y0242155D01*
X0294183Y0242106D01*
X0294245Y0242054D01*
X0294305Y0241998D01*
X0294362Y0241940D01*
X0294417Y0241880D01*
X0294468Y0241816D01*
X0294516Y0241751D01*
X0294561Y0241683D01*
X0294603Y0241613D01*
X0294641Y0241541D01*
X0294676Y0241467D01*
X0294707Y0241392D01*
X0294734Y0241315D01*
X0294757Y0241237D01*
X0294777Y0241158D01*
X0294793Y0241078D01*
X0294805Y0240997D01*
X0294813Y0240916D01*
X0294817Y0240835D01*
X0294817Y0240753D01*
X0294813Y0240672D01*
X0294805Y0240591D01*
X0294793Y0240510D01*
X0294777Y0240430D01*
X0294757Y0240351D01*
X0294734Y0240273D01*
X0294707Y0240196D01*
X0294676Y0240121D01*
X0294641Y0240047D01*
X0294603Y0239975D01*
X0294561Y0239905D01*
X0294516Y0239837D01*
X0294468Y0239772D01*
X0294417Y0239708D01*
X0294362Y0239648D01*
X0294305Y0239590D01*
X0294245Y0239534D01*
X0294183Y0239482D01*
X0294117Y0239433D01*
X0294050Y0239388D01*
X0293981Y0239345D01*
X0293909Y0239306D01*
X0293836Y0239271D01*
X0293761Y0239239D01*
X0293684Y0239211D01*
X0293606Y0239186D01*
X0293528Y0239166D01*
X0293448Y0239149D01*
X0293367Y0239136D01*
X0293286Y0239127D01*
X0293205Y0239122D01*
X0293124Y0239121D01*
X0293042Y0239124D01*
X0292961Y0239131D01*
X0292880Y0239142D01*
X0292800Y0239157D01*
X0292721Y0239175D01*
X0292643Y0239198D01*
X0292565Y0239224D01*
X0292490Y0239254D01*
X0292415Y0239288D01*
X0292343Y0239325D01*
X0292272Y0239366D01*
X0292204Y0239410D01*
X0292138Y0239457D01*
X0292074Y0239508D01*
X0292012Y0239562D01*
X0291954Y0239618D01*
X0291898Y0239678D01*
X0291845Y0239740D01*
X0291795Y0239804D01*
X0291749Y0239871D01*
X0291705Y0239940D01*
X0291666Y0240011D01*
X0291629Y0240084D01*
X0291596Y0240158D01*
X0291567Y0240235D01*
X0291542Y0240312D01*
X0291520Y0240391D01*
X0291503Y0240470D01*
X0291489Y0240550D01*
X0291479Y0240631D01*
X0291473Y0240713D01*
X0291471Y0240794D01*
X0291471Y0225833D02*
X0291473Y0225914D01*
X0291479Y0225996D01*
X0291489Y0226077D01*
X0291503Y0226157D01*
X0291520Y0226236D01*
X0291542Y0226315D01*
X0291567Y0226392D01*
X0291596Y0226469D01*
X0291629Y0226543D01*
X0291666Y0226616D01*
X0291705Y0226687D01*
X0291749Y0226756D01*
X0291795Y0226823D01*
X0291845Y0226887D01*
X0291898Y0226949D01*
X0291954Y0227009D01*
X0292012Y0227065D01*
X0292074Y0227119D01*
X0292138Y0227170D01*
X0292204Y0227217D01*
X0292272Y0227261D01*
X0292343Y0227302D01*
X0292415Y0227339D01*
X0292490Y0227373D01*
X0292565Y0227403D01*
X0292643Y0227429D01*
X0292721Y0227452D01*
X0292800Y0227470D01*
X0292880Y0227485D01*
X0292961Y0227496D01*
X0293042Y0227503D01*
X0293124Y0227506D01*
X0293205Y0227505D01*
X0293286Y0227500D01*
X0293367Y0227491D01*
X0293448Y0227478D01*
X0293528Y0227461D01*
X0293606Y0227441D01*
X0293684Y0227416D01*
X0293761Y0227388D01*
X0293836Y0227356D01*
X0293909Y0227321D01*
X0293980Y0227282D01*
X0294050Y0227239D01*
X0294117Y0227194D01*
X0294183Y0227145D01*
X0294245Y0227093D01*
X0294305Y0227037D01*
X0294362Y0226979D01*
X0294417Y0226919D01*
X0294468Y0226855D01*
X0294516Y0226790D01*
X0294561Y0226722D01*
X0294603Y0226652D01*
X0294641Y0226580D01*
X0294676Y0226506D01*
X0294707Y0226431D01*
X0294734Y0226354D01*
X0294757Y0226276D01*
X0294777Y0226197D01*
X0294793Y0226117D01*
X0294805Y0226036D01*
X0294813Y0225955D01*
X0294817Y0225874D01*
X0294817Y0225792D01*
X0294813Y0225711D01*
X0294805Y0225630D01*
X0294793Y0225549D01*
X0294777Y0225469D01*
X0294757Y0225390D01*
X0294734Y0225312D01*
X0294707Y0225235D01*
X0294676Y0225160D01*
X0294641Y0225086D01*
X0294603Y0225014D01*
X0294561Y0224944D01*
X0294516Y0224876D01*
X0294468Y0224811D01*
X0294417Y0224747D01*
X0294362Y0224687D01*
X0294305Y0224629D01*
X0294245Y0224573D01*
X0294183Y0224521D01*
X0294117Y0224472D01*
X0294050Y0224427D01*
X0293981Y0224384D01*
X0293909Y0224345D01*
X0293836Y0224310D01*
X0293761Y0224278D01*
X0293684Y0224250D01*
X0293606Y0224225D01*
X0293528Y0224205D01*
X0293448Y0224188D01*
X0293367Y0224175D01*
X0293286Y0224166D01*
X0293205Y0224161D01*
X0293124Y0224160D01*
X0293042Y0224163D01*
X0292961Y0224170D01*
X0292880Y0224181D01*
X0292800Y0224196D01*
X0292721Y0224214D01*
X0292643Y0224237D01*
X0292565Y0224263D01*
X0292490Y0224293D01*
X0292415Y0224327D01*
X0292343Y0224364D01*
X0292272Y0224405D01*
X0292204Y0224449D01*
X0292138Y0224496D01*
X0292074Y0224547D01*
X0292012Y0224601D01*
X0291954Y0224657D01*
X0291898Y0224717D01*
X0291845Y0224779D01*
X0291795Y0224843D01*
X0291749Y0224910D01*
X0291705Y0224979D01*
X0291666Y0225050D01*
X0291629Y0225123D01*
X0291596Y0225197D01*
X0291567Y0225274D01*
X0291542Y0225351D01*
X0291520Y0225430D01*
X0291503Y0225509D01*
X0291489Y0225589D01*
X0291479Y0225670D01*
X0291473Y0225752D01*
X0291471Y0225833D01*
X0298806Y0284364D02*
X0298808Y0284522D01*
X0298814Y0284680D01*
X0298824Y0284838D01*
X0298838Y0284996D01*
X0298856Y0285153D01*
X0298877Y0285310D01*
X0298903Y0285466D01*
X0298933Y0285622D01*
X0298966Y0285777D01*
X0299004Y0285930D01*
X0299045Y0286083D01*
X0299090Y0286235D01*
X0299139Y0286386D01*
X0299192Y0286535D01*
X0299248Y0286683D01*
X0299308Y0286829D01*
X0299372Y0286974D01*
X0299440Y0287117D01*
X0299511Y0287259D01*
X0299585Y0287399D01*
X0299663Y0287536D01*
X0299745Y0287672D01*
X0299829Y0287806D01*
X0299918Y0287937D01*
X0300009Y0288066D01*
X0300104Y0288193D01*
X0300201Y0288318D01*
X0300302Y0288440D01*
X0300406Y0288559D01*
X0300513Y0288676D01*
X0300623Y0288790D01*
X0300736Y0288901D01*
X0300851Y0289010D01*
X0300969Y0289115D01*
X0301090Y0289217D01*
X0301213Y0289317D01*
X0301339Y0289413D01*
X0301467Y0289506D01*
X0301597Y0289596D01*
X0301730Y0289682D01*
X0301865Y0289766D01*
X0302001Y0289845D01*
X0302140Y0289922D01*
X0302281Y0289994D01*
X0302423Y0290064D01*
X0302567Y0290129D01*
X0302713Y0290191D01*
X0302860Y0290249D01*
X0303009Y0290304D01*
X0303159Y0290355D01*
X0303310Y0290402D01*
X0303462Y0290445D01*
X0303615Y0290484D01*
X0303770Y0290520D01*
X0303925Y0290551D01*
X0304081Y0290579D01*
X0304237Y0290603D01*
X0304394Y0290623D01*
X0304552Y0290639D01*
X0304709Y0290651D01*
X0304868Y0290659D01*
X0305026Y0290663D01*
X0305184Y0290663D01*
X0305342Y0290659D01*
X0305501Y0290651D01*
X0305658Y0290639D01*
X0305816Y0290623D01*
X0305973Y0290603D01*
X0306129Y0290579D01*
X0306285Y0290551D01*
X0306440Y0290520D01*
X0306595Y0290484D01*
X0306748Y0290445D01*
X0306900Y0290402D01*
X0307051Y0290355D01*
X0307201Y0290304D01*
X0307350Y0290249D01*
X0307497Y0290191D01*
X0307643Y0290129D01*
X0307787Y0290064D01*
X0307929Y0289994D01*
X0308070Y0289922D01*
X0308209Y0289845D01*
X0308345Y0289766D01*
X0308480Y0289682D01*
X0308613Y0289596D01*
X0308743Y0289506D01*
X0308871Y0289413D01*
X0308997Y0289317D01*
X0309120Y0289217D01*
X0309241Y0289115D01*
X0309359Y0289010D01*
X0309474Y0288901D01*
X0309587Y0288790D01*
X0309697Y0288676D01*
X0309804Y0288559D01*
X0309908Y0288440D01*
X0310009Y0288318D01*
X0310106Y0288193D01*
X0310201Y0288066D01*
X0310292Y0287937D01*
X0310381Y0287806D01*
X0310465Y0287672D01*
X0310547Y0287536D01*
X0310625Y0287399D01*
X0310699Y0287259D01*
X0310770Y0287117D01*
X0310838Y0286974D01*
X0310902Y0286829D01*
X0310962Y0286683D01*
X0311018Y0286535D01*
X0311071Y0286386D01*
X0311120Y0286235D01*
X0311165Y0286083D01*
X0311206Y0285930D01*
X0311244Y0285777D01*
X0311277Y0285622D01*
X0311307Y0285466D01*
X0311333Y0285310D01*
X0311354Y0285153D01*
X0311372Y0284996D01*
X0311386Y0284838D01*
X0311396Y0284680D01*
X0311402Y0284522D01*
X0311404Y0284364D01*
X0311402Y0284206D01*
X0311396Y0284048D01*
X0311386Y0283890D01*
X0311372Y0283732D01*
X0311354Y0283575D01*
X0311333Y0283418D01*
X0311307Y0283262D01*
X0311277Y0283106D01*
X0311244Y0282951D01*
X0311206Y0282798D01*
X0311165Y0282645D01*
X0311120Y0282493D01*
X0311071Y0282342D01*
X0311018Y0282193D01*
X0310962Y0282045D01*
X0310902Y0281899D01*
X0310838Y0281754D01*
X0310770Y0281611D01*
X0310699Y0281469D01*
X0310625Y0281329D01*
X0310547Y0281192D01*
X0310465Y0281056D01*
X0310381Y0280922D01*
X0310292Y0280791D01*
X0310201Y0280662D01*
X0310106Y0280535D01*
X0310009Y0280410D01*
X0309908Y0280288D01*
X0309804Y0280169D01*
X0309697Y0280052D01*
X0309587Y0279938D01*
X0309474Y0279827D01*
X0309359Y0279718D01*
X0309241Y0279613D01*
X0309120Y0279511D01*
X0308997Y0279411D01*
X0308871Y0279315D01*
X0308743Y0279222D01*
X0308613Y0279132D01*
X0308480Y0279046D01*
X0308345Y0278962D01*
X0308209Y0278883D01*
X0308070Y0278806D01*
X0307929Y0278734D01*
X0307787Y0278664D01*
X0307643Y0278599D01*
X0307497Y0278537D01*
X0307350Y0278479D01*
X0307201Y0278424D01*
X0307051Y0278373D01*
X0306900Y0278326D01*
X0306748Y0278283D01*
X0306595Y0278244D01*
X0306440Y0278208D01*
X0306285Y0278177D01*
X0306129Y0278149D01*
X0305973Y0278125D01*
X0305816Y0278105D01*
X0305658Y0278089D01*
X0305501Y0278077D01*
X0305342Y0278069D01*
X0305184Y0278065D01*
X0305026Y0278065D01*
X0304868Y0278069D01*
X0304709Y0278077D01*
X0304552Y0278089D01*
X0304394Y0278105D01*
X0304237Y0278125D01*
X0304081Y0278149D01*
X0303925Y0278177D01*
X0303770Y0278208D01*
X0303615Y0278244D01*
X0303462Y0278283D01*
X0303310Y0278326D01*
X0303159Y0278373D01*
X0303009Y0278424D01*
X0302860Y0278479D01*
X0302713Y0278537D01*
X0302567Y0278599D01*
X0302423Y0278664D01*
X0302281Y0278734D01*
X0302140Y0278806D01*
X0302001Y0278883D01*
X0301865Y0278962D01*
X0301730Y0279046D01*
X0301597Y0279132D01*
X0301467Y0279222D01*
X0301339Y0279315D01*
X0301213Y0279411D01*
X0301090Y0279511D01*
X0300969Y0279613D01*
X0300851Y0279718D01*
X0300736Y0279827D01*
X0300623Y0279938D01*
X0300513Y0280052D01*
X0300406Y0280169D01*
X0300302Y0280288D01*
X0300201Y0280410D01*
X0300104Y0280535D01*
X0300009Y0280662D01*
X0299918Y0280791D01*
X0299829Y0280922D01*
X0299745Y0281056D01*
X0299663Y0281192D01*
X0299585Y0281329D01*
X0299511Y0281469D01*
X0299440Y0281611D01*
X0299372Y0281754D01*
X0299308Y0281899D01*
X0299248Y0282045D01*
X0299192Y0282193D01*
X0299139Y0282342D01*
X0299090Y0282493D01*
X0299045Y0282645D01*
X0299004Y0282798D01*
X0298966Y0282951D01*
X0298933Y0283106D01*
X0298903Y0283262D01*
X0298877Y0283418D01*
X0298856Y0283575D01*
X0298838Y0283732D01*
X0298824Y0283890D01*
X0298814Y0284048D01*
X0298808Y0284206D01*
X0298806Y0284364D01*
X0300905Y0106664D02*
X0300907Y0106744D01*
X0300913Y0106823D01*
X0300923Y0106902D01*
X0300937Y0106981D01*
X0300954Y0107059D01*
X0300976Y0107136D01*
X0301001Y0107211D01*
X0301031Y0107285D01*
X0301063Y0107358D01*
X0301100Y0107429D01*
X0301140Y0107498D01*
X0301183Y0107565D01*
X0301230Y0107630D01*
X0301279Y0107692D01*
X0301332Y0107752D01*
X0301388Y0107809D01*
X0301446Y0107864D01*
X0301507Y0107915D01*
X0301571Y0107963D01*
X0301637Y0108008D01*
X0301705Y0108050D01*
X0301775Y0108088D01*
X0301847Y0108122D01*
X0301920Y0108153D01*
X0301995Y0108181D01*
X0302072Y0108204D01*
X0302149Y0108224D01*
X0302227Y0108240D01*
X0302306Y0108252D01*
X0302385Y0108260D01*
X0302465Y0108264D01*
X0302545Y0108264D01*
X0302625Y0108260D01*
X0302704Y0108252D01*
X0302783Y0108240D01*
X0302861Y0108224D01*
X0302938Y0108204D01*
X0303015Y0108181D01*
X0303090Y0108153D01*
X0303163Y0108122D01*
X0303235Y0108088D01*
X0303305Y0108050D01*
X0303373Y0108008D01*
X0303439Y0107963D01*
X0303503Y0107915D01*
X0303564Y0107864D01*
X0303622Y0107809D01*
X0303678Y0107752D01*
X0303731Y0107692D01*
X0303780Y0107630D01*
X0303827Y0107565D01*
X0303870Y0107498D01*
X0303910Y0107429D01*
X0303947Y0107358D01*
X0303979Y0107285D01*
X0304009Y0107211D01*
X0304034Y0107136D01*
X0304056Y0107059D01*
X0304073Y0106981D01*
X0304087Y0106902D01*
X0304097Y0106823D01*
X0304103Y0106744D01*
X0304105Y0106664D01*
X0304103Y0106584D01*
X0304097Y0106505D01*
X0304087Y0106426D01*
X0304073Y0106347D01*
X0304056Y0106269D01*
X0304034Y0106192D01*
X0304009Y0106117D01*
X0303979Y0106043D01*
X0303947Y0105970D01*
X0303910Y0105899D01*
X0303870Y0105830D01*
X0303827Y0105763D01*
X0303780Y0105698D01*
X0303731Y0105636D01*
X0303678Y0105576D01*
X0303622Y0105519D01*
X0303564Y0105464D01*
X0303503Y0105413D01*
X0303439Y0105365D01*
X0303373Y0105320D01*
X0303305Y0105278D01*
X0303235Y0105240D01*
X0303163Y0105206D01*
X0303090Y0105175D01*
X0303015Y0105147D01*
X0302938Y0105124D01*
X0302861Y0105104D01*
X0302783Y0105088D01*
X0302704Y0105076D01*
X0302625Y0105068D01*
X0302545Y0105064D01*
X0302465Y0105064D01*
X0302385Y0105068D01*
X0302306Y0105076D01*
X0302227Y0105088D01*
X0302149Y0105104D01*
X0302072Y0105124D01*
X0301995Y0105147D01*
X0301920Y0105175D01*
X0301847Y0105206D01*
X0301775Y0105240D01*
X0301705Y0105278D01*
X0301637Y0105320D01*
X0301571Y0105365D01*
X0301507Y0105413D01*
X0301446Y0105464D01*
X0301388Y0105519D01*
X0301332Y0105576D01*
X0301279Y0105636D01*
X0301230Y0105698D01*
X0301183Y0105763D01*
X0301140Y0105830D01*
X0301100Y0105899D01*
X0301063Y0105970D01*
X0301031Y0106043D01*
X0301001Y0106117D01*
X0300976Y0106192D01*
X0300954Y0106269D01*
X0300937Y0106347D01*
X0300923Y0106426D01*
X0300913Y0106505D01*
X0300907Y0106584D01*
X0300905Y0106664D01*
X0300905Y0094664D02*
X0300907Y0094744D01*
X0300913Y0094823D01*
X0300923Y0094902D01*
X0300937Y0094981D01*
X0300954Y0095059D01*
X0300976Y0095136D01*
X0301001Y0095211D01*
X0301031Y0095285D01*
X0301063Y0095358D01*
X0301100Y0095429D01*
X0301140Y0095498D01*
X0301183Y0095565D01*
X0301230Y0095630D01*
X0301279Y0095692D01*
X0301332Y0095752D01*
X0301388Y0095809D01*
X0301446Y0095864D01*
X0301507Y0095915D01*
X0301571Y0095963D01*
X0301637Y0096008D01*
X0301705Y0096050D01*
X0301775Y0096088D01*
X0301847Y0096122D01*
X0301920Y0096153D01*
X0301995Y0096181D01*
X0302072Y0096204D01*
X0302149Y0096224D01*
X0302227Y0096240D01*
X0302306Y0096252D01*
X0302385Y0096260D01*
X0302465Y0096264D01*
X0302545Y0096264D01*
X0302625Y0096260D01*
X0302704Y0096252D01*
X0302783Y0096240D01*
X0302861Y0096224D01*
X0302938Y0096204D01*
X0303015Y0096181D01*
X0303090Y0096153D01*
X0303163Y0096122D01*
X0303235Y0096088D01*
X0303305Y0096050D01*
X0303373Y0096008D01*
X0303439Y0095963D01*
X0303503Y0095915D01*
X0303564Y0095864D01*
X0303622Y0095809D01*
X0303678Y0095752D01*
X0303731Y0095692D01*
X0303780Y0095630D01*
X0303827Y0095565D01*
X0303870Y0095498D01*
X0303910Y0095429D01*
X0303947Y0095358D01*
X0303979Y0095285D01*
X0304009Y0095211D01*
X0304034Y0095136D01*
X0304056Y0095059D01*
X0304073Y0094981D01*
X0304087Y0094902D01*
X0304097Y0094823D01*
X0304103Y0094744D01*
X0304105Y0094664D01*
X0304103Y0094584D01*
X0304097Y0094505D01*
X0304087Y0094426D01*
X0304073Y0094347D01*
X0304056Y0094269D01*
X0304034Y0094192D01*
X0304009Y0094117D01*
X0303979Y0094043D01*
X0303947Y0093970D01*
X0303910Y0093899D01*
X0303870Y0093830D01*
X0303827Y0093763D01*
X0303780Y0093698D01*
X0303731Y0093636D01*
X0303678Y0093576D01*
X0303622Y0093519D01*
X0303564Y0093464D01*
X0303503Y0093413D01*
X0303439Y0093365D01*
X0303373Y0093320D01*
X0303305Y0093278D01*
X0303235Y0093240D01*
X0303163Y0093206D01*
X0303090Y0093175D01*
X0303015Y0093147D01*
X0302938Y0093124D01*
X0302861Y0093104D01*
X0302783Y0093088D01*
X0302704Y0093076D01*
X0302625Y0093068D01*
X0302545Y0093064D01*
X0302465Y0093064D01*
X0302385Y0093068D01*
X0302306Y0093076D01*
X0302227Y0093088D01*
X0302149Y0093104D01*
X0302072Y0093124D01*
X0301995Y0093147D01*
X0301920Y0093175D01*
X0301847Y0093206D01*
X0301775Y0093240D01*
X0301705Y0093278D01*
X0301637Y0093320D01*
X0301571Y0093365D01*
X0301507Y0093413D01*
X0301446Y0093464D01*
X0301388Y0093519D01*
X0301332Y0093576D01*
X0301279Y0093636D01*
X0301230Y0093698D01*
X0301183Y0093763D01*
X0301140Y0093830D01*
X0301100Y0093899D01*
X0301063Y0093970D01*
X0301031Y0094043D01*
X0301001Y0094117D01*
X0300976Y0094192D01*
X0300954Y0094269D01*
X0300937Y0094347D01*
X0300923Y0094426D01*
X0300913Y0094505D01*
X0300907Y0094584D01*
X0300905Y0094664D01*
X0298806Y0012414D02*
X0298808Y0012572D01*
X0298814Y0012730D01*
X0298824Y0012888D01*
X0298838Y0013046D01*
X0298856Y0013203D01*
X0298877Y0013360D01*
X0298903Y0013516D01*
X0298933Y0013672D01*
X0298966Y0013827D01*
X0299004Y0013980D01*
X0299045Y0014133D01*
X0299090Y0014285D01*
X0299139Y0014436D01*
X0299192Y0014585D01*
X0299248Y0014733D01*
X0299308Y0014879D01*
X0299372Y0015024D01*
X0299440Y0015167D01*
X0299511Y0015309D01*
X0299585Y0015449D01*
X0299663Y0015586D01*
X0299745Y0015722D01*
X0299829Y0015856D01*
X0299918Y0015987D01*
X0300009Y0016116D01*
X0300104Y0016243D01*
X0300201Y0016368D01*
X0300302Y0016490D01*
X0300406Y0016609D01*
X0300513Y0016726D01*
X0300623Y0016840D01*
X0300736Y0016951D01*
X0300851Y0017060D01*
X0300969Y0017165D01*
X0301090Y0017267D01*
X0301213Y0017367D01*
X0301339Y0017463D01*
X0301467Y0017556D01*
X0301597Y0017646D01*
X0301730Y0017732D01*
X0301865Y0017816D01*
X0302001Y0017895D01*
X0302140Y0017972D01*
X0302281Y0018044D01*
X0302423Y0018114D01*
X0302567Y0018179D01*
X0302713Y0018241D01*
X0302860Y0018299D01*
X0303009Y0018354D01*
X0303159Y0018405D01*
X0303310Y0018452D01*
X0303462Y0018495D01*
X0303615Y0018534D01*
X0303770Y0018570D01*
X0303925Y0018601D01*
X0304081Y0018629D01*
X0304237Y0018653D01*
X0304394Y0018673D01*
X0304552Y0018689D01*
X0304709Y0018701D01*
X0304868Y0018709D01*
X0305026Y0018713D01*
X0305184Y0018713D01*
X0305342Y0018709D01*
X0305501Y0018701D01*
X0305658Y0018689D01*
X0305816Y0018673D01*
X0305973Y0018653D01*
X0306129Y0018629D01*
X0306285Y0018601D01*
X0306440Y0018570D01*
X0306595Y0018534D01*
X0306748Y0018495D01*
X0306900Y0018452D01*
X0307051Y0018405D01*
X0307201Y0018354D01*
X0307350Y0018299D01*
X0307497Y0018241D01*
X0307643Y0018179D01*
X0307787Y0018114D01*
X0307929Y0018044D01*
X0308070Y0017972D01*
X0308209Y0017895D01*
X0308345Y0017816D01*
X0308480Y0017732D01*
X0308613Y0017646D01*
X0308743Y0017556D01*
X0308871Y0017463D01*
X0308997Y0017367D01*
X0309120Y0017267D01*
X0309241Y0017165D01*
X0309359Y0017060D01*
X0309474Y0016951D01*
X0309587Y0016840D01*
X0309697Y0016726D01*
X0309804Y0016609D01*
X0309908Y0016490D01*
X0310009Y0016368D01*
X0310106Y0016243D01*
X0310201Y0016116D01*
X0310292Y0015987D01*
X0310381Y0015856D01*
X0310465Y0015722D01*
X0310547Y0015586D01*
X0310625Y0015449D01*
X0310699Y0015309D01*
X0310770Y0015167D01*
X0310838Y0015024D01*
X0310902Y0014879D01*
X0310962Y0014733D01*
X0311018Y0014585D01*
X0311071Y0014436D01*
X0311120Y0014285D01*
X0311165Y0014133D01*
X0311206Y0013980D01*
X0311244Y0013827D01*
X0311277Y0013672D01*
X0311307Y0013516D01*
X0311333Y0013360D01*
X0311354Y0013203D01*
X0311372Y0013046D01*
X0311386Y0012888D01*
X0311396Y0012730D01*
X0311402Y0012572D01*
X0311404Y0012414D01*
X0311402Y0012256D01*
X0311396Y0012098D01*
X0311386Y0011940D01*
X0311372Y0011782D01*
X0311354Y0011625D01*
X0311333Y0011468D01*
X0311307Y0011312D01*
X0311277Y0011156D01*
X0311244Y0011001D01*
X0311206Y0010848D01*
X0311165Y0010695D01*
X0311120Y0010543D01*
X0311071Y0010392D01*
X0311018Y0010243D01*
X0310962Y0010095D01*
X0310902Y0009949D01*
X0310838Y0009804D01*
X0310770Y0009661D01*
X0310699Y0009519D01*
X0310625Y0009379D01*
X0310547Y0009242D01*
X0310465Y0009106D01*
X0310381Y0008972D01*
X0310292Y0008841D01*
X0310201Y0008712D01*
X0310106Y0008585D01*
X0310009Y0008460D01*
X0309908Y0008338D01*
X0309804Y0008219D01*
X0309697Y0008102D01*
X0309587Y0007988D01*
X0309474Y0007877D01*
X0309359Y0007768D01*
X0309241Y0007663D01*
X0309120Y0007561D01*
X0308997Y0007461D01*
X0308871Y0007365D01*
X0308743Y0007272D01*
X0308613Y0007182D01*
X0308480Y0007096D01*
X0308345Y0007012D01*
X0308209Y0006933D01*
X0308070Y0006856D01*
X0307929Y0006784D01*
X0307787Y0006714D01*
X0307643Y0006649D01*
X0307497Y0006587D01*
X0307350Y0006529D01*
X0307201Y0006474D01*
X0307051Y0006423D01*
X0306900Y0006376D01*
X0306748Y0006333D01*
X0306595Y0006294D01*
X0306440Y0006258D01*
X0306285Y0006227D01*
X0306129Y0006199D01*
X0305973Y0006175D01*
X0305816Y0006155D01*
X0305658Y0006139D01*
X0305501Y0006127D01*
X0305342Y0006119D01*
X0305184Y0006115D01*
X0305026Y0006115D01*
X0304868Y0006119D01*
X0304709Y0006127D01*
X0304552Y0006139D01*
X0304394Y0006155D01*
X0304237Y0006175D01*
X0304081Y0006199D01*
X0303925Y0006227D01*
X0303770Y0006258D01*
X0303615Y0006294D01*
X0303462Y0006333D01*
X0303310Y0006376D01*
X0303159Y0006423D01*
X0303009Y0006474D01*
X0302860Y0006529D01*
X0302713Y0006587D01*
X0302567Y0006649D01*
X0302423Y0006714D01*
X0302281Y0006784D01*
X0302140Y0006856D01*
X0302001Y0006933D01*
X0301865Y0007012D01*
X0301730Y0007096D01*
X0301597Y0007182D01*
X0301467Y0007272D01*
X0301339Y0007365D01*
X0301213Y0007461D01*
X0301090Y0007561D01*
X0300969Y0007663D01*
X0300851Y0007768D01*
X0300736Y0007877D01*
X0300623Y0007988D01*
X0300513Y0008102D01*
X0300406Y0008219D01*
X0300302Y0008338D01*
X0300201Y0008460D01*
X0300104Y0008585D01*
X0300009Y0008712D01*
X0299918Y0008841D01*
X0299829Y0008972D01*
X0299745Y0009106D01*
X0299663Y0009242D01*
X0299585Y0009379D01*
X0299511Y0009519D01*
X0299440Y0009661D01*
X0299372Y0009804D01*
X0299308Y0009949D01*
X0299248Y0010095D01*
X0299192Y0010243D01*
X0299139Y0010392D01*
X0299090Y0010543D01*
X0299045Y0010695D01*
X0299004Y0010848D01*
X0298966Y0011001D01*
X0298933Y0011156D01*
X0298903Y0011312D01*
X0298877Y0011468D01*
X0298856Y0011625D01*
X0298838Y0011782D01*
X0298824Y0011940D01*
X0298814Y0012098D01*
X0298808Y0012256D01*
X0298806Y0012414D01*
D11*
X0282955Y0036983D02*
X0277955Y0036983D01*
X0053048Y0025712D02*
X0049036Y0021256D01*
X0053048Y0025712D02*
X0052720Y0031978D01*
X0051839Y0032771D01*
X0039246Y0029644D02*
X0039448Y0025791D01*
X0039451Y0025705D01*
X0039450Y0025619D01*
X0039445Y0025534D01*
X0039436Y0025448D01*
X0039424Y0025363D01*
X0039408Y0025279D01*
X0039388Y0025195D01*
X0039365Y0025112D01*
X0039338Y0025031D01*
X0039308Y0024950D01*
X0039274Y0024871D01*
X0039236Y0024794D01*
X0039196Y0024718D01*
X0039152Y0024645D01*
X0039105Y0024573D01*
X0039055Y0024503D01*
X0039001Y0024436D01*
X0038945Y0024370D01*
X0038886Y0024308D01*
X0038825Y0024248D01*
X0038761Y0024191D01*
X0038694Y0024136D01*
X0038625Y0024085D01*
X0038554Y0024037D01*
X0038481Y0023991D01*
X0038406Y0023949D01*
X0038330Y0023911D01*
X0038251Y0023876D01*
X0038172Y0023844D01*
X0038090Y0023815D01*
X0038008Y0023791D01*
X0037925Y0023769D01*
X0037841Y0023752D01*
X0037756Y0023738D01*
X0037671Y0023728D01*
X0037585Y0023722D01*
X0037585Y0023723D02*
X0033733Y0023521D01*
X0033733Y0023520D02*
X0033645Y0023517D01*
X0033556Y0023518D01*
X0033468Y0023524D01*
X0033380Y0023533D01*
X0033293Y0023546D01*
X0033206Y0023563D01*
X0033120Y0023584D01*
X0033036Y0023609D01*
X0032952Y0023637D01*
X0032870Y0023670D01*
X0032789Y0023706D01*
X0032710Y0023745D01*
X0032633Y0023788D01*
X0032558Y0023835D01*
X0032485Y0023884D01*
X0032414Y0023937D01*
X0032346Y0023994D01*
X0032280Y0024053D01*
X0032217Y0024115D01*
X0032157Y0024179D01*
X0032100Y0024247D01*
X0032046Y0024317D01*
X0031995Y0024389D01*
X0031947Y0024463D01*
X0031903Y0024540D01*
X0031862Y0024618D01*
X0031825Y0024699D01*
X0031792Y0024780D01*
X0031762Y0024864D01*
X0031736Y0024948D01*
X0031714Y0025034D01*
X0031695Y0025120D01*
X0031681Y0025207D01*
X0031670Y0025295D01*
X0031664Y0025383D01*
X0031462Y0029236D01*
X0031459Y0029322D01*
X0031460Y0029408D01*
X0031465Y0029493D01*
X0031474Y0029579D01*
X0031486Y0029664D01*
X0031502Y0029748D01*
X0031522Y0029832D01*
X0031545Y0029915D01*
X0031572Y0029996D01*
X0031602Y0030077D01*
X0031636Y0030156D01*
X0031674Y0030233D01*
X0031714Y0030309D01*
X0031758Y0030382D01*
X0031805Y0030454D01*
X0031855Y0030524D01*
X0031909Y0030591D01*
X0031965Y0030657D01*
X0032024Y0030719D01*
X0032085Y0030779D01*
X0032149Y0030836D01*
X0032216Y0030891D01*
X0032285Y0030942D01*
X0032356Y0030990D01*
X0032429Y0031036D01*
X0032504Y0031078D01*
X0032580Y0031116D01*
X0032659Y0031151D01*
X0032738Y0031183D01*
X0032820Y0031212D01*
X0032902Y0031236D01*
X0032985Y0031258D01*
X0033069Y0031275D01*
X0033154Y0031289D01*
X0033239Y0031299D01*
X0033325Y0031305D01*
X0037177Y0031507D01*
X0037263Y0031510D01*
X0037349Y0031509D01*
X0037434Y0031504D01*
X0037520Y0031495D01*
X0037605Y0031483D01*
X0037689Y0031467D01*
X0037773Y0031447D01*
X0037856Y0031424D01*
X0037937Y0031397D01*
X0038018Y0031367D01*
X0038097Y0031333D01*
X0038174Y0031295D01*
X0038250Y0031255D01*
X0038323Y0031211D01*
X0038395Y0031164D01*
X0038465Y0031114D01*
X0038532Y0031060D01*
X0038598Y0031004D01*
X0038660Y0030945D01*
X0038720Y0030884D01*
X0038777Y0030820D01*
X0038832Y0030753D01*
X0038883Y0030684D01*
X0038931Y0030613D01*
X0038977Y0030540D01*
X0039019Y0030465D01*
X0039057Y0030389D01*
X0039092Y0030310D01*
X0039124Y0030231D01*
X0039153Y0030149D01*
X0039177Y0030067D01*
X0039199Y0029984D01*
X0039216Y0029900D01*
X0039230Y0029815D01*
X0039240Y0029730D01*
X0039246Y0029644D01*
X0029549Y0027514D02*
X0029551Y0027667D01*
X0029557Y0027821D01*
X0029567Y0027974D01*
X0029581Y0028126D01*
X0029599Y0028279D01*
X0029621Y0028430D01*
X0029646Y0028581D01*
X0029676Y0028732D01*
X0029710Y0028882D01*
X0029747Y0029030D01*
X0029788Y0029178D01*
X0029833Y0029324D01*
X0029882Y0029470D01*
X0029935Y0029614D01*
X0029991Y0029756D01*
X0030051Y0029897D01*
X0030115Y0030037D01*
X0030182Y0030175D01*
X0030253Y0030311D01*
X0030328Y0030445D01*
X0030405Y0030577D01*
X0030487Y0030707D01*
X0030571Y0030835D01*
X0030659Y0030961D01*
X0030750Y0031084D01*
X0030844Y0031205D01*
X0030942Y0031323D01*
X0031042Y0031439D01*
X0031146Y0031552D01*
X0031252Y0031663D01*
X0031361Y0031771D01*
X0031473Y0031876D01*
X0031587Y0031977D01*
X0031705Y0032076D01*
X0031824Y0032172D01*
X0031946Y0032265D01*
X0032071Y0032354D01*
X0032198Y0032441D01*
X0032327Y0032523D01*
X0032458Y0032603D01*
X0032591Y0032679D01*
X0032726Y0032752D01*
X0032863Y0032821D01*
X0033002Y0032886D01*
X0033142Y0032948D01*
X0033284Y0033006D01*
X0033427Y0033061D01*
X0033572Y0033112D01*
X0033718Y0033159D01*
X0033865Y0033202D01*
X0034013Y0033241D01*
X0034162Y0033277D01*
X0034312Y0033308D01*
X0034463Y0033336D01*
X0034614Y0033360D01*
X0034767Y0033380D01*
X0034919Y0033396D01*
X0035072Y0033408D01*
X0035225Y0033416D01*
X0035378Y0033420D01*
X0035532Y0033420D01*
X0035685Y0033416D01*
X0035838Y0033408D01*
X0035991Y0033396D01*
X0036143Y0033380D01*
X0036296Y0033360D01*
X0036447Y0033336D01*
X0036598Y0033308D01*
X0036748Y0033277D01*
X0036897Y0033241D01*
X0037045Y0033202D01*
X0037192Y0033159D01*
X0037338Y0033112D01*
X0037483Y0033061D01*
X0037626Y0033006D01*
X0037768Y0032948D01*
X0037908Y0032886D01*
X0038047Y0032821D01*
X0038184Y0032752D01*
X0038319Y0032679D01*
X0038452Y0032603D01*
X0038583Y0032523D01*
X0038712Y0032441D01*
X0038839Y0032354D01*
X0038964Y0032265D01*
X0039086Y0032172D01*
X0039205Y0032076D01*
X0039323Y0031977D01*
X0039437Y0031876D01*
X0039549Y0031771D01*
X0039658Y0031663D01*
X0039764Y0031552D01*
X0039868Y0031439D01*
X0039968Y0031323D01*
X0040066Y0031205D01*
X0040160Y0031084D01*
X0040251Y0030961D01*
X0040339Y0030835D01*
X0040423Y0030707D01*
X0040505Y0030577D01*
X0040582Y0030445D01*
X0040657Y0030311D01*
X0040728Y0030175D01*
X0040795Y0030037D01*
X0040859Y0029897D01*
X0040919Y0029756D01*
X0040975Y0029614D01*
X0041028Y0029470D01*
X0041077Y0029324D01*
X0041122Y0029178D01*
X0041163Y0029030D01*
X0041200Y0028882D01*
X0041234Y0028732D01*
X0041264Y0028581D01*
X0041289Y0028430D01*
X0041311Y0028279D01*
X0041329Y0028126D01*
X0041343Y0027974D01*
X0041353Y0027821D01*
X0041359Y0027667D01*
X0041361Y0027514D01*
X0041359Y0027361D01*
X0041353Y0027207D01*
X0041343Y0027054D01*
X0041329Y0026902D01*
X0041311Y0026749D01*
X0041289Y0026598D01*
X0041264Y0026447D01*
X0041234Y0026296D01*
X0041200Y0026146D01*
X0041163Y0025998D01*
X0041122Y0025850D01*
X0041077Y0025704D01*
X0041028Y0025558D01*
X0040975Y0025414D01*
X0040919Y0025272D01*
X0040859Y0025131D01*
X0040795Y0024991D01*
X0040728Y0024853D01*
X0040657Y0024717D01*
X0040582Y0024583D01*
X0040505Y0024451D01*
X0040423Y0024321D01*
X0040339Y0024193D01*
X0040251Y0024067D01*
X0040160Y0023944D01*
X0040066Y0023823D01*
X0039968Y0023705D01*
X0039868Y0023589D01*
X0039764Y0023476D01*
X0039658Y0023365D01*
X0039549Y0023257D01*
X0039437Y0023152D01*
X0039323Y0023051D01*
X0039205Y0022952D01*
X0039086Y0022856D01*
X0038964Y0022763D01*
X0038839Y0022674D01*
X0038712Y0022587D01*
X0038583Y0022505D01*
X0038452Y0022425D01*
X0038319Y0022349D01*
X0038184Y0022276D01*
X0038047Y0022207D01*
X0037908Y0022142D01*
X0037768Y0022080D01*
X0037626Y0022022D01*
X0037483Y0021967D01*
X0037338Y0021916D01*
X0037192Y0021869D01*
X0037045Y0021826D01*
X0036897Y0021787D01*
X0036748Y0021751D01*
X0036598Y0021720D01*
X0036447Y0021692D01*
X0036296Y0021668D01*
X0036143Y0021648D01*
X0035991Y0021632D01*
X0035838Y0021620D01*
X0035685Y0021612D01*
X0035532Y0021608D01*
X0035378Y0021608D01*
X0035225Y0021612D01*
X0035072Y0021620D01*
X0034919Y0021632D01*
X0034767Y0021648D01*
X0034614Y0021668D01*
X0034463Y0021692D01*
X0034312Y0021720D01*
X0034162Y0021751D01*
X0034013Y0021787D01*
X0033865Y0021826D01*
X0033718Y0021869D01*
X0033572Y0021916D01*
X0033427Y0021967D01*
X0033284Y0022022D01*
X0033142Y0022080D01*
X0033002Y0022142D01*
X0032863Y0022207D01*
X0032726Y0022276D01*
X0032591Y0022349D01*
X0032458Y0022425D01*
X0032327Y0022505D01*
X0032198Y0022587D01*
X0032071Y0022674D01*
X0031946Y0022763D01*
X0031824Y0022856D01*
X0031705Y0022952D01*
X0031587Y0023051D01*
X0031473Y0023152D01*
X0031361Y0023257D01*
X0031252Y0023365D01*
X0031146Y0023476D01*
X0031042Y0023589D01*
X0030942Y0023705D01*
X0030844Y0023823D01*
X0030750Y0023944D01*
X0030659Y0024067D01*
X0030571Y0024193D01*
X0030487Y0024321D01*
X0030405Y0024451D01*
X0030328Y0024583D01*
X0030253Y0024717D01*
X0030182Y0024853D01*
X0030115Y0024991D01*
X0030051Y0025131D01*
X0029991Y0025272D01*
X0029935Y0025414D01*
X0029882Y0025558D01*
X0029833Y0025704D01*
X0029788Y0025850D01*
X0029747Y0025998D01*
X0029710Y0026146D01*
X0029676Y0026296D01*
X0029646Y0026447D01*
X0029621Y0026598D01*
X0029599Y0026749D01*
X0029581Y0026902D01*
X0029567Y0027054D01*
X0029557Y0027207D01*
X0029551Y0027361D01*
X0029549Y0027514D01*
X0035076Y0034742D02*
X0034814Y0039746D01*
X0036570Y0038165D01*
X0034814Y0039746D02*
X0033233Y0037991D01*
X0027812Y0040366D02*
X0031824Y0044822D01*
X0038091Y0045150D01*
X0038971Y0044357D01*
X0021874Y0033771D02*
X0017862Y0029315D01*
X0018191Y0023049D01*
X0019071Y0022256D01*
X0031939Y0010670D02*
X0032820Y0009877D01*
X0039086Y0010206D01*
X0043098Y0014662D01*
X0295444Y0274994D02*
X0297255Y0274994D01*
X0298176Y0276215D01*
X0299066Y0274994D02*
X0297255Y0274994D01*
X0297155Y0275055D02*
X0296395Y0276215D01*
X0294516Y0276333D02*
X0292705Y0276333D01*
X0291785Y0275113D01*
X0290894Y0276333D02*
X0292705Y0276333D01*
X0292805Y0276272D02*
X0293565Y0275113D01*
X0289966Y0276333D02*
X0288155Y0276333D01*
X0287235Y0275113D01*
X0286344Y0276333D02*
X0288155Y0276333D01*
X0288255Y0276272D02*
X0289015Y0275113D01*
D12*
X0290517Y0269626D02*
X0285793Y0269626D01*
X0285793Y0258996D01*
X0290517Y0258996D01*
X0290517Y0269626D01*
X0286476Y0244239D02*
X0286476Y0047389D01*
X0014035Y0047389D01*
X0014035Y0244239D01*
X0286476Y0244239D01*
X0309056Y0180193D02*
X0127954Y0180193D01*
X0127954Y0046335D01*
X0309056Y0046335D01*
X0309056Y0180193D01*
X0269293Y0133736D02*
X0269293Y0092791D01*
X0247553Y0043568D02*
X0216057Y0043568D01*
X0216057Y0012072D01*
X0247553Y0012072D01*
X0247553Y0043568D01*
X0225396Y0027820D02*
X0225398Y0027980D01*
X0225404Y0028139D01*
X0225414Y0028299D01*
X0225428Y0028458D01*
X0225446Y0028617D01*
X0225468Y0028775D01*
X0225493Y0028933D01*
X0225523Y0029090D01*
X0225557Y0029246D01*
X0225594Y0029401D01*
X0225636Y0029556D01*
X0225681Y0029709D01*
X0225730Y0029861D01*
X0225783Y0030012D01*
X0225839Y0030161D01*
X0225899Y0030309D01*
X0225963Y0030456D01*
X0226031Y0030601D01*
X0226102Y0030744D01*
X0226176Y0030885D01*
X0226255Y0031025D01*
X0226336Y0031162D01*
X0226421Y0031297D01*
X0226510Y0031430D01*
X0226601Y0031561D01*
X0226696Y0031690D01*
X0226794Y0031816D01*
X0226895Y0031940D01*
X0227000Y0032061D01*
X0227107Y0032179D01*
X0227217Y0032295D01*
X0227330Y0032408D01*
X0227446Y0032518D01*
X0227564Y0032625D01*
X0227685Y0032730D01*
X0227809Y0032831D01*
X0227935Y0032929D01*
X0228064Y0033024D01*
X0228195Y0033115D01*
X0228328Y0033204D01*
X0228463Y0033289D01*
X0228601Y0033370D01*
X0228740Y0033449D01*
X0228881Y0033523D01*
X0229024Y0033594D01*
X0229169Y0033662D01*
X0229316Y0033726D01*
X0229464Y0033786D01*
X0229613Y0033842D01*
X0229764Y0033895D01*
X0229916Y0033944D01*
X0230069Y0033989D01*
X0230224Y0034031D01*
X0230379Y0034068D01*
X0230535Y0034102D01*
X0230692Y0034132D01*
X0230850Y0034157D01*
X0231008Y0034179D01*
X0231167Y0034197D01*
X0231326Y0034211D01*
X0231486Y0034221D01*
X0231645Y0034227D01*
X0231805Y0034229D01*
X0231965Y0034227D01*
X0232124Y0034221D01*
X0232284Y0034211D01*
X0232443Y0034197D01*
X0232602Y0034179D01*
X0232760Y0034157D01*
X0232918Y0034132D01*
X0233075Y0034102D01*
X0233231Y0034068D01*
X0233386Y0034031D01*
X0233541Y0033989D01*
X0233694Y0033944D01*
X0233846Y0033895D01*
X0233997Y0033842D01*
X0234146Y0033786D01*
X0234294Y0033726D01*
X0234441Y0033662D01*
X0234586Y0033594D01*
X0234729Y0033523D01*
X0234870Y0033449D01*
X0235010Y0033370D01*
X0235147Y0033289D01*
X0235282Y0033204D01*
X0235415Y0033115D01*
X0235546Y0033024D01*
X0235675Y0032929D01*
X0235801Y0032831D01*
X0235925Y0032730D01*
X0236046Y0032625D01*
X0236164Y0032518D01*
X0236280Y0032408D01*
X0236393Y0032295D01*
X0236503Y0032179D01*
X0236610Y0032061D01*
X0236715Y0031940D01*
X0236816Y0031816D01*
X0236914Y0031690D01*
X0237009Y0031561D01*
X0237100Y0031430D01*
X0237189Y0031297D01*
X0237274Y0031162D01*
X0237355Y0031024D01*
X0237434Y0030885D01*
X0237508Y0030744D01*
X0237579Y0030601D01*
X0237647Y0030456D01*
X0237711Y0030309D01*
X0237771Y0030161D01*
X0237827Y0030012D01*
X0237880Y0029861D01*
X0237929Y0029709D01*
X0237974Y0029556D01*
X0238016Y0029401D01*
X0238053Y0029246D01*
X0238087Y0029090D01*
X0238117Y0028933D01*
X0238142Y0028775D01*
X0238164Y0028617D01*
X0238182Y0028458D01*
X0238196Y0028299D01*
X0238206Y0028139D01*
X0238212Y0027980D01*
X0238214Y0027820D01*
X0238212Y0027660D01*
X0238206Y0027501D01*
X0238196Y0027341D01*
X0238182Y0027182D01*
X0238164Y0027023D01*
X0238142Y0026865D01*
X0238117Y0026707D01*
X0238087Y0026550D01*
X0238053Y0026394D01*
X0238016Y0026239D01*
X0237974Y0026084D01*
X0237929Y0025931D01*
X0237880Y0025779D01*
X0237827Y0025628D01*
X0237771Y0025479D01*
X0237711Y0025331D01*
X0237647Y0025184D01*
X0237579Y0025039D01*
X0237508Y0024896D01*
X0237434Y0024755D01*
X0237355Y0024615D01*
X0237274Y0024478D01*
X0237189Y0024343D01*
X0237100Y0024210D01*
X0237009Y0024079D01*
X0236914Y0023950D01*
X0236816Y0023824D01*
X0236715Y0023700D01*
X0236610Y0023579D01*
X0236503Y0023461D01*
X0236393Y0023345D01*
X0236280Y0023232D01*
X0236164Y0023122D01*
X0236046Y0023015D01*
X0235925Y0022910D01*
X0235801Y0022809D01*
X0235675Y0022711D01*
X0235546Y0022616D01*
X0235415Y0022525D01*
X0235282Y0022436D01*
X0235147Y0022351D01*
X0235009Y0022270D01*
X0234870Y0022191D01*
X0234729Y0022117D01*
X0234586Y0022046D01*
X0234441Y0021978D01*
X0234294Y0021914D01*
X0234146Y0021854D01*
X0233997Y0021798D01*
X0233846Y0021745D01*
X0233694Y0021696D01*
X0233541Y0021651D01*
X0233386Y0021609D01*
X0233231Y0021572D01*
X0233075Y0021538D01*
X0232918Y0021508D01*
X0232760Y0021483D01*
X0232602Y0021461D01*
X0232443Y0021443D01*
X0232284Y0021429D01*
X0232124Y0021419D01*
X0231965Y0021413D01*
X0231805Y0021411D01*
X0231645Y0021413D01*
X0231486Y0021419D01*
X0231326Y0021429D01*
X0231167Y0021443D01*
X0231008Y0021461D01*
X0230850Y0021483D01*
X0230692Y0021508D01*
X0230535Y0021538D01*
X0230379Y0021572D01*
X0230224Y0021609D01*
X0230069Y0021651D01*
X0229916Y0021696D01*
X0229764Y0021745D01*
X0229613Y0021798D01*
X0229464Y0021854D01*
X0229316Y0021914D01*
X0229169Y0021978D01*
X0229024Y0022046D01*
X0228881Y0022117D01*
X0228740Y0022191D01*
X0228600Y0022270D01*
X0228463Y0022351D01*
X0228328Y0022436D01*
X0228195Y0022525D01*
X0228064Y0022616D01*
X0227935Y0022711D01*
X0227809Y0022809D01*
X0227685Y0022910D01*
X0227564Y0023015D01*
X0227446Y0023122D01*
X0227330Y0023232D01*
X0227217Y0023345D01*
X0227107Y0023461D01*
X0227000Y0023579D01*
X0226895Y0023700D01*
X0226794Y0023824D01*
X0226696Y0023950D01*
X0226601Y0024079D01*
X0226510Y0024210D01*
X0226421Y0024343D01*
X0226336Y0024478D01*
X0226255Y0024616D01*
X0226176Y0024755D01*
X0226102Y0024896D01*
X0226031Y0025039D01*
X0225963Y0025184D01*
X0225899Y0025331D01*
X0225839Y0025479D01*
X0225783Y0025628D01*
X0225730Y0025779D01*
X0225681Y0025931D01*
X0225636Y0026084D01*
X0225594Y0026239D01*
X0225557Y0026394D01*
X0225523Y0026550D01*
X0225493Y0026707D01*
X0225468Y0026865D01*
X0225446Y0027023D01*
X0225428Y0027182D01*
X0225414Y0027341D01*
X0225404Y0027501D01*
X0225398Y0027660D01*
X0225396Y0027820D01*
X0291294Y0026967D02*
X0291294Y0033660D01*
X0291393Y0033660D02*
X0291787Y0033660D01*
X0293755Y0031314D02*
X0292255Y0029814D01*
X0295255Y0029814D01*
X0293755Y0031314D01*
X0292255Y0029814D01*
X0292255Y0029763D02*
X0295255Y0029763D01*
X0295255Y0029814D02*
X0293755Y0031314D01*
X0293679Y0031238D02*
X0293831Y0031238D01*
X0294330Y0030739D02*
X0293181Y0030739D01*
X0292682Y0030241D02*
X0294828Y0030241D01*
X0295724Y0026967D02*
X0296117Y0026967D01*
X0296216Y0026967D02*
X0296216Y0033660D01*
X0296117Y0033660D02*
X0295724Y0033660D01*
X0291787Y0026967D02*
X0291393Y0026967D01*
X0120434Y0247714D02*
X0119600Y0247714D01*
X0120017Y0247714D02*
X0120017Y0250216D01*
X0120434Y0250216D02*
X0119600Y0250216D01*
X0118592Y0249799D02*
X0118592Y0248131D01*
X0118175Y0247714D01*
X0117341Y0247714D01*
X0116924Y0248131D01*
X0115830Y0247714D02*
X0114162Y0247714D01*
X0114996Y0247714D02*
X0114996Y0250216D01*
X0115830Y0249382D01*
X0116924Y0249799D02*
X0117341Y0250216D01*
X0118175Y0250216D01*
X0118592Y0249799D01*
X0122455Y0253364D02*
X0107455Y0253364D01*
X0107455Y0278364D01*
X0122455Y0278364D01*
X0122455Y0270864D01*
X0122455Y0260864D01*
X0122455Y0253364D01*
X0113067Y0249799D02*
X0113067Y0248131D01*
X0111399Y0249799D01*
X0111399Y0248131D01*
X0111816Y0247714D01*
X0112650Y0247714D01*
X0113067Y0248131D01*
X0113067Y0249799D02*
X0112650Y0250216D01*
X0111816Y0250216D01*
X0111399Y0249799D01*
X0122455Y0260864D02*
X0122587Y0260933D01*
X0122718Y0261005D01*
X0122847Y0261080D01*
X0122973Y0261159D01*
X0123098Y0261241D01*
X0123220Y0261327D01*
X0123340Y0261415D01*
X0123457Y0261507D01*
X0123572Y0261602D01*
X0123685Y0261700D01*
X0123794Y0261801D01*
X0123901Y0261905D01*
X0124006Y0262012D01*
X0124107Y0262121D01*
X0124205Y0262233D01*
X0124301Y0262348D01*
X0124393Y0262465D01*
X0124482Y0262585D01*
X0124568Y0262706D01*
X0124650Y0262831D01*
X0124730Y0262957D01*
X0124805Y0263085D01*
X0124878Y0263216D01*
X0124947Y0263348D01*
X0125012Y0263482D01*
X0125074Y0263618D01*
X0125132Y0263755D01*
X0125186Y0263894D01*
X0125237Y0264034D01*
X0125284Y0264176D01*
X0125327Y0264319D01*
X0125366Y0264462D01*
X0125402Y0264607D01*
X0125433Y0264753D01*
X0125461Y0264899D01*
X0125485Y0265047D01*
X0125505Y0265195D01*
X0125521Y0265343D01*
X0125533Y0265491D01*
X0125541Y0265640D01*
X0125545Y0265789D01*
X0125545Y0265939D01*
X0125541Y0266088D01*
X0125533Y0266237D01*
X0125521Y0266385D01*
X0125505Y0266533D01*
X0125485Y0266681D01*
X0125461Y0266829D01*
X0125433Y0266975D01*
X0125402Y0267121D01*
X0125366Y0267266D01*
X0125327Y0267409D01*
X0125284Y0267552D01*
X0125237Y0267694D01*
X0125186Y0267834D01*
X0125132Y0267973D01*
X0125074Y0268110D01*
X0125012Y0268246D01*
X0124947Y0268380D01*
X0124878Y0268512D01*
X0124805Y0268643D01*
X0124730Y0268771D01*
X0124650Y0268897D01*
X0124568Y0269022D01*
X0124482Y0269143D01*
X0124393Y0269263D01*
X0124301Y0269380D01*
X0124205Y0269495D01*
X0124107Y0269607D01*
X0124006Y0269716D01*
X0123901Y0269823D01*
X0123794Y0269927D01*
X0123685Y0270028D01*
X0123572Y0270126D01*
X0123457Y0270221D01*
X0123340Y0270313D01*
X0123220Y0270401D01*
X0123098Y0270487D01*
X0122973Y0270569D01*
X0122847Y0270648D01*
X0122718Y0270723D01*
X0122587Y0270795D01*
X0122455Y0270864D01*
X0077652Y0284753D02*
X0070959Y0284753D01*
X0070959Y0284852D02*
X0070959Y0285245D01*
X0073754Y0285714D02*
X0073754Y0288714D01*
X0073805Y0288714D02*
X0075305Y0287214D01*
X0073805Y0285714D01*
X0073805Y0288714D01*
X0075305Y0287214D01*
X0073805Y0285714D01*
X0073805Y0285977D02*
X0074068Y0285977D01*
X0073805Y0286476D02*
X0074567Y0286476D01*
X0075066Y0286974D02*
X0073805Y0286974D01*
X0073805Y0287473D02*
X0075046Y0287473D01*
X0074548Y0287971D02*
X0073805Y0287971D01*
X0073805Y0288470D02*
X0074049Y0288470D01*
X0070959Y0289182D02*
X0070959Y0289576D01*
X0070959Y0289674D02*
X0077652Y0289674D01*
X0077652Y0289576D02*
X0077652Y0289182D01*
X0077652Y0285245D02*
X0077652Y0284852D01*
D13*
X0219387Y0187626D02*
X0219387Y0183022D01*
X0220921Y0183022D02*
X0217852Y0183022D01*
X0220921Y0186091D02*
X0219387Y0187626D01*
X0219387Y0111248D02*
X0219387Y0106644D01*
X0220921Y0106644D02*
X0217852Y0106644D01*
X0216317Y0107411D02*
X0216317Y0108178D01*
X0215550Y0108946D01*
X0214015Y0108946D01*
X0213248Y0108178D01*
X0213248Y0107411D01*
X0214015Y0106644D01*
X0215550Y0106644D01*
X0216317Y0107411D01*
X0215550Y0108946D02*
X0216317Y0109713D01*
X0216317Y0110480D01*
X0215550Y0111248D01*
X0214015Y0111248D01*
X0213248Y0110480D01*
X0213248Y0109713D01*
X0214015Y0108946D01*
X0219387Y0111248D02*
X0220921Y0109713D01*
D14*
X0188458Y0128515D02*
X0188458Y0131118D01*
X0189325Y0131118D02*
X0187590Y0131118D01*
X0186379Y0131118D02*
X0186379Y0128515D01*
X0186379Y0129816D02*
X0185511Y0129816D01*
X0186379Y0131118D02*
X0184644Y0131118D01*
X0183432Y0131118D02*
X0181697Y0131118D01*
X0182565Y0131118D02*
X0182565Y0128515D01*
X0180486Y0129816D02*
X0178751Y0129816D01*
X0177539Y0128515D02*
X0176238Y0128515D01*
X0175804Y0128949D01*
X0175804Y0130684D01*
X0176238Y0131118D01*
X0177539Y0131118D01*
X0177539Y0128515D01*
X0174593Y0128515D02*
X0173725Y0128515D01*
X0174159Y0128515D02*
X0174159Y0131118D01*
X0174593Y0131118D02*
X0173725Y0131118D01*
X0172628Y0130684D02*
X0172628Y0130250D01*
X0172195Y0129816D01*
X0171327Y0129816D01*
X0170893Y0129383D01*
X0170893Y0128949D01*
X0171327Y0128515D01*
X0172195Y0128515D01*
X0172628Y0128949D01*
X0172628Y0130684D02*
X0172195Y0131118D01*
X0171327Y0131118D01*
X0170893Y0130684D01*
X0169682Y0131118D02*
X0168381Y0131118D01*
X0167947Y0130684D01*
X0167947Y0129816D01*
X0168381Y0129383D01*
X0169682Y0129383D01*
X0169682Y0128515D02*
X0169682Y0131118D01*
X0166735Y0131118D02*
X0166735Y0128515D01*
X0165000Y0128515D01*
X0163789Y0128515D02*
X0163789Y0130250D01*
X0162921Y0131118D01*
X0162054Y0130250D01*
X0162054Y0128515D01*
X0162054Y0129816D02*
X0163789Y0129816D01*
X0160842Y0130684D02*
X0159975Y0129816D01*
X0159975Y0128515D01*
X0159975Y0129816D02*
X0159107Y0130684D01*
X0159107Y0131118D01*
X0160842Y0131118D02*
X0160842Y0130684D01*
X0157896Y0129816D02*
X0156161Y0129816D01*
X0154949Y0130684D02*
X0154515Y0131118D01*
X0153648Y0131118D01*
X0153214Y0130684D01*
X0153214Y0130250D01*
X0154949Y0128515D01*
X0153214Y0128515D01*
X0152003Y0128515D02*
X0151569Y0128515D01*
X0151569Y0128949D01*
X0152003Y0128949D01*
X0152003Y0128515D01*
X0150529Y0128949D02*
X0150529Y0129383D01*
X0150096Y0129816D01*
X0149228Y0129816D01*
X0148795Y0129383D01*
X0148795Y0128949D01*
X0149228Y0128515D01*
X0150096Y0128515D01*
X0150529Y0128949D01*
X0150096Y0129816D02*
X0150529Y0130250D01*
X0150529Y0130684D01*
X0150096Y0131118D01*
X0149228Y0131118D01*
X0148795Y0130684D01*
X0148795Y0130250D01*
X0149228Y0129816D01*
X0037084Y0043886D02*
X0037198Y0041721D01*
X0036787Y0041265D01*
X0035921Y0041220D01*
X0035465Y0041630D01*
X0035352Y0043795D01*
X0034142Y0043732D02*
X0032843Y0043664D01*
X0032432Y0043208D01*
X0032478Y0042342D01*
X0032933Y0041932D01*
X0034233Y0042000D01*
X0034278Y0041133D02*
X0034142Y0043732D01*
X0279705Y0258264D02*
X0279705Y0259999D01*
X0279705Y0259131D02*
X0282307Y0259131D01*
X0281440Y0258264D01*
X0281874Y0261210D02*
X0280139Y0261210D01*
X0281874Y0262945D01*
X0280139Y0262945D01*
X0279705Y0262511D01*
X0279705Y0261644D01*
X0280139Y0261210D01*
X0281874Y0261210D02*
X0282307Y0261644D01*
X0282307Y0262511D01*
X0281874Y0262945D01*
X0281874Y0264157D02*
X0282307Y0264590D01*
X0282307Y0265458D01*
X0281874Y0265892D01*
X0281440Y0265892D01*
X0279705Y0264157D01*
X0279705Y0265892D01*
X0279705Y0267103D02*
X0282307Y0267103D01*
X0282307Y0268404D01*
X0281874Y0268838D01*
X0281006Y0268838D01*
X0280573Y0268404D01*
X0280573Y0267103D01*
X0280573Y0267971D02*
X0279705Y0268838D01*
X0077852Y0279747D02*
X0077418Y0279314D01*
X0076551Y0279314D01*
X0076117Y0279747D01*
X0076117Y0280181D01*
X0076551Y0280615D01*
X0077418Y0280615D01*
X0077852Y0281049D01*
X0077852Y0281482D01*
X0077418Y0281916D01*
X0076551Y0281916D01*
X0076117Y0281482D01*
X0074905Y0280615D02*
X0073170Y0280615D01*
X0073604Y0279314D02*
X0073604Y0281916D01*
X0074905Y0280615D01*
X0300705Y0032615D02*
X0303307Y0032615D01*
X0302006Y0031314D01*
X0302006Y0033049D01*
X0301573Y0030102D02*
X0301139Y0030102D01*
X0300705Y0029668D01*
X0300705Y0028801D01*
X0301139Y0028367D01*
X0302006Y0028801D02*
X0302006Y0029668D01*
X0301573Y0030102D01*
X0302874Y0030102D02*
X0303307Y0029668D01*
X0303307Y0028801D01*
X0302874Y0028367D01*
X0302440Y0028367D01*
X0302006Y0028801D01*
M02*
