G75*
%MOIN*%
%OFA0B0*%
%FSLAX25Y25*%
%IPPOS*%
%LPD*%
%AMOC8*
5,1,8,0,0,1.08239X$1,22.5*
%
%ADD10C,0.13398*%
%ADD11R,0.05131X0.04737*%
%ADD12C,0.10800*%
%ADD13OC8,0.10800*%
%ADD14R,0.06312X0.07099*%
%ADD15R,0.04737X0.05131*%
%ADD16OC8,0.07100*%
%ADD17C,0.07100*%
%ADD18C,0.00987*%
%ADD19C,0.17000*%
%ADD20C,0.17398*%
%ADD21C,0.08200*%
%ADD22R,0.05800X0.03300*%
%ADD23R,0.05400X0.07100*%
%ADD24R,0.00600X0.07200*%
%ADD25OC8,0.09300*%
%ADD26C,0.05800*%
%ADD27R,0.05524X0.02965*%
%ADD28C,0.07296*%
%ADD29C,0.06706*%
%ADD30R,0.05524X0.02769*%
%ADD31R,0.05524X0.02375*%
%ADD32R,0.09461X0.03162*%
%ADD33R,0.02965X0.05524*%
%ADD34R,0.07400X0.07400*%
%ADD35C,0.07400*%
%ADD36R,0.04343X0.03950*%
%ADD37R,0.06706X0.04343*%
%ADD38R,0.04343X0.06706*%
%ADD39R,0.24422X0.24422*%
%ADD40R,0.05300X0.01800*%
%ADD41R,0.01800X0.05300*%
%ADD42R,0.03950X0.04343*%
%ADD43C,0.03753*%
%ADD44C,0.04934*%
%ADD45C,0.06000*%
%ADD46R,0.06509X0.02375*%
%ADD47C,0.04146*%
%ADD48R,0.06693X0.07874*%
%ADD49R,0.06693X0.10630*%
%ADD50R,0.07099X0.03556*%
%ADD51R,0.07099X0.06312*%
%ADD52R,0.09461X0.06312*%
%ADD53R,0.06312X0.07887*%
%ADD54C,0.04343*%
%ADD55R,0.07887X0.03556*%
%ADD56R,0.03556X0.04800*%
%ADD57C,0.04000*%
%ADD58R,0.05600X0.09600*%
%ADD59R,0.14973X0.09461*%
%ADD60R,0.08400X0.08400*%
%ADD61R,0.04737X0.22454*%
%ADD62R,0.07099X0.14186*%
%ADD63R,0.02454X0.07808*%
%ADD64R,0.03517X0.04737*%
D10*
X0011955Y0012464D03*
X0305105Y0012414D03*
X0305105Y0284364D03*
X0011905Y0284264D03*
D11*
X0087409Y0131814D03*
X0094102Y0131814D03*
X0075005Y0118710D03*
X0075005Y0112017D03*
X0097909Y0097514D03*
X0104602Y0097514D03*
X0104252Y0084214D03*
X0097559Y0084214D03*
X0126259Y0094714D03*
X0132952Y0094714D03*
X0138859Y0094714D03*
X0145552Y0094714D03*
X0136452Y0115014D03*
X0129759Y0115014D03*
X0135709Y0133214D03*
X0142402Y0133214D03*
X0185605Y0136867D03*
X0185605Y0143560D03*
X0188055Y0108910D03*
X0188055Y0102217D03*
X0217959Y0053064D03*
X0224652Y0053064D03*
X0257159Y0062514D03*
X0263852Y0062514D03*
X0269759Y0124464D03*
X0276452Y0124464D03*
X0297255Y0143517D03*
X0297255Y0150210D03*
X0275905Y0153010D03*
X0275905Y0146317D03*
X0233402Y0210214D03*
X0226709Y0210214D03*
X0219905Y0218767D03*
X0219905Y0225460D03*
X0227409Y0235414D03*
X0234102Y0235414D03*
X0244055Y0226160D03*
X0250355Y0226160D03*
X0250355Y0219467D03*
X0244055Y0219467D03*
X0294105Y0255867D03*
X0294105Y0262560D03*
X0057002Y0055164D03*
X0050309Y0055164D03*
X0043002Y0073714D03*
X0043002Y0079314D03*
X0043002Y0084914D03*
X0036309Y0084914D03*
X0036309Y0079314D03*
X0036309Y0073714D03*
X0038452Y0112564D03*
X0031759Y0112564D03*
X0043659Y0123764D03*
X0050352Y0123764D03*
X0061159Y0026464D03*
X0067852Y0026464D03*
X0073409Y0026464D03*
X0080102Y0026464D03*
D12*
X0297805Y0168914D03*
X0085505Y0250964D03*
D13*
X0085505Y0270964D03*
X0277805Y0168914D03*
D14*
X0133717Y0085964D03*
X0122693Y0085964D03*
X0121117Y0110814D03*
X0110093Y0110814D03*
D15*
X0100555Y0121117D03*
X0094452Y0120614D03*
X0094452Y0126214D03*
X0100555Y0127810D03*
X0087759Y0126214D03*
X0087759Y0120614D03*
X0080605Y0119060D03*
X0080605Y0112367D03*
X0069405Y0112367D03*
X0063455Y0112367D03*
X0056805Y0112367D03*
X0050702Y0112564D03*
X0050702Y0118164D03*
X0056805Y0119060D03*
X0063455Y0119060D03*
X0069405Y0119060D03*
X0044009Y0118164D03*
X0044009Y0112564D03*
X0042652Y0067764D03*
X0035959Y0067764D03*
X0027602Y0043264D03*
X0020909Y0043264D03*
X0065009Y0052714D03*
X0071702Y0052714D03*
X0094255Y0050767D03*
X0094255Y0057460D03*
X0096509Y0068464D03*
X0103202Y0068464D03*
X0104252Y0091914D03*
X0097559Y0091914D03*
X0119609Y0040814D03*
X0126302Y0040814D03*
X0126302Y0030664D03*
X0119609Y0030664D03*
X0119609Y0020864D03*
X0126302Y0020864D03*
X0105302Y0020864D03*
X0098609Y0020864D03*
X0098609Y0030664D03*
X0105302Y0030664D03*
X0171759Y0116764D03*
X0178452Y0116764D03*
X0184709Y0116764D03*
X0191402Y0116764D03*
X0178452Y0124114D03*
X0171759Y0124114D03*
X0213409Y0105214D03*
X0220102Y0105214D03*
X0234955Y0130567D03*
X0234955Y0137260D03*
X0259805Y0130960D03*
X0259805Y0124267D03*
X0269759Y0132864D03*
X0276452Y0132864D03*
X0274309Y0207764D03*
X0281002Y0207764D03*
X0263152Y0211964D03*
X0256459Y0211964D03*
X0255452Y0233664D03*
X0261359Y0233664D03*
X0268052Y0233664D03*
X0248759Y0233664D03*
X0117355Y0231017D03*
X0117355Y0237710D03*
X0069405Y0202360D03*
X0069405Y0195667D03*
X0104909Y0180114D03*
X0111602Y0180114D03*
X0105302Y0151064D03*
X0098609Y0151064D03*
X0217959Y0045714D03*
X0224652Y0045714D03*
D16*
X0089705Y0167764D03*
X0083755Y0141164D03*
D17*
X0083755Y0151164D03*
X0089705Y0177764D03*
D18*
X0269173Y0185764D02*
X0269173Y0189514D01*
X0272137Y0189514D01*
X0272137Y0185764D01*
X0269173Y0185764D01*
X0269173Y0186750D02*
X0272137Y0186750D01*
X0272137Y0187736D02*
X0269173Y0187736D01*
X0269173Y0188722D02*
X0272137Y0188722D01*
X0269173Y0195213D02*
X0269173Y0198963D01*
X0272137Y0198963D01*
X0272137Y0195213D01*
X0269173Y0195213D01*
X0269173Y0196199D02*
X0272137Y0196199D01*
X0272137Y0197185D02*
X0269173Y0197185D01*
X0269173Y0198171D02*
X0272137Y0198171D01*
X0282606Y0203646D02*
X0286356Y0203646D01*
X0286356Y0200682D01*
X0282606Y0200682D01*
X0282606Y0203646D01*
X0282606Y0201668D02*
X0286356Y0201668D01*
X0286356Y0202654D02*
X0282606Y0202654D01*
X0282606Y0203640D02*
X0286356Y0203640D01*
X0292055Y0203646D02*
X0295805Y0203646D01*
X0295805Y0200682D01*
X0292055Y0200682D01*
X0292055Y0203646D01*
X0292055Y0201668D02*
X0295805Y0201668D01*
X0295805Y0202654D02*
X0292055Y0202654D01*
X0292055Y0203640D02*
X0295805Y0203640D01*
X0282823Y0134913D02*
X0282823Y0131163D01*
X0282823Y0134913D02*
X0285787Y0134913D01*
X0285787Y0131163D01*
X0282823Y0131163D01*
X0282823Y0132149D02*
X0285787Y0132149D01*
X0285787Y0133135D02*
X0282823Y0133135D01*
X0282823Y0134121D02*
X0285787Y0134121D01*
X0282823Y0125464D02*
X0282823Y0121714D01*
X0282823Y0125464D02*
X0285787Y0125464D01*
X0285787Y0121714D01*
X0282823Y0121714D01*
X0282823Y0122700D02*
X0285787Y0122700D01*
X0285787Y0123686D02*
X0282823Y0123686D01*
X0282823Y0124672D02*
X0285787Y0124672D01*
D19*
X0047131Y0248604D03*
X0030820Y0263314D03*
D20*
X0059642Y0263414D03*
D21*
X0072905Y0180864D03*
X0072905Y0170864D03*
X0072905Y0160864D03*
X0231650Y0038652D03*
X0231650Y0016989D03*
X0260455Y0020664D03*
X0260455Y0030664D03*
X0270455Y0030664D03*
X0280455Y0030664D03*
X0280455Y0020664D03*
X0270455Y0020664D03*
D22*
X0043855Y0097992D03*
X0043855Y0101235D03*
D23*
X0027255Y0052714D03*
X0021255Y0052714D03*
D24*
X0024255Y0052714D03*
D25*
X0212555Y0063214D03*
X0289905Y0139164D03*
X0300055Y0187814D03*
D26*
X0116655Y0094364D03*
X0100905Y0108714D03*
X0087955Y0193764D03*
X0082005Y0199714D03*
X0103005Y0222464D03*
D27*
X0129387Y0110004D03*
X0129387Y0102524D03*
X0139623Y0102524D03*
X0139623Y0106264D03*
X0139623Y0110004D03*
X0145487Y0089354D03*
X0145487Y0081874D03*
X0155723Y0081874D03*
X0155723Y0085614D03*
X0155723Y0089354D03*
X0257487Y0219424D03*
X0257487Y0226904D03*
X0267723Y0226904D03*
X0267723Y0223164D03*
X0267723Y0219424D03*
D28*
X0051205Y0151414D03*
X0037705Y0151414D03*
X0024205Y0151414D03*
X0024205Y0131414D03*
X0051205Y0131414D03*
D29*
X0048843Y0141571D03*
X0021284Y0141571D03*
D30*
X0192639Y0142367D03*
X0192639Y0124060D03*
X0215671Y0124060D03*
X0215671Y0142367D03*
D31*
X0215671Y0139611D03*
X0215671Y0137052D03*
X0215671Y0134493D03*
X0215671Y0131934D03*
X0215671Y0129375D03*
X0215671Y0126816D03*
X0192639Y0126816D03*
X0192639Y0129375D03*
X0192639Y0131934D03*
X0192639Y0134493D03*
X0192639Y0137052D03*
X0192639Y0139611D03*
D32*
X0176591Y0140164D03*
X0176591Y0135164D03*
X0176591Y0145164D03*
X0176591Y0150164D03*
X0156119Y0150164D03*
X0156119Y0145164D03*
X0156119Y0140164D03*
X0156119Y0135164D03*
D33*
X0227015Y0218046D03*
X0230755Y0218046D03*
X0234495Y0218046D03*
X0234495Y0228282D03*
X0227015Y0228282D03*
D34*
X0112455Y0275864D03*
D35*
X0112455Y0265864D03*
X0112455Y0255864D03*
D36*
X0280368Y0196804D03*
X0280368Y0189324D03*
X0288636Y0193064D03*
X0296468Y0132754D03*
X0296468Y0125274D03*
X0304736Y0129014D03*
D37*
X0200738Y0152629D03*
X0200738Y0157629D03*
X0200738Y0162629D03*
X0200738Y0167629D03*
X0200738Y0172629D03*
X0200738Y0177629D03*
X0200738Y0182629D03*
X0200738Y0187629D03*
X0200738Y0192629D03*
X0200738Y0197629D03*
X0200738Y0202629D03*
X0200738Y0207629D03*
X0200738Y0212629D03*
X0200738Y0217629D03*
X0200738Y0222629D03*
X0200738Y0227629D03*
X0200738Y0232629D03*
X0200738Y0237629D03*
X0200738Y0242629D03*
X0129872Y0242629D03*
X0129872Y0237629D03*
X0129872Y0232629D03*
X0129872Y0227629D03*
X0129872Y0222629D03*
X0129872Y0217629D03*
X0129872Y0212629D03*
X0129872Y0207629D03*
X0129872Y0202629D03*
X0129872Y0197629D03*
X0129872Y0192629D03*
X0129872Y0187629D03*
X0129872Y0182629D03*
X0129872Y0177629D03*
X0129872Y0172629D03*
X0129872Y0167629D03*
X0129872Y0162629D03*
X0129872Y0157629D03*
X0129872Y0152629D03*
D38*
X0142805Y0171763D03*
X0147805Y0171763D03*
X0152805Y0171763D03*
X0157805Y0171763D03*
X0162805Y0171763D03*
X0167805Y0171763D03*
X0172805Y0171763D03*
X0177805Y0171763D03*
X0182805Y0171763D03*
X0187805Y0171763D03*
D39*
X0165305Y0212314D03*
D40*
X0086837Y0089091D03*
X0086837Y0087122D03*
X0086837Y0085154D03*
X0086837Y0083185D03*
X0086837Y0081216D03*
X0086837Y0079248D03*
X0086837Y0077279D03*
X0086837Y0075311D03*
X0086837Y0073342D03*
X0086837Y0071374D03*
X0086837Y0069405D03*
X0086837Y0067437D03*
X0053373Y0067437D03*
X0053373Y0069405D03*
X0053373Y0071374D03*
X0053373Y0073342D03*
X0053373Y0075311D03*
X0053373Y0077279D03*
X0053373Y0079248D03*
X0053373Y0081216D03*
X0053373Y0083185D03*
X0053373Y0085154D03*
X0053373Y0087122D03*
X0053373Y0089091D03*
D41*
X0059278Y0094996D03*
X0061247Y0094996D03*
X0063215Y0094996D03*
X0065184Y0094996D03*
X0067152Y0094996D03*
X0069121Y0094996D03*
X0071089Y0094996D03*
X0073058Y0094996D03*
X0075026Y0094996D03*
X0076995Y0094996D03*
X0078963Y0094996D03*
X0080932Y0094996D03*
X0080932Y0061531D03*
X0078963Y0061531D03*
X0076995Y0061531D03*
X0075026Y0061531D03*
X0073058Y0061531D03*
X0071089Y0061531D03*
X0069121Y0061531D03*
X0067152Y0061531D03*
X0065184Y0061531D03*
X0063215Y0061531D03*
X0061247Y0061531D03*
X0059278Y0061531D03*
D42*
X0040355Y0054944D03*
X0036615Y0046677D03*
X0044095Y0046677D03*
X0202165Y0090777D03*
X0209645Y0090777D03*
X0205905Y0099044D03*
X0208945Y0110377D03*
X0201465Y0110377D03*
X0205205Y0118644D03*
D43*
X0029896Y0032519D03*
D44*
X0041014Y0022508D03*
D45*
X0060605Y0039764D03*
X0079605Y0039764D03*
X0132805Y0020764D03*
X0142805Y0020764D03*
X0152805Y0020764D03*
X0162805Y0020764D03*
X0172805Y0020764D03*
X0182805Y0020764D03*
X0192805Y0020764D03*
X0187805Y0030764D03*
X0177805Y0030764D03*
X0167805Y0030764D03*
X0157805Y0030764D03*
X0147805Y0030764D03*
X0137805Y0030764D03*
X0197805Y0030764D03*
D46*
X0291077Y0228196D03*
X0291077Y0230755D03*
X0291077Y0233314D03*
X0291077Y0235873D03*
X0291077Y0238432D03*
D47*
X0293144Y0240794D03*
X0293144Y0225833D03*
D48*
X0301805Y0218810D03*
X0301805Y0247818D03*
D49*
X0301805Y0233314D03*
D50*
X0060305Y0216751D03*
X0060305Y0212420D03*
X0060305Y0208090D03*
X0060305Y0203759D03*
X0060305Y0199428D03*
X0060305Y0195098D03*
X0060305Y0190767D03*
X0060305Y0186436D03*
X0060305Y0182105D03*
D51*
X0057943Y0221869D03*
D52*
X0020541Y0221869D03*
X0020541Y0160058D03*
D53*
X0058337Y0163602D03*
D54*
X0018967Y0178956D03*
X0018967Y0210452D03*
D55*
X0294718Y0109664D03*
X0294718Y0103664D03*
X0294718Y0091664D03*
D56*
X0297978Y0086164D03*
X0307033Y0086164D03*
X0307033Y0115164D03*
X0297978Y0115164D03*
D57*
X0302505Y0106664D03*
X0302505Y0094664D03*
D58*
X0276605Y0072014D03*
X0267505Y0072014D03*
X0258405Y0072014D03*
D59*
X0267505Y0096415D03*
D60*
X0281355Y0246414D03*
X0281355Y0283914D03*
X0219855Y0283914D03*
X0219855Y0246414D03*
D61*
X0239418Y0189827D03*
X0247292Y0189827D03*
D62*
X0256741Y0196914D03*
X0229969Y0196914D03*
D63*
X0259117Y0179926D03*
X0261676Y0179926D03*
X0264235Y0179926D03*
X0266794Y0179926D03*
X0266794Y0156501D03*
X0264235Y0156501D03*
X0261676Y0156501D03*
X0259117Y0156501D03*
D64*
X0261665Y0148482D03*
X0265405Y0148482D03*
X0269145Y0148482D03*
X0269145Y0138246D03*
X0265405Y0138246D03*
X0261665Y0138246D03*
M02*
