STARTFONT 2.1
COMMENT
COMMENT Converted from OpenType font "c:\windows\fonts\timesbi.ttf" by "otf2bdf 3.0".
COMMENT
FONT -FreeType-Times New Roman-Bold-I-Normal--33-240-100-100-P-184-ISO10646-1
SIZE 24 100 100
FONTBOUNDINGBOX 64 44 -18 -10
STARTPROPERTIES 19
FOUNDRY "FreeType"
FAMILY_NAME "Times New Roman"
WEIGHT_NAME "Bold"
SLANT "I"
SETWIDTH_NAME "Normal"
ADD_STYLE_NAME ""
PIXEL_SIZE 33
POINT_SIZE 240
RESOLUTION_X 100
RESOLUTION_Y 100
SPACING "P"
AVERAGE_WIDTH 184
CHARSET_REGISTRY "ISO10646"
CHARSET_ENCODING "1"
FONT_ASCENT 29
FONT_DESCENT 7
COPYRIGHT "© 2017 The Monotype Corporation. All Rights Reserved.     Hebrew OpenType Layout logic copyright © 2003 & 2007, Ralph Hancock & John Hudson. This layout logic for Biblical Hebrew is open source software under the MIT License; see embedded license description for details."
_OTF_FONTFILE "c:\windows\fonts\timesbi.ttf"
_OTF_PSNAME "TimesNewRomanPS-BoldItalicMT"
ENDPROPERTIES
CHARS 223
STARTCHAR 0020
ENCODING 32
SWIDTH 240 0
DWIDTH 8 0
BBX 0 0 0 0
BITMAP
ENDCHAR
STARTCHAR 0021
ENCODING 33
SWIDTH 390 0
DWIDTH 13 0
BBX 10 23 2 0
BITMAP
0180
0380
07C0
0780
0780
0780
0700
0700
0F00
0E00
0E00
0C00
0C00
0C00
0800
0800
1000
1000
0000
7000
F800
F800
7000
ENDCHAR
STARTCHAR 0022
ENCODING 34
SWIDTH 540 0
DWIDTH 18 0
BBX 13 11 5 12
BITMAP
3838
7C78
7C78
78F8
78F0
F0F0
F0E0
E0E0
E0C0
C0C0
C080
ENDCHAR
STARTCHAR 0023
ENCODING 35
SWIDTH 510 0
DWIDTH 17 0
BBX 15 23 1 0
BITMAP
030E
070C
060C
060C
060C
061C
0E18
0C18
FFFE
FFFE
0C38
1C30
1830
1830
1830
FFFE
FFFE
3060
3060
3060
30E0
60C0
60C0
ENDCHAR
STARTCHAR 0024
ENCODING 36
SWIDTH 510 0
DWIDTH 17 0
BBX 15 25 1 -2
BITMAP
0010
01F8
072E
0E26
0E22
1E44
1E40
1E40
1FC0
0F80
0FC0
07E0
03F0
01F8
01FC
037C
023C
423C
663C
6438
6478
F4E0
3F80
0800
0800
ENDCHAR
STARTCHAR 0025
ENCODING 37
SWIDTH 810 0
DWIDTH 27 0
BBX 22 24 4 -1
BITMAP
0F0018
398030
718030
71C060
F1C0C0
E3C180
E38300
E38600
C78600
C70C00
CE1800
783000
0060F0
00C398
00C718
01871C
030F1C
060E3C
0C0E38
180E38
180E78
300C70
600EE0
C00780
ENDCHAR
STARTCHAR 0026
ENCODING 38
SWIDTH 780 0
DWIDTH 26 0
BBX 21 23 2 0
BITMAP
000F00
003380
0063C0
00E3C0
00E3C0
00E380
01E380
01E700
01FE00
01F800
00F000
03F1F8
0EF8F0
38F8E0
7878C0
F07D80
F07D00
F03E00
F83F00
F81F08
FC3F88
7FC7F0
3F03C0
ENDCHAR
STARTCHAR 0027
ENCODING 39
SWIDTH 270 0
DWIDTH 9 0
BBX 5 11 5 12
BITMAP
38
78
78
F8
F0
F0
E0
E0
C0
C0
80
ENDCHAR
STARTCHAR 0028
ENCODING 40
SWIDTH 330 0
DWIDTH 11 0
BBX 12 29 2 -7
BITMAP
0010
0060
00C0
0380
0700
0F00
0E00
1E00
3C00
3C00
7800
7800
F800
F000
F000
F000
F000
E000
E000
E000
E000
E000
6000
6000
6000
2000
3000
1000
1000
ENDCHAR
STARTCHAR 0029
ENCODING 41
SWIDTH 330 0
DWIDTH 11 0
BBX 13 29 -4 -7
BITMAP
0080
0040
0040
0060
0060
0030
0030
0030
0038
0078
0078
0078
0078
0078
0078
00F0
00F0
00F0
01E0
01E0
03C0
03C0
0780
0700
0E00
1C00
3800
6000
8000
ENDCHAR
STARTCHAR 002A
ENCODING 42
SWIDTH 510 0
DWIDTH 17 0
BBX 13 12 4 11
BITMAP
0700
0700
0700
0200
6230
F278
FAF8
7FF0
0700
1DC0
39E0
38E0
ENDCHAR
STARTCHAR 002B
ENCODING 43
SWIDTH 570 0
DWIDTH 19 0
BBX 18 18 1 2
BITMAP
00C000
00C000
00C000
00C000
00C000
00C000
00C000
00C000
FFFFC0
FFFFC0
00C000
00C000
00C000
00C000
00C000
00C000
00C000
00C000
ENDCHAR
STARTCHAR 002C
ENCODING 44
SWIDTH 240 0
DWIDTH 8 0
BBX 7 10 -1 -5
BITMAP
1C
3C
7E
3E
1E
1C
18
18
60
C0
ENDCHAR
STARTCHAR 002D
ENCODING 45
SWIDTH 330 0
DWIDTH 11 0
BBX 10 3 0 6
BITMAP
7FC0
7FC0
FFC0
ENDCHAR
STARTCHAR 002E
ENCODING 46
SWIDTH 240 0
DWIDTH 8 0
BBX 5 4 0 0
BITMAP
70
F8
F8
F0
ENDCHAR
STARTCHAR 002F
ENCODING 47
SWIDTH 270 0
DWIDTH 9 0
BBX 15 22 -2 0
BITMAP
0006
000E
000C
0018
0018
0030
0070
0060
00C0
01C0
0180
0300
0700
0600
0C00
1C00
1800
3800
3000
6000
E000
C000
ENDCHAR
STARTCHAR 0030
ENCODING 48
SWIDTH 510 0
DWIDTH 17 0
BBX 14 22 2 0
BITMAP
01F0
0398
071C
0E1C
1E1C
1E1C
3C1C
3C3C
7C3C
783C
787C
F87C
F878
F078
F0F8
F0F0
E0F0
E1E0
E1C0
61C0
6300
3E00
ENDCHAR
STARTCHAR 0031
ENCODING 49
SWIDTH 510 0
DWIDTH 17 0
BBX 14 22 1 0
BITMAP
001C
01F8
07F8
00F8
00F0
00F0
00F0
01E0
01E0
01E0
03E0
03C0
03C0
03C0
0780
0780
0780
0F80
0F00
0F00
1F00
FFE0
ENDCHAR
STARTCHAR 0032
ENCODING 50
SWIDTH 510 0
DWIDTH 17 0
BBX 16 22 0 0
BITMAP
00F8
03FE
07FE
063F
081F
000F
000F
000E
001E
001C
0038
0030
0060
00C0
0180
0300
0604
0C0C
1FF8
3FF8
7FF0
FFF0
ENDCHAR
STARTCHAR 0033
ENCODING 51
SWIDTH 510 0
DWIDTH 17 0
BBX 15 22 0 0
BITMAP
00F8
01FC
023E
041E
000E
001E
001E
0038
01E0
0FE0
03F8
00F8
007C
007C
003C
0038
0038
0078
7070
F8E0
7FC0
3E00
ENDCHAR
STARTCHAR 0034
ENCODING 52
SWIDTH 510 0
DWIDTH 17 0
BBX 15 22 1 0
BITMAP
0006
000E
001E
003E
007C
00FC
00BC
0138
0278
0478
0870
10F0
20F0
40E0
FFFC
FFF8
FFF8
01C0
03C0
03C0
0380
0780
ENDCHAR
STARTCHAR 0035
ENCODING 53
SWIDTH 510 0
DWIDTH 17 0
BBX 15 22 1 0
BITMAP
01FE
01FE
03FE
03FE
0600
0400
0F80
0FE0
1FF0
03F0
01F8
00F8
0078
0078
0038
0038
0030
0070
6060
F8C0
FF80
7E00
ENDCHAR
STARTCHAR 0036
ENCODING 54
SWIDTH 510 0
DWIDTH 17 0
BBX 15 22 2 0
BITMAP
000E
0078
01E0
03C0
0780
0F00
1E00
1E00
3FE0
7CF0
7878
7878
F878
F878
F078
F078
F0F8
F0F0
F0F0
71E0
31C0
1F00
ENDCHAR
STARTCHAR 0037
ENCODING 55
SWIDTH 510 0
DWIDTH 17 0
BBX 14 22 4 0
BITMAP
1FFC
3FFC
3FF8
7FF8
4030
8020
0060
0040
00C0
0180
0100
0300
0600
0600
0C00
0800
1800
3000
3000
6000
4000
4000
ENDCHAR
STARTCHAR 0038
ENCODING 56
SWIDTH 510 0
DWIDTH 17 0
BBX 15 22 1 0
BITMAP
01F0
039C
071E
0F0E
0F0E
0F0E
0F1E
0F9C
0FB8
07E0
03E0
0DF0
39F8
78F8
7078
F078
F078
F078
F078
70F0
39E0
1F80
ENDCHAR
STARTCHAR 0039
ENCODING 57
SWIDTH 510 0
DWIDTH 17 0
BBX 15 22 1 0
BITMAP
01F0
079C
0F0C
0E0E
1E1E
1E1E
3C1E
3C1E
3C3E
3C3E
3C3E
3E7C
1FFC
0F78
00F8
00F0
01E0
03C0
0780
0F00
3C00
E000
ENDCHAR
STARTCHAR 003A
ENCODING 58
SWIDTH 330 0
DWIDTH 11 0
BBX 8 15 1 0
BITMAP
0F
1F
1F
0F
00
00
00
00
00
00
00
78
FC
FC
78
ENDCHAR
STARTCHAR 003B
ENCODING 59
SWIDTH 330 0
DWIDTH 11 0
BBX 10 20 0 -5
BITMAP
0780
0FC0
0FC0
0780
0000
0000
0000
0000
0000
0000
3C00
3C00
7E00
3E00
1C00
1C00
1800
3800
6000
C000
ENDCHAR
STARTCHAR 003C
ENCODING 60
SWIDTH 570 0
DWIDTH 19 0
BBX 18 15 1 3
BITMAP
000040
0003C0
000F80
007C00
01F000
0F8000
3E0000
F00000
3E0000
0F8000
01F000
007C00
000F80
0003C0
000040
ENDCHAR
STARTCHAR 003D
ENCODING 61
SWIDTH 570 0
DWIDTH 19 0
BBX 18 7 1 8
BITMAP
FFFFC0
FFFFC0
000000
000000
000000
FFFFC0
FFFFC0
ENDCHAR
STARTCHAR 003E
ENCODING 62
SWIDTH 570 0
DWIDTH 19 0
BBX 18 15 1 3
BITMAP
C00000
F00000
7E0000
0F8000
03F000
007C00
001F80
0003C0
001F80
007C00
03F000
0F8000
7E0000
F00000
C00000
ENDCHAR
STARTCHAR 003F
ENCODING 63
SWIDTH 510 0
DWIDTH 17 0
BBX 13 23 3 0
BITMAP
0FC0
18E0
3870
3C70
7C78
3C78
38F8
00F0
01F0
03E0
03C0
0780
0E00
0C00
1800
1000
1000
2000
0000
7000
F800
F800
7000
ENDCHAR
STARTCHAR 0040
ENCODING 64
SWIDTH 810 0
DWIDTH 27 0
BBX 28 30 0 -7
BITMAP
001FE000
00F01C00
01800600
07000100
0C000080
180000C0
18000040
30000040
60077820
601CF820
6038F820
C078F020
C0F0F020
C0F0F020
C1E1E020
C1E1E040
C1E1E040
C3C3E040
C3C7C080
C3EFC100
43FBC210
61F3C410
61E1F820
30000060
10000040
18000080
0C000300
03000600
01C03800
003FC000
ENDCHAR
STARTCHAR 0041
ENCODING 65
SWIDTH 660 0
DWIDTH 22 0
BBX 22 23 -2 0
BITMAP
000008
000018
000038
000078
0000F0
0001F0
0001F0
0002F0
0006F0
000CF0
0018F0
0010F0
0031F0
0061F0
00C1F0
01FFF0
0101F0
0201F0
0601F0
0C01F0
1801F0
3803F8
FE0FFC
ENDCHAR
STARTCHAR 0042
ENCODING 66
SWIDTH 660 0
DWIDTH 22 0
BBX 22 22 -1 0
BITMAP
03FFE0
00F8F8
00F87C
00F87C
00F87C
00F07C
01F07C
01F0F8
01E1F0
01E3C0
03FE00
03E3C0
03C1E0
07C1F0
07C1F0
0781F8
0781F0
0F81F0
0F83F0
0F03E0
1F0FC0
FFFE00
ENDCHAR
STARTCHAR 0043
ENCODING 67
SWIDTH 660 0
DWIDTH 22 0
BBX 22 22 2 0
BITMAP
001FEC
00F878
01E038
07C018
0F8018
1F0018
3F0010
3E0000
7E0000
7C0000
7C0000
FC0000
FC0000
F80000
F80000
F80000
7C0040
7C0080
3E0100
3F0600
0FFC00
03F000
ENDCHAR
STARTCHAR 0044
ENCODING 68
SWIDTH 720 0
DWIDTH 24 0
BBX 24 22 -1 0
BITMAP
07FFC0
00F8F0
00F87C
00F83C
00F03E
01F01F
01F01F
01F01F
01E01F
03E01F
03E01F
03E03F
07C03F
07C03E
07C03E
07807C
0F8078
0F80F8
0F81F0
1F03C0
3F8780
FFFC00
ENDCHAR
STARTCHAR 0045
ENCODING 69
SWIDTH 660 0
DWIDTH 22 0
BBX 23 22 -1 0
BITMAP
03FFFE
00F81E
00F806
00F804
00F804
01F000
01F020
01F020
01E040
03E1C0
03FFC0
03E180
07C080
07C080
07C080
078000
0F8008
0F8010
0F8030
1F00E0
3F03E0
FFFFE0
ENDCHAR
STARTCHAR 0046
ENCODING 70
SWIDTH 660 0
DWIDTH 22 0
BBX 24 22 0 0
BITMAP
03FFFF
00F80E
00F806
00F802
00F802
00F000
01F020
01F040
01F040
03E1C0
03FFC0
03E180
07C080
07C080
07C100
078000
0F8000
0F8000
0F0000
1F0000
3F8000
FFE000
ENDCHAR
STARTCHAR 0047
ENCODING 71
SWIDTH 720 0
DWIDTH 24 0
BBX 23 22 2 0
BITMAP
001FF6
00F83C
01E01C
07C00C
0F800C
1F0008
3F0008
3E0000
7E0000
7C0000
FC0000
FC0FFC
FC03F0
F803E0
F803E0
7803E0
7C07C0
7C07C0
3C07C0
1E07C0
0F0F80
03FF80
ENDCHAR
STARTCHAR 0048
ENCODING 72
SWIDTH 780 0
DWIDTH 26 0
BBX 29 22 -1 0
BITMAP
03FF3FF8
00FC07E0
00F807C0
00F807C0
00F80F80
01F00F80
01F00F80
01F00F00
01E01F00
03E01F00
03FFFF00
03C03E00
07C03E00
07C03E00
07807C00
0F807C00
0F807C00
0F807800
0F00F800
1F00F800
3F81F800
FFE7FE00
ENDCHAR
STARTCHAR 0049
ENCODING 73
SWIDTH 390 0
DWIDTH 13 0
BBX 16 22 -1 0
BITMAP
03FF
00FC
00F8
00F8
00F0
01F0
01F0
01F0
03E0
03E0
03E0
03E0
07C0
07C0
07C0
0F80
0F80
0F80
0F80
1F00
3F80
FFE0
ENDCHAR
STARTCHAR 004A
ENCODING 74
SWIDTH 510 0
DWIDTH 17 0
BBX 20 22 0 0
BITMAP
007FF0
001F80
001F00
001F00
001F00
001E00
003E00
003E00
003E00
007C00
007C00
007C00
00F800
00F800
00F800
00F000
61F000
F1F000
F1E000
E3C000
E78000
7E0000
ENDCHAR
STARTCHAR 004B
ENCODING 75
SWIDTH 660 0
DWIDTH 22 0
BBX 26 22 -1 0
BITMAP
03FF7FC0
00FC3E00
00F81800
00F83000
00F84000
01F08000
01F10000
01F20000
01EE0000
03FF0000
03FF0000
03FF0000
07CF8000
07CF8000
07CF8000
07878000
0F87C000
0F87C000
0F03E000
1F03E000
3F87F000
FFEFF800
ENDCHAR
STARTCHAR 004C
ENCODING 76
SWIDTH 600 0
DWIDTH 20 0
BBX 20 22 -1 0
BITMAP
03FF00
00FC00
00F800
00F800
00F800
01F000
01F000
01F000
01E000
03E000
03E000
03E000
07C000
07C000
07C000
0F8000
0F8010
0F8020
0F8060
1F01C0
3F07C0
FFFFC0
ENDCHAR
STARTCHAR 004D
ENCODING 77
SWIDTH 870 0
DWIDTH 29 0
BBX 33 22 -1 0
BITMAP
03FC007F80
00FC007E00
00FC00FC00
00FC01F800
00FC01F800
00FC02F800
013C06F800
013C05F000
013C09F000
033C19F000
023E13E000
023E23E000
063E63E000
043E43C000
043E87C000
041F07C000
0C1F07C000
081E0F8000
081C0F8000
181C0F8000
38181F8000
FE10FFE000
ENDCHAR
STARTCHAR 004E
ENCODING 78
SWIDTH 720 0
DWIDTH 24 0
BBX 28 22 -1 0
BITMAP
07F807F0
01F803C0
00FC0180
00FC0100
00BE0100
01BE0300
011F0200
011F0200
030F0200
030F8400
02078400
0207C400
0607CC00
0403E800
0403E800
0C01F800
0801F000
0800F000
1800F000
18006000
38006000
FE002000
ENDCHAR
STARTCHAR 004F
ENCODING 79
SWIDTH 720 0
DWIDTH 24 0
BBX 22 23 2 0
BITMAP
001F80
0061E0
01C0F0
0380F8
0F80F8
0F0078
1F00FC
3E00FC
3E00FC
7C00FC
7C00F8
FC00F8
FC01F8
F801F0
F801F0
F803E0
F803E0
F807C0
F80780
780F00
781E00
3C3800
0FE000
ENDCHAR
STARTCHAR 0050
ENCODING 80
SWIDTH 600 0
DWIDTH 20 0
BBX 22 22 -1 0
BITMAP
03FFE0
00F8F8
00F87C
00F87C
00F07C
01F07C
01F07C
01F07C
01E0F8
03E1F0
03E3E0
03FF80
07C000
07C000
07C000
078000
0F8000
0F8000
0F0000
1F0000
1F8000
FFE000
ENDCHAR
STARTCHAR 0051
ENCODING 81
SWIDTH 720 0
DWIDTH 24 0
BBX 22 29 2 -6
BITMAP
001F80
0061E0
01C0F0
0780F8
0F80F8
0F0078
1F00FC
3E00FC
3E00FC
7C00FC
7C00F8
FC00F8
FC01F8
F801F0
F801F0
F803E0
F803E0
F807C0
F80780
780F00
781E00
3C3800
0FE000
060000
0C0000
1FF010
7FFFE0
FFFFC0
01FE00
ENDCHAR
STARTCHAR 0052
ENCODING 82
SWIDTH 660 0
DWIDTH 22 0
BBX 22 22 -1 0
BITMAP
03FFE0
00F8F8
00F878
00F87C
00F07C
01F07C
01F07C
01E0F8
03E1F0
03E3E0
03FF00
03CF00
07CF80
07CF80
078780
0F87C0
0F87C0
0F87C0
0F03C0
1F03E0
3F83F0
FFE3F8
ENDCHAR
STARTCHAR 0053
ENCODING 83
SWIDTH 540 0
DWIDTH 18 0
BBX 20 23 -1 0
BITMAP
007E10
00F1F0
01E0F0
03C060
03C060
07C020
07C020
07E020
03F000
03F800
01F800
00FC00
007E00
007F00
003F80
201F80
200F80
200F80
700F80
700F00
780F00
7C3E00
83F000
ENDCHAR
STARTCHAR 0054
ENCODING 84
SWIDTH 600 0
DWIDTH 20 0
BBX 20 22 3 0
BITMAP
3FFFF0
3CF8E0
30F860
60F860
41F020
81F040
01F000
01E000
03E000
03E000
03E000
07C000
07C000
07C000
078000
0F8000
0F8000
0F8000
1F0000
1F0000
3F0000
FFE000
ENDCHAR
STARTCHAR 0055
ENCODING 85
SWIDTH 720 0
DWIDTH 24 0
BBX 24 22 3 0
BITMAP
7FF0FF
1FC03C
0F8018
0F8010
1F0010
1F0030
1F0020
1E0020
3E0060
3E0040
3C0040
7C00C0
7C0080
780080
F80080
F80100
F80100
F80300
F80600
7E0C00
3FF800
0FE000
ENDCHAR
STARTCHAR 0056
ENCODING 86
SWIDTH 660 0
DWIDTH 22 0
BBX 22 22 4 0
BITMAP
FF81FC
7F0070
3E0060
3E0040
3E0080
3E0100
3E0200
3E0600
3C0C00
3C0800
3C1000
3C2000
3C4000
7C8000
7D0000
7D0000
7E0000
7C0000
780000
700000
600000
400000
ENDCHAR
STARTCHAR 0057
ENCODING 87
SWIDTH 870 0
DWIDTH 29 0
BBX 29 22 4 0
BITMAP
FF9FF1F8
7E0FC0F0
3E0F8060
3C0F8040
3C0F8080
3C0F8180
3C0F8300
3C1F8600
7C3F8400
7C2F8C00
7C4F9800
7C8F1000
7D8F2000
7D0F4000
7E0FC000
7C1F8000
7C1F0000
781E0000
701E0000
601C0000
C0180000
C0100000
ENDCHAR
STARTCHAR 0058
ENCODING 88
SWIDTH 660 0
DWIDTH 22 0
BBX 27 22 -2 0
BITMAP
07FE0FE0
01F80780
00F80700
00F80600
007C0C00
007C1000
003E2000
003E4000
001F8000
001F0000
001F0000
000F8000
001F8000
0037C000
0067C000
0083C000
0103E000
0203E000
0401F000
1C01F000
3C01F800
FF07FE00
ENDCHAR
STARTCHAR 0059
ENCODING 89
SWIDTH 600 0
DWIDTH 20 0
BBX 21 22 3 0
BITMAP
7FF3F8
3F81E0
1F80C0
0F8080
0F8100
0F8300
0F8200
078400
07CC00
07C800
07D000
03E000
03E000
07C000
07C000
07C000
078000
0F8000
0F8000
0F8000
1F8000
FFE000
ENDCHAR
STARTCHAR 005A
ENCODING 90
SWIDTH 600 0
DWIDTH 20 0
BBX 23 22 -1 0
BITMAP
01FFFE
03C0FE
0300FC
0201F8
0403F0
0007E0
000FC0
001FC0
001F80
003F00
007E00
00FC00
01FC00
01F800
03F000
07E000
0FC020
1FC060
1F80C0
3F01C0
7E0FC0
FFFF80
ENDCHAR
STARTCHAR 005B
ENCODING 91
SWIDTH 330 0
DWIDTH 11 0
BBX 15 29 -1 -7
BITMAP
00FE
00F0
01E0
01E0
01E0
01C0
03C0
03C0
03C0
0780
0780
0780
0700
0F00
0F00
0F00
0E00
1E00
1E00
1C00
3C00
3C00
3C00
3800
7800
7800
7000
F800
FE00
ENDCHAR
STARTCHAR 005C
ENCODING 92
SWIDTH 270 0
DWIDTH 9 0
BBX 4 22 3 0
BITMAP
C0
C0
C0
C0
C0
C0
C0
C0
C0
40
60
60
60
60
60
60
60
60
60
60
30
30
ENDCHAR
STARTCHAR 005D
ENCODING 93
SWIDTH 330 0
DWIDTH 11 0
BBX 15 29 -4 -7
BITMAP
00FE
001E
001E
001C
003C
003C
003C
0078
0078
0078
0078
00F0
00F0
00F0
01E0
01E0
01E0
01E0
03C0
03C0
03C0
0780
0780
0780
0780
0F00
0F00
1F00
FE00
ENDCHAR
STARTCHAR 005E
ENCODING 94
SWIDTH 570 0
DWIDTH 19 0
BBX 14 12 4 10
BITMAP
0300
0700
0780
0F80
1DC0
1DC0
38E0
3060
7070
6030
E038
C01C
ENDCHAR
STARTCHAR 005F
ENCODING 95
SWIDTH 510 0
DWIDTH 17 0
BBX 17 2 -3 -7
BITMAP
FFFF80
FFFF80
ENDCHAR
STARTCHAR 0060
ENCODING 96
SWIDTH 330 0
DWIDTH 11 0
BBX 6 6 4 16
BITMAP
F8
78
38
1C
0C
04
ENDCHAR
STARTCHAR 0061
ENCODING 97
SWIDTH 510 0
DWIDTH 17 0
BBX 15 15 1 0
BITMAP
03DE
065C
1E3C
1C3C
3C3C
7878
7878
F878
F0F0
F0F0
F1F0
F2F4
F3EC
FDF8
70E0
ENDCHAR
STARTCHAR 0062
ENCODING 98
SWIDTH 510 0
DWIDTH 17 0
BBX 15 23 0 0
BITMAP
01C0
0FC0
07C0
0380
0780
0780
0780
0F00
0F3C
0FFE
0F1E
1E1E
1E1E
1E1E
3C1E
3C1E
3C1E
383C
783C
7878
78F0
F1E0
3F80
ENDCHAR
STARTCHAR 0063
ENCODING 99
SWIDTH 450 0
DWIDTH 15 0
BBX 13 15 1 0
BITMAP
01F0
0718
0E38
1C78
3830
7800
7800
F000
F000
F000
F000
F010
F860
7FC0
3E00
ENDCHAR
STARTCHAR 0064
ENCODING 100
SWIDTH 510 0
DWIDTH 17 0
BBX 17 23 1 0
BITMAP
000780
001F80
000F00
000F00
000F00
000E00
001E00
001E00
03DE00
073C00
1E3C00
1C3C00
3C3800
787800
787800
F87800
F0F000
F0F000
F1F000
F2E400
F5EC00
FDF800
70E000
ENDCHAR
STARTCHAR 0065
ENCODING 101
SWIDTH 450 0
DWIDTH 15 0
BBX 14 15 1 0
BITMAP
00F8
0338
0E3C
1C38
3C78
7870
78E0
F3C0
FE00
F000
F000
F010
F860
7FC0
3E00
ENDCHAR
STARTCHAR 0066
ENCODING 102
SWIDTH 330 0
DWIDTH 11 0
BBX 22 30 -5 -7
BITMAP
0000F8
00039C
00079C
000F18
000E00
001E00
001E00
003C00
00FF00
01FF00
007C00
007800
007800
007800
00F800
00F000
00F000
00F000
01F000
01E000
01E000
01E000
03C000
03C000
03C000
038000
E78000
E70000
EE0000
780000
ENDCHAR
STARTCHAR 0067
ENCODING 103
SWIDTH 510 0
DWIDTH 17 0
BBX 19 22 -2 -7
BITMAP
00FC00
03C7E0
0787E0
0F8780
0F0780
0F0F80
0F0F00
0F1F00
071E00
03F800
060000
0C0000
1F8000
1FF800
0FFC00
1FFE00
707E00
E01E00
E00E00
701C00
783800
1FE000
ENDCHAR
STARTCHAR 0068
ENCODING 104
SWIDTH 540 0
DWIDTH 18 0
BBX 15 23 1 0
BITMAP
03C0
1F80
0780
0780
0780
0F00
0F00
0F00
0E1E
1E3E
1E7E
1EDE
3D9E
3D1E
3E3C
3C3C
7C3C
7878
7878
F07A
F07A
F0FC
F070
ENDCHAR
STARTCHAR 0069
ENCODING 105
SWIDTH 270 0
DWIDTH 9 0
BBX 9 23 1 0
BITMAP
0700
0F80
0F80
0700
0000
0000
0000
0000
0E00
7E00
3E00
3C00
3C00
3C00
3C00
7800
7800
7800
F000
F200
F400
F800
F000
ENDCHAR
STARTCHAR 006A
ENCODING 106
SWIDTH 270 0
DWIDTH 9 0
BBX 15 30 -5 -7
BITMAP
001C
003E
003E
001C
0000
0000
0000
0000
003C
01F8
0078
0078
0078
00F0
00F0
00F0
01E0
01E0
01E0
01E0
03C0
03C0
03C0
03C0
0780
0780
E700
EF00
CE00
7800
ENDCHAR
STARTCHAR 006B
ENCODING 107
SWIDTH 510 0
DWIDTH 17 0
BBX 17 23 0 0
BITMAP
01E000
0FC000
03C000
03C000
07C000
078000
078000
078000
0F3F80
0F0E00
0F0C00
1F1000
1E2000
1E6000
1EE000
3DF000
3EF000
3CF000
7CF200
787A00
787C00
787800
F03000
ENDCHAR
STARTCHAR 006C
ENCODING 108
SWIDTH 270 0
DWIDTH 9 0
BBX 10 23 0 0
BITMAP
01C0
0FC0
07C0
0780
0780
0780
0780
0F00
0F00
0F00
1E00
1E00
1E00
1E00
3C00
3C00
3C00
7800
7800
7900
7A00
FC00
7800
ENDCHAR
STARTCHAR 006D
ENCODING 109
SWIDTH 780 0
DWIDTH 26 0
BBX 24 15 0 0
BITMAP
078E0E
3F1F1F
0F3F3F
0F5F5F
1E9E9E
1E9E9E
1F1F1E
1E3E3C
3E3E3C
3C3C3C
3C3C7C
787879
78787A
78787C
F8F878
ENDCHAR
STARTCHAR 006E
ENCODING 110
SWIDTH 540 0
DWIDTH 18 0
BBX 16 15 1 0
BITMAP
0F0E
7E3E
1E7E
1EDE
3F9E
3D1E
3E3C
3C3C
7C3C
787C
7878
F879
F07A
F07C
F078
ENDCHAR
STARTCHAR 006F
ENCODING 111
SWIDTH 510 0
DWIDTH 17 0
BBX 15 15 1 0
BITMAP
01F0
0738
0E1C
1C3C
3C3E
783C
783C
F83C
F07C
F078
F0F0
F0F0
F1E0
7180
3E00
ENDCHAR
STARTCHAR 0070
ENCODING 112
SWIDTH 510 0
DWIDTH 17 0
BBX 20 22 -4 -7
BITMAP
0073C0
03F7E0
01F9E0
01E1F0
01E1F0
01E1F0
01C1E0
03C1E0
03C1E0
0383C0
0783C0
078780
078700
0F8E00
0F7800
0F0000
0E0000
1E0000
1E0000
1E0000
3E0000
FF8000
ENDCHAR
STARTCHAR 0071
ENCODING 113
SWIDTH 510 0
DWIDTH 17 0
BBX 15 22 1 -7
BITMAP
03DE
065E
1E3C
1C3C
3C3C
7838
7878
F878
F0F8
F0F0
F1F0
F2F0
F3E0
FDE0
71E0
01C0
03C0
03C0
03C0
0780
07C0
1FE0
ENDCHAR
STARTCHAR 0072
ENCODING 114
SWIDTH 390 0
DWIDTH 13 0
BBX 12 15 1 0
BITMAP
1E70
7CF0
3CF0
3DF0
3D60
3A00
3A00
7C00
7C00
7800
7800
F000
F000
F000
F000
ENDCHAR
STARTCHAR 0073
ENCODING 115
SWIDTH 390 0
DWIDTH 13 0
BBX 12 15 0 0
BITMAP
07D0
1C70
1C30
3C10
3E10
1F00
1F80
0FC0
07C0
03E0
81E0
41C0
C1C0
F180
9F00
ENDCHAR
STARTCHAR 0074
ENCODING 116
SWIDTH 270 0
DWIDTH 9 0
BBX 9 19 1 0
BITMAP
0100
0300
0700
0E00
3F80
7F80
3E00
3C00
3C00
3C00
7800
7800
7800
F800
F000
F200
F400
F800
F000
ENDCHAR
STARTCHAR 0075
ENCODING 117
SWIDTH 540 0
DWIDTH 18 0
BBX 16 15 1 0
BITMAP
0F0F
7E0F
1E1E
1E1E
3C1E
3C3E
3C3C
3C7C
78FC
78F8
7978
F27A
FCFA
F8FC
7070
ENDCHAR
STARTCHAR 0076
ENCODING 118
SWIDTH 450 0
DWIDTH 15 0
BBX 14 15 1 0
BITMAP
3838
FC38
3C3C
3C38
3C18
3E18
1E10
1E20
1E60
1E40
1E80
1F00
1E00
1800
1000
ENDCHAR
STARTCHAR 0077
ENCODING 119
SWIDTH 660 0
DWIDTH 22 0
BBX 21 15 1 0
BITMAP
1C0830
FC1878
3C1878
3C3C78
3C7C30
3C7C30
3CBC20
3D3C20
3E3C40
3E3C80
3C3D00
383E00
383C00
301800
201000
ENDCHAR
STARTCHAR 0078
ENCODING 120
SWIDTH 510 0
DWIDTH 17 0
BBX 18 15 -1 0
BITMAP
070380
3F87C0
078FC0
07D980
03D000
03E000
01E000
01E000
01E000
01F000
02F000
E4F100
F87900
F07E00
E03800
ENDCHAR
STARTCHAR 0079
ENCODING 121
SWIDTH 450 0
DWIDTH 15 0
BBX 18 22 -3 -7
BITMAP
038380
0FC780
03C7C0
03C380
03C180
03C180
03C100
03C300
01C200
01E400
01E400
01E800
01F000
01F000
01E000
01C000
018000
010000
610000
F20000
FC0000
700000
ENDCHAR
STARTCHAR 007A
ENCODING 122
SWIDTH 390 0
DWIDTH 13 0
BBX 13 18 0 -3
BITMAP
1FF8
1FF0
3FE0
3FC0
2080
0080
0100
0200
0400
0800
1000
1800
3C60
7CF0
FCF0
1EF0
0EE0
03C0
ENDCHAR
STARTCHAR 007B
ENCODING 123
SWIDTH 330 0
DWIDTH 11 0
BBX 14 30 1 -7
BITMAP
001C
0070
00E0
01C0
03C0
03C0
0380
0380
0380
0780
0780
0700
0E00
1800
6000
3000
1800
1C00
1C00
1C00
3C00
3C00
7800
7800
7000
F000
F000
7000
7800
1C00
ENDCHAR
STARTCHAR 007C
ENCODING 124
SWIDTH 210 0
DWIDTH 7 0
BBX 2 30 3 -7
BITMAP
C0
C0
C0
C0
C0
C0
C0
C0
C0
C0
C0
C0
C0
C0
C0
C0
C0
C0
C0
C0
C0
C0
C0
C0
C0
C0
C0
C0
C0
C0
ENDCHAR
STARTCHAR 007D
ENCODING 125
SWIDTH 330 0
DWIDTH 11 0
BBX 14 30 -3 -7
BITMAP
00E0
0078
0038
0038
003C
0038
0078
0078
00F0
00F0
00E0
00E0
00E0
00E0
0030
0008
0070
01C0
0380
0780
0780
0700
0700
0F00
0F00
0F00
0E00
1C00
3800
E000
ENDCHAR
STARTCHAR 007E
ENCODING 126
SWIDTH 570 0
DWIDTH 19 0
BBX 17 4 1 7
BITMAP
3E0080
FFE180
C3FF00
803E00
ENDCHAR
STARTCHAR 00A0
ENCODING 160
SWIDTH 240 0
DWIDTH 8 0
BBX 0 0 0 0
BITMAP
ENDCHAR
STARTCHAR 00A1
ENCODING 161
SWIDTH 390 0
DWIDTH 13 0
BBX 9 22 1 -7
BITMAP
0700
0F80
0F80
0780
0000
0400
0400
0800
0800
0800
1800
1800
3800
3800
7800
7800
7000
F000
F000
F000
F000
E000
ENDCHAR
STARTCHAR 00A2
ENCODING 162
SWIDTH 510 0
DWIDTH 17 0
BBX 13 27 2 -6
BITMAP
0020
0020
0060
0040
0040
00C0
01F0
0798
1EB8
1D78
3930
7900
7200
F200
F200
F600
F400
F410
FC60
7FC0
3F00
0800
1000
1000
1000
3000
2000
ENDCHAR
STARTCHAR 00A3
ENCODING 163
SWIDTH 510 0
DWIDTH 17 0
BBX 16 22 1 0
BITMAP
003E
00E7
01E7
01C7
03C0
03C0
07C0
07C0
0780
0780
3FF0
3FF0
0F00
0F00
0E00
0E00
3E00
7F00
FFC4
9FF8
9FF8
71E0
ENDCHAR
STARTCHAR 00A4
ENCODING 164
SWIDTH 510 0
DWIDTH 17 0
BBX 16 16 1 3
BITMAP
4002
E7E7
7FFE
3C3C
301C
600E
6006
6006
6006
6006
600E
301C
3C3C
7FFE
E7E7
4002
ENDCHAR
STARTCHAR 00A5
ENCODING 165
SWIDTH 510 0
DWIDTH 17 0
BBX 20 22 0 0
BITMAP
1FF1F0
07C0E0
07C0C0
07C080
03C180
03C300
03C200
03C600
03E400
01E800
01F800
7FFFC0
01E000
01E000
03E000
FFFF80
03C000
07C000
078000
078000
0FC000
7FF000
ENDCHAR
STARTCHAR 00A6
ENCODING 166
SWIDTH 210 0
DWIDTH 7 0
BBX 2 30 3 -7
BITMAP
C0
C0
C0
C0
C0
C0
C0
C0
C0
C0
C0
C0
00
00
00
00
00
00
C0
C0
C0
C0
C0
C0
C0
C0
C0
C0
C0
C0
ENDCHAR
STARTCHAR 00A7
ENCODING 167
SWIDTH 510 0
DWIDTH 17 0
BBX 17 30 0 -7
BITMAP
007C00
01C700
038380
030380
070380
070380
078380
07C000
03E000
07F000
0DF800
18FC00
187E00
383E00
381E00
380E00
3C0E00
3E0600
1F0C00
1F8C00
0FD800
07F000
01E000
E0F000
E0F000
E07000
E07000
E0E000
71C000
1F0000
ENDCHAR
STARTCHAR 00A8
ENCODING 168
SWIDTH 660 0
DWIDTH 22 0
BBX 23 22 -1 0
BITMAP
03FFFE
00F81E
00F806
00F804
00F804
01F000
01F020
01F020
01E040
03E1C0
03FFC0
03E180
07C080
07C080
07C080
078000
0F8008
0F8010
0F8030
1F00E0
3F03E0
FFFFE0
ENDCHAR
STARTCHAR 00A9
ENCODING 169
SWIDTH 750 0
DWIDTH 25 0
BBX 23 23 2 0
BITMAP
00FC00
030380
0C00C0
180020
307C90
61C398
438188
C7808C
C70004
8F0004
8F0006
8F0006
8F0006
8F0004
C70004
C7000C
43810C
61C318
30FC10
180020
0C00C0
030380
00FC00
ENDCHAR
STARTCHAR 00AA
ENCODING 170
SWIDTH 270 0
DWIDTH 9 0
BBX 10 9 2 13
BITMAP
0FC0
19C0
3180
7380
6380
E700
E740
FF80
6700
ENDCHAR
STARTCHAR 00AB
ENCODING 171
SWIDTH 510 0
DWIDTH 17 0
BBX 15 15 1 0
BITMAP
0102
0304
060C
0E18
1C38
3870
78F0
F1E0
70E0
78E0
3870
3870
1830
0830
0810
ENDCHAR
STARTCHAR 00AC
ENCODING 172
SWIDTH 600 0
DWIDTH 20 0
BBX 18 7 1 8
BITMAP
FFFFC0
FFFFC0
0000C0
0000C0
0000C0
0000C0
0000C0
ENDCHAR
STARTCHAR 00AD
ENCODING 173
SWIDTH 330 0
DWIDTH 11 0
BBX 10 3 0 6
BITMAP
7FC0
7FC0
FFC0
ENDCHAR
STARTCHAR 00AE
ENCODING 174
SWIDTH 750 0
DWIDTH 25 0
BBX 23 23 2 0
BITMAP
00FC00
030380
0C00C0
180020
300010
67FE18
43CF08
C3C70C
C1C784
81C784
81CF06
81FE06
81DC06
81DE04
C3CE04
C3CF0C
43C70C
67F7D8
300010
180020
0C00C0
030380
00FC00
ENDCHAR
STARTCHAR 00AF
ENCODING 175
SWIDTH 510 0
DWIDTH 17 0
BBX 17 2 4 24
BITMAP
FFFF80
FFFF80
ENDCHAR
STARTCHAR 00B0
ENCODING 176
SWIDTH 390 0
DWIDTH 13 0
BBX 11 11 3 11
BITMAP
1F00
3F80
71C0
E0E0
C060
C060
C060
E0E0
71C0
3F80
1F00
ENDCHAR
STARTCHAR 00B1
ENCODING 177
SWIDTH 540 0
DWIDTH 18 0
BBX 18 18 0 2
BITMAP
00C000
00C000
00C000
00C000
00C000
00C000
00C000
00C000
FFFFC0
FFFFC0
00C000
00C000
00C000
00C000
00C000
00C000
FFFFC0
FFFFC0
ENDCHAR
STARTCHAR 00B2
ENCODING 178
SWIDTH 300 0
DWIDTH 10 0
BBX 9 12 2 11
BITMAP
0F00
1F80
2380
0380
0380
0300
0600
0C00
1800
3100
7F00
FE00
ENDCHAR
STARTCHAR 00B3
ENCODING 179
SWIDTH 300 0
DWIDTH 10 0
BBX 9 12 2 11
BITMAP
0F00
1380
0380
0380
0700
3E00
0F00
0700
0700
0600
C600
F800
ENDCHAR
STARTCHAR 00B4
ENCODING 180
SWIDTH 330 0
DWIDTH 11 0
BBX 6 6 7 16
BITMAP
7C
78
70
E0
C0
80
ENDCHAR
STARTCHAR 00B5
ENCODING 181
SWIDTH 570 0
DWIDTH 19 0
BBX 19 22 -2 -7
BITMAP
01E1E0
01E1E0
03C1E0
03C3E0
03C3C0
07C3C0
0783C0
0787C0
078780
0F8780
0F0F80
0F0F00
0F1F20
1F2F20
17C7C0
300000
300000
700000
700000
F00000
E00000
E00000
ENDCHAR
STARTCHAR 00B6
ENCODING 182
SWIDTH 510 0
DWIDTH 17 0
BBX 18 29 -1 -7
BITMAP
07FFC0
1FE300
3FE200
7FE200
7FE200
7FE200
FFE200
FFE200
FFE200
7FE200
7FE200
7FE200
3FE200
1FE200
03E200
006200
006200
006200
006200
006200
006200
006200
006200
006200
006200
006200
006200
006200
006200
ENDCHAR
STARTCHAR 00B7
ENCODING 183
SWIDTH 240 0
DWIDTH 8 0
BBX 5 4 3 8
BITMAP
F0
F8
F8
F0
ENDCHAR
STARTCHAR 00B8
ENCODING 184
SWIDTH 450 0
DWIDTH 15 0
BBX 14 15 1 0
BITMAP
00F8
0338
0E3C
1C38
3C78
7870
78E0
F3C0
FE00
F000
F000
F010
F860
7FC0
3E00
ENDCHAR
STARTCHAR 00B9
ENCODING 185
SWIDTH 300 0
DWIDTH 10 0
BBX 8 12 2 11
BITMAP
03
1F
07
06
0E
0E
0C
1C
1C
18
38
FE
ENDCHAR
STARTCHAR 00BA
ENCODING 186
SWIDTH 300 0
DWIDTH 10 0
BBX 9 9 3 13
BITMAP
0F00
3980
7180
6180
E380
E380
C700
EE00
7800
ENDCHAR
STARTCHAR 00BB
ENCODING 187
SWIDTH 510 0
DWIDTH 17 0
BBX 15 15 0 0
BITMAP
1820
0830
0C10
0C18
0E1C
0E1C
0F1E
0F1E
0E1C
1C38
1870
3860
30C0
6080
C180
ENDCHAR
STARTCHAR 00BC
ENCODING 188
SWIDTH 750 0
DWIDTH 25 0
BBX 21 23 2 -1
BITMAP
030070
1F0060
0700C0
0601C0
0E0180
0E0300
0C0700
1C0600
1C0C00
181C00
381800
FE3018
007038
006070
00C0F0
01C170
018260
030C60
070FF0
061FF0
0C00C0
1801C0
180180
ENDCHAR
STARTCHAR 00BD
ENCODING 189
SWIDTH 750 0
DWIDTH 25 0
BBX 21 23 2 -1
BITMAP
030060
1F00C0
0701C0
060180
0E0300
0E0700
0C0600
1C0C00
1C1800
181800
383000
FE60E0
0063F0
00C238
018038
018030
030070
060060
0600C0
0C0100
180210
180FE0
301FE0
ENDCHAR
STARTCHAR 00BE
ENCODING 190
SWIDTH 750 0
DWIDTH 25 0
BBX 21 24 2 -1
BITMAP
0F0070
138060
0380C0
0380C0
070180
3E0300
0F0300
070600
070C00
060C00
C61800
F83800
003018
006038
00E070
00C0F0
018170
038260
030C60
060FF0
061FF0
0C00C0
1801C0
180180
ENDCHAR
STARTCHAR 00BF
ENCODING 191
SWIDTH 510 0
DWIDTH 17 0
BBX 13 23 0 -7
BITMAP
0070
00F8
00F8
0070
0000
0040
0040
0040
00C0
0180
0380
0F00
1E00
3C00
7C00
7800
F8C0
F1E0
F1E0
F1E0
70E0
39C0
1F80
ENDCHAR
STARTCHAR 00C0
ENCODING 192
SWIDTH 660 0
DWIDTH 22 0
BBX 22 23 -2 0
BITMAP
000008
000018
000038
000078
0000F0
0001F0
0001F0
0002F0
0006F0
000CF0
0018F0
0010F0
0031F0
0061F0
00C1F0
01FFF0
0101F0
0201F0
0601F0
0C01F0
1801F0
3803F8
FE0FFC
ENDCHAR
STARTCHAR 00C1
ENCODING 193
SWIDTH 630 0
DWIDTH 21 0
BBX 23 22 -1 0
BITMAP
03FFFE
00F83C
00F80C
00F80C
01F008
01F008
01F000
01F000
03E000
03E000
03FF00
03C7C0
07C3E0
07C1F0
07C1F0
0F81F0
0F81F0
0F83F0
0F03E0
1F07C0
3F0F80
FFFE00
ENDCHAR
STARTCHAR 00C2
ENCODING 194
SWIDTH 660 0
DWIDTH 22 0
BBX 22 22 -1 0
BITMAP
03FFE0
00F8F8
00F87C
00F87C
00F87C
00F07C
01F07C
01F0F8
01E1F0
01E3C0
03FE00
03E3C0
03C1E0
07C1F0
07C1F0
0781F8
0781F0
0F81F0
0F83F0
0F03E0
1F0FC0
FFFE00
ENDCHAR
STARTCHAR 00C3
ENCODING 195
SWIDTH 600 0
DWIDTH 20 0
BBX 23 22 -1 0
BITMAP
03FFFE
00F81E
00F806
00F804
00F004
01F000
01F000
01F000
03E000
03E000
03E000
03C000
07C000
07C000
07C000
0F8000
0F8000
0F8000
1F0000
1F0000
3F8000
FFE000
ENDCHAR
STARTCHAR 00C4
ENCODING 196
SWIDTH 690 0
DWIDTH 23 0
BBX 29 28 -4 -6
BITMAP
001FFFF8
000607E0
000607C0
00060F80
00040F80
00040F80
000C0F80
00081F00
00081F00
00181F00
00103E00
00103E00
00203E00
00203E00
00607C00
00C07C00
00807C00
0180F800
0300F800
0700F800
0E01F800
3FFFFE00
3C001E00
70000E00
60000400
40000400
40000400
80000800
ENDCHAR
STARTCHAR 00C5
ENCODING 197
SWIDTH 660 0
DWIDTH 22 0
BBX 23 22 -1 0
BITMAP
03FFFE
00F81E
00F806
00F804
00F804
01F000
01F020
01F020
01E040
03E1C0
03FFC0
03E180
07C080
07C080
07C080
078000
0F8008
0F8010
0F8030
1F00E0
3F03E0
FFFFE0
ENDCHAR
STARTCHAR 00C6
ENCODING 198
SWIDTH 900 0
DWIDTH 30 0
BBX 34 23 -2 0
BITMAP
00F0000380
01F8FFCFC0
01F83F0FC0
01E83E1BC0
00C83E1180
00087C3000
00087C2000
00087C2000
0008786000
0008F8C000
000CF98000
001FFF0000
003DF78000
00FDF7C000
01F9F3C000
01F1E3C000
03E3E3E000
07E3E3E000
0FC3E1E000
1F87C1E000
1F87C1F000
7F0FC1F000
FE3FF0FC00
ENDCHAR
STARTCHAR 00C7
ENCODING 199
SWIDTH 510 0
DWIDTH 17 0
BBX 18 23 -1 0
BITMAP
013E00
03FF80
038F80
0207C0
0207C0
040780
000780
000F00
001E00
007800
03F000
007C00
003E00
001F00
001F00
001F00
001F00
001F00
803E00
403E00
30FC00
1FF000
07C000
ENDCHAR
STARTCHAR 00C8
ENCODING 200
SWIDTH 780 0
DWIDTH 26 0
BBX 29 22 -1 0
BITMAP
03FF3FF8
00FC0FE0
00F807C0
00F807C0
00F80F80
01F01F80
01F03F80
01F06F00
03E0DF00
03E19F00
03E31E00
03C63E00
07CC3E00
07D83E00
07F07C00
0FE07C00
0FC07C00
0F807800
1F00F800
1F00F800
3F81F800
FFE7FE00
ENDCHAR
STARTCHAR 00C9
ENCODING 201
SWIDTH 780 0
DWIDTH 26 0
BBX 29 29 -1 0
BITMAP
00030180
00030380
00038780
00018700
0000FC00
00000000
00000000
03FF3FF8
00FC0FE0
00F807C0
00F807C0
00F80F80
01F01F80
01F03F80
01F06F00
03E0DF00
03E19F00
03E31E00
03C63E00
07CC3E00
07D83E00
07F07C00
0FE07C00
0FC07C00
0F807800
1F00F800
1F00F800
3F81F800
FFE7FE00
ENDCHAR
STARTCHAR 00CA
ENCODING 202
SWIDTH 660 0
DWIDTH 22 0
BBX 25 23 -1 0
BITMAP
00000700
03FF1F80
00FC1F80
00F82780
00F82380
00F04000
01F04000
01F0C000
01F18000
03E10000
03E60000
03FE0000
03DF0000
07CF8000
07CF8000
078F8000
0F87C000
0F87C000
0F07C000
1F03C000
1F03E000
3F03F000
FFC3F800
ENDCHAR
STARTCHAR 00CB
ENCODING 203
SWIDTH 690 0
DWIDTH 23 0
BBX 27 22 -2 0
BITMAP
007FFFE0
00181F80
00181F00
00181E00
00103E00
00103E00
00103E00
00207C00
00207C00
00207C00
00407800
0040F800
0040F800
00C0F800
0081F000
0081F000
0101F000
0103E000
6103E000
F203E000
FC07F000
781FF800
ENDCHAR
STARTCHAR 00CC
ENCODING 204
SWIDTH 870 0
DWIDTH 29 0
BBX 33 22 -1 0
BITMAP
03FC007F80
00FC007E00
00FC00FC00
00FC01F800
00FC01F800
00FC02F800
013C06F800
013C05F000
013C09F000
033C19F000
023E13E000
023E23E000
063E63E000
043E43C000
043E87C000
041F07C000
0C1F07C000
081E0F8000
081C0F8000
181C0F8000
38181F8000
FE10FFE000
ENDCHAR
STARTCHAR 00CD
ENCODING 205
SWIDTH 780 0
DWIDTH 26 0
BBX 29 22 -1 0
BITMAP
03FF3FF8
00FC07E0
00F807C0
00F807C0
00F80F80
01F00F80
01F00F80
01F00F00
01E01F00
03E01F00
03FFFF00
03C03E00
07C03E00
07C03E00
07807C00
0F807C00
0F807C00
0F807800
0F00F800
1F00F800
3F81F800
FFE7FE00
ENDCHAR
STARTCHAR 00CE
ENCODING 206
SWIDTH 720 0
DWIDTH 24 0
BBX 22 23 2 0
BITMAP
001F80
0061E0
01C0F0
0380F8
0F80F8
0F0078
1F00FC
3E00FC
3E00FC
7C00FC
7C00F8
FC00F8
FC01F8
F801F0
F801F0
F803E0
F803E0
F807C0
F80780
780F00
781E00
3C3800
0FE000
ENDCHAR
STARTCHAR 00CF
ENCODING 207
SWIDTH 780 0
DWIDTH 26 0
BBX 29 22 -1 0
BITMAP
03FFFFF8
00F807E0
00F807C0
00F807C0
01F00F80
01F00F80
01F00F80
01E01F00
03E01F00
03E01F00
03E01E00
07C03E00
07C03E00
07C03E00
07807C00
0F807C00
0F807C00
0F80F800
1F00F800
1F00F800
3F81FC00
FFC7FE00
ENDCHAR
STARTCHAR 00D0
ENCODING 208
SWIDTH 600 0
DWIDTH 20 0
BBX 22 22 -1 0
BITMAP
03FFE0
00F8F8
00F87C
00F87C
00F07C
01F07C
01F07C
01F07C
01E0F8
03E1F0
03E3E0
03FF80
07C000
07C000
07C000
078000
0F8000
0F8000
0F0000
1F0000
1F8000
FFE000
ENDCHAR
STARTCHAR 00D1
ENCODING 209
SWIDTH 660 0
DWIDTH 22 0
BBX 22 22 2 0
BITMAP
001FEC
00F878
01E038
07C018
0F8018
1F0018
3F0010
3E0000
7E0000
7C0000
7C0000
FC0000
FC0000
F80000
F80000
F80000
7C0040
7C0080
3E0100
3F0600
0FFC00
03F000
ENDCHAR
STARTCHAR 00D2
ENCODING 210
SWIDTH 600 0
DWIDTH 20 0
BBX 20 22 3 0
BITMAP
3FFFF0
3CF8E0
30F860
60F860
41F020
81F040
01F000
01E000
03E000
03E000
03E000
07C000
07C000
07C000
078000
0F8000
0F8000
0F8000
1F0000
1F0000
3F0000
FFE000
ENDCHAR
STARTCHAR 00D3
ENCODING 211
SWIDTH 690 0
DWIDTH 23 0
BBX 24 22 3 0
BITMAP
7FE0FF
1F803C
1F8030
0F8020
0F8060
0F8040
07C0C0
07C180
07C100
03E300
03E200
03E400
03E400
01F800
01F800
01F000
00E000
70E000
F0C000
F88000
798000
3E0000
ENDCHAR
STARTCHAR 00D4
ENCODING 212
SWIDTH 840 0
DWIDTH 28 0
BBX 25 22 2 0
BITMAP
001FF800
000FE000
0007C000
007FF800
03CF8E00
0F0F8700
1F0F8780
3E1F0780
3C1F0780
7C1F0780
7C1F0F80
F83E0F80
F83E0F80
F83E1F00
787C1E00
787C3E00
387C7800
1CF8F000
07FF8000
00F80000
01F80000
07FE0000
ENDCHAR
STARTCHAR 00D5
ENCODING 213
SWIDTH 660 0
DWIDTH 22 0
BBX 27 22 -2 0
BITMAP
07FE0FE0
01F80780
00F80700
00F80600
007C0C00
007C1000
003E2000
003E4000
001F8000
001F0000
001F0000
000F8000
001F8000
0037C000
0067C000
0083C000
0103E000
0203E000
0401F000
1C01F000
3C01F800
FF07FE00
ENDCHAR
STARTCHAR 00D6
ENCODING 214
SWIDTH 780 0
DWIDTH 26 0
BBX 29 28 -1 -6
BITMAP
03FF3FF8
00FC0FE0
00F807C0
00F807C0
00F80F80
01F00F80
01F00F80
01F00F00
03E01F00
03E01F00
03E01F00
03C03E00
07C03E00
07C03E00
07C03C00
0F807C00
0F807C00
0F807C00
0F00F800
1F00F800
3F01F800
FFFFFE00
00001E00
00000E00
00000400
00000400
00000400
00000400
ENDCHAR
STARTCHAR 00D7
ENCODING 215
SWIDTH 750 0
DWIDTH 25 0
BBX 23 22 4 0
BITMAP
FFCFFE
3F03F8
3E01F0
3E01F0
3E03E0
7C03E0
7C03E0
7C03C0
F807C0
F807C0
F807C0
7C3F80
7FEF80
1F0F80
000F00
001F00
001F00
001E00
003E00
003E00
007E00
01FF80
ENDCHAR
STARTCHAR 00D8
ENCODING 216
SWIDTH 1110 0
DWIDTH 37 0
BBX 41 22 -1 0
BITMAP
03FF1FF1FF80
00FC0FC0FC00
00F80FC0FC00
00F80F80F800
00F80F80F800
01F00F00F800
01F01F01F000
01F01F01F000
01E01F01F000
03E03E03E000
03E03E03E000
03C03E03E000
07C03C03C000
07C07C07C000
07C07C07C000
0F807C07C000
0F80F80F8000
0F80F80F8000
0F00F80F8000
1F01F00F8000
3F01F01F8000
FFFFFFFFE000
ENDCHAR
STARTCHAR 00D9
ENCODING 217
SWIDTH 1110 0
DWIDTH 37 0
BBX 41 28 -1 -6
BITMAP
03FF1FF1FF80
00FC0FC0FC00
00F80FC0FC00
00F80F80F800
00F80F80F800
01F00F00F800
01F01F01F000
01F01F01F000
01E01F01F000
03E03E03E000
03E03E03E000
03C03E03E000
07C03C03C000
07C07C07C000
07C07C07C000
0F807C07C000
0F80F80F8000
0F80F80F8000
0F00F80F8000
1F01F00F8000
3F01F01F8000
FFFFFFFFE000
00000001C000
00000000C000
00000000C000
00000000C000
000000008000
000000008000
ENDCHAR
STARTCHAR 00DA
ENCODING 218
SWIDTH 750 0
DWIDTH 25 0
BBX 19 22 4 0
BITMAP
7FFE00
78F800
61F000
C1F000
81F000
83E000
03E000
03E000
03C000
07C000
07FE00
078780
0F83C0
0F83E0
0F83E0
0F03E0
1F03E0
1F07E0
1F07C0
3E0FC0
3E1F00
FFFC00
ENDCHAR
STARTCHAR 00DB
ENCODING 219
SWIDTH 960 0
DWIDTH 32 0
BBX 35 22 -1 0
BITMAP
03FF007FE0
00FC001F80
00F8001F00
00F8001F00
00F0001F00
01F0003E00
01F0003E00
01F0003E00
03E0003C00
03E0007C00
03FF007C00
03C7C07C00
07C3E0F800
07C1F0F800
07C1F0F800
0F81F0F000
0F81F1F000
0F83F1F000
0F03E1F000
1F07C3E000
1F0F83F000
FFFE1FFC00
ENDCHAR
STARTCHAR 00DC
ENCODING 220
SWIDTH 630 0
DWIDTH 21 0
BBX 20 22 -1 0
BITMAP
03FF00
00FC00
00F800
00F800
00F000
01F000
01F000
01F000
03E000
03E000
03FF00
03C7C0
07C3E0
07C1F0
0781F0
0F81F0
0F81F0
0F83F0
0F03E0
1F07C0
3F0F80
FFFE00
ENDCHAR
STARTCHAR 00DD
ENCODING 221
SWIDTH 630 0
DWIDTH 21 0
BBX 21 23 0 0
BITMAP
043E00
07FF80
0787E0
0603E0
0C01F0
0801F0
1000F8
0000F8
0000F8
0000F8
0000F8
01FFF8
0001F8
0001F0
0001F0
0003F0
0003E0
0007C0
800FC0
401F80
303E00
1FFC00
07F000
ENDCHAR
STARTCHAR 00DE
ENCODING 222
SWIDTH 1050 0
DWIDTH 35 0
BBX 36 23 -1 0
BITMAP
0000007E00
03FF01C780
00FC0703C0
00F80E03E0
00F81E01E0
00F83C01E0
01F07C01F0
01F07803F0
01F0F803F0
03E0F003F0
03E1F003E0
03E1F003E0
03FFF007E0
07C3E007C0
07C3E007C0
07C3E00F80
0F83E00F80
0F83E01F00
0F83E01E00
1F01E03C00
1F01F07800
3F80F0F000
FFE03F8000
ENDCHAR
STARTCHAR 00DF
ENCODING 223
SWIDTH 690 0
DWIDTH 23 0
BBX 27 22 -2 0
BITMAP
000FFFE0
003E1F80
00FC1F00
00F81F00
01F83E00
01F03E00
01F03E00
01F03C00
01F07C00
00F87C00
007C7800
000FF800
007CF800
00F8F800
01F0F000
03E1F000
07E1F000
0FC1E000
0F83E000
1F03E000
3F07E000
FE0FF800
ENDCHAR
STARTCHAR 00E0
ENCODING 224
SWIDTH 510 0
DWIDTH 17 0
BBX 15 15 1 0
BITMAP
03DE
065C
1E3C
1C3C
3C3C
7878
7878
F878
F0F0
F0F0
F1F0
F2F4
F3EC
FDF8
70E0
ENDCHAR
STARTCHAR 00E1
ENCODING 225
SWIDTH 480 0
DWIDTH 16 0
BBX 16 23 1 0
BITMAP
0001
007F
01FE
03FC
07F8
0E00
0C00
1800
11F0
2738
2E3C
3C3C
7C3C
7C3C
783C
F83C
F87C
F078
F0F0
F0F0
F1E0
7380
3E00
ENDCHAR
STARTCHAR 00E2
ENCODING 226
SWIDTH 450 0
DWIDTH 15 0
BBX 13 15 1 0
BITMAP
01F0
0738
1E38
3C78
3C70
78E0
7980
FFC0
F1E0
F1E0
F1E0
F1E0
F1E0
73C0
3F00
ENDCHAR
STARTCHAR 00E3
ENCODING 227
SWIDTH 360 0
DWIDTH 12 0
BBX 12 15 0 0
BITMAP
03E0
0FF0
10F0
00F0
00F0
00E0
0180
0600
1800
7000
F000
F000
F840
FF80
7E00
ENDCHAR
STARTCHAR 00E4
ENCODING 228
SWIDTH 480 0
DWIDTH 16 0
BBX 15 23 1 0
BITMAP
0100
0180
00E0
0070
0030
0038
0038
003C
01FC
073C
0E1C
1C1E
3C3C
783C
783C
F83C
F078
F078
F0F0
F0E0
F1C0
7380
3E00
ENDCHAR
STARTCHAR 00E5
ENCODING 229
SWIDTH 450 0
DWIDTH 15 0
BBX 14 15 1 0
BITMAP
00F8
0338
0E3C
1C38
3C78
7870
78E0
F3C0
FE00
F000
F000
F010
F860
7FC0
3E00
ENDCHAR
STARTCHAR 00E6
ENCODING 230
SWIDTH 930 0
DWIDTH 31 0
BBX 31 15 0 0
BITMAP
03C0F03C
0FE1E0E6
13E1E1CE
21E1E39E
01E3C38C
01E3C780
01E3C700
01FFFF00
01E78F00
01C78F00
73C78F00
F3878F04
E70F0F88
CE0F07F0
780F03C0
ENDCHAR
STARTCHAR 00E7
ENCODING 231
SWIDTH 390 0
DWIDTH 13 0
BBX 13 15 -1 0
BITMAP
1FE0
1C78
1078
1078
0070
01E0
0780
01E0
01E0
00F0
01F0
01E0
81E0
43C0
3F00
ENDCHAR
STARTCHAR 00E8
ENCODING 232
SWIDTH 540 0
DWIDTH 18 0
BBX 16 15 1 0
BITMAP
0F0F
7E0F
1E1E
1E1E
3C1E
3C3E
3C3C
3C7C
78FC
78F8
7978
F27A
FCFA
F8FC
7070
ENDCHAR
STARTCHAR 00E9
ENCODING 233
SWIDTH 540 0
DWIDTH 18 0
BBX 16 22 1 0
BITMAP
0382
0384
03C4
01F8
0000
0000
0000
0F0F
7E0F
1E1E
1E1E
3C1E
3C3E
3C3C
7C7C
78BC
78F8
7978
F27A
FCFA
F8FC
7070
ENDCHAR
STARTCHAR 00EA
ENCODING 234
SWIDTH 510 0
DWIDTH 17 0
BBX 16 15 1 0
BITMAP
0F06
7E0F
1E1F
1E16
3C20
3C20
3C40
3F80
79C0
79E0
78F0
F0F0
F078
F078
F03C
ENDCHAR
STARTCHAR 00EB
ENCODING 235
SWIDTH 510 0
DWIDTH 17 0
BBX 18 15 -2 0
BITMAP
03FFC0
018780
008780
010780
010F00
010F00
020F00
021F00
021E00
021E00
041E00
643C80
F83D00
F83E00
701C00
ENDCHAR
STARTCHAR 00EC
ENCODING 236
SWIDTH 690 0
DWIDTH 23 0
BBX 23 15 -2 0
BITMAP
00781E
03F83E
01F83E
00F87C
0178BC
0178BC
017978
027A78
027A78
027C78
0478F0
6478F2
F830F4
F820F8
7020F0
ENDCHAR
STARTCHAR 00ED
ENCODING 237
SWIDTH 540 0
DWIDTH 18 0
BBX 16 15 1 0
BITMAP
0F0F
7E0F
1E1E
1E1E
3C1E
3C3E
3FFC
383C
783C
7878
7878
F079
F07A
F07C
F078
ENDCHAR
STARTCHAR 00EE
ENCODING 238
SWIDTH 510 0
DWIDTH 17 0
BBX 15 15 1 0
BITMAP
01F0
0738
0E1C
1C3C
3C3E
783C
783C
F83C
F07C
F078
F0F0
F0F0
F1E0
7180
3E00
ENDCHAR
STARTCHAR 00EF
ENCODING 239
SWIDTH 540 0
DWIDTH 18 0
BBX 16 15 1 0
BITMAP
0F0E
7E3E
1E7E
1EDE
3F9E
3D1E
3E3C
3C3C
7C3C
787C
7878
F879
F07A
F07C
F078
ENDCHAR
STARTCHAR 00F0
ENCODING 240
SWIDTH 510 0
DWIDTH 17 0
BBX 20 22 -4 -7
BITMAP
0073C0
03F7E0
01F9E0
01E1F0
01E1F0
01E1F0
01C1E0
03C1E0
03C1E0
0383C0
0783C0
078780
078700
0F8E00
0F7800
0F0000
0E0000
1E0000
1E0000
1E0000
3E0000
FF8000
ENDCHAR
STARTCHAR 00F1
ENCODING 241
SWIDTH 450 0
DWIDTH 15 0
BBX 13 15 1 0
BITMAP
01F0
0718
0E38
1C78
3830
7800
7800
F000
F000
F000
F000
F010
F860
7FC0
3E00
ENDCHAR
STARTCHAR 00F2
ENCODING 242
SWIDTH 780 0
DWIDTH 26 0
BBX 24 15 0 0
BITMAP
078E0E
3F1F1F
0F3F3F
0F5F5F
1E9E9E
1E9E9E
1F1F1E
1E3E3C
3E3E3C
3C3C3C
3C3C7C
787879
78787A
78787C
F8F878
ENDCHAR
STARTCHAR 00F3
ENCODING 243
SWIDTH 450 0
DWIDTH 15 0
BBX 18 22 -3 -7
BITMAP
038380
0FC780
03C7C0
03C380
03C180
03C180
03C100
03C300
01C200
01E400
01E400
01E800
01F000
01F000
01E000
01C000
018000
010000
610000
F20000
FC0000
700000
ENDCHAR
STARTCHAR 00F4
ENCODING 244
SWIDTH 720 0
DWIDTH 24 0
BBX 22 30 1 -7
BITMAP
000780
001F80
000F00
000F00
000F00
001E00
001E00
001E00
03DEE0
0E3F38
1E3E38
3C3C38
3C7C3C
787878
787878
F87878
F0F0F8
F0F0F0
F0F0F0
F1F1E0
F1F1C0
73F380
3DEF00
03C000
03C000
03C000
07C000
078000
0FC000
1FE000
ENDCHAR
STARTCHAR 00F5
ENCODING 245
SWIDTH 510 0
DWIDTH 17 0
BBX 18 15 -1 0
BITMAP
070380
3F87C0
078FC0
07D980
03D000
03E000
01E000
01E000
01E000
01F000
02F000
E4F100
F87900
F07E00
E03800
ENDCHAR
STARTCHAR 00F6
ENCODING 246
SWIDTH 540 0
DWIDTH 18 0
BBX 16 21 1 -6
BITMAP
0F0F
7E0F
1E1E
1E1E
3C1E
3C1E
3C3C
3C7C
787C
78F8
7978
F27A
FEFA
FCFC
7074
000C
000C
000C
000C
000C
0008
ENDCHAR
STARTCHAR 00F7
ENCODING 247
SWIDTH 510 0
DWIDTH 17 0
BBX 14 15 2 0
BITMAP
3C3C
FC3C
7878
7878
7878
F0F8
F0F0
F0F0
FFF0
79E0
01E0
01E4
01E8
01F0
01E0
ENDCHAR
STARTCHAR 00F8
ENCODING 248
SWIDTH 810 0
DWIDTH 27 0
BBX 25 15 1 0
BITMAP
0F0F0780
7E0F0780
1E0F0F80
1E1E0F00
3C1E0F00
3C1E0F00
3C3E1E00
3C7C3E00
787C7E00
78BC5E00
797CBC00
FA793C80
FC7E3D00
F87C3E00
70383C00
ENDCHAR
STARTCHAR 00F9
ENCODING 249
SWIDTH 810 0
DWIDTH 27 0
BBX 25 21 1 -6
BITMAP
0F0F0780
7E0F0780
1E0F0F80
1E1E0F00
3C1E0F00
3C1E0F00
3C3E1E00
3C7C3E00
787C7E00
78BC5E00
797CBC00
FA793C80
FC7E3D00
F87C3E00
70383E00
00000600
00000600
00000700
00000600
00000600
00000400
ENDCHAR
STARTCHAR 00FA
ENCODING 250
SWIDTH 510 0
DWIDTH 17 0
BBX 15 15 1 0
BITMAP
7FC0
7F80
C780
8780
0780
0F38
0F7C
0F9E
1F1E
1E3E
1E3C
1E3C
1C78
1C70
0FC0
ENDCHAR
STARTCHAR 00FB
ENCODING 251
SWIDTH 690 0
DWIDTH 23 0
BBX 21 15 1 0
BITMAP
0F0078
7E03F0
1E00F0
1E00F0
3C01E0
3DE1E0
3FF1E0
7CF1E0
7CF3C0
78F3C0
78F3C0
F1F790
71E790
73C7E0
3F0380
ENDCHAR
STARTCHAR 00FC
ENCODING 252
SWIDTH 450 0
DWIDTH 15 0
BBX 12 15 1 0
BITMAP
0F00
7E00
1E00
1E00
3C00
3DE0
3FF0
7CF0
7CF0
78F0
78F0
F1F0
71E0
73C0
3F00
ENDCHAR
STARTCHAR 00FD
ENCODING 253
SWIDTH 420 0
DWIDTH 14 0
BBX 12 15 0 0
BITMAP
1FC0
38E0
30F0
20F0
20F0
00F0
00F0
0FF0
01F0
01E0
01E0
03C0
8380
8F00
7E00
ENDCHAR
STARTCHAR 00FE
ENCODING 254
SWIDTH 720 0
DWIDTH 24 0
BBX 22 15 1 0
BITMAP
0F01F0
7E0638
1E1C3C
1E3C3C
3C383C
3C783C
3CF87C
3FF07C
78F078
79F078
79F0F0
F1E0E0
F0E1C0
F0F380
F03E00
ENDCHAR
STARTCHAR 00FF
ENCODING 255
SWIDTH 510 0
DWIDTH 17 0
BBX 18 15 -2 0
BITMAP
00FFC0
03E780
07C780
078780
078700
078F00
078F00
01FF00
03DE00
079E00
0F9E00
0F1E80
1E3D00
3C3F00
FC1C00
ENDCHAR
ENDFONT