%
M48
M72
T01C0.02362
T02C0.02756
T03C0.02953
T04C0.03200
T05C0.03346
T06C0.03543
T07C0.03937
T08C0.04000
T09C0.04134
T10C0.04331
T11C0.05200
T12C0.11800
%
T01
X29398Y10814
X34098Y10814
X29498Y15614
X44298Y29314
X38398Y31014
X51198Y23414
X58798Y30614
X51698Y42114
X51798Y52614
X59698Y59614
X74298Y60814
X72898Y48414
X69898Y42614
X88498Y39914
X96698Y54014
X107098Y39014
X110698Y29814
X109798Y17914
X130398Y13814
X138198Y13714
X131698Y20814
X131198Y30814
X127298Y36914
X131598Y40814
X126798Y44614
X127798Y55414
X118298Y56314
X141398Y55514
X141398Y68714
X164298Y60214
X169598Y59814
X171998Y65314
X177798Y69014
X176498Y60114
X189798Y61014
X201898Y58414
X207798Y51314
X192498Y36214
X175198Y40814
X169398Y45814
X161498Y46814
X161598Y35614
X152398Y29314
X152398Y24014
X198698Y71514
X202998Y75214
X198698Y85514
X190198Y81014
X202998Y94414
X205798Y99614
X189798Y98014
X173398Y91914
X159698Y98714
X149398Y133314
X156998Y140814
X163998Y140014
X167898Y145014
X172398Y154014
X166498Y162414
X158798Y153114
X156198Y177614
X161698Y179914
X166898Y178314
X176198Y178514
X178198Y192514
X166898Y195814
X162898Y191814
X154898Y187714
X141198Y202614
X154898Y212714
X142598Y217614
X159498Y229314
X171898Y228314
X180498Y232914
X203998Y226914
X209198Y217614
X210298Y210314
X209398Y203314
X202398Y202014
X207098Y196414
X202498Y187714
X194198Y187714
X212398Y176614
X212598Y170214
X208798Y164914
X226898Y168314
X229098Y158814
X226398Y153714
X225698Y148314
X225398Y139914
X225698Y133014
X218898Y121514
X236998Y99614
X234698Y95114
X233298Y89614
X227998Y90314
X242398Y83914
X236798Y65314
X265698Y84214
X265398Y108714
X286198Y126414
X269198Y141314
X274298Y145714
X278898Y150414
X279698Y155814
X253698Y141614
X252298Y133714
X251298Y169514
X255498Y175514
X247398Y178714
X249398Y190814
X244398Y205814
X236298Y222714
X240298Y227714
X227798Y222714
X225898Y227614
X235398Y241814
X255098Y258414
X233898Y277314
X211398Y237114
X288598Y228814
X288598Y224414
X288598Y220114
X303698Y233614
X303698Y237814
X307598Y266714
X311698Y266714
X315798Y266714
X190098Y157614
X188598Y140014
X188498Y135014
X123198Y161714
X106398Y180514
X120498Y188814
X101498Y196514
X104298Y208114
X97398Y208214
X85198Y215014
X83598Y201814
X84798Y189614
X79798Y186114
X84698Y183014
X74898Y186114
X74598Y179014
X65598Y179014
X60798Y179814
X61298Y173814
X66098Y173814
X48298Y177814
X48198Y169214
X30798Y183414
X32198Y191614
X48898Y192714
X48998Y197314
X53598Y208614
X28498Y165314
X41298Y150114
X48498Y141314
X53998Y132714
X70098Y123514
X81398Y127614
X89298Y139514
X100798Y134414
X100798Y145314
X100798Y162114
X78698Y158614
X79498Y153414
X78198Y141714
X71198Y109614
X68898Y100914
X61898Y90814
X67198Y88114
X56198Y94414
X47798Y99314
X29798Y98314
X29998Y103714
X30998Y123514
X84798Y104314
X86898Y108614
X94198Y107014
X93898Y101214
X102298Y99914
X102298Y104114
X100798Y108814
X118698Y104514
X99398Y83314
X91898Y83314
X85998Y79214
X78998Y79214
X66198Y76114
X29398Y48314
X75098Y23614
X226498Y36914
X250398Y38414
X269698Y42214
X271898Y35814
X271898Y17414
X299398Y38314
X298998Y61914
X304398Y68314
X303598Y74014
X292898Y73814
X292498Y106914
X303998Y106814
X314498Y116814
X119498Y209314
X104698Y222314
X110898Y241414
X116298Y243314
X113798Y249114
X119398Y273314
X66398Y275314
X66198Y280414
X52398Y285814
X42398Y262814
T02
X75898Y241314
X92998Y228714
X104398Y234014
X122598Y234014
X129698Y233814
X119498Y203314
X107498Y189814
X119598Y179114
X88398Y198914
X68098Y199414
X54098Y202214
X40098Y209214
X34398Y210714
X34398Y228314
X58598Y228514
X56798Y187014
X84698Y166414
X72898Y143014
X56098Y140114
X40698Y143014
X119598Y141914
X126298Y131314
X126298Y124414
X125098Y105714
X125198Y91114
X143598Y83014
X160598Y88014
X165398Y88114
X167698Y82214
X160898Y81914
X165898Y98214
X166898Y109114
X158798Y109614
X150398Y109614
X144598Y109714
X177298Y124214
X182398Y124214
X182598Y107314
X127198Y63014
X118598Y62914
X109198Y52614
X122998Y49914
X144198Y49914
X192898Y56514
X241898Y103714
X236398Y180714
X236498Y187414
X97098Y74214
X92298Y68214
X84398Y68314
T03
X48839Y32519
T04
X79498Y39914
X98498Y39914
X157598Y19814
X162598Y27314
X167598Y19814
X179298Y19414
X184298Y26914
X189298Y19414
X94398Y145814
X94398Y155814
X41698Y132414
X41698Y122414
T05
X311937Y218333
X311937Y233294
T06
X134398Y255814
X134398Y265814
X134398Y275814
T07
X319398Y275814
T08
X309198Y186314
X309198Y166314
X262698Y37214
X279398Y30814
X289398Y30814
X299398Y30814
X299398Y20814
X289398Y20814
X279398Y20814
X262698Y19414
X237098Y19414
X237098Y37214
X104398Y250814
X104398Y270814
T09
X59957Y22508
T10
X119398Y115314
X70398Y216314
X70398Y236314
X56898Y236314
X43398Y236314
X43398Y216314
X255198Y203014
X265298Y203014
X273998Y186914
X265298Y180314
X265298Y172314
X299398Y153314
X296898Y122814
X306898Y122814
X265298Y122814
X255198Y122814
X255198Y50514
X265298Y50514
X296898Y50514
X306898Y50514
X306898Y203014
X296898Y203014
X296898Y275314
X306898Y275314
X265298Y275314
X255198Y275314
T11
X267098Y250014
X320098Y194914
X227298Y28114
T12
X66524Y249810
X54713Y268314
X78335Y268314
M30
