G75*
%MOIN*%
%OFA0B0*%
%FSLAX25Y25*%
%IPPOS*%
%LPD*%
%AMOC8*
5,1,8,0,0,1.08239X$1,22.5*
%
%ADD10R,0.05118X0.05906*%
%ADD11C,0.10000*%
%ADD12OC8,0.10000*%
%ADD13OC8,0.06300*%
%ADD14C,0.06300*%
%ADD15C,0.17000*%
%ADD16C,0.07400*%
%ADD17R,0.05906X0.08661*%
%ADD18R,0.03150X0.03150*%
%ADD19OC8,0.05200*%
%ADD20R,0.03543X0.02756*%
%ADD21R,0.02756X0.03543*%
%ADD22OC8,0.08500*%
%ADD23R,0.04724X0.02165*%
%ADD24R,0.06496X0.06496*%
%ADD25C,0.06496*%
%ADD26R,0.02165X0.04724*%
%ADD27R,0.06600X0.06600*%
%ADD28C,0.06600*%
%ADD29R,0.15748X0.01575*%
%ADD30R,0.07283X0.04331*%
%ADD31R,0.07480X0.07874*%
%ADD32C,0.05200*%
%ADD33R,0.05709X0.01575*%
%ADD34R,0.05906X0.07087*%
%ADD35R,0.05906X0.09843*%
%ADD36C,0.05000*%
%ADD37C,0.01600*%
%ADD38C,0.04356*%
%ADD39C,0.01000*%
%ADD40C,0.03962*%
%ADD41C,0.02400*%
%ADD42R,0.03962X0.03962*%
%ADD43C,0.02000*%
%ADD44C,0.03200*%
%ADD45C,0.03000*%
%ADD46C,0.04000*%
%ADD47C,0.01200*%
%ADD48C,0.07000*%
D10*
X0243358Y0247814D03*
X0250838Y0247814D03*
D11*
X0309198Y0186314D03*
X0104398Y0250814D03*
D12*
X0104398Y0270814D03*
X0309198Y0166314D03*
D13*
X0094398Y0145814D03*
X0041698Y0122414D03*
D14*
X0041698Y0132414D03*
X0094398Y0155814D03*
D15*
X0066524Y0249810D03*
X0054713Y0268314D03*
X0078335Y0268314D03*
D16*
X0237098Y0037214D03*
X0237098Y0019414D03*
X0262698Y0019414D03*
X0279398Y0020814D03*
X0279398Y0030814D03*
X0289398Y0030814D03*
X0299398Y0030814D03*
X0299398Y0020814D03*
X0289398Y0020814D03*
X0262698Y0037214D03*
D17*
X0045500Y0280814D03*
X0033296Y0280814D03*
D18*
X0031445Y0270814D03*
X0037351Y0270814D03*
D19*
X0162598Y0027314D03*
X0157598Y0019814D03*
X0167598Y0019814D03*
X0179298Y0019414D03*
X0184298Y0026914D03*
X0189298Y0019414D03*
D20*
X0302598Y0250955D03*
X0302598Y0256073D03*
X0311598Y0256073D03*
X0311598Y0250955D03*
X0288098Y0266455D03*
X0288098Y0271573D03*
X0279598Y0271573D03*
X0279598Y0266455D03*
X0261898Y0264873D03*
X0261898Y0259755D03*
D21*
X0036957Y0262814D03*
X0031839Y0262814D03*
D22*
X0267098Y0250014D03*
X0320098Y0194914D03*
X0227298Y0028114D03*
D23*
X0279480Y0249274D03*
X0279480Y0253014D03*
X0279480Y0256754D03*
X0289716Y0256754D03*
X0289716Y0249274D03*
D24*
X0296898Y0275314D03*
X0306898Y0275314D03*
X0306898Y0203014D03*
X0296898Y0203014D03*
X0296898Y0122814D03*
X0306898Y0122814D03*
X0306898Y0050514D03*
X0296898Y0050514D03*
D25*
X0265298Y0050514D03*
X0255198Y0050514D03*
X0255198Y0122814D03*
X0265298Y0122814D03*
X0299398Y0153314D03*
X0265298Y0172314D03*
X0265298Y0180314D03*
X0273998Y0186914D03*
X0265298Y0203014D03*
X0255198Y0203014D03*
X0255198Y0275314D03*
X0265298Y0275314D03*
X0119398Y0115314D03*
X0070398Y0216314D03*
X0070398Y0236314D03*
X0056898Y0236314D03*
X0043398Y0236314D03*
X0043398Y0216314D03*
D26*
X0236658Y0260696D03*
X0240398Y0260696D03*
X0244138Y0260696D03*
X0244138Y0270932D03*
X0236658Y0270932D03*
D27*
X0134398Y0275814D03*
D28*
X0134398Y0265814D03*
X0134398Y0255814D03*
D29*
X0240264Y0172585D03*
X0240264Y0169436D03*
X0240264Y0166286D03*
X0240264Y0163137D03*
X0240264Y0159987D03*
X0240264Y0156837D03*
X0240264Y0153688D03*
X0240264Y0150538D03*
X0240264Y0147389D03*
X0240264Y0144239D03*
X0240264Y0141089D03*
X0240264Y0137940D03*
X0240264Y0134790D03*
X0240264Y0131641D03*
X0240264Y0128491D03*
X0240264Y0125341D03*
X0240264Y0122192D03*
X0240264Y0119042D03*
D30*
G36*
X0063208Y0032297D02*
X0068080Y0037708D01*
X0071298Y0034811D01*
X0066426Y0029400D01*
X0063208Y0032297D01*
G37*
G36*
X0059112Y0035985D02*
X0063984Y0041396D01*
X0067202Y0038499D01*
X0062330Y0033088D01*
X0059112Y0035985D01*
G37*
G36*
X0055016Y0039673D02*
X0059888Y0045084D01*
X0063106Y0042187D01*
X0058234Y0036776D01*
X0055016Y0039673D01*
G37*
G36*
X0037498Y0020217D02*
X0042370Y0025628D01*
X0045588Y0022731D01*
X0040716Y0017320D01*
X0037498Y0020217D01*
G37*
G36*
X0041594Y0016529D02*
X0046466Y0021940D01*
X0049684Y0019043D01*
X0044812Y0013632D01*
X0041594Y0016529D01*
G37*
G36*
X0045690Y0012840D02*
X0050562Y0018251D01*
X0053780Y0015354D01*
X0048908Y0009943D01*
X0045690Y0012840D01*
G37*
D31*
G36*
X0061054Y0016490D02*
X0066059Y0022047D01*
X0071910Y0016778D01*
X0066905Y0011221D01*
X0061054Y0016490D01*
G37*
G36*
X0036887Y0038250D02*
X0041892Y0043807D01*
X0047743Y0038538D01*
X0042738Y0032981D01*
X0036887Y0038250D01*
G37*
D32*
X0079498Y0039914D03*
X0098498Y0039914D03*
D33*
X0309870Y0220696D03*
X0309870Y0223255D03*
X0309870Y0225814D03*
X0309870Y0228373D03*
X0309870Y0230932D03*
D34*
X0320598Y0240322D03*
X0320598Y0211306D03*
D35*
X0320598Y0225814D03*
D36*
X0294598Y0241214D02*
X0288598Y0241214D01*
X0288598Y0228814D01*
X0288598Y0194914D01*
X0304198Y0194914D01*
X0304198Y0194114D01*
X0308998Y0194414D01*
X0309198Y0186314D01*
X0304198Y0194914D02*
X0320098Y0194914D01*
X0306898Y0203014D02*
X0296898Y0203014D01*
X0273998Y0186914D02*
X0273798Y0186114D01*
X0273798Y0236314D01*
X0243098Y0236314D01*
X0243098Y0247014D01*
X0255198Y0203014D02*
X0265298Y0203014D01*
X0265298Y0180314D01*
X0265298Y0172314D01*
X0265298Y0146514D01*
X0263598Y0144814D01*
X0263598Y0124514D01*
X0265298Y0122814D01*
X0260198Y0122814D01*
X0255198Y0122814D02*
X0265298Y0122814D01*
X0296898Y0122814D02*
X0306898Y0122814D01*
X0296998Y0122714D02*
X0296898Y0122814D01*
X0296898Y0050514D02*
X0306898Y0050514D01*
X0306998Y0050414D02*
X0312598Y0050414D01*
X0314398Y0048614D01*
X0314398Y0020814D01*
X0314398Y0009814D01*
X0225298Y0009814D01*
X0225298Y0025214D01*
X0227298Y0028114D01*
X0225298Y0009814D02*
X0166898Y0009814D01*
X0166898Y0019114D01*
X0167598Y0019814D02*
X0167598Y0022214D01*
X0183598Y0038214D01*
X0183598Y0104414D01*
X0182598Y0105514D02*
X0182598Y0107314D01*
X0182598Y0124014D01*
X0177298Y0124214D01*
X0177298Y0124114D02*
X0182598Y0124114D01*
X0135498Y0152114D02*
X0135298Y0152114D01*
X0126298Y0143114D01*
X0126298Y0124414D01*
X0135498Y0152114D02*
X0135498Y0230314D01*
X0133198Y0231814D01*
X0129698Y0233814D01*
X0129698Y0233714D01*
X0129698Y0233814D02*
X0104398Y0234014D01*
X0104398Y0250814D01*
X0113798Y0249114D02*
X0113798Y0261414D01*
X0106698Y0268514D01*
X0106698Y0270814D01*
X0060998Y0285814D02*
X0296898Y0285814D01*
X0296898Y0275314D01*
X0306898Y0275314D01*
X0294598Y0249214D02*
X0294598Y0241214D01*
X0265298Y0050514D02*
X0255198Y0050514D01*
X0299398Y0020814D02*
X0304398Y0020814D01*
X0166898Y0009814D02*
X0145598Y0009814D01*
X0144198Y0011214D01*
X0144198Y0049914D01*
X0054713Y0268314D02*
X0054813Y0279629D01*
X0060998Y0285814D01*
D37*
X0052159Y0007614D02*
X0026598Y0007614D01*
X0026598Y0115614D01*
X0049598Y0115766D01*
X0049598Y0055478D01*
X0048762Y0054642D01*
X0048217Y0053326D01*
X0048217Y0051901D01*
X0048700Y0050736D01*
X0041894Y0050714D01*
X0041421Y0050714D01*
X0041417Y0050712D01*
X0041413Y0050712D01*
X0040975Y0050529D01*
X0040539Y0050348D01*
X0040536Y0050346D01*
X0040532Y0050344D01*
X0040197Y0050007D01*
X0032364Y0042173D01*
X0031998Y0041291D01*
X0031998Y0015336D01*
X0032364Y0014454D01*
X0033039Y0013779D01*
X0034864Y0011954D01*
X0035539Y0011279D01*
X0036421Y0010914D01*
X0041644Y0010914D01*
X0042527Y0011279D01*
X0043202Y0011954D01*
X0043642Y0012395D01*
X0044028Y0012048D01*
X0048293Y0008208D01*
X0049699Y0008281D01*
X0050665Y0009354D01*
X0052150Y0007637D01*
X0052159Y0007614D01*
X0050961Y0009011D02*
X0050356Y0009011D01*
X0047401Y0009011D02*
X0026598Y0009011D01*
X0026598Y0010609D02*
X0045626Y0010609D01*
X0043851Y0012208D02*
X0043455Y0012208D01*
X0041167Y0013314D02*
X0036898Y0013314D01*
X0034398Y0015814D01*
X0034398Y0040814D01*
X0041898Y0048314D01*
X0069005Y0048401D01*
X0069098Y0048495D01*
X0069098Y0053014D01*
X0069098Y0069314D01*
X0078998Y0079214D01*
X0082267Y0077747D02*
X0082730Y0077747D01*
X0082498Y0078306D02*
X0082962Y0077185D01*
X0083970Y0076178D01*
X0085286Y0075633D01*
X0086710Y0075633D01*
X0088027Y0076178D01*
X0089034Y0077185D01*
X0089579Y0078501D01*
X0089579Y0079926D01*
X0089034Y0081242D01*
X0088798Y0081478D01*
X0088798Y0083454D01*
X0093658Y0088314D01*
X0109398Y0088314D01*
X0109398Y0091093D01*
X0114930Y0097286D01*
X0115266Y0097619D01*
X0115299Y0097699D01*
X0115357Y0097764D01*
X0115513Y0098210D01*
X0115696Y0098646D01*
X0115696Y0098733D01*
X0115725Y0098815D01*
X0115698Y0099287D01*
X0115748Y0112108D01*
X0116652Y0111204D01*
X0118434Y0110466D01*
X0120362Y0110466D01*
X0122144Y0111204D01*
X0123508Y0112568D01*
X0124246Y0114349D01*
X0124246Y0116278D01*
X0123508Y0118060D01*
X0123023Y0118545D01*
X0123047Y0121866D01*
X0123976Y0120938D01*
X0125483Y0120314D01*
X0127114Y0120314D01*
X0128621Y0120938D01*
X0129520Y0121838D01*
X0129269Y0058681D01*
X0128510Y0058995D01*
X0127086Y0058995D01*
X0125770Y0058450D01*
X0125298Y0057978D01*
X0125298Y0068920D01*
X0125890Y0069512D01*
X0126225Y0069842D01*
X0126228Y0069849D01*
X0126233Y0069854D01*
X0126413Y0070289D01*
X0126595Y0070722D01*
X0126595Y0070730D01*
X0126598Y0070736D01*
X0126598Y0071206D01*
X0126692Y0087314D01*
X0127233Y0087854D01*
X0127239Y0087870D01*
X0127338Y0087911D01*
X0128401Y0088974D01*
X0128976Y0090362D01*
X0128976Y0091865D01*
X0128401Y0093254D01*
X0127338Y0094317D01*
X0125950Y0094892D01*
X0124447Y0094892D01*
X0123058Y0094317D01*
X0122998Y0094257D01*
X0122998Y0100220D01*
X0124714Y0101936D01*
X0125850Y0101936D01*
X0127238Y0102511D01*
X0128301Y0103574D01*
X0128876Y0104962D01*
X0128876Y0106465D01*
X0128301Y0107854D01*
X0127238Y0108917D01*
X0125850Y0109492D01*
X0124347Y0109492D01*
X0122958Y0108917D01*
X0121895Y0107854D01*
X0121320Y0106465D01*
X0121320Y0105330D01*
X0119239Y0103248D01*
X0118564Y0102573D01*
X0118198Y0101691D01*
X0118198Y0076614D01*
X0100041Y0076614D01*
X0099238Y0077417D01*
X0097850Y0077992D01*
X0096347Y0077992D01*
X0094958Y0077417D01*
X0093895Y0076354D01*
X0093320Y0074965D01*
X0093320Y0073462D01*
X0093895Y0072074D01*
X0094958Y0071011D01*
X0096347Y0070436D01*
X0097850Y0070436D01*
X0099238Y0071011D01*
X0100041Y0071814D01*
X0119976Y0071814D01*
X0120858Y0072179D01*
X0121533Y0072854D01*
X0121809Y0073131D01*
X0121804Y0072214D01*
X0120864Y0071273D01*
X0120498Y0070391D01*
X0120498Y0059178D01*
X0120327Y0059350D01*
X0119010Y0059895D01*
X0117586Y0059895D01*
X0116270Y0059350D01*
X0115634Y0058714D01*
X0113192Y0058714D01*
X0110058Y0061848D01*
X0109176Y0062214D01*
X0077594Y0062214D01*
X0077334Y0062842D01*
X0076327Y0063850D01*
X0075010Y0064395D01*
X0073586Y0064395D01*
X0072270Y0063850D01*
X0071498Y0063078D01*
X0071498Y0068320D01*
X0078811Y0075633D01*
X0079710Y0075633D01*
X0081027Y0076178D01*
X0082034Y0077185D01*
X0082498Y0078306D01*
X0080955Y0076148D02*
X0084041Y0076148D01*
X0085998Y0079214D02*
X0081698Y0083514D01*
X0071198Y0083514D01*
X0071198Y0090514D01*
X0069098Y0092614D01*
X0063698Y0092614D01*
X0061898Y0090814D01*
X0061894Y0094395D02*
X0061798Y0120714D01*
X0079298Y0120714D01*
X0079298Y0103444D01*
X0080528Y0102214D01*
X0081834Y0102214D01*
X0082770Y0101278D01*
X0084086Y0100733D01*
X0085510Y0100733D01*
X0086827Y0101278D01*
X0087834Y0102285D01*
X0088379Y0103601D01*
X0088379Y0105026D01*
X0088264Y0105303D01*
X0088927Y0105578D01*
X0089563Y0106214D01*
X0090653Y0106214D01*
X0091162Y0104985D01*
X0091890Y0104258D01*
X0091870Y0104250D01*
X0090862Y0103242D01*
X0090317Y0101926D01*
X0090317Y0100501D01*
X0090862Y0099185D01*
X0091870Y0098178D01*
X0093186Y0097633D01*
X0094610Y0097633D01*
X0095927Y0098178D01*
X0096934Y0099185D01*
X0097479Y0100501D01*
X0097479Y0101401D01*
X0101311Y0105233D01*
X0101510Y0105233D01*
X0102827Y0105778D01*
X0103834Y0106785D01*
X0104344Y0108018D01*
X0104394Y0094514D01*
X0092541Y0094514D01*
X0091512Y0094087D01*
X0090738Y0093314D01*
X0071792Y0093314D01*
X0070458Y0094648D01*
X0069576Y0095014D01*
X0063221Y0095014D01*
X0062339Y0094648D01*
X0062085Y0094395D01*
X0061894Y0094395D01*
X0061891Y0095330D02*
X0104391Y0095330D01*
X0104385Y0096929D02*
X0061885Y0096929D01*
X0061879Y0098527D02*
X0091520Y0098527D01*
X0090473Y0100126D02*
X0061873Y0100126D01*
X0061867Y0101724D02*
X0082323Y0101724D01*
X0079419Y0103323D02*
X0061862Y0103323D01*
X0061856Y0104921D02*
X0079298Y0104921D01*
X0079298Y0106520D02*
X0061850Y0106520D01*
X0061844Y0108118D02*
X0079298Y0108118D01*
X0079298Y0109717D02*
X0061838Y0109717D01*
X0061832Y0111315D02*
X0079298Y0111315D01*
X0079298Y0112914D02*
X0061827Y0112914D01*
X0061821Y0114513D02*
X0079298Y0114513D01*
X0079298Y0116111D02*
X0061815Y0116111D01*
X0061809Y0117710D02*
X0079298Y0117710D01*
X0079298Y0119308D02*
X0061803Y0119308D01*
X0056898Y0115814D02*
X0056898Y0088314D01*
X0059334Y0088314D01*
X0059870Y0087778D01*
X0061186Y0087233D01*
X0062610Y0087233D01*
X0063617Y0087650D01*
X0063617Y0087401D01*
X0064162Y0086085D01*
X0064798Y0085449D01*
X0064798Y0082314D01*
X0061321Y0082314D01*
X0060439Y0081948D01*
X0057664Y0079173D01*
X0057298Y0078291D01*
X0057298Y0062278D01*
X0056662Y0061642D01*
X0056117Y0060326D01*
X0056117Y0058901D01*
X0056662Y0057585D01*
X0057670Y0056578D01*
X0058986Y0056033D01*
X0060410Y0056033D01*
X0061727Y0056578D01*
X0062734Y0057585D01*
X0063279Y0058901D01*
X0063279Y0060326D01*
X0062734Y0061642D01*
X0062098Y0062278D01*
X0062098Y0076820D01*
X0062792Y0077514D01*
X0062902Y0077514D01*
X0062617Y0076826D01*
X0062617Y0075401D01*
X0063162Y0074085D01*
X0064170Y0073078D01*
X0065486Y0072533D01*
X0066910Y0072533D01*
X0068227Y0073078D01*
X0068863Y0073714D01*
X0070104Y0073714D01*
X0067739Y0071348D01*
X0067064Y0070673D01*
X0066698Y0069791D01*
X0066698Y0050794D01*
X0054905Y0050756D01*
X0055379Y0051901D01*
X0055379Y0053326D01*
X0054834Y0054642D01*
X0054398Y0055078D01*
X0054398Y0115797D01*
X0056898Y0115814D01*
X0056898Y0114513D02*
X0054398Y0114513D01*
X0054398Y0112914D02*
X0056898Y0112914D01*
X0056898Y0111315D02*
X0054398Y0111315D01*
X0054398Y0109717D02*
X0056898Y0109717D01*
X0056898Y0108118D02*
X0054398Y0108118D01*
X0054398Y0106520D02*
X0056898Y0106520D01*
X0056898Y0104921D02*
X0054398Y0104921D01*
X0054398Y0103323D02*
X0056898Y0103323D01*
X0056898Y0101724D02*
X0054398Y0101724D01*
X0054398Y0100126D02*
X0056898Y0100126D01*
X0056898Y0098527D02*
X0054398Y0098527D01*
X0054398Y0096929D02*
X0056898Y0096929D01*
X0056898Y0095330D02*
X0054398Y0095330D01*
X0054398Y0093732D02*
X0056898Y0093732D01*
X0056898Y0092133D02*
X0054398Y0092133D01*
X0054398Y0090535D02*
X0056898Y0090535D01*
X0056898Y0088936D02*
X0054398Y0088936D01*
X0054398Y0087338D02*
X0060932Y0087338D01*
X0062864Y0087338D02*
X0063643Y0087338D01*
X0064508Y0085739D02*
X0054398Y0085739D01*
X0054398Y0084141D02*
X0064798Y0084141D01*
X0064798Y0082542D02*
X0054398Y0082542D01*
X0054398Y0080944D02*
X0059434Y0080944D01*
X0057836Y0079345D02*
X0054398Y0079345D01*
X0054398Y0077747D02*
X0057298Y0077747D01*
X0057298Y0076148D02*
X0054398Y0076148D01*
X0054398Y0074550D02*
X0057298Y0074550D01*
X0057298Y0072951D02*
X0054398Y0072951D01*
X0054398Y0071353D02*
X0057298Y0071353D01*
X0057298Y0069754D02*
X0054398Y0069754D01*
X0054398Y0068156D02*
X0057298Y0068156D01*
X0057298Y0066557D02*
X0054398Y0066557D01*
X0054398Y0064959D02*
X0057298Y0064959D01*
X0057298Y0063360D02*
X0054398Y0063360D01*
X0054398Y0061762D02*
X0056782Y0061762D01*
X0056117Y0060163D02*
X0054398Y0060163D01*
X0054398Y0058565D02*
X0056257Y0058565D01*
X0057281Y0056966D02*
X0054398Y0056966D01*
X0054398Y0055368D02*
X0066698Y0055368D01*
X0066698Y0056966D02*
X0062115Y0056966D01*
X0063140Y0058565D02*
X0066698Y0058565D01*
X0066698Y0060163D02*
X0063279Y0060163D01*
X0062615Y0061762D02*
X0066698Y0061762D01*
X0066698Y0063360D02*
X0062098Y0063360D01*
X0062098Y0064959D02*
X0066698Y0064959D01*
X0066698Y0066557D02*
X0062098Y0066557D01*
X0062098Y0068156D02*
X0066698Y0068156D01*
X0066698Y0069754D02*
X0062098Y0069754D01*
X0062098Y0071353D02*
X0067743Y0071353D01*
X0067921Y0072951D02*
X0069342Y0072951D01*
X0071198Y0076114D02*
X0066198Y0076114D01*
X0062617Y0076148D02*
X0062098Y0076148D01*
X0062098Y0074550D02*
X0062970Y0074550D01*
X0062098Y0072951D02*
X0064475Y0072951D01*
X0059698Y0077814D02*
X0061798Y0079914D01*
X0067098Y0079914D01*
X0067198Y0080014D01*
X0067198Y0088114D01*
X0071198Y0083514D02*
X0071198Y0076114D01*
X0074531Y0071353D02*
X0094616Y0071353D01*
X0093532Y0072951D02*
X0076130Y0072951D01*
X0077728Y0074550D02*
X0093320Y0074550D01*
X0093810Y0076148D02*
X0087955Y0076148D01*
X0089267Y0077747D02*
X0095755Y0077747D01*
X0098441Y0077747D02*
X0118198Y0077747D01*
X0118198Y0079345D02*
X0089579Y0079345D01*
X0089158Y0080944D02*
X0118198Y0080944D01*
X0118198Y0082542D02*
X0088798Y0082542D01*
X0089485Y0084141D02*
X0118198Y0084141D01*
X0118198Y0085739D02*
X0091083Y0085739D01*
X0092682Y0087338D02*
X0118198Y0087338D01*
X0118198Y0088936D02*
X0109398Y0088936D01*
X0109398Y0090535D02*
X0118198Y0090535D01*
X0118198Y0092133D02*
X0110328Y0092133D01*
X0111756Y0093732D02*
X0118198Y0093732D01*
X0118198Y0095330D02*
X0113184Y0095330D01*
X0114612Y0096929D02*
X0118198Y0096929D01*
X0118198Y0098527D02*
X0115646Y0098527D01*
X0115702Y0100126D02*
X0118198Y0100126D01*
X0118212Y0101724D02*
X0115708Y0101724D01*
X0115714Y0103323D02*
X0119313Y0103323D01*
X0120912Y0104921D02*
X0115720Y0104921D01*
X0115726Y0106520D02*
X0121343Y0106520D01*
X0122160Y0108118D02*
X0115732Y0108118D01*
X0115739Y0109717D02*
X0129472Y0109717D01*
X0129478Y0111315D02*
X0122256Y0111315D01*
X0123652Y0112914D02*
X0129485Y0112914D01*
X0129491Y0114513D02*
X0124246Y0114513D01*
X0124246Y0116111D02*
X0129498Y0116111D01*
X0129504Y0117710D02*
X0123653Y0117710D01*
X0123028Y0119308D02*
X0129510Y0119308D01*
X0129517Y0120907D02*
X0128545Y0120907D01*
X0124051Y0120907D02*
X0123040Y0120907D01*
X0116540Y0111315D02*
X0115745Y0111315D01*
X0125098Y0105714D02*
X0120598Y0101214D01*
X0120598Y0075314D01*
X0119498Y0074214D01*
X0097098Y0074214D01*
X0099580Y0071353D02*
X0120943Y0071353D01*
X0120498Y0069754D02*
X0072933Y0069754D01*
X0071498Y0068156D02*
X0120498Y0068156D01*
X0120498Y0066557D02*
X0071498Y0066557D01*
X0071498Y0064959D02*
X0120498Y0064959D01*
X0120498Y0063360D02*
X0076816Y0063360D01*
X0074298Y0060814D02*
X0075298Y0059814D01*
X0108698Y0059814D01*
X0112198Y0056314D01*
X0118298Y0056314D01*
X0115778Y0053769D02*
X0112809Y0053769D01*
X0112749Y0053914D02*
X0115634Y0053914D01*
X0116270Y0053278D01*
X0117586Y0052733D01*
X0119010Y0052733D01*
X0120327Y0053278D01*
X0120498Y0053449D01*
X0120498Y0052757D01*
X0119795Y0052054D01*
X0119220Y0050665D01*
X0119220Y0049162D01*
X0119795Y0047774D01*
X0120555Y0047014D01*
X0119921Y0047014D01*
X0119039Y0046648D01*
X0118364Y0045973D01*
X0104664Y0032273D01*
X0104298Y0031391D01*
X0104298Y0026608D01*
X0100504Y0022814D01*
X0079292Y0022814D01*
X0078679Y0023427D01*
X0078679Y0024326D01*
X0078134Y0025642D01*
X0077127Y0026650D01*
X0075810Y0027195D01*
X0074386Y0027195D01*
X0073070Y0026650D01*
X0072062Y0025642D01*
X0071594Y0024512D01*
X0069298Y0026808D01*
X0069298Y0030048D01*
X0073034Y0034197D01*
X0072960Y0035603D01*
X0068864Y0039291D01*
X0068864Y0039291D01*
X0064768Y0042980D01*
X0061439Y0045977D01*
X0069009Y0046001D01*
X0069482Y0046001D01*
X0069486Y0046003D01*
X0069490Y0046003D01*
X0070242Y0046005D01*
X0070870Y0045378D01*
X0072186Y0044833D01*
X0073610Y0044833D01*
X0074927Y0045378D01*
X0075934Y0046385D01*
X0076479Y0047701D01*
X0076479Y0049126D01*
X0075934Y0050442D01*
X0075098Y0051278D01*
X0075098Y0053514D01*
X0091338Y0053514D01*
X0093912Y0050940D01*
X0094941Y0050514D01*
X0095790Y0050514D01*
X0095986Y0050433D01*
X0097410Y0050433D01*
X0098727Y0050978D01*
X0099039Y0051290D01*
X0099884Y0051640D01*
X0100672Y0052428D01*
X0101858Y0053614D01*
X0104238Y0053614D01*
X0105420Y0052432D01*
X0105420Y0051862D01*
X0105995Y0050474D01*
X0107058Y0049411D01*
X0108447Y0048836D01*
X0109950Y0048836D01*
X0111338Y0049411D01*
X0112401Y0050474D01*
X0112976Y0051862D01*
X0112976Y0053365D01*
X0112749Y0053914D01*
X0112976Y0052171D02*
X0119912Y0052171D01*
X0119220Y0050572D02*
X0112442Y0050572D01*
X0110282Y0048974D02*
X0119298Y0048974D01*
X0120194Y0047375D02*
X0076344Y0047375D01*
X0076479Y0048974D02*
X0108114Y0048974D01*
X0105955Y0050572D02*
X0097747Y0050572D01*
X0094800Y0050572D02*
X0075804Y0050572D01*
X0075098Y0052171D02*
X0092681Y0052171D01*
X0100415Y0052171D02*
X0105420Y0052171D01*
X0100934Y0043559D02*
X0099353Y0044214D01*
X0097643Y0044214D01*
X0096062Y0043559D01*
X0094853Y0042349D01*
X0094198Y0040769D01*
X0094198Y0039058D01*
X0094853Y0037478D01*
X0096062Y0036268D01*
X0097643Y0035614D01*
X0099353Y0035614D01*
X0100934Y0036268D01*
X0102143Y0037478D01*
X0102798Y0039058D01*
X0102798Y0040769D01*
X0102143Y0042349D01*
X0100934Y0043559D01*
X0101913Y0042580D02*
X0114970Y0042580D01*
X0116568Y0044178D02*
X0099440Y0044178D01*
X0097557Y0044178D02*
X0080440Y0044178D01*
X0080353Y0044214D02*
X0078643Y0044214D01*
X0077062Y0043559D01*
X0075853Y0042349D01*
X0075198Y0040769D01*
X0075198Y0039058D01*
X0075853Y0037478D01*
X0077062Y0036268D01*
X0078643Y0035614D01*
X0080353Y0035614D01*
X0081934Y0036268D01*
X0083143Y0037478D01*
X0083798Y0039058D01*
X0083798Y0040769D01*
X0083143Y0042349D01*
X0081934Y0043559D01*
X0080353Y0044214D01*
X0078557Y0044178D02*
X0063437Y0044178D01*
X0061662Y0045777D02*
X0070471Y0045777D01*
X0069490Y0046003D02*
X0069490Y0046003D01*
X0069005Y0048401D02*
X0072898Y0048414D01*
X0075325Y0045777D02*
X0118167Y0045777D01*
X0120398Y0044614D02*
X0126798Y0044614D01*
X0126798Y0044714D01*
X0127698Y0046114D01*
X0127698Y0055114D01*
X0128198Y0055514D01*
X0126047Y0058565D02*
X0125298Y0058565D01*
X0125298Y0060163D02*
X0129275Y0060163D01*
X0129281Y0061762D02*
X0125298Y0061762D01*
X0125298Y0063360D02*
X0129288Y0063360D01*
X0129294Y0064959D02*
X0125298Y0064959D01*
X0125298Y0066557D02*
X0129300Y0066557D01*
X0129307Y0068156D02*
X0125298Y0068156D01*
X0126136Y0069754D02*
X0129313Y0069754D01*
X0129320Y0071353D02*
X0126599Y0071353D01*
X0126608Y0072951D02*
X0129326Y0072951D01*
X0129332Y0074550D02*
X0126618Y0074550D01*
X0126627Y0076148D02*
X0129339Y0076148D01*
X0129345Y0077747D02*
X0126636Y0077747D01*
X0126646Y0079345D02*
X0129351Y0079345D01*
X0129358Y0080944D02*
X0126655Y0080944D01*
X0126664Y0082542D02*
X0129364Y0082542D01*
X0129370Y0084141D02*
X0126674Y0084141D01*
X0126683Y0085739D02*
X0129377Y0085739D01*
X0129383Y0087338D02*
X0126716Y0087338D01*
X0128364Y0088936D02*
X0129389Y0088936D01*
X0129396Y0090535D02*
X0128976Y0090535D01*
X0128865Y0092133D02*
X0129402Y0092133D01*
X0129409Y0093732D02*
X0127923Y0093732D01*
X0129415Y0095330D02*
X0122998Y0095330D01*
X0122998Y0096929D02*
X0129421Y0096929D01*
X0129428Y0098527D02*
X0122998Y0098527D01*
X0122998Y0100126D02*
X0129434Y0100126D01*
X0129440Y0101724D02*
X0124503Y0101724D01*
X0128050Y0103323D02*
X0129447Y0103323D01*
X0129453Y0104921D02*
X0128859Y0104921D01*
X0128853Y0106520D02*
X0129459Y0106520D01*
X0129466Y0108118D02*
X0128036Y0108118D01*
X0142247Y0106722D02*
X0142458Y0106511D01*
X0143847Y0105936D01*
X0145350Y0105936D01*
X0146738Y0106511D01*
X0147801Y0107574D01*
X0148376Y0108962D01*
X0148376Y0110465D01*
X0147801Y0111854D01*
X0146738Y0112917D01*
X0145398Y0113472D01*
X0145398Y0134320D01*
X0155833Y0144754D01*
X0156198Y0145636D01*
X0156198Y0174033D01*
X0156910Y0174033D01*
X0158227Y0174578D01*
X0159234Y0175585D01*
X0159779Y0176901D01*
X0159779Y0178326D01*
X0159234Y0179642D01*
X0158227Y0180650D01*
X0156910Y0181195D01*
X0155486Y0181195D01*
X0154170Y0180650D01*
X0153498Y0179978D01*
X0153498Y0182838D01*
X0154760Y0184133D01*
X0155610Y0184133D01*
X0156927Y0184678D01*
X0157934Y0185685D01*
X0158479Y0187001D01*
X0158479Y0188426D01*
X0157934Y0189742D01*
X0156927Y0190750D01*
X0155610Y0191295D01*
X0154186Y0191295D01*
X0152870Y0190750D01*
X0151862Y0189742D01*
X0151317Y0188426D01*
X0151317Y0187477D01*
X0150498Y0186637D01*
X0150498Y0204920D01*
X0154711Y0209133D01*
X0155610Y0209133D01*
X0156927Y0209678D01*
X0157934Y0210685D01*
X0158479Y0212001D01*
X0158479Y0213426D01*
X0157934Y0214742D01*
X0156927Y0215750D01*
X0155610Y0216295D01*
X0154186Y0216295D01*
X0152870Y0215750D01*
X0151862Y0214742D01*
X0151317Y0213426D01*
X0151317Y0212527D01*
X0146739Y0207948D01*
X0146198Y0207408D01*
X0144298Y0209308D01*
X0144298Y0214442D01*
X0144627Y0214578D01*
X0145634Y0215585D01*
X0146179Y0216901D01*
X0146179Y0218326D01*
X0145634Y0219642D01*
X0144627Y0220650D01*
X0143310Y0221195D01*
X0141886Y0221195D01*
X0140570Y0220650D01*
X0139598Y0219678D01*
X0139598Y0229933D01*
X0139678Y0230360D01*
X0139598Y0230741D01*
X0139598Y0231129D01*
X0139432Y0231531D01*
X0139342Y0231956D01*
X0139123Y0232277D01*
X0138974Y0232636D01*
X0138667Y0232944D01*
X0138421Y0233302D01*
X0138095Y0233515D01*
X0137821Y0233790D01*
X0137419Y0233956D01*
X0136909Y0234288D01*
X0136905Y0235914D01*
X0174684Y0235914D01*
X0176917Y0233362D01*
X0176917Y0232201D01*
X0177462Y0230885D01*
X0178470Y0229878D01*
X0179786Y0229333D01*
X0181210Y0229333D01*
X0182527Y0229878D01*
X0183534Y0230885D01*
X0184079Y0232201D01*
X0184079Y0233626D01*
X0183534Y0234942D01*
X0182527Y0235950D01*
X0181210Y0236495D01*
X0180554Y0236495D01*
X0178962Y0238314D01*
X0234398Y0238314D01*
X0234398Y0230114D01*
X0228928Y0230114D01*
X0228883Y0230130D01*
X0228462Y0230114D01*
X0227927Y0230650D01*
X0226610Y0231195D01*
X0225186Y0231195D01*
X0223870Y0230650D01*
X0222862Y0229642D01*
X0222317Y0228326D01*
X0222317Y0226901D01*
X0222862Y0225585D01*
X0223870Y0224578D01*
X0224573Y0224286D01*
X0224217Y0223426D01*
X0224217Y0222001D01*
X0224762Y0220685D01*
X0225770Y0219678D01*
X0227086Y0219133D01*
X0228510Y0219133D01*
X0229827Y0219678D01*
X0230463Y0220314D01*
X0233634Y0220314D01*
X0234270Y0219678D01*
X0235586Y0219133D01*
X0237010Y0219133D01*
X0238327Y0219678D01*
X0239334Y0220685D01*
X0239879Y0222001D01*
X0239879Y0223426D01*
X0239587Y0224133D01*
X0241010Y0224133D01*
X0242327Y0224678D01*
X0243334Y0225685D01*
X0243879Y0227001D01*
X0243879Y0228314D01*
X0246898Y0228314D01*
X0246898Y0208378D01*
X0246427Y0208850D01*
X0245110Y0209395D01*
X0243686Y0209395D01*
X0242370Y0208850D01*
X0241362Y0207842D01*
X0240817Y0206526D01*
X0240817Y0205714D01*
X0212063Y0205714D01*
X0211427Y0206350D01*
X0210110Y0206895D01*
X0208686Y0206895D01*
X0207370Y0206350D01*
X0206362Y0205342D01*
X0205817Y0204026D01*
X0205817Y0202601D01*
X0206362Y0201285D01*
X0207370Y0200278D01*
X0208686Y0199733D01*
X0210110Y0199733D01*
X0211427Y0200278D01*
X0212063Y0200914D01*
X0242376Y0200914D01*
X0243258Y0201279D01*
X0244211Y0202233D01*
X0245110Y0202233D01*
X0246427Y0202778D01*
X0246898Y0203249D01*
X0246898Y0198814D01*
X0209763Y0198814D01*
X0209127Y0199450D01*
X0207810Y0199995D01*
X0206386Y0199995D01*
X0205070Y0199450D01*
X0204062Y0198442D01*
X0203517Y0197126D01*
X0203517Y0195701D01*
X0204062Y0194385D01*
X0204334Y0194114D01*
X0197721Y0194114D01*
X0196839Y0193748D01*
X0194385Y0191295D01*
X0193486Y0191295D01*
X0192170Y0190750D01*
X0191798Y0190378D01*
X0191798Y0197320D01*
X0208511Y0214033D01*
X0209910Y0214033D01*
X0211227Y0214578D01*
X0212234Y0215585D01*
X0212779Y0216901D01*
X0212779Y0218326D01*
X0212234Y0219642D01*
X0211227Y0220650D01*
X0209910Y0221195D01*
X0208486Y0221195D01*
X0207170Y0220650D01*
X0206162Y0219642D01*
X0205617Y0218326D01*
X0205617Y0217927D01*
X0187364Y0199673D01*
X0186998Y0198791D01*
X0186998Y0167208D01*
X0182464Y0162673D01*
X0182098Y0161791D01*
X0182098Y0133214D01*
X0181499Y0133214D01*
X0181798Y0133936D01*
X0181798Y0172320D01*
X0183258Y0173779D01*
X0183933Y0174454D01*
X0184298Y0175336D01*
X0184298Y0206809D01*
X0184300Y0207283D01*
X0184298Y0207287D01*
X0184298Y0207291D01*
X0184117Y0207728D01*
X0183937Y0208166D01*
X0183934Y0208169D01*
X0183933Y0208173D01*
X0183597Y0208509D01*
X0169134Y0223069D01*
X0169133Y0223073D01*
X0168798Y0223408D01*
X0168464Y0223744D01*
X0168461Y0223745D01*
X0163079Y0229127D01*
X0163079Y0230026D01*
X0162534Y0231342D01*
X0161527Y0232350D01*
X0160210Y0232895D01*
X0158786Y0232895D01*
X0157470Y0232350D01*
X0156462Y0231342D01*
X0155917Y0230026D01*
X0155917Y0228601D01*
X0156462Y0227285D01*
X0157470Y0226278D01*
X0158786Y0225733D01*
X0159685Y0225733D01*
X0165399Y0220018D01*
X0179498Y0205824D01*
X0179498Y0195851D01*
X0178910Y0196095D01*
X0177486Y0196095D01*
X0176170Y0195550D01*
X0175162Y0194542D01*
X0174617Y0193226D01*
X0174617Y0191801D01*
X0175162Y0190485D01*
X0175755Y0189893D01*
X0175714Y0187424D01*
X0169464Y0181173D01*
X0169358Y0180918D01*
X0169298Y0180978D01*
X0169298Y0193149D01*
X0169934Y0193785D01*
X0170479Y0195101D01*
X0170479Y0196526D01*
X0169934Y0197842D01*
X0168927Y0198850D01*
X0167610Y0199395D01*
X0166186Y0199395D01*
X0164870Y0198850D01*
X0163862Y0197842D01*
X0163317Y0196526D01*
X0163317Y0195101D01*
X0163862Y0193785D01*
X0164498Y0193149D01*
X0164498Y0180978D01*
X0163862Y0180342D01*
X0163317Y0179026D01*
X0163317Y0177601D01*
X0163862Y0176285D01*
X0164870Y0175278D01*
X0166186Y0174733D01*
X0167610Y0174733D01*
X0168927Y0175278D01*
X0169098Y0175449D01*
X0169098Y0164878D01*
X0168527Y0165450D01*
X0167210Y0165995D01*
X0165786Y0165995D01*
X0164470Y0165450D01*
X0163462Y0164442D01*
X0162917Y0163126D01*
X0162917Y0162327D01*
X0161964Y0161373D01*
X0161598Y0160491D01*
X0161598Y0142678D01*
X0160962Y0142042D01*
X0160417Y0140726D01*
X0160417Y0139301D01*
X0160962Y0137985D01*
X0161970Y0136978D01*
X0163286Y0136433D01*
X0164710Y0136433D01*
X0166027Y0136978D01*
X0167034Y0137985D01*
X0167579Y0139301D01*
X0167579Y0140726D01*
X0167287Y0141433D01*
X0168610Y0141433D01*
X0169927Y0141978D01*
X0170934Y0142985D01*
X0171479Y0144301D01*
X0171479Y0145726D01*
X0170934Y0147042D01*
X0170319Y0147657D01*
X0170346Y0151001D01*
X0170370Y0150978D01*
X0171686Y0150433D01*
X0173110Y0150433D01*
X0174427Y0150978D01*
X0175434Y0151985D01*
X0175979Y0153301D01*
X0175979Y0154726D01*
X0175434Y0156042D01*
X0174827Y0156649D01*
X0176433Y0158254D01*
X0176798Y0159136D01*
X0176798Y0174933D01*
X0176910Y0174933D01*
X0178127Y0175436D01*
X0177364Y0174673D01*
X0176998Y0173791D01*
X0176998Y0135814D01*
X0171521Y0135814D01*
X0170639Y0135448D01*
X0165439Y0130248D01*
X0164764Y0129573D01*
X0164398Y0128691D01*
X0164398Y0119978D01*
X0164393Y0119966D01*
X0164398Y0119501D01*
X0164398Y0119036D01*
X0164403Y0119024D01*
X0164403Y0119011D01*
X0164586Y0118584D01*
X0164764Y0118154D01*
X0164773Y0118145D01*
X0164778Y0118133D01*
X0165110Y0117808D01*
X0165439Y0117479D01*
X0165451Y0117474D01*
X0169198Y0113805D01*
X0169198Y0097208D01*
X0167164Y0095173D01*
X0166798Y0094291D01*
X0166798Y0089136D01*
X0167164Y0088254D01*
X0167839Y0087579D01*
X0169498Y0085920D01*
X0169498Y0085336D01*
X0169598Y0085095D01*
X0169598Y0067978D01*
X0168962Y0067342D01*
X0168417Y0066026D01*
X0168417Y0064601D01*
X0168917Y0063395D01*
X0168886Y0063395D01*
X0167570Y0062850D01*
X0167148Y0062428D01*
X0166327Y0063250D01*
X0165010Y0063795D01*
X0163586Y0063795D01*
X0162270Y0063250D01*
X0161634Y0062614D01*
X0157298Y0062614D01*
X0157298Y0094820D01*
X0158014Y0095535D01*
X0158986Y0095133D01*
X0160410Y0095133D01*
X0161727Y0095678D01*
X0162734Y0096685D01*
X0163279Y0098001D01*
X0163279Y0099426D01*
X0162734Y0100742D01*
X0161727Y0101750D01*
X0160410Y0102295D01*
X0158986Y0102295D01*
X0157670Y0101750D01*
X0156831Y0100911D01*
X0156439Y0100748D01*
X0155764Y0100073D01*
X0152864Y0097173D01*
X0152498Y0096291D01*
X0152498Y0059736D01*
X0152864Y0058854D01*
X0153539Y0058179D01*
X0154421Y0057814D01*
X0161634Y0057814D01*
X0162270Y0057178D01*
X0163586Y0056633D01*
X0165010Y0056633D01*
X0166327Y0057178D01*
X0166748Y0057599D01*
X0166998Y0057349D01*
X0166998Y0048478D01*
X0166362Y0047842D01*
X0165817Y0046526D01*
X0165817Y0045101D01*
X0166362Y0043785D01*
X0166934Y0043214D01*
X0152892Y0043214D01*
X0151798Y0044308D01*
X0151798Y0053791D01*
X0151433Y0054673D01*
X0150758Y0055348D01*
X0149298Y0056808D01*
X0149298Y0070354D01*
X0149305Y0070371D01*
X0149298Y0070831D01*
X0149298Y0071291D01*
X0149291Y0071308D01*
X0149291Y0071325D01*
X0149109Y0071748D01*
X0148933Y0072173D01*
X0148920Y0072186D01*
X0148913Y0072202D01*
X0148583Y0072523D01*
X0148258Y0072848D01*
X0148241Y0072855D01*
X0142200Y0078726D01*
X0142247Y0106722D01*
X0142247Y0106520D02*
X0142449Y0106520D01*
X0142244Y0104921D02*
X0169198Y0104921D01*
X0169198Y0103323D02*
X0142242Y0103323D01*
X0142239Y0101724D02*
X0157644Y0101724D01*
X0155816Y0100126D02*
X0142236Y0100126D01*
X0142233Y0098527D02*
X0154218Y0098527D01*
X0152762Y0096929D02*
X0142231Y0096929D01*
X0142228Y0095330D02*
X0152498Y0095330D01*
X0152498Y0093732D02*
X0142225Y0093732D01*
X0142223Y0092133D02*
X0152498Y0092133D01*
X0152498Y0090535D02*
X0142220Y0090535D01*
X0142217Y0088936D02*
X0152498Y0088936D01*
X0152498Y0087338D02*
X0142214Y0087338D01*
X0142212Y0085739D02*
X0152498Y0085739D01*
X0152498Y0084141D02*
X0142209Y0084141D01*
X0142206Y0082542D02*
X0152498Y0082542D01*
X0152498Y0080944D02*
X0142204Y0080944D01*
X0142201Y0079345D02*
X0152498Y0079345D01*
X0152498Y0077747D02*
X0143208Y0077747D01*
X0144853Y0076148D02*
X0152498Y0076148D01*
X0152498Y0074550D02*
X0146497Y0074550D01*
X0148142Y0072951D02*
X0152498Y0072951D01*
X0152498Y0071353D02*
X0149279Y0071353D01*
X0149298Y0069754D02*
X0152498Y0069754D01*
X0152498Y0068156D02*
X0149298Y0068156D01*
X0149298Y0066557D02*
X0152498Y0066557D01*
X0152498Y0064959D02*
X0149298Y0064959D01*
X0149298Y0063360D02*
X0152498Y0063360D01*
X0152498Y0061762D02*
X0149298Y0061762D01*
X0149298Y0060163D02*
X0152498Y0060163D01*
X0153153Y0058565D02*
X0149298Y0058565D01*
X0149298Y0056966D02*
X0162781Y0056966D01*
X0165816Y0056966D02*
X0166998Y0056966D01*
X0166998Y0055368D02*
X0150738Y0055368D01*
X0151798Y0053769D02*
X0166998Y0053769D01*
X0166998Y0052171D02*
X0151798Y0052171D01*
X0151798Y0050572D02*
X0166998Y0050572D01*
X0166998Y0048974D02*
X0151798Y0048974D01*
X0151798Y0047375D02*
X0166169Y0047375D01*
X0165817Y0045777D02*
X0151798Y0045777D01*
X0151928Y0044178D02*
X0166200Y0044178D01*
X0169398Y0045814D02*
X0169398Y0059614D01*
X0169598Y0059814D01*
X0172957Y0058565D02*
X0179498Y0058565D01*
X0179498Y0060163D02*
X0173179Y0060163D01*
X0173179Y0060526D02*
X0172679Y0061733D01*
X0172710Y0061733D01*
X0174027Y0062278D01*
X0175034Y0063285D01*
X0175579Y0064601D01*
X0175579Y0066026D01*
X0175479Y0066269D01*
X0175770Y0065978D01*
X0177086Y0065433D01*
X0178510Y0065433D01*
X0179498Y0065842D01*
X0179498Y0039912D01*
X0166898Y0027312D01*
X0166898Y0029095D01*
X0164379Y0031614D01*
X0160817Y0031614D01*
X0158298Y0029095D01*
X0158298Y0025533D01*
X0160817Y0023014D01*
X0163498Y0023014D01*
X0163498Y0021795D01*
X0163298Y0021595D01*
X0163298Y0021136D01*
X0162798Y0019929D01*
X0162798Y0013914D01*
X0148298Y0013914D01*
X0148298Y0041020D01*
X0149864Y0039454D01*
X0150539Y0038779D01*
X0151421Y0038414D01*
X0172534Y0038414D01*
X0173170Y0037778D01*
X0174486Y0037233D01*
X0175910Y0037233D01*
X0177227Y0037778D01*
X0178234Y0038785D01*
X0178779Y0040101D01*
X0178779Y0041526D01*
X0178234Y0042842D01*
X0177227Y0043850D01*
X0175910Y0044395D01*
X0174486Y0044395D01*
X0173170Y0043850D01*
X0172534Y0043214D01*
X0171863Y0043214D01*
X0172434Y0043785D01*
X0172979Y0045101D01*
X0172979Y0046526D01*
X0172434Y0047842D01*
X0171798Y0048478D01*
X0171798Y0056949D01*
X0172634Y0057785D01*
X0173179Y0059101D01*
X0173179Y0060526D01*
X0172780Y0061762D02*
X0179498Y0061762D01*
X0179498Y0063360D02*
X0175065Y0063360D01*
X0175579Y0064959D02*
X0179498Y0064959D01*
X0177798Y0069014D02*
X0177898Y0069114D01*
X0177898Y0116914D01*
X0172898Y0121914D01*
X0172898Y0125914D01*
X0175298Y0128314D01*
X0196998Y0128314D01*
X0203398Y0134714D01*
X0203398Y0152514D01*
X0208798Y0157914D01*
X0208798Y0164914D01*
X0206180Y0162468D02*
X0196798Y0162468D01*
X0196798Y0164066D02*
X0205273Y0164066D01*
X0205217Y0164201D02*
X0205762Y0162885D01*
X0206398Y0162249D01*
X0206398Y0158908D01*
X0202039Y0154548D01*
X0201364Y0153873D01*
X0200998Y0152991D01*
X0200998Y0135708D01*
X0196004Y0130714D01*
X0186898Y0130714D01*
X0186898Y0131800D01*
X0187786Y0131433D01*
X0189210Y0131433D01*
X0190527Y0131978D01*
X0191534Y0132985D01*
X0191584Y0133105D01*
X0195758Y0137279D01*
X0196433Y0137954D01*
X0196798Y0138836D01*
X0196798Y0175420D01*
X0203858Y0182479D01*
X0204533Y0183154D01*
X0204898Y0184036D01*
X0204898Y0185049D01*
X0205534Y0185685D01*
X0206079Y0187001D01*
X0206079Y0188426D01*
X0205712Y0189314D01*
X0246143Y0189314D01*
X0246362Y0188785D01*
X0247370Y0187778D01*
X0248686Y0187233D01*
X0250110Y0187233D01*
X0251427Y0187778D01*
X0252434Y0188785D01*
X0252979Y0190101D01*
X0252979Y0191526D01*
X0252434Y0192842D01*
X0251963Y0193314D01*
X0254398Y0193314D01*
X0254398Y0178934D01*
X0253470Y0178550D01*
X0252462Y0177542D01*
X0251917Y0176226D01*
X0251917Y0174801D01*
X0252462Y0173485D01*
X0253098Y0172849D01*
X0253098Y0172644D01*
X0252010Y0173095D01*
X0250586Y0173095D01*
X0249938Y0172827D01*
X0249938Y0173610D01*
X0249816Y0174068D01*
X0249579Y0174478D01*
X0249244Y0174813D01*
X0248833Y0175050D01*
X0248375Y0175173D01*
X0248207Y0175173D01*
X0249427Y0175678D01*
X0250434Y0176685D01*
X0250979Y0178001D01*
X0250979Y0179426D01*
X0250434Y0180742D01*
X0249427Y0181750D01*
X0248110Y0182295D01*
X0246686Y0182295D01*
X0245370Y0181750D01*
X0244362Y0180742D01*
X0243817Y0179426D01*
X0243817Y0179014D01*
X0215063Y0179014D01*
X0214427Y0179650D01*
X0213110Y0180195D01*
X0211686Y0180195D01*
X0210370Y0179650D01*
X0209362Y0178642D01*
X0208817Y0177326D01*
X0208817Y0175901D01*
X0209362Y0174585D01*
X0210370Y0173578D01*
X0210866Y0173372D01*
X0210570Y0173250D01*
X0209562Y0172242D01*
X0209017Y0170926D01*
X0209017Y0169501D01*
X0209434Y0168495D01*
X0208086Y0168495D01*
X0206770Y0167950D01*
X0205762Y0166942D01*
X0205217Y0165626D01*
X0205217Y0164201D01*
X0205233Y0165665D02*
X0196798Y0165665D01*
X0196798Y0167263D02*
X0206083Y0167263D01*
X0209282Y0168862D02*
X0196798Y0168862D01*
X0196798Y0170460D02*
X0209017Y0170460D01*
X0209486Y0172059D02*
X0196798Y0172059D01*
X0196798Y0173657D02*
X0210290Y0173657D01*
X0209084Y0175256D02*
X0196798Y0175256D01*
X0198233Y0176854D02*
X0208817Y0176854D01*
X0209284Y0178453D02*
X0199831Y0178453D01*
X0201430Y0180051D02*
X0211340Y0180051D01*
X0213457Y0180051D02*
X0244076Y0180051D01*
X0245270Y0181650D02*
X0203028Y0181650D01*
X0204572Y0183248D02*
X0254398Y0183248D01*
X0254398Y0181650D02*
X0249526Y0181650D01*
X0251498Y0181614D02*
X0248298Y0184614D01*
X0236398Y0180714D01*
X0230797Y0174214D02*
X0230713Y0174068D01*
X0230590Y0173610D01*
X0230590Y0172585D01*
X0230590Y0171561D01*
X0230713Y0171103D01*
X0230769Y0171006D01*
X0230690Y0170927D01*
X0230690Y0168686D01*
X0230479Y0168686D01*
X0230479Y0169026D01*
X0229934Y0170342D01*
X0228927Y0171350D01*
X0227610Y0171895D01*
X0226186Y0171895D01*
X0224870Y0171350D01*
X0223862Y0170342D01*
X0223317Y0169026D01*
X0223317Y0167627D01*
X0214998Y0159308D01*
X0214998Y0167549D01*
X0215634Y0168185D01*
X0216179Y0169501D01*
X0216179Y0170926D01*
X0215634Y0172242D01*
X0214627Y0173250D01*
X0214130Y0173455D01*
X0214427Y0173578D01*
X0215063Y0174214D01*
X0230797Y0174214D01*
X0230603Y0173657D02*
X0214506Y0173657D01*
X0215710Y0172059D02*
X0230590Y0172059D01*
X0230590Y0172585D02*
X0240264Y0172585D01*
X0240264Y0172585D01*
X0230590Y0172585D01*
X0230690Y0170460D02*
X0229816Y0170460D01*
X0230479Y0168862D02*
X0230690Y0168862D01*
X0226898Y0168314D02*
X0226898Y0166286D01*
X0225371Y0166286D01*
X0209398Y0150314D01*
X0209398Y0131514D01*
X0201798Y0123914D01*
X0201798Y0100214D01*
X0198598Y0097014D01*
X0198598Y0085614D01*
X0198698Y0085514D01*
X0198698Y0071514D01*
X0202279Y0071635D02*
X0202279Y0070801D01*
X0201734Y0069485D01*
X0200727Y0068478D01*
X0199410Y0067933D01*
X0197986Y0067933D01*
X0197198Y0068259D01*
X0197198Y0057936D01*
X0196833Y0057054D01*
X0196676Y0056898D01*
X0196676Y0055762D01*
X0196101Y0054374D01*
X0195038Y0053311D01*
X0193650Y0052736D01*
X0192147Y0052736D01*
X0190758Y0053311D01*
X0189695Y0054374D01*
X0189120Y0055762D01*
X0189120Y0057265D01*
X0189695Y0058654D01*
X0190758Y0059717D01*
X0192147Y0060292D01*
X0192398Y0060292D01*
X0192398Y0078149D01*
X0192227Y0077978D01*
X0190910Y0077433D01*
X0189486Y0077433D01*
X0188170Y0077978D01*
X0187698Y0078449D01*
X0187698Y0037398D01*
X0187074Y0035891D01*
X0171898Y0020715D01*
X0171898Y0018033D01*
X0170998Y0017133D01*
X0170998Y0013914D01*
X0221198Y0013914D01*
X0221198Y0024840D01*
X0221118Y0025275D01*
X0221198Y0025648D01*
X0221198Y0026029D01*
X0221348Y0026391D01*
X0221348Y0030578D01*
X0224834Y0034064D01*
X0229763Y0034064D01*
X0233248Y0030578D01*
X0233248Y0025649D01*
X0229763Y0022164D01*
X0229398Y0022164D01*
X0229398Y0013914D01*
X0270990Y0013914D01*
X0269870Y0014378D01*
X0268862Y0015385D01*
X0268317Y0016701D01*
X0268317Y0018126D01*
X0268862Y0019442D01*
X0269870Y0020450D01*
X0271186Y0020995D01*
X0272610Y0020995D01*
X0273898Y0020461D01*
X0273898Y0020614D01*
X0279198Y0020614D01*
X0279198Y0021014D01*
X0273898Y0021014D01*
X0273898Y0021247D01*
X0274034Y0022102D01*
X0274301Y0022925D01*
X0274694Y0023696D01*
X0275203Y0024397D01*
X0275815Y0025009D01*
X0276515Y0025518D01*
X0277214Y0025874D01*
X0276339Y0026236D01*
X0274820Y0027755D01*
X0274713Y0028014D01*
X0242941Y0028014D01*
X0241912Y0028440D01*
X0241124Y0029228D01*
X0238431Y0031921D01*
X0238172Y0031814D01*
X0236024Y0031814D01*
X0234039Y0032636D01*
X0232520Y0034155D01*
X0231698Y0036140D01*
X0231698Y0038288D01*
X0232520Y0040273D01*
X0234039Y0041792D01*
X0234482Y0041975D01*
X0234408Y0062640D01*
X0233762Y0063285D01*
X0233217Y0064601D01*
X0233217Y0066026D01*
X0233762Y0067342D01*
X0234770Y0068350D01*
X0236086Y0068895D01*
X0237510Y0068895D01*
X0238827Y0068350D01*
X0239834Y0067342D01*
X0240379Y0066026D01*
X0240379Y0064601D01*
X0239834Y0063285D01*
X0239208Y0062659D01*
X0239281Y0042154D01*
X0240157Y0041792D01*
X0241676Y0040273D01*
X0242498Y0038288D01*
X0242498Y0036140D01*
X0242391Y0035881D01*
X0244658Y0033614D01*
X0258661Y0033614D01*
X0258120Y0034155D01*
X0257298Y0036140D01*
X0257298Y0038288D01*
X0258120Y0040273D01*
X0259639Y0041792D01*
X0261624Y0042614D01*
X0263772Y0042614D01*
X0265757Y0041792D01*
X0266166Y0041382D01*
X0266117Y0041501D01*
X0266117Y0042926D01*
X0266662Y0044242D01*
X0267298Y0044878D01*
X0267298Y0045867D01*
X0267236Y0045836D01*
X0266480Y0045590D01*
X0265695Y0045466D01*
X0265581Y0045466D01*
X0265581Y0050231D01*
X0265015Y0050231D01*
X0260250Y0050231D01*
X0260250Y0050116D01*
X0260374Y0049332D01*
X0260620Y0048576D01*
X0260981Y0047868D01*
X0261448Y0047225D01*
X0262010Y0046663D01*
X0262652Y0046196D01*
X0263360Y0045836D01*
X0264116Y0045590D01*
X0264901Y0045466D01*
X0265015Y0045466D01*
X0265015Y0050231D01*
X0265015Y0050796D01*
X0260250Y0050796D01*
X0260250Y0050911D01*
X0260374Y0051696D01*
X0260620Y0052452D01*
X0260981Y0053159D01*
X0261448Y0053802D01*
X0262010Y0054364D01*
X0262652Y0054831D01*
X0263360Y0055192D01*
X0264116Y0055437D01*
X0264901Y0055562D01*
X0265015Y0055562D01*
X0265015Y0050796D01*
X0265581Y0050796D01*
X0265581Y0055562D01*
X0265695Y0055562D01*
X0266480Y0055437D01*
X0267236Y0055192D01*
X0267944Y0054831D01*
X0268298Y0054574D01*
X0268298Y0113314D01*
X0249398Y0113314D01*
X0249398Y0117110D01*
X0248842Y0116555D01*
X0241171Y0116555D01*
X0239434Y0114817D01*
X0239404Y0102272D01*
X0240034Y0101642D01*
X0240579Y0100326D01*
X0240579Y0098901D01*
X0240034Y0097585D01*
X0239027Y0096578D01*
X0238123Y0096203D01*
X0238279Y0095826D01*
X0238279Y0094401D01*
X0237734Y0093085D01*
X0236727Y0092078D01*
X0236141Y0091835D01*
X0236334Y0091642D01*
X0236879Y0090326D01*
X0236879Y0088901D01*
X0236334Y0087585D01*
X0235327Y0086578D01*
X0234010Y0086033D01*
X0232586Y0086033D01*
X0231270Y0086578D01*
X0230298Y0087549D01*
X0230027Y0087278D01*
X0228710Y0086733D01*
X0227286Y0086733D01*
X0225970Y0087278D01*
X0224962Y0088285D01*
X0224417Y0089601D01*
X0224417Y0090601D01*
X0224264Y0090754D01*
X0223898Y0091636D01*
X0223898Y0110320D01*
X0221964Y0112254D01*
X0221598Y0113136D01*
X0221598Y0123591D01*
X0221964Y0124473D01*
X0228039Y0130548D01*
X0228921Y0130914D01*
X0230590Y0130914D01*
X0230590Y0131640D01*
X0240264Y0131640D01*
X0240264Y0131641D01*
X0240264Y0134228D01*
X0240264Y0134790D01*
X0230590Y0134790D01*
X0230590Y0133766D01*
X0230713Y0133308D01*
X0230766Y0133215D01*
X0230713Y0133123D01*
X0230590Y0132665D01*
X0230590Y0131641D01*
X0240264Y0131641D01*
X0240264Y0131641D01*
X0240264Y0134790D01*
X0240264Y0134790D01*
X0240264Y0134790D01*
X0230590Y0134790D01*
X0230590Y0135814D01*
X0230713Y0136272D01*
X0230766Y0136365D01*
X0230713Y0136458D01*
X0230590Y0136915D01*
X0230590Y0137940D01*
X0240264Y0137940D01*
X0240264Y0140527D01*
X0240264Y0141089D01*
X0240264Y0141089D01*
X0230590Y0141089D01*
X0230590Y0140065D01*
X0230713Y0139607D01*
X0230766Y0139515D01*
X0230713Y0139422D01*
X0230590Y0138964D01*
X0230590Y0137940D01*
X0240264Y0137940D01*
X0240264Y0137940D01*
X0240264Y0137940D01*
X0240264Y0141089D01*
X0240264Y0141089D01*
X0230590Y0141089D01*
X0230590Y0141914D01*
X0221998Y0141914D01*
X0221998Y0128536D01*
X0221633Y0127654D01*
X0215098Y0121120D01*
X0215098Y0094836D01*
X0214733Y0093954D01*
X0210098Y0089320D01*
X0210098Y0054078D01*
X0210834Y0053342D01*
X0211379Y0052026D01*
X0211379Y0050601D01*
X0210834Y0049285D01*
X0209827Y0048278D01*
X0208510Y0047733D01*
X0207086Y0047733D01*
X0205770Y0048278D01*
X0204762Y0049285D01*
X0204217Y0050601D01*
X0204217Y0052026D01*
X0204762Y0053342D01*
X0205298Y0053878D01*
X0205298Y0072449D01*
X0205027Y0072178D01*
X0203710Y0071633D01*
X0202286Y0071633D01*
X0202279Y0071635D01*
X0202279Y0071353D02*
X0205298Y0071353D01*
X0205298Y0069754D02*
X0201845Y0069754D01*
X0199949Y0068156D02*
X0205298Y0068156D01*
X0205298Y0066557D02*
X0197198Y0066557D01*
X0197198Y0064959D02*
X0205298Y0064959D01*
X0205298Y0063360D02*
X0197198Y0063360D01*
X0197198Y0061762D02*
X0205298Y0061762D01*
X0205298Y0060163D02*
X0197198Y0060163D01*
X0197198Y0058565D02*
X0205298Y0058565D01*
X0205298Y0056966D02*
X0196745Y0056966D01*
X0196513Y0055368D02*
X0205298Y0055368D01*
X0205189Y0053769D02*
X0195496Y0053769D01*
X0192898Y0056514D02*
X0194798Y0058414D01*
X0194798Y0121114D01*
X0206498Y0132814D01*
X0206498Y0151614D01*
X0212598Y0157714D01*
X0212598Y0170214D01*
X0215914Y0168862D02*
X0223317Y0168862D01*
X0222954Y0167263D02*
X0214998Y0167263D01*
X0214998Y0165665D02*
X0221355Y0165665D01*
X0219757Y0164066D02*
X0214998Y0164066D01*
X0214998Y0162468D02*
X0218158Y0162468D01*
X0216560Y0160869D02*
X0214998Y0160869D01*
X0206398Y0160869D02*
X0196798Y0160869D01*
X0196798Y0159271D02*
X0206398Y0159271D01*
X0205163Y0157672D02*
X0196798Y0157672D01*
X0196798Y0156074D02*
X0203564Y0156074D01*
X0201966Y0154475D02*
X0196798Y0154475D01*
X0196798Y0152877D02*
X0200998Y0152877D01*
X0200998Y0151278D02*
X0196798Y0151278D01*
X0196798Y0149680D02*
X0200998Y0149680D01*
X0200998Y0148081D02*
X0196798Y0148081D01*
X0196798Y0146483D02*
X0200998Y0146483D01*
X0200998Y0144884D02*
X0196798Y0144884D01*
X0196798Y0143286D02*
X0200998Y0143286D01*
X0200998Y0141687D02*
X0196798Y0141687D01*
X0196798Y0140089D02*
X0200998Y0140089D01*
X0200998Y0138490D02*
X0196655Y0138490D01*
X0195370Y0136892D02*
X0200998Y0136892D01*
X0200583Y0135293D02*
X0193772Y0135293D01*
X0192173Y0133695D02*
X0198985Y0133695D01*
X0197386Y0132096D02*
X0190645Y0132096D01*
X0190198Y0135114D02*
X0194398Y0139314D01*
X0194398Y0176414D01*
X0202498Y0184514D01*
X0202498Y0187714D01*
X0205849Y0186446D02*
X0254398Y0186446D01*
X0254398Y0188044D02*
X0251693Y0188044D01*
X0252789Y0189643D02*
X0254398Y0189643D01*
X0254398Y0191241D02*
X0252979Y0191241D01*
X0252435Y0192840D02*
X0254398Y0192840D01*
X0259498Y0196414D02*
X0259498Y0159987D01*
X0240264Y0159987D01*
X0240264Y0156837D02*
X0231075Y0156837D01*
X0229098Y0158814D01*
X0226398Y0153714D02*
X0218298Y0153714D01*
X0213198Y0148614D01*
X0213198Y0130614D01*
X0205798Y0123214D01*
X0205798Y0099614D01*
X0208498Y0102514D02*
X0209598Y0101414D01*
X0209598Y0097614D01*
X0206398Y0094414D01*
X0202998Y0094414D01*
X0202998Y0075214D01*
X0210098Y0074550D02*
X0268298Y0074550D01*
X0268298Y0076148D02*
X0210098Y0076148D01*
X0210098Y0077747D02*
X0268298Y0077747D01*
X0268298Y0079345D02*
X0210098Y0079345D01*
X0210098Y0080944D02*
X0268298Y0080944D01*
X0268298Y0082542D02*
X0210098Y0082542D01*
X0210098Y0084141D02*
X0268298Y0084141D01*
X0268298Y0085739D02*
X0210098Y0085739D01*
X0210098Y0087338D02*
X0225910Y0087338D01*
X0224693Y0088936D02*
X0210098Y0088936D01*
X0211313Y0090535D02*
X0224417Y0090535D01*
X0223898Y0092133D02*
X0212912Y0092133D01*
X0214510Y0093732D02*
X0223898Y0093732D01*
X0223898Y0095330D02*
X0215098Y0095330D01*
X0215098Y0096929D02*
X0223898Y0096929D01*
X0223898Y0098527D02*
X0215098Y0098527D01*
X0215098Y0100126D02*
X0223898Y0100126D01*
X0223898Y0101724D02*
X0215098Y0101724D01*
X0215098Y0103323D02*
X0223898Y0103323D01*
X0223898Y0104921D02*
X0215098Y0104921D01*
X0215098Y0106520D02*
X0223898Y0106520D01*
X0223898Y0108118D02*
X0215098Y0108118D01*
X0215098Y0109717D02*
X0223898Y0109717D01*
X0222902Y0111315D02*
X0215098Y0111315D01*
X0215098Y0112914D02*
X0221690Y0112914D01*
X0221598Y0114513D02*
X0215098Y0114513D01*
X0215098Y0116111D02*
X0221598Y0116111D01*
X0221598Y0117710D02*
X0215098Y0117710D01*
X0215098Y0119308D02*
X0221598Y0119308D01*
X0221598Y0120907D02*
X0215098Y0120907D01*
X0216484Y0122505D02*
X0221598Y0122505D01*
X0221810Y0124104D02*
X0218082Y0124104D01*
X0219681Y0125702D02*
X0223192Y0125702D01*
X0224791Y0127301D02*
X0221279Y0127301D01*
X0221998Y0128899D02*
X0226389Y0128899D01*
X0227988Y0130498D02*
X0221998Y0130498D01*
X0221998Y0132096D02*
X0230590Y0132096D01*
X0230325Y0131641D02*
X0240264Y0131641D01*
X0249938Y0131641D01*
X0249938Y0132665D01*
X0249816Y0133123D01*
X0249762Y0133215D01*
X0249816Y0133308D01*
X0249938Y0133766D01*
X0249938Y0134790D01*
X0240264Y0134790D01*
X0240241Y0134814D01*
X0230298Y0134814D01*
X0230298Y0131614D01*
X0230325Y0131641D01*
X0230609Y0133695D02*
X0221998Y0133695D01*
X0221998Y0135293D02*
X0230590Y0135293D01*
X0230298Y0134814D02*
X0230322Y0134790D01*
X0240264Y0134790D01*
X0240264Y0137378D01*
X0240264Y0137940D01*
X0240290Y0137914D01*
X0255398Y0137914D01*
X0257498Y0140014D01*
X0257498Y0146414D01*
X0252798Y0151114D01*
X0249798Y0151114D01*
X0249198Y0150514D01*
X0240264Y0150514D01*
X0240264Y0150538D02*
X0240264Y0149876D01*
X0240264Y0150538D01*
X0230590Y0150538D01*
X0230590Y0149514D01*
X0230713Y0149056D01*
X0230769Y0148959D01*
X0230690Y0148880D01*
X0230690Y0146714D01*
X0228912Y0146714D01*
X0229279Y0147601D01*
X0229279Y0149026D01*
X0228734Y0150342D01*
X0228407Y0150670D01*
X0228427Y0150678D01*
X0229063Y0151314D01*
X0230590Y0151314D01*
X0230590Y0150538D01*
X0240264Y0150538D01*
X0240264Y0150538D01*
X0240264Y0150538D01*
X0240264Y0149876D02*
X0240264Y0149876D01*
X0240264Y0147389D02*
X0250323Y0147389D01*
X0252558Y0149680D02*
X0254398Y0149680D01*
X0254398Y0151278D02*
X0249938Y0151278D01*
X0249938Y0151563D02*
X0249816Y0152020D01*
X0249760Y0152117D01*
X0249838Y0152196D01*
X0249838Y0155179D01*
X0249755Y0155263D01*
X0249838Y0155346D01*
X0249838Y0157587D01*
X0254398Y0157587D01*
X0254398Y0147839D01*
X0252136Y0150101D01*
X0250960Y0150589D01*
X0249938Y0150589D01*
X0249938Y0151563D01*
X0249838Y0152877D02*
X0254398Y0152877D01*
X0254398Y0154475D02*
X0249838Y0154475D01*
X0249838Y0156074D02*
X0254398Y0156074D01*
X0255498Y0163114D02*
X0234798Y0163114D01*
X0240264Y0166286D02*
X0226898Y0166286D01*
X0223980Y0170460D02*
X0216179Y0170460D01*
X0212398Y0176614D02*
X0245298Y0176614D01*
X0247398Y0178714D01*
X0250720Y0180051D02*
X0254398Y0180051D01*
X0253373Y0178453D02*
X0250979Y0178453D01*
X0250504Y0176854D02*
X0252177Y0176854D01*
X0251498Y0175514D02*
X0251498Y0181614D01*
X0254398Y0184847D02*
X0204898Y0184847D01*
X0206079Y0188044D02*
X0247103Y0188044D01*
X0249398Y0190814D02*
X0249398Y0191714D01*
X0198198Y0191714D01*
X0194198Y0187714D01*
X0193356Y0191241D02*
X0191798Y0191241D01*
X0191798Y0192840D02*
X0195930Y0192840D01*
X0191798Y0194438D02*
X0204040Y0194438D01*
X0203517Y0196037D02*
X0191798Y0196037D01*
X0192114Y0197635D02*
X0203728Y0197635D01*
X0204854Y0199234D02*
X0193712Y0199234D01*
X0195311Y0200832D02*
X0206815Y0200832D01*
X0205888Y0202431D02*
X0196909Y0202431D01*
X0198508Y0204029D02*
X0205818Y0204029D01*
X0206648Y0205628D02*
X0200106Y0205628D01*
X0201705Y0207226D02*
X0241107Y0207226D01*
X0242345Y0208825D02*
X0203303Y0208825D01*
X0204902Y0210423D02*
X0246898Y0210423D01*
X0246898Y0208825D02*
X0246452Y0208825D01*
X0246898Y0212022D02*
X0206500Y0212022D01*
X0208099Y0213620D02*
X0246898Y0213620D01*
X0246898Y0215219D02*
X0211868Y0215219D01*
X0212744Y0216817D02*
X0246898Y0216817D01*
X0246898Y0218416D02*
X0212742Y0218416D01*
X0211862Y0220014D02*
X0225433Y0220014D01*
X0224378Y0221613D02*
X0170581Y0221613D01*
X0168995Y0223211D02*
X0224217Y0223211D01*
X0223638Y0224810D02*
X0167396Y0224810D01*
X0165798Y0226408D02*
X0222521Y0226408D01*
X0222317Y0228007D02*
X0164199Y0228007D01*
X0163079Y0229605D02*
X0179127Y0229605D01*
X0177330Y0231204D02*
X0162591Y0231204D01*
X0160434Y0232802D02*
X0176917Y0232802D01*
X0176008Y0234401D02*
X0136909Y0234401D01*
X0138808Y0232802D02*
X0158563Y0232802D01*
X0156405Y0231204D02*
X0139567Y0231204D01*
X0139598Y0229605D02*
X0155917Y0229605D01*
X0156163Y0228007D02*
X0139598Y0228007D01*
X0139598Y0226408D02*
X0157339Y0226408D01*
X0159498Y0229314D02*
X0167098Y0221714D01*
X0181898Y0206814D01*
X0181898Y0175814D01*
X0179398Y0173314D01*
X0179398Y0134414D01*
X0178398Y0133414D01*
X0171998Y0133414D01*
X0166798Y0128214D01*
X0166798Y0119514D01*
X0171598Y0114814D01*
X0171598Y0096214D01*
X0169198Y0093814D01*
X0169198Y0089614D01*
X0171898Y0086914D01*
X0171898Y0085814D01*
X0171998Y0085714D01*
X0171998Y0065314D01*
X0168637Y0066557D02*
X0157298Y0066557D01*
X0157298Y0064959D02*
X0168417Y0064959D01*
X0168802Y0063360D02*
X0166060Y0063360D01*
X0162536Y0063360D02*
X0157298Y0063360D01*
X0154898Y0060214D02*
X0154898Y0095814D01*
X0157798Y0098714D01*
X0159698Y0098714D01*
X0162989Y0100126D02*
X0169198Y0100126D01*
X0169198Y0101724D02*
X0161752Y0101724D01*
X0163279Y0098527D02*
X0169198Y0098527D01*
X0168919Y0096929D02*
X0162835Y0096929D01*
X0160888Y0095330D02*
X0167321Y0095330D01*
X0166798Y0093732D02*
X0157298Y0093732D01*
X0157298Y0092133D02*
X0166798Y0092133D01*
X0166798Y0090535D02*
X0157298Y0090535D01*
X0157298Y0088936D02*
X0166881Y0088936D01*
X0168080Y0087338D02*
X0157298Y0087338D01*
X0157298Y0085739D02*
X0169498Y0085739D01*
X0169598Y0084141D02*
X0157298Y0084141D01*
X0157298Y0082542D02*
X0169598Y0082542D01*
X0169598Y0080944D02*
X0157298Y0080944D01*
X0157298Y0079345D02*
X0169598Y0079345D01*
X0169598Y0077747D02*
X0157298Y0077747D01*
X0157298Y0076148D02*
X0169598Y0076148D01*
X0169598Y0074550D02*
X0157298Y0074550D01*
X0157298Y0072951D02*
X0169598Y0072951D01*
X0169598Y0071353D02*
X0157298Y0071353D01*
X0157298Y0069754D02*
X0169598Y0069754D01*
X0169598Y0068156D02*
X0157298Y0068156D01*
X0154898Y0060214D02*
X0164298Y0060214D01*
X0171815Y0056966D02*
X0179498Y0056966D01*
X0179498Y0055368D02*
X0171798Y0055368D01*
X0171798Y0053769D02*
X0179498Y0053769D01*
X0179498Y0052171D02*
X0171798Y0052171D01*
X0171798Y0050572D02*
X0179498Y0050572D01*
X0179498Y0048974D02*
X0171798Y0048974D01*
X0172628Y0047375D02*
X0179498Y0047375D01*
X0179498Y0045777D02*
X0172979Y0045777D01*
X0172597Y0044178D02*
X0173962Y0044178D01*
X0176434Y0044178D02*
X0179498Y0044178D01*
X0179498Y0042580D02*
X0178343Y0042580D01*
X0178779Y0040981D02*
X0179498Y0040981D01*
X0178969Y0039382D02*
X0178481Y0039382D01*
X0177370Y0037784D02*
X0177233Y0037784D01*
X0175772Y0036185D02*
X0148298Y0036185D01*
X0148298Y0034587D02*
X0174173Y0034587D01*
X0172575Y0032988D02*
X0148298Y0032988D01*
X0148298Y0031390D02*
X0160593Y0031390D01*
X0158995Y0029791D02*
X0148298Y0029791D01*
X0148298Y0028193D02*
X0158298Y0028193D01*
X0158298Y0026594D02*
X0148298Y0026594D01*
X0148298Y0024996D02*
X0158835Y0024996D01*
X0159379Y0024114D02*
X0155817Y0024114D01*
X0153298Y0021595D01*
X0153298Y0018033D01*
X0155817Y0015514D01*
X0159379Y0015514D01*
X0161898Y0018033D01*
X0161898Y0021595D01*
X0159379Y0024114D01*
X0160096Y0023397D02*
X0160433Y0023397D01*
X0161694Y0021799D02*
X0163498Y0021799D01*
X0162910Y0020200D02*
X0161898Y0020200D01*
X0161898Y0018602D02*
X0162798Y0018602D01*
X0162798Y0017003D02*
X0160869Y0017003D01*
X0162798Y0015405D02*
X0148298Y0015405D01*
X0148298Y0017003D02*
X0154327Y0017003D01*
X0153298Y0018602D02*
X0148298Y0018602D01*
X0148298Y0020200D02*
X0153298Y0020200D01*
X0153502Y0021799D02*
X0148298Y0021799D01*
X0148298Y0023397D02*
X0155101Y0023397D01*
X0164603Y0031390D02*
X0170976Y0031390D01*
X0169378Y0029791D02*
X0166202Y0029791D01*
X0166898Y0028193D02*
X0167779Y0028193D01*
X0172981Y0021799D02*
X0175461Y0021799D01*
X0174898Y0021236D02*
X0174898Y0019414D01*
X0179298Y0019414D01*
X0179298Y0023814D01*
X0177476Y0023814D01*
X0174898Y0021236D01*
X0174898Y0020200D02*
X0171898Y0020200D01*
X0171898Y0018602D02*
X0174898Y0018602D01*
X0174898Y0019414D02*
X0174898Y0017591D01*
X0177476Y0015014D01*
X0179298Y0015014D01*
X0179298Y0019414D01*
X0179298Y0019414D01*
X0179298Y0019414D01*
X0179298Y0023814D01*
X0181121Y0023814D01*
X0183698Y0021236D01*
X0183698Y0019414D01*
X0179298Y0019414D01*
X0179298Y0019414D01*
X0174898Y0019414D01*
X0175486Y0017003D02*
X0170998Y0017003D01*
X0170998Y0015405D02*
X0177085Y0015405D01*
X0179298Y0015405D02*
X0179298Y0015405D01*
X0179298Y0015014D02*
X0181121Y0015014D01*
X0183698Y0017591D01*
X0183698Y0019414D01*
X0179298Y0019414D01*
X0179298Y0019414D01*
X0179298Y0015014D01*
X0179298Y0017003D02*
X0179298Y0017003D01*
X0179298Y0018602D02*
X0179298Y0018602D01*
X0179298Y0020200D02*
X0179298Y0020200D01*
X0179298Y0021799D02*
X0179298Y0021799D01*
X0179298Y0023397D02*
X0179298Y0023397D01*
X0180135Y0024996D02*
X0176179Y0024996D01*
X0177059Y0023397D02*
X0174580Y0023397D01*
X0177777Y0026594D02*
X0179998Y0026594D01*
X0179998Y0025133D02*
X0182517Y0022614D01*
X0186079Y0022614D01*
X0188598Y0025133D01*
X0188598Y0028695D01*
X0186079Y0031214D01*
X0182517Y0031214D01*
X0179998Y0028695D01*
X0179998Y0025133D01*
X0181537Y0023397D02*
X0181733Y0023397D01*
X0183136Y0021799D02*
X0185602Y0021799D01*
X0184998Y0021195D02*
X0184998Y0017633D01*
X0187517Y0015114D01*
X0191079Y0015114D01*
X0193598Y0017633D01*
X0193598Y0021195D01*
X0191079Y0023714D01*
X0187517Y0023714D01*
X0184998Y0021195D01*
X0184998Y0020200D02*
X0183698Y0020200D01*
X0183698Y0018602D02*
X0184998Y0018602D01*
X0185627Y0017003D02*
X0183110Y0017003D01*
X0181512Y0015405D02*
X0187226Y0015405D01*
X0191370Y0015405D02*
X0221198Y0015405D01*
X0221198Y0017003D02*
X0192969Y0017003D01*
X0193598Y0018602D02*
X0221198Y0018602D01*
X0221198Y0020200D02*
X0193598Y0020200D01*
X0192994Y0021799D02*
X0221198Y0021799D01*
X0221198Y0023397D02*
X0191396Y0023397D01*
X0188461Y0024996D02*
X0221170Y0024996D01*
X0221348Y0026594D02*
X0188598Y0026594D01*
X0188598Y0028193D02*
X0221348Y0028193D01*
X0221348Y0029791D02*
X0187502Y0029791D01*
X0184171Y0032988D02*
X0223758Y0032988D01*
X0222160Y0031390D02*
X0182573Y0031390D01*
X0181095Y0029791D02*
X0180974Y0029791D01*
X0179998Y0028193D02*
X0179376Y0028193D01*
X0186863Y0023397D02*
X0187201Y0023397D01*
X0185770Y0034587D02*
X0232341Y0034587D01*
X0231698Y0036185D02*
X0187196Y0036185D01*
X0187698Y0037784D02*
X0231698Y0037784D01*
X0232152Y0039382D02*
X0187698Y0039382D01*
X0187698Y0040981D02*
X0233229Y0040981D01*
X0234480Y0042580D02*
X0187698Y0042580D01*
X0187698Y0044178D02*
X0234474Y0044178D01*
X0234468Y0045777D02*
X0187698Y0045777D01*
X0187698Y0047375D02*
X0234462Y0047375D01*
X0234457Y0048974D02*
X0210522Y0048974D01*
X0211367Y0050572D02*
X0234451Y0050572D01*
X0234445Y0052171D02*
X0211319Y0052171D01*
X0210407Y0053769D02*
X0234439Y0053769D01*
X0234434Y0055368D02*
X0210098Y0055368D01*
X0210098Y0056966D02*
X0234428Y0056966D01*
X0234422Y0058565D02*
X0210098Y0058565D01*
X0210098Y0060163D02*
X0234417Y0060163D01*
X0234411Y0061762D02*
X0210098Y0061762D01*
X0210098Y0063360D02*
X0233731Y0063360D01*
X0233217Y0064959D02*
X0210098Y0064959D01*
X0210098Y0066557D02*
X0233437Y0066557D01*
X0234576Y0068156D02*
X0210098Y0068156D01*
X0210098Y0069754D02*
X0268298Y0069754D01*
X0268298Y0068156D02*
X0239021Y0068156D01*
X0240159Y0066557D02*
X0268298Y0066557D01*
X0268298Y0064959D02*
X0240379Y0064959D01*
X0239865Y0063360D02*
X0268298Y0063360D01*
X0268298Y0061762D02*
X0239211Y0061762D01*
X0239217Y0060163D02*
X0268298Y0060163D01*
X0268298Y0058565D02*
X0239222Y0058565D01*
X0239228Y0056966D02*
X0268298Y0056966D01*
X0268298Y0055368D02*
X0266695Y0055368D01*
X0265581Y0055368D02*
X0265015Y0055368D01*
X0263901Y0055368D02*
X0256595Y0055368D01*
X0256380Y0055437D02*
X0257136Y0055192D01*
X0257844Y0054831D01*
X0258487Y0054364D01*
X0259049Y0053802D01*
X0259516Y0053159D01*
X0259876Y0052452D01*
X0260122Y0051696D01*
X0260246Y0050911D01*
X0260246Y0050796D01*
X0255481Y0050796D01*
X0255481Y0050231D01*
X0260246Y0050231D01*
X0260246Y0050116D01*
X0260122Y0049332D01*
X0259876Y0048576D01*
X0259516Y0047868D01*
X0259049Y0047225D01*
X0258487Y0046663D01*
X0257844Y0046196D01*
X0257136Y0045836D01*
X0256380Y0045590D01*
X0255595Y0045466D01*
X0255481Y0045466D01*
X0255481Y0050231D01*
X0254915Y0050231D01*
X0250150Y0050231D01*
X0250150Y0050116D01*
X0250274Y0049332D01*
X0250520Y0048576D01*
X0250881Y0047868D01*
X0251348Y0047225D01*
X0251910Y0046663D01*
X0252552Y0046196D01*
X0253260Y0045836D01*
X0254016Y0045590D01*
X0254801Y0045466D01*
X0254915Y0045466D01*
X0254915Y0050231D01*
X0254915Y0050796D01*
X0250150Y0050796D01*
X0250150Y0050911D01*
X0250274Y0051696D01*
X0250520Y0052452D01*
X0250881Y0053159D01*
X0251348Y0053802D01*
X0251910Y0054364D01*
X0252552Y0054831D01*
X0253260Y0055192D01*
X0254016Y0055437D01*
X0254801Y0055562D01*
X0254915Y0055562D01*
X0254915Y0050796D01*
X0255481Y0050796D01*
X0255481Y0055562D01*
X0255595Y0055562D01*
X0256380Y0055437D01*
X0255481Y0055368D02*
X0254915Y0055368D01*
X0253801Y0055368D02*
X0239234Y0055368D01*
X0239240Y0053769D02*
X0251324Y0053769D01*
X0250429Y0052171D02*
X0239245Y0052171D01*
X0239251Y0050572D02*
X0254915Y0050572D01*
X0255481Y0050572D02*
X0265015Y0050572D01*
X0265015Y0048974D02*
X0265581Y0048974D01*
X0265581Y0047375D02*
X0265015Y0047375D01*
X0265015Y0045777D02*
X0265581Y0045777D01*
X0267054Y0045777D02*
X0267298Y0045777D01*
X0266636Y0044178D02*
X0239274Y0044178D01*
X0239280Y0042580D02*
X0261541Y0042580D01*
X0263855Y0042580D02*
X0266117Y0042580D01*
X0269698Y0042214D02*
X0269698Y0045514D01*
X0270698Y0046514D01*
X0270698Y0120414D01*
X0271198Y0120914D01*
X0271198Y0139314D01*
X0269198Y0141314D01*
X0274298Y0145714D02*
X0274398Y0145614D01*
X0274398Y0038314D01*
X0271898Y0035814D01*
X0263542Y0045777D02*
X0256954Y0045777D01*
X0255481Y0045777D02*
X0254915Y0045777D01*
X0253442Y0045777D02*
X0239268Y0045777D01*
X0239262Y0047375D02*
X0251239Y0047375D01*
X0250391Y0048974D02*
X0239257Y0048974D01*
X0240968Y0040981D02*
X0258829Y0040981D01*
X0257752Y0039382D02*
X0242045Y0039382D01*
X0242498Y0037784D02*
X0257298Y0037784D01*
X0257298Y0036185D02*
X0242498Y0036185D01*
X0243685Y0034587D02*
X0257941Y0034587D01*
X0261624Y0024814D02*
X0259639Y0023992D01*
X0258120Y0022473D01*
X0257298Y0020488D01*
X0257298Y0018340D01*
X0258120Y0016355D01*
X0259639Y0014836D01*
X0261624Y0014014D01*
X0263772Y0014014D01*
X0265757Y0014836D01*
X0267276Y0016355D01*
X0268098Y0018340D01*
X0268098Y0020488D01*
X0267276Y0022473D01*
X0265757Y0023992D01*
X0263772Y0024814D01*
X0261624Y0024814D01*
X0259045Y0023397D02*
X0240893Y0023397D01*
X0240681Y0023609D02*
X0239981Y0024118D01*
X0239209Y0024511D01*
X0238386Y0024778D01*
X0237531Y0024914D01*
X0237298Y0024914D01*
X0237298Y0019614D01*
X0236898Y0019614D01*
X0236898Y0024914D01*
X0236665Y0024914D01*
X0235810Y0024778D01*
X0234987Y0024511D01*
X0234215Y0024118D01*
X0233515Y0023609D01*
X0232903Y0022997D01*
X0232394Y0022296D01*
X0232001Y0021525D01*
X0231734Y0020702D01*
X0231598Y0019847D01*
X0231598Y0019614D01*
X0236898Y0019614D01*
X0236898Y0019214D01*
X0231598Y0019214D01*
X0231598Y0018981D01*
X0231734Y0018126D01*
X0232001Y0017302D01*
X0232394Y0016531D01*
X0232903Y0015831D01*
X0233515Y0015219D01*
X0234215Y0014710D01*
X0234987Y0014317D01*
X0235810Y0014049D01*
X0236665Y0013914D01*
X0236898Y0013914D01*
X0236898Y0019214D01*
X0237298Y0019214D01*
X0237298Y0019614D01*
X0242598Y0019614D01*
X0242598Y0019847D01*
X0242463Y0020702D01*
X0242195Y0021525D01*
X0241802Y0022296D01*
X0241293Y0022997D01*
X0240681Y0023609D01*
X0242056Y0021799D02*
X0257841Y0021799D01*
X0257298Y0020200D02*
X0242542Y0020200D01*
X0242598Y0019214D02*
X0237298Y0019214D01*
X0237298Y0013914D01*
X0237531Y0013914D01*
X0238386Y0014049D01*
X0239209Y0014317D01*
X0239981Y0014710D01*
X0240681Y0015219D01*
X0241293Y0015831D01*
X0241802Y0016531D01*
X0242195Y0017302D01*
X0242463Y0018126D01*
X0242598Y0018981D01*
X0242598Y0019214D01*
X0242538Y0018602D02*
X0257298Y0018602D01*
X0257852Y0017003D02*
X0242043Y0017003D01*
X0240867Y0015405D02*
X0259070Y0015405D01*
X0266326Y0015405D02*
X0268854Y0015405D01*
X0268317Y0017003D02*
X0267545Y0017003D01*
X0268098Y0018602D02*
X0268514Y0018602D01*
X0268098Y0020200D02*
X0269620Y0020200D01*
X0267555Y0021799D02*
X0273986Y0021799D01*
X0274542Y0023397D02*
X0266351Y0023397D01*
X0271898Y0017414D02*
X0274198Y0015114D01*
X0289198Y0015114D01*
X0289398Y0015814D01*
X0275802Y0024996D02*
X0232595Y0024996D01*
X0233248Y0026594D02*
X0275981Y0026594D01*
X0289398Y0038314D02*
X0278898Y0048814D01*
X0278898Y0150414D01*
X0279698Y0155814D02*
X0292198Y0143314D01*
X0314398Y0143314D01*
X0314498Y0143214D01*
X0314498Y0116814D01*
X0313590Y0113314D02*
X0313786Y0113233D01*
X0315210Y0113233D01*
X0315406Y0113314D01*
X0321898Y0113314D01*
X0321898Y0007614D01*
X0317925Y0007614D01*
X0318498Y0008998D01*
X0318498Y0049429D01*
X0317874Y0050936D01*
X0316074Y0052736D01*
X0314921Y0053890D01*
X0313414Y0054514D01*
X0311798Y0054514D01*
X0310850Y0055462D01*
X0302946Y0055462D01*
X0302098Y0054614D01*
X0301698Y0054614D01*
X0300850Y0055462D01*
X0296476Y0055462D01*
X0289398Y0062539D01*
X0289398Y0065914D01*
X0301734Y0065914D01*
X0302370Y0065278D01*
X0303686Y0064733D01*
X0305110Y0064733D01*
X0306427Y0065278D01*
X0307434Y0066285D01*
X0307979Y0067601D01*
X0307979Y0069026D01*
X0307434Y0070342D01*
X0306427Y0071350D01*
X0305110Y0071895D01*
X0303686Y0071895D01*
X0302370Y0071350D01*
X0301734Y0070714D01*
X0289398Y0070714D01*
X0289398Y0113314D01*
X0313590Y0113314D01*
X0321898Y0112914D02*
X0289398Y0112914D01*
X0289398Y0111315D02*
X0321898Y0111315D01*
X0321898Y0109717D02*
X0289398Y0109717D01*
X0289398Y0108118D02*
X0321898Y0108118D01*
X0321898Y0106520D02*
X0289398Y0106520D01*
X0289398Y0104921D02*
X0321898Y0104921D01*
X0321898Y0103323D02*
X0289398Y0103323D01*
X0289398Y0101724D02*
X0321898Y0101724D01*
X0321898Y0100126D02*
X0289398Y0100126D01*
X0289398Y0098527D02*
X0321898Y0098527D01*
X0321898Y0096929D02*
X0289398Y0096929D01*
X0289398Y0095330D02*
X0321898Y0095330D01*
X0321898Y0093732D02*
X0289398Y0093732D01*
X0289398Y0092133D02*
X0321898Y0092133D01*
X0321898Y0090535D02*
X0289398Y0090535D01*
X0289398Y0088936D02*
X0321898Y0088936D01*
X0321898Y0087338D02*
X0289398Y0087338D01*
X0289398Y0085739D02*
X0321898Y0085739D01*
X0321898Y0084141D02*
X0289398Y0084141D01*
X0289398Y0082542D02*
X0321898Y0082542D01*
X0321898Y0080944D02*
X0289398Y0080944D01*
X0289398Y0079345D02*
X0321898Y0079345D01*
X0321898Y0077747D02*
X0289398Y0077747D01*
X0289398Y0076148D02*
X0321898Y0076148D01*
X0321898Y0074550D02*
X0289398Y0074550D01*
X0289398Y0072951D02*
X0321898Y0072951D01*
X0321898Y0071353D02*
X0306419Y0071353D01*
X0307678Y0069754D02*
X0321898Y0069754D01*
X0321898Y0068156D02*
X0307979Y0068156D01*
X0307547Y0066557D02*
X0321898Y0066557D01*
X0321898Y0064959D02*
X0305656Y0064959D01*
X0303140Y0064959D02*
X0289398Y0064959D01*
X0289398Y0063360D02*
X0321898Y0063360D01*
X0321898Y0061762D02*
X0290176Y0061762D01*
X0291774Y0060163D02*
X0321898Y0060163D01*
X0321898Y0058565D02*
X0293373Y0058565D01*
X0294971Y0056966D02*
X0321898Y0056966D01*
X0321898Y0055368D02*
X0310944Y0055368D01*
X0315041Y0053769D02*
X0321898Y0053769D01*
X0321898Y0052171D02*
X0316640Y0052171D01*
X0318025Y0050572D02*
X0321898Y0050572D01*
X0321898Y0048974D02*
X0318498Y0048974D01*
X0318498Y0047375D02*
X0321898Y0047375D01*
X0321898Y0045777D02*
X0318498Y0045777D01*
X0318498Y0044178D02*
X0321898Y0044178D01*
X0321898Y0042580D02*
X0318498Y0042580D01*
X0318498Y0040981D02*
X0321898Y0040981D01*
X0321898Y0039382D02*
X0318498Y0039382D01*
X0318498Y0037784D02*
X0321898Y0037784D01*
X0321898Y0036185D02*
X0318498Y0036185D01*
X0318498Y0034587D02*
X0321898Y0034587D01*
X0321898Y0032988D02*
X0318498Y0032988D01*
X0318498Y0031390D02*
X0321898Y0031390D01*
X0321898Y0029791D02*
X0318498Y0029791D01*
X0318498Y0028193D02*
X0321898Y0028193D01*
X0321898Y0026594D02*
X0318498Y0026594D01*
X0318498Y0024996D02*
X0321898Y0024996D01*
X0321898Y0023397D02*
X0318498Y0023397D01*
X0318498Y0021799D02*
X0321898Y0021799D01*
X0321898Y0020200D02*
X0318498Y0020200D01*
X0318498Y0018602D02*
X0321898Y0018602D01*
X0321898Y0017003D02*
X0318498Y0017003D01*
X0318498Y0015405D02*
X0321898Y0015405D01*
X0321898Y0013806D02*
X0318498Y0013806D01*
X0318498Y0012208D02*
X0321898Y0012208D01*
X0321898Y0010609D02*
X0318498Y0010609D01*
X0318498Y0009011D02*
X0321898Y0009011D01*
X0302852Y0055368D02*
X0300944Y0055368D01*
X0304398Y0068314D02*
X0286198Y0068314D01*
X0289398Y0071353D02*
X0302377Y0071353D01*
X0268298Y0071353D02*
X0210098Y0071353D01*
X0210098Y0072951D02*
X0268298Y0072951D01*
X0268298Y0087338D02*
X0236087Y0087338D01*
X0236879Y0088936D02*
X0268298Y0088936D01*
X0268298Y0090535D02*
X0236793Y0090535D01*
X0236782Y0092133D02*
X0268298Y0092133D01*
X0268298Y0093732D02*
X0238002Y0093732D01*
X0238279Y0095330D02*
X0268298Y0095330D01*
X0268298Y0096929D02*
X0239378Y0096929D01*
X0240424Y0098527D02*
X0268298Y0098527D01*
X0268298Y0100126D02*
X0240579Y0100126D01*
X0239952Y0101724D02*
X0268298Y0101724D01*
X0268298Y0103323D02*
X0239407Y0103323D01*
X0239410Y0104921D02*
X0268298Y0104921D01*
X0268298Y0106520D02*
X0239414Y0106520D01*
X0239418Y0108118D02*
X0268298Y0108118D01*
X0268298Y0109717D02*
X0239422Y0109717D01*
X0239425Y0111315D02*
X0268298Y0111315D01*
X0268298Y0112914D02*
X0239429Y0112914D01*
X0239433Y0114513D02*
X0249398Y0114513D01*
X0249398Y0116111D02*
X0240727Y0116111D01*
X0240264Y0119042D02*
X0237036Y0115814D01*
X0236998Y0099614D01*
X0234598Y0095314D02*
X0234698Y0095114D01*
X0234598Y0095314D02*
X0232598Y0097314D01*
X0232698Y0114714D01*
X0232798Y0114814D01*
X0230098Y0117514D01*
X0230098Y0120514D01*
X0231798Y0122214D01*
X0240242Y0122214D01*
X0240264Y0122192D01*
X0240264Y0125341D02*
X0231626Y0125341D01*
X0231598Y0125314D01*
X0231398Y0125314D01*
X0226898Y0120814D01*
X0226898Y0115814D01*
X0229398Y0113314D01*
X0229398Y0094514D01*
X0233298Y0090614D01*
X0233298Y0089614D01*
X0230510Y0087338D02*
X0230087Y0087338D01*
X0227998Y0090314D02*
X0227998Y0090414D01*
X0226298Y0092114D01*
X0226298Y0111314D01*
X0223998Y0113614D01*
X0223998Y0123114D01*
X0229398Y0128514D01*
X0240241Y0128514D01*
X0240264Y0128491D01*
X0240264Y0131640D02*
X0240264Y0131641D01*
X0240264Y0131640D02*
X0249938Y0131640D01*
X0249938Y0130814D01*
X0254398Y0130814D01*
X0254398Y0138033D01*
X0252986Y0138033D01*
X0251670Y0138578D01*
X0250662Y0139585D01*
X0250117Y0140901D01*
X0250117Y0142326D01*
X0250335Y0142852D01*
X0249838Y0143348D01*
X0249838Y0142747D01*
X0249760Y0142669D01*
X0249816Y0142572D01*
X0249938Y0142114D01*
X0249938Y0141089D01*
X0240264Y0141089D01*
X0230298Y0141089D01*
X0230298Y0137914D01*
X0230298Y0136414D01*
X0225698Y0136414D01*
X0225398Y0139914D01*
X0221998Y0140089D02*
X0230590Y0140089D01*
X0230298Y0141089D02*
X0230298Y0141114D01*
X0240240Y0141114D01*
X0240264Y0141089D01*
X0240264Y0141089D01*
X0249938Y0141089D01*
X0249938Y0140065D01*
X0249816Y0139607D01*
X0249762Y0139515D01*
X0249816Y0139422D01*
X0249938Y0138964D01*
X0249938Y0137940D01*
X0240264Y0137940D01*
X0240238Y0137914D01*
X0230298Y0137914D01*
X0230324Y0137940D01*
X0240264Y0137940D01*
X0240264Y0137940D01*
X0240264Y0137940D01*
X0240264Y0134790D01*
X0240264Y0134790D01*
X0240264Y0134790D01*
X0249938Y0134790D01*
X0249938Y0135814D01*
X0249816Y0136272D01*
X0249762Y0136365D01*
X0249816Y0136458D01*
X0249938Y0136915D01*
X0249938Y0137940D01*
X0240264Y0137940D01*
X0240264Y0138490D02*
X0240264Y0138490D01*
X0240264Y0136892D02*
X0240264Y0136892D01*
X0240264Y0135293D02*
X0240264Y0135293D01*
X0240264Y0133695D02*
X0240264Y0133695D01*
X0240264Y0132096D02*
X0240264Y0132096D01*
X0240264Y0140089D02*
X0240264Y0140089D01*
X0240264Y0144239D02*
X0240189Y0144314D01*
X0220198Y0144314D01*
X0219598Y0143714D01*
X0219598Y0129014D01*
X0212698Y0122114D01*
X0212698Y0095314D01*
X0207698Y0090314D01*
X0207698Y0051414D01*
X0207798Y0051314D01*
X0205074Y0048974D02*
X0187698Y0048974D01*
X0187698Y0050572D02*
X0204229Y0050572D01*
X0204277Y0052171D02*
X0187698Y0052171D01*
X0187698Y0053769D02*
X0190300Y0053769D01*
X0189284Y0055368D02*
X0187698Y0055368D01*
X0187698Y0056966D02*
X0189120Y0056966D01*
X0189658Y0058565D02*
X0187698Y0058565D01*
X0187698Y0060163D02*
X0191836Y0060163D01*
X0192398Y0061762D02*
X0187698Y0061762D01*
X0187698Y0063360D02*
X0192398Y0063360D01*
X0192398Y0064959D02*
X0187698Y0064959D01*
X0187698Y0066557D02*
X0192398Y0066557D01*
X0192398Y0068156D02*
X0187698Y0068156D01*
X0187698Y0069754D02*
X0192398Y0069754D01*
X0192398Y0071353D02*
X0187698Y0071353D01*
X0187698Y0072951D02*
X0192398Y0072951D01*
X0192398Y0074550D02*
X0187698Y0074550D01*
X0187698Y0076148D02*
X0192398Y0076148D01*
X0192398Y0077747D02*
X0191669Y0077747D01*
X0188727Y0077747D02*
X0187698Y0077747D01*
X0190198Y0080914D02*
X0190198Y0095914D01*
X0189798Y0097914D01*
X0189798Y0098014D01*
X0183598Y0104414D02*
X0183198Y0104914D01*
X0182598Y0105514D01*
X0174698Y0115914D02*
X0174698Y0094814D01*
X0174598Y0094714D01*
X0173398Y0091914D01*
X0173498Y0091914D01*
X0164398Y0093314D02*
X0161198Y0088614D01*
X0160598Y0088014D01*
X0158508Y0095330D02*
X0157809Y0095330D01*
X0146747Y0106520D02*
X0169198Y0106520D01*
X0169198Y0108118D02*
X0148027Y0108118D01*
X0148376Y0109717D02*
X0169198Y0109717D01*
X0169198Y0111315D02*
X0148024Y0111315D01*
X0146741Y0112914D02*
X0169198Y0112914D01*
X0168475Y0114513D02*
X0145398Y0114513D01*
X0145398Y0116111D02*
X0166843Y0116111D01*
X0165208Y0117710D02*
X0145398Y0117710D01*
X0145398Y0119308D02*
X0164398Y0119308D01*
X0164398Y0120907D02*
X0145398Y0120907D01*
X0145398Y0122505D02*
X0164398Y0122505D01*
X0164398Y0124104D02*
X0145398Y0124104D01*
X0145398Y0125702D02*
X0164398Y0125702D01*
X0164398Y0127301D02*
X0145398Y0127301D01*
X0145398Y0128899D02*
X0164484Y0128899D01*
X0165688Y0130498D02*
X0145398Y0130498D01*
X0145398Y0132096D02*
X0167286Y0132096D01*
X0168885Y0133695D02*
X0145398Y0133695D01*
X0146372Y0135293D02*
X0170483Y0135293D01*
X0167243Y0138490D02*
X0176998Y0138490D01*
X0176998Y0136892D02*
X0165819Y0136892D01*
X0163998Y0140014D02*
X0163998Y0160014D01*
X0166498Y0162514D01*
X0166498Y0162414D01*
X0166498Y0162429D01*
X0166298Y0162629D01*
X0166398Y0162629D01*
X0164989Y0165665D02*
X0156198Y0165665D01*
X0156198Y0167263D02*
X0169098Y0167263D01*
X0169098Y0165665D02*
X0168007Y0165665D01*
X0169098Y0168862D02*
X0156198Y0168862D01*
X0156198Y0170460D02*
X0169098Y0170460D01*
X0169098Y0172059D02*
X0156198Y0172059D01*
X0156198Y0173657D02*
X0169098Y0173657D01*
X0169098Y0175256D02*
X0168874Y0175256D01*
X0166898Y0178314D02*
X0166898Y0195814D01*
X0163592Y0194438D02*
X0150498Y0194438D01*
X0150498Y0192840D02*
X0164498Y0192840D01*
X0164498Y0191241D02*
X0155740Y0191241D01*
X0154056Y0191241D02*
X0150498Y0191241D01*
X0150498Y0189643D02*
X0151821Y0189643D01*
X0151317Y0188044D02*
X0150498Y0188044D01*
X0151098Y0183814D02*
X0154898Y0187714D01*
X0158249Y0186446D02*
X0164498Y0186446D01*
X0164498Y0188044D02*
X0158479Y0188044D01*
X0157975Y0189643D02*
X0164498Y0189643D01*
X0169298Y0189643D02*
X0175751Y0189643D01*
X0175725Y0188044D02*
X0169298Y0188044D01*
X0169298Y0186446D02*
X0174736Y0186446D01*
X0173137Y0184847D02*
X0169298Y0184847D01*
X0169298Y0183248D02*
X0171539Y0183248D01*
X0169940Y0181650D02*
X0169298Y0181650D01*
X0171498Y0179814D02*
X0178098Y0186414D01*
X0178198Y0192514D01*
X0174849Y0191241D02*
X0169298Y0191241D01*
X0169298Y0192840D02*
X0174617Y0192840D01*
X0175119Y0194438D02*
X0170204Y0194438D01*
X0170479Y0196037D02*
X0177345Y0196037D01*
X0179051Y0196037D02*
X0179498Y0196037D01*
X0179498Y0197635D02*
X0170020Y0197635D01*
X0168000Y0199234D02*
X0179498Y0199234D01*
X0179498Y0200832D02*
X0150498Y0200832D01*
X0150498Y0199234D02*
X0165797Y0199234D01*
X0163776Y0197635D02*
X0150498Y0197635D01*
X0150498Y0196037D02*
X0163317Y0196037D01*
X0150498Y0202431D02*
X0179498Y0202431D01*
X0179498Y0204029D02*
X0150498Y0204029D01*
X0151206Y0205628D02*
X0179498Y0205628D01*
X0178106Y0207226D02*
X0152805Y0207226D01*
X0154403Y0208825D02*
X0176518Y0208825D01*
X0174930Y0210423D02*
X0157672Y0210423D01*
X0158479Y0212022D02*
X0173342Y0212022D01*
X0171755Y0213620D02*
X0158399Y0213620D01*
X0157458Y0215219D02*
X0170167Y0215219D01*
X0168579Y0216817D02*
X0146144Y0216817D01*
X0146142Y0218416D02*
X0166991Y0218416D01*
X0165403Y0220014D02*
X0145262Y0220014D01*
X0142598Y0217614D02*
X0141898Y0216914D01*
X0141898Y0208314D01*
X0145098Y0205114D01*
X0145098Y0150314D01*
X0134398Y0139614D01*
X0134398Y0045814D01*
X0135598Y0044614D01*
X0135598Y0036414D01*
X0131198Y0032014D01*
X0131198Y0030814D01*
X0131198Y0026614D01*
X0126398Y0021814D01*
X0106898Y0021814D01*
X0102698Y0017614D01*
X0075098Y0017614D01*
X0066898Y0025814D01*
X0066898Y0032914D01*
X0067253Y0033269D01*
X0067253Y0033554D01*
X0070506Y0031390D02*
X0104298Y0031390D01*
X0104298Y0029791D02*
X0069298Y0029791D01*
X0069298Y0028193D02*
X0104298Y0028193D01*
X0104285Y0026594D02*
X0077182Y0026594D01*
X0078402Y0024996D02*
X0102686Y0024996D01*
X0101088Y0023397D02*
X0078709Y0023397D01*
X0078298Y0020414D02*
X0101498Y0020414D01*
X0106698Y0025614D01*
X0106698Y0030914D01*
X0120398Y0044614D01*
X0122898Y0049914D02*
X0122898Y0069914D01*
X0124198Y0071214D01*
X0124298Y0088314D01*
X0125198Y0089214D01*
X0125198Y0091114D01*
X0139798Y0077714D02*
X0146898Y0070814D01*
X0146898Y0055814D01*
X0149398Y0053314D01*
X0149398Y0043314D01*
X0151898Y0040814D01*
X0175198Y0040814D01*
X0173163Y0037784D02*
X0148298Y0037784D01*
X0148298Y0039382D02*
X0149935Y0039382D01*
X0148337Y0040981D02*
X0148298Y0040981D01*
X0138598Y0046614D02*
X0136898Y0048314D01*
X0136898Y0137614D01*
X0148098Y0148614D01*
X0148098Y0205914D01*
X0154898Y0212714D01*
X0152339Y0215219D02*
X0145268Y0215219D01*
X0144298Y0213620D02*
X0151397Y0213620D01*
X0150812Y0212022D02*
X0144298Y0212022D01*
X0144298Y0210423D02*
X0149213Y0210423D01*
X0147615Y0208825D02*
X0144781Y0208825D01*
X0141198Y0202614D02*
X0141198Y0198714D01*
X0141598Y0198314D01*
X0141998Y0151414D01*
X0131998Y0141414D01*
X0131598Y0040814D01*
X0121698Y0040814D01*
X0110698Y0029814D01*
X0114279Y0029791D02*
X0127745Y0029791D01*
X0127617Y0030101D02*
X0128162Y0028785D01*
X0128798Y0028149D01*
X0128798Y0027608D01*
X0125404Y0024214D01*
X0108692Y0024214D01*
X0108733Y0024254D01*
X0109098Y0025136D01*
X0109098Y0026600D01*
X0109986Y0026233D01*
X0111410Y0026233D01*
X0112727Y0026778D01*
X0113734Y0027785D01*
X0114279Y0029101D01*
X0114279Y0030001D01*
X0122692Y0038414D01*
X0128934Y0038414D01*
X0129570Y0037778D01*
X0130886Y0037233D01*
X0132310Y0037233D01*
X0133198Y0037600D01*
X0133198Y0037408D01*
X0129973Y0034182D01*
X0129170Y0033850D01*
X0128162Y0032842D01*
X0127617Y0031526D01*
X0127617Y0030101D01*
X0127617Y0031390D02*
X0115668Y0031390D01*
X0117267Y0032988D02*
X0128308Y0032988D01*
X0130377Y0034587D02*
X0118865Y0034587D01*
X0120464Y0036185D02*
X0131976Y0036185D01*
X0129563Y0037784D02*
X0122062Y0037784D01*
X0113371Y0040981D02*
X0102710Y0040981D01*
X0102798Y0039382D02*
X0111773Y0039382D01*
X0110174Y0037784D02*
X0102270Y0037784D01*
X0100734Y0036185D02*
X0108576Y0036185D01*
X0106977Y0034587D02*
X0073014Y0034587D01*
X0072314Y0036185D02*
X0077263Y0036185D01*
X0075726Y0037784D02*
X0070538Y0037784D01*
X0068763Y0039382D02*
X0075198Y0039382D01*
X0075286Y0040981D02*
X0066988Y0040981D01*
X0065212Y0042580D02*
X0076083Y0042580D01*
X0082913Y0042580D02*
X0095083Y0042580D01*
X0094286Y0040981D02*
X0083710Y0040981D01*
X0083798Y0039382D02*
X0094198Y0039382D01*
X0094726Y0037784D02*
X0083270Y0037784D01*
X0081734Y0036185D02*
X0096263Y0036185D01*
X0105379Y0032988D02*
X0071946Y0032988D01*
X0073014Y0026594D02*
X0069512Y0026594D01*
X0071110Y0024996D02*
X0071794Y0024996D01*
X0075098Y0023614D02*
X0078298Y0020414D01*
X0058798Y0030614D02*
X0058798Y0032883D01*
X0063157Y0037242D01*
X0059061Y0040477D02*
X0059061Y0040930D01*
X0059061Y0040477D02*
X0053298Y0034614D01*
X0053298Y0029614D01*
X0051998Y0028214D01*
X0045398Y0028214D01*
X0044298Y0029314D01*
X0041619Y0031699D02*
X0041262Y0031342D01*
X0040717Y0030026D01*
X0040717Y0028601D01*
X0041262Y0027285D01*
X0041426Y0027121D01*
X0036798Y0021981D01*
X0036798Y0036040D01*
X0041619Y0031699D01*
X0041310Y0031390D02*
X0036798Y0031390D01*
X0036798Y0032988D02*
X0040188Y0032988D01*
X0038412Y0034587D02*
X0036798Y0034587D01*
X0036798Y0029791D02*
X0040717Y0029791D01*
X0040886Y0028193D02*
X0036798Y0028193D01*
X0036798Y0026594D02*
X0040952Y0026594D01*
X0039513Y0024996D02*
X0036798Y0024996D01*
X0036798Y0023397D02*
X0038074Y0023397D01*
X0041543Y0021474D02*
X0045683Y0025714D01*
X0048898Y0025714D01*
X0051198Y0023414D01*
X0045639Y0017786D02*
X0041167Y0013314D01*
X0034864Y0011954D02*
X0034864Y0011954D01*
X0034610Y0012208D02*
X0026598Y0012208D01*
X0026598Y0013806D02*
X0033011Y0013806D01*
X0033039Y0013779D02*
X0033039Y0013779D01*
X0031998Y0015405D02*
X0026598Y0015405D01*
X0026598Y0017003D02*
X0031998Y0017003D01*
X0031998Y0018602D02*
X0026598Y0018602D01*
X0026598Y0020200D02*
X0031998Y0020200D01*
X0031998Y0021799D02*
X0026598Y0021799D01*
X0026598Y0023397D02*
X0031998Y0023397D01*
X0031998Y0024996D02*
X0026598Y0024996D01*
X0026598Y0026594D02*
X0031998Y0026594D01*
X0031998Y0028193D02*
X0026598Y0028193D01*
X0026598Y0029791D02*
X0031998Y0029791D01*
X0031998Y0031390D02*
X0026598Y0031390D01*
X0026598Y0032988D02*
X0031998Y0032988D01*
X0031998Y0034587D02*
X0026598Y0034587D01*
X0026598Y0036185D02*
X0031998Y0036185D01*
X0031998Y0037784D02*
X0026598Y0037784D01*
X0026598Y0039382D02*
X0031998Y0039382D01*
X0031998Y0040981D02*
X0026598Y0040981D01*
X0026598Y0042580D02*
X0032770Y0042580D01*
X0034368Y0044178D02*
X0026598Y0044178D01*
X0026598Y0045777D02*
X0035967Y0045777D01*
X0037565Y0047375D02*
X0026598Y0047375D01*
X0026598Y0048974D02*
X0039164Y0048974D01*
X0041078Y0050572D02*
X0026598Y0050572D01*
X0026598Y0052171D02*
X0048217Y0052171D01*
X0048401Y0053769D02*
X0026598Y0053769D01*
X0026598Y0055368D02*
X0049488Y0055368D01*
X0049598Y0056966D02*
X0026598Y0056966D01*
X0026598Y0058565D02*
X0049598Y0058565D01*
X0049598Y0060163D02*
X0026598Y0060163D01*
X0026598Y0061762D02*
X0049598Y0061762D01*
X0049598Y0063360D02*
X0026598Y0063360D01*
X0026598Y0064959D02*
X0049598Y0064959D01*
X0049598Y0066557D02*
X0026598Y0066557D01*
X0026598Y0068156D02*
X0049598Y0068156D01*
X0049598Y0069754D02*
X0026598Y0069754D01*
X0026598Y0071353D02*
X0049598Y0071353D01*
X0049598Y0072951D02*
X0026598Y0072951D01*
X0026598Y0074550D02*
X0049598Y0074550D01*
X0049598Y0076148D02*
X0026598Y0076148D01*
X0026598Y0077747D02*
X0049598Y0077747D01*
X0049598Y0079345D02*
X0026598Y0079345D01*
X0026598Y0080944D02*
X0049598Y0080944D01*
X0049598Y0082542D02*
X0026598Y0082542D01*
X0026598Y0084141D02*
X0049598Y0084141D01*
X0049598Y0085739D02*
X0026598Y0085739D01*
X0026598Y0087338D02*
X0049598Y0087338D01*
X0049598Y0088936D02*
X0026598Y0088936D01*
X0026598Y0090535D02*
X0049598Y0090535D01*
X0049598Y0092133D02*
X0026598Y0092133D01*
X0026598Y0093732D02*
X0049598Y0093732D01*
X0049598Y0095330D02*
X0026598Y0095330D01*
X0026598Y0096929D02*
X0049598Y0096929D01*
X0049598Y0098527D02*
X0026598Y0098527D01*
X0026598Y0100126D02*
X0049598Y0100126D01*
X0049598Y0101724D02*
X0026598Y0101724D01*
X0026598Y0103323D02*
X0049598Y0103323D01*
X0049598Y0104921D02*
X0026598Y0104921D01*
X0026598Y0106520D02*
X0049598Y0106520D01*
X0049598Y0108118D02*
X0026598Y0108118D01*
X0026598Y0109717D02*
X0049598Y0109717D01*
X0049598Y0111315D02*
X0026598Y0111315D01*
X0026598Y0112914D02*
X0049598Y0112914D01*
X0049598Y0114513D02*
X0026598Y0114513D01*
X0026898Y0120814D02*
X0026898Y0210814D01*
X0030620Y0210814D01*
X0030620Y0209962D01*
X0031195Y0208574D01*
X0032258Y0207511D01*
X0033647Y0206936D01*
X0035026Y0206936D01*
X0030364Y0202273D01*
X0029998Y0201391D01*
X0029998Y0194478D01*
X0029162Y0193642D01*
X0028617Y0192326D01*
X0028617Y0190901D01*
X0029162Y0189585D01*
X0030170Y0188578D01*
X0031486Y0188033D01*
X0032910Y0188033D01*
X0034227Y0188578D01*
X0035234Y0189585D01*
X0035779Y0190901D01*
X0035779Y0192326D01*
X0035234Y0193642D01*
X0034798Y0194078D01*
X0034798Y0199920D01*
X0040314Y0205436D01*
X0040850Y0205436D01*
X0042238Y0206011D01*
X0043301Y0207074D01*
X0043876Y0208462D01*
X0043876Y0209965D01*
X0043525Y0210814D01*
X0055398Y0210814D01*
X0055398Y0206926D01*
X0053996Y0205992D01*
X0053347Y0205992D01*
X0051958Y0205417D01*
X0050895Y0204354D01*
X0050320Y0202965D01*
X0050320Y0201462D01*
X0050895Y0200074D01*
X0051958Y0199011D01*
X0053347Y0198436D01*
X0054850Y0198436D01*
X0056238Y0199011D01*
X0057301Y0200074D01*
X0057547Y0200667D01*
X0060112Y0202377D01*
X0060411Y0202501D01*
X0060637Y0202727D01*
X0060903Y0202904D01*
X0061083Y0203173D01*
X0061311Y0203401D01*
X0061433Y0203696D01*
X0061611Y0203962D01*
X0061674Y0204279D01*
X0061798Y0204577D01*
X0061798Y0204897D01*
X0061861Y0205210D01*
X0061798Y0205527D01*
X0061798Y0210814D01*
X0073498Y0210814D01*
X0073498Y0201814D01*
X0071041Y0201814D01*
X0070238Y0202617D01*
X0068850Y0203192D01*
X0067347Y0203192D01*
X0065958Y0202617D01*
X0064895Y0201554D01*
X0064320Y0200165D01*
X0064320Y0198662D01*
X0064895Y0197274D01*
X0065812Y0196357D01*
X0055792Y0196314D01*
X0055241Y0196314D01*
X0055235Y0196311D01*
X0055229Y0196311D01*
X0054721Y0196098D01*
X0054212Y0195887D01*
X0054208Y0195883D01*
X0054202Y0195881D01*
X0053814Y0195490D01*
X0045924Y0187600D01*
X0045498Y0186571D01*
X0045498Y0180078D01*
X0045262Y0179842D01*
X0044717Y0178526D01*
X0044717Y0177101D01*
X0045262Y0175785D01*
X0046270Y0174778D01*
X0047586Y0174233D01*
X0049010Y0174233D01*
X0050327Y0174778D01*
X0051334Y0175785D01*
X0051879Y0177101D01*
X0051879Y0178526D01*
X0051334Y0179842D01*
X0051098Y0180078D01*
X0051098Y0184854D01*
X0053020Y0186776D01*
X0053020Y0186262D01*
X0053595Y0184874D01*
X0053998Y0184471D01*
X0053998Y0164057D01*
X0054424Y0163028D01*
X0055729Y0161723D01*
X0055731Y0161718D01*
X0056123Y0161330D01*
X0056512Y0160940D01*
X0056518Y0160938D01*
X0056522Y0160934D01*
X0057032Y0160725D01*
X0057541Y0160514D01*
X0057547Y0160514D01*
X0057553Y0160511D01*
X0058104Y0160514D01*
X0058655Y0160514D01*
X0058661Y0160516D01*
X0075639Y0160585D01*
X0075117Y0159326D01*
X0075117Y0157901D01*
X0075662Y0156585D01*
X0076634Y0155614D01*
X0076462Y0155442D01*
X0075917Y0154126D01*
X0075917Y0152701D01*
X0076462Y0151385D01*
X0077470Y0150378D01*
X0078786Y0149833D01*
X0080210Y0149833D01*
X0081527Y0150378D01*
X0082534Y0151385D01*
X0083079Y0152701D01*
X0083079Y0153114D01*
X0083676Y0153114D01*
X0084558Y0153479D01*
X0085998Y0154920D01*
X0085998Y0153308D01*
X0082204Y0149514D01*
X0062621Y0149514D01*
X0061739Y0149148D01*
X0061064Y0148473D01*
X0056482Y0143892D01*
X0055347Y0143892D01*
X0053958Y0143317D01*
X0052895Y0142254D01*
X0052320Y0140865D01*
X0052320Y0139362D01*
X0052589Y0138714D01*
X0045976Y0138714D01*
X0043833Y0140806D01*
X0043901Y0140874D01*
X0044476Y0142262D01*
X0044476Y0143765D01*
X0043901Y0145154D01*
X0042838Y0146217D01*
X0041450Y0146792D01*
X0039947Y0146792D01*
X0038558Y0146217D01*
X0037495Y0145154D01*
X0036920Y0143765D01*
X0036920Y0142262D01*
X0037495Y0140874D01*
X0038298Y0140071D01*
X0038298Y0140036D01*
X0038304Y0140023D01*
X0038304Y0140008D01*
X0038486Y0139582D01*
X0038664Y0139154D01*
X0038674Y0139144D01*
X0038680Y0139130D01*
X0039011Y0138806D01*
X0039339Y0138479D01*
X0039352Y0138474D01*
X0040633Y0137222D01*
X0038951Y0136525D01*
X0037586Y0135161D01*
X0036848Y0133378D01*
X0036848Y0131449D01*
X0037586Y0129666D01*
X0038951Y0128302D01*
X0040733Y0127564D01*
X0042663Y0127564D01*
X0044445Y0128302D01*
X0045810Y0129666D01*
X0046548Y0131449D01*
X0046548Y0133378D01*
X0046326Y0133914D01*
X0050619Y0133914D01*
X0050417Y0133426D01*
X0050417Y0133027D01*
X0049964Y0132573D01*
X0049598Y0131691D01*
X0049598Y0120814D01*
X0046548Y0120814D01*
X0046548Y0124423D01*
X0043707Y0127264D01*
X0039689Y0127264D01*
X0036848Y0124423D01*
X0036848Y0120814D01*
X0026898Y0120814D01*
X0026898Y0120907D02*
X0036848Y0120907D01*
X0036848Y0122505D02*
X0026898Y0122505D01*
X0026898Y0124104D02*
X0036848Y0124104D01*
X0038128Y0125702D02*
X0026898Y0125702D01*
X0026898Y0127301D02*
X0049598Y0127301D01*
X0049598Y0128899D02*
X0045042Y0128899D01*
X0046154Y0130498D02*
X0049598Y0130498D01*
X0049766Y0132096D02*
X0046548Y0132096D01*
X0046417Y0133695D02*
X0050528Y0133695D01*
X0051998Y0131214D02*
X0053498Y0132714D01*
X0053998Y0132714D01*
X0051998Y0131214D02*
X0051998Y0052814D01*
X0051798Y0052614D01*
X0055196Y0053769D02*
X0066698Y0053769D01*
X0066698Y0052171D02*
X0055379Y0052171D01*
X0058395Y0045967D02*
X0053281Y0040287D01*
X0053355Y0038880D01*
X0053764Y0038512D01*
X0051594Y0036304D01*
X0051264Y0035973D01*
X0051259Y0035963D01*
X0051252Y0035956D01*
X0051077Y0035523D01*
X0050899Y0035093D01*
X0050695Y0035297D01*
X0049491Y0035795D01*
X0048187Y0035795D01*
X0047188Y0035381D01*
X0049478Y0037925D01*
X0049404Y0039331D01*
X0042514Y0045535D01*
X0042895Y0045917D01*
X0058395Y0045967D01*
X0058224Y0045777D02*
X0042755Y0045777D01*
X0044021Y0044178D02*
X0056785Y0044178D01*
X0055345Y0042580D02*
X0045796Y0042580D01*
X0047571Y0040981D02*
X0053906Y0040981D01*
X0053328Y0039382D02*
X0049347Y0039382D01*
X0049351Y0037784D02*
X0053049Y0037784D01*
X0051476Y0036185D02*
X0047912Y0036185D01*
X0049735Y0014097D02*
X0054219Y0008914D01*
X0109798Y0008914D01*
X0109798Y0017914D01*
X0112354Y0015405D02*
X0140098Y0015405D01*
X0140098Y0017003D02*
X0113297Y0017003D01*
X0113379Y0017201D02*
X0113379Y0018626D01*
X0113053Y0019414D01*
X0126876Y0019414D01*
X0127758Y0019779D01*
X0128117Y0020139D01*
X0128117Y0020101D01*
X0128662Y0018785D01*
X0129670Y0017778D01*
X0130986Y0017233D01*
X0132410Y0017233D01*
X0133727Y0017778D01*
X0134734Y0018785D01*
X0135279Y0020101D01*
X0135279Y0021501D01*
X0137533Y0023754D01*
X0137898Y0024636D01*
X0137898Y0030020D01*
X0140098Y0032220D01*
X0140098Y0010398D01*
X0140722Y0008891D01*
X0141876Y0007738D01*
X0142000Y0007614D01*
X0111857Y0007614D01*
X0112198Y0008436D01*
X0112198Y0015249D01*
X0112834Y0015885D01*
X0113379Y0017201D01*
X0113379Y0018602D02*
X0128846Y0018602D01*
X0131698Y0020814D02*
X0131698Y0021314D01*
X0135498Y0025114D01*
X0135498Y0031014D01*
X0138598Y0034114D01*
X0138598Y0046614D01*
X0141398Y0055514D02*
X0141398Y0068714D01*
X0139798Y0077714D02*
X0139898Y0136614D01*
X0139998Y0136614D01*
X0151098Y0147714D01*
X0151098Y0183814D01*
X0153898Y0183248D02*
X0164498Y0183248D01*
X0164498Y0181650D02*
X0153498Y0181650D01*
X0153498Y0180051D02*
X0153571Y0180051D01*
X0156198Y0177614D02*
X0153798Y0175214D01*
X0153798Y0146114D01*
X0142998Y0135314D01*
X0142998Y0109814D01*
X0143098Y0109714D01*
X0144598Y0109714D01*
X0169998Y0120614D02*
X0174698Y0115914D01*
X0169998Y0120614D02*
X0169998Y0127014D01*
X0173798Y0130814D01*
X0184398Y0130814D01*
X0184498Y0130914D01*
X0184498Y0161314D01*
X0189398Y0166214D01*
X0189398Y0198314D01*
X0209198Y0218114D01*
X0209198Y0217614D01*
X0206534Y0220014D02*
X0172169Y0220014D01*
X0173757Y0218416D02*
X0205654Y0218416D01*
X0204508Y0216817D02*
X0175344Y0216817D01*
X0176932Y0215219D02*
X0202909Y0215219D01*
X0201310Y0213620D02*
X0178520Y0213620D01*
X0180108Y0212022D02*
X0199712Y0212022D01*
X0198113Y0210423D02*
X0181696Y0210423D01*
X0183283Y0208825D02*
X0196515Y0208825D01*
X0194916Y0207226D02*
X0184300Y0207226D01*
X0184298Y0205628D02*
X0193318Y0205628D01*
X0191719Y0204029D02*
X0184298Y0204029D01*
X0184298Y0202431D02*
X0190121Y0202431D01*
X0188522Y0200832D02*
X0184298Y0200832D01*
X0184298Y0199234D02*
X0187181Y0199234D01*
X0186998Y0197635D02*
X0184298Y0197635D01*
X0184298Y0196037D02*
X0186998Y0196037D01*
X0186998Y0194438D02*
X0184298Y0194438D01*
X0184298Y0192840D02*
X0186998Y0192840D01*
X0186998Y0191241D02*
X0184298Y0191241D01*
X0184298Y0189643D02*
X0186998Y0189643D01*
X0186998Y0188044D02*
X0184298Y0188044D01*
X0184298Y0186446D02*
X0186998Y0186446D01*
X0186998Y0184847D02*
X0184298Y0184847D01*
X0184298Y0183248D02*
X0186998Y0183248D01*
X0186998Y0181650D02*
X0184298Y0181650D01*
X0184298Y0180051D02*
X0186998Y0180051D01*
X0186998Y0178453D02*
X0184298Y0178453D01*
X0184298Y0176854D02*
X0186998Y0176854D01*
X0186998Y0175256D02*
X0184265Y0175256D01*
X0183136Y0173657D02*
X0186998Y0173657D01*
X0186998Y0172059D02*
X0181798Y0172059D01*
X0181798Y0170460D02*
X0186998Y0170460D01*
X0186998Y0168862D02*
X0181798Y0168862D01*
X0181798Y0167263D02*
X0186998Y0167263D01*
X0185455Y0165665D02*
X0181798Y0165665D01*
X0181798Y0164066D02*
X0183857Y0164066D01*
X0182378Y0162468D02*
X0181798Y0162468D01*
X0181798Y0160869D02*
X0182098Y0160869D01*
X0182098Y0159271D02*
X0181798Y0159271D01*
X0181798Y0157672D02*
X0182098Y0157672D01*
X0182098Y0156074D02*
X0181798Y0156074D01*
X0181798Y0154475D02*
X0182098Y0154475D01*
X0182098Y0152877D02*
X0181798Y0152877D01*
X0181798Y0151278D02*
X0182098Y0151278D01*
X0182098Y0149680D02*
X0181798Y0149680D01*
X0181798Y0148081D02*
X0182098Y0148081D01*
X0182098Y0146483D02*
X0181798Y0146483D01*
X0181798Y0144884D02*
X0182098Y0144884D01*
X0182098Y0143286D02*
X0181798Y0143286D01*
X0181798Y0141687D02*
X0182098Y0141687D01*
X0182098Y0140089D02*
X0181798Y0140089D01*
X0181798Y0138490D02*
X0182098Y0138490D01*
X0182098Y0136892D02*
X0181798Y0136892D01*
X0181798Y0135293D02*
X0182098Y0135293D01*
X0182098Y0133695D02*
X0181698Y0133695D01*
X0188498Y0135014D02*
X0188598Y0135114D01*
X0190198Y0135114D01*
X0188598Y0140014D02*
X0190098Y0141514D01*
X0190098Y0157614D01*
X0176998Y0157672D02*
X0175851Y0157672D01*
X0175402Y0156074D02*
X0176998Y0156074D01*
X0176998Y0154475D02*
X0175979Y0154475D01*
X0175803Y0152877D02*
X0176998Y0152877D01*
X0176998Y0151278D02*
X0174727Y0151278D01*
X0176998Y0149680D02*
X0170336Y0149680D01*
X0170323Y0148081D02*
X0176998Y0148081D01*
X0176998Y0146483D02*
X0171166Y0146483D01*
X0171479Y0144884D02*
X0176998Y0144884D01*
X0176998Y0143286D02*
X0171059Y0143286D01*
X0169225Y0141687D02*
X0176998Y0141687D01*
X0176998Y0140089D02*
X0167579Y0140089D01*
X0167898Y0145014D02*
X0167998Y0157514D01*
X0171498Y0161014D01*
X0171498Y0179814D01*
X0174398Y0176714D02*
X0174398Y0159614D01*
X0172398Y0157614D01*
X0172398Y0154014D01*
X0176798Y0159271D02*
X0176998Y0159271D01*
X0176998Y0160869D02*
X0176798Y0160869D01*
X0176798Y0162468D02*
X0176998Y0162468D01*
X0176998Y0164066D02*
X0176798Y0164066D01*
X0176798Y0165665D02*
X0176998Y0165665D01*
X0176998Y0167263D02*
X0176798Y0167263D01*
X0176798Y0168862D02*
X0176998Y0168862D01*
X0176998Y0170460D02*
X0176798Y0170460D01*
X0176798Y0172059D02*
X0176998Y0172059D01*
X0176998Y0173657D02*
X0176798Y0173657D01*
X0177691Y0175256D02*
X0177946Y0175256D01*
X0176198Y0178514D02*
X0174398Y0176714D01*
X0164922Y0175256D02*
X0158905Y0175256D01*
X0159760Y0176854D02*
X0163626Y0176854D01*
X0163317Y0178453D02*
X0159727Y0178453D01*
X0158825Y0180051D02*
X0163742Y0180051D01*
X0164498Y0184847D02*
X0157096Y0184847D01*
X0156198Y0164066D02*
X0163307Y0164066D01*
X0162917Y0162468D02*
X0156198Y0162468D01*
X0156198Y0160869D02*
X0161755Y0160869D01*
X0161598Y0159271D02*
X0156198Y0159271D01*
X0156198Y0157672D02*
X0161598Y0157672D01*
X0161598Y0156074D02*
X0156198Y0156074D01*
X0156198Y0154475D02*
X0161598Y0154475D01*
X0161598Y0152877D02*
X0156198Y0152877D01*
X0156198Y0151278D02*
X0161598Y0151278D01*
X0161598Y0149680D02*
X0156198Y0149680D01*
X0156198Y0148081D02*
X0161598Y0148081D01*
X0161598Y0146483D02*
X0156198Y0146483D01*
X0155887Y0144884D02*
X0161598Y0144884D01*
X0161598Y0143286D02*
X0154364Y0143286D01*
X0152766Y0141687D02*
X0160815Y0141687D01*
X0160417Y0140089D02*
X0151167Y0140089D01*
X0149569Y0138490D02*
X0160753Y0138490D01*
X0162178Y0136892D02*
X0147970Y0136892D01*
X0112298Y0173314D02*
X0104398Y0173314D01*
X0104398Y0120814D01*
X0083498Y0120814D01*
X0083498Y0124649D01*
X0084434Y0125585D01*
X0084979Y0126901D01*
X0084979Y0128326D01*
X0084434Y0129642D01*
X0083427Y0130650D01*
X0082110Y0131195D01*
X0080686Y0131195D01*
X0079370Y0130650D01*
X0078362Y0129642D01*
X0077817Y0128326D01*
X0077817Y0126901D01*
X0078362Y0125585D01*
X0079298Y0124649D01*
X0079298Y0120814D01*
X0054398Y0120814D01*
X0054398Y0129133D01*
X0054710Y0129133D01*
X0056027Y0129678D01*
X0057034Y0130685D01*
X0057579Y0132001D01*
X0057579Y0133426D01*
X0057377Y0133914D01*
X0066089Y0133914D01*
X0066558Y0133910D01*
X0066566Y0133914D01*
X0066576Y0133914D01*
X0067008Y0134093D01*
X0067443Y0134269D01*
X0067449Y0134276D01*
X0067458Y0134279D01*
X0067789Y0134610D01*
X0072483Y0139236D01*
X0073650Y0139236D01*
X0075038Y0139811D01*
X0076101Y0140874D01*
X0076676Y0142262D01*
X0076676Y0143765D01*
X0076283Y0144714D01*
X0083676Y0144714D01*
X0084558Y0145079D01*
X0089758Y0150279D01*
X0090433Y0150954D01*
X0090798Y0151836D01*
X0090798Y0152555D01*
X0091651Y0151702D01*
X0093433Y0150964D01*
X0095363Y0150964D01*
X0097145Y0151702D01*
X0098510Y0153066D01*
X0099248Y0154849D01*
X0099248Y0156778D01*
X0098510Y0158561D01*
X0098275Y0158796D01*
X0098933Y0159454D01*
X0099298Y0160336D01*
X0099298Y0198091D01*
X0098933Y0198973D01*
X0098258Y0199648D01*
X0087598Y0210308D01*
X0087598Y0210814D01*
X0129398Y0210814D01*
X0129398Y0206096D01*
X0129355Y0206114D01*
X0122041Y0206114D01*
X0121638Y0206517D01*
X0120250Y0207092D01*
X0118747Y0207092D01*
X0117358Y0206517D01*
X0116295Y0205454D01*
X0115720Y0204065D01*
X0115720Y0202562D01*
X0116295Y0201174D01*
X0117358Y0200111D01*
X0118747Y0199536D01*
X0120250Y0199536D01*
X0121638Y0200111D01*
X0122041Y0200514D01*
X0125998Y0200514D01*
X0125998Y0182244D01*
X0121764Y0182290D01*
X0121738Y0182317D01*
X0120350Y0182892D01*
X0118847Y0182892D01*
X0117898Y0182499D01*
X0117898Y0182971D01*
X0117891Y0182989D01*
X0117890Y0183008D01*
X0117678Y0183502D01*
X0117472Y0184000D01*
X0117458Y0184014D01*
X0117450Y0184031D01*
X0117065Y0184407D01*
X0116684Y0184787D01*
X0116666Y0184795D01*
X0111276Y0190043D01*
X0111276Y0190565D01*
X0110701Y0191954D01*
X0109638Y0193017D01*
X0108250Y0193592D01*
X0106747Y0193592D01*
X0105358Y0193017D01*
X0104295Y0191954D01*
X0103720Y0190565D01*
X0103720Y0189062D01*
X0104295Y0187674D01*
X0105358Y0186611D01*
X0106747Y0186036D01*
X0107365Y0186036D01*
X0112298Y0181232D01*
X0112298Y0173314D01*
X0112298Y0173657D02*
X0099298Y0173657D01*
X0099298Y0172059D02*
X0104398Y0172059D01*
X0104398Y0170460D02*
X0099298Y0170460D01*
X0099298Y0168862D02*
X0104398Y0168862D01*
X0104398Y0167263D02*
X0099298Y0167263D01*
X0099298Y0165665D02*
X0104398Y0165665D01*
X0104398Y0164066D02*
X0099298Y0164066D01*
X0099298Y0162468D02*
X0104398Y0162468D01*
X0104398Y0160869D02*
X0099298Y0160869D01*
X0098749Y0159271D02*
X0104398Y0159271D01*
X0104398Y0157672D02*
X0098878Y0157672D01*
X0099248Y0156074D02*
X0104398Y0156074D01*
X0104398Y0154475D02*
X0099093Y0154475D01*
X0098320Y0152877D02*
X0104398Y0152877D01*
X0104398Y0151278D02*
X0096122Y0151278D01*
X0096407Y0150664D02*
X0092389Y0150664D01*
X0089548Y0147823D01*
X0089548Y0143805D01*
X0092389Y0140964D01*
X0095854Y0140964D01*
X0098398Y0138420D01*
X0098398Y0137078D01*
X0097762Y0136442D01*
X0097217Y0135126D01*
X0097217Y0133701D01*
X0097762Y0132385D01*
X0098770Y0131378D01*
X0100086Y0130833D01*
X0101510Y0130833D01*
X0102827Y0131378D01*
X0103834Y0132385D01*
X0104379Y0133701D01*
X0104379Y0135126D01*
X0103834Y0136442D01*
X0103198Y0137078D01*
X0103198Y0139891D01*
X0102833Y0140773D01*
X0099248Y0144358D01*
X0099248Y0147823D01*
X0096407Y0150664D01*
X0097391Y0149680D02*
X0104398Y0149680D01*
X0104398Y0148081D02*
X0098990Y0148081D01*
X0099248Y0146483D02*
X0104398Y0146483D01*
X0104398Y0144884D02*
X0099248Y0144884D01*
X0100320Y0143286D02*
X0104398Y0143286D01*
X0104398Y0141687D02*
X0101919Y0141687D01*
X0103116Y0140089D02*
X0104398Y0140089D01*
X0104398Y0138490D02*
X0103198Y0138490D01*
X0103385Y0136892D02*
X0104398Y0136892D01*
X0104398Y0135293D02*
X0104310Y0135293D01*
X0104376Y0133695D02*
X0104398Y0133695D01*
X0104398Y0132096D02*
X0103545Y0132096D01*
X0104398Y0130498D02*
X0083579Y0130498D01*
X0084742Y0128899D02*
X0104398Y0128899D01*
X0104398Y0127301D02*
X0084979Y0127301D01*
X0084482Y0125702D02*
X0104398Y0125702D01*
X0104398Y0124104D02*
X0083498Y0124104D01*
X0083498Y0122505D02*
X0104398Y0122505D01*
X0104398Y0120907D02*
X0083498Y0120907D01*
X0079298Y0120907D02*
X0054398Y0120907D01*
X0054398Y0122505D02*
X0079298Y0122505D01*
X0079298Y0124104D02*
X0054398Y0124104D01*
X0054398Y0125702D02*
X0078314Y0125702D01*
X0077817Y0127301D02*
X0054398Y0127301D01*
X0054398Y0128899D02*
X0078054Y0128899D01*
X0079218Y0130498D02*
X0056846Y0130498D01*
X0057579Y0132096D02*
X0098051Y0132096D01*
X0097220Y0133695D02*
X0057468Y0133695D01*
X0056098Y0140114D02*
X0063098Y0147114D01*
X0083198Y0147114D01*
X0088398Y0152314D01*
X0088398Y0156914D01*
X0094398Y0162914D01*
X0094398Y0193314D01*
X0092098Y0195614D01*
X0091698Y0195614D01*
X0088398Y0198914D01*
X0088426Y0202692D02*
X0087647Y0202692D01*
X0086258Y0202117D01*
X0085195Y0201054D01*
X0084620Y0199665D01*
X0084620Y0198162D01*
X0085195Y0196774D01*
X0086032Y0195937D01*
X0081798Y0195983D01*
X0081798Y0210814D01*
X0082798Y0210814D01*
X0082798Y0208836D01*
X0083164Y0207954D01*
X0083839Y0207279D01*
X0088426Y0202692D01*
X0087016Y0202431D02*
X0081798Y0202431D01*
X0081798Y0204029D02*
X0087089Y0204029D01*
X0085490Y0205628D02*
X0081798Y0205628D01*
X0081798Y0207226D02*
X0083892Y0207226D01*
X0082803Y0208825D02*
X0081798Y0208825D01*
X0081798Y0210423D02*
X0082798Y0210423D01*
X0085198Y0209314D02*
X0085198Y0215014D01*
X0087598Y0210423D02*
X0129398Y0210423D01*
X0129398Y0208825D02*
X0089081Y0208825D01*
X0090680Y0207226D02*
X0129398Y0207226D01*
X0125998Y0199234D02*
X0098672Y0199234D01*
X0099298Y0197635D02*
X0125998Y0197635D01*
X0125998Y0196037D02*
X0099298Y0196037D01*
X0099298Y0194438D02*
X0125998Y0194438D01*
X0125998Y0192840D02*
X0109815Y0192840D01*
X0110996Y0191241D02*
X0125998Y0191241D01*
X0125998Y0189643D02*
X0111688Y0189643D01*
X0113329Y0188044D02*
X0125998Y0188044D01*
X0125998Y0186446D02*
X0114971Y0186446D01*
X0116613Y0184847D02*
X0125998Y0184847D01*
X0125998Y0183248D02*
X0117787Y0183248D01*
X0111869Y0181650D02*
X0099298Y0181650D01*
X0099298Y0183248D02*
X0110227Y0183248D01*
X0108585Y0184847D02*
X0099298Y0184847D01*
X0099298Y0186446D02*
X0105757Y0186446D01*
X0104142Y0188044D02*
X0099298Y0188044D01*
X0099298Y0189643D02*
X0103720Y0189643D01*
X0104000Y0191241D02*
X0099298Y0191241D01*
X0099298Y0192840D02*
X0105181Y0192840D01*
X0096898Y0197614D02*
X0096898Y0160814D01*
X0094398Y0158314D01*
X0094398Y0155814D01*
X0092674Y0151278D02*
X0090567Y0151278D01*
X0091405Y0149680D02*
X0089158Y0149680D01*
X0089807Y0148081D02*
X0087560Y0148081D01*
X0085961Y0146483D02*
X0089548Y0146483D01*
X0089548Y0144884D02*
X0084087Y0144884D01*
X0082370Y0149680D02*
X0026898Y0149680D01*
X0026898Y0151278D02*
X0076569Y0151278D01*
X0075917Y0152877D02*
X0026898Y0152877D01*
X0026898Y0154475D02*
X0076062Y0154475D01*
X0076174Y0156074D02*
X0026898Y0156074D01*
X0026898Y0157672D02*
X0075212Y0157672D01*
X0075117Y0159271D02*
X0026898Y0159271D01*
X0026898Y0160869D02*
X0056679Y0160869D01*
X0054984Y0162468D02*
X0026898Y0162468D01*
X0026898Y0164066D02*
X0053998Y0164066D01*
X0053998Y0165665D02*
X0026898Y0165665D01*
X0026898Y0167263D02*
X0053998Y0167263D01*
X0053998Y0168862D02*
X0026898Y0168862D01*
X0026898Y0170460D02*
X0053998Y0170460D01*
X0053998Y0172059D02*
X0026898Y0172059D01*
X0026898Y0173657D02*
X0053998Y0173657D01*
X0053998Y0175256D02*
X0050805Y0175256D01*
X0051777Y0176854D02*
X0053998Y0176854D01*
X0053998Y0178453D02*
X0051879Y0178453D01*
X0051125Y0180051D02*
X0053998Y0180051D01*
X0053998Y0181650D02*
X0051098Y0181650D01*
X0051098Y0183248D02*
X0053998Y0183248D01*
X0053622Y0184847D02*
X0051098Y0184847D01*
X0052690Y0186446D02*
X0053020Y0186446D01*
X0049566Y0191241D02*
X0035779Y0191241D01*
X0035567Y0192840D02*
X0051164Y0192840D01*
X0052763Y0194438D02*
X0034798Y0194438D01*
X0034798Y0196037D02*
X0054572Y0196037D01*
X0056461Y0199234D02*
X0064320Y0199234D01*
X0064596Y0200832D02*
X0057795Y0200832D01*
X0060241Y0202431D02*
X0065772Y0202431D01*
X0068098Y0199414D02*
X0075898Y0199414D01*
X0075898Y0241314D01*
X0073498Y0210423D02*
X0061798Y0210423D01*
X0061798Y0208825D02*
X0073498Y0208825D01*
X0073498Y0207226D02*
X0061798Y0207226D01*
X0061798Y0205628D02*
X0073498Y0205628D01*
X0073498Y0204029D02*
X0061625Y0204029D01*
X0068098Y0199414D02*
X0068098Y0199214D01*
X0064746Y0197635D02*
X0034798Y0197635D01*
X0034798Y0199234D02*
X0051735Y0199234D01*
X0050581Y0200832D02*
X0035711Y0200832D01*
X0037309Y0202431D02*
X0050320Y0202431D01*
X0050761Y0204029D02*
X0038908Y0204029D01*
X0041313Y0205628D02*
X0052468Y0205628D01*
X0055398Y0207226D02*
X0043364Y0207226D01*
X0043876Y0208825D02*
X0055398Y0208825D01*
X0055398Y0210423D02*
X0043686Y0210423D01*
X0040098Y0209214D02*
X0040098Y0208614D01*
X0032398Y0200914D01*
X0032398Y0191814D01*
X0032198Y0191614D01*
X0028830Y0192840D02*
X0026898Y0192840D01*
X0026898Y0194438D02*
X0029958Y0194438D01*
X0029998Y0196037D02*
X0026898Y0196037D01*
X0026898Y0197635D02*
X0029998Y0197635D01*
X0029998Y0199234D02*
X0026898Y0199234D01*
X0026898Y0200832D02*
X0029998Y0200832D01*
X0030521Y0202431D02*
X0026898Y0202431D01*
X0026898Y0204029D02*
X0032119Y0204029D01*
X0033718Y0205628D02*
X0026898Y0205628D01*
X0026898Y0207226D02*
X0032946Y0207226D01*
X0031091Y0208825D02*
X0026898Y0208825D01*
X0026898Y0210423D02*
X0030620Y0210423D01*
X0034398Y0210714D02*
X0034398Y0228314D01*
X0070424Y0202431D02*
X0073498Y0202431D01*
X0081798Y0200832D02*
X0085104Y0200832D01*
X0084620Y0199234D02*
X0081798Y0199234D01*
X0081798Y0197635D02*
X0084839Y0197635D01*
X0085932Y0196037D02*
X0081798Y0196037D01*
X0078998Y0193614D02*
X0088198Y0193514D01*
X0088798Y0192914D01*
X0089798Y0192914D01*
X0091898Y0190814D01*
X0091898Y0164214D01*
X0083198Y0155514D01*
X0081598Y0155514D01*
X0079498Y0153414D01*
X0083079Y0152877D02*
X0085567Y0152877D01*
X0085554Y0154475D02*
X0085998Y0154475D01*
X0083969Y0151278D02*
X0082427Y0151278D01*
X0082798Y0158614D02*
X0078698Y0158614D01*
X0082798Y0158614D02*
X0089398Y0165214D01*
X0089398Y0178314D01*
X0084698Y0183014D01*
X0085898Y0181814D01*
X0088279Y0182827D02*
X0088279Y0183726D01*
X0087734Y0185042D01*
X0086727Y0186050D01*
X0085410Y0186595D01*
X0083986Y0186595D01*
X0082670Y0186050D01*
X0081662Y0185042D01*
X0081117Y0183726D01*
X0081117Y0182301D01*
X0081662Y0180985D01*
X0082670Y0179978D01*
X0083986Y0179433D01*
X0084885Y0179433D01*
X0086998Y0177320D01*
X0086998Y0169457D01*
X0086838Y0169617D01*
X0085450Y0170192D01*
X0083947Y0170192D01*
X0082558Y0169617D01*
X0081495Y0168554D01*
X0080920Y0167165D01*
X0080920Y0166207D01*
X0059598Y0166120D01*
X0059598Y0184471D01*
X0060001Y0184874D01*
X0060576Y0186262D01*
X0060576Y0187765D01*
X0060001Y0189154D01*
X0058938Y0190217D01*
X0057718Y0190722D01*
X0079005Y0190814D01*
X0079555Y0190814D01*
X0079561Y0190816D01*
X0079567Y0190816D01*
X0080075Y0191029D01*
X0080481Y0191197D01*
X0087193Y0191125D01*
X0087439Y0190879D01*
X0088321Y0190514D01*
X0088804Y0190514D01*
X0089498Y0189820D01*
X0089498Y0181608D01*
X0088279Y0182827D01*
X0088279Y0183248D02*
X0089498Y0183248D01*
X0089456Y0181650D02*
X0089498Y0181650D01*
X0089498Y0184847D02*
X0087815Y0184847D01*
X0089498Y0186446D02*
X0085771Y0186446D01*
X0083625Y0186446D02*
X0060576Y0186446D01*
X0060461Y0188044D02*
X0089498Y0188044D01*
X0089498Y0189643D02*
X0059512Y0189643D01*
X0059974Y0184847D02*
X0081581Y0184847D01*
X0081117Y0183248D02*
X0059598Y0183248D01*
X0059598Y0181650D02*
X0063170Y0181650D01*
X0063570Y0182050D02*
X0062562Y0181042D01*
X0062017Y0179726D01*
X0062017Y0178301D01*
X0062562Y0176985D01*
X0063570Y0175978D01*
X0064886Y0175433D01*
X0066310Y0175433D01*
X0067627Y0175978D01*
X0068263Y0176614D01*
X0071934Y0176614D01*
X0072570Y0175978D01*
X0073886Y0175433D01*
X0075310Y0175433D01*
X0076627Y0175978D01*
X0077634Y0176985D01*
X0078179Y0178301D01*
X0078179Y0179726D01*
X0077634Y0181042D01*
X0076627Y0182050D01*
X0075310Y0182595D01*
X0073886Y0182595D01*
X0072570Y0182050D01*
X0071934Y0181414D01*
X0068263Y0181414D01*
X0067627Y0182050D01*
X0066310Y0182595D01*
X0064886Y0182595D01*
X0063570Y0182050D01*
X0062152Y0180051D02*
X0059598Y0180051D01*
X0059598Y0178453D02*
X0062017Y0178453D01*
X0062693Y0176854D02*
X0059598Y0176854D01*
X0059598Y0175256D02*
X0086998Y0175256D01*
X0086998Y0176854D02*
X0077503Y0176854D01*
X0078179Y0178453D02*
X0085865Y0178453D01*
X0082596Y0180051D02*
X0078044Y0180051D01*
X0077026Y0181650D02*
X0081387Y0181650D01*
X0074598Y0179014D02*
X0065598Y0179014D01*
X0068026Y0181650D02*
X0072170Y0181650D01*
X0059598Y0173657D02*
X0086998Y0173657D01*
X0086998Y0172059D02*
X0059598Y0172059D01*
X0059598Y0170460D02*
X0086998Y0170460D01*
X0081803Y0168862D02*
X0059598Y0168862D01*
X0059598Y0167263D02*
X0080961Y0167263D01*
X0099298Y0175256D02*
X0112298Y0175256D01*
X0112298Y0176854D02*
X0099298Y0176854D01*
X0099298Y0178453D02*
X0112298Y0178453D01*
X0112298Y0180051D02*
X0099298Y0180051D01*
X0096898Y0197614D02*
X0085198Y0209314D01*
X0092278Y0205628D02*
X0116469Y0205628D01*
X0115720Y0204029D02*
X0093877Y0204029D01*
X0095475Y0202431D02*
X0115775Y0202431D01*
X0116637Y0200832D02*
X0097074Y0200832D01*
X0126898Y0233314D02*
X0126998Y0233314D01*
X0129698Y0233714D01*
X0129698Y0233814D02*
X0126898Y0233314D01*
X0128198Y0234614D02*
X0129698Y0233814D01*
X0130398Y0241814D02*
X0235398Y0241814D01*
X0234398Y0237598D02*
X0179589Y0237598D01*
X0182407Y0235999D02*
X0234398Y0235999D01*
X0234398Y0234401D02*
X0183758Y0234401D01*
X0184079Y0232802D02*
X0234398Y0232802D01*
X0234398Y0231204D02*
X0183666Y0231204D01*
X0181869Y0229605D02*
X0222847Y0229605D01*
X0225898Y0227614D02*
X0228498Y0227714D01*
X0240298Y0227714D01*
X0243634Y0226408D02*
X0246898Y0226408D01*
X0246898Y0224810D02*
X0242459Y0224810D01*
X0239879Y0223211D02*
X0246898Y0223211D01*
X0246898Y0221613D02*
X0239718Y0221613D01*
X0238663Y0220014D02*
X0246898Y0220014D01*
X0246898Y0228007D02*
X0243879Y0228007D01*
X0236298Y0222714D02*
X0227798Y0222714D01*
X0230163Y0220014D02*
X0233933Y0220014D01*
X0244398Y0205814D02*
X0241898Y0203314D01*
X0209398Y0203314D01*
X0211981Y0200832D02*
X0246898Y0200832D01*
X0246898Y0199234D02*
X0209343Y0199234D01*
X0207098Y0196414D02*
X0259498Y0196414D01*
X0246898Y0202431D02*
X0245588Y0202431D01*
X0248408Y0175256D02*
X0251917Y0175256D01*
X0251498Y0175514D02*
X0248570Y0172585D01*
X0240264Y0172585D01*
X0249356Y0172585D01*
X0249356Y0172585D01*
X0240264Y0172585D01*
X0240264Y0172585D01*
X0240264Y0169436D02*
X0252020Y0169436D01*
X0251298Y0169514D01*
X0252391Y0173657D02*
X0249926Y0173657D01*
X0255498Y0175514D02*
X0255498Y0163114D01*
X0240264Y0153688D02*
X0240238Y0153714D01*
X0226398Y0153714D01*
X0229027Y0151278D02*
X0230590Y0151278D01*
X0230590Y0149680D02*
X0229008Y0149680D01*
X0229279Y0148081D02*
X0230690Y0148081D01*
X0225698Y0148314D02*
X0217698Y0148314D01*
X0216598Y0147114D01*
X0216598Y0130314D01*
X0208498Y0122214D01*
X0208498Y0102514D01*
X0241898Y0103314D02*
X0241898Y0103714D01*
X0249938Y0132096D02*
X0254398Y0132096D01*
X0254398Y0133695D02*
X0249919Y0133695D01*
X0249938Y0135293D02*
X0254398Y0135293D01*
X0254398Y0136892D02*
X0249932Y0136892D01*
X0249938Y0138490D02*
X0251881Y0138490D01*
X0250454Y0140089D02*
X0249938Y0140089D01*
X0249938Y0141687D02*
X0250117Y0141687D01*
X0249901Y0143286D02*
X0249838Y0143286D01*
X0254156Y0148081D02*
X0254398Y0148081D01*
X0230590Y0141687D02*
X0221998Y0141687D01*
X0221998Y0138490D02*
X0230590Y0138490D01*
X0230597Y0136892D02*
X0221998Y0136892D01*
X0230298Y0136414D02*
X0230298Y0134814D01*
X0197447Y0068156D02*
X0197198Y0068156D01*
X0177898Y0069214D02*
X0177798Y0069014D01*
X0144198Y0083014D02*
X0143598Y0083014D01*
X0121808Y0072951D02*
X0121630Y0072951D01*
X0120498Y0061762D02*
X0110144Y0061762D01*
X0111743Y0060163D02*
X0120498Y0060163D01*
X0139268Y0031390D02*
X0140098Y0031390D01*
X0140098Y0029791D02*
X0137898Y0029791D01*
X0137898Y0028193D02*
X0140098Y0028193D01*
X0140098Y0026594D02*
X0137898Y0026594D01*
X0137898Y0024996D02*
X0140098Y0024996D01*
X0140098Y0023397D02*
X0137176Y0023397D01*
X0135577Y0021799D02*
X0140098Y0021799D01*
X0140098Y0020200D02*
X0135279Y0020200D01*
X0134551Y0018602D02*
X0140098Y0018602D01*
X0140098Y0013806D02*
X0112198Y0013806D01*
X0112198Y0012208D02*
X0140098Y0012208D01*
X0140098Y0010609D02*
X0112198Y0010609D01*
X0112198Y0009011D02*
X0140673Y0009011D01*
X0126186Y0024996D02*
X0109040Y0024996D01*
X0109098Y0026594D02*
X0109112Y0026594D01*
X0112284Y0026594D02*
X0127785Y0026594D01*
X0128755Y0028193D02*
X0113903Y0028193D01*
X0071780Y0063360D02*
X0071498Y0063360D01*
X0059698Y0059614D02*
X0059698Y0077814D01*
X0071374Y0093732D02*
X0091156Y0093732D01*
X0096276Y0098527D02*
X0104379Y0098527D01*
X0104373Y0100126D02*
X0097324Y0100126D01*
X0097803Y0101724D02*
X0104367Y0101724D01*
X0104362Y0103323D02*
X0099401Y0103323D01*
X0101000Y0104921D02*
X0104356Y0104921D01*
X0104350Y0106520D02*
X0103569Y0106520D01*
X0100798Y0108114D02*
X0100798Y0108814D01*
X0100798Y0108114D02*
X0093898Y0101214D01*
X0090317Y0101724D02*
X0087273Y0101724D01*
X0088264Y0103323D02*
X0090943Y0103323D01*
X0091226Y0104921D02*
X0088379Y0104921D01*
X0086898Y0108614D02*
X0092698Y0108614D01*
X0094198Y0107014D01*
X0100798Y0134414D02*
X0100798Y0139414D01*
X0094398Y0145814D01*
X0090067Y0143286D02*
X0076676Y0143286D01*
X0076438Y0141687D02*
X0091666Y0141687D01*
X0096729Y0140089D02*
X0075316Y0140089D01*
X0072898Y0143014D02*
X0066098Y0136314D01*
X0044998Y0136314D01*
X0040698Y0140514D01*
X0040698Y0143014D01*
X0039201Y0146483D02*
X0026898Y0146483D01*
X0026898Y0148081D02*
X0060672Y0148081D01*
X0059073Y0146483D02*
X0042195Y0146483D01*
X0044013Y0144884D02*
X0057475Y0144884D01*
X0053927Y0143286D02*
X0044476Y0143286D01*
X0044238Y0141687D02*
X0052661Y0141687D01*
X0052320Y0140089D02*
X0044568Y0140089D01*
X0039328Y0138490D02*
X0026898Y0138490D01*
X0026898Y0136892D02*
X0039835Y0136892D01*
X0037719Y0135293D02*
X0026898Y0135293D01*
X0026898Y0133695D02*
X0036979Y0133695D01*
X0036848Y0132096D02*
X0026898Y0132096D01*
X0026898Y0130498D02*
X0037242Y0130498D01*
X0038354Y0128899D02*
X0026898Y0128899D01*
X0026898Y0140089D02*
X0038280Y0140089D01*
X0037158Y0141687D02*
X0026898Y0141687D01*
X0026898Y0143286D02*
X0036920Y0143286D01*
X0037384Y0144884D02*
X0026898Y0144884D01*
X0045269Y0125702D02*
X0049598Y0125702D01*
X0049598Y0124104D02*
X0046548Y0124104D01*
X0046548Y0122505D02*
X0049598Y0122505D01*
X0049598Y0120907D02*
X0046548Y0120907D01*
X0068482Y0135293D02*
X0097286Y0135293D01*
X0098212Y0136892D02*
X0070104Y0136892D01*
X0071727Y0138490D02*
X0098328Y0138490D01*
X0045791Y0175256D02*
X0026898Y0175256D01*
X0026898Y0176854D02*
X0044819Y0176854D01*
X0044717Y0178453D02*
X0026898Y0178453D01*
X0026898Y0180051D02*
X0045471Y0180051D01*
X0045498Y0181650D02*
X0026898Y0181650D01*
X0026898Y0183248D02*
X0045498Y0183248D01*
X0045498Y0184847D02*
X0026898Y0184847D01*
X0026898Y0186446D02*
X0045498Y0186446D01*
X0046369Y0188044D02*
X0032938Y0188044D01*
X0031458Y0188044D02*
X0026898Y0188044D01*
X0026898Y0189643D02*
X0029138Y0189643D01*
X0028617Y0191241D02*
X0026898Y0191241D01*
X0030798Y0185614D02*
X0030798Y0183414D01*
X0035258Y0189643D02*
X0047967Y0189643D01*
X0110898Y0241414D02*
X0113998Y0238314D01*
X0175398Y0238314D01*
X0175598Y0238514D01*
X0180498Y0232914D01*
X0163805Y0221613D02*
X0139598Y0221613D01*
X0139598Y0223211D02*
X0162206Y0223211D01*
X0160608Y0224810D02*
X0139598Y0224810D01*
X0139598Y0220014D02*
X0139934Y0220014D01*
X0159498Y0229314D02*
X0159498Y0229514D01*
X0130398Y0241814D02*
X0123898Y0248314D01*
X0123898Y0275814D01*
X0121098Y0278614D01*
X0071698Y0278614D01*
X0068398Y0275314D01*
X0066398Y0275314D01*
X0066198Y0280414D02*
X0069198Y0280414D01*
X0069998Y0281214D01*
X0122798Y0281214D01*
X0122898Y0281314D01*
X0126898Y0277814D01*
X0126898Y0250314D01*
X0131898Y0245314D01*
X0231898Y0245314D01*
X0232398Y0245814D01*
X0232498Y0265814D01*
X0244298Y0265814D01*
X0244198Y0260436D01*
X0244138Y0260696D01*
X0240398Y0260696D02*
X0240398Y0257214D01*
X0241098Y0256614D01*
X0249598Y0256614D01*
X0250898Y0255214D01*
X0255198Y0258314D02*
X0255258Y0259674D01*
X0261898Y0259755D01*
X0303698Y0232114D02*
X0303698Y0230932D01*
X0309870Y0230932D01*
X0309870Y0220696D02*
X0303098Y0220696D01*
X0236798Y0065314D02*
X0236898Y0037414D01*
X0237098Y0037214D01*
X0233687Y0032988D02*
X0230838Y0032988D01*
X0232436Y0031390D02*
X0238962Y0031390D01*
X0240561Y0029791D02*
X0233248Y0029791D01*
X0233248Y0028193D02*
X0242509Y0028193D01*
X0237298Y0023397D02*
X0236898Y0023397D01*
X0236898Y0021799D02*
X0237298Y0021799D01*
X0237298Y0020200D02*
X0236898Y0020200D01*
X0236898Y0018602D02*
X0237298Y0018602D01*
X0237298Y0017003D02*
X0236898Y0017003D01*
X0236898Y0015405D02*
X0237298Y0015405D01*
X0233329Y0015405D02*
X0229398Y0015405D01*
X0229398Y0017003D02*
X0232153Y0017003D01*
X0231658Y0018602D02*
X0229398Y0018602D01*
X0229398Y0020200D02*
X0231654Y0020200D01*
X0232141Y0021799D02*
X0229398Y0021799D01*
X0230996Y0023397D02*
X0233304Y0023397D01*
X0254915Y0047375D02*
X0255481Y0047375D01*
X0255481Y0048974D02*
X0254915Y0048974D01*
X0254915Y0052171D02*
X0255481Y0052171D01*
X0255481Y0053769D02*
X0254915Y0053769D01*
X0259073Y0053769D02*
X0261424Y0053769D01*
X0260529Y0052171D02*
X0259968Y0052171D01*
X0260005Y0048974D02*
X0260491Y0048974D01*
X0261339Y0047375D02*
X0259157Y0047375D01*
X0265015Y0052171D02*
X0265581Y0052171D01*
X0265581Y0053769D02*
X0265015Y0053769D01*
X0116298Y0243314D02*
X0119398Y0245814D01*
X0119398Y0273314D01*
X0052398Y0285814D02*
X0047398Y0280814D01*
X0045500Y0280814D01*
X0045500Y0275916D01*
X0040398Y0270814D01*
X0037351Y0270814D01*
X0031445Y0270814D02*
X0031398Y0270861D01*
X0031398Y0266814D01*
X0031898Y0266314D01*
X0031898Y0262873D01*
X0031839Y0262814D01*
X0036957Y0262814D02*
X0042398Y0262814D01*
X0031398Y0270861D02*
X0031398Y0274314D01*
X0033296Y0276211D01*
X0033296Y0280814D01*
D38*
X0075898Y0241314D03*
X0092998Y0228714D03*
X0104398Y0234014D03*
X0122598Y0234014D03*
X0129698Y0233814D03*
X0119498Y0203314D03*
X0107498Y0189814D03*
X0119598Y0179114D03*
X0088398Y0198914D03*
X0068098Y0199414D03*
X0054098Y0202214D03*
X0040098Y0209214D03*
X0034398Y0210714D03*
X0034398Y0228314D03*
X0058598Y0228514D03*
X0056798Y0187014D03*
X0084698Y0166414D03*
X0072898Y0143014D03*
X0056098Y0140114D03*
X0040698Y0143014D03*
X0119598Y0141914D03*
X0126298Y0131314D03*
X0126298Y0124414D03*
X0125098Y0105714D03*
X0125198Y0091114D03*
X0143598Y0083014D03*
X0160598Y0088014D03*
X0165398Y0088114D03*
X0167698Y0082214D03*
X0160898Y0081914D03*
X0165898Y0098214D03*
X0166898Y0109114D03*
X0158798Y0109614D03*
X0150398Y0109614D03*
X0144598Y0109714D03*
X0177298Y0124214D03*
X0182398Y0124214D03*
X0182598Y0107314D03*
X0127198Y0063014D03*
X0118598Y0062914D03*
X0109198Y0052614D03*
X0122998Y0049914D03*
X0144198Y0049914D03*
X0192898Y0056514D03*
X0241898Y0103714D03*
X0236398Y0180714D03*
X0236498Y0187414D03*
X0097098Y0074214D03*
X0092298Y0068214D03*
X0084398Y0068314D03*
D39*
X0092298Y0068314D01*
X0092298Y0068214D01*
X0096698Y0054014D02*
X0095998Y0053314D01*
X0069398Y0053314D02*
X0069098Y0053014D01*
X0081398Y0104314D02*
X0081398Y0127614D01*
X0081398Y0104314D02*
X0084798Y0104314D01*
D40*
X0084798Y0104314D03*
X0086898Y0108614D03*
X0094198Y0107014D03*
X0093898Y0101214D03*
X0102298Y0099914D03*
X0102298Y0104114D03*
X0100798Y0108814D03*
X0118698Y0104514D03*
X0099398Y0083314D03*
X0091898Y0083314D03*
X0085998Y0079214D03*
X0078998Y0079214D03*
X0066198Y0076114D03*
X0067198Y0088114D03*
X0061898Y0090814D03*
X0056198Y0094414D03*
X0047798Y0099314D03*
X0029798Y0098314D03*
X0029998Y0103714D03*
X0030998Y0123514D03*
X0053998Y0132714D03*
X0048498Y0141314D03*
X0041298Y0150114D03*
X0028498Y0165314D03*
X0030798Y0183414D03*
X0032198Y0191614D03*
X0048898Y0192714D03*
X0048998Y0197314D03*
X0053598Y0208614D03*
X0074898Y0186114D03*
X0079798Y0186114D03*
X0084698Y0183014D03*
X0084798Y0189614D03*
X0074598Y0179014D03*
X0065598Y0179014D03*
X0060798Y0179814D03*
X0061298Y0173814D03*
X0066098Y0173814D03*
X0048298Y0177814D03*
X0048198Y0169214D03*
X0078698Y0158614D03*
X0079498Y0153414D03*
X0078198Y0141714D03*
X0089298Y0139514D03*
X0100798Y0134414D03*
X0100798Y0145314D03*
X0100798Y0162114D03*
X0106398Y0180514D03*
X0120498Y0188814D03*
X0101498Y0196514D03*
X0104298Y0208114D03*
X0097398Y0208214D03*
X0085198Y0215014D03*
X0083598Y0201814D03*
X0104698Y0222314D03*
X0119498Y0209314D03*
X0141198Y0202614D03*
X0154898Y0212714D03*
X0142598Y0217614D03*
X0159498Y0229314D03*
X0171898Y0228314D03*
X0180498Y0232914D03*
X0203998Y0226914D03*
X0209198Y0217614D03*
X0210298Y0210314D03*
X0209398Y0203314D03*
X0202398Y0202014D03*
X0207098Y0196414D03*
X0202498Y0187714D03*
X0194198Y0187714D03*
X0178198Y0192514D03*
X0166898Y0195814D03*
X0162898Y0191814D03*
X0154898Y0187714D03*
X0161698Y0179914D03*
X0166898Y0178314D03*
X0176198Y0178514D03*
X0166498Y0162414D03*
X0172398Y0154014D03*
X0167898Y0145014D03*
X0163998Y0140014D03*
X0156998Y0140814D03*
X0149398Y0133314D03*
X0158798Y0153114D03*
X0156198Y0177614D03*
X0123198Y0161714D03*
X0081398Y0127614D03*
X0070098Y0123514D03*
X0071198Y0109614D03*
X0068898Y0100914D03*
X0074298Y0060814D03*
X0072898Y0048414D03*
X0069898Y0042614D03*
X0058798Y0030614D03*
X0051198Y0023414D03*
X0044298Y0029314D03*
X0038398Y0031014D03*
X0051698Y0042114D03*
X0051798Y0052614D03*
X0059698Y0059614D03*
X0088498Y0039914D03*
X0096698Y0054014D03*
X0107098Y0039014D03*
X0110698Y0029814D03*
X0109798Y0017914D03*
X0130398Y0013814D03*
X0138198Y0013714D03*
X0131698Y0020814D03*
X0131198Y0030814D03*
X0127298Y0036914D03*
X0131598Y0040814D03*
X0126798Y0044614D03*
X0127798Y0055414D03*
X0118298Y0056314D03*
X0141398Y0055514D03*
X0141398Y0068714D03*
X0164298Y0060214D03*
X0169598Y0059814D03*
X0171998Y0065314D03*
X0177798Y0069014D03*
X0176498Y0060114D03*
X0189798Y0061014D03*
X0201898Y0058414D03*
X0207798Y0051314D03*
X0192498Y0036214D03*
X0175198Y0040814D03*
X0169398Y0045814D03*
X0161498Y0046814D03*
X0161598Y0035614D03*
X0152398Y0029314D03*
X0152398Y0024014D03*
X0198698Y0071514D03*
X0202998Y0075214D03*
X0198698Y0085514D03*
X0190198Y0081014D03*
X0202998Y0094414D03*
X0205798Y0099614D03*
X0189798Y0098014D03*
X0173398Y0091914D03*
X0159698Y0098714D03*
X0188498Y0135014D03*
X0188598Y0140014D03*
X0190098Y0157614D03*
X0208798Y0164914D03*
X0212598Y0170214D03*
X0212398Y0176614D03*
X0226898Y0168314D03*
X0229098Y0158814D03*
X0226398Y0153714D03*
X0225698Y0148314D03*
X0225398Y0139914D03*
X0225698Y0133014D03*
X0218898Y0121514D03*
X0236998Y0099614D03*
X0234698Y0095114D03*
X0233298Y0089614D03*
X0227998Y0090314D03*
X0242398Y0083914D03*
X0236798Y0065314D03*
X0265698Y0084214D03*
X0265398Y0108714D03*
X0286198Y0126414D03*
X0269198Y0141314D03*
X0274298Y0145714D03*
X0278898Y0150414D03*
X0279698Y0155814D03*
X0253698Y0141614D03*
X0252298Y0133714D03*
X0251298Y0169514D03*
X0255498Y0175514D03*
X0247398Y0178714D03*
X0249398Y0190814D03*
X0244398Y0205814D03*
X0236298Y0222714D03*
X0240298Y0227714D03*
X0227798Y0222714D03*
X0225898Y0227614D03*
X0235398Y0241814D03*
X0255098Y0258414D03*
X0233898Y0277314D03*
X0211398Y0237114D03*
X0288598Y0228814D03*
X0288598Y0224414D03*
X0288598Y0220114D03*
X0303698Y0233614D03*
X0303698Y0237814D03*
X0307598Y0266714D03*
X0311698Y0266714D03*
X0315798Y0266714D03*
X0314498Y0116814D03*
X0303998Y0106814D03*
X0292498Y0106914D03*
X0292898Y0073814D03*
X0303598Y0074014D03*
X0304398Y0068314D03*
X0298998Y0061914D03*
X0299398Y0038314D03*
X0271898Y0035814D03*
X0269698Y0042214D03*
X0250398Y0038414D03*
X0226498Y0036914D03*
X0271898Y0017414D03*
X0075098Y0023614D03*
X0034098Y0010814D03*
X0029398Y0010814D03*
X0029498Y0015614D03*
X0029398Y0048314D03*
X0110898Y0241414D03*
X0116298Y0243314D03*
X0119398Y0273314D03*
X0066398Y0275314D03*
X0066198Y0280414D03*
X0052398Y0285814D03*
X0042398Y0262814D03*
D41*
X0078998Y0222414D02*
X0104698Y0222314D01*
X0095498Y0231214D02*
X0095498Y0264414D01*
X0101898Y0270814D01*
X0104398Y0270814D01*
X0095498Y0231214D02*
X0092998Y0228714D01*
X0078998Y0222414D02*
X0078998Y0193614D01*
X0055798Y0193514D01*
X0048298Y0186014D01*
X0048298Y0177814D01*
X0056798Y0187014D02*
X0056798Y0164614D01*
X0058098Y0163314D01*
X0082598Y0163414D01*
X0084698Y0166414D01*
X0109098Y0152514D02*
X0109098Y0112814D01*
X0097898Y0112814D01*
X0094198Y0109114D01*
X0094198Y0107014D01*
X0093098Y0091714D02*
X0106198Y0091714D01*
X0112898Y0099214D01*
X0113098Y0151214D01*
X0123198Y0161714D01*
X0115098Y0159114D02*
X0109098Y0152514D01*
X0115098Y0159114D02*
X0115098Y0182414D01*
X0107498Y0189814D01*
X0119498Y0203314D02*
X0128798Y0203314D01*
X0128798Y0177014D01*
X0093098Y0091714D02*
X0085998Y0084614D01*
X0085998Y0079214D01*
X0092498Y0056314D02*
X0072298Y0056314D01*
X0072298Y0049014D01*
X0072898Y0048414D01*
X0092498Y0056314D02*
X0095498Y0053314D01*
X0095998Y0053314D01*
X0096698Y0054014D02*
X0098298Y0054014D01*
X0100698Y0056414D01*
X0105398Y0056414D01*
X0109198Y0052614D01*
X0166898Y0019114D02*
X0167598Y0019814D01*
X0237098Y0037214D02*
X0243498Y0030814D01*
X0279398Y0030814D01*
X0289398Y0020814D02*
X0289398Y0015814D01*
X0284598Y0253014D02*
X0284598Y0259414D01*
X0284698Y0259414D01*
X0285798Y0260514D01*
X0287198Y0260514D01*
X0288098Y0261414D01*
X0288098Y0266455D01*
X0279598Y0266455D01*
X0280338Y0266414D02*
X0293498Y0266414D01*
X0288098Y0271573D02*
X0279598Y0271573D01*
X0279158Y0271414D01*
X0276798Y0271414D01*
X0273898Y0269414D01*
X0273898Y0257814D01*
X0274998Y0256714D01*
X0275798Y0256714D01*
X0261898Y0259755D02*
X0254658Y0259574D01*
X0256258Y0264914D02*
X0261898Y0264873D01*
X0296298Y0258114D02*
X0301738Y0258114D01*
X0302598Y0256073D01*
D42*
X0113798Y0249114D03*
D43*
X0233898Y0277314D02*
X0234398Y0276814D01*
X0236098Y0276814D01*
X0236698Y0274714D01*
X0236698Y0274214D01*
X0236658Y0274174D01*
X0236658Y0270932D01*
X0244138Y0270932D02*
X0245980Y0270932D01*
X0245998Y0270914D01*
X0236658Y0260696D02*
X0236698Y0260655D01*
X0236698Y0257214D01*
X0275798Y0256714D02*
X0275838Y0256754D01*
X0279480Y0256754D01*
X0279480Y0253014D02*
X0284598Y0253014D01*
X0289716Y0256754D02*
X0294938Y0256754D01*
X0296298Y0258114D01*
X0296298Y0262414D01*
X0311698Y0262414D01*
X0311698Y0257254D01*
X0311598Y0256073D01*
X0302598Y0250955D02*
X0302098Y0249274D01*
X0300498Y0249274D01*
X0289716Y0249274D01*
X0279480Y0249274D02*
X0275258Y0249274D01*
X0275198Y0249214D01*
X0275598Y0249214D02*
X0275658Y0249274D01*
X0279480Y0249274D01*
D44*
X0275598Y0249214D02*
X0275498Y0249214D01*
X0271548Y0249164D01*
X0271548Y0252764D01*
X0269398Y0254914D01*
X0269398Y0271114D01*
X0272598Y0274314D01*
X0272598Y0277714D01*
X0272298Y0278014D01*
X0256258Y0264914D02*
X0255098Y0266014D01*
X0250198Y0270914D01*
X0245998Y0270914D01*
X0233998Y0277414D02*
X0233998Y0279514D01*
X0235398Y0280914D01*
X0233998Y0277414D02*
X0233898Y0277314D01*
X0236698Y0257214D02*
X0236698Y0252714D01*
X0243098Y0252714D01*
X0243098Y0247014D01*
X0243358Y0247814D01*
X0267098Y0250014D02*
X0270598Y0250014D01*
X0271548Y0249164D01*
X0270898Y0249814D01*
X0275198Y0249214D02*
X0275198Y0245914D01*
X0294598Y0249214D02*
X0300438Y0249214D01*
X0300498Y0249274D01*
X0311598Y0249814D02*
X0319698Y0249814D01*
X0320598Y0249914D01*
X0320598Y0266714D01*
X0320298Y0266714D01*
X0315798Y0266714D01*
X0294198Y0266714D01*
X0293498Y0266414D01*
X0311598Y0250955D02*
X0311598Y0249814D01*
X0319698Y0249814D02*
X0320798Y0249814D01*
X0303098Y0220696D02*
X0303098Y0210514D01*
X0320598Y0210514D01*
X0253698Y0144014D02*
X0250323Y0147389D01*
X0253698Y0144014D02*
X0253698Y0141614D01*
X0286198Y0126414D02*
X0286198Y0068314D01*
X0286198Y0061214D01*
X0296898Y0050514D01*
X0306898Y0050514D02*
X0306998Y0050414D01*
X0299398Y0038314D02*
X0299398Y0030814D01*
X0289398Y0030814D02*
X0289398Y0038314D01*
X0304398Y0020814D02*
X0314398Y0020814D01*
X0128798Y0179014D02*
X0119598Y0179114D01*
X0070398Y0216314D02*
X0070398Y0236314D01*
X0058598Y0228514D02*
X0058598Y0205214D01*
X0054098Y0202214D01*
X0043398Y0216314D02*
X0043398Y0236314D01*
D45*
X0235398Y0280914D02*
X0268998Y0281014D01*
X0272298Y0278014D01*
D46*
X0254658Y0259574D02*
X0255098Y0258414D01*
X0254998Y0258314D01*
X0253998Y0258314D01*
X0250898Y0255214D01*
X0250898Y0247874D01*
X0250838Y0247814D01*
X0275198Y0245914D02*
X0278698Y0243014D01*
X0281898Y0243014D01*
X0281898Y0168314D01*
X0296898Y0153314D01*
X0299398Y0153314D01*
X0320598Y0210514D02*
X0320598Y0211306D01*
X0320598Y0225814D01*
X0320598Y0240322D01*
X0320598Y0249914D01*
X0303698Y0237814D02*
X0303698Y0232114D01*
X0320298Y0266714D02*
X0320598Y0267014D01*
X0320598Y0271414D01*
X0319398Y0272614D01*
X0319398Y0275814D01*
X0128798Y0179014D02*
X0128798Y0177014D01*
X0128798Y0169814D01*
X0128898Y0169714D01*
X0128898Y0155214D01*
X0119598Y0145914D01*
X0119598Y0141914D01*
X0119398Y0115314D01*
D47*
X0234798Y0163114D02*
X0234898Y0163014D01*
X0240141Y0163014D01*
X0240264Y0163137D01*
D48*
X0319398Y0275814D03*
M02*
