G75*
%MOIN*%
%OFA0B0*%
%FSLAX25Y25*%
%IPPOS*%
%LPD*%
%AMOC8*
5,1,8,0,0,1.08239X$1,22.5*
%
%ADD10C,0.00000*%
%ADD11C,0.01000*%
%ADD12C,0.00600*%
%ADD13C,0.00500*%
%ADD14R,0.09000X0.02500*%
%ADD15C,0.00800*%
%ADD16C,0.01600*%
%ADD17C,0.02200*%
%ADD18C,0.03000*%
%ADD19C,0.00200*%
%ADD20C,0.00010*%
D10*
X0024398Y0005814D02*
X0024398Y0290774D01*
X0328099Y0290774D01*
X0328099Y0005814D01*
X0024398Y0005814D01*
X0047363Y0032519D02*
X0047365Y0032596D01*
X0047371Y0032672D01*
X0047381Y0032748D01*
X0047395Y0032823D01*
X0047412Y0032898D01*
X0047434Y0032971D01*
X0047459Y0033044D01*
X0047489Y0033115D01*
X0047521Y0033184D01*
X0047558Y0033251D01*
X0047597Y0033317D01*
X0047640Y0033380D01*
X0047687Y0033441D01*
X0047736Y0033500D01*
X0047789Y0033556D01*
X0047844Y0033609D01*
X0047902Y0033659D01*
X0047962Y0033706D01*
X0048025Y0033750D01*
X0048090Y0033791D01*
X0048157Y0033828D01*
X0048226Y0033862D01*
X0048296Y0033892D01*
X0048368Y0033918D01*
X0048442Y0033940D01*
X0048516Y0033959D01*
X0048591Y0033974D01*
X0048667Y0033985D01*
X0048743Y0033992D01*
X0048820Y0033995D01*
X0048896Y0033994D01*
X0048973Y0033989D01*
X0049049Y0033980D01*
X0049125Y0033967D01*
X0049199Y0033950D01*
X0049273Y0033930D01*
X0049346Y0033905D01*
X0049417Y0033877D01*
X0049487Y0033845D01*
X0049555Y0033810D01*
X0049621Y0033771D01*
X0049685Y0033729D01*
X0049746Y0033683D01*
X0049806Y0033634D01*
X0049862Y0033583D01*
X0049916Y0033528D01*
X0049967Y0033471D01*
X0050015Y0033411D01*
X0050060Y0033349D01*
X0050101Y0033284D01*
X0050139Y0033218D01*
X0050174Y0033150D01*
X0050204Y0033079D01*
X0050232Y0033008D01*
X0050255Y0032935D01*
X0050275Y0032861D01*
X0050291Y0032786D01*
X0050303Y0032710D01*
X0050311Y0032634D01*
X0050315Y0032557D01*
X0050315Y0032481D01*
X0050311Y0032404D01*
X0050303Y0032328D01*
X0050291Y0032252D01*
X0050275Y0032177D01*
X0050255Y0032103D01*
X0050232Y0032030D01*
X0050204Y0031959D01*
X0050174Y0031888D01*
X0050139Y0031820D01*
X0050101Y0031754D01*
X0050060Y0031689D01*
X0050015Y0031627D01*
X0049967Y0031567D01*
X0049916Y0031510D01*
X0049862Y0031455D01*
X0049806Y0031404D01*
X0049746Y0031355D01*
X0049685Y0031309D01*
X0049621Y0031267D01*
X0049555Y0031228D01*
X0049487Y0031193D01*
X0049417Y0031161D01*
X0049346Y0031133D01*
X0049273Y0031108D01*
X0049199Y0031088D01*
X0049125Y0031071D01*
X0049049Y0031058D01*
X0048973Y0031049D01*
X0048896Y0031044D01*
X0048820Y0031043D01*
X0048743Y0031046D01*
X0048667Y0031053D01*
X0048591Y0031064D01*
X0048516Y0031079D01*
X0048442Y0031098D01*
X0048368Y0031120D01*
X0048296Y0031146D01*
X0048226Y0031176D01*
X0048157Y0031210D01*
X0048090Y0031247D01*
X0048025Y0031288D01*
X0047962Y0031332D01*
X0047902Y0031379D01*
X0047844Y0031429D01*
X0047789Y0031482D01*
X0047736Y0031538D01*
X0047687Y0031597D01*
X0047640Y0031658D01*
X0047597Y0031721D01*
X0047558Y0031787D01*
X0047521Y0031854D01*
X0047489Y0031923D01*
X0047459Y0031994D01*
X0047434Y0032067D01*
X0047412Y0032140D01*
X0047395Y0032215D01*
X0047381Y0032290D01*
X0047371Y0032366D01*
X0047365Y0032442D01*
X0047363Y0032519D01*
X0057890Y0022508D02*
X0057892Y0022599D01*
X0057898Y0022689D01*
X0057908Y0022780D01*
X0057922Y0022869D01*
X0057940Y0022958D01*
X0057961Y0023047D01*
X0057987Y0023134D01*
X0058016Y0023220D01*
X0058050Y0023304D01*
X0058086Y0023387D01*
X0058127Y0023469D01*
X0058171Y0023548D01*
X0058218Y0023626D01*
X0058269Y0023701D01*
X0058323Y0023774D01*
X0058380Y0023844D01*
X0058440Y0023912D01*
X0058503Y0023978D01*
X0058569Y0024040D01*
X0058638Y0024099D01*
X0058709Y0024156D01*
X0058783Y0024209D01*
X0058859Y0024259D01*
X0058937Y0024306D01*
X0059017Y0024349D01*
X0059098Y0024388D01*
X0059182Y0024424D01*
X0059267Y0024456D01*
X0059353Y0024485D01*
X0059440Y0024509D01*
X0059529Y0024530D01*
X0059618Y0024547D01*
X0059708Y0024560D01*
X0059798Y0024569D01*
X0059889Y0024574D01*
X0059980Y0024575D01*
X0060070Y0024572D01*
X0060161Y0024565D01*
X0060251Y0024554D01*
X0060341Y0024539D01*
X0060430Y0024520D01*
X0060518Y0024498D01*
X0060604Y0024471D01*
X0060690Y0024441D01*
X0060774Y0024407D01*
X0060857Y0024369D01*
X0060938Y0024328D01*
X0061017Y0024283D01*
X0061094Y0024234D01*
X0061168Y0024183D01*
X0061241Y0024128D01*
X0061311Y0024070D01*
X0061378Y0024009D01*
X0061442Y0023945D01*
X0061504Y0023879D01*
X0061563Y0023809D01*
X0061618Y0023738D01*
X0061671Y0023663D01*
X0061720Y0023587D01*
X0061766Y0023509D01*
X0061808Y0023428D01*
X0061847Y0023346D01*
X0061882Y0023262D01*
X0061913Y0023177D01*
X0061940Y0023090D01*
X0061964Y0023003D01*
X0061984Y0022914D01*
X0062000Y0022825D01*
X0062012Y0022735D01*
X0062020Y0022644D01*
X0062024Y0022553D01*
X0062024Y0022463D01*
X0062020Y0022372D01*
X0062012Y0022281D01*
X0062000Y0022191D01*
X0061984Y0022102D01*
X0061964Y0022013D01*
X0061940Y0021926D01*
X0061913Y0021839D01*
X0061882Y0021754D01*
X0061847Y0021670D01*
X0061808Y0021588D01*
X0061766Y0021507D01*
X0061720Y0021429D01*
X0061671Y0021353D01*
X0061618Y0021278D01*
X0061563Y0021207D01*
X0061504Y0021137D01*
X0061442Y0021071D01*
X0061378Y0021007D01*
X0061311Y0020946D01*
X0061241Y0020888D01*
X0061168Y0020833D01*
X0061094Y0020782D01*
X0061017Y0020733D01*
X0060938Y0020688D01*
X0060857Y0020647D01*
X0060774Y0020609D01*
X0060690Y0020575D01*
X0060604Y0020545D01*
X0060518Y0020518D01*
X0060430Y0020496D01*
X0060341Y0020477D01*
X0060251Y0020462D01*
X0060161Y0020451D01*
X0060070Y0020444D01*
X0059980Y0020441D01*
X0059889Y0020442D01*
X0059798Y0020447D01*
X0059708Y0020456D01*
X0059618Y0020469D01*
X0059529Y0020486D01*
X0059440Y0020507D01*
X0059353Y0020531D01*
X0059267Y0020560D01*
X0059182Y0020592D01*
X0059098Y0020628D01*
X0059017Y0020667D01*
X0058937Y0020710D01*
X0058859Y0020757D01*
X0058783Y0020807D01*
X0058709Y0020860D01*
X0058638Y0020917D01*
X0058569Y0020976D01*
X0058503Y0021038D01*
X0058440Y0021104D01*
X0058380Y0021172D01*
X0058323Y0021242D01*
X0058269Y0021315D01*
X0058218Y0021390D01*
X0058171Y0021468D01*
X0058127Y0021547D01*
X0058086Y0021629D01*
X0058050Y0021712D01*
X0058016Y0021796D01*
X0057987Y0021882D01*
X0057961Y0021969D01*
X0057940Y0022058D01*
X0057922Y0022147D01*
X0057908Y0022236D01*
X0057898Y0022327D01*
X0057892Y0022417D01*
X0057890Y0022508D01*
X0310264Y0218333D02*
X0310266Y0218414D01*
X0310272Y0218496D01*
X0310282Y0218577D01*
X0310296Y0218657D01*
X0310313Y0218736D01*
X0310335Y0218815D01*
X0310360Y0218892D01*
X0310389Y0218969D01*
X0310422Y0219043D01*
X0310459Y0219116D01*
X0310498Y0219187D01*
X0310542Y0219256D01*
X0310588Y0219323D01*
X0310638Y0219387D01*
X0310691Y0219449D01*
X0310747Y0219509D01*
X0310805Y0219565D01*
X0310867Y0219619D01*
X0310931Y0219670D01*
X0310997Y0219717D01*
X0311065Y0219761D01*
X0311136Y0219802D01*
X0311208Y0219839D01*
X0311283Y0219873D01*
X0311358Y0219903D01*
X0311436Y0219929D01*
X0311514Y0219952D01*
X0311593Y0219970D01*
X0311673Y0219985D01*
X0311754Y0219996D01*
X0311835Y0220003D01*
X0311917Y0220006D01*
X0311998Y0220005D01*
X0312079Y0220000D01*
X0312160Y0219991D01*
X0312241Y0219978D01*
X0312321Y0219961D01*
X0312399Y0219941D01*
X0312477Y0219916D01*
X0312554Y0219888D01*
X0312629Y0219856D01*
X0312702Y0219821D01*
X0312773Y0219782D01*
X0312843Y0219739D01*
X0312910Y0219694D01*
X0312976Y0219645D01*
X0313038Y0219593D01*
X0313098Y0219537D01*
X0313155Y0219479D01*
X0313210Y0219419D01*
X0313261Y0219355D01*
X0313309Y0219290D01*
X0313354Y0219222D01*
X0313396Y0219152D01*
X0313434Y0219080D01*
X0313469Y0219006D01*
X0313500Y0218931D01*
X0313527Y0218854D01*
X0313550Y0218776D01*
X0313570Y0218697D01*
X0313586Y0218617D01*
X0313598Y0218536D01*
X0313606Y0218455D01*
X0313610Y0218374D01*
X0313610Y0218292D01*
X0313606Y0218211D01*
X0313598Y0218130D01*
X0313586Y0218049D01*
X0313570Y0217969D01*
X0313550Y0217890D01*
X0313527Y0217812D01*
X0313500Y0217735D01*
X0313469Y0217660D01*
X0313434Y0217586D01*
X0313396Y0217514D01*
X0313354Y0217444D01*
X0313309Y0217376D01*
X0313261Y0217311D01*
X0313210Y0217247D01*
X0313155Y0217187D01*
X0313098Y0217129D01*
X0313038Y0217073D01*
X0312976Y0217021D01*
X0312910Y0216972D01*
X0312843Y0216927D01*
X0312774Y0216884D01*
X0312702Y0216845D01*
X0312629Y0216810D01*
X0312554Y0216778D01*
X0312477Y0216750D01*
X0312399Y0216725D01*
X0312321Y0216705D01*
X0312241Y0216688D01*
X0312160Y0216675D01*
X0312079Y0216666D01*
X0311998Y0216661D01*
X0311917Y0216660D01*
X0311835Y0216663D01*
X0311754Y0216670D01*
X0311673Y0216681D01*
X0311593Y0216696D01*
X0311514Y0216714D01*
X0311436Y0216737D01*
X0311358Y0216763D01*
X0311283Y0216793D01*
X0311208Y0216827D01*
X0311136Y0216864D01*
X0311065Y0216905D01*
X0310997Y0216949D01*
X0310931Y0216996D01*
X0310867Y0217047D01*
X0310805Y0217101D01*
X0310747Y0217157D01*
X0310691Y0217217D01*
X0310638Y0217279D01*
X0310588Y0217343D01*
X0310542Y0217410D01*
X0310498Y0217479D01*
X0310459Y0217550D01*
X0310422Y0217623D01*
X0310389Y0217697D01*
X0310360Y0217774D01*
X0310335Y0217851D01*
X0310313Y0217930D01*
X0310296Y0218009D01*
X0310282Y0218089D01*
X0310272Y0218170D01*
X0310266Y0218252D01*
X0310264Y0218333D01*
X0310264Y0233294D02*
X0310266Y0233375D01*
X0310272Y0233457D01*
X0310282Y0233538D01*
X0310296Y0233618D01*
X0310313Y0233697D01*
X0310335Y0233776D01*
X0310360Y0233853D01*
X0310389Y0233930D01*
X0310422Y0234004D01*
X0310459Y0234077D01*
X0310498Y0234148D01*
X0310542Y0234217D01*
X0310588Y0234284D01*
X0310638Y0234348D01*
X0310691Y0234410D01*
X0310747Y0234470D01*
X0310805Y0234526D01*
X0310867Y0234580D01*
X0310931Y0234631D01*
X0310997Y0234678D01*
X0311065Y0234722D01*
X0311136Y0234763D01*
X0311208Y0234800D01*
X0311283Y0234834D01*
X0311358Y0234864D01*
X0311436Y0234890D01*
X0311514Y0234913D01*
X0311593Y0234931D01*
X0311673Y0234946D01*
X0311754Y0234957D01*
X0311835Y0234964D01*
X0311917Y0234967D01*
X0311998Y0234966D01*
X0312079Y0234961D01*
X0312160Y0234952D01*
X0312241Y0234939D01*
X0312321Y0234922D01*
X0312399Y0234902D01*
X0312477Y0234877D01*
X0312554Y0234849D01*
X0312629Y0234817D01*
X0312702Y0234782D01*
X0312773Y0234743D01*
X0312843Y0234700D01*
X0312910Y0234655D01*
X0312976Y0234606D01*
X0313038Y0234554D01*
X0313098Y0234498D01*
X0313155Y0234440D01*
X0313210Y0234380D01*
X0313261Y0234316D01*
X0313309Y0234251D01*
X0313354Y0234183D01*
X0313396Y0234113D01*
X0313434Y0234041D01*
X0313469Y0233967D01*
X0313500Y0233892D01*
X0313527Y0233815D01*
X0313550Y0233737D01*
X0313570Y0233658D01*
X0313586Y0233578D01*
X0313598Y0233497D01*
X0313606Y0233416D01*
X0313610Y0233335D01*
X0313610Y0233253D01*
X0313606Y0233172D01*
X0313598Y0233091D01*
X0313586Y0233010D01*
X0313570Y0232930D01*
X0313550Y0232851D01*
X0313527Y0232773D01*
X0313500Y0232696D01*
X0313469Y0232621D01*
X0313434Y0232547D01*
X0313396Y0232475D01*
X0313354Y0232405D01*
X0313309Y0232337D01*
X0313261Y0232272D01*
X0313210Y0232208D01*
X0313155Y0232148D01*
X0313098Y0232090D01*
X0313038Y0232034D01*
X0312976Y0231982D01*
X0312910Y0231933D01*
X0312843Y0231888D01*
X0312774Y0231845D01*
X0312702Y0231806D01*
X0312629Y0231771D01*
X0312554Y0231739D01*
X0312477Y0231711D01*
X0312399Y0231686D01*
X0312321Y0231666D01*
X0312241Y0231649D01*
X0312160Y0231636D01*
X0312079Y0231627D01*
X0311998Y0231622D01*
X0311917Y0231621D01*
X0311835Y0231624D01*
X0311754Y0231631D01*
X0311673Y0231642D01*
X0311593Y0231657D01*
X0311514Y0231675D01*
X0311436Y0231698D01*
X0311358Y0231724D01*
X0311283Y0231754D01*
X0311208Y0231788D01*
X0311136Y0231825D01*
X0311065Y0231866D01*
X0310997Y0231910D01*
X0310931Y0231957D01*
X0310867Y0232008D01*
X0310805Y0232062D01*
X0310747Y0232118D01*
X0310691Y0232178D01*
X0310638Y0232240D01*
X0310588Y0232304D01*
X0310542Y0232371D01*
X0310498Y0232440D01*
X0310459Y0232511D01*
X0310422Y0232584D01*
X0310389Y0232658D01*
X0310360Y0232735D01*
X0310335Y0232812D01*
X0310313Y0232891D01*
X0310296Y0232970D01*
X0310282Y0233050D01*
X0310272Y0233131D01*
X0310266Y0233213D01*
X0310264Y0233294D01*
D11*
X0102586Y0090418D02*
X0102586Y0066009D01*
X0101503Y0064926D01*
X0077093Y0064926D01*
X0076011Y0066009D01*
X0076011Y0090418D01*
X0077093Y0091501D01*
X0101503Y0091501D01*
X0102586Y0090418D01*
X0076398Y0087414D02*
X0076298Y0087514D01*
D12*
X0065751Y0095383D02*
X0059845Y0095383D01*
X0059846Y0095383D02*
X0059780Y0095391D01*
X0059716Y0095403D01*
X0059652Y0095419D01*
X0059589Y0095438D01*
X0059528Y0095462D01*
X0059468Y0095489D01*
X0059410Y0095519D01*
X0059354Y0095553D01*
X0059300Y0095590D01*
X0059248Y0095631D01*
X0059199Y0095675D01*
X0059152Y0095721D01*
X0059109Y0095770D01*
X0059068Y0095822D01*
X0059031Y0095876D01*
X0058997Y0095932D01*
X0058967Y0095990D01*
X0058940Y0096050D01*
X0058916Y0096111D01*
X0058897Y0096174D01*
X0058881Y0096238D01*
X0058869Y0096302D01*
X0058861Y0096368D01*
X0058857Y0096433D01*
X0058857Y0096499D01*
X0058861Y0096564D01*
X0058861Y0102863D01*
X0058861Y0102864D02*
X0058857Y0102929D01*
X0058857Y0102995D01*
X0058861Y0103060D01*
X0058869Y0103126D01*
X0058881Y0103190D01*
X0058897Y0103254D01*
X0058916Y0103317D01*
X0058940Y0103378D01*
X0058967Y0103438D01*
X0058997Y0103496D01*
X0059031Y0103552D01*
X0059068Y0103606D01*
X0059109Y0103658D01*
X0059152Y0103707D01*
X0059199Y0103753D01*
X0059248Y0103797D01*
X0059300Y0103838D01*
X0059354Y0103875D01*
X0059410Y0103909D01*
X0059468Y0103939D01*
X0059528Y0103966D01*
X0059589Y0103990D01*
X0059652Y0104009D01*
X0059716Y0104025D01*
X0059780Y0104037D01*
X0059846Y0104045D01*
X0059845Y0104044D02*
X0065751Y0104044D01*
X0065750Y0104045D02*
X0065813Y0104037D01*
X0065875Y0104026D01*
X0065937Y0104011D01*
X0065997Y0103993D01*
X0066057Y0103971D01*
X0066115Y0103946D01*
X0066171Y0103917D01*
X0066226Y0103885D01*
X0066278Y0103850D01*
X0066329Y0103812D01*
X0066377Y0103772D01*
X0066423Y0103728D01*
X0066466Y0103682D01*
X0066507Y0103633D01*
X0066545Y0103582D01*
X0066579Y0103530D01*
X0066611Y0103475D01*
X0066639Y0103418D01*
X0066664Y0103360D01*
X0066685Y0103300D01*
X0066703Y0103240D01*
X0066717Y0103178D01*
X0066728Y0103116D01*
X0066735Y0103053D01*
X0066739Y0102990D01*
X0066738Y0102927D01*
X0066735Y0102864D01*
X0066735Y0102863D02*
X0066735Y0096564D01*
X0066739Y0096501D01*
X0066740Y0096438D01*
X0066736Y0096375D01*
X0066729Y0096312D01*
X0066718Y0096250D01*
X0066704Y0096188D01*
X0066686Y0096127D01*
X0066665Y0096068D01*
X0066640Y0096010D01*
X0066612Y0095953D01*
X0066580Y0095898D01*
X0066546Y0095845D01*
X0066508Y0095794D01*
X0066468Y0095746D01*
X0066424Y0095700D01*
X0066379Y0095656D01*
X0066330Y0095615D01*
X0066280Y0095577D01*
X0066227Y0095542D01*
X0066172Y0095511D01*
X0066116Y0095482D01*
X0066058Y0095457D01*
X0065998Y0095435D01*
X0065938Y0095417D01*
X0065876Y0095402D01*
X0065814Y0095391D01*
X0065751Y0095383D01*
X0046398Y0097314D02*
X0046398Y0091314D01*
X0046396Y0091254D01*
X0046391Y0091193D01*
X0046382Y0091134D01*
X0046369Y0091075D01*
X0046353Y0091016D01*
X0046333Y0090959D01*
X0046310Y0090904D01*
X0046283Y0090849D01*
X0046254Y0090797D01*
X0046221Y0090746D01*
X0046185Y0090697D01*
X0046147Y0090651D01*
X0046105Y0090607D01*
X0046061Y0090565D01*
X0046015Y0090527D01*
X0045966Y0090491D01*
X0045915Y0090458D01*
X0045863Y0090429D01*
X0045808Y0090402D01*
X0045753Y0090379D01*
X0045696Y0090359D01*
X0045637Y0090343D01*
X0045578Y0090330D01*
X0045519Y0090321D01*
X0045458Y0090316D01*
X0045398Y0090314D01*
X0034398Y0090314D01*
X0034338Y0090316D01*
X0034277Y0090321D01*
X0034218Y0090330D01*
X0034159Y0090343D01*
X0034100Y0090359D01*
X0034043Y0090379D01*
X0033988Y0090402D01*
X0033933Y0090429D01*
X0033881Y0090458D01*
X0033830Y0090491D01*
X0033781Y0090527D01*
X0033735Y0090565D01*
X0033691Y0090607D01*
X0033649Y0090651D01*
X0033611Y0090697D01*
X0033575Y0090746D01*
X0033542Y0090797D01*
X0033513Y0090849D01*
X0033486Y0090904D01*
X0033463Y0090959D01*
X0033443Y0091016D01*
X0033427Y0091075D01*
X0033414Y0091134D01*
X0033405Y0091193D01*
X0033400Y0091254D01*
X0033398Y0091314D01*
X0033398Y0097314D01*
X0033400Y0097374D01*
X0033405Y0097435D01*
X0033414Y0097494D01*
X0033427Y0097553D01*
X0033443Y0097612D01*
X0033463Y0097669D01*
X0033486Y0097724D01*
X0033513Y0097779D01*
X0033542Y0097831D01*
X0033575Y0097882D01*
X0033611Y0097931D01*
X0033649Y0097977D01*
X0033691Y0098021D01*
X0033735Y0098063D01*
X0033781Y0098101D01*
X0033830Y0098137D01*
X0033881Y0098170D01*
X0033933Y0098199D01*
X0033988Y0098226D01*
X0034043Y0098249D01*
X0034100Y0098269D01*
X0034159Y0098285D01*
X0034218Y0098298D01*
X0034277Y0098307D01*
X0034338Y0098312D01*
X0034398Y0098314D01*
X0045398Y0098314D01*
X0045458Y0098312D01*
X0045519Y0098307D01*
X0045578Y0098298D01*
X0045637Y0098285D01*
X0045696Y0098269D01*
X0045753Y0098249D01*
X0045808Y0098226D01*
X0045863Y0098199D01*
X0045915Y0098170D01*
X0045966Y0098137D01*
X0046015Y0098101D01*
X0046061Y0098063D01*
X0046105Y0098021D01*
X0046147Y0097977D01*
X0046185Y0097931D01*
X0046221Y0097882D01*
X0046254Y0097831D01*
X0046283Y0097779D01*
X0046310Y0097724D01*
X0046333Y0097669D01*
X0046353Y0097612D01*
X0046369Y0097553D01*
X0046382Y0097494D01*
X0046391Y0097435D01*
X0046396Y0097374D01*
X0046398Y0097314D01*
X0041586Y0104714D02*
X0039852Y0104714D01*
X0041586Y0106449D01*
X0041586Y0106882D01*
X0041153Y0107316D01*
X0040285Y0107316D01*
X0039852Y0106882D01*
X0038640Y0106882D02*
X0038640Y0106015D01*
X0038206Y0105581D01*
X0036905Y0105581D01*
X0036905Y0104714D02*
X0036905Y0107316D01*
X0038206Y0107316D01*
X0038640Y0106882D01*
X0037772Y0105581D02*
X0038640Y0104714D01*
X0034398Y0088314D02*
X0045398Y0088314D01*
X0045458Y0088312D01*
X0045519Y0088307D01*
X0045578Y0088298D01*
X0045637Y0088285D01*
X0045696Y0088269D01*
X0045753Y0088249D01*
X0045808Y0088226D01*
X0045863Y0088199D01*
X0045915Y0088170D01*
X0045966Y0088137D01*
X0046015Y0088101D01*
X0046061Y0088063D01*
X0046105Y0088021D01*
X0046147Y0087977D01*
X0046185Y0087931D01*
X0046221Y0087882D01*
X0046254Y0087831D01*
X0046283Y0087779D01*
X0046310Y0087724D01*
X0046333Y0087669D01*
X0046353Y0087612D01*
X0046369Y0087553D01*
X0046382Y0087494D01*
X0046391Y0087435D01*
X0046396Y0087374D01*
X0046398Y0087314D01*
X0046398Y0081314D01*
X0046396Y0081254D01*
X0046391Y0081193D01*
X0046382Y0081134D01*
X0046369Y0081075D01*
X0046353Y0081016D01*
X0046333Y0080959D01*
X0046310Y0080904D01*
X0046283Y0080849D01*
X0046254Y0080797D01*
X0046221Y0080746D01*
X0046185Y0080697D01*
X0046147Y0080651D01*
X0046105Y0080607D01*
X0046061Y0080565D01*
X0046015Y0080527D01*
X0045966Y0080491D01*
X0045915Y0080458D01*
X0045863Y0080429D01*
X0045808Y0080402D01*
X0045753Y0080379D01*
X0045696Y0080359D01*
X0045637Y0080343D01*
X0045578Y0080330D01*
X0045519Y0080321D01*
X0045458Y0080316D01*
X0045398Y0080314D01*
X0034398Y0080314D01*
X0034338Y0080316D01*
X0034277Y0080321D01*
X0034218Y0080330D01*
X0034159Y0080343D01*
X0034100Y0080359D01*
X0034043Y0080379D01*
X0033988Y0080402D01*
X0033933Y0080429D01*
X0033881Y0080458D01*
X0033830Y0080491D01*
X0033781Y0080527D01*
X0033735Y0080565D01*
X0033691Y0080607D01*
X0033649Y0080651D01*
X0033611Y0080697D01*
X0033575Y0080746D01*
X0033542Y0080797D01*
X0033513Y0080849D01*
X0033486Y0080904D01*
X0033463Y0080959D01*
X0033443Y0081016D01*
X0033427Y0081075D01*
X0033414Y0081134D01*
X0033405Y0081193D01*
X0033400Y0081254D01*
X0033398Y0081314D01*
X0033398Y0087314D01*
X0033400Y0087374D01*
X0033405Y0087435D01*
X0033414Y0087494D01*
X0033427Y0087553D01*
X0033443Y0087612D01*
X0033463Y0087669D01*
X0033486Y0087724D01*
X0033513Y0087779D01*
X0033542Y0087831D01*
X0033575Y0087882D01*
X0033611Y0087931D01*
X0033649Y0087977D01*
X0033691Y0088021D01*
X0033735Y0088063D01*
X0033781Y0088101D01*
X0033830Y0088137D01*
X0033881Y0088170D01*
X0033933Y0088199D01*
X0033988Y0088226D01*
X0034043Y0088249D01*
X0034100Y0088269D01*
X0034159Y0088285D01*
X0034218Y0088298D01*
X0034277Y0088307D01*
X0034338Y0088312D01*
X0034398Y0088314D01*
X0034398Y0078314D02*
X0045398Y0078314D01*
X0045458Y0078312D01*
X0045519Y0078307D01*
X0045578Y0078298D01*
X0045637Y0078285D01*
X0045696Y0078269D01*
X0045753Y0078249D01*
X0045808Y0078226D01*
X0045863Y0078199D01*
X0045915Y0078170D01*
X0045966Y0078137D01*
X0046015Y0078101D01*
X0046061Y0078063D01*
X0046105Y0078021D01*
X0046147Y0077977D01*
X0046185Y0077931D01*
X0046221Y0077882D01*
X0046254Y0077831D01*
X0046283Y0077779D01*
X0046310Y0077724D01*
X0046333Y0077669D01*
X0046353Y0077612D01*
X0046369Y0077553D01*
X0046382Y0077494D01*
X0046391Y0077435D01*
X0046396Y0077374D01*
X0046398Y0077314D01*
X0046398Y0071314D01*
X0046396Y0071254D01*
X0046391Y0071193D01*
X0046382Y0071134D01*
X0046369Y0071075D01*
X0046353Y0071016D01*
X0046333Y0070959D01*
X0046310Y0070904D01*
X0046283Y0070849D01*
X0046254Y0070797D01*
X0046221Y0070746D01*
X0046185Y0070697D01*
X0046147Y0070651D01*
X0046105Y0070607D01*
X0046061Y0070565D01*
X0046015Y0070527D01*
X0045966Y0070491D01*
X0045915Y0070458D01*
X0045863Y0070429D01*
X0045808Y0070402D01*
X0045753Y0070379D01*
X0045696Y0070359D01*
X0045637Y0070343D01*
X0045578Y0070330D01*
X0045519Y0070321D01*
X0045458Y0070316D01*
X0045398Y0070314D01*
X0034398Y0070314D01*
X0034338Y0070316D01*
X0034277Y0070321D01*
X0034218Y0070330D01*
X0034159Y0070343D01*
X0034100Y0070359D01*
X0034043Y0070379D01*
X0033988Y0070402D01*
X0033933Y0070429D01*
X0033881Y0070458D01*
X0033830Y0070491D01*
X0033781Y0070527D01*
X0033735Y0070565D01*
X0033691Y0070607D01*
X0033649Y0070651D01*
X0033611Y0070697D01*
X0033575Y0070746D01*
X0033542Y0070797D01*
X0033513Y0070849D01*
X0033486Y0070904D01*
X0033463Y0070959D01*
X0033443Y0071016D01*
X0033427Y0071075D01*
X0033414Y0071134D01*
X0033405Y0071193D01*
X0033400Y0071254D01*
X0033398Y0071314D01*
X0033398Y0077314D01*
X0033400Y0077374D01*
X0033405Y0077435D01*
X0033414Y0077494D01*
X0033427Y0077553D01*
X0033443Y0077612D01*
X0033463Y0077669D01*
X0033486Y0077724D01*
X0033513Y0077779D01*
X0033542Y0077831D01*
X0033575Y0077882D01*
X0033611Y0077931D01*
X0033649Y0077977D01*
X0033691Y0078021D01*
X0033735Y0078063D01*
X0033781Y0078101D01*
X0033830Y0078137D01*
X0033881Y0078170D01*
X0033933Y0078199D01*
X0033988Y0078226D01*
X0034043Y0078249D01*
X0034100Y0078269D01*
X0034159Y0078285D01*
X0034218Y0078298D01*
X0034277Y0078307D01*
X0034338Y0078312D01*
X0034398Y0078314D01*
X0034398Y0068314D02*
X0045398Y0068314D01*
X0045458Y0068312D01*
X0045519Y0068307D01*
X0045578Y0068298D01*
X0045637Y0068285D01*
X0045696Y0068269D01*
X0045753Y0068249D01*
X0045808Y0068226D01*
X0045863Y0068199D01*
X0045915Y0068170D01*
X0045966Y0068137D01*
X0046015Y0068101D01*
X0046061Y0068063D01*
X0046105Y0068021D01*
X0046147Y0067977D01*
X0046185Y0067931D01*
X0046221Y0067882D01*
X0046254Y0067831D01*
X0046283Y0067779D01*
X0046310Y0067724D01*
X0046333Y0067669D01*
X0046353Y0067612D01*
X0046369Y0067553D01*
X0046382Y0067494D01*
X0046391Y0067435D01*
X0046396Y0067374D01*
X0046398Y0067314D01*
X0046398Y0061314D01*
X0046396Y0061254D01*
X0046391Y0061193D01*
X0046382Y0061134D01*
X0046369Y0061075D01*
X0046353Y0061016D01*
X0046333Y0060959D01*
X0046310Y0060904D01*
X0046283Y0060849D01*
X0046254Y0060797D01*
X0046221Y0060746D01*
X0046185Y0060697D01*
X0046147Y0060651D01*
X0046105Y0060607D01*
X0046061Y0060565D01*
X0046015Y0060527D01*
X0045966Y0060491D01*
X0045915Y0060458D01*
X0045863Y0060429D01*
X0045808Y0060402D01*
X0045753Y0060379D01*
X0045696Y0060359D01*
X0045637Y0060343D01*
X0045578Y0060330D01*
X0045519Y0060321D01*
X0045458Y0060316D01*
X0045398Y0060314D01*
X0034398Y0060314D01*
X0034338Y0060316D01*
X0034277Y0060321D01*
X0034218Y0060330D01*
X0034159Y0060343D01*
X0034100Y0060359D01*
X0034043Y0060379D01*
X0033988Y0060402D01*
X0033933Y0060429D01*
X0033881Y0060458D01*
X0033830Y0060491D01*
X0033781Y0060527D01*
X0033735Y0060565D01*
X0033691Y0060607D01*
X0033649Y0060651D01*
X0033611Y0060697D01*
X0033575Y0060746D01*
X0033542Y0060797D01*
X0033513Y0060849D01*
X0033486Y0060904D01*
X0033463Y0060959D01*
X0033443Y0061016D01*
X0033427Y0061075D01*
X0033414Y0061134D01*
X0033405Y0061193D01*
X0033400Y0061254D01*
X0033398Y0061314D01*
X0033398Y0067314D01*
X0033400Y0067374D01*
X0033405Y0067435D01*
X0033414Y0067494D01*
X0033427Y0067553D01*
X0033443Y0067612D01*
X0033463Y0067669D01*
X0033486Y0067724D01*
X0033513Y0067779D01*
X0033542Y0067831D01*
X0033575Y0067882D01*
X0033611Y0067931D01*
X0033649Y0067977D01*
X0033691Y0068021D01*
X0033735Y0068063D01*
X0033781Y0068101D01*
X0033830Y0068137D01*
X0033881Y0068170D01*
X0033933Y0068199D01*
X0033988Y0068226D01*
X0034043Y0068249D01*
X0034100Y0068269D01*
X0034159Y0068285D01*
X0034218Y0068298D01*
X0034277Y0068307D01*
X0034338Y0068312D01*
X0034398Y0068314D01*
X0037898Y0056714D02*
X0048898Y0056714D01*
X0048958Y0056712D01*
X0049019Y0056707D01*
X0049078Y0056698D01*
X0049137Y0056685D01*
X0049196Y0056669D01*
X0049253Y0056649D01*
X0049308Y0056626D01*
X0049363Y0056599D01*
X0049415Y0056570D01*
X0049466Y0056537D01*
X0049515Y0056501D01*
X0049561Y0056463D01*
X0049605Y0056421D01*
X0049647Y0056377D01*
X0049685Y0056331D01*
X0049721Y0056282D01*
X0049754Y0056231D01*
X0049783Y0056179D01*
X0049810Y0056124D01*
X0049833Y0056069D01*
X0049853Y0056012D01*
X0049869Y0055953D01*
X0049882Y0055894D01*
X0049891Y0055835D01*
X0049896Y0055774D01*
X0049898Y0055714D01*
X0049898Y0049714D01*
X0049896Y0049654D01*
X0049891Y0049593D01*
X0049882Y0049534D01*
X0049869Y0049475D01*
X0049853Y0049416D01*
X0049833Y0049359D01*
X0049810Y0049304D01*
X0049783Y0049249D01*
X0049754Y0049197D01*
X0049721Y0049146D01*
X0049685Y0049097D01*
X0049647Y0049051D01*
X0049605Y0049007D01*
X0049561Y0048965D01*
X0049515Y0048927D01*
X0049466Y0048891D01*
X0049415Y0048858D01*
X0049363Y0048829D01*
X0049308Y0048802D01*
X0049253Y0048779D01*
X0049196Y0048759D01*
X0049137Y0048743D01*
X0049078Y0048730D01*
X0049019Y0048721D01*
X0048958Y0048716D01*
X0048898Y0048714D01*
X0037898Y0048714D01*
X0037838Y0048716D01*
X0037777Y0048721D01*
X0037718Y0048730D01*
X0037659Y0048743D01*
X0037600Y0048759D01*
X0037543Y0048779D01*
X0037488Y0048802D01*
X0037433Y0048829D01*
X0037381Y0048858D01*
X0037330Y0048891D01*
X0037281Y0048927D01*
X0037235Y0048965D01*
X0037191Y0049007D01*
X0037149Y0049051D01*
X0037111Y0049097D01*
X0037075Y0049146D01*
X0037042Y0049197D01*
X0037013Y0049249D01*
X0036986Y0049304D01*
X0036963Y0049359D01*
X0036943Y0049416D01*
X0036927Y0049475D01*
X0036914Y0049534D01*
X0036905Y0049593D01*
X0036900Y0049654D01*
X0036898Y0049714D01*
X0036898Y0055714D01*
X0036900Y0055774D01*
X0036905Y0055835D01*
X0036914Y0055894D01*
X0036927Y0055953D01*
X0036943Y0056012D01*
X0036963Y0056069D01*
X0036986Y0056124D01*
X0037013Y0056179D01*
X0037042Y0056231D01*
X0037075Y0056282D01*
X0037111Y0056331D01*
X0037149Y0056377D01*
X0037191Y0056421D01*
X0037235Y0056463D01*
X0037281Y0056501D01*
X0037330Y0056537D01*
X0037381Y0056570D01*
X0037433Y0056599D01*
X0037488Y0056626D01*
X0037543Y0056649D01*
X0037600Y0056669D01*
X0037659Y0056685D01*
X0037718Y0056698D01*
X0037777Y0056707D01*
X0037838Y0056712D01*
X0037898Y0056714D01*
X0061836Y0057416D02*
X0061836Y0055014D01*
X0063037Y0055014D01*
X0063437Y0055414D01*
X0063437Y0057015D01*
X0063037Y0057416D01*
X0061836Y0057416D01*
X0064598Y0057015D02*
X0064998Y0057416D01*
X0065799Y0057416D01*
X0066199Y0057015D01*
X0066199Y0056615D01*
X0064598Y0055014D01*
X0066199Y0055014D01*
X0077498Y0046914D02*
X0100498Y0046914D01*
X0100668Y0046912D01*
X0100839Y0046906D01*
X0101009Y0046895D01*
X0101179Y0046881D01*
X0101348Y0046862D01*
X0101517Y0046839D01*
X0101686Y0046813D01*
X0101853Y0046782D01*
X0102020Y0046747D01*
X0102186Y0046707D01*
X0102351Y0046664D01*
X0102515Y0046617D01*
X0102677Y0046566D01*
X0102839Y0046511D01*
X0102999Y0046452D01*
X0103157Y0046389D01*
X0103314Y0046323D01*
X0103469Y0046252D01*
X0103623Y0046178D01*
X0103774Y0046100D01*
X0103924Y0046018D01*
X0104072Y0045933D01*
X0104217Y0045844D01*
X0104360Y0045752D01*
X0104501Y0045656D01*
X0104640Y0045557D01*
X0104776Y0045454D01*
X0104910Y0045349D01*
X0105041Y0045240D01*
X0105169Y0045127D01*
X0105295Y0045012D01*
X0105418Y0044894D01*
X0105537Y0044773D01*
X0105654Y0044648D01*
X0105768Y0044521D01*
X0105879Y0044392D01*
X0105986Y0044259D01*
X0106090Y0044124D01*
X0106191Y0043987D01*
X0106289Y0043847D01*
X0106383Y0043705D01*
X0106473Y0043561D01*
X0106560Y0043414D01*
X0106644Y0043265D01*
X0106723Y0043115D01*
X0106799Y0042962D01*
X0106872Y0042808D01*
X0106940Y0042652D01*
X0107005Y0042494D01*
X0107066Y0042335D01*
X0107123Y0042174D01*
X0107176Y0042012D01*
X0107225Y0041849D01*
X0107270Y0041685D01*
X0107311Y0041519D01*
X0107349Y0041353D01*
X0107382Y0041185D01*
X0107410Y0041017D01*
X0107435Y0040849D01*
X0107456Y0040680D01*
X0107473Y0040510D01*
X0107485Y0040340D01*
X0107493Y0040170D01*
X0107497Y0039999D01*
X0107497Y0039829D01*
X0107493Y0039658D01*
X0107485Y0039488D01*
X0107473Y0039318D01*
X0107456Y0039148D01*
X0107435Y0038979D01*
X0107410Y0038811D01*
X0107382Y0038643D01*
X0107349Y0038475D01*
X0107311Y0038309D01*
X0107270Y0038143D01*
X0107225Y0037979D01*
X0107176Y0037816D01*
X0107123Y0037654D01*
X0107066Y0037493D01*
X0107005Y0037334D01*
X0106940Y0037176D01*
X0106872Y0037020D01*
X0106799Y0036866D01*
X0106723Y0036713D01*
X0106644Y0036563D01*
X0106560Y0036414D01*
X0106473Y0036267D01*
X0106383Y0036123D01*
X0106289Y0035981D01*
X0106191Y0035841D01*
X0106090Y0035704D01*
X0105986Y0035569D01*
X0105879Y0035436D01*
X0105768Y0035307D01*
X0105654Y0035180D01*
X0105537Y0035055D01*
X0105418Y0034934D01*
X0105295Y0034816D01*
X0105169Y0034701D01*
X0105041Y0034588D01*
X0104910Y0034479D01*
X0104776Y0034374D01*
X0104640Y0034271D01*
X0104501Y0034172D01*
X0104360Y0034076D01*
X0104217Y0033984D01*
X0104072Y0033895D01*
X0103924Y0033810D01*
X0103774Y0033728D01*
X0103623Y0033650D01*
X0103469Y0033576D01*
X0103314Y0033505D01*
X0103157Y0033439D01*
X0102999Y0033376D01*
X0102839Y0033317D01*
X0102677Y0033262D01*
X0102515Y0033211D01*
X0102351Y0033164D01*
X0102186Y0033121D01*
X0102020Y0033081D01*
X0101853Y0033046D01*
X0101686Y0033015D01*
X0101517Y0032989D01*
X0101348Y0032966D01*
X0101179Y0032947D01*
X0101009Y0032933D01*
X0100839Y0032922D01*
X0100668Y0032916D01*
X0100498Y0032914D01*
X0077498Y0032914D01*
X0077328Y0032916D01*
X0077157Y0032922D01*
X0076987Y0032933D01*
X0076817Y0032947D01*
X0076648Y0032966D01*
X0076479Y0032989D01*
X0076310Y0033015D01*
X0076143Y0033046D01*
X0075976Y0033081D01*
X0075810Y0033121D01*
X0075645Y0033164D01*
X0075481Y0033211D01*
X0075319Y0033262D01*
X0075157Y0033317D01*
X0074997Y0033376D01*
X0074839Y0033439D01*
X0074682Y0033505D01*
X0074527Y0033576D01*
X0074373Y0033650D01*
X0074222Y0033728D01*
X0074072Y0033810D01*
X0073924Y0033895D01*
X0073779Y0033984D01*
X0073636Y0034076D01*
X0073495Y0034172D01*
X0073356Y0034271D01*
X0073220Y0034374D01*
X0073086Y0034479D01*
X0072955Y0034588D01*
X0072827Y0034701D01*
X0072701Y0034816D01*
X0072578Y0034934D01*
X0072459Y0035055D01*
X0072342Y0035180D01*
X0072228Y0035307D01*
X0072117Y0035436D01*
X0072010Y0035569D01*
X0071906Y0035704D01*
X0071805Y0035841D01*
X0071707Y0035981D01*
X0071613Y0036123D01*
X0071523Y0036267D01*
X0071436Y0036414D01*
X0071352Y0036563D01*
X0071273Y0036713D01*
X0071197Y0036866D01*
X0071124Y0037020D01*
X0071056Y0037176D01*
X0070991Y0037334D01*
X0070930Y0037493D01*
X0070873Y0037654D01*
X0070820Y0037816D01*
X0070771Y0037979D01*
X0070726Y0038143D01*
X0070685Y0038309D01*
X0070647Y0038475D01*
X0070614Y0038643D01*
X0070586Y0038811D01*
X0070561Y0038979D01*
X0070540Y0039148D01*
X0070523Y0039318D01*
X0070511Y0039488D01*
X0070503Y0039658D01*
X0070499Y0039829D01*
X0070499Y0039999D01*
X0070503Y0040170D01*
X0070511Y0040340D01*
X0070523Y0040510D01*
X0070540Y0040680D01*
X0070561Y0040849D01*
X0070586Y0041017D01*
X0070614Y0041185D01*
X0070647Y0041353D01*
X0070685Y0041519D01*
X0070726Y0041685D01*
X0070771Y0041849D01*
X0070820Y0042012D01*
X0070873Y0042174D01*
X0070930Y0042335D01*
X0070991Y0042494D01*
X0071056Y0042652D01*
X0071124Y0042808D01*
X0071197Y0042962D01*
X0071273Y0043115D01*
X0071352Y0043265D01*
X0071436Y0043414D01*
X0071523Y0043561D01*
X0071613Y0043705D01*
X0071707Y0043847D01*
X0071805Y0043987D01*
X0071906Y0044124D01*
X0072010Y0044259D01*
X0072117Y0044392D01*
X0072228Y0044521D01*
X0072342Y0044648D01*
X0072459Y0044773D01*
X0072578Y0044894D01*
X0072701Y0045012D01*
X0072827Y0045127D01*
X0072955Y0045240D01*
X0073086Y0045349D01*
X0073220Y0045454D01*
X0073356Y0045557D01*
X0073495Y0045656D01*
X0073636Y0045752D01*
X0073779Y0045844D01*
X0073924Y0045933D01*
X0074072Y0046018D01*
X0074222Y0046100D01*
X0074373Y0046178D01*
X0074527Y0046252D01*
X0074682Y0046323D01*
X0074839Y0046389D01*
X0074997Y0046452D01*
X0075157Y0046511D01*
X0075319Y0046566D01*
X0075481Y0046617D01*
X0075645Y0046664D01*
X0075810Y0046707D01*
X0075976Y0046747D01*
X0076143Y0046782D01*
X0076310Y0046813D01*
X0076479Y0046839D01*
X0076648Y0046862D01*
X0076817Y0046881D01*
X0076987Y0046895D01*
X0077157Y0046906D01*
X0077328Y0046912D01*
X0077498Y0046914D01*
X0083998Y0039914D02*
X0086498Y0039914D01*
X0086498Y0036414D01*
X0087998Y0036414D02*
X0087998Y0043414D01*
X0089998Y0043414D01*
X0089998Y0036414D01*
X0087998Y0036414D01*
X0091498Y0036414D02*
X0091498Y0039914D01*
X0093998Y0039914D01*
X0091498Y0039914D02*
X0091498Y0043414D01*
X0086498Y0043414D02*
X0086498Y0039914D01*
X0067933Y0035882D02*
X0067933Y0035449D01*
X0067499Y0035015D01*
X0067933Y0034581D01*
X0067933Y0034147D01*
X0067499Y0033714D01*
X0066632Y0033714D01*
X0066198Y0034147D01*
X0064986Y0034147D02*
X0064553Y0033714D01*
X0063685Y0033714D01*
X0063252Y0034147D01*
X0063252Y0035882D01*
X0063685Y0036316D01*
X0064553Y0036316D01*
X0064986Y0035882D01*
X0064986Y0034147D01*
X0064986Y0033714D02*
X0064119Y0034581D01*
X0066198Y0035882D02*
X0066632Y0036316D01*
X0067499Y0036316D01*
X0067933Y0035882D01*
X0067499Y0035015D02*
X0067066Y0035015D01*
X0145398Y0080314D02*
X0145398Y0086314D01*
X0145400Y0086374D01*
X0145405Y0086435D01*
X0145414Y0086494D01*
X0145427Y0086553D01*
X0145443Y0086612D01*
X0145463Y0086669D01*
X0145486Y0086724D01*
X0145513Y0086779D01*
X0145542Y0086831D01*
X0145575Y0086882D01*
X0145611Y0086931D01*
X0145649Y0086977D01*
X0145691Y0087021D01*
X0145735Y0087063D01*
X0145781Y0087101D01*
X0145830Y0087137D01*
X0145881Y0087170D01*
X0145933Y0087199D01*
X0145988Y0087226D01*
X0146043Y0087249D01*
X0146100Y0087269D01*
X0146159Y0087285D01*
X0146218Y0087298D01*
X0146277Y0087307D01*
X0146338Y0087312D01*
X0146398Y0087314D01*
X0157398Y0087314D01*
X0157458Y0087312D01*
X0157519Y0087307D01*
X0157578Y0087298D01*
X0157637Y0087285D01*
X0157696Y0087269D01*
X0157753Y0087249D01*
X0157808Y0087226D01*
X0157863Y0087199D01*
X0157915Y0087170D01*
X0157966Y0087137D01*
X0158015Y0087101D01*
X0158061Y0087063D01*
X0158105Y0087021D01*
X0158147Y0086977D01*
X0158185Y0086931D01*
X0158221Y0086882D01*
X0158254Y0086831D01*
X0158283Y0086779D01*
X0158310Y0086724D01*
X0158333Y0086669D01*
X0158353Y0086612D01*
X0158369Y0086553D01*
X0158382Y0086494D01*
X0158391Y0086435D01*
X0158396Y0086374D01*
X0158398Y0086314D01*
X0158398Y0080314D01*
X0158396Y0080254D01*
X0158391Y0080193D01*
X0158382Y0080134D01*
X0158369Y0080075D01*
X0158353Y0080016D01*
X0158333Y0079959D01*
X0158310Y0079904D01*
X0158283Y0079849D01*
X0158254Y0079797D01*
X0158221Y0079746D01*
X0158185Y0079697D01*
X0158147Y0079651D01*
X0158105Y0079607D01*
X0158061Y0079565D01*
X0158015Y0079527D01*
X0157966Y0079491D01*
X0157915Y0079458D01*
X0157863Y0079429D01*
X0157808Y0079402D01*
X0157753Y0079379D01*
X0157696Y0079359D01*
X0157637Y0079343D01*
X0157578Y0079330D01*
X0157519Y0079321D01*
X0157458Y0079316D01*
X0157398Y0079314D01*
X0146398Y0079314D01*
X0146338Y0079316D01*
X0146277Y0079321D01*
X0146218Y0079330D01*
X0146159Y0079343D01*
X0146100Y0079359D01*
X0146043Y0079379D01*
X0145988Y0079402D01*
X0145933Y0079429D01*
X0145881Y0079458D01*
X0145830Y0079491D01*
X0145781Y0079527D01*
X0145735Y0079565D01*
X0145691Y0079607D01*
X0145649Y0079651D01*
X0145611Y0079697D01*
X0145575Y0079746D01*
X0145542Y0079797D01*
X0145513Y0079849D01*
X0145486Y0079904D01*
X0145463Y0079959D01*
X0145443Y0080016D01*
X0145427Y0080075D01*
X0145414Y0080134D01*
X0145405Y0080193D01*
X0145400Y0080254D01*
X0145398Y0080314D01*
X0146398Y0089314D02*
X0157398Y0089314D01*
X0157458Y0089316D01*
X0157519Y0089321D01*
X0157578Y0089330D01*
X0157637Y0089343D01*
X0157696Y0089359D01*
X0157753Y0089379D01*
X0157808Y0089402D01*
X0157863Y0089429D01*
X0157915Y0089458D01*
X0157966Y0089491D01*
X0158015Y0089527D01*
X0158061Y0089565D01*
X0158105Y0089607D01*
X0158147Y0089651D01*
X0158185Y0089697D01*
X0158221Y0089746D01*
X0158254Y0089797D01*
X0158283Y0089849D01*
X0158310Y0089904D01*
X0158333Y0089959D01*
X0158353Y0090016D01*
X0158369Y0090075D01*
X0158382Y0090134D01*
X0158391Y0090193D01*
X0158396Y0090254D01*
X0158398Y0090314D01*
X0158398Y0096314D01*
X0158396Y0096374D01*
X0158391Y0096435D01*
X0158382Y0096494D01*
X0158369Y0096553D01*
X0158353Y0096612D01*
X0158333Y0096669D01*
X0158310Y0096724D01*
X0158283Y0096779D01*
X0158254Y0096831D01*
X0158221Y0096882D01*
X0158185Y0096931D01*
X0158147Y0096977D01*
X0158105Y0097021D01*
X0158061Y0097063D01*
X0158015Y0097101D01*
X0157966Y0097137D01*
X0157915Y0097170D01*
X0157863Y0097199D01*
X0157808Y0097226D01*
X0157753Y0097249D01*
X0157696Y0097269D01*
X0157637Y0097285D01*
X0157578Y0097298D01*
X0157519Y0097307D01*
X0157458Y0097312D01*
X0157398Y0097314D01*
X0146398Y0097314D01*
X0146338Y0097312D01*
X0146277Y0097307D01*
X0146218Y0097298D01*
X0146159Y0097285D01*
X0146100Y0097269D01*
X0146043Y0097249D01*
X0145988Y0097226D01*
X0145933Y0097199D01*
X0145881Y0097170D01*
X0145830Y0097137D01*
X0145781Y0097101D01*
X0145735Y0097063D01*
X0145691Y0097021D01*
X0145649Y0096977D01*
X0145611Y0096931D01*
X0145575Y0096882D01*
X0145542Y0096831D01*
X0145513Y0096779D01*
X0145486Y0096724D01*
X0145463Y0096669D01*
X0145443Y0096612D01*
X0145427Y0096553D01*
X0145414Y0096494D01*
X0145405Y0096435D01*
X0145400Y0096374D01*
X0145398Y0096314D01*
X0145398Y0090314D01*
X0145400Y0090254D01*
X0145405Y0090193D01*
X0145414Y0090134D01*
X0145427Y0090075D01*
X0145443Y0090016D01*
X0145463Y0089959D01*
X0145486Y0089904D01*
X0145513Y0089849D01*
X0145542Y0089797D01*
X0145575Y0089746D01*
X0145611Y0089697D01*
X0145649Y0089651D01*
X0145691Y0089607D01*
X0145735Y0089565D01*
X0145781Y0089527D01*
X0145830Y0089491D01*
X0145881Y0089458D01*
X0145933Y0089429D01*
X0145988Y0089402D01*
X0146043Y0089379D01*
X0146100Y0089359D01*
X0146159Y0089343D01*
X0146218Y0089330D01*
X0146277Y0089321D01*
X0146338Y0089316D01*
X0146398Y0089314D01*
X0146398Y0099314D02*
X0157398Y0099314D01*
X0157458Y0099316D01*
X0157519Y0099321D01*
X0157578Y0099330D01*
X0157637Y0099343D01*
X0157696Y0099359D01*
X0157753Y0099379D01*
X0157808Y0099402D01*
X0157863Y0099429D01*
X0157915Y0099458D01*
X0157966Y0099491D01*
X0158015Y0099527D01*
X0158061Y0099565D01*
X0158105Y0099607D01*
X0158147Y0099651D01*
X0158185Y0099697D01*
X0158221Y0099746D01*
X0158254Y0099797D01*
X0158283Y0099849D01*
X0158310Y0099904D01*
X0158333Y0099959D01*
X0158353Y0100016D01*
X0158369Y0100075D01*
X0158382Y0100134D01*
X0158391Y0100193D01*
X0158396Y0100254D01*
X0158398Y0100314D01*
X0158398Y0106314D01*
X0158396Y0106374D01*
X0158391Y0106435D01*
X0158382Y0106494D01*
X0158369Y0106553D01*
X0158353Y0106612D01*
X0158333Y0106669D01*
X0158310Y0106724D01*
X0158283Y0106779D01*
X0158254Y0106831D01*
X0158221Y0106882D01*
X0158185Y0106931D01*
X0158147Y0106977D01*
X0158105Y0107021D01*
X0158061Y0107063D01*
X0158015Y0107101D01*
X0157966Y0107137D01*
X0157915Y0107170D01*
X0157863Y0107199D01*
X0157808Y0107226D01*
X0157753Y0107249D01*
X0157696Y0107269D01*
X0157637Y0107285D01*
X0157578Y0107298D01*
X0157519Y0107307D01*
X0157458Y0107312D01*
X0157398Y0107314D01*
X0146398Y0107314D01*
X0146338Y0107312D01*
X0146277Y0107307D01*
X0146218Y0107298D01*
X0146159Y0107285D01*
X0146100Y0107269D01*
X0146043Y0107249D01*
X0145988Y0107226D01*
X0145933Y0107199D01*
X0145881Y0107170D01*
X0145830Y0107137D01*
X0145781Y0107101D01*
X0145735Y0107063D01*
X0145691Y0107021D01*
X0145649Y0106977D01*
X0145611Y0106931D01*
X0145575Y0106882D01*
X0145542Y0106831D01*
X0145513Y0106779D01*
X0145486Y0106724D01*
X0145463Y0106669D01*
X0145443Y0106612D01*
X0145427Y0106553D01*
X0145414Y0106494D01*
X0145405Y0106435D01*
X0145400Y0106374D01*
X0145398Y0106314D01*
X0145398Y0100314D01*
X0145400Y0100254D01*
X0145405Y0100193D01*
X0145414Y0100134D01*
X0145427Y0100075D01*
X0145443Y0100016D01*
X0145463Y0099959D01*
X0145486Y0099904D01*
X0145513Y0099849D01*
X0145542Y0099797D01*
X0145575Y0099746D01*
X0145611Y0099697D01*
X0145649Y0099651D01*
X0145691Y0099607D01*
X0145735Y0099565D01*
X0145781Y0099527D01*
X0145830Y0099491D01*
X0145881Y0099458D01*
X0145933Y0099429D01*
X0145988Y0099402D01*
X0146043Y0099379D01*
X0146100Y0099359D01*
X0146159Y0099343D01*
X0146218Y0099330D01*
X0146277Y0099321D01*
X0146338Y0099316D01*
X0146398Y0099314D01*
X0150598Y0063814D02*
X0161598Y0063814D01*
X0161658Y0063812D01*
X0161719Y0063807D01*
X0161778Y0063798D01*
X0161837Y0063785D01*
X0161896Y0063769D01*
X0161953Y0063749D01*
X0162008Y0063726D01*
X0162063Y0063699D01*
X0162115Y0063670D01*
X0162166Y0063637D01*
X0162215Y0063601D01*
X0162261Y0063563D01*
X0162305Y0063521D01*
X0162347Y0063477D01*
X0162385Y0063431D01*
X0162421Y0063382D01*
X0162454Y0063331D01*
X0162483Y0063279D01*
X0162510Y0063224D01*
X0162533Y0063169D01*
X0162553Y0063112D01*
X0162569Y0063053D01*
X0162582Y0062994D01*
X0162591Y0062935D01*
X0162596Y0062874D01*
X0162598Y0062814D01*
X0162598Y0056814D01*
X0162596Y0056754D01*
X0162591Y0056693D01*
X0162582Y0056634D01*
X0162569Y0056575D01*
X0162553Y0056516D01*
X0162533Y0056459D01*
X0162510Y0056404D01*
X0162483Y0056349D01*
X0162454Y0056297D01*
X0162421Y0056246D01*
X0162385Y0056197D01*
X0162347Y0056151D01*
X0162305Y0056107D01*
X0162261Y0056065D01*
X0162215Y0056027D01*
X0162166Y0055991D01*
X0162115Y0055958D01*
X0162063Y0055929D01*
X0162008Y0055902D01*
X0161953Y0055879D01*
X0161896Y0055859D01*
X0161837Y0055843D01*
X0161778Y0055830D01*
X0161719Y0055821D01*
X0161658Y0055816D01*
X0161598Y0055814D01*
X0150598Y0055814D01*
X0150538Y0055816D01*
X0150477Y0055821D01*
X0150418Y0055830D01*
X0150359Y0055843D01*
X0150300Y0055859D01*
X0150243Y0055879D01*
X0150188Y0055902D01*
X0150133Y0055929D01*
X0150081Y0055958D01*
X0150030Y0055991D01*
X0149981Y0056027D01*
X0149935Y0056065D01*
X0149891Y0056107D01*
X0149849Y0056151D01*
X0149811Y0056197D01*
X0149775Y0056246D01*
X0149742Y0056297D01*
X0149713Y0056349D01*
X0149686Y0056404D01*
X0149663Y0056459D01*
X0149643Y0056516D01*
X0149627Y0056575D01*
X0149614Y0056634D01*
X0149605Y0056693D01*
X0149600Y0056754D01*
X0149598Y0056814D01*
X0149598Y0062814D01*
X0149600Y0062874D01*
X0149605Y0062935D01*
X0149614Y0062994D01*
X0149627Y0063053D01*
X0149643Y0063112D01*
X0149663Y0063169D01*
X0149686Y0063224D01*
X0149713Y0063279D01*
X0149742Y0063331D01*
X0149775Y0063382D01*
X0149811Y0063431D01*
X0149849Y0063477D01*
X0149891Y0063521D01*
X0149935Y0063563D01*
X0149981Y0063601D01*
X0150030Y0063637D01*
X0150081Y0063670D01*
X0150133Y0063699D01*
X0150188Y0063726D01*
X0150243Y0063749D01*
X0150300Y0063769D01*
X0150359Y0063785D01*
X0150418Y0063798D01*
X0150477Y0063807D01*
X0150538Y0063812D01*
X0150598Y0063814D01*
X0166413Y0028514D02*
X0166625Y0028418D01*
X0166835Y0028317D01*
X0167042Y0028210D01*
X0167246Y0028099D01*
X0167448Y0027982D01*
X0167647Y0027861D01*
X0167842Y0027735D01*
X0168035Y0027604D01*
X0168224Y0027468D01*
X0168410Y0027328D01*
X0168593Y0027183D01*
X0168772Y0027034D01*
X0168947Y0026880D01*
X0169118Y0026722D01*
X0169285Y0026560D01*
X0169449Y0026394D01*
X0169608Y0026224D01*
X0169763Y0026051D01*
X0169914Y0025873D01*
X0170060Y0025692D01*
X0170202Y0025507D01*
X0170339Y0025319D01*
X0170472Y0025128D01*
X0170600Y0024933D01*
X0170723Y0024735D01*
X0170841Y0024535D01*
X0170954Y0024331D01*
X0171063Y0024125D01*
X0171166Y0023916D01*
X0171264Y0023705D01*
X0171357Y0023491D01*
X0171444Y0023275D01*
X0171526Y0023057D01*
X0171603Y0022837D01*
X0171674Y0022616D01*
X0171740Y0022392D01*
X0171801Y0022167D01*
X0171856Y0021941D01*
X0171905Y0021714D01*
X0171949Y0021485D01*
X0171987Y0021255D01*
X0172020Y0021024D01*
X0172046Y0020793D01*
X0172068Y0020561D01*
X0172083Y0020329D01*
X0172093Y0020096D01*
X0172097Y0019863D01*
X0172095Y0019630D01*
X0172088Y0019397D01*
X0172075Y0019165D01*
X0172056Y0018933D01*
X0172032Y0018701D01*
X0172001Y0018470D01*
X0171966Y0018240D01*
X0171924Y0018011D01*
X0171877Y0017783D01*
X0171825Y0017556D01*
X0171767Y0017330D01*
X0171703Y0017106D01*
X0171634Y0016884D01*
X0171559Y0016663D01*
X0171479Y0016444D01*
X0171394Y0016228D01*
X0171304Y0016013D01*
X0171208Y0015801D01*
X0171107Y0015591D01*
X0171001Y0015384D01*
X0170890Y0015179D01*
X0170773Y0014977D01*
X0170652Y0014778D01*
X0170527Y0014582D01*
X0170396Y0014389D01*
X0170261Y0014200D01*
X0170121Y0014014D01*
X0169976Y0013831D01*
X0169827Y0013652D01*
X0169674Y0013476D01*
X0169517Y0013305D01*
X0169355Y0013137D01*
X0169189Y0012973D01*
X0169019Y0012814D01*
X0156177Y0012814D01*
X0156007Y0012973D01*
X0155841Y0013137D01*
X0155679Y0013305D01*
X0155522Y0013476D01*
X0155369Y0013652D01*
X0155220Y0013831D01*
X0155075Y0014014D01*
X0154935Y0014200D01*
X0154800Y0014389D01*
X0154669Y0014582D01*
X0154544Y0014778D01*
X0154423Y0014977D01*
X0154306Y0015179D01*
X0154195Y0015384D01*
X0154089Y0015591D01*
X0153988Y0015801D01*
X0153892Y0016013D01*
X0153802Y0016228D01*
X0153717Y0016444D01*
X0153637Y0016663D01*
X0153562Y0016884D01*
X0153493Y0017106D01*
X0153429Y0017330D01*
X0153371Y0017556D01*
X0153319Y0017783D01*
X0153272Y0018011D01*
X0153230Y0018240D01*
X0153195Y0018470D01*
X0153164Y0018701D01*
X0153140Y0018933D01*
X0153121Y0019165D01*
X0153108Y0019397D01*
X0153101Y0019630D01*
X0153099Y0019863D01*
X0153103Y0020096D01*
X0153113Y0020329D01*
X0153128Y0020561D01*
X0153150Y0020793D01*
X0153176Y0021024D01*
X0153209Y0021255D01*
X0153247Y0021485D01*
X0153291Y0021714D01*
X0153340Y0021941D01*
X0153395Y0022167D01*
X0153456Y0022392D01*
X0153522Y0022616D01*
X0153593Y0022837D01*
X0153670Y0023057D01*
X0153752Y0023275D01*
X0153839Y0023491D01*
X0153932Y0023705D01*
X0154030Y0023916D01*
X0154133Y0024125D01*
X0154242Y0024331D01*
X0154355Y0024535D01*
X0154473Y0024735D01*
X0154596Y0024933D01*
X0154724Y0025128D01*
X0154857Y0025319D01*
X0154994Y0025507D01*
X0155136Y0025692D01*
X0155282Y0025873D01*
X0155433Y0026051D01*
X0155588Y0026224D01*
X0155747Y0026394D01*
X0155911Y0026560D01*
X0156078Y0026722D01*
X0156249Y0026880D01*
X0156424Y0027034D01*
X0156603Y0027183D01*
X0156786Y0027328D01*
X0156972Y0027468D01*
X0157161Y0027604D01*
X0157354Y0027735D01*
X0157549Y0027861D01*
X0157748Y0027982D01*
X0157950Y0028099D01*
X0158154Y0028210D01*
X0158361Y0028317D01*
X0158571Y0028418D01*
X0158783Y0028514D01*
X0221698Y0019915D02*
X0223433Y0019915D01*
X0222566Y0020782D02*
X0222566Y0019047D01*
X0224645Y0019047D02*
X0225078Y0018614D01*
X0225946Y0018614D01*
X0226379Y0019047D01*
X0226379Y0019481D01*
X0225946Y0019915D01*
X0225512Y0019915D01*
X0225946Y0019915D02*
X0226379Y0020349D01*
X0226379Y0020782D01*
X0225946Y0021216D01*
X0225078Y0021216D01*
X0224645Y0020782D01*
X0227591Y0021216D02*
X0227591Y0019481D01*
X0228459Y0018614D01*
X0229326Y0019481D01*
X0229326Y0021216D01*
X0230538Y0020782D02*
X0230971Y0021216D01*
X0231839Y0021216D01*
X0232272Y0020782D01*
X0232272Y0020349D01*
X0231839Y0019915D01*
X0232272Y0019481D01*
X0232272Y0019047D01*
X0231839Y0018614D01*
X0230971Y0018614D01*
X0230538Y0019047D01*
X0231405Y0019915D02*
X0231839Y0019915D01*
X0280698Y0055647D02*
X0281132Y0055214D01*
X0281999Y0055214D01*
X0282433Y0055647D01*
X0283645Y0055647D02*
X0284078Y0055214D01*
X0284946Y0055214D01*
X0285379Y0055647D01*
X0285379Y0056515D01*
X0284946Y0056949D01*
X0284512Y0056949D01*
X0283645Y0056515D01*
X0283645Y0057816D01*
X0285379Y0057816D01*
X0282433Y0057382D02*
X0281999Y0057816D01*
X0281132Y0057816D01*
X0280698Y0057382D01*
X0280698Y0055647D01*
X0306374Y0027116D02*
X0307175Y0027116D01*
X0306774Y0027116D02*
X0306774Y0025114D01*
X0306374Y0024714D01*
X0305974Y0024714D01*
X0305573Y0025114D01*
X0308336Y0025114D02*
X0308736Y0024714D01*
X0309537Y0024714D01*
X0309937Y0025114D01*
X0309937Y0025514D01*
X0309537Y0025915D01*
X0309136Y0025915D01*
X0309537Y0025915D02*
X0309937Y0026315D01*
X0309937Y0026715D01*
X0309537Y0027116D01*
X0308736Y0027116D01*
X0308336Y0026715D01*
X0308898Y0098414D02*
X0314898Y0098414D01*
X0314958Y0098416D01*
X0315019Y0098421D01*
X0315078Y0098430D01*
X0315137Y0098443D01*
X0315196Y0098459D01*
X0315253Y0098479D01*
X0315308Y0098502D01*
X0315363Y0098529D01*
X0315415Y0098558D01*
X0315466Y0098591D01*
X0315515Y0098627D01*
X0315561Y0098665D01*
X0315605Y0098707D01*
X0315647Y0098751D01*
X0315685Y0098797D01*
X0315721Y0098846D01*
X0315754Y0098897D01*
X0315783Y0098949D01*
X0315810Y0099004D01*
X0315833Y0099059D01*
X0315853Y0099116D01*
X0315869Y0099175D01*
X0315882Y0099234D01*
X0315891Y0099293D01*
X0315896Y0099354D01*
X0315898Y0099414D01*
X0315898Y0110414D01*
X0315896Y0110474D01*
X0315891Y0110535D01*
X0315882Y0110594D01*
X0315869Y0110653D01*
X0315853Y0110712D01*
X0315833Y0110769D01*
X0315810Y0110824D01*
X0315783Y0110879D01*
X0315754Y0110931D01*
X0315721Y0110982D01*
X0315685Y0111031D01*
X0315647Y0111077D01*
X0315605Y0111121D01*
X0315561Y0111163D01*
X0315515Y0111201D01*
X0315466Y0111237D01*
X0315415Y0111270D01*
X0315363Y0111299D01*
X0315308Y0111326D01*
X0315253Y0111349D01*
X0315196Y0111369D01*
X0315137Y0111385D01*
X0315078Y0111398D01*
X0315019Y0111407D01*
X0314958Y0111412D01*
X0314898Y0111414D01*
X0308898Y0111414D01*
X0308838Y0111412D01*
X0308777Y0111407D01*
X0308718Y0111398D01*
X0308659Y0111385D01*
X0308600Y0111369D01*
X0308543Y0111349D01*
X0308488Y0111326D01*
X0308433Y0111299D01*
X0308381Y0111270D01*
X0308330Y0111237D01*
X0308281Y0111201D01*
X0308235Y0111163D01*
X0308191Y0111121D01*
X0308149Y0111077D01*
X0308111Y0111031D01*
X0308075Y0110982D01*
X0308042Y0110931D01*
X0308013Y0110879D01*
X0307986Y0110824D01*
X0307963Y0110769D01*
X0307943Y0110712D01*
X0307927Y0110653D01*
X0307914Y0110594D01*
X0307905Y0110535D01*
X0307900Y0110474D01*
X0307898Y0110414D01*
X0307898Y0099414D01*
X0307900Y0099354D01*
X0307905Y0099293D01*
X0307914Y0099234D01*
X0307927Y0099175D01*
X0307943Y0099116D01*
X0307963Y0099059D01*
X0307986Y0099004D01*
X0308013Y0098949D01*
X0308042Y0098897D01*
X0308075Y0098846D01*
X0308111Y0098797D01*
X0308149Y0098751D01*
X0308191Y0098707D01*
X0308235Y0098665D01*
X0308281Y0098627D01*
X0308330Y0098591D01*
X0308381Y0098558D01*
X0308433Y0098529D01*
X0308488Y0098502D01*
X0308543Y0098479D01*
X0308600Y0098459D01*
X0308659Y0098443D01*
X0308718Y0098430D01*
X0308777Y0098421D01*
X0308838Y0098416D01*
X0308898Y0098414D01*
X0308936Y0131114D02*
X0310137Y0131114D01*
X0310537Y0131514D01*
X0310537Y0133115D01*
X0310137Y0133516D01*
X0308936Y0133516D01*
X0308936Y0131114D01*
X0311698Y0131114D02*
X0313299Y0131114D01*
X0312499Y0131114D02*
X0312499Y0133516D01*
X0311698Y0132715D01*
X0321332Y0159514D02*
X0322199Y0159514D01*
X0322633Y0159947D01*
X0323845Y0159947D02*
X0324278Y0159514D01*
X0325146Y0159514D01*
X0325579Y0159947D01*
X0325579Y0160381D01*
X0325146Y0160815D01*
X0323845Y0160815D01*
X0323845Y0159947D01*
X0323845Y0160815D02*
X0324712Y0161682D01*
X0325579Y0162116D01*
X0322633Y0161682D02*
X0322199Y0162116D01*
X0321332Y0162116D01*
X0320898Y0161682D01*
X0320898Y0159947D01*
X0321332Y0159514D01*
X0309198Y0171814D02*
X0309198Y0173814D01*
X0291698Y0176314D02*
X0291703Y0176743D01*
X0291719Y0177173D01*
X0291745Y0177601D01*
X0291782Y0178029D01*
X0291830Y0178456D01*
X0291887Y0178882D01*
X0291956Y0179306D01*
X0292034Y0179728D01*
X0292123Y0180148D01*
X0292222Y0180566D01*
X0292332Y0180981D01*
X0292452Y0181394D01*
X0292581Y0181803D01*
X0292721Y0182210D01*
X0292871Y0182612D01*
X0293030Y0183011D01*
X0293199Y0183406D01*
X0293378Y0183796D01*
X0293567Y0184182D01*
X0293764Y0184563D01*
X0293971Y0184940D01*
X0294188Y0185311D01*
X0294413Y0185676D01*
X0294647Y0186036D01*
X0294890Y0186391D01*
X0295142Y0186739D01*
X0295402Y0187081D01*
X0295670Y0187416D01*
X0295947Y0187745D01*
X0296231Y0188066D01*
X0296524Y0188381D01*
X0296824Y0188688D01*
X0297131Y0188988D01*
X0297446Y0189281D01*
X0297767Y0189565D01*
X0298096Y0189842D01*
X0298431Y0190110D01*
X0298773Y0190370D01*
X0299121Y0190622D01*
X0299476Y0190865D01*
X0299836Y0191099D01*
X0300201Y0191324D01*
X0300572Y0191541D01*
X0300949Y0191748D01*
X0301330Y0191945D01*
X0301716Y0192134D01*
X0302106Y0192313D01*
X0302501Y0192482D01*
X0302900Y0192641D01*
X0303302Y0192791D01*
X0303709Y0192931D01*
X0304118Y0193060D01*
X0304531Y0193180D01*
X0304946Y0193290D01*
X0305364Y0193389D01*
X0305784Y0193478D01*
X0306206Y0193556D01*
X0306630Y0193625D01*
X0307056Y0193682D01*
X0307483Y0193730D01*
X0307911Y0193767D01*
X0308339Y0193793D01*
X0308769Y0193809D01*
X0309198Y0193814D01*
X0309627Y0193809D01*
X0310057Y0193793D01*
X0310485Y0193767D01*
X0310913Y0193730D01*
X0311340Y0193682D01*
X0311766Y0193625D01*
X0312190Y0193556D01*
X0312612Y0193478D01*
X0313032Y0193389D01*
X0313450Y0193290D01*
X0313865Y0193180D01*
X0314278Y0193060D01*
X0314687Y0192931D01*
X0315094Y0192791D01*
X0315496Y0192641D01*
X0315895Y0192482D01*
X0316290Y0192313D01*
X0316680Y0192134D01*
X0317066Y0191945D01*
X0317447Y0191748D01*
X0317824Y0191541D01*
X0318195Y0191324D01*
X0318560Y0191099D01*
X0318920Y0190865D01*
X0319275Y0190622D01*
X0319623Y0190370D01*
X0319965Y0190110D01*
X0320300Y0189842D01*
X0320629Y0189565D01*
X0320950Y0189281D01*
X0321265Y0188988D01*
X0321572Y0188688D01*
X0321872Y0188381D01*
X0322165Y0188066D01*
X0322449Y0187745D01*
X0322726Y0187416D01*
X0322994Y0187081D01*
X0323254Y0186739D01*
X0323506Y0186391D01*
X0323749Y0186036D01*
X0323983Y0185676D01*
X0324208Y0185311D01*
X0324425Y0184940D01*
X0324632Y0184563D01*
X0324829Y0184182D01*
X0325018Y0183796D01*
X0325197Y0183406D01*
X0325366Y0183011D01*
X0325525Y0182612D01*
X0325675Y0182210D01*
X0325815Y0181803D01*
X0325944Y0181394D01*
X0326064Y0180981D01*
X0326174Y0180566D01*
X0326273Y0180148D01*
X0326362Y0179728D01*
X0326440Y0179306D01*
X0326509Y0178882D01*
X0326566Y0178456D01*
X0326614Y0178029D01*
X0326651Y0177601D01*
X0326677Y0177173D01*
X0326693Y0176743D01*
X0326698Y0176314D01*
X0326693Y0175885D01*
X0326677Y0175455D01*
X0326651Y0175027D01*
X0326614Y0174599D01*
X0326566Y0174172D01*
X0326509Y0173746D01*
X0326440Y0173322D01*
X0326362Y0172900D01*
X0326273Y0172480D01*
X0326174Y0172062D01*
X0326064Y0171647D01*
X0325944Y0171234D01*
X0325815Y0170825D01*
X0325675Y0170418D01*
X0325525Y0170016D01*
X0325366Y0169617D01*
X0325197Y0169222D01*
X0325018Y0168832D01*
X0324829Y0168446D01*
X0324632Y0168065D01*
X0324425Y0167688D01*
X0324208Y0167317D01*
X0323983Y0166952D01*
X0323749Y0166592D01*
X0323506Y0166237D01*
X0323254Y0165889D01*
X0322994Y0165547D01*
X0322726Y0165212D01*
X0322449Y0164883D01*
X0322165Y0164562D01*
X0321872Y0164247D01*
X0321572Y0163940D01*
X0321265Y0163640D01*
X0320950Y0163347D01*
X0320629Y0163063D01*
X0320300Y0162786D01*
X0319965Y0162518D01*
X0319623Y0162258D01*
X0319275Y0162006D01*
X0318920Y0161763D01*
X0318560Y0161529D01*
X0318195Y0161304D01*
X0317824Y0161087D01*
X0317447Y0160880D01*
X0317066Y0160683D01*
X0316680Y0160494D01*
X0316290Y0160315D01*
X0315895Y0160146D01*
X0315496Y0159987D01*
X0315094Y0159837D01*
X0314687Y0159697D01*
X0314278Y0159568D01*
X0313865Y0159448D01*
X0313450Y0159338D01*
X0313032Y0159239D01*
X0312612Y0159150D01*
X0312190Y0159072D01*
X0311766Y0159003D01*
X0311340Y0158946D01*
X0310913Y0158898D01*
X0310485Y0158861D01*
X0310057Y0158835D01*
X0309627Y0158819D01*
X0309198Y0158814D01*
X0308769Y0158819D01*
X0308339Y0158835D01*
X0307911Y0158861D01*
X0307483Y0158898D01*
X0307056Y0158946D01*
X0306630Y0159003D01*
X0306206Y0159072D01*
X0305784Y0159150D01*
X0305364Y0159239D01*
X0304946Y0159338D01*
X0304531Y0159448D01*
X0304118Y0159568D01*
X0303709Y0159697D01*
X0303302Y0159837D01*
X0302900Y0159987D01*
X0302501Y0160146D01*
X0302106Y0160315D01*
X0301716Y0160494D01*
X0301330Y0160683D01*
X0300949Y0160880D01*
X0300572Y0161087D01*
X0300201Y0161304D01*
X0299836Y0161529D01*
X0299476Y0161763D01*
X0299121Y0162006D01*
X0298773Y0162258D01*
X0298431Y0162518D01*
X0298096Y0162786D01*
X0297767Y0163063D01*
X0297446Y0163347D01*
X0297131Y0163640D01*
X0296824Y0163940D01*
X0296524Y0164247D01*
X0296231Y0164562D01*
X0295947Y0164883D01*
X0295670Y0165212D01*
X0295402Y0165547D01*
X0295142Y0165889D01*
X0294890Y0166237D01*
X0294647Y0166592D01*
X0294413Y0166952D01*
X0294188Y0167317D01*
X0293971Y0167688D01*
X0293764Y0168065D01*
X0293567Y0168446D01*
X0293378Y0168832D01*
X0293199Y0169222D01*
X0293030Y0169617D01*
X0292871Y0170016D01*
X0292721Y0170418D01*
X0292581Y0170825D01*
X0292452Y0171234D01*
X0292332Y0171647D01*
X0292222Y0172062D01*
X0292123Y0172480D01*
X0292034Y0172900D01*
X0291956Y0173322D01*
X0291887Y0173746D01*
X0291830Y0174172D01*
X0291782Y0174599D01*
X0291745Y0175027D01*
X0291719Y0175455D01*
X0291703Y0175885D01*
X0291698Y0176314D01*
X0304698Y0177314D02*
X0313698Y0177314D01*
X0313698Y0179814D01*
X0309198Y0179814D01*
X0304698Y0179814D01*
X0304698Y0177314D01*
X0309198Y0179814D02*
X0309198Y0180814D01*
X0315698Y0187814D02*
X0315698Y0190814D01*
X0317198Y0189314D02*
X0314198Y0189314D01*
X0319230Y0201514D02*
X0319663Y0201514D01*
X0320097Y0201947D01*
X0320097Y0202815D01*
X0320531Y0203249D01*
X0320964Y0203249D01*
X0321398Y0202815D01*
X0321398Y0201947D01*
X0320964Y0201514D01*
X0319230Y0201514D02*
X0318796Y0201947D01*
X0318796Y0202815D01*
X0319230Y0203249D01*
X0318796Y0204460D02*
X0318796Y0206195D01*
X0318796Y0205328D02*
X0321398Y0205328D01*
X0321398Y0207407D02*
X0319663Y0207407D01*
X0318796Y0208274D01*
X0319663Y0209142D01*
X0321398Y0209142D01*
X0321398Y0210353D02*
X0321398Y0211654D01*
X0320964Y0212088D01*
X0320531Y0212088D01*
X0320097Y0211654D01*
X0320097Y0210353D01*
X0320097Y0209142D02*
X0320097Y0207407D01*
X0318796Y0210353D02*
X0318796Y0211654D01*
X0319230Y0212088D01*
X0319663Y0212088D01*
X0320097Y0211654D01*
X0321398Y0210353D02*
X0318796Y0210353D01*
X0318796Y0216246D02*
X0320097Y0216246D01*
X0319663Y0217114D01*
X0319663Y0217547D01*
X0320097Y0217981D01*
X0320964Y0217981D01*
X0321398Y0217547D01*
X0321398Y0216680D01*
X0320964Y0216246D01*
X0318796Y0216246D02*
X0318796Y0217981D01*
X0318796Y0219193D02*
X0320531Y0219193D01*
X0321398Y0220060D01*
X0320531Y0220928D01*
X0318796Y0220928D01*
X0292833Y0215682D02*
X0292833Y0215249D01*
X0292399Y0214815D01*
X0292833Y0214381D01*
X0292833Y0213947D01*
X0292399Y0213514D01*
X0291532Y0213514D01*
X0291098Y0213947D01*
X0289886Y0213947D02*
X0289886Y0215682D01*
X0289453Y0216116D01*
X0288152Y0216116D01*
X0288152Y0213514D01*
X0289453Y0213514D01*
X0289886Y0213947D01*
X0291098Y0215682D02*
X0291532Y0216116D01*
X0292399Y0216116D01*
X0292833Y0215682D01*
X0292399Y0214815D02*
X0291966Y0214815D01*
X0292699Y0231514D02*
X0292699Y0234116D01*
X0291398Y0232815D01*
X0293133Y0232815D01*
X0290186Y0233682D02*
X0289753Y0234116D01*
X0288452Y0234116D01*
X0288452Y0231514D01*
X0289753Y0231514D01*
X0290186Y0231947D01*
X0290186Y0233682D01*
X0281446Y0268714D02*
X0280578Y0268714D01*
X0280145Y0269147D01*
X0278933Y0269147D02*
X0278499Y0268714D01*
X0277632Y0268714D01*
X0277198Y0269147D01*
X0277198Y0270882D01*
X0277632Y0271316D01*
X0278499Y0271316D01*
X0278933Y0270882D01*
X0280145Y0270882D02*
X0280578Y0271316D01*
X0281446Y0271316D01*
X0281879Y0270882D01*
X0281879Y0270449D01*
X0281446Y0270015D01*
X0281879Y0269581D01*
X0281879Y0269147D01*
X0281446Y0268714D01*
X0281446Y0270015D02*
X0281012Y0270015D01*
X0317598Y0282615D02*
X0319333Y0282615D01*
X0320545Y0282181D02*
X0321412Y0281314D01*
X0322279Y0282181D01*
X0322279Y0283916D01*
X0320545Y0283916D02*
X0320545Y0282181D01*
X0187906Y0277631D02*
X0187906Y0277197D01*
X0187472Y0276764D01*
X0187906Y0276330D01*
X0187906Y0275896D01*
X0187472Y0275463D01*
X0186605Y0275463D01*
X0186171Y0275896D01*
X0184960Y0275896D02*
X0184960Y0276330D01*
X0184526Y0276764D01*
X0183659Y0276764D01*
X0183225Y0277197D01*
X0183225Y0277631D01*
X0183659Y0278065D01*
X0184526Y0278065D01*
X0184960Y0277631D01*
X0186171Y0277631D02*
X0186605Y0278065D01*
X0187472Y0278065D01*
X0187906Y0277631D01*
X0187472Y0276764D02*
X0187039Y0276764D01*
X0184960Y0275896D02*
X0184526Y0275463D01*
X0183659Y0275463D01*
X0183225Y0275896D01*
X0182013Y0275896D02*
X0182013Y0278065D01*
X0180278Y0278065D02*
X0180278Y0275896D01*
X0180712Y0275463D01*
X0181579Y0275463D01*
X0182013Y0275896D01*
X0184092Y0275029D02*
X0184092Y0278498D01*
X0108898Y0259814D02*
X0108898Y0257314D01*
X0104398Y0257314D01*
X0099898Y0257314D01*
X0099898Y0259814D01*
X0108898Y0259814D01*
X0086898Y0260814D02*
X0086903Y0261243D01*
X0086919Y0261673D01*
X0086945Y0262101D01*
X0086982Y0262529D01*
X0087030Y0262956D01*
X0087087Y0263382D01*
X0087156Y0263806D01*
X0087234Y0264228D01*
X0087323Y0264648D01*
X0087422Y0265066D01*
X0087532Y0265481D01*
X0087652Y0265894D01*
X0087781Y0266303D01*
X0087921Y0266710D01*
X0088071Y0267112D01*
X0088230Y0267511D01*
X0088399Y0267906D01*
X0088578Y0268296D01*
X0088767Y0268682D01*
X0088964Y0269063D01*
X0089171Y0269440D01*
X0089388Y0269811D01*
X0089613Y0270176D01*
X0089847Y0270536D01*
X0090090Y0270891D01*
X0090342Y0271239D01*
X0090602Y0271581D01*
X0090870Y0271916D01*
X0091147Y0272245D01*
X0091431Y0272566D01*
X0091724Y0272881D01*
X0092024Y0273188D01*
X0092331Y0273488D01*
X0092646Y0273781D01*
X0092967Y0274065D01*
X0093296Y0274342D01*
X0093631Y0274610D01*
X0093973Y0274870D01*
X0094321Y0275122D01*
X0094676Y0275365D01*
X0095036Y0275599D01*
X0095401Y0275824D01*
X0095772Y0276041D01*
X0096149Y0276248D01*
X0096530Y0276445D01*
X0096916Y0276634D01*
X0097306Y0276813D01*
X0097701Y0276982D01*
X0098100Y0277141D01*
X0098502Y0277291D01*
X0098909Y0277431D01*
X0099318Y0277560D01*
X0099731Y0277680D01*
X0100146Y0277790D01*
X0100564Y0277889D01*
X0100984Y0277978D01*
X0101406Y0278056D01*
X0101830Y0278125D01*
X0102256Y0278182D01*
X0102683Y0278230D01*
X0103111Y0278267D01*
X0103539Y0278293D01*
X0103969Y0278309D01*
X0104398Y0278314D01*
X0104827Y0278309D01*
X0105257Y0278293D01*
X0105685Y0278267D01*
X0106113Y0278230D01*
X0106540Y0278182D01*
X0106966Y0278125D01*
X0107390Y0278056D01*
X0107812Y0277978D01*
X0108232Y0277889D01*
X0108650Y0277790D01*
X0109065Y0277680D01*
X0109478Y0277560D01*
X0109887Y0277431D01*
X0110294Y0277291D01*
X0110696Y0277141D01*
X0111095Y0276982D01*
X0111490Y0276813D01*
X0111880Y0276634D01*
X0112266Y0276445D01*
X0112647Y0276248D01*
X0113024Y0276041D01*
X0113395Y0275824D01*
X0113760Y0275599D01*
X0114120Y0275365D01*
X0114475Y0275122D01*
X0114823Y0274870D01*
X0115165Y0274610D01*
X0115500Y0274342D01*
X0115829Y0274065D01*
X0116150Y0273781D01*
X0116465Y0273488D01*
X0116772Y0273188D01*
X0117072Y0272881D01*
X0117365Y0272566D01*
X0117649Y0272245D01*
X0117926Y0271916D01*
X0118194Y0271581D01*
X0118454Y0271239D01*
X0118706Y0270891D01*
X0118949Y0270536D01*
X0119183Y0270176D01*
X0119408Y0269811D01*
X0119625Y0269440D01*
X0119832Y0269063D01*
X0120029Y0268682D01*
X0120218Y0268296D01*
X0120397Y0267906D01*
X0120566Y0267511D01*
X0120725Y0267112D01*
X0120875Y0266710D01*
X0121015Y0266303D01*
X0121144Y0265894D01*
X0121264Y0265481D01*
X0121374Y0265066D01*
X0121473Y0264648D01*
X0121562Y0264228D01*
X0121640Y0263806D01*
X0121709Y0263382D01*
X0121766Y0262956D01*
X0121814Y0262529D01*
X0121851Y0262101D01*
X0121877Y0261673D01*
X0121893Y0261243D01*
X0121898Y0260814D01*
X0121893Y0260385D01*
X0121877Y0259955D01*
X0121851Y0259527D01*
X0121814Y0259099D01*
X0121766Y0258672D01*
X0121709Y0258246D01*
X0121640Y0257822D01*
X0121562Y0257400D01*
X0121473Y0256980D01*
X0121374Y0256562D01*
X0121264Y0256147D01*
X0121144Y0255734D01*
X0121015Y0255325D01*
X0120875Y0254918D01*
X0120725Y0254516D01*
X0120566Y0254117D01*
X0120397Y0253722D01*
X0120218Y0253332D01*
X0120029Y0252946D01*
X0119832Y0252565D01*
X0119625Y0252188D01*
X0119408Y0251817D01*
X0119183Y0251452D01*
X0118949Y0251092D01*
X0118706Y0250737D01*
X0118454Y0250389D01*
X0118194Y0250047D01*
X0117926Y0249712D01*
X0117649Y0249383D01*
X0117365Y0249062D01*
X0117072Y0248747D01*
X0116772Y0248440D01*
X0116465Y0248140D01*
X0116150Y0247847D01*
X0115829Y0247563D01*
X0115500Y0247286D01*
X0115165Y0247018D01*
X0114823Y0246758D01*
X0114475Y0246506D01*
X0114120Y0246263D01*
X0113760Y0246029D01*
X0113395Y0245804D01*
X0113024Y0245587D01*
X0112647Y0245380D01*
X0112266Y0245183D01*
X0111880Y0244994D01*
X0111490Y0244815D01*
X0111095Y0244646D01*
X0110696Y0244487D01*
X0110294Y0244337D01*
X0109887Y0244197D01*
X0109478Y0244068D01*
X0109065Y0243948D01*
X0108650Y0243838D01*
X0108232Y0243739D01*
X0107812Y0243650D01*
X0107390Y0243572D01*
X0106966Y0243503D01*
X0106540Y0243446D01*
X0106113Y0243398D01*
X0105685Y0243361D01*
X0105257Y0243335D01*
X0104827Y0243319D01*
X0104398Y0243314D01*
X0103969Y0243319D01*
X0103539Y0243335D01*
X0103111Y0243361D01*
X0102683Y0243398D01*
X0102256Y0243446D01*
X0101830Y0243503D01*
X0101406Y0243572D01*
X0100984Y0243650D01*
X0100564Y0243739D01*
X0100146Y0243838D01*
X0099731Y0243948D01*
X0099318Y0244068D01*
X0098909Y0244197D01*
X0098502Y0244337D01*
X0098100Y0244487D01*
X0097701Y0244646D01*
X0097306Y0244815D01*
X0096916Y0244994D01*
X0096530Y0245183D01*
X0096149Y0245380D01*
X0095772Y0245587D01*
X0095401Y0245804D01*
X0095036Y0246029D01*
X0094676Y0246263D01*
X0094321Y0246506D01*
X0093973Y0246758D01*
X0093631Y0247018D01*
X0093296Y0247286D01*
X0092967Y0247563D01*
X0092646Y0247847D01*
X0092331Y0248140D01*
X0092024Y0248440D01*
X0091724Y0248747D01*
X0091431Y0249062D01*
X0091147Y0249383D01*
X0090870Y0249712D01*
X0090602Y0250047D01*
X0090342Y0250389D01*
X0090090Y0250737D01*
X0089847Y0251092D01*
X0089613Y0251452D01*
X0089388Y0251817D01*
X0089171Y0252188D01*
X0088964Y0252565D01*
X0088767Y0252946D01*
X0088578Y0253332D01*
X0088399Y0253722D01*
X0088230Y0254117D01*
X0088071Y0254516D01*
X0087921Y0254918D01*
X0087781Y0255325D01*
X0087652Y0255734D01*
X0087532Y0256147D01*
X0087422Y0256562D01*
X0087323Y0256980D01*
X0087234Y0257400D01*
X0087156Y0257822D01*
X0087087Y0258246D01*
X0087030Y0258672D01*
X0086982Y0259099D01*
X0086945Y0259527D01*
X0086919Y0259955D01*
X0086903Y0260385D01*
X0086898Y0260814D01*
X0097898Y0249314D02*
X0097898Y0246314D01*
X0096398Y0247814D02*
X0099398Y0247814D01*
X0104398Y0256314D02*
X0104398Y0257314D01*
X0104398Y0263314D02*
X0104398Y0265314D01*
X0088579Y0225916D02*
X0086845Y0225916D01*
X0086845Y0224615D01*
X0087712Y0225049D01*
X0088146Y0225049D01*
X0088579Y0224615D01*
X0088579Y0223747D01*
X0088146Y0223314D01*
X0087278Y0223314D01*
X0086845Y0223747D01*
X0085199Y0223747D02*
X0085199Y0225916D01*
X0084766Y0225916D02*
X0085633Y0225916D01*
X0085199Y0223747D02*
X0084766Y0223314D01*
X0084332Y0223314D01*
X0083898Y0223747D01*
X0081237Y0214716D02*
X0081237Y0214315D01*
X0079636Y0212714D01*
X0079636Y0212314D01*
X0078475Y0212314D02*
X0077674Y0213114D01*
X0078074Y0213114D02*
X0076873Y0213114D01*
X0076873Y0212314D02*
X0076873Y0214716D01*
X0078074Y0214716D01*
X0078475Y0214315D01*
X0078475Y0213515D01*
X0078074Y0213114D01*
X0079636Y0214716D02*
X0081237Y0214716D01*
X0074736Y0201916D02*
X0074736Y0199514D01*
X0073936Y0199514D02*
X0075537Y0199514D01*
X0073936Y0201115D02*
X0074736Y0201916D01*
X0072775Y0201515D02*
X0072775Y0201115D01*
X0072374Y0200715D01*
X0072775Y0200314D01*
X0072775Y0199914D01*
X0072374Y0199514D01*
X0071574Y0199514D01*
X0071173Y0199914D01*
X0071974Y0200715D02*
X0072374Y0200715D01*
X0072775Y0201515D02*
X0072374Y0201916D01*
X0071574Y0201916D01*
X0071173Y0201515D01*
X0070012Y0201515D02*
X0070012Y0200715D01*
X0069612Y0200314D01*
X0068411Y0200314D01*
X0068411Y0199514D02*
X0068411Y0201916D01*
X0069612Y0201916D01*
X0070012Y0201515D01*
X0069212Y0200314D02*
X0070012Y0199514D01*
X0078650Y0190814D02*
X0050150Y0190814D01*
X0050150Y0170814D01*
X0078650Y0170814D01*
X0078650Y0190814D01*
X0066437Y0212414D02*
X0065636Y0212414D01*
X0065236Y0212814D01*
X0065236Y0213214D01*
X0065636Y0213615D01*
X0066437Y0213615D01*
X0066837Y0213214D01*
X0066837Y0212814D01*
X0066437Y0212414D01*
X0066437Y0213615D02*
X0066837Y0214015D01*
X0066837Y0214415D01*
X0066437Y0214816D01*
X0065636Y0214816D01*
X0065236Y0214415D01*
X0065236Y0214015D01*
X0065636Y0213615D01*
X0064075Y0213615D02*
X0063674Y0213214D01*
X0062473Y0213214D01*
X0062473Y0212414D02*
X0062473Y0214816D01*
X0063674Y0214816D01*
X0064075Y0214415D01*
X0064075Y0213615D01*
X0063274Y0213214D02*
X0064075Y0212414D01*
X0060137Y0212764D02*
X0060137Y0214365D01*
X0059737Y0214766D01*
X0058936Y0214766D01*
X0058536Y0214365D01*
X0058536Y0213965D01*
X0058936Y0213565D01*
X0060137Y0213565D01*
X0060137Y0212764D02*
X0059737Y0212364D01*
X0058936Y0212364D01*
X0058536Y0212764D01*
X0057375Y0212764D02*
X0056974Y0212364D01*
X0056174Y0212364D01*
X0055773Y0212764D01*
X0056574Y0213565D02*
X0056974Y0213565D01*
X0057375Y0213164D01*
X0057375Y0212764D01*
X0056974Y0213565D02*
X0057375Y0213965D01*
X0057375Y0214365D01*
X0056974Y0214766D01*
X0056174Y0214766D01*
X0055773Y0214365D01*
X0054612Y0214365D02*
X0054212Y0214766D01*
X0053411Y0214766D01*
X0053011Y0214365D01*
X0053011Y0212764D01*
X0053411Y0212364D01*
X0054212Y0212364D01*
X0054612Y0212764D01*
X0041398Y0205739D02*
X0041398Y0204939D01*
X0040998Y0204538D01*
X0040197Y0205339D02*
X0040197Y0205739D01*
X0040597Y0206140D01*
X0040998Y0206140D01*
X0041398Y0205739D01*
X0040197Y0205739D02*
X0039797Y0206140D01*
X0039396Y0206140D01*
X0038996Y0205739D01*
X0038996Y0204939D01*
X0039396Y0204538D01*
X0039396Y0203377D02*
X0039797Y0203377D01*
X0040197Y0202977D01*
X0040597Y0203377D01*
X0040998Y0203377D01*
X0041398Y0202977D01*
X0041398Y0202176D01*
X0040998Y0201776D01*
X0040197Y0202577D02*
X0040197Y0202977D01*
X0039396Y0203377D02*
X0038996Y0202977D01*
X0038996Y0202176D01*
X0039396Y0201776D01*
X0039396Y0200615D02*
X0040197Y0200615D01*
X0040597Y0200215D01*
X0040597Y0199014D01*
X0040597Y0199814D02*
X0041398Y0200615D01*
X0041398Y0199014D02*
X0038996Y0199014D01*
X0038996Y0200215D01*
X0039396Y0200615D01*
X0033491Y0200289D02*
X0031089Y0200289D01*
X0031089Y0201490D01*
X0031489Y0201890D01*
X0032290Y0201890D01*
X0032690Y0201490D01*
X0032690Y0200289D01*
X0033491Y0199128D02*
X0031089Y0199128D01*
X0031890Y0198327D01*
X0031089Y0197527D01*
X0033491Y0197527D01*
X0033091Y0195965D02*
X0031089Y0195965D01*
X0031089Y0195565D02*
X0031089Y0196366D01*
X0033091Y0195965D02*
X0033491Y0195565D01*
X0033491Y0195165D01*
X0033091Y0194764D01*
X0037046Y0191039D02*
X0037446Y0191440D01*
X0037847Y0191440D01*
X0038247Y0191039D01*
X0038647Y0191440D01*
X0039048Y0191440D01*
X0039448Y0191039D01*
X0039448Y0190239D01*
X0039048Y0189838D01*
X0038247Y0190639D02*
X0038247Y0191039D01*
X0037046Y0191039D02*
X0037046Y0190239D01*
X0037446Y0189838D01*
X0038247Y0188677D02*
X0038247Y0187076D01*
X0037046Y0188277D01*
X0039448Y0188277D01*
X0040536Y0189195D02*
X0040536Y0186833D01*
X0039448Y0185515D02*
X0039048Y0185915D01*
X0039448Y0185515D02*
X0039448Y0184714D01*
X0039048Y0184314D01*
X0037446Y0184314D01*
X0037046Y0184714D01*
X0037046Y0185515D01*
X0037446Y0185915D01*
X0037746Y0179240D02*
X0038146Y0178439D01*
X0038947Y0177638D01*
X0038947Y0178839D01*
X0039347Y0179240D01*
X0039748Y0179240D01*
X0040148Y0178839D01*
X0040148Y0178039D01*
X0039748Y0177638D01*
X0038947Y0177638D01*
X0038947Y0176477D02*
X0038947Y0174876D01*
X0037746Y0176077D01*
X0040148Y0176077D01*
X0039748Y0173715D02*
X0040148Y0173315D01*
X0040148Y0172514D01*
X0039748Y0172114D01*
X0038146Y0172114D01*
X0037746Y0172514D01*
X0037746Y0173315D01*
X0038146Y0173715D01*
X0035905Y0173477D02*
X0033503Y0173477D01*
X0034304Y0172677D01*
X0033503Y0171876D01*
X0035905Y0171876D01*
X0035505Y0170315D02*
X0033503Y0170315D01*
X0033503Y0170715D02*
X0033503Y0169914D01*
X0035505Y0170315D02*
X0035905Y0169914D01*
X0035905Y0169514D01*
X0035505Y0169114D01*
X0035905Y0174638D02*
X0033503Y0174638D01*
X0033503Y0175839D01*
X0033904Y0176240D01*
X0034704Y0176240D01*
X0035105Y0175839D01*
X0035105Y0174638D01*
X0034704Y0177401D02*
X0034704Y0179002D01*
X0035905Y0178602D02*
X0033503Y0178602D01*
X0034704Y0177401D01*
X0045260Y0186833D02*
X0045260Y0189195D01*
X0047646Y0195914D02*
X0049248Y0195914D01*
X0049648Y0196314D01*
X0049648Y0197115D01*
X0049248Y0197515D01*
X0049248Y0198676D02*
X0048847Y0198676D01*
X0048447Y0199076D01*
X0048447Y0199877D01*
X0048847Y0200277D01*
X0049248Y0200277D01*
X0049648Y0199877D01*
X0049648Y0199076D01*
X0049248Y0198676D01*
X0048447Y0199076D02*
X0048047Y0198676D01*
X0047646Y0198676D01*
X0047246Y0199076D01*
X0047246Y0199877D01*
X0047646Y0200277D01*
X0048047Y0200277D01*
X0048447Y0199877D01*
X0047646Y0197515D02*
X0047246Y0197115D01*
X0047246Y0196314D01*
X0047646Y0195914D01*
X0033491Y0203051D02*
X0031890Y0204653D01*
X0031489Y0204653D01*
X0031089Y0204252D01*
X0031089Y0203452D01*
X0031489Y0203051D01*
X0033491Y0203051D02*
X0033491Y0204653D01*
X0052650Y0175314D02*
X0052652Y0175413D01*
X0052658Y0175513D01*
X0052668Y0175612D01*
X0052682Y0175710D01*
X0052699Y0175808D01*
X0052721Y0175905D01*
X0052746Y0176001D01*
X0052775Y0176096D01*
X0052808Y0176190D01*
X0052845Y0176282D01*
X0052885Y0176373D01*
X0052929Y0176462D01*
X0052977Y0176550D01*
X0053028Y0176635D01*
X0053082Y0176718D01*
X0053139Y0176800D01*
X0053200Y0176878D01*
X0053264Y0176955D01*
X0053330Y0177028D01*
X0053400Y0177099D01*
X0053472Y0177167D01*
X0053547Y0177233D01*
X0053625Y0177295D01*
X0053705Y0177354D01*
X0053787Y0177410D01*
X0053871Y0177462D01*
X0053958Y0177511D01*
X0054046Y0177557D01*
X0054136Y0177599D01*
X0054228Y0177638D01*
X0054321Y0177673D01*
X0054415Y0177704D01*
X0054511Y0177731D01*
X0054608Y0177754D01*
X0054705Y0177774D01*
X0054803Y0177790D01*
X0054902Y0177802D01*
X0055001Y0177810D01*
X0055100Y0177814D01*
X0055200Y0177814D01*
X0055299Y0177810D01*
X0055398Y0177802D01*
X0055497Y0177790D01*
X0055595Y0177774D01*
X0055692Y0177754D01*
X0055789Y0177731D01*
X0055885Y0177704D01*
X0055979Y0177673D01*
X0056072Y0177638D01*
X0056164Y0177599D01*
X0056254Y0177557D01*
X0056342Y0177511D01*
X0056429Y0177462D01*
X0056513Y0177410D01*
X0056595Y0177354D01*
X0056675Y0177295D01*
X0056753Y0177233D01*
X0056828Y0177167D01*
X0056900Y0177099D01*
X0056970Y0177028D01*
X0057036Y0176955D01*
X0057100Y0176878D01*
X0057161Y0176800D01*
X0057218Y0176718D01*
X0057272Y0176635D01*
X0057323Y0176550D01*
X0057371Y0176462D01*
X0057415Y0176373D01*
X0057455Y0176282D01*
X0057492Y0176190D01*
X0057525Y0176096D01*
X0057554Y0176001D01*
X0057579Y0175905D01*
X0057601Y0175808D01*
X0057618Y0175710D01*
X0057632Y0175612D01*
X0057642Y0175513D01*
X0057648Y0175413D01*
X0057650Y0175314D01*
X0057648Y0175215D01*
X0057642Y0175115D01*
X0057632Y0175016D01*
X0057618Y0174918D01*
X0057601Y0174820D01*
X0057579Y0174723D01*
X0057554Y0174627D01*
X0057525Y0174532D01*
X0057492Y0174438D01*
X0057455Y0174346D01*
X0057415Y0174255D01*
X0057371Y0174166D01*
X0057323Y0174078D01*
X0057272Y0173993D01*
X0057218Y0173910D01*
X0057161Y0173828D01*
X0057100Y0173750D01*
X0057036Y0173673D01*
X0056970Y0173600D01*
X0056900Y0173529D01*
X0056828Y0173461D01*
X0056753Y0173395D01*
X0056675Y0173333D01*
X0056595Y0173274D01*
X0056513Y0173218D01*
X0056429Y0173166D01*
X0056342Y0173117D01*
X0056254Y0173071D01*
X0056164Y0173029D01*
X0056072Y0172990D01*
X0055979Y0172955D01*
X0055885Y0172924D01*
X0055789Y0172897D01*
X0055692Y0172874D01*
X0055595Y0172854D01*
X0055497Y0172838D01*
X0055398Y0172826D01*
X0055299Y0172818D01*
X0055200Y0172814D01*
X0055100Y0172814D01*
X0055001Y0172818D01*
X0054902Y0172826D01*
X0054803Y0172838D01*
X0054705Y0172854D01*
X0054608Y0172874D01*
X0054511Y0172897D01*
X0054415Y0172924D01*
X0054321Y0172955D01*
X0054228Y0172990D01*
X0054136Y0173029D01*
X0054046Y0173071D01*
X0053958Y0173117D01*
X0053871Y0173166D01*
X0053787Y0173218D01*
X0053705Y0173274D01*
X0053625Y0173333D01*
X0053547Y0173395D01*
X0053472Y0173461D01*
X0053400Y0173529D01*
X0053330Y0173600D01*
X0053264Y0173673D01*
X0053200Y0173750D01*
X0053139Y0173828D01*
X0053082Y0173910D01*
X0053028Y0173993D01*
X0052977Y0174078D01*
X0052929Y0174166D01*
X0052885Y0174255D01*
X0052845Y0174346D01*
X0052808Y0174438D01*
X0052775Y0174532D01*
X0052746Y0174627D01*
X0052721Y0174723D01*
X0052699Y0174820D01*
X0052682Y0174918D01*
X0052668Y0175016D01*
X0052658Y0175115D01*
X0052652Y0175215D01*
X0052650Y0175314D01*
X0047398Y0164039D02*
X0044996Y0164039D01*
X0046197Y0162838D01*
X0046197Y0164440D01*
X0046197Y0161677D02*
X0046197Y0160076D01*
X0044996Y0161277D01*
X0047398Y0161277D01*
X0046998Y0158915D02*
X0047398Y0158515D01*
X0047398Y0157714D01*
X0046998Y0157314D01*
X0045396Y0157314D01*
X0044996Y0157714D01*
X0044996Y0158515D01*
X0045396Y0158915D01*
X0061896Y0158315D02*
X0062296Y0158715D01*
X0063097Y0158715D01*
X0063497Y0158315D01*
X0063497Y0157114D01*
X0063497Y0157914D02*
X0064298Y0158715D01*
X0063898Y0159876D02*
X0064298Y0160276D01*
X0064298Y0161077D01*
X0063898Y0161477D01*
X0063497Y0161477D01*
X0063097Y0161077D01*
X0063097Y0160677D01*
X0063097Y0161077D02*
X0062697Y0161477D01*
X0062296Y0161477D01*
X0061896Y0161077D01*
X0061896Y0160276D01*
X0062296Y0159876D01*
X0061896Y0158315D02*
X0061896Y0157114D01*
X0064298Y0157114D01*
X0063898Y0162638D02*
X0063497Y0162638D01*
X0063097Y0163039D01*
X0063097Y0163839D01*
X0063497Y0164240D01*
X0063898Y0164240D01*
X0064298Y0163839D01*
X0064298Y0163039D01*
X0063898Y0162638D01*
X0063097Y0163039D02*
X0062697Y0162638D01*
X0062296Y0162638D01*
X0061896Y0163039D01*
X0061896Y0163839D01*
X0062296Y0164240D01*
X0062697Y0164240D01*
X0063097Y0163839D01*
X0083398Y0150814D02*
X0083401Y0151084D01*
X0083411Y0151354D01*
X0083428Y0151623D01*
X0083451Y0151892D01*
X0083481Y0152161D01*
X0083517Y0152428D01*
X0083560Y0152695D01*
X0083609Y0152960D01*
X0083665Y0153224D01*
X0083728Y0153487D01*
X0083796Y0153748D01*
X0083872Y0154007D01*
X0083953Y0154264D01*
X0084041Y0154520D01*
X0084135Y0154773D01*
X0084235Y0155024D01*
X0084342Y0155272D01*
X0084454Y0155517D01*
X0084573Y0155760D01*
X0084697Y0155999D01*
X0084827Y0156236D01*
X0084963Y0156469D01*
X0085105Y0156699D01*
X0085252Y0156925D01*
X0085405Y0157148D01*
X0085563Y0157367D01*
X0085726Y0157582D01*
X0085895Y0157792D01*
X0086069Y0157999D01*
X0086248Y0158201D01*
X0086431Y0158399D01*
X0086620Y0158592D01*
X0086813Y0158781D01*
X0087011Y0158964D01*
X0087213Y0159143D01*
X0087420Y0159317D01*
X0087630Y0159486D01*
X0087845Y0159649D01*
X0088064Y0159807D01*
X0088287Y0159960D01*
X0088513Y0160107D01*
X0088743Y0160249D01*
X0088976Y0160385D01*
X0089213Y0160515D01*
X0089452Y0160639D01*
X0089695Y0160758D01*
X0089940Y0160870D01*
X0090188Y0160977D01*
X0090439Y0161077D01*
X0090692Y0161171D01*
X0090948Y0161259D01*
X0091205Y0161340D01*
X0091464Y0161416D01*
X0091725Y0161484D01*
X0091988Y0161547D01*
X0092252Y0161603D01*
X0092517Y0161652D01*
X0092784Y0161695D01*
X0093051Y0161731D01*
X0093320Y0161761D01*
X0093589Y0161784D01*
X0093858Y0161801D01*
X0094128Y0161811D01*
X0094398Y0161814D01*
X0094668Y0161811D01*
X0094938Y0161801D01*
X0095207Y0161784D01*
X0095476Y0161761D01*
X0095745Y0161731D01*
X0096012Y0161695D01*
X0096279Y0161652D01*
X0096544Y0161603D01*
X0096808Y0161547D01*
X0097071Y0161484D01*
X0097332Y0161416D01*
X0097591Y0161340D01*
X0097848Y0161259D01*
X0098104Y0161171D01*
X0098357Y0161077D01*
X0098608Y0160977D01*
X0098856Y0160870D01*
X0099101Y0160758D01*
X0099344Y0160639D01*
X0099583Y0160515D01*
X0099820Y0160385D01*
X0100053Y0160249D01*
X0100283Y0160107D01*
X0100509Y0159960D01*
X0100732Y0159807D01*
X0100951Y0159649D01*
X0101166Y0159486D01*
X0101376Y0159317D01*
X0101583Y0159143D01*
X0101785Y0158964D01*
X0101983Y0158781D01*
X0102176Y0158592D01*
X0102365Y0158399D01*
X0102548Y0158201D01*
X0102727Y0157999D01*
X0102901Y0157792D01*
X0103070Y0157582D01*
X0103233Y0157367D01*
X0103391Y0157148D01*
X0103544Y0156925D01*
X0103691Y0156699D01*
X0103833Y0156469D01*
X0103969Y0156236D01*
X0104099Y0155999D01*
X0104223Y0155760D01*
X0104342Y0155517D01*
X0104454Y0155272D01*
X0104561Y0155024D01*
X0104661Y0154773D01*
X0104755Y0154520D01*
X0104843Y0154264D01*
X0104924Y0154007D01*
X0105000Y0153748D01*
X0105068Y0153487D01*
X0105131Y0153224D01*
X0105187Y0152960D01*
X0105236Y0152695D01*
X0105279Y0152428D01*
X0105315Y0152161D01*
X0105345Y0151892D01*
X0105368Y0151623D01*
X0105385Y0151354D01*
X0105395Y0151084D01*
X0105398Y0150814D01*
X0105395Y0150544D01*
X0105385Y0150274D01*
X0105368Y0150005D01*
X0105345Y0149736D01*
X0105315Y0149467D01*
X0105279Y0149200D01*
X0105236Y0148933D01*
X0105187Y0148668D01*
X0105131Y0148404D01*
X0105068Y0148141D01*
X0105000Y0147880D01*
X0104924Y0147621D01*
X0104843Y0147364D01*
X0104755Y0147108D01*
X0104661Y0146855D01*
X0104561Y0146604D01*
X0104454Y0146356D01*
X0104342Y0146111D01*
X0104223Y0145868D01*
X0104099Y0145629D01*
X0103969Y0145392D01*
X0103833Y0145159D01*
X0103691Y0144929D01*
X0103544Y0144703D01*
X0103391Y0144480D01*
X0103233Y0144261D01*
X0103070Y0144046D01*
X0102901Y0143836D01*
X0102727Y0143629D01*
X0102548Y0143427D01*
X0102365Y0143229D01*
X0102176Y0143036D01*
X0101983Y0142847D01*
X0101785Y0142664D01*
X0101583Y0142485D01*
X0101376Y0142311D01*
X0101166Y0142142D01*
X0100951Y0141979D01*
X0100732Y0141821D01*
X0100509Y0141668D01*
X0100283Y0141521D01*
X0100053Y0141379D01*
X0099820Y0141243D01*
X0099583Y0141113D01*
X0099344Y0140989D01*
X0099101Y0140870D01*
X0098856Y0140758D01*
X0098608Y0140651D01*
X0098357Y0140551D01*
X0098104Y0140457D01*
X0097848Y0140369D01*
X0097591Y0140288D01*
X0097332Y0140212D01*
X0097071Y0140144D01*
X0096808Y0140081D01*
X0096544Y0140025D01*
X0096279Y0139976D01*
X0096012Y0139933D01*
X0095745Y0139897D01*
X0095476Y0139867D01*
X0095207Y0139844D01*
X0094938Y0139827D01*
X0094668Y0139817D01*
X0094398Y0139814D01*
X0094128Y0139817D01*
X0093858Y0139827D01*
X0093589Y0139844D01*
X0093320Y0139867D01*
X0093051Y0139897D01*
X0092784Y0139933D01*
X0092517Y0139976D01*
X0092252Y0140025D01*
X0091988Y0140081D01*
X0091725Y0140144D01*
X0091464Y0140212D01*
X0091205Y0140288D01*
X0090948Y0140369D01*
X0090692Y0140457D01*
X0090439Y0140551D01*
X0090188Y0140651D01*
X0089940Y0140758D01*
X0089695Y0140870D01*
X0089452Y0140989D01*
X0089213Y0141113D01*
X0088976Y0141243D01*
X0088743Y0141379D01*
X0088513Y0141521D01*
X0088287Y0141668D01*
X0088064Y0141821D01*
X0087845Y0141979D01*
X0087630Y0142142D01*
X0087420Y0142311D01*
X0087213Y0142485D01*
X0087011Y0142664D01*
X0086813Y0142847D01*
X0086620Y0143036D01*
X0086431Y0143229D01*
X0086248Y0143427D01*
X0086069Y0143629D01*
X0085895Y0143836D01*
X0085726Y0144046D01*
X0085563Y0144261D01*
X0085405Y0144480D01*
X0085252Y0144703D01*
X0085105Y0144929D01*
X0084963Y0145159D01*
X0084827Y0145392D01*
X0084697Y0145629D01*
X0084573Y0145868D01*
X0084454Y0146111D01*
X0084342Y0146356D01*
X0084235Y0146604D01*
X0084135Y0146855D01*
X0084041Y0147108D01*
X0083953Y0147364D01*
X0083872Y0147621D01*
X0083796Y0147880D01*
X0083728Y0148141D01*
X0083665Y0148404D01*
X0083609Y0148668D01*
X0083560Y0148933D01*
X0083517Y0149200D01*
X0083481Y0149467D01*
X0083451Y0149736D01*
X0083428Y0150005D01*
X0083411Y0150274D01*
X0083401Y0150544D01*
X0083398Y0150814D01*
X0097898Y0157314D02*
X0099398Y0157314D01*
X0100898Y0157314D01*
X0099398Y0157314D02*
X0099398Y0155814D01*
X0099398Y0157314D02*
X0099398Y0158814D01*
X0048198Y0133914D02*
X0046698Y0133914D01*
X0046698Y0132414D01*
X0046698Y0133914D02*
X0045198Y0133914D01*
X0046698Y0133914D02*
X0046698Y0135414D01*
X0030698Y0127414D02*
X0030701Y0127684D01*
X0030711Y0127954D01*
X0030728Y0128223D01*
X0030751Y0128492D01*
X0030781Y0128761D01*
X0030817Y0129028D01*
X0030860Y0129295D01*
X0030909Y0129560D01*
X0030965Y0129824D01*
X0031028Y0130087D01*
X0031096Y0130348D01*
X0031172Y0130607D01*
X0031253Y0130864D01*
X0031341Y0131120D01*
X0031435Y0131373D01*
X0031535Y0131624D01*
X0031642Y0131872D01*
X0031754Y0132117D01*
X0031873Y0132360D01*
X0031997Y0132599D01*
X0032127Y0132836D01*
X0032263Y0133069D01*
X0032405Y0133299D01*
X0032552Y0133525D01*
X0032705Y0133748D01*
X0032863Y0133967D01*
X0033026Y0134182D01*
X0033195Y0134392D01*
X0033369Y0134599D01*
X0033548Y0134801D01*
X0033731Y0134999D01*
X0033920Y0135192D01*
X0034113Y0135381D01*
X0034311Y0135564D01*
X0034513Y0135743D01*
X0034720Y0135917D01*
X0034930Y0136086D01*
X0035145Y0136249D01*
X0035364Y0136407D01*
X0035587Y0136560D01*
X0035813Y0136707D01*
X0036043Y0136849D01*
X0036276Y0136985D01*
X0036513Y0137115D01*
X0036752Y0137239D01*
X0036995Y0137358D01*
X0037240Y0137470D01*
X0037488Y0137577D01*
X0037739Y0137677D01*
X0037992Y0137771D01*
X0038248Y0137859D01*
X0038505Y0137940D01*
X0038764Y0138016D01*
X0039025Y0138084D01*
X0039288Y0138147D01*
X0039552Y0138203D01*
X0039817Y0138252D01*
X0040084Y0138295D01*
X0040351Y0138331D01*
X0040620Y0138361D01*
X0040889Y0138384D01*
X0041158Y0138401D01*
X0041428Y0138411D01*
X0041698Y0138414D01*
X0041968Y0138411D01*
X0042238Y0138401D01*
X0042507Y0138384D01*
X0042776Y0138361D01*
X0043045Y0138331D01*
X0043312Y0138295D01*
X0043579Y0138252D01*
X0043844Y0138203D01*
X0044108Y0138147D01*
X0044371Y0138084D01*
X0044632Y0138016D01*
X0044891Y0137940D01*
X0045148Y0137859D01*
X0045404Y0137771D01*
X0045657Y0137677D01*
X0045908Y0137577D01*
X0046156Y0137470D01*
X0046401Y0137358D01*
X0046644Y0137239D01*
X0046883Y0137115D01*
X0047120Y0136985D01*
X0047353Y0136849D01*
X0047583Y0136707D01*
X0047809Y0136560D01*
X0048032Y0136407D01*
X0048251Y0136249D01*
X0048466Y0136086D01*
X0048676Y0135917D01*
X0048883Y0135743D01*
X0049085Y0135564D01*
X0049283Y0135381D01*
X0049476Y0135192D01*
X0049665Y0134999D01*
X0049848Y0134801D01*
X0050027Y0134599D01*
X0050201Y0134392D01*
X0050370Y0134182D01*
X0050533Y0133967D01*
X0050691Y0133748D01*
X0050844Y0133525D01*
X0050991Y0133299D01*
X0051133Y0133069D01*
X0051269Y0132836D01*
X0051399Y0132599D01*
X0051523Y0132360D01*
X0051642Y0132117D01*
X0051754Y0131872D01*
X0051861Y0131624D01*
X0051961Y0131373D01*
X0052055Y0131120D01*
X0052143Y0130864D01*
X0052224Y0130607D01*
X0052300Y0130348D01*
X0052368Y0130087D01*
X0052431Y0129824D01*
X0052487Y0129560D01*
X0052536Y0129295D01*
X0052579Y0129028D01*
X0052615Y0128761D01*
X0052645Y0128492D01*
X0052668Y0128223D01*
X0052685Y0127954D01*
X0052695Y0127684D01*
X0052698Y0127414D01*
X0052695Y0127144D01*
X0052685Y0126874D01*
X0052668Y0126605D01*
X0052645Y0126336D01*
X0052615Y0126067D01*
X0052579Y0125800D01*
X0052536Y0125533D01*
X0052487Y0125268D01*
X0052431Y0125004D01*
X0052368Y0124741D01*
X0052300Y0124480D01*
X0052224Y0124221D01*
X0052143Y0123964D01*
X0052055Y0123708D01*
X0051961Y0123455D01*
X0051861Y0123204D01*
X0051754Y0122956D01*
X0051642Y0122711D01*
X0051523Y0122468D01*
X0051399Y0122229D01*
X0051269Y0121992D01*
X0051133Y0121759D01*
X0050991Y0121529D01*
X0050844Y0121303D01*
X0050691Y0121080D01*
X0050533Y0120861D01*
X0050370Y0120646D01*
X0050201Y0120436D01*
X0050027Y0120229D01*
X0049848Y0120027D01*
X0049665Y0119829D01*
X0049476Y0119636D01*
X0049283Y0119447D01*
X0049085Y0119264D01*
X0048883Y0119085D01*
X0048676Y0118911D01*
X0048466Y0118742D01*
X0048251Y0118579D01*
X0048032Y0118421D01*
X0047809Y0118268D01*
X0047583Y0118121D01*
X0047353Y0117979D01*
X0047120Y0117843D01*
X0046883Y0117713D01*
X0046644Y0117589D01*
X0046401Y0117470D01*
X0046156Y0117358D01*
X0045908Y0117251D01*
X0045657Y0117151D01*
X0045404Y0117057D01*
X0045148Y0116969D01*
X0044891Y0116888D01*
X0044632Y0116812D01*
X0044371Y0116744D01*
X0044108Y0116681D01*
X0043844Y0116625D01*
X0043579Y0116576D01*
X0043312Y0116533D01*
X0043045Y0116497D01*
X0042776Y0116467D01*
X0042507Y0116444D01*
X0042238Y0116427D01*
X0041968Y0116417D01*
X0041698Y0116414D01*
X0041428Y0116417D01*
X0041158Y0116427D01*
X0040889Y0116444D01*
X0040620Y0116467D01*
X0040351Y0116497D01*
X0040084Y0116533D01*
X0039817Y0116576D01*
X0039552Y0116625D01*
X0039288Y0116681D01*
X0039025Y0116744D01*
X0038764Y0116812D01*
X0038505Y0116888D01*
X0038248Y0116969D01*
X0037992Y0117057D01*
X0037739Y0117151D01*
X0037488Y0117251D01*
X0037240Y0117358D01*
X0036995Y0117470D01*
X0036752Y0117589D01*
X0036513Y0117713D01*
X0036276Y0117843D01*
X0036043Y0117979D01*
X0035813Y0118121D01*
X0035587Y0118268D01*
X0035364Y0118421D01*
X0035145Y0118579D01*
X0034930Y0118742D01*
X0034720Y0118911D01*
X0034513Y0119085D01*
X0034311Y0119264D01*
X0034113Y0119447D01*
X0033920Y0119636D01*
X0033731Y0119829D01*
X0033548Y0120027D01*
X0033369Y0120229D01*
X0033195Y0120436D01*
X0033026Y0120646D01*
X0032863Y0120861D01*
X0032705Y0121080D01*
X0032552Y0121303D01*
X0032405Y0121529D01*
X0032263Y0121759D01*
X0032127Y0121992D01*
X0031997Y0122229D01*
X0031873Y0122468D01*
X0031754Y0122711D01*
X0031642Y0122956D01*
X0031535Y0123204D01*
X0031435Y0123455D01*
X0031341Y0123708D01*
X0031253Y0123964D01*
X0031172Y0124221D01*
X0031096Y0124480D01*
X0031028Y0124741D01*
X0030965Y0125004D01*
X0030909Y0125268D01*
X0030860Y0125533D01*
X0030817Y0125800D01*
X0030781Y0126067D01*
X0030751Y0126336D01*
X0030728Y0126605D01*
X0030711Y0126874D01*
X0030701Y0127144D01*
X0030698Y0127414D01*
X0044732Y0245814D02*
X0045166Y0245814D01*
X0045599Y0246247D01*
X0045599Y0248416D01*
X0045166Y0248416D02*
X0046033Y0248416D01*
X0047245Y0247549D02*
X0048112Y0248416D01*
X0048112Y0245814D01*
X0047245Y0245814D02*
X0048979Y0245814D01*
X0044732Y0245814D02*
X0044298Y0246247D01*
X0257774Y0156616D02*
X0258575Y0156616D01*
X0258174Y0156616D02*
X0258174Y0154614D01*
X0257774Y0154214D01*
X0257374Y0154214D01*
X0256973Y0154614D01*
X0259736Y0154214D02*
X0261337Y0155815D01*
X0261337Y0156215D01*
X0260937Y0156616D01*
X0260136Y0156616D01*
X0259736Y0156215D01*
X0259736Y0154214D02*
X0261337Y0154214D01*
D13*
X0275823Y0145466D02*
X0275823Y0142964D01*
X0275823Y0143798D02*
X0277074Y0143798D01*
X0277491Y0144215D01*
X0277491Y0145049D01*
X0277074Y0145466D01*
X0275823Y0145466D01*
X0276657Y0143798D02*
X0277491Y0142964D01*
X0278586Y0143381D02*
X0279003Y0142964D01*
X0279837Y0142964D01*
X0280254Y0143381D01*
X0280254Y0143798D01*
X0279837Y0144215D01*
X0278586Y0144215D01*
X0278586Y0143381D01*
X0278586Y0144215D02*
X0279420Y0145049D01*
X0280254Y0145466D01*
X0280762Y0137766D02*
X0279510Y0136515D01*
X0281179Y0136515D01*
X0280762Y0135264D02*
X0280762Y0137766D01*
X0278416Y0137349D02*
X0277999Y0137766D01*
X0277165Y0137766D01*
X0276748Y0137349D01*
X0276748Y0135681D01*
X0277165Y0135264D01*
X0277999Y0135264D01*
X0278416Y0135681D01*
X0247098Y0129814D02*
X0314198Y0129814D01*
X0314298Y0129914D02*
X0314298Y0043314D01*
X0314398Y0043314D01*
X0247298Y0043314D01*
X0247098Y0129814D01*
X0243886Y0133164D02*
X0243886Y0133581D01*
X0245554Y0135249D01*
X0245554Y0135666D01*
X0243886Y0135666D01*
X0242791Y0135249D02*
X0242374Y0135666D01*
X0241540Y0135666D01*
X0241123Y0135249D01*
X0241123Y0133581D01*
X0241540Y0133164D01*
X0242374Y0133164D01*
X0242791Y0133581D01*
X0215560Y0108156D02*
X0215560Y0089971D01*
X0214060Y0088471D01*
X0198237Y0088471D01*
X0198237Y0108156D01*
X0215560Y0108156D01*
X0195654Y0117181D02*
X0195237Y0116764D01*
X0194403Y0116764D01*
X0193986Y0117181D01*
X0193986Y0118015D02*
X0194820Y0118432D01*
X0195237Y0118432D01*
X0195654Y0118015D01*
X0195654Y0117181D01*
X0193986Y0118015D02*
X0193986Y0119266D01*
X0195654Y0119266D01*
X0192891Y0118849D02*
X0192891Y0118015D01*
X0192474Y0117598D01*
X0191223Y0117598D01*
X0191223Y0116764D02*
X0191223Y0119266D01*
X0192474Y0119266D01*
X0192891Y0118849D01*
X0192057Y0117598D02*
X0192891Y0116764D01*
X0190841Y0112566D02*
X0189173Y0112566D01*
X0189173Y0111315D01*
X0190007Y0111732D01*
X0190424Y0111732D01*
X0190841Y0111315D01*
X0190841Y0110481D01*
X0190424Y0110064D01*
X0189590Y0110064D01*
X0189173Y0110481D01*
X0188079Y0110064D02*
X0186410Y0110064D01*
X0188079Y0111732D01*
X0188079Y0112149D01*
X0187662Y0112566D01*
X0186827Y0112566D01*
X0186410Y0112149D01*
X0185316Y0112149D02*
X0185316Y0111315D01*
X0184899Y0110898D01*
X0183648Y0110898D01*
X0184482Y0110898D02*
X0185316Y0110064D01*
X0183648Y0110064D02*
X0183648Y0112566D01*
X0184899Y0112566D01*
X0185316Y0112149D01*
X0168754Y0108349D02*
X0168754Y0107932D01*
X0168337Y0107515D01*
X0168754Y0107098D01*
X0168754Y0106681D01*
X0168337Y0106264D01*
X0167503Y0106264D01*
X0167086Y0106681D01*
X0165991Y0106264D02*
X0165157Y0107098D01*
X0165574Y0107098D02*
X0164323Y0107098D01*
X0164323Y0106264D02*
X0164323Y0108766D01*
X0165574Y0108766D01*
X0165991Y0108349D01*
X0165991Y0107515D01*
X0165574Y0107098D01*
X0167086Y0108349D02*
X0167503Y0108766D01*
X0168337Y0108766D01*
X0168754Y0108349D01*
X0168337Y0107515D02*
X0167920Y0107515D01*
X0162537Y0125864D02*
X0161703Y0125864D01*
X0161286Y0126281D01*
X0162954Y0127949D01*
X0162954Y0126281D01*
X0162537Y0125864D01*
X0161286Y0126281D02*
X0161286Y0127949D01*
X0161703Y0128366D01*
X0162537Y0128366D01*
X0162954Y0127949D01*
X0160191Y0125864D02*
X0158523Y0125864D01*
X0159357Y0125864D02*
X0159357Y0128366D01*
X0158523Y0127532D01*
X0157429Y0127949D02*
X0157012Y0128366D01*
X0156178Y0128366D01*
X0155761Y0127949D01*
X0155761Y0126281D01*
X0156178Y0125864D01*
X0157012Y0125864D01*
X0157429Y0126281D01*
X0179161Y0128281D02*
X0179578Y0127864D01*
X0180412Y0127864D01*
X0180829Y0128281D01*
X0180829Y0130366D01*
X0181923Y0129949D02*
X0182340Y0130366D01*
X0183174Y0130366D01*
X0183591Y0129949D01*
X0183174Y0129115D02*
X0182340Y0129115D01*
X0181923Y0129532D01*
X0181923Y0129949D01*
X0182757Y0130783D02*
X0182757Y0127447D01*
X0182340Y0127864D02*
X0183174Y0127864D01*
X0183591Y0128281D01*
X0183591Y0128698D01*
X0183174Y0129115D01*
X0181923Y0128281D02*
X0182340Y0127864D01*
X0184686Y0128281D02*
X0185103Y0127864D01*
X0185937Y0127864D01*
X0186354Y0128281D01*
X0186354Y0128698D01*
X0185937Y0129115D01*
X0184686Y0129115D01*
X0184686Y0128281D01*
X0184686Y0129115D02*
X0185520Y0129949D01*
X0186354Y0130366D01*
X0179161Y0130366D02*
X0179161Y0128281D01*
X0144441Y0104766D02*
X0142773Y0104766D01*
X0142773Y0103515D01*
X0143607Y0103932D01*
X0144024Y0103932D01*
X0144441Y0103515D01*
X0144441Y0102681D01*
X0144024Y0102264D01*
X0143190Y0102264D01*
X0142773Y0102681D01*
X0141262Y0102681D02*
X0141262Y0104766D01*
X0140845Y0104766D02*
X0141679Y0104766D01*
X0141262Y0102681D02*
X0140845Y0102264D01*
X0140427Y0102264D01*
X0140010Y0102681D01*
X0138916Y0102681D02*
X0138499Y0102264D01*
X0137665Y0102264D01*
X0137248Y0102681D01*
X0137665Y0103515D02*
X0138499Y0103515D01*
X0138916Y0103098D01*
X0138916Y0102681D01*
X0137665Y0103515D02*
X0137248Y0103932D01*
X0137248Y0104349D01*
X0137665Y0104766D01*
X0138499Y0104766D01*
X0138916Y0104349D01*
X0138499Y0094766D02*
X0137665Y0094766D01*
X0137248Y0094349D01*
X0137248Y0093932D01*
X0137665Y0093515D01*
X0138499Y0093515D01*
X0138916Y0093098D01*
X0138916Y0092681D01*
X0138499Y0092264D01*
X0137665Y0092264D01*
X0137248Y0092681D01*
X0138916Y0094349D02*
X0138499Y0094766D01*
X0140845Y0094766D02*
X0141679Y0094766D01*
X0141262Y0094766D02*
X0141262Y0092681D01*
X0140845Y0092264D01*
X0140427Y0092264D01*
X0140010Y0092681D01*
X0142773Y0092264D02*
X0144441Y0093932D01*
X0144441Y0094349D01*
X0144024Y0094766D01*
X0143190Y0094766D01*
X0142773Y0094349D01*
X0142773Y0092264D02*
X0144441Y0092264D01*
X0143307Y0085266D02*
X0143307Y0082764D01*
X0142473Y0082764D02*
X0144141Y0082764D01*
X0142473Y0084432D02*
X0143307Y0085266D01*
X0141379Y0085266D02*
X0140545Y0085266D01*
X0140962Y0085266D02*
X0140962Y0083181D01*
X0140545Y0082764D01*
X0140127Y0082764D01*
X0139710Y0083181D01*
X0138616Y0083181D02*
X0138199Y0082764D01*
X0137365Y0082764D01*
X0136948Y0083181D01*
X0137365Y0084015D02*
X0138199Y0084015D01*
X0138616Y0083598D01*
X0138616Y0083181D01*
X0137365Y0084015D02*
X0136948Y0084432D01*
X0136948Y0084849D01*
X0137365Y0085266D01*
X0138199Y0085266D01*
X0138616Y0084849D01*
X0121041Y0085865D02*
X0119373Y0085865D01*
X0120624Y0087116D01*
X0120624Y0084614D01*
X0121041Y0083016D02*
X0119373Y0083016D01*
X0119373Y0081765D01*
X0120207Y0082182D01*
X0120624Y0082182D01*
X0121041Y0081765D01*
X0121041Y0080931D01*
X0120624Y0080514D01*
X0119790Y0080514D01*
X0119373Y0080931D01*
X0118279Y0080514D02*
X0116610Y0080514D01*
X0118279Y0082182D01*
X0118279Y0082599D01*
X0117862Y0083016D01*
X0117027Y0083016D01*
X0116610Y0082599D01*
X0115516Y0082599D02*
X0115099Y0083016D01*
X0114265Y0083016D01*
X0113848Y0082599D01*
X0113848Y0080931D01*
X0114265Y0080514D01*
X0115099Y0080514D01*
X0115516Y0080931D01*
X0115099Y0084614D02*
X0115516Y0085031D01*
X0115099Y0084614D02*
X0114265Y0084614D01*
X0113848Y0085031D01*
X0113848Y0086699D01*
X0114265Y0087116D01*
X0115099Y0087116D01*
X0115516Y0086699D01*
X0116610Y0086699D02*
X0117027Y0087116D01*
X0117862Y0087116D01*
X0118279Y0086699D01*
X0118279Y0086282D01*
X0117862Y0085865D01*
X0118279Y0085448D01*
X0118279Y0085031D01*
X0117862Y0084614D01*
X0117027Y0084614D01*
X0116610Y0085031D01*
X0117445Y0085865D02*
X0117862Y0085865D01*
X0114741Y0066516D02*
X0113907Y0066099D01*
X0113073Y0065265D01*
X0114324Y0065265D01*
X0114741Y0064848D01*
X0114741Y0064431D01*
X0114324Y0064014D01*
X0113490Y0064014D01*
X0113073Y0064431D01*
X0113073Y0065265D01*
X0111979Y0065682D02*
X0110310Y0064014D01*
X0111979Y0064014D01*
X0111979Y0065682D02*
X0111979Y0066099D01*
X0111562Y0066516D01*
X0110727Y0066516D01*
X0110310Y0066099D01*
X0109216Y0066099D02*
X0108799Y0066516D01*
X0107965Y0066516D01*
X0107548Y0066099D01*
X0107548Y0064431D01*
X0107965Y0064014D01*
X0108799Y0064014D01*
X0109216Y0064431D01*
X0091341Y0057966D02*
X0091341Y0057549D01*
X0089673Y0055881D01*
X0089673Y0055464D01*
X0088579Y0055464D02*
X0086910Y0055464D01*
X0088579Y0057132D01*
X0088579Y0057549D01*
X0088162Y0057966D01*
X0087327Y0057966D01*
X0086910Y0057549D01*
X0085816Y0057549D02*
X0085816Y0056715D01*
X0085399Y0056298D01*
X0084148Y0056298D01*
X0084982Y0056298D02*
X0085816Y0055464D01*
X0084148Y0055464D02*
X0084148Y0057966D01*
X0085399Y0057966D01*
X0085816Y0057549D01*
X0089673Y0057966D02*
X0091341Y0057966D01*
X0075954Y0057914D02*
X0074286Y0057914D01*
X0075954Y0059582D01*
X0075954Y0059999D01*
X0075537Y0060416D01*
X0074703Y0060416D01*
X0074286Y0059999D01*
X0073191Y0059999D02*
X0073191Y0059582D01*
X0072774Y0059165D01*
X0073191Y0058748D01*
X0073191Y0058331D01*
X0072774Y0057914D01*
X0071940Y0057914D01*
X0071523Y0058331D01*
X0070429Y0058331D02*
X0070012Y0057914D01*
X0069178Y0057914D01*
X0068761Y0058331D01*
X0068761Y0059999D01*
X0069178Y0060416D01*
X0070012Y0060416D01*
X0070429Y0059999D01*
X0071523Y0059999D02*
X0071940Y0060416D01*
X0072774Y0060416D01*
X0073191Y0059999D01*
X0072774Y0059165D02*
X0072357Y0059165D01*
X0060386Y0068714D02*
X0060386Y0069131D01*
X0062054Y0070799D01*
X0062054Y0071216D01*
X0060386Y0071216D01*
X0059291Y0070799D02*
X0058874Y0071216D01*
X0058040Y0071216D01*
X0057623Y0070799D01*
X0056529Y0070799D02*
X0056112Y0071216D01*
X0055278Y0071216D01*
X0054861Y0070799D01*
X0054861Y0069131D01*
X0055278Y0068714D01*
X0056112Y0068714D01*
X0056529Y0069131D01*
X0057623Y0068714D02*
X0059291Y0070382D01*
X0059291Y0070799D01*
X0059291Y0068714D02*
X0057623Y0068714D01*
X0057186Y0065566D02*
X0057603Y0065149D01*
X0055935Y0063481D01*
X0056352Y0063064D01*
X0057186Y0063064D01*
X0057603Y0063481D01*
X0057603Y0065149D01*
X0057186Y0065566D02*
X0056352Y0065566D01*
X0055935Y0065149D01*
X0055935Y0063481D01*
X0054841Y0063064D02*
X0053173Y0063064D01*
X0054007Y0063064D02*
X0054007Y0065566D01*
X0053173Y0064732D01*
X0052079Y0065566D02*
X0051245Y0065566D01*
X0051662Y0065566D02*
X0051662Y0063481D01*
X0051245Y0063064D01*
X0050827Y0063064D01*
X0050410Y0063481D01*
X0049316Y0063481D02*
X0048899Y0063064D01*
X0048065Y0063064D01*
X0047648Y0063481D01*
X0048065Y0064315D02*
X0047648Y0064732D01*
X0047648Y0065149D01*
X0048065Y0065566D01*
X0048899Y0065566D01*
X0049316Y0065149D01*
X0048899Y0064315D02*
X0049316Y0063898D01*
X0049316Y0063481D01*
X0048899Y0064315D02*
X0048065Y0064315D01*
X0047665Y0073064D02*
X0047248Y0073481D01*
X0047665Y0073064D02*
X0048499Y0073064D01*
X0048916Y0073481D01*
X0048916Y0073898D01*
X0048499Y0074315D01*
X0047665Y0074315D01*
X0047248Y0074732D01*
X0047248Y0075149D01*
X0047665Y0075566D01*
X0048499Y0075566D01*
X0048916Y0075149D01*
X0050845Y0075566D02*
X0051679Y0075566D01*
X0051262Y0075566D02*
X0051262Y0073481D01*
X0050845Y0073064D01*
X0050427Y0073064D01*
X0050010Y0073481D01*
X0052773Y0073481D02*
X0053190Y0073064D01*
X0054024Y0073064D01*
X0054441Y0073481D01*
X0054441Y0075149D01*
X0054024Y0075566D01*
X0053190Y0075566D01*
X0052773Y0075149D01*
X0052773Y0074732D01*
X0053190Y0074315D01*
X0054441Y0074315D01*
X0054024Y0083564D02*
X0053190Y0083564D01*
X0052773Y0083981D01*
X0052773Y0084398D01*
X0053190Y0084815D01*
X0054024Y0084815D01*
X0054441Y0084398D01*
X0054441Y0083981D01*
X0054024Y0083564D01*
X0054024Y0084815D02*
X0054441Y0085232D01*
X0054441Y0085649D01*
X0054024Y0086066D01*
X0053190Y0086066D01*
X0052773Y0085649D01*
X0052773Y0085232D01*
X0053190Y0084815D01*
X0051679Y0086066D02*
X0050845Y0086066D01*
X0051262Y0086066D02*
X0051262Y0083981D01*
X0050845Y0083564D01*
X0050427Y0083564D01*
X0050010Y0083981D01*
X0048916Y0083981D02*
X0048499Y0083564D01*
X0047665Y0083564D01*
X0047248Y0083981D01*
X0047665Y0084815D02*
X0048499Y0084815D01*
X0048916Y0084398D01*
X0048916Y0083981D01*
X0047665Y0084815D02*
X0047248Y0085232D01*
X0047248Y0085649D01*
X0047665Y0086066D01*
X0048499Y0086066D01*
X0048916Y0085649D01*
X0056361Y0089131D02*
X0056778Y0088714D01*
X0057612Y0088714D01*
X0058029Y0089131D01*
X0059123Y0088714D02*
X0060791Y0090382D01*
X0060791Y0090799D01*
X0060374Y0091216D01*
X0059540Y0091216D01*
X0059123Y0090799D01*
X0058029Y0090799D02*
X0057612Y0091216D01*
X0056778Y0091216D01*
X0056361Y0090799D01*
X0056361Y0089131D01*
X0059123Y0088714D02*
X0060791Y0088714D01*
X0061886Y0089131D02*
X0061886Y0089548D01*
X0062303Y0089965D01*
X0063137Y0089965D01*
X0063554Y0089548D01*
X0063554Y0089131D01*
X0063137Y0088714D01*
X0062303Y0088714D01*
X0061886Y0089131D01*
X0062303Y0089965D02*
X0061886Y0090382D01*
X0061886Y0090799D01*
X0062303Y0091216D01*
X0063137Y0091216D01*
X0063554Y0090799D01*
X0063554Y0090382D01*
X0063137Y0089965D01*
X0054841Y0095649D02*
X0053173Y0093981D01*
X0053173Y0093564D01*
X0051662Y0093981D02*
X0051662Y0096066D01*
X0051245Y0096066D02*
X0052079Y0096066D01*
X0053173Y0096066D02*
X0054841Y0096066D01*
X0054841Y0095649D01*
X0056576Y0098164D02*
X0056576Y0100666D01*
X0055325Y0099415D01*
X0056993Y0099415D01*
X0054231Y0099415D02*
X0053814Y0098998D01*
X0052563Y0098998D01*
X0052563Y0098164D02*
X0052563Y0100666D01*
X0053814Y0100666D01*
X0054231Y0100249D01*
X0054231Y0099415D01*
X0051469Y0100666D02*
X0050634Y0100666D01*
X0051051Y0100666D02*
X0051051Y0098581D01*
X0050634Y0098164D01*
X0050217Y0098164D01*
X0049800Y0098581D01*
X0048899Y0096066D02*
X0048065Y0096066D01*
X0047648Y0095649D01*
X0047648Y0095232D01*
X0048065Y0094815D01*
X0048899Y0094815D01*
X0049316Y0094398D01*
X0049316Y0093981D01*
X0048899Y0093564D01*
X0048065Y0093564D01*
X0047648Y0093981D01*
X0049316Y0095649D02*
X0048899Y0096066D01*
X0050410Y0093981D02*
X0050827Y0093564D01*
X0051245Y0093564D01*
X0051662Y0093981D01*
X0053513Y0105577D02*
X0055181Y0105577D01*
X0055598Y0105994D01*
X0055598Y0106828D01*
X0055181Y0107245D01*
X0055598Y0108339D02*
X0053930Y0110007D01*
X0053513Y0110007D01*
X0053096Y0109590D01*
X0053096Y0108756D01*
X0053513Y0108339D01*
X0053513Y0107245D02*
X0053096Y0106828D01*
X0053096Y0105994D01*
X0053513Y0105577D01*
X0055598Y0108339D02*
X0055598Y0110007D01*
X0055598Y0111101D02*
X0053930Y0112769D01*
X0053513Y0112769D01*
X0053096Y0112352D01*
X0053096Y0111518D01*
X0053513Y0111101D01*
X0055598Y0111101D02*
X0055598Y0112769D01*
X0055281Y0116777D02*
X0053613Y0116777D01*
X0053196Y0117194D01*
X0053196Y0118028D01*
X0053613Y0118445D01*
X0053613Y0119539D02*
X0053196Y0119956D01*
X0053196Y0120790D01*
X0053613Y0121207D01*
X0054030Y0121207D01*
X0054447Y0120790D01*
X0054864Y0121207D01*
X0055281Y0121207D01*
X0055698Y0120790D01*
X0055698Y0119956D01*
X0055281Y0119539D01*
X0055281Y0118445D02*
X0055698Y0118028D01*
X0055698Y0117194D01*
X0055281Y0116777D01*
X0054447Y0120373D02*
X0054447Y0120790D01*
X0054447Y0122301D02*
X0054030Y0123135D01*
X0054030Y0123552D01*
X0054447Y0123969D01*
X0055281Y0123969D01*
X0055698Y0123552D01*
X0055698Y0122718D01*
X0055281Y0122301D01*
X0054447Y0122301D02*
X0053196Y0122301D01*
X0053196Y0123969D01*
X0061996Y0128294D02*
X0062413Y0127877D01*
X0064081Y0127877D01*
X0064498Y0128294D01*
X0064498Y0129128D01*
X0064081Y0129545D01*
X0063247Y0130639D02*
X0063247Y0132307D01*
X0062830Y0133401D02*
X0061996Y0134235D01*
X0064498Y0134235D01*
X0064498Y0133401D02*
X0064498Y0135069D01*
X0066496Y0134152D02*
X0066496Y0133318D01*
X0066913Y0132901D01*
X0068581Y0132901D01*
X0066913Y0134569D01*
X0068581Y0134569D01*
X0068998Y0134152D01*
X0068998Y0133318D01*
X0068581Y0132901D01*
X0067747Y0131807D02*
X0067747Y0130139D01*
X0066496Y0131390D01*
X0068998Y0131390D01*
X0068581Y0129045D02*
X0068998Y0128628D01*
X0068998Y0127794D01*
X0068581Y0127377D01*
X0066913Y0127377D01*
X0066496Y0127794D01*
X0066496Y0128628D01*
X0066913Y0129045D01*
X0064498Y0131890D02*
X0061996Y0131890D01*
X0063247Y0130639D01*
X0062413Y0129545D02*
X0061996Y0129128D01*
X0061996Y0128294D01*
X0067046Y0124452D02*
X0067463Y0124869D01*
X0067880Y0124869D01*
X0068297Y0124452D01*
X0068297Y0123618D01*
X0067880Y0123201D01*
X0067463Y0123201D01*
X0067046Y0123618D01*
X0067046Y0124452D01*
X0068297Y0124452D02*
X0068714Y0124869D01*
X0069131Y0124869D01*
X0069548Y0124452D01*
X0069548Y0123618D01*
X0069131Y0123201D01*
X0068714Y0123201D01*
X0068297Y0123618D01*
X0067880Y0122107D02*
X0067463Y0122107D01*
X0067046Y0121690D01*
X0067046Y0120856D01*
X0067463Y0120439D01*
X0067463Y0119345D02*
X0068297Y0119345D01*
X0068714Y0118928D01*
X0068714Y0117677D01*
X0068714Y0118511D02*
X0069548Y0119345D01*
X0069548Y0120439D02*
X0067880Y0122107D01*
X0069548Y0122107D02*
X0069548Y0120439D01*
X0067463Y0119345D02*
X0067046Y0118928D01*
X0067046Y0117677D01*
X0069548Y0117677D01*
X0069448Y0113669D02*
X0069448Y0112001D01*
X0067780Y0113669D01*
X0067363Y0113669D01*
X0066946Y0113252D01*
X0066946Y0112418D01*
X0067363Y0112001D01*
X0067363Y0110907D02*
X0067780Y0110907D01*
X0068197Y0110490D01*
X0068614Y0110907D01*
X0069031Y0110907D01*
X0069448Y0110490D01*
X0069448Y0109656D01*
X0069031Y0109239D01*
X0069448Y0108145D02*
X0068614Y0107311D01*
X0068614Y0107728D02*
X0068614Y0106477D01*
X0069448Y0106477D02*
X0066946Y0106477D01*
X0066946Y0107728D01*
X0067363Y0108145D01*
X0068197Y0108145D01*
X0068614Y0107728D01*
X0067363Y0109239D02*
X0066946Y0109656D01*
X0066946Y0110490D01*
X0067363Y0110907D01*
X0068197Y0110490D02*
X0068197Y0110073D01*
X0074113Y0118377D02*
X0075781Y0118377D01*
X0076198Y0118794D01*
X0076198Y0119628D01*
X0075781Y0120045D01*
X0075781Y0121139D02*
X0076198Y0121556D01*
X0076198Y0122390D01*
X0075781Y0122807D01*
X0075364Y0122807D01*
X0074947Y0122390D01*
X0074947Y0121973D01*
X0074947Y0122390D02*
X0074530Y0122807D01*
X0074113Y0122807D01*
X0073696Y0122390D01*
X0073696Y0121556D01*
X0074113Y0121139D01*
X0074113Y0120045D02*
X0073696Y0119628D01*
X0073696Y0118794D01*
X0074113Y0118377D01*
X0074113Y0123901D02*
X0073696Y0124318D01*
X0073696Y0125152D01*
X0074113Y0125569D01*
X0075781Y0123901D01*
X0076198Y0124318D01*
X0076198Y0125152D01*
X0075781Y0125569D01*
X0074113Y0125569D01*
X0074113Y0123901D02*
X0075781Y0123901D01*
X0081296Y0126594D02*
X0081713Y0126177D01*
X0083381Y0126177D01*
X0083798Y0126594D01*
X0083798Y0127428D01*
X0083381Y0127845D01*
X0083798Y0128939D02*
X0083798Y0130607D01*
X0083798Y0129773D02*
X0081296Y0129773D01*
X0082130Y0128939D01*
X0081713Y0127845D02*
X0081296Y0127428D01*
X0081296Y0126594D01*
X0081713Y0131701D02*
X0082130Y0131701D01*
X0082547Y0132118D01*
X0082547Y0133369D01*
X0083381Y0133369D02*
X0081713Y0133369D01*
X0081296Y0132952D01*
X0081296Y0132118D01*
X0081713Y0131701D01*
X0083381Y0131701D02*
X0083798Y0132118D01*
X0083798Y0132952D01*
X0083381Y0133369D01*
X0083427Y0139364D02*
X0083010Y0139781D01*
X0083427Y0139364D02*
X0084262Y0139364D01*
X0084679Y0139781D01*
X0084679Y0140198D01*
X0084262Y0140615D01*
X0083845Y0140615D01*
X0084262Y0140615D02*
X0084679Y0141032D01*
X0084679Y0141449D01*
X0084262Y0141866D01*
X0083427Y0141866D01*
X0083010Y0141449D01*
X0081916Y0141449D02*
X0081499Y0141866D01*
X0080665Y0141866D01*
X0080248Y0141449D01*
X0080248Y0139781D01*
X0080665Y0139364D01*
X0081499Y0139364D01*
X0081916Y0139781D01*
X0085773Y0139781D02*
X0086190Y0139364D01*
X0087024Y0139364D01*
X0087441Y0139781D01*
X0087441Y0140198D01*
X0087024Y0140615D01*
X0085773Y0140615D01*
X0085773Y0139781D01*
X0085773Y0140615D02*
X0086607Y0141449D01*
X0087441Y0141866D01*
X0094396Y0133022D02*
X0096898Y0133022D01*
X0096898Y0132188D02*
X0096898Y0133857D01*
X0095230Y0132188D02*
X0094396Y0133022D01*
X0094396Y0130260D02*
X0096898Y0130260D01*
X0096898Y0129426D02*
X0096898Y0131094D01*
X0095230Y0129426D02*
X0094396Y0130260D01*
X0094813Y0128332D02*
X0094396Y0127915D01*
X0094396Y0127081D01*
X0094813Y0126664D01*
X0096481Y0126664D01*
X0096898Y0127081D01*
X0096898Y0127915D01*
X0096481Y0128332D01*
X0099846Y0132777D02*
X0099846Y0134028D01*
X0100263Y0134445D01*
X0101097Y0134445D01*
X0101514Y0134028D01*
X0101514Y0132777D01*
X0101514Y0133611D02*
X0102348Y0134445D01*
X0102348Y0135539D02*
X0100680Y0137207D01*
X0100263Y0137207D01*
X0099846Y0136790D01*
X0099846Y0135956D01*
X0100263Y0135539D01*
X0102348Y0135539D02*
X0102348Y0137207D01*
X0101931Y0138301D02*
X0102348Y0138718D01*
X0102348Y0139552D01*
X0101931Y0139969D01*
X0100263Y0139969D01*
X0099846Y0139552D01*
X0099846Y0138718D01*
X0100263Y0138301D01*
X0100680Y0138301D01*
X0101097Y0138718D01*
X0101097Y0139969D01*
X0104296Y0139335D02*
X0105130Y0138501D01*
X0105130Y0137407D02*
X0104713Y0137407D01*
X0104296Y0136990D01*
X0104296Y0136156D01*
X0104713Y0135739D01*
X0104713Y0134645D02*
X0104296Y0134228D01*
X0104296Y0133394D01*
X0104713Y0132977D01*
X0106381Y0132977D01*
X0106798Y0133394D01*
X0106798Y0134228D01*
X0106381Y0134645D01*
X0106798Y0135739D02*
X0105130Y0137407D01*
X0106798Y0137407D02*
X0106798Y0135739D01*
X0106798Y0138501D02*
X0106798Y0140169D01*
X0106798Y0139335D02*
X0104296Y0139335D01*
X0109648Y0138581D02*
X0110065Y0138164D01*
X0110899Y0138164D01*
X0111316Y0138581D01*
X0111316Y0140666D01*
X0112410Y0140249D02*
X0112827Y0140666D01*
X0113662Y0140666D01*
X0114079Y0140249D01*
X0113662Y0139415D02*
X0112827Y0139415D01*
X0112410Y0139832D01*
X0112410Y0140249D01*
X0113245Y0141083D02*
X0113245Y0137747D01*
X0113662Y0138164D02*
X0114079Y0138581D01*
X0114079Y0138998D01*
X0113662Y0139415D01*
X0113662Y0138164D02*
X0112827Y0138164D01*
X0112410Y0138581D01*
X0109648Y0138581D02*
X0109648Y0140666D01*
X0115173Y0139832D02*
X0116007Y0140666D01*
X0116007Y0138164D01*
X0115173Y0138164D02*
X0116841Y0138164D01*
X0117935Y0138581D02*
X0118352Y0138164D01*
X0119186Y0138164D01*
X0119603Y0138581D01*
X0119603Y0138998D01*
X0119186Y0139415D01*
X0117935Y0139415D01*
X0117935Y0138581D01*
X0117935Y0139415D02*
X0118769Y0140249D01*
X0119603Y0140666D01*
X0123098Y0151814D02*
X0131098Y0151814D01*
X0134409Y0152077D02*
X0134409Y0151243D01*
X0134826Y0150826D01*
X0134826Y0149732D02*
X0134409Y0149315D01*
X0134409Y0148481D01*
X0134826Y0148064D01*
X0136494Y0148064D01*
X0136911Y0148481D01*
X0136911Y0149315D01*
X0136494Y0149732D01*
X0136911Y0150826D02*
X0135243Y0152494D01*
X0134826Y0152494D01*
X0134409Y0152077D01*
X0134826Y0153588D02*
X0134409Y0154005D01*
X0134409Y0154840D01*
X0134826Y0155257D01*
X0135243Y0155257D01*
X0135660Y0154840D01*
X0136077Y0155257D01*
X0136494Y0155257D01*
X0136911Y0154840D01*
X0136911Y0154005D01*
X0136494Y0153588D01*
X0136911Y0152494D02*
X0136911Y0150826D01*
X0135660Y0154422D02*
X0135660Y0154840D01*
X0122141Y0165881D02*
X0122141Y0166298D01*
X0121724Y0166715D01*
X0120473Y0166715D01*
X0120473Y0165881D01*
X0120890Y0165464D01*
X0121724Y0165464D01*
X0122141Y0165881D01*
X0121307Y0167549D02*
X0120473Y0166715D01*
X0119379Y0166715D02*
X0118962Y0166298D01*
X0117710Y0166298D01*
X0117710Y0165464D02*
X0117710Y0167966D01*
X0118962Y0167966D01*
X0119379Y0167549D01*
X0119379Y0166715D01*
X0121307Y0167549D02*
X0122141Y0167966D01*
X0116616Y0167966D02*
X0114948Y0167966D01*
X0115782Y0167966D02*
X0115782Y0165464D01*
X0114624Y0162316D02*
X0113373Y0161065D01*
X0115041Y0161065D01*
X0114624Y0159814D02*
X0114624Y0162316D01*
X0112279Y0161899D02*
X0111862Y0162316D01*
X0111027Y0162316D01*
X0110610Y0161899D01*
X0109516Y0161899D02*
X0109099Y0162316D01*
X0108265Y0162316D01*
X0107848Y0161899D01*
X0107848Y0160231D01*
X0108265Y0159814D01*
X0109099Y0159814D01*
X0109516Y0160231D01*
X0110610Y0159814D02*
X0112279Y0161482D01*
X0112279Y0161899D01*
X0112279Y0159814D02*
X0110610Y0159814D01*
X0112845Y0177547D02*
X0112845Y0180883D01*
X0113262Y0180466D02*
X0112427Y0180466D01*
X0112010Y0180049D01*
X0112010Y0179632D01*
X0112427Y0179215D01*
X0113262Y0179215D01*
X0113679Y0178798D01*
X0113679Y0178381D01*
X0113262Y0177964D01*
X0112427Y0177964D01*
X0112010Y0178381D01*
X0110916Y0178381D02*
X0110916Y0180466D01*
X0109248Y0180466D02*
X0109248Y0178381D01*
X0109665Y0177964D01*
X0110499Y0177964D01*
X0110916Y0178381D01*
X0113262Y0180466D02*
X0113679Y0180049D01*
X0114773Y0179632D02*
X0115607Y0180466D01*
X0115607Y0177964D01*
X0114773Y0177964D02*
X0116441Y0177964D01*
X0117535Y0178381D02*
X0117952Y0177964D01*
X0118786Y0177964D01*
X0119203Y0178381D01*
X0119203Y0178798D01*
X0118786Y0179215D01*
X0118369Y0179215D01*
X0118786Y0179215D02*
X0119203Y0179632D01*
X0119203Y0180049D01*
X0118786Y0180466D01*
X0117952Y0180466D01*
X0117535Y0180049D01*
X0121898Y0190314D02*
X0129898Y0190314D01*
X0133583Y0189801D02*
X0134834Y0189801D01*
X0134417Y0190635D01*
X0134417Y0191052D01*
X0134834Y0191469D01*
X0135668Y0191469D01*
X0136085Y0191052D01*
X0136085Y0190218D01*
X0135668Y0189801D01*
X0136085Y0188707D02*
X0136085Y0187039D01*
X0136085Y0187873D02*
X0133583Y0187873D01*
X0134417Y0187039D01*
X0134000Y0185945D02*
X0133583Y0185528D01*
X0133583Y0184694D01*
X0134000Y0184277D01*
X0135668Y0184277D01*
X0136085Y0184694D01*
X0136085Y0185528D01*
X0135668Y0185945D01*
X0133583Y0189801D02*
X0133583Y0191469D01*
X0133694Y0209464D02*
X0132026Y0209464D01*
X0131609Y0209881D01*
X0131609Y0210715D01*
X0132026Y0211132D01*
X0132443Y0212226D02*
X0131609Y0213060D01*
X0134111Y0213060D01*
X0134111Y0212226D02*
X0134111Y0213894D01*
X0132860Y0214988D02*
X0132860Y0216657D01*
X0131609Y0216240D02*
X0132860Y0214988D01*
X0134111Y0216240D02*
X0131609Y0216240D01*
X0129898Y0214814D02*
X0121898Y0214814D01*
X0115224Y0221814D02*
X0114390Y0221814D01*
X0113973Y0222231D01*
X0113973Y0222648D01*
X0114390Y0223065D01*
X0115224Y0223065D01*
X0115641Y0222648D01*
X0115641Y0222231D01*
X0115224Y0221814D01*
X0115224Y0223065D02*
X0115641Y0223482D01*
X0115641Y0223899D01*
X0115224Y0224316D01*
X0114390Y0224316D01*
X0113973Y0223899D01*
X0113973Y0223482D01*
X0114390Y0223065D01*
X0112879Y0223065D02*
X0111210Y0223065D01*
X0112462Y0224316D01*
X0112462Y0221814D01*
X0110116Y0222231D02*
X0109699Y0221814D01*
X0108865Y0221814D01*
X0108448Y0222231D01*
X0108448Y0223899D01*
X0108865Y0224316D01*
X0109699Y0224316D01*
X0110116Y0223899D01*
X0102941Y0219166D02*
X0102941Y0218749D01*
X0101273Y0217081D01*
X0101273Y0216664D01*
X0100179Y0217915D02*
X0099762Y0217498D01*
X0098510Y0217498D01*
X0098510Y0216664D02*
X0098510Y0219166D01*
X0099762Y0219166D01*
X0100179Y0218749D01*
X0100179Y0217915D01*
X0101273Y0219166D02*
X0102941Y0219166D01*
X0097416Y0219166D02*
X0095748Y0219166D01*
X0096582Y0219166D02*
X0096582Y0216664D01*
X0094841Y0211469D02*
X0094841Y0209801D01*
X0094841Y0210635D02*
X0092339Y0210635D01*
X0093173Y0209801D01*
X0093590Y0208707D02*
X0094007Y0208290D01*
X0094007Y0207039D01*
X0094841Y0207039D02*
X0092339Y0207039D01*
X0092339Y0208290D01*
X0092756Y0208707D01*
X0093590Y0208707D01*
X0092339Y0205945D02*
X0094841Y0205945D01*
X0094841Y0204277D02*
X0092339Y0204277D01*
X0093173Y0205111D01*
X0092339Y0205945D01*
X0092339Y0203182D02*
X0092339Y0202348D01*
X0092339Y0202765D02*
X0094424Y0202765D01*
X0094841Y0202348D01*
X0094841Y0201931D01*
X0094424Y0201514D01*
X0099365Y0196916D02*
X0098948Y0196499D01*
X0098948Y0194831D01*
X0099365Y0194414D01*
X0100199Y0194414D01*
X0100616Y0194831D01*
X0101710Y0194414D02*
X0103379Y0194414D01*
X0102545Y0194414D02*
X0102545Y0196916D01*
X0101710Y0196082D01*
X0100616Y0196499D02*
X0100199Y0196916D01*
X0099365Y0196916D01*
X0104473Y0195665D02*
X0104473Y0194831D01*
X0104890Y0194414D01*
X0105724Y0194414D01*
X0106141Y0194831D01*
X0106141Y0195248D01*
X0105724Y0195665D01*
X0104473Y0195665D01*
X0105307Y0196499D01*
X0106141Y0196916D01*
X0103845Y0205547D02*
X0103845Y0208883D01*
X0104262Y0208466D02*
X0104679Y0208049D01*
X0104262Y0208466D02*
X0103427Y0208466D01*
X0103010Y0208049D01*
X0103010Y0207632D01*
X0103427Y0207215D01*
X0104262Y0207215D01*
X0104679Y0206798D01*
X0104679Y0206381D01*
X0104262Y0205964D01*
X0103427Y0205964D01*
X0103010Y0206381D01*
X0101916Y0206381D02*
X0101916Y0208466D01*
X0100248Y0208466D02*
X0100248Y0206381D01*
X0100665Y0205964D01*
X0101499Y0205964D01*
X0101916Y0206381D01*
X0105773Y0205964D02*
X0107441Y0205964D01*
X0106607Y0205964D02*
X0106607Y0208466D01*
X0105773Y0207632D01*
X0108535Y0208049D02*
X0108952Y0208466D01*
X0109786Y0208466D01*
X0110203Y0208049D01*
X0110203Y0207632D01*
X0108535Y0205964D01*
X0110203Y0205964D01*
X0091548Y0194352D02*
X0091131Y0194769D01*
X0089463Y0194769D01*
X0089046Y0194352D01*
X0089046Y0193518D01*
X0089463Y0193101D01*
X0089880Y0193101D01*
X0090297Y0193518D01*
X0090297Y0194769D01*
X0091548Y0194352D02*
X0091548Y0193518D01*
X0091131Y0193101D01*
X0091548Y0192007D02*
X0090714Y0191173D01*
X0090714Y0191590D02*
X0090714Y0190339D01*
X0091548Y0190339D02*
X0089046Y0190339D01*
X0089046Y0191590D01*
X0089463Y0192007D01*
X0090297Y0192007D01*
X0090714Y0191590D01*
X0097048Y0184766D02*
X0098716Y0184766D01*
X0097882Y0184766D02*
X0097882Y0182264D01*
X0099810Y0182264D02*
X0099810Y0184766D01*
X0101062Y0184766D01*
X0101479Y0184349D01*
X0101479Y0183515D01*
X0101062Y0183098D01*
X0099810Y0183098D01*
X0102573Y0183515D02*
X0103407Y0183932D01*
X0103824Y0183932D01*
X0104241Y0183515D01*
X0104241Y0182681D01*
X0103824Y0182264D01*
X0102990Y0182264D01*
X0102573Y0182681D01*
X0102573Y0183515D02*
X0102573Y0184766D01*
X0104241Y0184766D01*
X0083565Y0180812D02*
X0080229Y0180812D01*
X0080646Y0180395D02*
X0080646Y0181229D01*
X0081063Y0181646D01*
X0081897Y0181229D02*
X0081897Y0180395D01*
X0081480Y0179978D01*
X0081063Y0179978D01*
X0080646Y0180395D01*
X0081897Y0181229D02*
X0082314Y0181646D01*
X0082731Y0181646D01*
X0083148Y0181229D01*
X0083148Y0180395D01*
X0082731Y0179978D01*
X0082731Y0178884D02*
X0080646Y0178884D01*
X0080646Y0177216D02*
X0082731Y0177216D01*
X0083148Y0177633D01*
X0083148Y0178467D01*
X0082731Y0178884D01*
X0082731Y0182740D02*
X0083148Y0183157D01*
X0083148Y0183991D01*
X0082731Y0184409D01*
X0081897Y0184409D01*
X0081480Y0183991D01*
X0081480Y0183574D01*
X0081897Y0182740D01*
X0080646Y0182740D01*
X0080646Y0184409D01*
X0073998Y0164369D02*
X0073998Y0162701D01*
X0072330Y0164369D01*
X0071913Y0164369D01*
X0071496Y0163952D01*
X0071496Y0163118D01*
X0071913Y0162701D01*
X0072747Y0161607D02*
X0072747Y0159939D01*
X0071496Y0161190D01*
X0073998Y0161190D01*
X0073581Y0158845D02*
X0073998Y0158428D01*
X0073998Y0157594D01*
X0073581Y0157177D01*
X0071913Y0157177D01*
X0071496Y0157594D01*
X0071496Y0158428D01*
X0071913Y0158845D01*
X0069248Y0158832D02*
X0068414Y0157998D01*
X0068414Y0158415D02*
X0068414Y0157164D01*
X0069248Y0157164D02*
X0066746Y0157164D01*
X0066746Y0158415D01*
X0067163Y0158832D01*
X0067997Y0158832D01*
X0068414Y0158415D01*
X0067580Y0159926D02*
X0066746Y0160760D01*
X0069248Y0160760D01*
X0069248Y0159926D02*
X0069248Y0161594D01*
X0068831Y0162688D02*
X0067163Y0164357D01*
X0068831Y0164357D01*
X0069248Y0163940D01*
X0069248Y0163105D01*
X0068831Y0162688D01*
X0067163Y0162688D01*
X0066746Y0163105D01*
X0066746Y0163940D01*
X0067163Y0164357D01*
X0058148Y0163940D02*
X0058148Y0163105D01*
X0057731Y0162688D01*
X0056897Y0162688D02*
X0056480Y0163522D01*
X0056480Y0163940D01*
X0056897Y0164357D01*
X0057731Y0164357D01*
X0058148Y0163940D01*
X0056897Y0162688D02*
X0055646Y0162688D01*
X0055646Y0164357D01*
X0056897Y0161594D02*
X0056897Y0159926D01*
X0055646Y0161177D01*
X0058148Y0161177D01*
X0057731Y0158832D02*
X0058148Y0158415D01*
X0058148Y0157581D01*
X0057731Y0157164D01*
X0056063Y0157164D01*
X0055646Y0157581D01*
X0055646Y0158415D01*
X0056063Y0158832D01*
X0066913Y0134569D02*
X0066496Y0134152D01*
X0080798Y0110269D02*
X0080798Y0108601D01*
X0080798Y0109435D02*
X0078296Y0109435D01*
X0079130Y0108601D01*
X0079130Y0107507D02*
X0079547Y0107090D01*
X0079964Y0107507D01*
X0080381Y0107507D01*
X0080798Y0107090D01*
X0080798Y0106256D01*
X0080381Y0105839D01*
X0080381Y0104745D02*
X0080798Y0104328D01*
X0080798Y0103494D01*
X0080381Y0103077D01*
X0078713Y0103077D01*
X0078296Y0103494D01*
X0078296Y0104328D01*
X0078713Y0104745D01*
X0078713Y0105839D02*
X0078296Y0106256D01*
X0078296Y0107090D01*
X0078713Y0107507D01*
X0079130Y0107507D01*
X0079547Y0107090D02*
X0079547Y0106673D01*
X0086146Y0106256D02*
X0086563Y0105839D01*
X0086146Y0106256D02*
X0086146Y0107090D01*
X0086563Y0107507D01*
X0086980Y0107507D01*
X0088648Y0105839D01*
X0088648Y0107507D01*
X0088231Y0108601D02*
X0086563Y0110269D01*
X0088231Y0110269D01*
X0088648Y0109852D01*
X0088648Y0109018D01*
X0088231Y0108601D01*
X0086563Y0108601D01*
X0086146Y0109018D01*
X0086146Y0109852D01*
X0086563Y0110269D01*
X0091596Y0109852D02*
X0091596Y0109018D01*
X0092013Y0108601D01*
X0092430Y0108601D01*
X0092847Y0109018D01*
X0092847Y0110269D01*
X0093681Y0110269D02*
X0092013Y0110269D01*
X0091596Y0109852D01*
X0093681Y0110269D02*
X0094098Y0109852D01*
X0094098Y0109018D01*
X0093681Y0108601D01*
X0094098Y0107507D02*
X0094098Y0105839D01*
X0092430Y0107507D01*
X0092013Y0107507D01*
X0091596Y0107090D01*
X0091596Y0106256D01*
X0092013Y0105839D01*
X0092013Y0104745D02*
X0091596Y0104328D01*
X0091596Y0103494D01*
X0092013Y0103077D01*
X0093681Y0103077D01*
X0094098Y0103494D01*
X0094098Y0104328D01*
X0093681Y0104745D01*
X0088648Y0104745D02*
X0087814Y0103911D01*
X0087814Y0104328D02*
X0087814Y0103077D01*
X0088648Y0103077D02*
X0086146Y0103077D01*
X0086146Y0104328D01*
X0086563Y0104745D01*
X0087397Y0104745D01*
X0087814Y0104328D01*
X0075482Y0100366D02*
X0075482Y0097864D01*
X0074648Y0097864D02*
X0076316Y0097864D01*
X0074648Y0099532D02*
X0075482Y0100366D01*
X0073554Y0100366D02*
X0073554Y0098281D01*
X0073137Y0097864D01*
X0072303Y0097864D01*
X0071886Y0098281D01*
X0071886Y0100366D01*
X0067981Y0082869D02*
X0068398Y0082452D01*
X0068398Y0081618D01*
X0067981Y0081201D01*
X0067981Y0080107D02*
X0068398Y0079690D01*
X0068398Y0078856D01*
X0067981Y0078439D01*
X0067981Y0077345D02*
X0068398Y0076928D01*
X0068398Y0076094D01*
X0067981Y0075677D01*
X0066313Y0075677D01*
X0065896Y0076094D01*
X0065896Y0076928D01*
X0066313Y0077345D01*
X0066313Y0078439D02*
X0065896Y0078856D01*
X0065896Y0079690D01*
X0066313Y0080107D01*
X0066730Y0080107D01*
X0067147Y0079690D01*
X0067564Y0080107D01*
X0067981Y0080107D01*
X0067147Y0079690D02*
X0067147Y0079273D01*
X0066313Y0081201D02*
X0065896Y0081618D01*
X0065896Y0082452D01*
X0066313Y0082869D01*
X0066730Y0082869D01*
X0067147Y0082452D01*
X0067564Y0082869D01*
X0067981Y0082869D01*
X0067147Y0082452D02*
X0067147Y0082035D01*
X0035424Y0054066D02*
X0034173Y0052815D01*
X0035841Y0052815D01*
X0035424Y0051564D02*
X0035424Y0054066D01*
X0033079Y0054066D02*
X0032245Y0054066D01*
X0032662Y0054066D02*
X0032662Y0051981D01*
X0032245Y0051564D01*
X0031827Y0051564D01*
X0031410Y0051981D01*
X0030316Y0051981D02*
X0029899Y0051564D01*
X0029065Y0051564D01*
X0028648Y0051981D01*
X0029065Y0052815D02*
X0029899Y0052815D01*
X0030316Y0052398D01*
X0030316Y0051981D01*
X0029065Y0052815D02*
X0028648Y0053232D01*
X0028648Y0053649D01*
X0029065Y0054066D01*
X0029899Y0054066D01*
X0030316Y0053649D01*
X0039161Y0040166D02*
X0040412Y0040166D01*
X0040829Y0039749D01*
X0040829Y0038915D01*
X0040412Y0038498D01*
X0039161Y0038498D01*
X0039995Y0038498D02*
X0040829Y0037664D01*
X0041923Y0038081D02*
X0042340Y0037664D01*
X0043174Y0037664D01*
X0043591Y0038081D01*
X0043591Y0038498D01*
X0043174Y0038915D01*
X0042757Y0038915D01*
X0043174Y0038915D02*
X0043591Y0039332D01*
X0043591Y0039749D01*
X0043174Y0040166D01*
X0042340Y0040166D01*
X0041923Y0039749D01*
X0039161Y0040166D02*
X0039161Y0037664D01*
X0044686Y0038915D02*
X0046354Y0038915D01*
X0045937Y0040166D02*
X0044686Y0038915D01*
X0045937Y0037664D02*
X0045937Y0040166D01*
X0079448Y0022899D02*
X0079448Y0021231D01*
X0079865Y0020814D01*
X0080699Y0020814D01*
X0081116Y0021231D01*
X0082210Y0020814D02*
X0083879Y0020814D01*
X0083045Y0020814D02*
X0083045Y0023316D01*
X0082210Y0022482D01*
X0081116Y0022899D02*
X0080699Y0023316D01*
X0079865Y0023316D01*
X0079448Y0022899D01*
X0084973Y0022899D02*
X0084973Y0022482D01*
X0085390Y0022065D01*
X0086224Y0022065D01*
X0086641Y0021648D01*
X0086641Y0021231D01*
X0086224Y0020814D01*
X0085390Y0020814D01*
X0084973Y0021231D01*
X0084973Y0021648D01*
X0085390Y0022065D01*
X0086224Y0022065D02*
X0086641Y0022482D01*
X0086641Y0022899D01*
X0086224Y0023316D01*
X0085390Y0023316D01*
X0084973Y0022899D01*
X0091161Y0022499D02*
X0091161Y0020831D01*
X0091578Y0020414D01*
X0092412Y0020414D01*
X0092829Y0020831D01*
X0093923Y0020414D02*
X0095591Y0020414D01*
X0094757Y0020414D02*
X0094757Y0022916D01*
X0093923Y0022082D01*
X0092829Y0022499D02*
X0092412Y0022916D01*
X0091578Y0022916D01*
X0091161Y0022499D01*
X0096686Y0022916D02*
X0098354Y0022916D01*
X0098354Y0022499D01*
X0096686Y0020831D01*
X0096686Y0020414D01*
X0106648Y0020398D02*
X0107899Y0020398D01*
X0108316Y0020815D01*
X0108316Y0021649D01*
X0107899Y0022066D01*
X0106648Y0022066D01*
X0106648Y0019564D01*
X0107482Y0020398D02*
X0108316Y0019564D01*
X0109410Y0019564D02*
X0111079Y0021232D01*
X0111079Y0021649D01*
X0110662Y0022066D01*
X0109827Y0022066D01*
X0109410Y0021649D01*
X0109410Y0019564D02*
X0111079Y0019564D01*
X0112173Y0019981D02*
X0112590Y0019564D01*
X0113424Y0019564D01*
X0113841Y0019981D01*
X0113841Y0020398D01*
X0113424Y0020815D01*
X0112173Y0020815D01*
X0112173Y0019981D01*
X0112173Y0020815D02*
X0113007Y0021649D01*
X0113841Y0022066D01*
X0113124Y0028464D02*
X0112290Y0028464D01*
X0111873Y0028881D01*
X0111873Y0029715D01*
X0113124Y0029715D01*
X0113541Y0029298D01*
X0113541Y0028881D01*
X0113124Y0028464D01*
X0111873Y0029715D02*
X0112707Y0030549D01*
X0113541Y0030966D01*
X0110779Y0030549D02*
X0110779Y0030132D01*
X0110362Y0029715D01*
X0110779Y0029298D01*
X0110779Y0028881D01*
X0110362Y0028464D01*
X0109527Y0028464D01*
X0109110Y0028881D01*
X0108016Y0028464D02*
X0107182Y0029298D01*
X0107599Y0029298D02*
X0106348Y0029298D01*
X0106348Y0028464D02*
X0106348Y0030966D01*
X0107599Y0030966D01*
X0108016Y0030549D01*
X0108016Y0029715D01*
X0107599Y0029298D01*
X0109110Y0030549D02*
X0109527Y0030966D01*
X0110362Y0030966D01*
X0110779Y0030549D01*
X0110362Y0029715D02*
X0109945Y0029715D01*
X0137161Y0016166D02*
X0137161Y0013664D01*
X0137161Y0014498D02*
X0138412Y0014498D01*
X0138829Y0014915D01*
X0138829Y0015749D01*
X0138412Y0016166D01*
X0137161Y0016166D01*
X0137995Y0014498D02*
X0138829Y0013664D01*
X0139923Y0013664D02*
X0141591Y0015332D01*
X0141591Y0015749D01*
X0141174Y0016166D01*
X0140340Y0016166D01*
X0139923Y0015749D01*
X0139923Y0013664D02*
X0141591Y0013664D01*
X0142686Y0013664D02*
X0144354Y0015332D01*
X0144354Y0015749D01*
X0143937Y0016166D01*
X0143103Y0016166D01*
X0142686Y0015749D01*
X0142686Y0013664D02*
X0144354Y0013664D01*
X0149648Y0028264D02*
X0149648Y0030766D01*
X0150899Y0030766D01*
X0151316Y0030349D01*
X0151316Y0029515D01*
X0150899Y0029098D01*
X0149648Y0029098D01*
X0150482Y0029098D02*
X0151316Y0028264D01*
X0152410Y0028681D02*
X0152827Y0028264D01*
X0153662Y0028264D01*
X0154079Y0028681D01*
X0154079Y0029098D01*
X0153662Y0029515D01*
X0153245Y0029515D01*
X0153662Y0029515D02*
X0154079Y0029932D01*
X0154079Y0030349D01*
X0153662Y0030766D01*
X0152827Y0030766D01*
X0152410Y0030349D01*
X0155173Y0030766D02*
X0156841Y0030766D01*
X0156841Y0030349D01*
X0155173Y0028681D01*
X0155173Y0028264D01*
X0160848Y0031981D02*
X0160848Y0033649D01*
X0161265Y0034066D01*
X0162099Y0034066D01*
X0162516Y0033649D01*
X0162516Y0031981D01*
X0162099Y0031564D01*
X0161265Y0031564D01*
X0160848Y0031981D01*
X0161682Y0032398D02*
X0162516Y0031564D01*
X0163610Y0031564D02*
X0165279Y0033232D01*
X0165279Y0033649D01*
X0164862Y0034066D01*
X0164027Y0034066D01*
X0163610Y0033649D01*
X0163610Y0031564D02*
X0165279Y0031564D01*
X0166348Y0041264D02*
X0166348Y0043766D01*
X0167599Y0043766D01*
X0168016Y0043349D01*
X0168016Y0042515D01*
X0167599Y0042098D01*
X0166348Y0042098D01*
X0167182Y0042098D02*
X0168016Y0041264D01*
X0169110Y0041264D02*
X0170779Y0042932D01*
X0170779Y0043349D01*
X0170362Y0043766D01*
X0169527Y0043766D01*
X0169110Y0043349D01*
X0169110Y0041264D02*
X0170779Y0041264D01*
X0171873Y0042515D02*
X0173541Y0042515D01*
X0173124Y0043766D02*
X0171873Y0042515D01*
X0173124Y0041264D02*
X0173124Y0043766D01*
X0182548Y0034349D02*
X0182965Y0034766D01*
X0183799Y0034766D01*
X0184216Y0034349D01*
X0184216Y0032681D01*
X0183799Y0032264D01*
X0182965Y0032264D01*
X0182548Y0032681D01*
X0182548Y0034349D01*
X0183382Y0033098D02*
X0184216Y0032264D01*
X0185310Y0032264D02*
X0186979Y0032264D01*
X0186145Y0032264D02*
X0186145Y0034766D01*
X0185310Y0033932D01*
X0201161Y0035264D02*
X0201161Y0037766D01*
X0202412Y0037766D01*
X0202829Y0037349D01*
X0202829Y0036515D01*
X0202412Y0036098D01*
X0201161Y0036098D01*
X0201995Y0036098D02*
X0202829Y0035264D01*
X0203923Y0035264D02*
X0205591Y0035264D01*
X0204757Y0035264D02*
X0204757Y0037766D01*
X0203923Y0036932D01*
X0206686Y0036515D02*
X0207937Y0036515D01*
X0208354Y0036098D01*
X0208354Y0035681D01*
X0207937Y0035264D01*
X0207103Y0035264D01*
X0206686Y0035681D01*
X0206686Y0036515D01*
X0207520Y0037349D01*
X0208354Y0037766D01*
X0214370Y0031419D02*
X0214787Y0031419D01*
X0215204Y0031002D01*
X0215621Y0031419D01*
X0216038Y0031419D01*
X0216455Y0031002D01*
X0216455Y0030168D01*
X0216038Y0029751D01*
X0215204Y0030585D02*
X0215204Y0031002D01*
X0214370Y0031419D02*
X0213953Y0031002D01*
X0213953Y0030168D01*
X0214370Y0029751D01*
X0214370Y0028657D02*
X0215204Y0028657D01*
X0215621Y0028240D01*
X0215621Y0026988D01*
X0216455Y0026988D02*
X0213953Y0026988D01*
X0213953Y0028240D01*
X0214370Y0028657D01*
X0213953Y0025894D02*
X0216455Y0025894D01*
X0216455Y0024226D02*
X0213953Y0024226D01*
X0214787Y0025060D01*
X0213953Y0025894D01*
X0213953Y0023132D02*
X0213953Y0022298D01*
X0213953Y0022715D02*
X0216038Y0022715D01*
X0216455Y0022298D01*
X0216455Y0021881D01*
X0216038Y0021464D01*
X0207954Y0016066D02*
X0206286Y0016066D01*
X0206286Y0014815D01*
X0207120Y0015232D01*
X0207537Y0015232D01*
X0207954Y0014815D01*
X0207954Y0013981D01*
X0207537Y0013564D01*
X0206703Y0013564D01*
X0206286Y0013981D01*
X0205191Y0013564D02*
X0203523Y0013564D01*
X0204357Y0013564D02*
X0204357Y0016066D01*
X0203523Y0015232D01*
X0202429Y0015649D02*
X0202429Y0014815D01*
X0202012Y0014398D01*
X0200761Y0014398D01*
X0201595Y0014398D02*
X0202429Y0013564D01*
X0200761Y0013564D02*
X0200761Y0016066D01*
X0202012Y0016066D01*
X0202429Y0015649D01*
X0194750Y0018414D02*
X0193171Y0018414D01*
X0192544Y0012914D02*
X0176052Y0012914D01*
X0175425Y0018414D02*
X0173846Y0018414D01*
X0183171Y0018414D02*
X0185425Y0018414D01*
X0176052Y0012914D02*
X0175899Y0013113D01*
X0175751Y0013315D01*
X0175608Y0013520D01*
X0175470Y0013729D01*
X0175337Y0013941D01*
X0175209Y0014156D01*
X0175087Y0014374D01*
X0174969Y0014595D01*
X0174857Y0014819D01*
X0174750Y0015045D01*
X0174649Y0015274D01*
X0174553Y0015505D01*
X0174462Y0015739D01*
X0174377Y0015974D01*
X0174298Y0016212D01*
X0174225Y0016451D01*
X0174157Y0016692D01*
X0174095Y0016934D01*
X0174039Y0017178D01*
X0173988Y0017424D01*
X0173944Y0017670D01*
X0173905Y0017917D01*
X0173873Y0018165D01*
X0173846Y0018414D01*
X0173824Y0018669D01*
X0173809Y0018925D01*
X0173801Y0019181D01*
X0173798Y0019438D01*
X0173802Y0019694D01*
X0173812Y0019950D01*
X0173828Y0020206D01*
X0173850Y0020461D01*
X0173879Y0020716D01*
X0173914Y0020970D01*
X0173955Y0021223D01*
X0174002Y0021475D01*
X0174056Y0021725D01*
X0174115Y0021974D01*
X0174181Y0022222D01*
X0174252Y0022468D01*
X0174330Y0022713D01*
X0174413Y0022955D01*
X0174502Y0023195D01*
X0174598Y0023433D01*
X0174699Y0023669D01*
X0174805Y0023902D01*
X0174918Y0024132D01*
X0175036Y0024360D01*
X0175159Y0024584D01*
X0175288Y0024806D01*
X0175422Y0025024D01*
X0175562Y0025239D01*
X0175707Y0025450D01*
X0175857Y0025658D01*
X0176011Y0025862D01*
X0176171Y0026063D01*
X0176336Y0026259D01*
X0176505Y0026451D01*
X0176680Y0026640D01*
X0176858Y0026823D01*
X0177041Y0027003D01*
X0177229Y0027178D01*
X0177420Y0027348D01*
X0177616Y0027513D01*
X0177816Y0027674D01*
X0178019Y0027830D01*
X0178226Y0027980D01*
X0178437Y0028126D01*
X0178652Y0028267D01*
X0178869Y0028402D01*
X0179090Y0028532D01*
X0179314Y0028656D01*
X0179541Y0028775D01*
X0179771Y0028888D01*
X0180004Y0028996D01*
X0180239Y0029098D01*
X0180477Y0029194D01*
X0180716Y0029284D01*
X0180958Y0029369D01*
X0181202Y0029447D01*
X0187394Y0029447D02*
X0187636Y0029369D01*
X0187876Y0029285D01*
X0188114Y0029196D01*
X0188350Y0029101D01*
X0188584Y0028999D01*
X0188815Y0028893D01*
X0189043Y0028780D01*
X0189269Y0028663D01*
X0189492Y0028540D01*
X0189711Y0028411D01*
X0189928Y0028277D01*
X0190141Y0028138D01*
X0190351Y0027994D01*
X0190557Y0027845D01*
X0190759Y0027691D01*
X0190958Y0027532D01*
X0191153Y0027368D01*
X0191344Y0027199D01*
X0191530Y0027026D01*
X0191713Y0026849D01*
X0191891Y0026667D01*
X0192064Y0026481D01*
X0192233Y0026290D01*
X0192397Y0026096D01*
X0192557Y0025898D01*
X0192712Y0025696D01*
X0192861Y0025490D01*
X0193006Y0025281D01*
X0193146Y0025068D01*
X0193280Y0024852D01*
X0193409Y0024632D01*
X0193533Y0024410D01*
X0193652Y0024185D01*
X0193764Y0023957D01*
X0193872Y0023726D01*
X0193973Y0023493D01*
X0194069Y0023257D01*
X0194160Y0023019D01*
X0194244Y0022779D01*
X0194323Y0022537D01*
X0194396Y0022293D01*
X0194462Y0022047D01*
X0194523Y0021800D01*
X0194578Y0021552D01*
X0194627Y0021302D01*
X0194670Y0021051D01*
X0194706Y0020799D01*
X0194737Y0020547D01*
X0194761Y0020293D01*
X0194779Y0020040D01*
X0194791Y0019785D01*
X0194797Y0019531D01*
X0194797Y0019276D01*
X0194791Y0019022D01*
X0194778Y0018768D01*
X0194759Y0018514D01*
X0194734Y0018261D01*
X0194703Y0018008D01*
X0194666Y0017756D01*
X0194623Y0017506D01*
X0194574Y0017256D01*
X0194518Y0017007D01*
X0194457Y0016760D01*
X0194390Y0016515D01*
X0194317Y0016271D01*
X0194238Y0016029D01*
X0194153Y0015790D01*
X0194062Y0015552D01*
X0193965Y0015316D01*
X0193863Y0015083D01*
X0193755Y0014853D01*
X0193642Y0014625D01*
X0193523Y0014400D01*
X0193399Y0014178D01*
X0193269Y0013959D01*
X0193135Y0013743D01*
X0192995Y0013530D01*
X0192849Y0013321D01*
X0192699Y0013116D01*
X0192544Y0012914D01*
X0224382Y0033364D02*
X0224382Y0035866D01*
X0223548Y0035866D02*
X0225216Y0035866D01*
X0226310Y0035866D02*
X0226310Y0033364D01*
X0226310Y0034198D02*
X0227562Y0034198D01*
X0227979Y0034615D01*
X0227979Y0035449D01*
X0227562Y0035866D01*
X0226310Y0035866D01*
X0229073Y0035032D02*
X0229907Y0035866D01*
X0229907Y0033364D01*
X0229073Y0033364D02*
X0230741Y0033364D01*
X0208337Y0084364D02*
X0208337Y0086866D01*
X0207086Y0085615D01*
X0208754Y0085615D01*
X0205991Y0085198D02*
X0205574Y0085615D01*
X0204740Y0085615D01*
X0204323Y0086032D01*
X0204323Y0086449D01*
X0204740Y0086866D01*
X0205574Y0086866D01*
X0205991Y0086449D01*
X0205157Y0087283D02*
X0205157Y0083947D01*
X0204740Y0084364D02*
X0205574Y0084364D01*
X0205991Y0084781D01*
X0205991Y0085198D01*
X0204740Y0084364D02*
X0204323Y0084781D01*
X0203229Y0084781D02*
X0203229Y0086866D01*
X0201561Y0086866D02*
X0201561Y0084781D01*
X0201978Y0084364D01*
X0202812Y0084364D01*
X0203229Y0084781D01*
X0158824Y0044466D02*
X0157573Y0043215D01*
X0159241Y0043215D01*
X0158824Y0041964D02*
X0158824Y0044466D01*
X0155645Y0044466D02*
X0155645Y0041964D01*
X0156479Y0041964D02*
X0154810Y0041964D01*
X0153716Y0041964D02*
X0152882Y0042798D01*
X0153299Y0042798D02*
X0152048Y0042798D01*
X0152048Y0041964D02*
X0152048Y0044466D01*
X0153299Y0044466D01*
X0153716Y0044049D01*
X0153716Y0043215D01*
X0153299Y0042798D01*
X0154810Y0043632D02*
X0155645Y0044466D01*
X0144354Y0045381D02*
X0144354Y0047049D01*
X0143937Y0047466D01*
X0143103Y0047466D01*
X0142686Y0047049D01*
X0142686Y0046632D01*
X0143103Y0046215D01*
X0144354Y0046215D01*
X0144354Y0045381D02*
X0143937Y0044964D01*
X0143103Y0044964D01*
X0142686Y0045381D01*
X0141591Y0045381D02*
X0141174Y0044964D01*
X0140340Y0044964D01*
X0139923Y0045381D01*
X0138829Y0044964D02*
X0137995Y0045798D01*
X0138412Y0045798D02*
X0137161Y0045798D01*
X0137161Y0044964D02*
X0137161Y0047466D01*
X0138412Y0047466D01*
X0138829Y0047049D01*
X0138829Y0046215D01*
X0138412Y0045798D01*
X0139923Y0047049D02*
X0140340Y0047466D01*
X0141174Y0047466D01*
X0141591Y0047049D01*
X0141591Y0046632D01*
X0141174Y0046215D01*
X0141591Y0045798D01*
X0141591Y0045381D01*
X0141174Y0046215D02*
X0140757Y0046215D01*
X0141565Y0058864D02*
X0141148Y0059281D01*
X0141565Y0058864D02*
X0142399Y0058864D01*
X0142816Y0059281D01*
X0142816Y0059698D01*
X0142399Y0060115D01*
X0141565Y0060115D01*
X0141148Y0060532D01*
X0141148Y0060949D01*
X0141565Y0061366D01*
X0142399Y0061366D01*
X0142816Y0060949D01*
X0144745Y0061366D02*
X0145579Y0061366D01*
X0145162Y0061366D02*
X0145162Y0059281D01*
X0144745Y0058864D01*
X0144327Y0058864D01*
X0143910Y0059281D01*
X0146673Y0059281D02*
X0147090Y0058864D01*
X0147924Y0058864D01*
X0148341Y0059281D01*
X0148341Y0059698D01*
X0147924Y0060115D01*
X0146673Y0060115D01*
X0146673Y0059281D01*
X0146673Y0060115D02*
X0147507Y0060949D01*
X0148341Y0061366D01*
X0106281Y0103377D02*
X0104613Y0103377D01*
X0104196Y0103794D01*
X0104196Y0104628D01*
X0104613Y0105045D01*
X0104613Y0106139D02*
X0104196Y0106556D01*
X0104196Y0107390D01*
X0104613Y0107807D01*
X0105030Y0107807D01*
X0106698Y0106139D01*
X0106698Y0107807D01*
X0106281Y0108901D02*
X0104613Y0110569D01*
X0106281Y0110569D01*
X0106698Y0110152D01*
X0106698Y0109318D01*
X0106281Y0108901D01*
X0104613Y0108901D01*
X0104196Y0109318D01*
X0104196Y0110152D01*
X0104613Y0110569D01*
X0102048Y0110152D02*
X0102048Y0109318D01*
X0101631Y0108901D01*
X0099963Y0110569D01*
X0101631Y0110569D01*
X0102048Y0110152D01*
X0101631Y0108901D02*
X0099963Y0108901D01*
X0099546Y0109318D01*
X0099546Y0110152D01*
X0099963Y0110569D01*
X0099963Y0107807D02*
X0100380Y0107807D01*
X0100797Y0107390D01*
X0101214Y0107807D01*
X0101631Y0107807D01*
X0102048Y0107390D01*
X0102048Y0106556D01*
X0101631Y0106139D01*
X0102048Y0105045D02*
X0101214Y0104211D01*
X0101214Y0104628D02*
X0101214Y0103377D01*
X0102048Y0103377D02*
X0099546Y0103377D01*
X0099546Y0104628D01*
X0099963Y0105045D01*
X0100797Y0105045D01*
X0101214Y0104628D01*
X0099963Y0106139D02*
X0099546Y0106556D01*
X0099546Y0107390D01*
X0099963Y0107807D01*
X0100797Y0107390D02*
X0100797Y0106973D01*
X0106281Y0105045D02*
X0106698Y0104628D01*
X0106698Y0103794D01*
X0106281Y0103377D01*
X0102348Y0132777D02*
X0099846Y0132777D01*
X0035341Y0118066D02*
X0035341Y0117649D01*
X0033673Y0115981D01*
X0033673Y0115564D01*
X0032579Y0115981D02*
X0032162Y0115564D01*
X0031327Y0115564D01*
X0030910Y0115981D01*
X0029816Y0115981D02*
X0029399Y0115564D01*
X0028565Y0115564D01*
X0028148Y0115981D01*
X0028148Y0117649D01*
X0028565Y0118066D01*
X0029399Y0118066D01*
X0029816Y0117649D01*
X0030910Y0117649D02*
X0031327Y0118066D01*
X0032162Y0118066D01*
X0032579Y0117649D01*
X0032579Y0117232D01*
X0032162Y0116815D01*
X0032579Y0116398D01*
X0032579Y0115981D01*
X0032162Y0116815D02*
X0031745Y0116815D01*
X0033673Y0118066D02*
X0035341Y0118066D01*
X0133694Y0209464D02*
X0134111Y0209881D01*
X0134111Y0210715D01*
X0133694Y0211132D01*
X0137382Y0211564D02*
X0137382Y0214066D01*
X0136548Y0214066D02*
X0138216Y0214066D01*
X0139310Y0214066D02*
X0140562Y0214066D01*
X0140979Y0213649D01*
X0140979Y0212815D01*
X0140562Y0212398D01*
X0139310Y0212398D01*
X0139310Y0211564D02*
X0139310Y0214066D01*
X0142073Y0212815D02*
X0143741Y0212815D01*
X0143324Y0214066D02*
X0142073Y0212815D01*
X0143324Y0211564D02*
X0143324Y0214066D01*
X0139337Y0225664D02*
X0138503Y0225664D01*
X0138086Y0226081D01*
X0138086Y0226498D01*
X0138503Y0226915D01*
X0139337Y0226915D01*
X0139754Y0226498D01*
X0139754Y0226081D01*
X0139337Y0225664D01*
X0139337Y0226915D02*
X0139754Y0227332D01*
X0139754Y0227749D01*
X0139337Y0228166D01*
X0138503Y0228166D01*
X0138086Y0227749D01*
X0138086Y0227332D01*
X0138503Y0226915D01*
X0136991Y0226915D02*
X0136574Y0226498D01*
X0135323Y0226498D01*
X0135323Y0225664D02*
X0135323Y0228166D01*
X0136574Y0228166D01*
X0136991Y0227749D01*
X0136991Y0226915D01*
X0134229Y0228166D02*
X0132561Y0228166D01*
X0133395Y0228166D02*
X0133395Y0225664D01*
X0133603Y0236564D02*
X0133186Y0236981D01*
X0133603Y0236564D02*
X0134437Y0236564D01*
X0134854Y0236981D01*
X0134854Y0238649D01*
X0134437Y0239066D01*
X0133603Y0239066D01*
X0133186Y0238649D01*
X0133186Y0238232D01*
X0133603Y0237815D01*
X0134854Y0237815D01*
X0132091Y0238649D02*
X0131674Y0239066D01*
X0130840Y0239066D01*
X0130423Y0238649D01*
X0130423Y0236981D01*
X0130840Y0236564D01*
X0131674Y0236564D01*
X0132091Y0236981D01*
X0106454Y0237964D02*
X0104786Y0237964D01*
X0106454Y0239632D01*
X0106454Y0240049D01*
X0106037Y0240466D01*
X0105203Y0240466D01*
X0104786Y0240049D01*
X0102857Y0240466D02*
X0102857Y0237964D01*
X0102023Y0237964D02*
X0103691Y0237964D01*
X0102023Y0239632D02*
X0102857Y0240466D01*
X0100929Y0240049D02*
X0100512Y0240466D01*
X0099678Y0240466D01*
X0099261Y0240049D01*
X0099261Y0238381D01*
X0099678Y0237964D01*
X0100512Y0237964D01*
X0100929Y0238381D01*
X0082198Y0236314D02*
X0070398Y0236314D01*
X0056898Y0236314D01*
X0043398Y0236314D01*
X0036898Y0236314D01*
X0036898Y0216314D01*
X0024698Y0216214D02*
X0024698Y0236314D01*
X0036898Y0236314D01*
X0024698Y0216214D02*
X0082198Y0216214D01*
X0082198Y0236314D01*
X0224848Y0266381D02*
X0225265Y0265964D01*
X0226099Y0265964D01*
X0226516Y0266381D01*
X0227610Y0265964D02*
X0229279Y0267632D01*
X0229279Y0268049D01*
X0228862Y0268466D01*
X0228027Y0268466D01*
X0227610Y0268049D01*
X0226516Y0268049D02*
X0226099Y0268466D01*
X0225265Y0268466D01*
X0224848Y0268049D01*
X0224848Y0266381D01*
X0227610Y0265964D02*
X0229279Y0265964D01*
X0247098Y0282314D02*
X0314198Y0282314D01*
X0314298Y0282414D02*
X0314298Y0195814D01*
X0314398Y0195814D01*
X0247298Y0195814D01*
X0247098Y0282314D01*
X0245824Y0219366D02*
X0244990Y0219366D01*
X0244573Y0218949D01*
X0244573Y0218532D01*
X0244990Y0218115D01*
X0246241Y0218115D01*
X0246241Y0218949D02*
X0245824Y0219366D01*
X0246241Y0218949D02*
X0246241Y0217281D01*
X0245824Y0216864D01*
X0244990Y0216864D01*
X0244573Y0217281D01*
X0243479Y0218115D02*
X0243062Y0217698D01*
X0241810Y0217698D01*
X0241810Y0216864D02*
X0241810Y0219366D01*
X0243062Y0219366D01*
X0243479Y0218949D01*
X0243479Y0218115D01*
X0240716Y0219366D02*
X0239048Y0219366D01*
X0239882Y0219366D02*
X0239882Y0216864D01*
X0312305Y0154466D02*
X0312305Y0152381D01*
X0312722Y0151964D01*
X0313556Y0151964D01*
X0313973Y0152381D01*
X0313973Y0154466D01*
X0315067Y0154049D02*
X0315484Y0154466D01*
X0316318Y0154466D01*
X0316735Y0154049D01*
X0316318Y0153215D02*
X0315484Y0153215D01*
X0315067Y0153632D01*
X0315067Y0154049D01*
X0315901Y0154883D02*
X0315901Y0151547D01*
X0316318Y0151964D02*
X0316735Y0152381D01*
X0316735Y0152798D01*
X0316318Y0153215D01*
X0316318Y0151964D02*
X0315484Y0151964D01*
X0315067Y0152381D01*
X0317829Y0152381D02*
X0318246Y0151964D01*
X0319080Y0151964D01*
X0319497Y0152381D01*
X0319497Y0154049D01*
X0319080Y0154466D01*
X0318246Y0154466D01*
X0317829Y0154049D01*
X0317829Y0153632D01*
X0318246Y0153215D01*
X0319497Y0153215D01*
X0318799Y0106466D02*
X0317965Y0106466D01*
X0317548Y0106049D01*
X0317548Y0105632D01*
X0317965Y0105215D01*
X0318799Y0105215D01*
X0319216Y0104798D01*
X0319216Y0104381D01*
X0318799Y0103964D01*
X0317965Y0103964D01*
X0317548Y0104381D01*
X0319216Y0106049D02*
X0318799Y0106466D01*
X0321145Y0106466D02*
X0321979Y0106466D01*
X0321562Y0106466D02*
X0321562Y0104381D01*
X0321145Y0103964D01*
X0320727Y0103964D01*
X0320310Y0104381D01*
X0323073Y0104381D02*
X0323490Y0103964D01*
X0324324Y0103964D01*
X0324741Y0104381D01*
X0324741Y0104798D01*
X0324324Y0105215D01*
X0323907Y0105215D01*
X0324324Y0105215D02*
X0324741Y0105632D01*
X0324741Y0106049D01*
X0324324Y0106466D01*
X0323490Y0106466D01*
X0323073Y0106049D01*
X0323024Y0091466D02*
X0323441Y0091049D01*
X0323441Y0090632D01*
X0323024Y0090215D01*
X0323441Y0089798D01*
X0323441Y0089381D01*
X0323024Y0088964D01*
X0322190Y0088964D01*
X0321773Y0089381D01*
X0320679Y0088964D02*
X0319010Y0088964D01*
X0319845Y0088964D02*
X0319845Y0091466D01*
X0319010Y0090632D01*
X0317916Y0091049D02*
X0317499Y0091466D01*
X0316665Y0091466D01*
X0316248Y0091049D01*
X0316248Y0089381D01*
X0316665Y0088964D01*
X0317499Y0088964D01*
X0317916Y0089381D01*
X0321773Y0091049D02*
X0322190Y0091466D01*
X0323024Y0091466D01*
X0323024Y0090215D02*
X0322607Y0090215D01*
X0322690Y0073466D02*
X0323524Y0073466D01*
X0323941Y0073049D01*
X0323941Y0072632D01*
X0323524Y0072215D01*
X0323941Y0071798D01*
X0323941Y0071381D01*
X0323524Y0070964D01*
X0322690Y0070964D01*
X0322273Y0071381D01*
X0321179Y0070964D02*
X0319510Y0070964D01*
X0321179Y0072632D01*
X0321179Y0073049D01*
X0320762Y0073466D01*
X0319927Y0073466D01*
X0319510Y0073049D01*
X0318416Y0073049D02*
X0318416Y0072215D01*
X0317999Y0071798D01*
X0316748Y0071798D01*
X0317582Y0071798D02*
X0318416Y0070964D01*
X0316748Y0070964D02*
X0316748Y0073466D01*
X0317999Y0073466D01*
X0318416Y0073049D01*
X0322273Y0073049D02*
X0322690Y0073466D01*
X0323107Y0072215D02*
X0323524Y0072215D01*
D14*
X0309198Y0174064D03*
X0104398Y0263064D03*
D15*
X0078335Y0258865D02*
X0078335Y0250597D01*
X0075579Y0250597D01*
X0057075Y0250597D02*
X0036209Y0250597D01*
X0036209Y0286030D01*
X0078335Y0286030D01*
X0078335Y0277763D01*
X0122749Y0223156D02*
X0121174Y0221581D01*
X0121174Y0217251D01*
X0122749Y0223156D02*
X0129048Y0223156D01*
X0130623Y0221581D01*
X0130623Y0217251D01*
X0130623Y0209377D02*
X0130623Y0203471D01*
X0121174Y0203471D01*
X0121174Y0209377D01*
X0122749Y0198656D02*
X0121174Y0197081D01*
X0121174Y0192751D01*
X0122749Y0198656D02*
X0129048Y0198656D01*
X0130623Y0197081D01*
X0130623Y0192751D01*
X0130623Y0184877D02*
X0130623Y0178971D01*
X0121174Y0178971D01*
X0121174Y0184877D01*
X0123949Y0160156D02*
X0122374Y0158581D01*
X0122374Y0154251D01*
X0123949Y0160156D02*
X0130248Y0160156D01*
X0131823Y0158581D01*
X0131823Y0154251D01*
X0131823Y0146377D02*
X0131823Y0140471D01*
X0122374Y0140471D01*
X0122374Y0146377D01*
X0153465Y0171263D02*
X0159398Y0171263D01*
X0209398Y0171263D02*
X0215331Y0171263D01*
X0254087Y0167940D02*
X0254087Y0183688D01*
X0269835Y0191562D02*
X0283615Y0191562D01*
X0283615Y0188412D01*
X0273772Y0188412D01*
X0273772Y0183688D01*
X0273772Y0167940D02*
X0273772Y0163215D01*
X0283615Y0163215D01*
X0283615Y0160066D01*
X0269835Y0160066D01*
X0304086Y0150370D02*
X0304086Y0147220D01*
X0304086Y0150370D02*
X0306449Y0150370D01*
X0312748Y0150370D02*
X0315110Y0150370D01*
X0315110Y0147220D01*
X0316567Y0140074D02*
X0316567Y0135153D01*
X0313141Y0135153D02*
X0306055Y0135153D01*
X0306055Y0140074D02*
X0313141Y0140074D01*
X0299359Y0212270D02*
X0299359Y0219357D01*
X0299359Y0222782D02*
X0294438Y0222782D01*
X0294438Y0219357D02*
X0294438Y0212270D01*
X0294438Y0226345D02*
X0299359Y0226345D01*
X0299359Y0229770D02*
X0299359Y0236857D01*
X0294438Y0236857D02*
X0294438Y0229770D01*
X0220331Y0245034D02*
X0220331Y0272656D01*
X0148465Y0272656D01*
X0148465Y0245034D01*
X0064810Y0053470D02*
X0064810Y0050320D01*
X0064810Y0053470D02*
X0062448Y0053470D01*
X0056149Y0053470D02*
X0053786Y0053470D01*
X0053786Y0050320D01*
X0274398Y0033314D02*
X0274398Y0018314D01*
X0276898Y0015814D01*
X0281898Y0015814D01*
X0284398Y0018314D01*
X0284398Y0033314D01*
X0281898Y0035814D01*
X0276898Y0035814D01*
X0274398Y0033314D01*
X0284398Y0033314D02*
X0286898Y0035814D01*
X0291898Y0035814D01*
X0294398Y0033314D01*
X0294398Y0018314D01*
X0291898Y0015814D01*
X0286898Y0015814D01*
X0284398Y0018314D01*
X0294398Y0018314D02*
X0296898Y0015814D01*
X0301898Y0015814D01*
X0304398Y0018314D01*
X0304398Y0033314D01*
X0301898Y0035814D01*
X0296898Y0035814D01*
X0294398Y0033314D01*
X0296898Y0037133D02*
X0301898Y0037133D01*
D16*
X0126298Y0081594D02*
X0126298Y0081834D01*
X0126298Y0086094D02*
X0126298Y0086334D01*
X0110798Y0061534D02*
X0110798Y0061294D01*
X0100498Y0048914D02*
X0077498Y0048914D01*
X0072798Y0054994D02*
X0072798Y0055234D01*
X0077498Y0048914D02*
X0077279Y0048911D01*
X0077060Y0048903D01*
X0076841Y0048890D01*
X0076623Y0048871D01*
X0076405Y0048847D01*
X0076188Y0048818D01*
X0075971Y0048784D01*
X0075756Y0048744D01*
X0075541Y0048699D01*
X0075328Y0048648D01*
X0075116Y0048593D01*
X0074905Y0048532D01*
X0074696Y0048467D01*
X0074489Y0048396D01*
X0074283Y0048320D01*
X0074079Y0048239D01*
X0073877Y0048154D01*
X0073678Y0048063D01*
X0073481Y0047968D01*
X0073286Y0047867D01*
X0073093Y0047762D01*
X0072903Y0047653D01*
X0072716Y0047539D01*
X0072532Y0047420D01*
X0072351Y0047297D01*
X0072173Y0047169D01*
X0071997Y0047037D01*
X0071826Y0046901D01*
X0071657Y0046761D01*
X0071492Y0046617D01*
X0071331Y0046469D01*
X0071173Y0046317D01*
X0071019Y0046161D01*
X0070869Y0046001D01*
X0070722Y0045838D01*
X0070580Y0045671D01*
X0070442Y0045501D01*
X0070308Y0045327D01*
X0070178Y0045151D01*
X0070053Y0044971D01*
X0069932Y0044788D01*
X0069816Y0044602D01*
X0069704Y0044414D01*
X0069597Y0044223D01*
X0069494Y0044029D01*
X0069396Y0043833D01*
X0069303Y0043635D01*
X0069215Y0043434D01*
X0069132Y0043231D01*
X0069053Y0043026D01*
X0068980Y0042820D01*
X0068912Y0042612D01*
X0068849Y0042402D01*
X0068791Y0042190D01*
X0068738Y0041978D01*
X0068690Y0041764D01*
X0068648Y0041549D01*
X0068611Y0041333D01*
X0068579Y0041116D01*
X0068552Y0040898D01*
X0068531Y0040680D01*
X0068515Y0040462D01*
X0068504Y0040243D01*
X0068499Y0040024D01*
X0068499Y0039804D01*
X0068504Y0039585D01*
X0068515Y0039366D01*
X0068531Y0039148D01*
X0068552Y0038930D01*
X0068579Y0038712D01*
X0068611Y0038495D01*
X0068648Y0038279D01*
X0068690Y0038064D01*
X0068738Y0037850D01*
X0068791Y0037638D01*
X0068849Y0037426D01*
X0068912Y0037216D01*
X0068980Y0037008D01*
X0069053Y0036802D01*
X0069132Y0036597D01*
X0069215Y0036394D01*
X0069303Y0036193D01*
X0069396Y0035995D01*
X0069494Y0035799D01*
X0069597Y0035605D01*
X0069704Y0035414D01*
X0069816Y0035226D01*
X0069932Y0035040D01*
X0070053Y0034857D01*
X0070178Y0034677D01*
X0070308Y0034501D01*
X0070442Y0034327D01*
X0070580Y0034157D01*
X0070722Y0033990D01*
X0070869Y0033827D01*
X0071019Y0033667D01*
X0071173Y0033511D01*
X0071331Y0033359D01*
X0071492Y0033211D01*
X0071657Y0033067D01*
X0071826Y0032927D01*
X0071997Y0032791D01*
X0072173Y0032659D01*
X0072351Y0032531D01*
X0072532Y0032408D01*
X0072716Y0032289D01*
X0072903Y0032175D01*
X0073093Y0032066D01*
X0073286Y0031961D01*
X0073481Y0031860D01*
X0073678Y0031765D01*
X0073877Y0031674D01*
X0074079Y0031589D01*
X0074283Y0031508D01*
X0074489Y0031432D01*
X0074696Y0031361D01*
X0074905Y0031296D01*
X0075116Y0031235D01*
X0075328Y0031180D01*
X0075541Y0031129D01*
X0075756Y0031084D01*
X0075971Y0031044D01*
X0076188Y0031010D01*
X0076405Y0030981D01*
X0076623Y0030957D01*
X0076841Y0030938D01*
X0077060Y0030925D01*
X0077279Y0030917D01*
X0077498Y0030914D01*
X0100498Y0030914D01*
X0095698Y0026634D02*
X0095698Y0026394D01*
X0083598Y0026394D02*
X0083598Y0026634D01*
X0100498Y0030914D02*
X0100717Y0030917D01*
X0100936Y0030925D01*
X0101155Y0030938D01*
X0101373Y0030957D01*
X0101591Y0030981D01*
X0101808Y0031010D01*
X0102025Y0031044D01*
X0102240Y0031084D01*
X0102455Y0031129D01*
X0102668Y0031180D01*
X0102880Y0031235D01*
X0103091Y0031296D01*
X0103300Y0031361D01*
X0103507Y0031432D01*
X0103713Y0031508D01*
X0103917Y0031589D01*
X0104119Y0031674D01*
X0104318Y0031765D01*
X0104515Y0031860D01*
X0104710Y0031961D01*
X0104903Y0032066D01*
X0105093Y0032175D01*
X0105280Y0032289D01*
X0105464Y0032408D01*
X0105645Y0032531D01*
X0105823Y0032659D01*
X0105999Y0032791D01*
X0106170Y0032927D01*
X0106339Y0033067D01*
X0106504Y0033211D01*
X0106665Y0033359D01*
X0106823Y0033511D01*
X0106977Y0033667D01*
X0107127Y0033827D01*
X0107274Y0033990D01*
X0107416Y0034157D01*
X0107554Y0034327D01*
X0107688Y0034501D01*
X0107818Y0034677D01*
X0107943Y0034857D01*
X0108064Y0035040D01*
X0108180Y0035226D01*
X0108292Y0035414D01*
X0108399Y0035605D01*
X0108502Y0035799D01*
X0108600Y0035995D01*
X0108693Y0036193D01*
X0108781Y0036394D01*
X0108864Y0036597D01*
X0108943Y0036802D01*
X0109016Y0037008D01*
X0109084Y0037216D01*
X0109147Y0037426D01*
X0109205Y0037638D01*
X0109258Y0037850D01*
X0109306Y0038064D01*
X0109348Y0038279D01*
X0109385Y0038495D01*
X0109417Y0038712D01*
X0109444Y0038930D01*
X0109465Y0039148D01*
X0109481Y0039366D01*
X0109492Y0039585D01*
X0109497Y0039804D01*
X0109497Y0040024D01*
X0109492Y0040243D01*
X0109481Y0040462D01*
X0109465Y0040680D01*
X0109444Y0040898D01*
X0109417Y0041116D01*
X0109385Y0041333D01*
X0109348Y0041549D01*
X0109306Y0041764D01*
X0109258Y0041978D01*
X0109205Y0042190D01*
X0109147Y0042402D01*
X0109084Y0042612D01*
X0109016Y0042820D01*
X0108943Y0043026D01*
X0108864Y0043231D01*
X0108781Y0043434D01*
X0108693Y0043635D01*
X0108600Y0043833D01*
X0108502Y0044029D01*
X0108399Y0044223D01*
X0108292Y0044414D01*
X0108180Y0044602D01*
X0108064Y0044788D01*
X0107943Y0044971D01*
X0107818Y0045151D01*
X0107688Y0045327D01*
X0107554Y0045501D01*
X0107416Y0045671D01*
X0107274Y0045838D01*
X0107127Y0046001D01*
X0106977Y0046161D01*
X0106823Y0046317D01*
X0106665Y0046469D01*
X0106504Y0046617D01*
X0106339Y0046761D01*
X0106170Y0046901D01*
X0105999Y0047037D01*
X0105823Y0047169D01*
X0105645Y0047297D01*
X0105464Y0047420D01*
X0105280Y0047539D01*
X0105093Y0047653D01*
X0104903Y0047762D01*
X0104710Y0047867D01*
X0104515Y0047968D01*
X0104318Y0048063D01*
X0104119Y0048154D01*
X0103917Y0048239D01*
X0103713Y0048320D01*
X0103507Y0048396D01*
X0103300Y0048467D01*
X0103091Y0048532D01*
X0102880Y0048593D01*
X0102668Y0048648D01*
X0102455Y0048699D01*
X0102240Y0048744D01*
X0102025Y0048784D01*
X0101808Y0048818D01*
X0101591Y0048847D01*
X0101373Y0048871D01*
X0101155Y0048890D01*
X0100936Y0048903D01*
X0100717Y0048911D01*
X0100498Y0048914D01*
X0059398Y0074094D02*
X0059398Y0074334D01*
X0059798Y0081094D02*
X0059798Y0081334D01*
X0059798Y0085594D02*
X0059798Y0085834D01*
X0058418Y0110714D02*
X0058178Y0110714D01*
X0058178Y0122714D02*
X0058418Y0122714D01*
X0074678Y0113214D02*
X0074918Y0113214D01*
X0079178Y0115714D02*
X0079418Y0115714D01*
X0092678Y0115814D02*
X0092918Y0115814D01*
X0105178Y0115714D02*
X0105418Y0115714D01*
X0105418Y0127614D02*
X0105178Y0127614D01*
X0091418Y0130214D02*
X0091178Y0130214D01*
X0086918Y0130214D02*
X0086678Y0130214D01*
X0068118Y0140414D02*
X0067878Y0140414D01*
X0063118Y0140414D02*
X0062878Y0140414D01*
X0072878Y0152314D02*
X0073118Y0152314D01*
X0043018Y0175314D02*
X0042778Y0175314D01*
X0048678Y0204914D02*
X0048918Y0204914D01*
X0059278Y0207314D02*
X0059518Y0207314D01*
X0110898Y0218694D02*
X0110898Y0218934D01*
X0111398Y0195934D02*
X0111398Y0195694D01*
X0111098Y0156934D02*
X0111098Y0156694D01*
D17*
X0057018Y0150814D02*
X0056778Y0150814D01*
X0046518Y0150814D02*
X0046278Y0150814D01*
D18*
X0214398Y0085814D03*
D19*
X0077650Y0171814D02*
X0077650Y0189814D01*
X0051150Y0189814D01*
X0051150Y0171814D01*
X0077650Y0171814D01*
D20*
X0074298Y0094464D02*
X0074020Y0094432D01*
X0073756Y0094340D01*
X0074840Y0094340D01*
X0074576Y0094432D01*
X0074298Y0094464D01*
X0074258Y0094459D02*
X0074338Y0094459D01*
X0074414Y0094451D02*
X0074182Y0094451D01*
X0074107Y0094442D02*
X0074489Y0094442D01*
X0074565Y0094434D02*
X0074031Y0094434D01*
X0073999Y0094425D02*
X0074597Y0094425D01*
X0074621Y0094417D02*
X0073975Y0094417D01*
X0073951Y0094408D02*
X0074646Y0094408D01*
X0074670Y0094400D02*
X0073926Y0094400D01*
X0073902Y0094391D02*
X0074694Y0094391D01*
X0074719Y0094383D02*
X0073878Y0094383D01*
X0073853Y0094374D02*
X0074743Y0094374D01*
X0074767Y0094366D02*
X0073829Y0094366D01*
X0073805Y0094357D02*
X0074792Y0094357D01*
X0074816Y0094349D02*
X0073780Y0094349D01*
X0073756Y0094340D02*
X0073519Y0094191D01*
X0073321Y0093993D01*
X0073172Y0093756D01*
X0073079Y0093492D01*
X0073048Y0093214D01*
X0073079Y0092936D01*
X0073172Y0092671D01*
X0075424Y0092671D01*
X0075517Y0092936D01*
X0075548Y0093214D01*
X0075517Y0093492D01*
X0075424Y0093756D01*
X0075275Y0093993D01*
X0075077Y0094191D01*
X0074840Y0094340D01*
X0074854Y0094332D02*
X0073742Y0094332D01*
X0073729Y0094323D02*
X0074867Y0094323D01*
X0074881Y0094314D02*
X0073715Y0094314D01*
X0073702Y0094306D02*
X0074895Y0094306D01*
X0074908Y0094297D02*
X0073688Y0094297D01*
X0073675Y0094289D02*
X0074922Y0094289D01*
X0074935Y0094280D02*
X0073661Y0094280D01*
X0073647Y0094272D02*
X0074949Y0094272D01*
X0074962Y0094263D02*
X0073634Y0094263D01*
X0073620Y0094255D02*
X0074976Y0094255D01*
X0074989Y0094246D02*
X0073607Y0094246D01*
X0073593Y0094238D02*
X0075003Y0094238D01*
X0075017Y0094229D02*
X0073580Y0094229D01*
X0073566Y0094221D02*
X0075030Y0094221D01*
X0075044Y0094212D02*
X0073553Y0094212D01*
X0073539Y0094204D02*
X0075057Y0094204D01*
X0075071Y0094195D02*
X0073526Y0094195D01*
X0073515Y0094187D02*
X0075082Y0094187D01*
X0075090Y0094178D02*
X0073506Y0094178D01*
X0073497Y0094170D02*
X0075099Y0094170D01*
X0075107Y0094161D02*
X0073489Y0094161D01*
X0073480Y0094153D02*
X0075116Y0094153D01*
X0075124Y0094144D02*
X0073472Y0094144D01*
X0073463Y0094136D02*
X0075133Y0094136D01*
X0075141Y0094127D02*
X0073455Y0094127D01*
X0073446Y0094119D02*
X0075150Y0094119D01*
X0075158Y0094110D02*
X0073438Y0094110D01*
X0073429Y0094102D02*
X0075167Y0094102D01*
X0075175Y0094093D02*
X0073421Y0094093D01*
X0073412Y0094085D02*
X0075184Y0094085D01*
X0075192Y0094076D02*
X0073404Y0094076D01*
X0073395Y0094068D02*
X0075201Y0094068D01*
X0075209Y0094059D02*
X0073387Y0094059D01*
X0073378Y0094051D02*
X0075218Y0094051D01*
X0075226Y0094042D02*
X0073370Y0094042D01*
X0073361Y0094034D02*
X0075235Y0094034D01*
X0075244Y0094025D02*
X0073353Y0094025D01*
X0073344Y0094016D02*
X0075252Y0094016D01*
X0075261Y0094008D02*
X0073336Y0094008D01*
X0073327Y0093999D02*
X0075269Y0093999D01*
X0075277Y0093991D02*
X0073320Y0093991D01*
X0073314Y0093982D02*
X0075282Y0093982D01*
X0075287Y0093974D02*
X0073309Y0093974D01*
X0073303Y0093965D02*
X0075293Y0093965D01*
X0075298Y0093957D02*
X0073298Y0093957D01*
X0073293Y0093948D02*
X0075304Y0093948D01*
X0075309Y0093940D02*
X0073287Y0093940D01*
X0073282Y0093931D02*
X0075314Y0093931D01*
X0075320Y0093923D02*
X0073277Y0093923D01*
X0073271Y0093914D02*
X0075325Y0093914D01*
X0075330Y0093906D02*
X0073266Y0093906D01*
X0073261Y0093897D02*
X0075336Y0093897D01*
X0075341Y0093889D02*
X0073255Y0093889D01*
X0073250Y0093880D02*
X0075346Y0093880D01*
X0075352Y0093872D02*
X0073245Y0093872D01*
X0073239Y0093863D02*
X0075357Y0093863D01*
X0075362Y0093855D02*
X0073234Y0093855D01*
X0073229Y0093846D02*
X0075368Y0093846D01*
X0075373Y0093838D02*
X0073223Y0093838D01*
X0073218Y0093829D02*
X0075378Y0093829D01*
X0075384Y0093821D02*
X0073213Y0093821D01*
X0073207Y0093812D02*
X0075389Y0093812D01*
X0075394Y0093804D02*
X0073202Y0093804D01*
X0073196Y0093795D02*
X0075400Y0093795D01*
X0075405Y0093787D02*
X0073191Y0093787D01*
X0073186Y0093778D02*
X0075411Y0093778D01*
X0075416Y0093770D02*
X0073180Y0093770D01*
X0073175Y0093761D02*
X0075421Y0093761D01*
X0075426Y0093753D02*
X0073171Y0093753D01*
X0073168Y0093744D02*
X0075429Y0093744D01*
X0075432Y0093736D02*
X0073165Y0093736D01*
X0073162Y0093727D02*
X0075435Y0093727D01*
X0075438Y0093719D02*
X0073159Y0093719D01*
X0073156Y0093710D02*
X0075440Y0093710D01*
X0075443Y0093701D02*
X0073153Y0093701D01*
X0073150Y0093693D02*
X0075446Y0093693D01*
X0075449Y0093684D02*
X0073147Y0093684D01*
X0073144Y0093676D02*
X0075452Y0093676D01*
X0075455Y0093667D02*
X0073141Y0093667D01*
X0073138Y0093659D02*
X0075458Y0093659D01*
X0075461Y0093650D02*
X0073135Y0093650D01*
X0073132Y0093642D02*
X0075464Y0093642D01*
X0075467Y0093633D02*
X0073129Y0093633D01*
X0073126Y0093625D02*
X0075470Y0093625D01*
X0075473Y0093616D02*
X0073123Y0093616D01*
X0073120Y0093608D02*
X0075476Y0093608D01*
X0075479Y0093599D02*
X0073117Y0093599D01*
X0073114Y0093591D02*
X0075482Y0093591D01*
X0075485Y0093582D02*
X0073111Y0093582D01*
X0073108Y0093574D02*
X0075488Y0093574D01*
X0075491Y0093565D02*
X0073105Y0093565D01*
X0073102Y0093557D02*
X0075494Y0093557D01*
X0075497Y0093548D02*
X0073099Y0093548D01*
X0073096Y0093540D02*
X0075500Y0093540D01*
X0075503Y0093531D02*
X0073093Y0093531D01*
X0073090Y0093523D02*
X0075506Y0093523D01*
X0075509Y0093514D02*
X0073087Y0093514D01*
X0073084Y0093506D02*
X0075512Y0093506D01*
X0075515Y0093497D02*
X0073081Y0093497D01*
X0073079Y0093489D02*
X0075517Y0093489D01*
X0075518Y0093480D02*
X0073078Y0093480D01*
X0073077Y0093472D02*
X0075519Y0093472D01*
X0075520Y0093463D02*
X0073076Y0093463D01*
X0073075Y0093455D02*
X0075521Y0093455D01*
X0075522Y0093446D02*
X0073074Y0093446D01*
X0073073Y0093438D02*
X0075523Y0093438D01*
X0075524Y0093429D02*
X0073072Y0093429D01*
X0073071Y0093421D02*
X0075525Y0093421D01*
X0075526Y0093412D02*
X0073070Y0093412D01*
X0073070Y0093404D02*
X0075527Y0093404D01*
X0075528Y0093395D02*
X0073069Y0093395D01*
X0073068Y0093386D02*
X0075529Y0093386D01*
X0075530Y0093378D02*
X0073067Y0093378D01*
X0073066Y0093369D02*
X0075531Y0093369D01*
X0075532Y0093361D02*
X0073065Y0093361D01*
X0073064Y0093352D02*
X0075533Y0093352D01*
X0075533Y0093344D02*
X0073063Y0093344D01*
X0073062Y0093335D02*
X0075534Y0093335D01*
X0075535Y0093327D02*
X0073061Y0093327D01*
X0073060Y0093318D02*
X0075536Y0093318D01*
X0075537Y0093310D02*
X0073059Y0093310D01*
X0073058Y0093301D02*
X0075538Y0093301D01*
X0075539Y0093293D02*
X0073057Y0093293D01*
X0073056Y0093284D02*
X0075540Y0093284D01*
X0075541Y0093276D02*
X0073055Y0093276D01*
X0073054Y0093267D02*
X0075542Y0093267D01*
X0075543Y0093259D02*
X0073053Y0093259D01*
X0073052Y0093250D02*
X0075544Y0093250D01*
X0075545Y0093242D02*
X0073051Y0093242D01*
X0073050Y0093233D02*
X0075546Y0093233D01*
X0075547Y0093225D02*
X0073049Y0093225D01*
X0073048Y0093216D02*
X0075548Y0093216D01*
X0075547Y0093208D02*
X0073049Y0093208D01*
X0073050Y0093199D02*
X0075546Y0093199D01*
X0075546Y0093191D02*
X0073051Y0093191D01*
X0073052Y0093182D02*
X0075545Y0093182D01*
X0075544Y0093174D02*
X0073053Y0093174D01*
X0073054Y0093165D02*
X0075543Y0093165D01*
X0075542Y0093157D02*
X0073055Y0093157D01*
X0073056Y0093148D02*
X0075541Y0093148D01*
X0075540Y0093140D02*
X0073056Y0093140D01*
X0073057Y0093131D02*
X0075539Y0093131D01*
X0075538Y0093123D02*
X0073058Y0093123D01*
X0073059Y0093114D02*
X0075537Y0093114D01*
X0075536Y0093106D02*
X0073060Y0093106D01*
X0073061Y0093097D02*
X0075535Y0093097D01*
X0075534Y0093088D02*
X0073062Y0093088D01*
X0073063Y0093080D02*
X0075533Y0093080D01*
X0075532Y0093071D02*
X0073064Y0093071D01*
X0073065Y0093063D02*
X0075531Y0093063D01*
X0075530Y0093054D02*
X0073066Y0093054D01*
X0073067Y0093046D02*
X0075529Y0093046D01*
X0075528Y0093037D02*
X0073068Y0093037D01*
X0073069Y0093029D02*
X0075527Y0093029D01*
X0075526Y0093020D02*
X0073070Y0093020D01*
X0073071Y0093012D02*
X0075525Y0093012D01*
X0075524Y0093003D02*
X0073072Y0093003D01*
X0073073Y0092995D02*
X0075523Y0092995D01*
X0075523Y0092986D02*
X0073074Y0092986D01*
X0073075Y0092978D02*
X0075522Y0092978D01*
X0075521Y0092969D02*
X0073076Y0092969D01*
X0073077Y0092961D02*
X0075520Y0092961D01*
X0075519Y0092952D02*
X0073078Y0092952D01*
X0073079Y0092944D02*
X0075518Y0092944D01*
X0075517Y0092935D02*
X0073080Y0092935D01*
X0073083Y0092927D02*
X0075514Y0092927D01*
X0075511Y0092918D02*
X0073086Y0092918D01*
X0073089Y0092910D02*
X0075508Y0092910D01*
X0075505Y0092901D02*
X0073091Y0092901D01*
X0073094Y0092893D02*
X0075502Y0092893D01*
X0075499Y0092884D02*
X0073097Y0092884D01*
X0073100Y0092876D02*
X0075496Y0092876D01*
X0075493Y0092867D02*
X0073103Y0092867D01*
X0073106Y0092859D02*
X0075490Y0092859D01*
X0075487Y0092850D02*
X0073109Y0092850D01*
X0073112Y0092842D02*
X0075484Y0092842D01*
X0075481Y0092833D02*
X0073115Y0092833D01*
X0073118Y0092825D02*
X0075478Y0092825D01*
X0075475Y0092816D02*
X0073121Y0092816D01*
X0073124Y0092808D02*
X0075472Y0092808D01*
X0075469Y0092799D02*
X0073127Y0092799D01*
X0073130Y0092791D02*
X0075466Y0092791D01*
X0075463Y0092782D02*
X0073133Y0092782D01*
X0073136Y0092773D02*
X0075460Y0092773D01*
X0075457Y0092765D02*
X0073139Y0092765D01*
X0073142Y0092756D02*
X0075454Y0092756D01*
X0075451Y0092748D02*
X0073145Y0092748D01*
X0073148Y0092739D02*
X0075448Y0092739D01*
X0075445Y0092731D02*
X0073151Y0092731D01*
X0073154Y0092722D02*
X0075442Y0092722D01*
X0075439Y0092714D02*
X0073157Y0092714D01*
X0073160Y0092705D02*
X0075436Y0092705D01*
X0075433Y0092697D02*
X0073163Y0092697D01*
X0073166Y0092688D02*
X0075430Y0092688D01*
X0075427Y0092680D02*
X0073169Y0092680D01*
X0073172Y0092671D02*
X0073321Y0092434D01*
X0073519Y0092236D01*
X0073756Y0092088D01*
X0074020Y0091995D01*
X0074298Y0091964D01*
X0074576Y0091995D01*
X0074840Y0092088D01*
X0075077Y0092236D01*
X0075275Y0092434D01*
X0075424Y0092671D01*
X0075419Y0092663D02*
X0073177Y0092663D01*
X0073183Y0092654D02*
X0075414Y0092654D01*
X0075408Y0092646D02*
X0073188Y0092646D01*
X0073193Y0092637D02*
X0075403Y0092637D01*
X0075398Y0092629D02*
X0073199Y0092629D01*
X0073204Y0092620D02*
X0075392Y0092620D01*
X0075387Y0092612D02*
X0073209Y0092612D01*
X0073215Y0092603D02*
X0075381Y0092603D01*
X0075376Y0092595D02*
X0073220Y0092595D01*
X0073225Y0092586D02*
X0075371Y0092586D01*
X0075365Y0092578D02*
X0073231Y0092578D01*
X0073236Y0092569D02*
X0075360Y0092569D01*
X0075355Y0092561D02*
X0073241Y0092561D01*
X0073247Y0092552D02*
X0075349Y0092552D01*
X0075344Y0092544D02*
X0073252Y0092544D01*
X0073258Y0092535D02*
X0075339Y0092535D01*
X0075333Y0092527D02*
X0073263Y0092527D01*
X0073268Y0092518D02*
X0075328Y0092518D01*
X0075323Y0092510D02*
X0073274Y0092510D01*
X0073279Y0092501D02*
X0075317Y0092501D01*
X0075312Y0092493D02*
X0073284Y0092493D01*
X0073290Y0092484D02*
X0075307Y0092484D01*
X0075301Y0092476D02*
X0073295Y0092476D01*
X0073300Y0092467D02*
X0075296Y0092467D01*
X0075291Y0092458D02*
X0073306Y0092458D01*
X0073311Y0092450D02*
X0075285Y0092450D01*
X0075280Y0092441D02*
X0073316Y0092441D01*
X0073322Y0092433D02*
X0075274Y0092433D01*
X0075265Y0092424D02*
X0073331Y0092424D01*
X0073339Y0092416D02*
X0075257Y0092416D01*
X0075248Y0092407D02*
X0073348Y0092407D01*
X0073356Y0092399D02*
X0075240Y0092399D01*
X0075231Y0092390D02*
X0073365Y0092390D01*
X0073373Y0092382D02*
X0075223Y0092382D01*
X0075214Y0092373D02*
X0073382Y0092373D01*
X0073390Y0092365D02*
X0075206Y0092365D01*
X0075197Y0092356D02*
X0073399Y0092356D01*
X0073407Y0092348D02*
X0075189Y0092348D01*
X0075180Y0092339D02*
X0073416Y0092339D01*
X0073424Y0092331D02*
X0075172Y0092331D01*
X0075163Y0092322D02*
X0073433Y0092322D01*
X0073441Y0092314D02*
X0075155Y0092314D01*
X0075146Y0092305D02*
X0073450Y0092305D01*
X0073459Y0092297D02*
X0075138Y0092297D01*
X0075129Y0092288D02*
X0073467Y0092288D01*
X0073476Y0092280D02*
X0075121Y0092280D01*
X0075112Y0092271D02*
X0073484Y0092271D01*
X0073493Y0092263D02*
X0075104Y0092263D01*
X0075095Y0092254D02*
X0073501Y0092254D01*
X0073510Y0092246D02*
X0075087Y0092246D01*
X0075078Y0092237D02*
X0073518Y0092237D01*
X0073531Y0092229D02*
X0075065Y0092229D01*
X0075051Y0092220D02*
X0073545Y0092220D01*
X0073558Y0092212D02*
X0075038Y0092212D01*
X0075024Y0092203D02*
X0073572Y0092203D01*
X0073585Y0092195D02*
X0075011Y0092195D01*
X0074997Y0092186D02*
X0073599Y0092186D01*
X0073613Y0092178D02*
X0074984Y0092178D01*
X0074970Y0092169D02*
X0073626Y0092169D01*
X0073640Y0092160D02*
X0074957Y0092160D01*
X0074943Y0092152D02*
X0073653Y0092152D01*
X0073667Y0092143D02*
X0074930Y0092143D01*
X0074916Y0092135D02*
X0073680Y0092135D01*
X0073694Y0092126D02*
X0074902Y0092126D01*
X0074889Y0092118D02*
X0073707Y0092118D01*
X0073721Y0092109D02*
X0074875Y0092109D01*
X0074862Y0092101D02*
X0073734Y0092101D01*
X0073748Y0092092D02*
X0074848Y0092092D01*
X0074830Y0092084D02*
X0073766Y0092084D01*
X0073791Y0092075D02*
X0074806Y0092075D01*
X0074781Y0092067D02*
X0073815Y0092067D01*
X0073839Y0092058D02*
X0074757Y0092058D01*
X0074733Y0092050D02*
X0073864Y0092050D01*
X0073888Y0092041D02*
X0074708Y0092041D01*
X0074684Y0092033D02*
X0073912Y0092033D01*
X0073937Y0092024D02*
X0074660Y0092024D01*
X0074635Y0092016D02*
X0073961Y0092016D01*
X0073985Y0092007D02*
X0074611Y0092007D01*
X0074587Y0091999D02*
X0074010Y0091999D01*
X0074063Y0091990D02*
X0074533Y0091990D01*
X0074458Y0091982D02*
X0074139Y0091982D01*
X0074214Y0091973D02*
X0074382Y0091973D01*
X0074306Y0091965D02*
X0074290Y0091965D01*
M02*
